<svg width="120" height="120" viewBox="0 0 120 120" fill="none" xmlns="http://www.w3.org/2000/svg">
<g clip-path="url(#clip0_81_1139)">
<mask id="mask0_81_1139" style="mask-type:luminance" maskUnits="userSpaceOnUse" x="-459" y="7" width="578" height="118">
<path d="M118.56 7.07703H-458.285V124.8H118.56V7.07703Z" fill="white"/>
</mask>
<g mask="url(#mask0_81_1139)">
<path d="M31.3507 113.907C32.4077 113.907 33.5887 113.509 34.6797 113.334C35.2717 113.24 35.8397 112.938 36.4587 112.989C39.6307 114.234 42.7267 115.783 46.0977 116.43C46.9307 116.591 48.0887 116.614 49.0227 116.775C50.6597 117.056 53.6087 117.188 54.6467 118.152C54.7207 118.767 55.0127 119.356 54.9917 119.989C42.7527 119.984 30.5127 120.012 18.2737 119.989C17.9927 118.751 17.5487 117.581 17.0127 116.432L22.2327 110.351C24.4727 111.163 29.2977 113.912 31.3557 113.907H31.3507Z" fill="#9099AA"/>
<path d="M13.91 113.217C14.598 114.69 15.767 118.187 16.55 119.987C12.234 119.977 7.89701 120.088 3.58301 119.987C5.37901 115.532 7.02701 111.016 9.09201 106.677C9.68801 107.199 10.53 107.614 11.157 108.111C11.99 109.849 13.095 111.472 13.91 113.217Z" fill="#837E95"/>
<path d="M7.59782 105.3C7.66182 105.379 8.82482 106.444 9.08882 106.677C7.02482 111.016 5.37582 115.532 3.58082 119.987C2.74082 119.966 1.89782 120 1.05582 119.987C1.04582 117.577 1.06882 115.166 1.05582 112.759C2.08182 111.994 6.46982 105.222 6.90682 105.013C7.25182 104.847 7.48282 105.604 7.59482 105.3H7.59782Z" fill="#9E98AF"/>
<path d="M15.6307 114.135C16.0107 114.913 16.6237 115.606 17.0077 116.43C17.5437 117.581 17.9887 118.748 18.2687 119.987H16.5477C15.7667 118.187 14.5957 114.69 13.9067 113.217L15.6287 114.135H15.6307Z" fill="#52688E"/>
<path d="M53.8408 110.924C55.7498 111.877 58.0508 112.333 59.2348 114.365C59.4328 115.093 59.6808 115.875 60.0378 116.545C59.9478 117.277 60.4478 119.07 60.1528 119.987H55.6778C55.2708 117.374 55.0728 114.754 54.1868 112.241C54.0388 111.826 53.2428 110.919 53.8408 110.922V110.924Z" fill="#C36298"/>
<path d="M51.7759 109.545C52.1769 109.971 53.3229 110.664 53.8409 110.922C53.2399 110.922 54.0389 111.826 54.1869 112.241C55.0729 114.754 55.2729 117.374 55.6779 119.987H54.9899C55.0109 119.354 54.7209 118.764 54.6449 118.15C54.0549 113.277 54.6149 113.744 51.3159 109.315C51.6869 109.559 51.7529 109.531 51.7739 109.545H51.7759Z" fill="#B33A85"/>
<path d="M31.925 92.6789C30.221 93.5509 28.58 94.5639 26.876 95.4319C26.089 95.8329 25.265 96.1709 24.466 96.5779C21.616 98.0349 15.671 100.876 13.452 102.315C13.046 102.577 11.546 103.44 11.502 103.864C12.471 107.464 13.999 110.802 15.634 114.133L13.912 113.214C13.097 111.47 11.992 109.847 11.159 108.109C10.533 107.611 9.68804 107.197 9.09404 106.675C8.82904 106.442 7.66704 105.376 7.60204 105.298C7.41104 105.061 7.17204 104.856 7.14404 104.667C13.843 99.1749 24.004 95.4529 31.814 91.2999C31.984 91.3369 31.95 92.0779 31.929 92.6769L31.925 92.6789Z" fill="#1F2E54"/>
<path d="M42.9391 78.3359C42.9141 78.8949 42.7871 79.4359 42.8241 79.9999C42.8171 80.0939 42.5961 80.0459 42.5941 80.0569C42.3361 80.1469 41.7911 80.3009 41.5601 80.2879C41.2751 80.2689 40.4951 80.0159 40.4141 79.7139C41.2571 79.2559 42.1311 78.8629 42.9391 78.3379V78.3359Z" fill="#F8EAEF"/>
<path d="M96.0679 94.286C93.8829 92.909 92.9509 93.059 90.5019 93.712L90.3869 98.991C90.2719 99.085 88.5499 97.163 88.4939 97.041C88.2249 96.445 88.4509 93.402 88.7249 92.681C90.6949 92.835 92.6649 92.987 94.6339 93.139C95.2459 93.365 95.6029 93.901 96.0679 94.286Z" fill="#F8EAEF"/>
<path d="M96.0679 94.2861C96.8439 94.9301 97.4209 95.7981 98.3629 96.2351C98.1119 96.5141 98.1489 96.6731 98.1329 96.6931C96.7449 98.7261 95.1879 100.607 93.8879 102.718C92.1089 105.6 90.5589 108.684 88.9549 111.667L92.6839 111.725C95.4879 109.103 98.5259 106.776 101.691 104.61C101.77 104.718 102.237 105.257 102.38 105.413C102.621 109.992 103.169 114.543 103.183 119.126C103.183 119.153 103.335 119.607 103.413 119.641C103.37 119.766 103.257 119.828 103.298 119.987C90.8679 120.017 78.4369 119.982 66.0049 119.987C66.3639 118.73 66.7389 117.542 67.8419 116.773C68.2369 116.497 69.7079 115.928 70.2519 115.627C76.2479 112.291 82.1639 108.714 87.2349 104.037C87.6819 102.533 87.9629 97.6691 88.2689 96.9791C88.3289 96.8451 88.3909 97.0461 88.4989 97.0361C88.5539 97.1611 90.2759 99.0811 90.3909 98.9861L90.5059 93.7081C92.9559 93.0561 93.8879 92.9041 96.0719 94.2811L96.0679 94.2861Z" fill="#F3C4AD"/>
<path d="M118.558 115.054C118.546 116.697 118.567 118.343 118.558 119.987C116.417 119.998 114.274 119.973 112.133 119.987C111.719 117.832 109.939 109.046 109.608 108.111C109.576 108.021 109.454 108.053 109.378 108.053C109.787 106.451 110.029 104.736 110.411 103.12C110.554 102.936 110.671 102.764 110.756 102.547C111.205 102.867 111.719 103.072 112.191 103.351L113.051 104.212C113.618 105.524 115.445 107.768 115.805 108.456C116.617 110.017 117.421 113.348 118.558 115.054Z" fill="#F3C4AD"/>
<path d="M112.133 119.987C109.647 120.003 107.161 119.982 104.675 119.987C106.392 116.046 108.307 112.234 109.38 108.053C109.456 108.053 109.578 108.021 109.61 108.111C109.939 109.046 111.721 117.832 112.135 119.987H112.133Z" fill="#F3C4AD"/>
<path d="M110.411 103.12C110.029 104.736 109.79 106.451 109.378 108.053C108.305 112.236 106.392 116.048 104.672 119.987H103.296C103.254 119.828 103.367 119.768 103.411 119.641C103.963 118.076 104.843 116.633 105.476 115.109C106.293 113.145 106.866 111.053 107.656 109.085C108.399 107.229 109.216 104.674 110.409 103.118L110.411 103.12Z" fill="#FAE5D5"/>
<path d="M109.035 101.514L105.133 107.48C104.325 106.935 103.1 106.205 102.38 105.415C102.237 105.259 101.77 104.72 101.691 104.612C100.725 103.284 98.6438 98.5121 98.1348 96.6931C98.1488 96.6731 98.1138 96.5121 98.3648 96.2351C101.091 97.2391 103.936 98.0911 106.454 99.5641C107.584 100.225 108.77 101.336 109.037 101.514H109.035Z" fill="#FAE5D5"/>
<path d="M110.756 102.547C110.674 102.766 110.554 102.936 110.411 103.12C109.219 104.677 108.402 107.232 107.658 109.087C106.799 108.581 105.959 108.037 105.133 107.48L109.035 101.514C109.571 101.875 110.232 102.172 110.756 102.547Z" fill="#FBD9C6"/>
<path d="M101.691 104.612C98.5261 106.778 95.4881 109.105 92.6841 111.727L88.9551 111.67C90.5621 108.686 92.1111 105.602 93.8881 102.72C95.1911 100.609 96.7471 98.728 98.1331 96.696C98.6411 98.512 100.725 103.286 101.689 104.614L101.691 104.612Z" fill="#F3C4AD"/>
<path d="M105.133 107.48C105.959 108.037 106.799 108.581 107.658 109.087C106.868 111.055 106.293 113.148 105.478 115.111C104.845 116.635 103.966 118.078 103.413 119.644C103.335 119.609 103.183 119.156 103.183 119.128C103.169 114.545 102.621 109.994 102.38 105.415C103.1 106.207 104.325 106.935 105.133 107.48Z" fill="#F3C4AD"/>
<path d="M51.316 109.317C54.615 113.746 54.053 113.279 54.645 118.152C53.606 117.188 50.66 117.056 49.021 116.775C44.797 113.935 40.559 110.988 36.742 107.595C36.704 105.76 36.666 103.924 36.627 102.087C38.66 100.837 40.633 99.4809 42.709 98.2999C45.239 101.394 43.954 100.429 45.004 102.833C45.534 104.046 50.114 108.521 51.316 109.315V109.317Z" fill="#602048"/>
<path d="M24.236 101.168C24.455 103.173 29.247 112.632 30.375 113.447C30.55 113.573 31.1 113.723 31.351 113.905C29.293 113.91 24.469 111.161 22.229 110.348L17.008 116.43C16.624 115.606 16.011 114.913 15.631 114.135C13.999 110.802 12.471 107.464 11.499 103.866C11.546 103.443 13.044 102.579 13.449 102.317L21.538 109.545C20.242 105.095 20.274 103.756 24.234 101.168H24.236Z" fill="#ADB1B9"/>
<path d="M31.925 92.679C31.872 94.267 31.968 99.037 32.498 100.252C32.597 100.478 32.721 100.466 32.728 100.482C32.698 101.166 33.071 101.783 33.186 102.432C33.269 102.902 33.285 103.551 33.301 104.039V104.327C34.39 105.484 35.557 106.543 36.742 107.598C40.559 110.991 44.797 113.937 49.021 116.778C48.086 116.617 46.929 116.594 46.095 116.432C42.725 115.783 39.629 114.234 36.457 112.991C35.838 112.938 35.269 113.24 34.678 113.336C32.677 110.484 29.128 98.293 28.711 97.559C28.642 97.437 27.044 95.991 26.874 95.437C28.58 94.569 30.219 93.554 31.922 92.683L31.925 92.679Z" fill="#384772"/>
<path d="M26.8758 95.432C27.0468 95.987 28.6418 97.432 28.7128 97.554C29.1298 98.289 32.6818 110.48 34.6798 113.332C33.5888 113.507 32.4078 113.903 31.3508 113.905C31.0998 113.723 30.5528 113.573 30.3748 113.447C29.2468 112.632 24.4548 103.173 24.2358 101.168C24.0798 99.73 24.4158 98.031 24.4658 96.578C25.2648 96.171 26.0888 95.83 26.8758 95.432Z" fill="#52688E"/>
<path d="M44.0878 94.055C41.1388 92.969 40.7198 88.105 40.3008 85.336L42.5958 83.271C42.6908 83.282 42.7848 83.075 42.8258 83.213C42.9018 83.478 42.8378 86.91 43.0568 88.722C43.2728 90.522 43.9338 92.251 44.0898 94.058L44.0878 94.055Z" fill="#111023"/>
<path d="M78.6259 88.892L77.4799 87.055C77.6889 84.917 77.4589 82.564 77.4799 80.4C79.6139 82.626 79.0309 86.109 78.6259 88.892Z" fill="#1E2242"/>
<path d="M24.4657 96.578C24.4157 98.031 24.0797 99.73 24.2357 101.168C20.2767 103.756 20.2447 105.095 21.5407 109.545L13.4517 102.317C15.6707 100.876 21.6157 98.035 24.4657 96.581V96.578Z" fill="#70809A"/>
<path d="M85.8556 53.09C85.8426 54.354 85.8626 56.483 85.7406 57.623C85.7086 57.929 84.9166 60.961 85.9716 58.656C86.0516 58.481 86.8616 55.579 86.7746 55.1C87.0396 55.024 86.9726 54.923 87.1196 54.699C86.8556 58.187 84.1206 63.612 80.5796 64.568C80.6446 63.534 80.7616 62.51 80.6956 61.469C81.3696 60.433 82.7436 60.993 82.3016 58.944C82.5226 58.191 84.4266 58.463 84.5966 57.052C83.2986 56.78 82.4796 57.335 81.4986 58.028C81.4086 58.09 80.9556 58.332 80.8106 58.373C80.8566 57.841 80.9226 57.611 80.9256 57.57C81.1256 57.404 81.3026 57.031 81.4986 56.882C82.1706 56.368 83.8976 55.657 84.7696 55.848C84.8666 55.781 84.8366 55.413 84.8276 55.275C86.3646 55.367 85.1426 53.634 85.8606 53.095L85.8556 53.09Z" fill="#F3C4AD"/>
<path d="M87.8059 54.124C86.3439 54.729 88.0709 51.937 87.2329 50.222C86.4459 48.608 83.8469 50.176 83.4459 51.656C82.7929 54.062 84.7009 51.196 85.9719 50.565C85.7869 51.401 85.8659 52.245 85.8559 53.09C85.1379 53.629 86.3609 55.362 84.8229 55.27C84.6959 53.311 82.4609 54.301 81.6089 55.155C81.7449 53.776 81.8399 50.167 82.6429 49.188C82.6869 49.133 83.6859 48.431 83.7889 48.385C84.8569 47.932 86.6939 47.69 87.4609 48.786C87.9719 49.518 88.5909 53.558 87.8059 54.122V54.124Z" fill="#F6EBC1"/>
<path d="M87.2329 50.2219C88.0709 51.9369 86.3439 54.7269 87.8059 54.1239C86.9979 54.4229 87.1429 54.6599 87.1179 54.6969C86.9709 54.9229 87.0369 55.0219 86.7729 55.0979C86.8599 55.5789 86.0499 58.4789 85.9689 58.6539C84.9149 60.9609 85.7069 57.9289 85.7389 57.6199C85.8609 56.4809 85.8399 54.3519 85.8539 53.0879C85.8629 52.2449 85.7849 51.3979 85.9689 50.5629C86.5419 50.2799 86.5519 50.2499 87.2309 50.2169L87.2329 50.2219Z" fill="#E9A892"/>
<path d="M81.4937 58.026C81.4207 58.537 81.7497 58.983 82.2977 58.944C82.7397 60.99 81.3647 60.433 80.6907 61.469C80.6787 61.488 80.5067 61.421 80.4607 61.527C80.4397 61.651 80.4907 61.824 80.4607 61.927L80.3457 60.436C80.4807 60.235 80.6237 60.479 80.8037 59.92C80.8357 59.409 80.7597 58.88 80.8037 58.371C80.9487 58.332 81.4017 58.09 81.4917 58.026H81.4937Z" fill="#F6B4A9"/>
<path d="M84.8225 55.27C84.8315 55.408 84.8615 55.777 84.7645 55.843C83.8925 55.65 82.1655 56.364 81.4935 56.877C81.2865 56.322 81.5535 55.698 81.6085 55.155C82.4605 54.299 84.6955 53.309 84.8225 55.27Z" fill="#A23259"/>
<path d="M82.2975 58.942C81.7495 58.981 81.4205 58.534 81.4935 58.023C82.4745 57.333 83.2935 56.778 84.5925 57.047C84.4215 58.461 82.5185 58.189 82.2975 58.939V58.942Z" fill="#F29EA3"/>
<path d="M87.2327 50.222C86.5517 50.254 86.5417 50.282 85.9717 50.567C84.7027 51.198 82.7947 54.064 83.4457 51.658C83.8467 50.178 86.4457 48.611 87.2327 50.224V50.222Z" fill="#892654"/>
<path d="M39.1527 54.352C39.3387 55.388 39.3457 56.338 39.6107 56.189C39.6307 57.779 39.8497 60.737 40.2987 62.155C40.2047 62.837 40.2387 63.882 40.2987 64.565C38.1577 65.026 38.4507 65.509 36.7417 62.786C36.1877 61.902 35.8517 60.887 35.3657 59.975C35.6167 59.671 36.1807 60.852 37.1447 61.122C37.9787 61.356 40.4457 61.343 39.4977 59.918C39.3137 59.639 38.7517 59.957 38.4637 59.975C38.6017 59.662 38.4337 59.522 38.4637 59.402C38.5127 59.213 38.6847 59.324 38.6947 59.23C38.8027 58.171 38.0567 55.238 37.7757 54.009C38.3167 53.756 38.7957 54.032 39.1527 54.354V54.352Z" fill="#431032"/>
<path d="M33.7609 48.73C34.9859 49.046 36.9859 51.771 37.5479 52.862L35.0799 52.059L34.9079 52.289C34.6019 53.858 34.2959 55.426 33.9889 56.994C31.7559 54.888 32.2629 49.237 33.7589 48.733L33.7609 48.73Z" fill="#431032"/>
<path d="M35.3658 53.663C35.4628 54.315 35.4458 54.971 35.5958 55.613C35.5978 56.331 35.8818 56.93 36.1688 57.563C36.7258 58.788 36.9608 59.23 38.4638 59.4C38.4338 59.52 38.6018 59.66 38.4638 59.973C35.1008 60.18 34.9538 57.696 34.5628 58.712L33.9888 56.99C34.2948 55.421 34.6008 53.853 34.9078 52.285C35.3218 52.575 35.2968 53.185 35.3658 53.661V53.663Z" fill="#602048"/>
<path d="M37.2028 49.304C37.3798 49.393 38.4018 50.125 38.4638 50.28C38.4918 50.834 38.5728 51.403 38.6948 51.944C38.8718 52.733 39.0098 53.555 39.1528 54.354C38.7958 54.034 38.3168 53.758 37.7758 54.009C37.7668 53.972 37.7848 53.93 37.7758 53.894C37.7138 53.627 38.2728 54.273 37.5458 52.86C36.9838 51.771 34.9838 49.046 33.7588 48.728C34.5208 48.47 36.4868 48.942 37.2008 49.301L37.2028 49.304Z" fill="#602048"/>
<path d="M38.464 59.975C38.752 59.957 39.311 59.639 39.498 59.918C40.446 61.345 37.979 61.356 37.145 61.122C36.181 60.852 35.619 59.671 35.366 59.975C35.133 59.543 34.825 59.131 34.563 58.714C34.954 57.699 35.101 60.182 38.464 59.975Z" fill="#1C101F"/>
<path d="M37.7757 53.894C37.7847 53.93 37.7667 53.972 37.7757 54.009C38.0547 55.238 38.8027 58.171 38.6947 59.23C38.6847 59.322 38.5127 59.213 38.4637 59.402C36.9607 59.232 36.7257 58.79 36.1687 57.565C36.7357 55.613 37.0967 54.573 35.5957 55.615C35.4487 54.973 35.4627 54.317 35.3657 53.666L37.7757 53.896V53.894Z" fill="#1C101F"/>
<path d="M37.5482 52.86C38.2762 54.271 37.7162 53.624 37.7782 53.894L35.3682 53.663C35.2992 53.187 35.3242 52.577 34.9102 52.287L35.0832 52.057L37.5502 52.86H37.5482Z" fill="#892654"/>
<path d="M36.1687 57.565C35.8817 56.932 35.5977 56.334 35.5957 55.615C37.0967 54.573 36.7377 55.615 36.1687 57.565Z" fill="#311434"/>
<path d="M36.7447 107.595C35.5587 106.541 34.3897 105.482 33.3027 104.324V104.037C34.3917 103.36 35.5407 102.754 36.6317 102.087C36.6697 103.922 36.7087 105.758 36.7467 107.595H36.7447Z" fill="#1F2E54"/>
<path d="M40.4156 79.712C40.4966 80.016 41.2766 80.267 41.5626 80.285C40.2546 81.28 39.9236 82.679 39.8406 82.81C39.0646 84.037 38.2336 85.297 37.2006 86.309C36.6776 89.571 35.6766 92.716 34.7896 95.89C33.5586 96.673 33.4546 99.044 32.4946 100.25C31.9656 99.034 31.8686 94.265 31.9216 92.677C31.9426 92.078 31.9766 91.335 31.8066 91.3L33.8716 84.242C35.8556 82.442 38.0676 80.985 40.4116 79.71L40.4156 79.712Z" fill="#A67FAE"/>
<path d="M40.3005 85.3329C40.7195 88.1049 41.1385 92.9689 44.0875 94.0529L44.3175 95.4299C43.2425 95.4179 42.1765 95.0889 41.1045 95.0839C41.3555 94.6559 39.9925 94.7069 39.6705 94.7389C38.4105 94.8699 36.0695 95.9199 34.7925 95.8849C35.6785 92.7109 36.6795 89.5639 37.2025 86.3049C38.2355 85.2919 39.0645 84.0329 39.8425 82.8059C39.9995 83.6439 40.1745 84.4889 40.3005 85.3309V85.3329Z" fill="#A95589"/>
<path d="M42.5958 83.269L40.3008 85.333C40.1748 84.491 39.9998 83.646 39.8428 82.808C39.9258 82.677 40.2578 81.28 41.5648 80.283C41.7948 80.297 42.3378 80.145 42.5988 80.053C42.5728 80.4 42.9368 82.509 42.5988 83.266L42.5958 83.269Z" fill="#621F5A"/>
<path d="M41.1045 95.087C40.7385 95.087 40.6025 94.889 40.5305 95.029C40.2105 95.653 40.8145 96.166 41.1045 96.578C39.8035 97.888 35.1425 101.622 33.8765 102.202C33.5995 101.774 32.7805 100.588 32.7295 100.48C32.7225 100.466 32.5985 100.475 32.4995 100.25C33.4595 99.044 33.5635 96.673 34.7945 95.89C36.0725 95.922 38.4135 94.875 39.6725 94.744C39.9945 94.709 41.3575 94.661 41.1065 95.089L41.1045 95.087Z" fill="#B33A85"/>
<path d="M42.7105 98.2999C40.6345 99.4809 38.6615 100.837 36.6295 102.087C35.5385 102.757 34.3895 103.36 33.3005 104.037C33.2845 103.549 33.2685 102.902 33.1855 102.43C33.4175 102.308 33.6275 102.312 33.8735 102.2C35.1395 101.62 39.8035 97.8859 41.1015 96.5759C41.5095 97.1539 42.2255 97.7039 42.7085 98.2979L42.7105 98.2999Z" fill="#A67FAE"/>
<path d="M33.8738 102.202C33.6278 102.315 33.4178 102.308 33.1858 102.432C33.0708 101.783 32.6978 101.166 32.7278 100.482C32.7808 100.591 33.5978 101.776 33.8738 102.204V102.202Z" fill="#BB81B1"/>
<path d="M41.105 95.0869C42.177 95.0909 43.243 95.4199 44.318 95.4319C45.635 96.5249 46.615 97.9499 47.417 99.4489C46.406 98.4839 48.609 103.956 49.138 104.785C49.283 105.01 52.6 108.606 52.867 108.629C52.932 108.634 52.884 108.307 53.155 108.399C52.971 110.187 54.115 110.869 51.779 109.545C51.756 109.534 51.689 109.561 51.321 109.315C50.119 108.521 45.54 104.046 45.009 102.833C43.959 100.429 45.244 101.394 42.714 98.2999C42.23 97.7089 41.514 97.1559 41.107 96.5779C40.817 96.1659 40.214 95.6529 40.534 95.0289C40.605 94.8889 40.741 95.0839 41.107 95.0869H41.105Z" fill="#F3C4AD"/>
<path d="M47.414 99.4489C49.394 101.917 51.76 103.526 51.889 103.809C52.159 104.4 51.928 105.484 52.004 106.161C52.186 106.583 53.201 105.973 53.496 105.874C53.194 106.783 53.505 107.292 53.496 107.365C53.489 107.418 53.213 107.282 53.151 108.399C52.879 108.307 52.927 108.634 52.863 108.629C52.596 108.606 49.279 105.01 49.134 104.785C48.604 103.958 46.401 98.4839 47.412 99.4489H47.414Z" fill="#FAE5D5"/>
<path d="M60.2659 105.874C59.5869 106.741 58.8389 107.538 58.0859 108.341C57.9729 108.785 59.0019 113.518 59.2319 114.365C58.0489 112.33 55.7469 111.875 53.8389 110.924C53.3209 110.666 52.1749 109.973 51.7739 109.547C54.1109 110.871 52.9659 110.19 53.1509 108.401C53.2099 107.285 53.4889 107.423 53.4959 107.367C55.6549 106.87 58.1159 105.839 60.2659 105.876V105.874Z" fill="#E9A892"/>
<path d="M57.973 105.415C61.339 105.135 61.295 104.564 60.268 105.874C58.118 105.837 55.657 106.868 53.498 107.365C53.507 107.292 53.197 106.783 53.498 105.874C53.832 105.763 55.4 105.061 55.506 105.07C55.731 105.091 55.998 105.604 56.194 105.643C56.316 105.669 57.474 105.455 57.973 105.413V105.415Z" fill="#F3C4AD"/>
<path d="M81.8397 81.7769C82.5257 82.2069 84.4907 82.9669 84.8227 83.5559C85.3017 87.4489 87.3317 89.2139 88.7247 92.6789C88.4507 93.3989 88.2247 96.4429 88.4937 97.0389C88.3857 97.0479 88.3237 96.8479 88.2637 96.9809C87.9577 97.6719 87.6767 102.533 87.2307 104.039C86.9907 104.214 87.0437 104.069 86.8847 104.039C83.7127 100.28 79.3067 98.4469 77.7047 97.2689C77.4477 97.0799 77.1797 96.9079 76.9017 96.7529C76.7317 96.3459 77.7607 92.7889 77.9357 91.9909C77.9537 91.9009 78.0937 91.6539 78.1657 91.3019C78.3287 90.5009 78.5057 89.7019 78.6237 88.8919C79.0267 86.1089 79.6087 82.6259 77.4767 80.3999C77.4797 80.0549 77.4727 79.7119 77.4767 79.3669C78.6507 79.7119 83.6397 85.6829 84.0747 85.5639C85.2167 85.2479 81.9427 82.3819 81.8367 81.7769H81.8397Z" fill="#CCE9F6"/>
<path d="M81.84 81.7769C81.945 82.3819 85.219 85.2479 84.077 85.5639C83.64 85.6859 78.654 79.7139 77.48 79.3669C77.482 79.2149 77.477 79.0609 77.48 78.9089C78.914 79.8939 80.369 80.8539 81.84 81.7769Z" fill="#A2D8ED"/>
<path d="M86.8878 104.039C85.4838 103.763 82.3508 101.666 81.0358 100.71C79.8048 99.815 78.6328 98.784 77.5368 97.727C76.9108 98.054 76.3818 98.546 75.7578 98.873C74.2688 99.658 76.3518 98.137 76.8488 97.84C77.3598 97.536 77.8318 97.741 77.7098 97.267C79.3118 98.445 83.7178 100.278 86.8898 104.037L86.8878 104.039Z" fill="#639CD1"/>
<path d="M67.8388 116.775C66.7368 117.544 66.3638 118.732 66.0018 119.989H61.8698C61.5568 115.818 64.0728 112.614 66.3448 109.432C66.4668 111.941 67.2778 114.345 67.8368 116.775H67.8388Z" fill="#F7E17C"/>
<path d="M81.0356 100.71C82.3506 101.666 85.4836 103.763 86.8876 104.039C87.0436 104.069 86.9936 104.214 87.2326 104.039C82.1616 108.714 76.2476 112.294 70.2486 115.629C70.1616 115.229 70.1016 114.6 70.0186 114.253C72.7716 110.54 75.3206 106.661 78.5106 103.295C77.9746 102.766 77.9306 103.898 77.3646 102.895C78.5866 102.167 79.7486 101.327 81.0356 100.715V100.71Z" fill="#F5AF77"/>
<path d="M75.6427 99.219C75.3847 99.709 72.0377 104.877 71.6257 105.415C71.0477 106.173 69.2527 107.667 68.6427 108.802C68.5137 109.517 69.7677 113.203 70.0187 114.253C70.1017 114.6 70.1617 115.229 70.2487 115.629C69.7057 115.931 68.2367 116.499 67.8387 116.775C67.2797 114.345 66.4697 111.939 66.3477 109.432C66.8857 108.68 67.5307 108.003 68.0687 107.252C69.4207 106.198 70.4167 104.7 71.2827 103.236C72.6357 101.785 73.7827 100.112 75.6427 99.219Z" fill="#FABB6F"/>
<path d="M71.2828 103.236C70.4198 104.697 69.4228 106.198 68.0688 107.252C68.8358 106.187 69.6968 105.174 70.3638 104.039C70.5738 104.145 71.0088 103.528 71.2828 103.236Z" fill="#96AA9C"/>
<path d="M70.021 114.25C69.771 113.203 68.516 109.515 68.645 108.799C69.255 107.667 71.05 106.17 71.628 105.413C71.143 106.175 72.307 105.616 73.293 105.183C74.443 104.679 76.214 103.574 77.367 102.888C77.933 103.892 77.977 102.759 78.513 103.288C75.323 106.656 72.775 110.535 70.021 114.246V114.25Z" fill="#D79360"/>
<path d="M81.0357 100.71C79.7487 101.323 78.5867 102.163 77.3647 102.89C76.2107 103.576 74.4407 104.681 73.2897 105.185C72.3047 105.618 71.1397 106.177 71.6257 105.415C72.0377 104.877 75.3827 99.7089 75.6427 99.2189C75.6517 99.2029 75.8107 99.2649 75.7577 98.8729C76.3817 98.5439 76.9107 98.0519 77.5367 97.7269C78.6327 98.7839 79.8047 99.8149 81.0357 100.71Z" fill="#B37652"/>
<path d="M77.7078 97.269C77.8298 97.743 77.3578 97.538 76.8468 97.842C76.3518 98.137 74.2658 99.661 75.7558 98.876C75.8088 99.265 75.6498 99.205 75.6398 99.221C73.7808 100.112 72.6318 101.788 71.2808 103.238C71.0068 103.53 70.5718 104.145 70.3618 104.041C71.5798 101.969 71.9668 100.593 72.6568 98.305C73.0988 97.757 73.3638 96.97 73.8038 96.413C75.0398 94.845 76.5728 93.455 77.9358 91.995C77.7628 92.792 76.7318 96.35 76.9018 96.758C77.1798 96.914 77.4478 97.085 77.7048 97.274L77.7078 97.269Z" fill="#6FAEDC"/>
<path d="M74.324 99.677C74.734 99.743 74.232 99.884 74.209 99.907C73.205 100.952 73.511 100.156 74.324 99.677Z" fill="#5EBFE6"/>
<path d="M39.9558 51.599C39.9508 52.968 40.2278 54.354 40.1858 55.731C40.1628 55.754 40.1678 55.77 40.0708 55.846C40.0298 55.878 39.8568 55.503 39.6128 56.191C39.3458 56.341 39.3388 55.392 39.1548 54.354C39.0118 53.558 38.8738 52.733 38.6968 51.944L39.9578 51.599H39.9558Z" fill="#111023"/>
<path d="M84.365 20.847C84.602 20.935 85.104 20.948 85.168 21.248C84.729 22.999 83.941 25.34 84.022 27.042C83.262 27.327 84.146 24.804 83.964 24.747C81.791 28.073 81.54 31.915 81.211 35.761C81.476 35.902 82.457 33.793 82.645 33.409C83.637 31.39 84.379 29.215 85.286 27.154C85.921 27.177 88.315 27.016 88.384 27.327C88.234 27.999 85.799 32.267 85.974 32.49C86.172 32.743 87.079 32.189 87.12 32.948C87.192 34.237 84.636 40.342 84.595 40.752C84.533 41.392 85.069 41.781 85.053 42.702C85.044 43.27 84.02 47.158 83.792 48.381C83.686 48.424 82.689 49.129 82.645 49.184C81.966 49.076 81.497 49.762 80.923 49.299C80.707 46.979 80.346 44.769 79.777 42.529C80.396 41.164 80.343 39.497 80.696 37.996C78.953 37.009 78.817 33.614 78.17 31.685L81.154 27.898C79.222 28.3 77.29 28.701 75.36 29.102C75.173 29.143 75.113 28.879 74.959 28.872C74.628 28.082 74.361 27.253 74.041 26.462C74.227 26.517 74.335 26.296 74.386 26.174C75.53 23.407 76.996 18.244 77.542 15.217L78.23 25.888L84.369 20.84L84.365 20.847Z" fill="#311434"/>
<path d="M84.365 20.8469L78.226 25.8949L77.537 15.2229C76.992 18.2509 75.528 23.4139 74.381 26.1809C74.331 26.3029 74.225 26.5239 74.036 26.4679C73.081 24.1089 72.054 21.7539 71.053 19.4109C71.041 19.3829 70.79 19.3139 70.707 19.1229C69.946 17.3439 69.135 15.5709 68.528 13.7299C68.431 13.4369 67.71 11.5569 67.897 11.4349C68.424 11.7449 69.414 12.1089 69.962 11.8929C70.042 12.1179 70.15 12.2379 70.362 12.3509C70.489 12.4199 70.544 12.7009 70.993 12.9239C71.184 13.0179 74.918 14.1319 75.125 14.0699L77.42 10.2839L80.691 19.6359C81.133 20.1659 83.58 20.5519 84.363 20.8399L84.365 20.8469Z" fill="#513363"/>
<path d="M84.02 27.044C84.39 27.246 84.864 27.143 85.281 27.159C84.374 29.219 83.633 31.395 82.641 33.413C82.452 33.798 81.471 35.906 81.207 35.766C81.536 31.919 81.789 28.077 83.96 24.751C84.142 24.806 83.258 27.332 84.017 27.046L84.02 27.044Z" fill="#513363"/>
<path d="M70.3639 12.355C70.1529 12.242 70.0449 12.12 69.9639 11.897C69.4159 12.111 68.4259 11.748 67.8989 11.439C67.7129 11.561 68.4329 13.442 68.5299 13.734C68.3959 13.702 68.2329 13.794 68.1849 13.907C67.6479 15.166 68.2559 25.822 65.2009 29.799C63.8149 30.856 63.4239 31.406 61.6449 32.209C61.3799 32.14 61.1449 32.435 61.0719 32.267C60.9749 32.048 62.1509 29.565 62.4479 27.677C62.6139 26.62 62.6619 25.532 62.5629 24.463C61.9119 22.369 61.3689 20.214 60.6129 18.152C60.4109 17.599 59.0159 13.99 58.8919 13.792C58.8249 13.683 58.6519 13.748 58.5459 13.734C58.9809 12.074 60.9169 10.019 61.9879 8.68598C62.5979 8.21398 63.0879 7.60198 63.6519 7.07898C66.8979 8.29898 67.9679 11.863 67.7839 7.88298C68.6449 9.37398 69.5059 10.866 70.3669 12.358L70.3639 12.355Z" fill="#311434"/>
<path d="M61.6449 32.207C61.3919 32.322 61.2579 32.465 60.9559 32.552C58.6269 32.564 59.7179 32.138 59.8099 30.66C60.0789 26.3 60.0629 18.805 58.3179 14.825C58.4109 14.471 58.4569 14.089 58.5489 13.734C58.6549 13.746 58.8249 13.683 58.8939 13.792C59.0179 13.99 60.4129 17.601 60.6159 18.152C61.3729 20.212 61.9139 22.366 62.5659 24.463C62.6649 25.532 62.6159 26.62 62.4499 27.677C62.1529 29.565 60.9769 32.048 61.0739 32.267C61.1479 32.435 61.3849 32.14 61.6469 32.209L61.6449 32.207Z" fill="#1C101F"/>
<path d="M58.546 13.732C58.454 14.084 58.408 14.466 58.316 14.823C60.061 18.803 60.077 26.298 59.808 30.658C59.716 32.136 58.625 32.562 60.954 32.55C60.924 32.559 60.881 32.778 60.381 32.78C59.44 32.564 58.542 32.285 57.628 31.977C55.427 31.236 53.144 29.908 49.654 29.682C47.746 30.794 44.396 35.722 43.975 37.601C43.616 39.203 43.625 40.849 43.63 42.478C40.757 45.324 39.972 47.589 39.958 51.601L38.697 51.946C38.575 51.408 38.494 50.837 38.467 50.282C38.402 50.128 37.382 49.396 37.205 49.306C36.853 47.342 35.598 43.611 35.368 42.133C34.942 39.38 35.207 35.842 33.646 31.346L38.695 27.79C38.464 25.801 38.235 23.812 38.006 21.823C39.233 19.39 40.886 17.18 42.769 15.226C43.89 15.134 45.14 15.451 46.155 14.996C45.598 15.449 47 17.245 47.417 18.094C48.411 20.12 49.263 23.34 51.949 23.603C53.42 23.745 55.229 22.889 55.908 21.538C56.652 20.058 55.42 17.155 54.417 15.859C53.954 15.26 53.358 14.996 52.81 14.54C52.225 14.052 51.71 13.674 51.203 13.048H51.491C52.011 12.666 52.511 11.72 52.867 11.441C53.079 11.276 57.421 9.07499 57.688 9.03099C58.355 8.92299 60.662 8.94399 61.244 9.37699C61.479 9.12599 61.716 8.89999 61.99 8.68799C60.92 10.021 58.984 12.077 58.549 13.736L58.546 13.732Z" fill="#070709"/>
<path d="M51.201 13.0439C51.705 13.6699 52.223 14.0469 52.808 14.5349C52.844 15.1059 52.874 15.6879 52.923 16.2569L47.414 18.0939C46.998 17.2449 45.593 15.4489 46.153 14.9959C46.922 14.6499 47.716 12.7929 51.201 13.0459V13.0439Z" fill="#111023"/>
<path d="M52.9231 16.2569C52.9621 16.7199 53.2591 17.1819 52.9231 17.5759C53.9421 18.8399 54.5781 20.5799 55.9061 21.5349C55.2271 22.8869 53.4181 23.7429 51.9471 23.5999C49.2601 23.3399 48.4091 20.1199 47.4141 18.0919L52.9231 16.2549V16.2569Z" fill="#1C101F"/>
<path d="M55.9061 21.5349C54.5781 20.5819 53.9421 18.8399 52.9231 17.5759C53.2591 17.1819 52.9621 16.7199 52.9231 16.2569C52.8741 15.6879 52.8441 15.1059 52.8081 14.5349C53.3531 14.9909 53.9521 15.2579 54.4141 15.8539C55.4181 17.1499 56.6501 20.0549 55.9061 21.5329V21.5349Z" fill="#431032"/>
<path d="M68.5302 13.7319C69.1382 15.5729 69.9482 17.3459 70.7102 19.1249C69.7922 21.7829 68.8742 24.4409 67.9572 27.0989C68.0602 27.4809 73.6152 28.8189 74.9572 28.8789C75.1112 28.8849 75.1712 29.1499 75.3572 29.1089C77.2892 28.7069 79.2212 28.3049 81.1512 27.9049L78.1682 31.6919C78.8132 33.6209 78.9512 37.0159 80.6932 38.0029C80.3432 39.5039 80.3942 41.1709 79.7752 42.5359C79.6092 41.8799 79.0472 39.5359 78.9712 39.3799C78.8722 39.1799 78.0972 38.6019 78.0532 38.4609C77.8692 37.8579 78.4122 36.0099 78.3982 35.8209C78.3822 35.6089 77.4682 33.5929 77.2522 33.1259C77.1212 32.8419 77.0702 32.4789 76.9072 32.2069C76.0462 30.7799 75.7142 32.3709 73.5202 32.0919C72.9542 32.0209 71.2902 31.0879 70.5952 30.8309C69.0802 30.2669 67.5652 29.6999 66.0622 29.1089C65.6272 29.0329 65.6522 29.5229 65.4312 29.6819C65.3882 29.7119 65.2402 29.7669 65.2012 29.7969C68.2562 25.8189 67.6482 15.1639 68.1852 13.9039C68.2332 13.7939 68.3962 13.6999 68.5302 13.7319Z" fill="#070709"/>
<path d="M74.0361 26.468C74.3561 27.258 74.6211 28.089 74.9551 28.879C73.6151 28.819 68.0581 27.484 67.9541 27.099C68.8721 24.441 69.7901 21.783 70.7071 19.125C70.7881 19.316 71.0411 19.385 71.0531 19.413C72.0541 21.754 73.0811 24.111 74.0361 26.471V26.468Z" fill="#311434"/>
<path d="M82.643 49.188C81.842 50.167 81.748 53.776 81.609 55.155C81.556 55.698 81.289 56.322 81.494 56.877C81.299 57.027 81.121 57.402 80.921 57.565C80.96 56.248 80.693 54.906 80.691 53.606C80.686 51.707 80.956 50.498 80.921 49.304C81.494 49.766 81.964 49.08 82.643 49.188Z" fill="#1A142C"/>
<path d="M70.3639 104.039C69.6969 105.174 68.8359 106.187 68.0689 107.252C67.5309 108.003 66.8859 108.68 66.3479 109.432C64.0759 112.614 61.5599 115.818 61.8729 119.989H60.1509C60.4449 119.073 59.9459 117.28 60.0359 116.548C60.1549 115.567 64.5409 108.221 64.9689 106.279L65.3139 106.106C68.3319 103.758 70.3159 101.212 72.6569 98.302C71.9669 100.593 71.5799 101.969 70.3619 104.039H70.3639Z" fill="#431032"/>
<path d="M46.9556 70.187C47.0616 70.401 47.2596 70.532 47.4136 70.702C47.4096 71.027 47.4206 71.354 47.4136 71.678C47.3866 72.997 46.5526 74.008 46.6106 74.146C47.6006 74.473 48.8526 75.074 49.4786 75.925C49.4906 75.939 49.4626 76.068 49.5936 76.271C49.9946 76.888 50.4726 78.071 50.7406 78.796C50.7636 78.858 50.6296 79.226 50.8556 80.115C51.5986 82.039 53.4906 84.921 55.7326 83.156C56.1546 85.059 63.1386 87.988 64.2826 88.204C63.8566 88.657 63.1916 88.855 63.1356 88.892C61.7916 89.028 60.4746 89.148 59.1196 89.122C56.8356 89.076 54.6306 88.83 52.7496 87.401C52.2566 87.025 47.1856 81.333 46.6106 80.573C44.8866 78.292 44.1266 76.199 43.3966 75.064C43.2286 74.802 42.9506 74.913 42.9386 74.892C42.7506 74.609 42.6466 74.459 42.3656 74.261C41.5646 73.087 40.4506 66.303 40.3006 64.565C40.2406 63.882 40.2066 62.839 40.3006 62.155C41.0696 64.584 44.6036 68.875 46.9556 70.187Z" fill="#111023"/>
<path d="M80.6906 61.467C80.7596 62.507 80.6396 63.53 80.5756 64.565C80.4116 67.185 79.6986 72.291 78.5106 74.549C78.1266 74.28 78.9936 73.561 78.2226 73.976C77.1796 74.535 71.7916 80.587 71.3956 82.41C71.4046 82.433 71.8326 82.249 71.8536 82.237C70.8036 83.547 68.6626 86.199 67.4936 87.17C67.2016 87.414 66.9416 87.711 66.5746 87.859C65.7256 88.181 66.0406 87.859 66.0016 87.859C66.3176 86.537 67.4106 84.357 67.0356 83.727C67.5446 83.338 68.9876 80.801 69.5606 80.055C71.0296 78.138 72.6686 76.34 73.9206 74.261C74.5146 73.271 75.7736 71.16 75.0666 71.22C76.5696 69.208 78.9276 66.877 79.4266 65.884C80.2136 64.321 80.2556 62.62 80.4606 61.925C80.4906 61.821 80.4396 61.647 80.4606 61.525C80.5036 61.419 80.6786 61.485 80.6906 61.467Z" fill="#602048"/>
<path d="M78.5109 74.549C78.2139 75.113 77.8549 75.536 77.4769 76.041C77.1459 76.487 75.2509 78.669 74.7239 79.254C74.2039 79.829 72.2469 82.014 71.8559 82.237C71.8349 82.249 71.4049 82.433 71.3979 82.41C71.7919 80.587 77.1829 74.537 78.2259 73.976C78.9969 73.561 78.1289 74.28 78.5129 74.549H78.5109Z" fill="#431032"/>
<path d="M62.2176 89.58C61.7366 89.969 59.7796 91.869 59.8076 92.391L62.1026 94.916C61.6766 97.384 61.0296 99.35 63.0786 101.286L66.4646 100.828C66.0826 102.588 65.7006 104.347 65.3186 106.106L64.9726 106.279C64.5446 108.221 60.1596 115.569 60.0396 116.548C59.6836 115.878 59.4346 115.095 59.2366 114.368C59.0066 113.521 57.9746 108.788 58.0906 108.343C58.8426 107.542 59.5906 106.744 60.2706 105.876C61.2966 104.566 61.3406 105.137 57.9746 105.418L55.9106 105.13C56.0296 103.654 56.2326 102.186 56.3686 100.713C56.5336 98.919 56.5806 94.992 57.7446 93.828C58.2026 93.369 58.9786 93.047 59.5246 92.681C59.8556 91.316 61.1536 90.273 62.1646 89.353L62.2226 89.583L62.2176 89.58Z" fill="#602048"/>
<path d="M78.1679 91.3C78.0969 91.652 77.9589 91.899 77.9379 91.988C76.5769 93.45 75.0439 94.838 73.8059 96.406C73.3639 96.965 73.0989 97.75 72.6589 98.298C70.3179 101.208 68.3339 103.753 65.3159 106.101C65.6979 104.341 66.0809 102.582 66.4629 100.823C67.3209 100.556 68.9739 99.002 69.6759 98.298C73.7139 97.308 75.4169 93.185 78.1679 90.552V91.3Z" fill="#A23259"/>
<path d="M57.6277 31.9769C55.4387 32.2689 53.0877 33.0539 51.8907 35.0749C50.6757 37.1239 50.0797 43.7999 49.4807 46.5499C48.1417 46.4609 46.7927 46.5459 45.4637 46.2049C44.9807 43.3279 44.1797 40.5129 43.9727 37.5979C44.3937 35.7219 47.7427 30.7939 49.6517 29.6799C53.1407 29.9049 55.4267 31.2329 57.6257 31.9749L57.6277 31.9769Z" fill="#602048"/>
<path d="M45.4637 46.2049C44.0877 47.1809 42.7107 48.1559 41.3327 49.1309C42.3867 49.0429 43.3717 49.0499 44.4307 49.0729V52.1719C44.1517 52.3149 43.8987 52.4829 43.6277 52.6299C43.4827 52.7079 42.9647 52.1859 40.9867 54.4089C40.6807 54.7549 40.5247 55.3709 40.1837 55.7279C40.2277 54.3539 39.9487 52.9659 39.9537 51.5959C39.9667 47.5839 40.7517 45.3189 43.6247 42.4739C43.6207 40.8459 43.6087 39.1979 43.9707 37.5959C44.1777 40.5099 44.9787 43.3249 45.4617 46.2029L45.4637 46.2049Z" fill="#6A564C"/>
<path d="M60.3807 32.7799C60.1647 33.0889 60.2887 33.3879 60.3807 33.6989C60.1417 34.2769 60.1847 33.8249 59.8647 33.9289C57.7177 34.6219 55.4317 35.0729 53.7257 36.6819L51.8887 35.0749C53.0877 33.0539 55.4387 32.2689 57.6257 31.9769C58.5387 32.2849 59.4397 32.5639 60.3787 32.7799H60.3807Z" fill="#BC6A6C"/>
<path d="M65.5436 31.9769C65.3546 32.1539 64.9826 32.3449 64.7406 32.4349C63.4026 32.9409 61.9136 33.5679 60.6086 34.1569C60.4676 33.9699 60.4446 33.9149 60.3786 33.6989C60.2866 33.3899 60.1616 33.0909 60.3786 32.7799C60.8806 32.7799 60.9216 32.5589 60.9516 32.5499C61.2526 32.4649 61.3866 32.3199 61.6396 32.2049C63.4196 31.4009 63.8126 30.8509 65.1966 29.7949C65.2356 29.7649 65.3826 29.7119 65.4266 29.6799L65.5416 31.9749L65.5436 31.9769Z" fill="#D69789"/>
<path d="M56.3656 100.71C56.2306 102.184 56.0276 103.652 55.9076 105.128L57.9726 105.415C57.4756 105.457 56.3156 105.671 56.1936 105.646C55.9976 105.604 55.7306 105.093 55.5056 105.072C55.3966 105.063 53.8296 105.765 53.4976 105.876C53.2036 105.973 52.1876 106.585 52.0066 106.164C51.9306 105.487 52.1606 104.403 51.8906 103.811C52.8736 103.915 55.7656 100.602 56.1936 100.482C56.2626 100.464 56.2146 100.743 56.3656 100.713V100.71Z" fill="#431032"/>
<path d="M59.12 89.12C58.876 90.589 57.51 92.697 57.743 93.825C56.576 94.99 56.532 98.917 56.366 100.71C56.215 100.743 56.265 100.462 56.194 100.48C55.766 100.6 52.874 103.912 51.891 103.809C51.763 103.523 49.396 101.917 47.417 99.449C46.618 97.953 45.635 96.525 44.318 95.432L44.088 94.055C43.931 92.248 43.273 90.52 43.054 88.72C42.836 86.908 42.902 83.476 42.824 83.211C42.785 83.073 42.691 83.28 42.594 83.269C42.932 82.514 42.569 80.405 42.594 80.055C42.594 80.044 42.817 80.092 42.824 79.998C42.787 79.434 42.914 78.895 42.939 78.333C42.992 77.191 42.9 76.036 42.939 74.892C42.953 74.913 43.229 74.802 43.397 75.064C44.125 76.197 44.884 78.289 46.611 80.573C47.186 81.333 52.257 87.025 52.75 87.401C54.631 88.828 56.836 89.076 59.12 89.122V89.12Z" fill="#431032"/>
<path d="M63.136 88.892C62.932 89.028 62.43 89.41 62.218 89.58L62.16 89.35C61.152 90.271 59.854 91.314 59.52 92.679C58.975 93.045 58.201 93.367 57.741 93.825C57.508 92.697 58.873 90.589 59.117 89.12C60.473 89.148 61.79 89.028 63.134 88.89L63.136 88.892Z" fill="#431032"/>
<path d="M77.2498 33.126C77.4678 33.595 78.3818 35.612 78.3958 35.821C78.4098 36.01 77.8658 37.858 78.0508 38.461C78.0938 38.602 78.8698 39.177 78.9688 39.38C79.0448 39.534 79.6068 41.88 79.7718 42.536C80.3408 44.776 80.7018 46.986 80.9188 49.306C80.9558 50.501 80.6858 51.711 80.6888 53.608C80.6908 54.906 80.9578 56.251 80.9188 57.568C80.9188 57.609 80.8498 57.839 80.8038 58.371C80.7598 58.88 80.8358 59.409 80.8038 59.92C80.6218 60.482 80.4808 60.238 80.3458 60.436C79.6408 61.465 78.3798 62.063 77.5928 62.903C76.7318 63.822 73.5228 69.16 70.3638 67.666C69.9248 67.459 66.5688 61.716 65.9468 60.781C67.2568 65.705 68.0528 64.135 65.2008 65.371C64.6278 65.198 64.0428 65.081 63.4788 64.913C62.8918 64.738 62.2128 64.545 61.6418 64.34C61.3748 64.243 60.0958 63.852 60.0358 63.709C60.0838 62.834 59.8448 61.994 59.8058 61.126C59.7298 59.444 59.9798 57.756 60.0358 56.078C60.0838 54.623 60.1718 53.169 60.2658 51.718C60.6798 51.518 61.7248 51.168 61.9878 51.03C66.9478 52.819 67.3078 54.957 70.8798 57.455C72.8898 57.201 75.6128 55.109 76.7888 53.553C77.1298 53.102 77.6938 52.971 77.3618 51.831C77.0218 50.662 74.9518 49.87 73.8628 49.766C73.0278 49.688 71.4258 49.665 71.7408 50.112C71.1258 50.031 70.5258 49.92 69.9038 49.996L69.5588 49.766C72.3118 49.301 75.1868 48.627 77.9928 48.848C78.2578 48.869 80.4168 49.755 78.6808 48.39C78.2788 48.072 77.2518 47.718 76.7888 47.471C76.1008 47.108 75.3478 46.765 74.7818 46.21C73.6148 46.184 72.4388 46.297 71.2828 46.44C68.9138 46.73 66.5938 47.499 64.2248 47.817C64.1148 47.886 63.9998 48.369 63.9368 48.505C63.5918 47.929 63.4678 48.288 62.9038 48.275C63.0278 47.941 63.8678 48.12 64.5678 47.471L69.3878 46.668C69.4618 46.546 69.8738 46.329 69.9038 46.323C70.0208 46.297 71.2138 46.573 72.1988 45.922C72.6778 44.41 74.7608 38.501 75.2978 37.776C75.8198 37.069 78.1078 36.125 78.1658 35.826C77.8988 34.926 76.8698 33.098 77.2468 33.13L77.2498 33.126Z" fill="#FBE3C3"/>
<path d="M78.6258 88.892C78.5088 89.7 78.3288 90.501 78.1678 91.302V90.556C75.4168 93.19 73.7138 97.313 69.6758 98.302C69.7338 98.245 69.8468 98.019 69.9058 97.957C71.0248 96.806 71.9828 95.517 73.0048 94.286C74.9148 91.979 77.1668 90.264 77.4798 87.058L78.6258 88.894V88.892Z" fill="#602048"/>
<path d="M57.1699 50.5649C57.6789 51.1219 58.9859 50.9609 59.5799 50.6799C59.6739 50.8759 60.0169 50.9889 60.1529 51.1959L60.2679 51.7109C60.1739 53.1639 60.0859 54.6189 60.0379 56.0709C59.4229 54.8999 60.1899 53.5119 59.9229 52.2269L58.6609 52.7999C58.7239 54.1329 58.4149 61.7569 58.5459 62.2109C58.5739 62.3049 58.7899 62.2149 58.7769 62.3829C58.7189 62.4839 58.4359 62.9789 58.4309 63.0139C58.4039 63.2859 58.5919 63.4329 58.6609 63.6449C57.9939 62.6229 55.3259 63.9899 54.0709 64.4479C55.1529 58.8839 54.0409 60.9969 53.4979 65.1939L54.7019 66.2849C54.9849 66.3079 54.9939 65.9439 55.0469 65.9399C56.2809 65.8589 58.1569 66.1309 58.2029 65.8249C58.3899 65.9489 58.3019 66.0459 58.3179 66.0549C55.7449 67.8479 53.2799 69.3299 50.1139 69.7259C49.8729 69.8869 48.6759 72.4699 48.6799 72.8249C47.8539 72.6379 47.9529 71.5359 47.4189 71.6779C47.4259 71.3539 47.4139 71.0269 47.4189 70.7019C47.2649 70.5299 47.0669 70.4009 46.9609 70.1869C45.5699 67.3849 41.1319 63.3179 42.7159 59.9749C44.1019 58.1359 45.6529 56.3959 46.7329 54.3519C47.9759 55.1159 51.6239 54.6439 53.1019 54.0059L54.9389 55.2679L54.6509 53.4879C54.4999 53.2809 53.7509 53.4699 53.3899 53.3159C54.0669 52.2889 53.9949 51.6149 53.0449 50.6759C52.7819 50.4179 52.4849 50.2449 52.1259 50.1599L52.3559 49.9869C53.0649 50.0909 56.8799 50.8209 57.1189 50.7909C57.2019 50.7809 57.1789 50.6319 57.1769 50.5599L57.1699 50.5649Z" fill="#602048"/>
<path d="M59.1199 79.827C59.7269 79.848 60.3579 79.8129 60.9559 79.7119C61.1429 80.0799 61.0919 80.5889 61.1869 80.9739C61.5139 82.3089 63.0809 83.7499 64.3999 84.0719C63.6679 84.8429 61.0829 85.0619 61.3019 85.9639C61.5639 87.0529 63.9739 85.2019 65.2609 87.8559L65.7189 88.0869C65.8139 87.8839 65.7469 87.8609 66.0069 87.8559C66.0459 87.8559 65.7329 88.1789 66.5799 87.8559C66.3409 88.5099 64.9109 88.3189 64.2849 88.202C63.1409 87.983 56.1589 85.0569 55.7359 83.1529C53.4959 84.9189 51.6009 82.0389 50.8579 80.1129C50.6319 79.2239 50.7659 78.8559 50.7429 78.7939C51.2489 79.7119 55.7909 82.3059 55.9639 82.5799C56.1249 82.8359 55.6639 82.9919 55.8479 83.0379C56.2349 83.1399 59.2759 80.8649 59.1199 79.8249V79.827Z" fill="#431032"/>
<path d="M53.9556 77.072L54.3016 77.417C55.9906 78.851 56.8006 79.751 59.1216 79.827C59.2776 80.868 56.2396 83.142 55.8506 83.041C55.6666 82.992 56.1266 82.838 55.9656 82.583C55.7926 82.309 51.2516 79.714 50.7446 78.796C50.4776 78.073 49.9986 76.89 49.5986 76.271L53.9586 77.074L53.9556 77.072Z" fill="#512134"/>
<path d="M40.0708 55.843C40.9498 57.22 41.8308 58.597 42.7108 59.975C41.1278 63.318 45.5678 67.388 46.9558 70.187C44.6008 68.875 41.0698 64.581 40.3008 62.155C39.8518 60.737 39.6338 57.777 39.6128 56.189C39.8568 55.503 40.0298 55.878 40.0708 55.843Z" fill="#694C48"/>
<path d="M52.234 73.4C52.343 73.587 52.481 73.789 52.58 73.973C53.013 74.793 54.173 76.733 54.187 76.899C54.193 76.98 53.931 76.913 53.956 77.072L49.596 76.268C49.465 76.068 49.493 75.939 49.481 75.923C49.764 76.16 49.806 75.79 50.17 75.465C51.141 74.597 51.42 73.971 51.949 72.825C52.211 73.034 52.221 73.37 52.237 73.398L52.234 73.4Z" fill="#602048"/>
<path d="M48.6777 72.827C48.6827 73.262 49.6717 75.147 50.1697 75.467C49.8057 75.794 49.7637 76.163 49.4807 75.925C48.8527 75.074 47.6027 74.475 46.6127 74.146C46.5557 74.008 47.3887 72.997 47.4167 71.678C47.9527 71.538 47.8517 72.641 48.6777 72.825V72.827Z" fill="#602048"/>
<path d="M80.4626 61.925C80.2576 62.62 80.2166 64.321 79.4286 65.884C78.9296 66.877 76.5726 69.208 75.0696 71.22C72.9426 74.065 71.0546 77.095 68.7576 79.827C68.3936 80.258 66.8126 82.242 66.6926 82.352C65.3416 83.584 62.6686 81.547 61.1836 80.976C61.0896 80.589 61.1406 80.08 60.9536 79.714C62.4386 79.466 63.7256 78.745 64.8556 77.765C66.0386 76.736 66.8656 75.302 67.9536 74.208C68.1566 74.006 68.4606 73.681 68.6426 73.52C68.9506 73.248 69.5606 72.767 69.9036 72.601V72.832C69.4206 74.74 70.2746 75.852 70.5916 75.184C70.8106 74.724 71.2686 72.397 71.6256 71.513C71.6076 70.898 71.0706 70.592 71.0526 70.537C70.7396 69.627 70.4396 68.633 70.3636 67.668C73.5246 69.165 76.7316 63.824 77.5926 62.906C78.3796 62.065 79.6406 61.467 80.3456 60.438L80.4606 61.93L80.4626 61.925Z" fill="#FACFAA"/>
<path d="M77.48 78.909C77.477 79.061 77.482 79.215 77.48 79.367C77.475 79.71 77.482 80.055 77.48 80.4C77.459 82.564 77.689 84.917 77.48 87.055C77.167 90.262 74.915 91.979 73.005 94.283C71.736 95.409 72.749 93.701 73.12 91.473C73.79 87.44 74.204 83.308 74.727 79.252C75.254 78.667 77.148 76.485 77.48 76.038C77.68 76.975 77.5 77.958 77.48 78.906V78.909Z" fill="#F3C4AD"/>
<path d="M69.906 97.9569C69.847 98.0169 69.736 98.2429 69.676 98.3019C68.976 99.0069 67.321 100.561 66.463 100.828L63.077 101.286C61.028 99.3499 61.677 97.3859 62.101 94.9159L59.806 92.3909C59.778 91.8689 61.732 89.9689 62.216 89.5799C62.427 89.4099 62.929 89.0259 63.134 88.8919C63.189 88.8549 63.857 88.6569 64.28 88.2039C64.907 88.3239 66.336 88.5119 66.575 87.8589C66.939 87.7109 67.199 87.4139 67.494 87.1699C68.221 88.6799 68.948 90.1909 69.674 91.7029C70.065 92.6539 70.733 96.1589 70.592 96.8659C70.567 96.9969 69.552 97.8699 69.904 97.9569H69.906Z" fill="#E9A892"/>
<path d="M73.0051 94.2859C71.9831 95.5169 71.0251 96.8059 69.9061 97.9569C69.5541 97.8699 70.5691 96.9969 70.5951 96.8659C70.7371 96.1589 70.0681 92.6539 69.6761 91.7029C68.9491 90.1929 68.2221 88.6819 67.4961 87.1699C68.6661 86.1969 70.8061 83.5449 71.8561 82.2369C72.2471 82.0139 74.2041 79.8289 74.7241 79.2539C74.2021 83.3099 73.7871 87.4419 73.1181 91.4749C72.7471 93.7029 71.7341 95.4109 73.0021 94.2859H73.0051Z" fill="#F3C4AD"/>
<path d="M66.0046 87.859C65.7436 87.861 65.8107 87.886 65.7167 88.089L65.2587 87.859C63.9717 85.204 61.5636 87.053 61.2986 85.966C61.0806 85.062 63.6657 84.845 64.3977 84.074C65.3667 84.311 66.0916 84.272 66.9226 83.729C66.9506 83.711 67.0147 83.747 67.0377 83.729C67.4157 84.36 66.3216 86.54 66.0046 87.861V87.859Z" fill="#713853"/>
<path d="M69.5608 80.0549C69.2388 80.3219 69.1278 79.9349 68.7578 79.8249C71.0548 77.0949 72.9428 74.0649 75.0698 71.2179C75.7758 71.1579 74.5168 73.2689 73.9228 74.2589C72.6708 76.3399 71.0318 78.1379 69.5628 80.0529L69.5608 80.0549Z" fill="#A23259"/>
<path d="M69.5609 80.055C68.9899 80.801 67.5449 83.338 67.0359 83.727C67.0129 83.745 66.9479 83.708 66.9209 83.727C66.6379 82.974 67.3489 83.289 66.6909 82.35C66.8099 82.24 68.3939 80.258 68.7549 79.825C69.1259 79.935 69.2369 80.322 69.5589 80.055H69.5609Z" fill="#BB556E"/>
<path d="M49.481 46.55C50.006 46.585 50.92 46.624 51.318 46.666C52.805 46.82 54.304 47.085 55.793 47.239C55.782 47.34 55.823 47.342 55.908 47.354C56.012 47.856 57.055 50.438 57.17 50.567C57.17 50.636 57.195 50.786 57.112 50.798C56.873 50.827 53.061 50.1 52.35 49.994C51.097 49.81 49.815 49.568 48.563 49.421C46.97 49.235 46.04 49.113 44.431 49.076C43.372 49.053 42.387 49.046 41.333 49.133C42.709 48.157 44.086 47.182 45.464 46.207C46.793 46.546 48.142 46.461 49.481 46.553V46.55Z" fill="#070709"/>
<path d="M53.726 36.6819V36.797C52.246 39.398 51.59 43.643 51.316 46.666C50.92 46.624 50.004 46.5869 49.479 46.5499C50.078 43.7999 50.674 37.124 51.889 35.075L53.726 36.6819Z" fill="#A74D5C"/>
<path d="M43.6298 52.632C44.0718 53.406 44.3958 53.159 45.1218 52.977C45.8418 53.122 46.2288 54.048 46.7278 54.354C45.6488 56.398 44.0968 58.138 42.7108 59.978C41.8318 58.601 40.9518 57.224 40.0708 55.846C40.1678 55.772 40.1628 55.756 40.1858 55.731C40.5268 55.374 40.6828 54.755 40.9898 54.412C42.9648 52.188 43.4848 52.713 43.6298 52.632Z" fill="#5E3F45"/>
<path d="M48.5627 49.4189L48.2177 50.4519C48.1137 50.4749 47.9687 50.4269 47.8717 50.4519C48.7977 48.3739 45.9247 50.8249 44.4307 51.2559V49.0759C46.0377 49.1129 46.9697 49.2319 48.5627 49.4209V49.4189Z" fill="#713853"/>
<path d="M47.8746 50.452C47.4256 50.572 45.1416 51.81 44.4326 52.174V51.256C45.9286 50.825 48.8016 48.374 47.8746 50.452Z" fill="#431032"/>
<path d="M60.6106 34.1569C58.6246 35.0549 56.6286 36.0119 54.7596 37.1399C54.7086 37.1219 54.3196 37.1909 53.7256 36.7949V36.6799C55.4316 35.0709 57.7176 34.6199 59.8646 33.9269C60.1876 33.8229 60.1416 34.2769 60.3806 33.6959C60.4446 33.9149 60.4676 33.9699 60.6106 34.1549V34.1569Z" fill="#BC6A6C"/>
<path d="M61.6448 48.1569C60.5078 48.0879 59.3308 48.0999 58.2028 47.9269C57.4248 47.8069 56.6928 47.4619 55.9078 47.3539C55.8228 47.3419 55.7818 47.3399 55.7928 47.2389C59.9638 45.7289 58.1938 38.4609 54.7598 37.1399C56.6288 36.0119 58.6248 35.0549 60.6108 34.1569C61.9158 33.5679 63.4028 32.9439 64.7428 32.4349C65.8498 34.8409 68.4908 39.5889 67.0378 42.1309C66.8358 42.4849 63.3898 44.6879 61.6448 48.1549V48.1569Z" fill="#F3C4AD"/>
<path d="M76.9036 32.2069C69.0216 33.4249 70.8056 38.5949 68.9856 44.7709L69.9036 46.3199C69.8736 46.3269 69.4596 46.5439 69.3876 46.6659L64.5676 47.4689C63.8676 48.1179 63.0276 47.9389 62.9036 48.2719C62.4666 48.2629 62.0606 48.1829 61.6416 48.1569C63.3866 44.6879 66.8326 42.4879 67.0356 42.1329C68.4876 39.5919 65.8476 34.8429 64.7406 32.4369C64.9826 32.3449 65.3546 32.1559 65.5436 31.9789L66.4046 31.7489C68.4706 31.9029 70.5356 32.0549 72.6016 32.2069C73.1976 31.9099 70.5986 31.3419 70.5946 30.8309C71.2896 31.0879 72.9556 32.0209 73.5196 32.0919C75.7136 32.3709 76.0456 30.7799 76.9066 32.2069H76.9036Z" fill="#FBE3C3"/>
<path d="M70.5947 30.831C70.5987 31.342 73.1977 31.91 72.6017 32.207C70.5357 32.054 68.4707 31.901 66.4047 31.749L65.5437 31.979L65.4287 29.684C65.6497 29.525 65.6247 29.035 66.0597 29.111C67.5627 29.703 69.0777 30.269 70.5917 30.833L70.5947 30.831Z" fill="#F3C4AD"/>
<path d="M76.9038 32.207C77.0678 32.476 77.1158 32.842 77.2498 33.126C76.8718 33.093 77.9008 34.923 78.1678 35.821C78.1098 36.12 75.8218 37.067 75.2998 37.771C74.7628 38.496 72.6798 44.405 72.2008 45.917C71.2158 46.569 70.0238 46.295 69.9058 46.318L68.9878 44.769C70.8058 38.59 69.0248 33.423 76.9068 32.205L76.9038 32.207Z" fill="#F8EAEF"/>
<path d="M66.9226 50.452C67.0886 50.206 67.0566 51.318 67.0376 51.371C66.8746 51.81 65.4426 52.819 66.5796 53.208C66.9046 53.318 68.4326 53.304 68.9896 53.323C70.1016 53.36 71.2116 53.348 72.3186 53.208C72.8776 53.136 74.3466 53.021 74.1556 52.174C74.8296 52.494 75.3546 52.86 75.9926 53.208C76.2916 53.371 76.5336 53.288 76.7956 53.553C75.6196 55.109 72.8966 57.199 70.8866 57.455C67.3136 54.955 66.9546 52.819 61.9946 51.03C62.2546 50.892 63.4906 50.084 63.6006 49.884C64.6806 50.524 65.7166 50.65 66.9296 50.457L66.9226 50.452Z" fill="#F3C4AD"/>
<path d="M61.6447 48.157C62.0637 48.183 62.4687 48.263 62.9057 48.272C63.4697 48.284 63.5917 47.925 63.9397 48.503C63.7457 48.924 63.6407 49.798 63.5937 49.879C63.4837 50.082 62.2477 50.89 61.9877 51.025C61.7277 51.164 60.6797 51.513 60.2657 51.714L60.1507 51.198C60.0127 50.991 59.6717 50.878 59.5777 50.682C59.1287 49.759 58.7697 48.793 58.2007 47.929C59.3307 48.102 60.5047 48.088 61.6417 48.16L61.6447 48.157Z" fill="#D69789"/>
<path d="M60.0378 56.0739C59.9828 57.7519 59.7318 59.4389 59.8078 61.1219C59.6578 61.5999 58.9788 62.0219 58.7738 62.3829C58.7898 62.2149 58.5718 62.3069 58.5438 62.2109C58.4108 61.7589 58.7208 54.1349 58.6588 52.7999L59.9208 52.2269C60.1878 53.5119 59.4208 54.8999 60.0358 56.0709L60.0378 56.0739Z" fill="#602048"/>
<path d="M61.6446 64.335L61.2986 66.4C61.2526 66.405 61.1566 66.52 60.3806 66.515C59.9206 66.17 58.8106 64.123 58.6586 63.647C58.5916 63.435 58.4006 63.286 58.4286 63.016C58.4336 62.979 58.7166 62.487 58.7736 62.385C58.9786 62.024 59.6576 61.603 59.8076 61.124C59.8466 61.992 60.0856 62.832 60.0376 63.707C60.0976 63.849 61.3776 64.243 61.6446 64.337V64.335Z" fill="#CA8085"/>
<path d="M77.3646 51.829C76.6046 52.683 75.8976 51.203 75.1846 51.371C74.1436 50.643 72.9956 50.273 71.7426 50.109C71.4276 49.665 73.0316 49.686 73.8656 49.764C74.9546 49.868 77.0236 50.659 77.3646 51.829Z" fill="#CA8085"/>
<path d="M76.7908 47.469C77.2558 47.715 78.2808 48.07 78.6838 48.387C80.4188 49.752 78.2598 48.866 77.9948 48.845C75.1888 48.625 72.3138 49.299 69.5608 49.764C68.6748 49.914 67.7518 50.091 66.9208 50.452C65.7098 50.646 64.6738 50.517 63.5918 49.879C63.6358 49.798 63.7438 48.924 63.9368 48.503C63.9998 48.367 64.1118 47.883 64.2248 47.814C66.5938 47.497 68.9138 46.728 71.2828 46.438C71.3978 46.854 73.2988 46.882 74.6688 47.241C75.5618 47.476 78.3748 49.009 76.7908 47.471V47.469Z" fill="#111023"/>
<path d="M76.7907 47.469C78.3747 49.007 75.5617 47.474 74.6687 47.239C73.2987 46.88 71.3977 46.852 71.2827 46.435C72.4387 46.295 73.6147 46.18 74.7817 46.205C75.3477 46.76 76.1027 47.103 76.7887 47.467L76.7907 47.469Z" fill="#2D2357"/>
<path d="M63.4788 64.908L62.4458 66.285C62.0288 66.356 61.7118 66.368 61.2988 66.4L61.6448 64.335C62.2158 64.54 62.8948 64.733 63.4818 64.908H63.4788Z" fill="#F29EA3"/>
<path d="M65.2008 65.369C65.1808 65.378 65.2998 65.567 64.9138 65.714C64.2618 65.963 63.4748 66.145 62.7908 66.287C62.6848 66.31 62.5558 66.269 62.4458 66.287L63.4788 64.911C64.0428 65.081 64.6278 65.198 65.2008 65.369Z" fill="#1C101F"/>
<path d="M77.3646 51.829C77.6956 52.968 77.1316 53.099 76.7906 53.551C76.5286 53.288 76.2866 53.369 75.9876 53.205C77.0306 52.545 75.8316 51.822 75.1846 51.368C75.8976 51.2 76.6046 52.681 77.3646 51.826V51.829Z" fill="#F29EA3"/>
<path d="M69.5609 49.762L69.9059 49.992C68.3639 50.181 67.3969 51.292 67.2659 51.368C67.2409 51.382 67.1279 51.359 67.0359 51.368C67.0539 51.318 67.0869 50.204 66.9209 50.45C67.7489 50.089 68.6749 49.911 69.5609 49.762Z" fill="#CA8085"/>
<path d="M47.8747 53.205C48.0627 53.265 47.9527 53.422 48.0467 53.436C48.5077 53.502 50.9887 53.47 51.7187 53.436C51.8107 53.431 51.7117 53.217 51.8907 53.205C51.9537 53.201 52.9157 53.53 53.1527 53.205C53.2237 53.247 53.3047 53.288 53.3827 53.32C53.7447 53.475 54.4927 53.286 54.6447 53.493L54.9317 55.272L53.0947 54.011C51.6177 54.646 47.9687 55.121 46.7257 54.356C46.2287 54.05 45.8397 53.122 45.1187 52.98C45.7357 52.823 46.4467 52.248 47.0687 52.176C47.4967 53.914 47.7957 53.185 47.8717 53.21L47.8747 53.205Z" fill="#602048"/>
<path d="M58.6608 63.647C58.8128 64.123 59.9228 66.17 60.3828 66.515C59.5448 66.511 59.0968 66.511 58.3178 66.057C58.3018 66.048 58.3918 65.951 58.2028 65.827C57.6298 65.447 57.1398 64.931 56.6538 64.45C56.1868 64.411 54.6998 67.277 54.0708 64.45C55.3258 63.992 57.9938 62.625 58.6608 63.647Z" fill="#602048"/>
<path d="M58.2008 47.9269C58.7718 48.7899 59.1288 49.7569 59.5778 50.6799C58.9858 50.9629 57.6758 51.1239 57.1678 50.5649C57.0518 50.4379 56.0098 47.8529 55.9058 47.3519C56.6908 47.4599 57.4228 47.8069 58.2008 47.9249V47.9269Z" fill="#892654"/>
<path d="M54.0706 64.45C54.6996 67.277 56.1866 64.411 56.6536 64.45C57.1396 64.934 57.6296 65.447 58.2026 65.827C58.1566 66.133 56.2806 65.861 55.0466 65.942C54.9936 65.947 54.9846 66.31 54.7016 66.287L53.4976 65.196C54.0436 61 55.1526 58.887 54.0706 64.45Z" fill="#431032"/>
<path d="M52.3498 49.9919L52.1188 50.1639C52.4778 50.2499 52.7748 50.4219 53.0378 50.6799C52.6508 50.9239 51.9398 50.2819 51.4888 50.2219C50.5258 50.0909 49.1658 50.2379 48.2178 50.4519L48.5628 49.4189C49.8148 49.5659 51.0968 49.8079 52.3498 49.9919Z" fill="#431032"/>
<path d="M56.1358 77.417C59.0388 77.606 61.9458 77.758 64.8558 77.762C63.7278 78.745 62.4388 79.463 60.9538 79.712C60.3558 79.813 59.7248 79.846 59.1168 79.827C56.7988 79.751 55.9888 78.851 54.2968 77.417C54.1608 77.021 55.3578 77.366 56.1338 77.417H56.1358Z" fill="#111023"/>
<path d="M66.6926 82.35C67.3506 83.292 66.6376 82.974 66.9226 83.727C66.0916 84.268 65.3686 84.309 64.3976 84.072C63.0786 83.75 61.5136 82.309 61.1836 80.974C62.6686 81.544 65.3386 83.584 66.6926 82.35Z" fill="#CA8085"/>
<path d="M54.7599 37.14C58.1919 38.459 59.9619 45.729 55.7929 47.239C54.3039 47.082 52.8049 46.82 51.3179 46.666C51.5919 43.643 52.2479 39.398 53.7279 36.797C54.3219 37.193 54.7109 37.122 54.7619 37.142L54.7599 37.14Z" fill="#DC8981"/>
<path d="M53.0379 50.6799C53.9859 51.6189 54.0579 52.2939 53.3829 53.3199C53.3049 53.2879 53.2239 53.2469 53.1529 53.2049C52.3059 52.7039 52.0299 51.4599 51.8909 53.2049C51.7119 53.2169 51.8109 53.4309 51.7189 53.4359C50.9889 53.4699 48.5079 53.5019 48.0469 53.4359C47.9549 53.4219 48.0629 53.2649 47.8749 53.2049C47.5619 52.1399 47.6539 52.1049 47.0709 52.1719C46.4499 52.2429 45.7359 52.8189 45.1219 52.9749C44.3959 53.1589 44.0719 53.4029 43.6299 52.6299C43.9009 52.4829 44.1549 52.3149 44.4329 52.1719C45.1449 51.8079 47.4279 50.5719 47.8749 50.4499C47.9709 50.4249 48.1159 50.4729 48.2199 50.4499C49.1679 50.2359 50.5289 50.0909 51.4909 50.2199C51.9419 50.2819 52.6529 50.9219 53.0399 50.6779L53.0379 50.6799Z" fill="#070709"/>
<path d="M53.1531 53.205C52.9161 53.53 51.9541 53.201 51.8911 53.205C52.0301 51.46 52.3061 52.704 53.1531 53.205Z" fill="#FEFCFE"/>
<path d="M47.8748 53.205C47.7988 53.18 47.4988 53.91 47.0708 52.172C47.6538 52.105 47.5618 52.14 47.8748 53.205Z" fill="#E6E3D0"/>
<path d="M50.6851 51.4839C50.8391 51.4879 51.8291 52.0199 51.7761 52.1139C51.6571 52.3239 50.7541 51.7369 50.6851 51.4839Z" fill="#D6D6DC"/>
<path d="M74.151 52.172C74.342 53.019 72.876 53.134 72.314 53.205C72.535 53.307 72.632 52.729 72.659 52.517L73.578 51.829C73.976 51.985 74.121 52.158 74.151 52.174V52.172Z" fill="#F29EA3"/>
<path d="M60.3807 66.515C61.1567 66.52 61.2527 66.405 61.2987 66.4C61.9787 66.86 62.9797 67.033 64.0527 67.318C63.5187 67.673 62.2747 67.231 61.8147 67.434C61.7737 67.452 61.7117 68.2 61.9297 68.352C62.2937 68.605 65.1937 68.649 65.8897 68.467C66.4927 69.02 66.6627 69.356 66.8077 69.501C66.3407 69.855 65.0997 69.657 63.2517 69.959C62.3377 70.108 61.3567 70.41 60.4977 70.762C58.5897 70.332 58.3897 70.187 56.4817 70.877C56.1107 71.011 55.5097 71.361 55.1047 71.566C54.2647 71.991 53.5557 72.479 52.8098 73.057C52.6858 73.154 52.4317 73.228 52.2367 73.402C52.2207 73.375 52.2108 73.039 51.9488 72.829C51.4218 73.976 51.1407 74.602 50.1697 75.47C49.6717 75.15 48.6827 73.267 48.6777 72.829C48.6727 72.475 49.8697 69.892 50.1117 69.731C53.2767 69.335 55.7428 67.853 58.3158 66.059C59.0968 66.515 59.5427 66.513 60.3807 66.517V66.515Z" fill="#111023"/>
<path d="M65.8899 68.467C65.1939 68.649 62.2939 68.605 61.9299 68.352C61.7139 68.2 61.7739 67.452 61.8149 67.434C62.2749 67.231 63.5189 67.673 64.0529 67.318C65.1369 67.523 65.4729 68.087 65.8899 68.465V68.467Z" fill="#431032"/>
<path d="M68.873 70.302C69.577 70.378 70.362 70.302 71.053 70.532C71.071 70.585 71.61 70.891 71.626 71.508C71.269 72.392 70.811 74.719 70.592 75.18C70.275 75.849 69.421 74.735 69.904 72.827C69.946 76.867 70.565 74.277 71.166 72.426C70.16 72.054 70.261 72.426 69.904 72.599C69.561 72.765 68.951 73.244 68.643 73.518C67.169 72.438 65.595 71.51 64.053 70.534C63.935 70.366 65.549 70.194 65.832 70.189C66.817 70.18 67.888 70.67 68.873 70.304V70.302Z" fill="#602048"/>
<path d="M69.9062 72.8269V72.5969C70.2652 72.4239 70.1623 72.0509 71.1683 72.4239C70.5673 74.2749 69.9482 76.8649 69.9062 72.8249V72.8269Z" fill="#713853"/>
<path d="M68.873 70.302C67.888 70.668 66.817 70.177 65.832 70.187C65.551 70.189 63.935 70.364 64.053 70.532C63.786 70.362 63.422 70.251 63.249 69.959C65.098 69.657 66.341 69.853 66.806 69.501C67.029 69.722 67.211 70.134 67.321 70.189C67.83 70.341 68.362 70.249 68.871 70.304L68.873 70.302Z" fill="#892654"/>
<path d="M62.791 66.287C63.475 66.145 64.264 65.96 64.914 65.714C65.3 65.567 65.181 65.378 65.201 65.369C66.417 65.732 67.333 65.818 64.686 66.287C64.373 66.342 63.044 66.455 62.793 66.287H62.791Z" fill="#C3788B"/>
<path d="M70.3638 67.664C70.4398 68.631 70.7398 69.623 71.0528 70.532C70.3618 70.304 69.5748 70.38 68.8728 70.302C68.3638 70.247 67.8318 70.339 67.3238 70.187C67.2128 70.131 67.0308 69.719 66.8078 69.498C66.6628 69.353 66.4948 69.017 65.8898 68.465C65.4748 68.085 65.1388 67.521 64.0528 67.318C62.9798 67.033 61.9758 66.863 61.2988 66.4C61.7118 66.368 62.0288 66.356 62.4458 66.285C62.5538 66.267 62.6848 66.308 62.7908 66.285C63.0438 66.453 64.3728 66.34 64.6828 66.285C67.3308 65.815 66.4138 65.73 65.1988 65.366C68.0508 64.13 67.2548 65.7 65.9448 60.776C66.5658 61.711 69.9228 67.452 70.3618 67.661L70.3638 67.664Z" fill="#FBE3C3"/>
<path d="M66.981 68.81C69.632 69.984 68.297 70.249 67.439 69.956C67.312 69.913 66.382 68.801 66.981 68.81Z" fill="#F6EBC1"/>
<path d="M69.9056 49.992C70.5276 49.916 71.1286 50.026 71.7426 50.107C72.9956 50.273 74.1466 50.641 75.1846 51.368C75.8316 51.822 77.0306 52.545 75.9876 53.205C75.3526 52.858 74.8256 52.492 74.1506 52.172C74.1206 52.158 73.9756 51.983 73.5776 51.826C73.4186 51.764 72.8336 51.389 72.7166 51.481C72.4616 52.229 72.6656 52.462 72.6586 52.515C72.6336 52.727 72.5366 53.304 72.3136 53.203C71.2086 53.343 70.0996 53.355 68.9856 53.318C68.6056 51.394 68.6196 51.847 67.8386 52.285C67.2056 52.202 67.5046 51.847 67.2656 51.366C67.3966 51.29 68.3636 50.178 69.9056 49.99V49.992Z" fill="#120E18"/>
<path d="M68.9876 53.32C68.4326 53.302 66.9016 53.316 66.5776 53.205C66.9046 52.881 67.4386 52.51 67.8386 52.287C68.6216 51.85 68.6076 51.394 68.9856 53.32H68.9876Z" fill="#BB556E"/>
<path d="M67.2658 51.368C67.5078 51.85 67.2058 52.204 67.8388 52.287C67.4388 52.51 66.9019 52.878 66.5779 53.205C65.4409 52.816 66.8719 51.81 67.0359 51.368C67.1279 51.359 67.2408 51.382 67.2658 51.368Z" fill="#1C101F"/>
<path d="M73.578 51.829L72.659 52.517C72.666 52.466 72.462 52.234 72.717 51.484C72.834 51.389 73.419 51.767 73.578 51.829Z" fill="#FEFCFE"/>
<path d="M55.9061 74.088C54.0411 75.037 55.5032 76.137 56.1362 77.417C55.3602 77.366 54.1661 77.021 54.2991 77.417L53.9541 77.072C53.9261 76.913 54.1911 76.98 54.1841 76.899C54.1701 76.733 53.0101 74.793 52.5771 73.973C53.6891 73.872 54.8031 74.063 55.9061 74.088Z" fill="#602048"/>
<path d="M62.1029 73.2849C63.0829 73.3789 64.3199 73.2639 65.0859 73.9729C62.0799 73.8769 58.9629 74.1599 55.9059 74.0879C54.8029 74.0629 53.6889 73.8739 52.5769 73.9729C52.4809 73.7889 52.3399 73.5869 52.2319 73.3999C52.4299 73.2249 52.6809 73.1519 52.8049 73.0549C55.8439 73.0569 59.1359 73.7359 62.1009 73.2849H62.1029Z" fill="#602048"/>
<path d="M65.0858 73.973C66.0348 74.003 67.0078 74.125 67.9538 74.204C66.8658 75.297 66.0388 76.731 64.8558 77.76C61.9458 77.758 59.0368 77.606 56.1358 77.415C55.5028 76.137 54.0408 75.037 55.9058 74.086C58.9628 74.158 62.0798 73.874 65.0858 73.971V73.973Z" fill="url(#paint0_linear_81_1139)"/>
<path d="M60.496 70.762C60.547 70.774 60.623 71.248 61.357 71.107L64.053 70.534C65.595 71.51 67.169 72.438 68.643 73.518C68.461 73.679 68.157 74.003 67.954 74.206C67.006 74.128 66.035 74.008 65.086 73.976C64.32 73.267 63.083 73.382 62.103 73.287C61.481 73.228 60.881 73.124 60.266 73.057C58.984 70.412 59.099 71.457 56.479 70.877C58.385 70.187 58.588 70.332 60.496 70.762Z" fill="#C36298"/>
<path d="M60.266 73.057C60.008 73.03 58.376 73.184 57.798 73.057C57.168 72.369 55.57 72.357 55.103 71.566C55.508 71.361 56.109 71.011 56.479 70.877C59.099 71.457 58.984 70.412 60.266 73.057Z" fill="#A12C72"/>
<path d="M60.2661 73.0569C60.8811 73.1239 61.4791 73.2279 62.1031 73.2869C59.1381 73.7389 55.8461 73.0599 52.8081 73.0569C53.5531 72.4789 54.2621 71.9909 55.1031 71.5659C55.5721 72.3569 57.1681 72.3689 57.7981 73.0569C58.3741 73.1839 60.0061 73.0299 60.2661 73.0569Z" fill="#892654"/>
<path d="M63.252 69.9589C63.424 70.2529 63.788 70.3639 64.055 70.5319L61.359 71.1049C60.627 71.2459 60.549 70.7709 60.498 70.7599C61.359 70.4079 62.338 70.1059 63.252 69.9559V69.9589Z" fill="#F3C4AD"/>
</g>
</g>
<defs>
<linearGradient id="paint0_linear_81_1139" x1="64.1836" y1="73.4048" x2="58.5324" y2="77.1316" gradientUnits="userSpaceOnUse">
<stop stop-color="#F3A3BA"/>
<stop offset="1" stop-color="#D05491"/>
</linearGradient>
<clipPath id="clip0_81_1139">
<rect width="120" height="120" fill="white"/>
</clipPath>
</defs>
</svg>
