<svg width="120" height="120" viewBox="0 0 120 120" fill="none" xmlns="http://www.w3.org/2000/svg">
<g clip-path="url(#clip0_81_1331)">
<path d="M38.6239 98.298C38.6649 97.938 38.7949 97.595 38.5029 97.694C40.7269 95.468 40.2059 96.313 38.6239 98.298Z" fill="#3B8B8F"/>
<path d="M37.6579 98.539C36.5229 100.377 37.0709 103.222 38.3819 104.879C38.9739 105.625 39.5439 105.765 40.1939 106.267C40.2009 106.272 40.2009 106.301 40.3139 106.388C44.3279 109.433 49.0349 112.184 54.0769 112.788C57.5669 113.205 63.4909 113.191 66.9949 112.788C69.6729 112.478 70.9429 112.065 73.3939 111.097C73.9229 110.889 77.1419 109.428 77.3789 109.286C79.2259 109.344 82.8049 108.134 83.5369 109.769C82.9359 110.175 80.2549 112.621 79.6129 112.667C78.5889 112.742 79.8899 111.066 78.5259 111.339C75.0239 114.156 71.5239 116.973 68.0229 119.791C67.5819 120.098 64.4029 121.935 64.3409 122.145C64.1889 122.65 66.1179 122.237 67.9029 122.327C69.1559 122.389 72.5059 122.575 73.0339 123.172C66.2339 123.174 59.4309 123.174 52.6309 123.172C51.7879 121.249 49.7059 120.131 48.2229 118.704C46.3569 116.91 44.6779 114.872 42.7289 113.15C40.7879 110.962 34.6799 104.217 35.1219 101.379C35.1339 101.309 35.7159 100.131 35.7859 100.111C36.2519 99.991 36.5879 102.565 37.0539 99.327C36.0349 99.551 36.8029 98.407 36.8729 98.421C36.9989 98.448 36.6199 98.87 37.6579 98.542V98.539Z" fill="#D8EBEF"/>
<path d="M91.262 106.023C91.267 106.103 91.25 106.187 91.262 106.265C91.395 107.062 91.494 106.953 91.504 106.989C92.306 110.225 92.781 113.587 93.798 116.767L91.987 123.167C85.669 123.172 79.35 123.165 73.032 123.167C72.506 122.57 69.154 122.384 67.9 122.322C66.116 122.232 64.186 122.645 64.338 122.141C64.401 121.93 67.577 120.093 68.021 119.786C71.523 116.969 75.024 114.151 78.524 111.334C79.888 111.061 78.586 112.737 79.61 112.662C80.253 112.616 82.931 110.17 83.535 109.764C84.392 109.187 89.268 106.158 89.874 106.021C90.26 105.934 90.849 106.016 91.262 106.021V106.023Z" fill="#F6EBD5"/>
<path d="M47.5571 79.705C47.6081 80.031 47.7551 79.985 47.7981 80.43C48.0471 82.917 47.5281 88.935 46.4701 91.234C44.9531 94.528 40.8021 96.68 38.5011 99.385C38.5131 98.986 38.5781 98.684 38.6221 98.298C40.2031 96.313 40.7251 95.468 38.5011 97.694C38.2131 97.984 37.8801 98.175 37.6561 98.539C36.6171 98.868 36.9961 98.445 36.8711 98.419C36.8011 98.404 36.0331 99.549 37.0521 99.324C36.5861 102.563 36.2501 99.988 35.7841 100.109C35.7141 100.126 35.1321 101.307 35.1201 101.377C34.6781 104.214 40.7851 110.959 42.7271 113.147C40.1311 110.851 41.7301 112.87 40.2521 112.664C39.6431 112.58 34.5501 108.38 33.3691 107.714C31.2201 107.018 29.1431 106.081 27.0301 105.299C27.0151 105.294 26.9401 105.067 26.8491 105.057C21.4011 107.576 15.6311 109.59 10.8521 113.328C12.2241 116.642 14.4581 119.617 15.1991 123.167H14.7161C13.2481 120.269 11.7791 117.371 10.3091 114.473C7.94006 116.369 8.41806 116.388 8.67906 117.854L6.98806 123.167C6.30506 123.165 5.61906 123.172 4.93506 123.167C4.98606 119.313 5.97906 115.654 7.10906 112L7.65206 111.336C10.5891 109.716 13.1971 107.576 16.1051 105.903C19.7131 103.826 30.5921 98.6 34.3351 97.45C38.9161 96.045 41.7751 96.904 44.8981 92.318C46.7331 89.626 47.0541 86.259 47.0711 83.084C46.9941 82.49 45.9411 83.175 46.7091 82.601C46.7551 82.567 47.0181 82.666 47.0711 82.54C47.1631 82.323 47.0041 80.316 47.4341 79.582C47.4771 79.623 47.5161 79.667 47.5541 79.703L47.5571 79.705Z" fill="#FCF9F3"/>
<path d="M27.035 105.299C26.561 106.103 26.187 106.977 25.827 107.834C25.697 107.982 25.013 108.687 24.982 108.74C24.303 109.945 22.61 114.106 21.48 116.226C20.536 117.997 18.79 121.068 17.737 122.747C17.57 123.012 17.252 122.841 17.496 123.169H15.201C14.46 119.617 12.226 116.642 10.854 113.331C15.634 109.595 21.403 107.578 26.851 105.06C26.943 105.069 27.018 105.296 27.032 105.301L27.035 105.299Z" fill="#F6EBD5"/>
<path d="M105.508 116.166C104.033 118.547 102.598 120.919 100.92 123.169H98.9883C97.9813 120.409 96.9502 117.634 95.7282 114.959C94.4672 112.196 92.8883 109.573 91.6223 106.808L91.5023 106.989C91.4923 106.953 91.3933 107.062 91.2603 106.265C95.7043 109.957 100.748 112.891 105.506 116.164L105.508 116.166Z" fill="#F4E5BF"/>
<path d="M110.097 115.562C108.365 118.038 106.595 120.508 105.146 123.169C103.738 123.172 102.328 123.169 100.92 123.169C102.598 120.919 104.03 118.55 105.508 116.166C106.056 115.282 106.735 114.454 107.199 113.51C108.367 114.49 109.611 116.069 110.097 115.562Z" fill="#BED1AE"/>
<path d="M112.753 117.253C112.086 119.332 110.869 121.228 109.855 123.169C108.285 123.174 106.716 123.167 105.146 123.169C106.593 120.51 108.365 118.038 110.097 115.562C110.444 115.065 110.84 114.517 111.304 114.113C111.688 115.195 112.342 116.185 112.753 117.253Z" fill="#DE843E"/>
<path d="M42.7291 113.147C44.6761 114.869 46.3571 116.907 48.2231 118.702C49.7061 120.127 51.7881 121.247 52.6311 123.169C42.4491 123.165 32.2681 123.184 22.0861 123.169C21.8141 117.586 23.7141 112.901 25.8301 107.837C26.1871 106.98 26.5641 106.105 27.0371 105.301C29.1501 106.084 31.2251 107.021 33.3761 107.716C34.5551 108.38 39.6501 112.582 40.2591 112.667C41.7371 112.872 40.1381 110.853 42.7341 113.15L42.7291 113.147Z" fill="#F6EBD5"/>
<path d="M22.0841 123.167C20.5551 123.167 19.0271 123.169 17.4961 123.167C17.2521 122.839 17.5701 123.01 17.7371 122.744C18.7881 121.066 20.5361 117.997 21.4801 116.224C22.6081 114.106 24.3031 109.945 24.9821 108.738C25.0131 108.685 25.6941 107.982 25.8271 107.832C23.7121 112.896 21.8111 117.581 22.0841 123.165V123.167Z" fill="#FADFAA"/>
<path d="M115.047 123.167C114.685 123.169 114.323 123.167 113.96 123.167C113.789 122.457 113.813 121.708 113.719 120.993C113.593 120.035 113.35 119.115 113.236 118.156C113.009 117.431 112.772 117.299 112.753 117.25C112.342 116.183 111.69 115.193 111.304 114.111C110.014 110.626 102.509 105.647 99.353 104.091C103.902 106.439 108.261 109.09 112.391 112.121C113.936 115.591 114.567 119.409 115.047 123.167Z" fill="#FCF9F3"/>
<path d="M95.4893 120.873C95.7693 121.629 95.9213 122.452 96.3343 123.167H91.9873L93.7983 116.767C94.2303 118.125 94.9863 119.516 95.4893 120.873Z" fill="#FADFAA"/>
<path d="M14.7182 123.167C13.2282 123.165 11.7412 123.172 10.2512 123.167C9.73415 121.394 9.00715 119.685 8.68115 117.854C8.42015 116.391 7.94215 116.369 10.3112 114.473C11.7792 117.371 13.2492 120.269 14.7182 123.167Z" fill="#FCD146"/>
<path d="M10.2532 123.167C9.16616 123.165 8.08016 123.172 6.99316 123.167L8.68316 117.854C9.00716 119.682 9.73416 121.394 10.2532 123.167Z" fill="#F4E5BF"/>
<path d="M113.719 120.993C112.922 120.822 112.485 122.554 112.029 123.167C111.304 123.169 110.58 123.167 109.855 123.167C110.869 121.228 112.086 119.33 112.753 117.25C112.772 117.299 113.009 117.431 113.236 118.156C113.35 119.115 113.593 120.035 113.719 120.993Z" fill="#BED1AE"/>
<path d="M98.266 103.608C98.585 104.033 99.084 103.958 99.353 104.091C102.509 105.649 110.014 110.626 111.304 114.111C110.84 114.514 110.444 115.062 110.097 115.56C109.611 116.067 108.367 114.488 107.199 113.507C103.183 110.138 96.585 106.098 91.262 106.021C90.849 106.016 90.26 105.934 89.874 106.021C89.268 106.158 84.392 109.187 83.535 109.764C82.803 108.129 79.224 109.339 77.377 109.281C78.864 108.392 80.238 106.955 81.361 105.659C82.016 104.903 82.919 104.26 83.293 102.881C83.834 102.331 83.863 100.983 83.776 100.285C83.37 97.061 81.61 96.59 78.705 96.482C78.688 96.467 78.683 96.54 78.342 96.24C78.27 95.586 81.144 95.487 81.301 95.516C81.395 95.533 82.658 96.511 82.871 96.603C88.222 98.892 93.04 100.957 98.263 103.606L98.266 103.608Z" fill="#8FD0DD"/>
<path d="M99.3531 104.091C99.0841 103.958 98.5851 104.033 98.2661 103.608C98.5431 103.751 98.9111 103.864 99.3531 104.091Z" fill="#FCF9F3"/>
<path d="M107.199 113.51C106.735 114.454 106.056 115.282 105.508 116.166C100.748 112.894 95.7062 109.957 91.2622 106.267C91.2502 106.19 91.2672 106.105 91.2622 106.026C96.5852 106.103 103.183 110.143 107.199 113.512V113.51Z" fill="#BEDEDB"/>
<path d="M98.9898 123.167H96.3338C95.9208 122.455 95.7688 121.629 95.4888 120.873C97.6158 120.704 95.2298 116.149 95.7298 114.956C96.9518 117.632 97.9828 120.404 98.9898 123.167Z" fill="#D5CFA3"/>
<path d="M95.7299 114.959C95.2299 116.152 97.6159 120.706 95.4889 120.875C94.9889 119.518 94.2299 118.127 93.7979 116.77C92.7839 113.589 92.3059 110.228 91.5039 106.992L91.6249 106.811C92.8879 109.573 94.4669 112.196 95.7299 114.961V114.959Z" fill="#BED1AE"/>
<path d="M83.2931 102.886C83.3871 102.538 83.6511 100.727 83.5351 100.532C83.4161 100.401 83.1891 100.51 83.0521 100.471C82.9721 99.0441 81.3561 98.8701 80.4561 98.1771C79.6101 97.5271 79.1011 96.8221 78.7051 96.4871C81.6101 96.5931 83.3701 97.0661 83.7761 100.29C83.8631 100.988 83.8341 102.336 83.2931 102.886Z" fill="#14759A"/>
<path d="M39.9521 63.6479C39.9881 63.8459 40.0541 64.0659 40.0731 64.2519C40.1311 64.8069 40.2491 70.852 40.1941 71.195C39.8721 73.221 38.3901 72.139 38.2621 71.316C38.2091 70.978 38.7231 65.6529 38.6241 64.4929C39.2131 64.7519 39.4721 63.7979 39.9521 63.6479Z" fill="#FADFAA"/>
<path d="M38.1412 61.7159L39.5902 62.9239C39.6962 63.1559 39.9282 63.5229 39.9522 63.6479C39.4722 63.7979 39.2132 64.7519 38.6242 64.4929C38.3052 64.1799 37.8952 63.7829 37.6582 63.4069C37.7862 62.8099 37.3132 61.8879 38.1412 61.7159Z" fill="#E7A266"/>
<path d="M38.3821 61.716C39.6551 61.859 39.5491 62.837 39.5901 62.924L38.1411 61.716C38.2091 61.702 38.3101 61.709 38.3821 61.716Z" fill="#B6623F"/>
<path d="M36.6919 61.716C36.6219 61.115 36.7449 60.55 37.0539 60.026C37.1559 60.224 37.7979 60.704 37.7789 60.811C37.7669 60.881 36.8009 61.487 36.6919 61.716Z" fill="#D57F62"/>
<path d="M38.0201 50.7279C38.6631 52.2979 38.518 54.0269 38.745 55.6789C38.177 55.7509 38.409 56.4759 37.779 56.1619C37.786 55.5779 38.042 55.037 38.141 54.4709C38.148 54.4299 38.4501 54.5409 38.3821 53.6869C38.2011 51.4239 35.098 51.0909 35.605 55.0149C35.786 56.4059 37.9261 60.0689 39.2281 60.8709C39.1461 61.5399 38.7691 61.0429 38.3821 61.7159C38.3101 61.7089 38.209 61.7019 38.141 61.7159C37.313 61.8879 37.7861 62.81 37.6581 63.407C37.3251 62.878 36.7791 62.4529 36.6921 61.7159C36.8011 61.4869 37.767 60.8809 37.779 60.811C37.798 60.7039 37.1561 60.224 37.0541 60.026C37.0161 59.949 36.975 59.6299 36.933 59.5429C36.364 58.3399 35.7091 56.9999 35.4851 55.6789C35.4461 55.4499 35.2451 54.3019 35.2431 54.2299C35.2091 52.5999 35.8081 49.9429 38.0201 50.7279Z" fill="#F6BB85"/>
<path d="M38.1412 54.4709C37.6172 54.0539 37.0352 54.7059 36.9332 55.1959C36.6442 56.5819 37.9362 58.9489 39.2282 59.6639C39.1842 60.0499 39.2742 60.4869 39.2282 60.8709C37.9262 60.0689 35.7862 56.4079 35.6052 55.0149C35.0982 51.0909 38.2012 51.4239 38.3822 53.6869C38.4502 54.5409 38.1482 54.4299 38.1412 54.4709Z" fill="#7C2F2E"/>
<path d="M37.779 56.1619C38.409 56.4759 38.177 55.7509 38.745 55.6789C38.836 56.3379 38.928 57.8549 39.469 57.8519C39.428 58.4419 39.293 59.0719 39.228 59.6639C37.938 58.9489 36.646 56.5819 36.933 55.1959C37.419 55.3579 37.366 55.9569 37.779 56.1619Z" fill="#AC4F4F"/>
<path d="M38.1411 54.4709C38.0441 55.0369 37.7861 55.5779 37.7791 56.1619C37.3661 55.9569 37.4211 55.3579 36.9331 55.1959C37.0351 54.7079 37.6141 54.0539 38.1411 54.4709Z" fill="#B6623F"/>
<path d="M81.0012 64.2519C80.9242 65.2199 80.7702 72.3129 81.9072 72.1009C83.1582 71.8659 82.0162 65.4449 82.0882 64.2519C82.5612 63.7569 83.4692 62.6559 83.6582 62.0789C84.0472 62.6479 83.6582 63.0469 83.6582 63.1049C83.6362 63.7619 83.7252 67.3839 83.7792 67.9349C83.9842 70.0209 85.4832 76.2929 86.6762 78.0149C85.8802 78.1639 85.1242 78.1519 84.3222 78.1349C82.8372 79.9149 81.6582 79.0439 79.1902 79.8259C79.1232 79.8479 78.9852 79.8189 78.4662 80.0669C76.3822 81.0699 76.4562 82.8809 72.6092 81.5159C72.1432 81.1539 72.7622 78.6569 72.7912 78.0149C74.4012 75.9479 76.1042 74.2879 77.1372 71.7959C77.8232 70.1439 79.0792 64.6089 79.3112 62.8029H79.4322C80.2022 63.9979 80.4102 63.3079 80.8812 62.2599C80.8082 62.1439 79.9482 62.6149 79.7942 62.6819C79.7212 62.1029 81.4092 61.4579 81.7862 61.4749C82.7962 61.5179 81.1532 62.3729 81.0012 64.2519Z" fill="#08222E"/>
<path d="M51.4211 10.406C53.1591 10.565 56.0401 11.348 57.7001 11.976C56.5021 12.164 55.2771 12.166 54.0771 12.338C54.0511 12.343 53.9881 12.14 53.5341 12.217C50.1211 13.355 47.7401 14.234 45.7461 17.409C44.3641 19.607 43.5581 22.478 43.9341 25.077C44.1951 26.873 44.3621 24.309 44.4171 23.93C44.6731 24.041 44.8281 25.371 44.9001 25.982C45.2021 28.547 45.4491 29.18 44.1161 28.76C43.9751 28.81 43.7391 29.817 42.2441 31.054C42.2101 29.704 40.8001 28.018 40.4331 26.224C39.7031 22.662 40.3581 17.897 42.2441 14.755C44.3141 11.304 47.5251 10.051 51.4181 10.408L51.4211 10.406Z" fill="url(#paint0_linear_81_1331)"/>
<path d="M43.9372 10.7679L44.0582 10.8889C43.5842 10.9809 43.6012 11.1209 43.5752 11.1299C41.1642 11.9609 39.4042 13.2749 38.5032 15.7189C37.0902 19.5509 38.3272 22.9709 39.7112 26.5839L36.6322 23.8069C36.2742 23.8189 37.2592 26.2649 37.6582 26.5229C37.6122 27.3129 36.9672 25.7289 36.5712 25.3159C36.4752 25.2139 36.3012 25.7529 34.7002 23.4439C34.2212 23.8139 35.2312 27.2379 35.7262 27.9119C33.8862 27.0139 32.6062 25.5159 31.2582 24.0479C31.2442 24.0339 31.3212 23.8499 31.0772 23.6859C30.8652 23.9079 31.2512 24.0289 31.2582 24.0479C31.3312 24.2289 31.4422 24.6689 31.5002 24.7719C31.8022 25.5619 30.9492 25.4029 30.8962 25.6779C30.8702 25.8159 31.9322 27.1779 32.3452 28.0929C33.3062 30.2329 33.3452 32.4249 34.8812 32.2589C33.3882 32.4249 32.6202 32.4039 31.2582 31.6549C31.0802 31.5559 30.4642 31.0879 30.2922 30.9309C28.7712 29.5299 27.2742 25.7409 28.3602 23.8669C28.8462 23.0339 32.1662 21.3599 33.3112 21.2099C32.6422 14.8299 38.6892 12.0479 43.9342 10.7679H43.9372Z" fill="#F4E5BF"/>
<path d="M24.8611 41.433C25.9911 42.216 25.7141 41.89 25.7671 41.916C28.1121 43.083 29.1501 43.196 31.7441 42.761C31.1401 43.344 30.5361 43.928 29.9331 44.512C29.9981 44.638 31.3601 44.44 31.3821 45.056C30.1401 45.891 28.1451 47.031 26.7331 47.471V47.712C27.0761 47.712 27.4161 47.714 27.7591 47.712C28.0201 48.294 30.0941 47.372 29.9331 48.135C29.8141 48.697 26.0591 49.765 27.6991 49.644C30.2921 49.453 32.1471 47.318 32.4081 47.229C32.4221 47.224 32.5071 47.405 32.7101 47.35C32.5791 47.705 32.4321 48.065 32.3471 48.437C31.5941 49.163 31.3361 49.557 30.2951 50.248C25.9991 53.1 21.8671 52.037 19.3091 47.652C19.3961 47.14 23.3641 46.787 24.0181 46.565C23.0521 45.947 22.2341 41.684 23.2331 41.312C24.1391 41.559 24.7811 41.424 24.8641 41.433H24.8611Z" fill="#F6EBD5"/>
<path d="M30.1719 31.051C30.1499 31.467 30.0029 31.614 30.0509 31.836C30.1499 32.293 32.6469 36.775 33.7939 36.726C32.7439 36.946 28.6839 37.6589 30.6549 37.9339C30.3309 38.6249 31.3069 38.221 31.3789 38.477C31.5069 40.887 31.0389 39.595 30.4129 41.194C26.8579 42.532 26.8389 41.663 24.8589 41.436C20.9099 38.707 24.0329 38.47 27.0319 38.236C24.9649 36.668 23.5759 34.263 23.1679 31.715C23.3419 31.353 26.6479 31.4739 27.0929 32.0169C24.2649 27.1749 26.4379 29.95 30.1719 31.051Z" fill="#F4E5BF"/>
<path d="M58.062 12.096C58.207 12.174 58.214 12.157 58.183 12.338C57.97 12.461 57.864 12.553 57.82 12.579C56.021 13.644 54.922 14.48 54.741 14.511C54.707 14.516 54.618 14.152 54.5 14.149C54.304 14.144 52.358 16.796 52.024 17.168C49.73 19.718 47.54 21.353 46.712 24.956C46.415 26.25 46.712 28.463 45.806 25.016L44.9 25.982C44.828 25.371 44.673 24.041 44.417 23.93C44.763 21.611 45.147 19.96 46.349 17.892C48.054 14.965 50.802 13.096 54.077 12.338C55.277 12.166 56.502 12.164 57.7 11.976C57.82 12.022 58.045 12.087 58.062 12.096Z" fill="url(#paint1_linear_81_1331)"/>
<path d="M93.6773 58.698C93.6773 58.698 93.5013 58.678 93.5573 58.879C93.7233 59.49 96.3893 60.064 97.6623 68.717C97.6893 68.894 97.9813 69.471 97.6623 69.683C97.6043 69.64 96.4713 69.13 96.3343 69.079C96.5783 69.133 96.6363 68.968 96.5753 68.778C95.9963 66.935 90.6883 63.873 89.0893 55.558C88.8403 54.264 89.0843 54.723 89.0893 54.592C92.8253 55.119 91.7723 56.08 93.7983 58.396C93.8733 58.519 93.6323 58.625 93.6773 58.698Z" fill="#3D6694"/>
<path d="M36.6921 43.365C36.7261 43.66 36.7721 43.923 36.8131 44.21C36.4381 44.177 36.7091 45.587 36.8131 46.082C35.6901 48.555 34.9481 51.223 33.5531 53.568C32.7921 54.846 31.6501 55.891 31.7411 56.285C31.4151 56.522 30.4521 57.224 30.2921 57.372C29.4331 56.382 33.2001 54.186 31.2581 53.749C31.8721 52.839 32.9051 51.173 33.3111 50.187C33.3591 50.071 33.2651 49.77 33.3111 49.644C33.3331 49.586 33.2891 49.463 33.3111 49.402C33.3671 49.243 34.2701 47.995 33.9751 47.833C32.4101 48.538 31.0651 50.385 30.2921 50.248C31.3331 49.557 31.5921 49.163 32.3451 48.437C33.9751 46.864 35.2551 45.097 36.6921 43.365Z" fill="#5B87A2"/>
<path d="M26.914 66.546C25.446 66.85 24.414 67.797 23.533 68.961C23.214 68.186 22.936 67.408 22.688 66.607L25.706 64.071C25.615 63.197 25.822 62.752 25.827 62.682C26.793 61.803 27.902 60.318 28.725 59.543C28.848 59.427 28.952 59.304 29.087 59.181C29.725 59.135 28.595 60.125 28.242 61.052C28.143 61.315 27.525 63.571 27.518 63.709C27.428 65.561 29.145 61.504 28.242 64.675C27.911 65.836 27.535 65.781 26.914 66.546Z" fill="#F6EBD5"/>
<path d="M31.2581 31.655C32.9371 33.715 35.8201 34.34 38.0201 35.76C37.9791 35.84 37.9381 35.922 37.8991 36.002C36.5231 36.166 35.1511 36.444 33.7941 36.726C32.6471 36.775 30.1501 32.293 30.0511 31.836C30.0031 31.614 30.1501 31.467 30.1721 31.051C30.1721 31.042 30.3041 31.08 30.2921 30.931C30.4641 31.088 31.0801 31.556 31.2581 31.655Z" fill="#DAC0B0"/>
<path d="M30.2919 57.3689C29.9519 57.6789 28.4499 59.4149 28.7229 59.5429C27.8989 60.3159 26.7909 61.8029 25.8249 62.6819C25.8919 61.4429 25.7719 60.2599 24.8589 59.4219C27.7519 58.4919 29.3799 56.2199 31.0169 53.8679C31.0239 53.8559 31.2509 53.7589 31.2579 53.7469C33.1999 54.1839 29.4329 56.3789 30.2919 57.3689Z" fill="#7AA7B5"/>
<path d="M26.9142 66.546C26.7452 66.756 26.1242 67.215 25.5862 68.116C25.1152 68.906 24.9412 69.514 24.6202 70.35L26.4912 71.255L26.7932 71.195C26.7422 71.137 26.6632 71.11 26.6722 71.014C27.3782 71.497 27.2692 74.303 28.0012 74.274C27.9982 74.32 27.8032 74.571 27.8802 75.18C28.1942 75.626 28.6122 75.696 29.0872 75.844C29.7322 76.042 30.5922 76.015 30.8992 76.206L30.9592 77.776C32.8982 77.952 34.6732 79.005 36.6342 78.983C37.6652 79.891 36.6052 81.118 38.8072 81.036C39.0902 81.026 40.0852 80.659 40.2562 80.674C40.5922 80.7 45.4582 82.741 46.7162 82.606C45.9482 83.18 47.0012 82.494 47.0792 83.089C45.7822 83.233 40.4982 81.05 40.1362 81.036C39.9502 81.029 38.6342 81.625 37.6002 81.519L36.1512 79.225C35.4822 79.109 30.6572 78.244 30.4762 78.017C30.3142 77.812 30.4712 76.853 30.4162 76.508C24.9792 75.812 29.3702 71.963 24.1972 70.531C23.6422 70.072 23.6442 69.232 23.5332 68.961C24.4142 67.797 25.4462 66.85 26.9142 66.546Z" fill="#E4EAE6"/>
<path d="M65.4253 9.43998C66.2003 9.99098 67.3673 10.457 68.3233 11.01C68.3333 11.476 67.0623 11.37 66.2703 11.493C64.4233 11.068 61.4983 11.915 59.5083 12.459C59.9703 11.382 61.7163 12.27 62.5273 9.92298C62.5323 9.91098 62.6943 9.96398 62.6483 9.68198C63.2443 9.55798 64.8143 9.41098 65.4253 9.43998Z" fill="#EAC39E"/>
<path d="M96.334 69.079C96.471 69.13 97.604 69.64 97.662 69.683C99.282 70.898 95.974 69.413 95.851 69.502C95.556 70.183 94.332 74.141 94.16 74.332C93.66 74.885 92.851 73.678 92.53 73.789C91.946 73.989 91.712 78.696 84.682 78.498C82.996 80.031 81.291 79.63 79.188 79.826C81.653 79.046 82.834 79.915 84.319 78.135C85.121 78.152 85.877 78.164 86.674 78.015C89.739 77.44 89.521 77.36 91.142 74.996C91.743 74.119 92.185 73.209 92.289 73.185C92.516 73.134 93.462 74.291 93.677 73.849C94.362 72.179 95.046 70.509 95.73 68.838C95.803 68.852 96.129 69.005 96.334 69.079Z" fill="#E4EAE6"/>
<path d="M51.4212 10.4059C47.5282 10.0489 44.3162 11.3019 42.2462 14.7529C40.2422 15.9599 42.6542 12.1179 44.6612 10.9489C44.6952 10.6109 44.3842 10.8259 44.0582 10.8889L43.9372 10.7679C44.6252 10.5989 45.3472 10.2639 46.0502 10.1639C47.3542 9.97894 50.7422 9.78494 51.4232 10.4059H51.4212Z" fill="#F9E5DA"/>
<path d="M62.529 9.92301C60.873 10.363 59.61 11.505 58.183 12.338C58.214 12.157 58.207 12.174 58.062 12.096C59.414 11.002 60.914 10.039 62.65 9.68201C62.696 9.96401 62.534 9.91101 62.529 9.92301Z" fill="#F6EBD5"/>
<path d="M37.054 60.026C36.745 60.55 36.622 61.115 36.692 61.716C36.779 62.453 37.325 62.875 37.658 63.407C37.895 63.783 38.303 64.18 38.624 64.493C38.723 65.65 38.209 70.978 38.262 71.316C38.39 72.139 39.872 73.221 40.194 71.195C40.249 70.852 40.131 64.81 40.073 64.252C41.162 71.352 42.225 74.593 47.438 79.584C47.009 80.319 47.168 82.325 47.076 82.543C47.023 82.668 46.76 82.569 46.714 82.603C45.456 82.738 40.592 80.698 40.254 80.671C40.083 80.657 39.088 81.024 38.805 81.033C36.603 81.116 37.663 79.889 36.632 78.981C34.671 79.002 32.896 77.95 30.956 77.773L30.896 76.204C31.222 76.406 30.862 77.249 31.077 77.532C36.192 74.308 38.45 71.161 37.899 64.916C37.805 64.691 37.279 64.684 37.175 64.614C36.96 64.472 36.702 64.124 36.511 64.131C36.233 64.141 32.207 66.838 31.862 67.15L32.345 66.486L32.466 64.01C33.978 62.752 36.644 60.779 36.933 59.543C36.975 59.63 37.016 59.949 37.054 60.026Z" fill="#17485D"/>
<path d="M85.9503 61.475C85.5973 61.516 85.7733 62.682 85.8293 63.105C86.3193 66.814 88.7853 72.154 91.1423 74.996C89.5213 77.36 89.7393 77.44 86.6743 78.015C85.4813 76.293 83.9813 70.021 83.7763 67.935C83.7233 67.384 83.6343 63.762 83.6553 63.105C83.6553 63.049 84.0443 62.648 83.6553 62.079C84.2543 60.246 83.2133 60.622 83.1723 60.328C83.1393 60.096 84.9963 56.676 85.1043 56.041C85.1333 56.58 84.9673 56.705 84.9843 56.947C85.5173 58.265 85.1243 61.451 85.9503 61.475Z" fill="#0A2E42"/>
<path d="M82.0879 64.252C82.0159 65.445 83.1579 71.864 81.9069 72.101C80.7699 72.313 80.9239 65.223 81.0009 64.252H82.0879Z" fill="#E2B08F"/>
<path d="M92.3493 40.709C94.4093 41.573 97.8123 43.971 98.7493 46.022C99.6693 48.036 100.642 53.88 99.8353 55.92C98.9153 53.262 97.2423 50.96 95.4893 48.796C92.1563 44.684 90.8573 43.954 85.2283 43.483C84.0613 42.708 82.7303 42.167 81.5453 41.431C80.9413 41.054 80.0763 40.477 80.3983 40.344C81.8663 40.689 82.2503 40.561 83.6583 40.465C84.3583 40.416 85.0563 40.255 85.7713 40.344C85.8673 40.267 85.9373 40.117 86.0733 40.103C88.1663 40.304 90.2593 40.505 92.3523 40.706L92.3493 40.709Z" fill="#94809D"/>
<path d="M75.5681 22.841C78.7241 24.014 78.1401 26.333 81.0621 27.912C83.7541 29.366 87.7491 29.187 91.7451 32.017C92.5381 32.592 93.3441 33.164 94.1601 33.708C94.4041 33.87 94.4911 34.142 94.7641 34.312L94.6431 34.553C94.2261 34.495 94.3001 34.674 94.2811 34.674C93.7021 34.674 92.7691 34.881 91.9871 34.915C91.7361 34.925 91.7241 34.792 91.6251 34.795C88.0701 31.232 86.5341 32.239 84.3801 31.897C82.9911 31.677 80.0861 30.274 78.7051 29.602C78.1861 29.351 77.7631 28.88 77.2561 28.636C75.5581 24.558 70.3201 24.917 66.6321 25.014C66.0021 24.939 64.5631 25.255 64.3381 24.35C64.1351 23.529 65.2341 23.065 65.9081 22.841C68.1511 22.092 73.3221 22.007 75.5651 22.841H75.5681Z" fill="url(#paint2_linear_81_1331)"/>
<path d="M70.4963 12.338C73.4673 14.27 76.1473 16.723 79.5503 18.013C82.1853 19.534 84.4863 21.488 86.7953 23.447L85.7083 23.809C84.9263 22.959 83.7863 22.246 82.8103 21.635C81.4513 20.785 78.5243 19.24 77.0143 18.979C75.2053 17.668 70.8393 17.419 68.6223 17.651C66.2443 17.902 63.8793 18.856 62.1623 20.549C62.3483 19.836 62.7013 19.271 63.0083 18.617C63.5463 18.185 63.9643 17.629 64.5773 17.289C66.5583 16.226 68.6513 15.405 70.8563 14.934C67.8693 14.045 65.5583 13.615 62.5253 14.511C62.4593 14.531 62.3433 14.492 62.2833 14.511C62.3053 13.693 61.8563 14.494 61.7403 14.511C61.0803 14.606 61.8483 14.108 61.1963 12.821C62.8393 12.166 64.5223 11.763 66.2683 11.493C67.0603 11.37 68.3283 11.476 68.3203 11.01C69.0403 11.428 69.7963 11.884 70.4943 12.338H70.4963Z" fill="#E2B08F"/>
<path d="M95.4891 48.799C96.8531 51.052 97.3091 52.892 98.1451 55.198C98.5891 56.428 99.0551 58.352 99.9561 59.062C99.9511 59.724 99.7611 60.345 99.7151 60.994L98.8701 63.168C96.7491 60.246 97.5291 62.255 97.4811 65.824C96.9331 64.414 97.4041 62.755 96.6961 61.477C98.9811 62.873 94.0111 57.956 94.5231 56.044C94.8921 54.667 96.4141 54.768 92.8321 50.489C92.8011 50.451 92.8681 50.228 92.8321 50.187C90.6371 47.652 87.2321 46.244 85.2251 43.486C90.8541 43.957 92.1541 44.686 95.4861 48.799H95.4891Z" fill="#6A6490"/>
<path d="M91.6249 37.086C91.8489 37.147 92.8879 37.424 92.9529 37.449C93.3179 37.591 96.5439 39.294 96.6959 39.441C97.7489 40.938 98.3549 42.687 99.2319 44.271C99.5889 44.918 101.987 48.475 102.009 48.738C102.014 48.813 101.581 49.504 101.466 50.127C100.77 48.644 99.8619 47.239 98.7489 46.022C97.8139 43.971 94.4119 41.573 92.3489 40.709C88.8059 39.224 88.2819 39.861 86.0699 40.105C85.9349 40.119 85.8649 40.269 85.7679 40.346C85.0539 40.257 84.3559 40.419 83.6549 40.467C84.3969 39.996 82.8629 38.354 83.0519 37.63C83.0689 37.567 83.7109 37.511 84.0179 37.086C84.2299 37.173 85.4469 37.886 85.5869 37.63C82.7139 33.268 83.0519 34.71 86.9759 36.483C89.1899 36.625 89.5089 36.512 91.6249 37.086Z" fill="#C19980"/>
<path d="M86.916 50.487C89.379 52.74 92.2821 54.807 94.1601 57.671C94.3851 58.014 95.3901 59.736 94.8851 59.664C94.6431 59.439 94.0611 59.108 93.6771 58.698C93.6321 58.625 93.873 58.519 93.798 58.396C91.772 56.08 92.825 55.119 89.089 54.592C89.094 54.455 89.2871 54.428 89.1491 54.351C87.8531 53.373 86.061 52.228 84.863 51.211C83.919 50.41 81.975 48.813 81.723 47.589C81.566 46.826 82.0201 47.19 82.1461 47.106C82.4291 46.915 82.523 46.56 82.81 46.381C83.81 48.048 85.532 49.221 86.916 50.487Z" fill="#1B476C"/>
<path d="M94.5229 56.041C94.0109 57.951 98.9809 62.871 96.6959 61.475C95.9929 61.047 95.4809 60.217 94.8849 59.664C95.3899 59.736 94.3849 58.014 94.1599 57.671C92.2819 54.81 89.3809 52.742 86.9159 50.487C86.8869 50.209 87.0849 50.079 87.3379 50.125C87.7989 50.207 94.1849 54.754 94.5229 56.041Z" fill="#3D6694"/>
<path d="M90.8999 28.516C90.9119 28.528 91.1199 28.574 91.1419 28.757C91.7139 30.334 93.6239 31.846 94.1599 33.708C93.3439 33.164 92.5399 32.594 91.7449 32.017C91.1919 31.616 89.7559 30.416 88.8479 29.723C87.8789 28.134 86.5479 28.668 88.2439 26.584C89.1179 27.248 90.0549 27.794 90.8999 28.516Z" fill="#855874"/>
<path d="M86.795 23.444C89.253 25.528 91.533 27.743 93.919 29.904C92.96 29.677 91.888 28.194 90.9 28.516C90.055 27.794 89.118 27.25 88.244 26.584C87.99 26.39 87.461 26.241 87.157 26.04C86.795 25.306 86.256 24.403 85.708 23.807L86.795 23.444Z" fill="#C19980"/>
<path d="M79.5521 18.011C76.1471 16.721 73.4671 14.267 70.4991 12.336C70.2281 11.575 73.5461 13.304 74.1821 13.664C75.0511 14.159 79.6181 17.279 79.5551 18.011H79.5521Z" fill="#E8E0E1"/>
<path d="M99.8353 55.92C99.8263 55.945 99.6083 56.06 99.4733 56.283C99.1543 55.529 98.9783 54.783 98.1453 55.196C97.3093 52.89 96.8533 51.049 95.4893 48.796C97.2423 50.96 98.9153 53.262 99.8353 55.92Z" fill="#EBEFF9"/>
<path d="M91.6253 34.792C91.7243 34.792 91.7363 34.922 91.9873 34.913C92.9533 35.737 93.9193 36.562 94.8853 37.388L92.8323 37.207C92.5453 36.56 91.4533 36.21 90.9003 35.758C90.6663 35.567 90.4993 35.154 90.1763 35.034C90.1763 34.804 89.2563 34.828 91.6253 34.792Z" fill="#94809D"/>
<path d="M99.473 56.283C100.009 57.555 99.966 57.679 99.956 59.06C99.058 58.35 98.589 56.425 98.145 55.196C98.978 54.783 99.154 55.527 99.473 56.283Z" fill="#EBEFF9"/>
<path d="M92.8322 37.2069C92.8712 37.2959 92.9362 37.3539 92.9532 37.4489C92.8882 37.4239 91.8492 37.1469 91.6252 37.0859C91.5572 36.5669 90.3792 36.8669 90.9002 35.7579C91.4532 36.2099 92.5452 36.5599 92.8322 37.2069Z" fill="#281526"/>
<path d="M93.0743 27.3079C92.7963 27.3489 92.7573 27.1219 92.5913 26.9459C89.3553 21.4109 88.3913 21.0749 82.8133 17.4699C85.5323 19.5589 88.7443 21.7829 90.9033 24.4729C91.5143 25.2339 91.9143 26.2339 92.5933 26.9479C92.6103 26.9769 92.5333 27.0299 92.8353 27.5519C93.1633 28.1199 93.4413 28.9429 93.9213 29.5439C96.9283 32.6909 99.1763 36.8089 99.4763 41.1339C101.427 44.8379 104.499 48.7019 100.683 52.3609C101.082 54.5779 99.6983 56.8769 100.683 59.0019C100.775 61.0139 100.43 63.0349 99.5363 64.8579L98.2083 63.2879C97.8503 63.3489 98.1023 66.1259 98.0273 67.3329C98.0053 67.6739 97.9353 68.7849 97.6643 68.7219C96.3923 60.0669 93.7263 59.4949 93.5593 58.8839C93.5043 58.6829 93.6853 58.7119 93.6803 58.7019C94.0643 59.1129 94.6463 59.4439 94.8873 59.6679C95.4813 60.2209 95.9963 61.0499 96.6983 61.4799C97.4063 62.7569 96.9353 64.4139 97.4833 65.8269C97.5323 62.2569 96.7523 60.2479 98.8723 63.1699C98.9813 63.3199 99.2733 64.1769 99.5963 64.1959C99.8193 63.1359 99.6453 62.0589 99.7173 60.9969C99.7633 60.3489 99.9543 59.7259 99.9593 59.0649C99.9683 57.6829 100.012 57.5599 99.4763 56.2869C99.6113 56.0649 99.8283 55.9489 99.8383 55.9249C100.644 53.8819 99.6713 48.0399 98.7513 46.0259C99.8643 47.2439 100.772 48.6489 101.468 50.1319C101.584 49.5089 102.016 48.8179 102.011 48.7429C101.992 48.4799 99.5923 44.9229 99.2343 44.2759C98.3603 42.6939 97.7513 40.9429 96.6983 39.4459C96.5463 39.2979 93.3223 37.5979 92.9553 37.4529C92.9383 37.3589 92.8733 37.3009 92.8353 37.2119L94.8873 37.3929C93.9213 36.5689 92.9553 35.7439 91.9893 34.9179C92.7693 34.8839 93.7043 34.6759 94.2843 34.6759C96.2303 36.3399 97.7493 38.5449 99.2953 40.5929C98.7583 38.0789 96.5803 36.1899 94.6463 34.5549L94.7673 34.3139C95.2523 34.6159 96.6723 35.1809 97.3023 35.4609C95.5803 32.9179 93.2673 30.9499 91.1443 28.7599C91.1223 28.5759 90.9153 28.5299 90.9033 28.5179C91.8903 28.1969 92.9633 29.6799 93.9213 29.9069C91.5353 27.7479 89.2563 25.5329 86.7973 23.4469C84.4893 21.4879 82.1873 19.5339 79.5523 18.0129C79.6153 17.2809 75.0493 14.1609 74.1793 13.6659C73.5463 13.3059 70.2263 11.5769 70.4963 12.3379C69.7983 11.8839 69.0453 11.4279 68.3233 11.0099C67.3693 10.4569 66.2003 9.99094 65.4253 9.43994C68.4223 9.57994 75.4883 13.2849 78.6443 14.6319C82.7043 17.3539 87.0703 18.3149 90.2943 22.2999C90.8453 22.9809 93.0743 26.6999 93.0713 27.3109L93.0743 27.3079Z" fill="#FCF9F3"/>
<path d="M93.0743 27.3079C93.0743 27.4939 92.8273 27.3659 92.8323 27.5499C92.5303 27.0279 92.6083 26.9749 92.5913 26.9459C92.7573 27.1219 92.7963 27.3489 93.0743 27.3079Z" fill="#D4C8CB"/>
<path d="M79.6133 16.3199C82.8683 18.0469 86.1263 20.3239 88.2463 23.3839C87.4283 23.2249 87.3843 23.4559 87.3413 23.4439C86.6403 23.2579 80.7653 17.3199 79.6133 16.3199Z" fill="#CCAEA4"/>
<path d="M94.7641 34.309C94.4911 34.14 94.4041 33.867 94.1601 33.705C93.6241 31.843 91.7161 30.332 91.1421 28.755C93.2621 30.945 95.5781 32.911 97.3001 35.456C96.6701 35.176 95.2501 34.611 94.7641 34.309Z" fill="#B196A2"/>
<path d="M92.5911 26.9459C91.9121 26.2309 91.5111 25.2309 90.9001 24.4709C88.7411 21.7829 85.5321 19.5589 82.8101 17.4669C88.3911 21.0749 89.3521 21.4079 92.5881 26.9439L92.5911 26.9459Z" fill="#D4C8CB"/>
<path d="M94.6432 34.5509C96.5752 36.1859 98.7563 38.0739 99.2923 40.5879C97.7473 38.5419 96.2303 36.3349 94.2812 34.6709C94.3002 34.6709 94.2262 34.4929 94.6432 34.5509Z" fill="#B9A9B9"/>
<path d="M98.8701 63.1649L99.7151 60.9919C99.6421 62.0539 99.8161 63.1309 99.5941 64.1919C99.2701 64.1719 98.9781 63.3149 98.8701 63.1649Z" fill="#4F8CBC"/>
<path d="M100.437 44.814C99.2911 43.043 98.1431 41.272 96.9961 39.501C98.5481 40.986 99.5431 42.916 100.437 44.814Z" fill="#B9A9B9"/>
<path d="M100.438 44.814L101.585 47.35C101.097 46.553 100.831 45.65 100.438 44.814Z" fill="#B9A9B9"/>
<path d="M50.092 22.961C49.993 23.444 49.735 23.473 49.73 23.505C49.706 23.65 49.873 24.867 49.851 25.074C49.808 25.495 49.518 26.258 49.489 26.765C49.414 28.12 50.438 31.684 48.04 29.965C45.794 27.489 47.521 30.064 48.644 31.051C48.247 31.404 47.608 32.353 47.195 32.863C44.258 31.926 46.762 33.899 45.927 33.949C45.837 33.954 44.939 32.754 44.719 32.621C44.487 32.696 45.509 34.468 45.142 34.915C44.891 34.263 43.62 33.21 42.968 32.681C43.193 33.085 44.326 35.108 43.995 35.398C43.968 35.422 43.814 35.096 43.693 35.217C43.62 35.29 43.222 37.002 43.21 37.209C42.811 36.601 42.654 35.683 42.365 35.036C42.082 34.406 42.181 34.734 42.244 35.157C42.761 38.584 42.186 38.596 42.123 39.262C41.993 40.66 41.727 42.047 41.882 43.488C40.223 45.374 40.242 45.874 39.95 48.197C39.546 51.392 39.687 54.653 39.467 57.855C38.926 57.857 38.834 56.341 38.742 55.681C38.515 54.032 38.66 52.3 38.018 50.731C37.769 48.528 37.124 46.401 36.81 44.21C36.769 43.923 36.723 43.66 36.69 43.365C36.434 41.114 36.279 40.484 36.931 38.173C37.119 37.509 37.581 36.644 37.897 36C37.936 35.92 37.977 35.838 38.018 35.758C39.213 33.469 40.471 32.409 40.433 32.196C40.409 32.061 39.942 31.95 39.95 31.834C39.969 31.486 41.365 31.667 41.761 31.532C42.015 31.445 42.075 31.189 42.244 31.049C43.739 29.812 43.975 28.805 44.116 28.755C45.449 29.175 45.202 28.542 44.9 25.978L45.806 25.012C46.712 28.458 46.415 26.246 46.712 24.951C47.54 21.351 49.73 19.713 52.024 17.163C51.022 19.097 50.525 20.841 50.092 22.959V22.961Z" fill="#0E0C13"/>
<path d="M42.2463 14.753C40.3603 17.897 39.7063 22.659 40.4353 26.221L40.3143 26.342C39.3753 22.232 38.6533 20.119 40.7973 14.994C41.4113 13.526 42.2203 12.041 43.5753 11.13C43.6013 11.121 43.5843 10.981 44.0583 10.889C44.3843 10.826 44.6953 10.611 44.6613 10.949C42.6543 12.118 40.2443 15.96 42.2463 14.753Z" fill="#EAB9B6"/>
<path d="M46.3519 17.89C45.1489 19.957 44.7649 21.609 44.4199 23.927C44.3639 24.304 44.1979 26.871 43.9369 25.074C43.5599 22.478 44.3669 19.605 45.7479 17.407L46.3519 17.89Z" fill="#9D748A"/>
<path d="M54.0771 12.338C50.8051 13.096 48.0541 14.963 46.3491 17.892L45.7461 17.409C47.7381 14.236 50.1191 13.355 53.5341 12.217C53.9851 12.14 54.0511 12.343 54.0771 12.338Z" fill="#A58488"/>
<path d="M42.2458 31.0509C42.0768 31.1909 42.0168 31.4469 41.7628 31.5339C41.5938 31.3239 41.6738 31.1669 41.6428 31.0509C41.3838 30.0999 40.6258 28.4719 40.1938 27.4289C40.8018 27.8659 40.4128 26.7769 40.3138 26.3419L40.4348 26.2209C40.8018 28.0129 42.2128 29.6989 42.2458 31.0509Z" fill="#855874"/>
<path d="M41.6433 31.051C41.6743 31.167 41.5943 31.324 41.7633 31.534C41.3673 31.67 39.9713 31.488 39.9523 31.836C39.9453 31.952 40.4113 32.063 40.4353 32.198C40.4743 32.411 39.2163 33.471 38.0203 35.76C35.8233 34.343 32.9393 33.715 31.2583 31.655C32.6183 32.404 33.3883 32.425 34.8813 32.259C35.7943 32.157 36.9913 31.735 37.8993 31.474C37.9483 31.36 36.1783 30.141 35.9673 29.965C35.6783 29.346 36.5783 29.291 36.8133 28.757C37.4893 29.228 40.8243 31.008 41.6433 31.051Z" fill="#B196A2"/>
<path d="M39.7109 26.584C39.8219 26.871 40.0829 27.163 40.1939 27.429C40.6259 28.47 41.3839 30.1 41.6429 31.051C40.8239 31.008 37.4889 29.228 36.8129 28.757C36.4259 28.489 36.0159 28.306 35.7259 27.912C35.2309 27.238 34.2209 23.814 34.6999 23.444C36.3009 25.753 36.4749 25.214 36.5709 25.316C36.9669 25.729 37.6119 27.313 37.6579 26.523C37.2589 26.265 36.2739 23.819 36.6319 23.807L39.7109 26.584Z" fill="#DAC0B0"/>
<path d="M40.3141 26.342C40.4131 26.777 40.8021 27.866 40.1941 27.429C40.0831 27.163 39.8221 26.871 39.7111 26.584C38.3271 22.969 37.0901 19.549 38.5031 15.719C39.2881 15.596 40.1981 15.492 40.7971 14.994C38.6531 20.119 39.3751 22.232 40.3141 26.342Z" fill="#9D748A"/>
<path d="M35.967 29.965C36.178 30.141 37.948 31.36 37.899 31.474C36.991 31.735 35.794 32.157 34.881 32.259C33.345 32.425 33.306 30.233 32.345 28.093C31.935 27.178 30.87 25.816 30.896 25.678C30.949 25.403 31.802 25.565 31.5 24.772C32.579 26.68 34.299 28.559 35.967 29.965Z" fill="#DAC0B0"/>
<path d="M43.5749 11.13C42.2199 12.041 41.4129 13.526 40.7969 14.994C40.1979 15.492 39.2879 15.596 38.5029 15.719C39.4039 13.275 41.1639 11.961 43.5749 11.13Z" fill="#B98697"/>
<path d="M35.7263 27.912C36.0163 28.306 36.4263 28.489 36.8133 28.757C36.5783 29.291 35.6783 29.346 35.9673 29.965C34.2993 28.562 32.5793 26.68 31.5003 24.772C31.4423 24.669 31.3313 24.229 31.2583 24.048C32.6063 25.516 33.8863 27.014 35.7263 27.912Z" fill="#9D748A"/>
<path d="M31.2582 24.048C31.2512 24.029 30.8652 23.908 31.0772 23.686C31.3212 23.85 31.2442 24.034 31.2582 24.048Z" fill="#9D748A"/>
<path d="M36.9329 38.173C36.2809 40.482 36.4359 41.112 36.6919 43.365C35.2569 45.094 33.9749 46.864 32.3449 48.437C32.4299 48.065 32.5769 47.707 32.7069 47.35C32.7479 47.236 33.2019 46.326 33.0089 46.263C31.8069 47.183 29.2269 47.7 27.7569 47.712C27.4139 47.714 27.0729 47.712 26.7299 47.712V47.471C28.1409 47.031 30.1379 45.894 31.3789 45.056C31.8479 44.739 35.8389 42.109 33.3709 42.158C33.2169 42.16 31.8789 42.737 31.7409 42.761C29.1479 43.196 28.1089 43.083 25.7639 41.916C25.7109 41.89 25.9889 42.216 24.8589 41.433C26.8389 41.66 26.8559 42.53 30.4129 41.192C31.8979 40.634 34.4899 39.122 35.7259 38.052C36.1409 38.062 36.5299 38.016 36.9329 38.173Z" fill="#B196A2"/>
<path d="M31.3792 45.056C31.3572 44.44 29.9952 44.638 29.9302 44.512C30.5342 43.929 31.1382 43.346 31.7412 42.761C31.8792 42.74 33.2142 42.16 33.3712 42.158C35.8392 42.109 31.8482 44.739 31.3792 45.056Z" fill="#E0CBB5"/>
<path d="M32.7072 47.3499C32.5042 47.4049 32.4202 47.2239 32.4052 47.2289C32.1452 47.3179 30.2902 49.4529 27.6962 49.6439C26.0572 49.7649 29.8122 48.6969 29.9302 48.1349C30.0922 47.3719 28.0172 48.2939 27.7572 47.7119C29.2252 47.6999 31.8072 47.1829 33.0092 46.2629C33.2022 46.3259 32.7482 47.2359 32.7072 47.3499Z" fill="#E0CBB5"/>
<path d="M37.8989 36C37.5829 36.642 37.1219 37.506 36.9329 38.173C36.5299 38.016 36.1409 38.062 35.7259 38.052C34.4219 38.026 31.5919 38.062 30.6549 37.932C28.6839 37.656 32.7439 36.944 33.7939 36.724C35.1509 36.441 36.5209 36.164 37.8989 36Z" fill="#777C90"/>
<path d="M35.7261 38.052C34.4901 39.122 31.8981 40.631 30.4131 41.192C31.0391 39.595 31.5071 40.885 31.3791 38.475C31.3071 38.219 30.3331 38.622 30.6551 37.932C31.5921 38.062 34.4221 38.026 35.7261 38.052Z" fill="#E0CBB5"/>
<path d="M66.2698 11.493C64.5238 11.763 62.8408 12.166 61.1988 12.821C59.1698 13.628 54.3398 16.417 53.5918 18.375C52.0938 19.626 51.0678 21.305 50.0898 22.964C50.5218 20.848 51.0198 19.102 52.0218 17.168C52.3548 16.798 54.3018 14.144 54.4968 14.149C54.6158 14.152 54.7048 14.516 54.7388 14.511C54.9198 14.48 56.0188 13.644 57.8178 12.579C58.3778 13.017 58.8678 12.633 59.5078 12.459C61.4978 11.915 64.4228 11.068 66.2698 11.493Z" fill="#F4E5BF"/>
<path d="M59.5113 12.459C58.8713 12.633 58.3813 13.017 57.8203 12.579C57.8643 12.553 57.9703 12.461 58.1833 12.338C59.6073 11.507 60.8733 10.365 62.5293 9.92297C61.7183 12.268 59.9723 11.379 59.5113 12.459Z" fill="#EAC39E"/>
<path d="M89.0888 54.592C89.0838 54.723 88.8398 54.264 89.0888 55.558C88.6538 55.532 86.9448 54.641 86.6738 55.015C88.2218 60.436 91.5718 65.056 95.0058 69.442C94.9888 69.476 95.2278 69.565 94.8238 70.166C92.5158 67.324 90.1178 64.52 88.0628 61.472C87.5098 61.965 87.2968 61.721 87.1568 61.714C86.2558 59.482 85.6738 58.258 85.4668 55.797C85.4498 55.594 85.7148 54.645 85.3458 52.597L85.5868 52.477C85.2518 52.114 84.5658 51.588 84.8628 51.209C86.0608 52.226 87.8528 53.37 89.1488 54.348C89.2868 54.426 89.0938 54.452 89.0888 54.59V54.592Z" fill="#0A2E42"/>
<path d="M89.0893 55.558C90.6853 63.873 95.9963 66.935 96.5753 68.778C96.6363 68.968 96.5783 69.133 96.3343 69.079C96.1293 69.005 95.8033 68.852 95.7303 68.838C95.2373 68.741 95.2693 68.947 95.0063 69.442C91.5723 65.056 88.2223 60.436 86.6743 55.015C86.9453 54.641 88.6543 55.532 89.0893 55.558Z" fill="#1B476C"/>
<path d="M26.0691 52.5399C25.7261 53.7929 29.0901 52.6599 30.7781 52.6599C29.6041 54.0149 28.5581 55.2589 27.1551 56.4029C26.0161 57.3329 25.1491 57.5599 25.1031 57.6709C25.0331 57.8429 25.6221 60.2619 22.7481 58.4559C22.1471 58.0789 21.3061 56.8239 20.7561 57.2489C18.1811 53.4929 22.0651 56.6909 22.1441 51.6939C22.3181 51.5569 23.7141 52.5779 26.0691 52.5399Z" fill="#F6EBD5"/>
<path d="M31.0169 53.868C29.3799 56.217 27.7519 58.492 24.8589 59.422C24.5809 59.511 24.3009 59.584 24.0739 59.784C23.0109 59.876 21.3329 58.094 20.7529 57.249C21.3039 56.824 22.1439 58.077 22.7459 58.456C25.6189 60.265 25.0299 57.843 25.0999 57.671C25.1459 57.56 26.0129 57.333 27.1529 56.403C29.2469 55.705 31.2439 52.498 31.0169 53.868Z" fill="#F6EBD5"/>
<path d="M33.3109 49.402C33.2889 49.463 33.3329 49.586 33.3109 49.644C32.5209 50.699 31.6369 51.668 30.7749 52.663C29.0869 52.663 25.7229 53.795 26.0659 52.542C29.0629 52.494 30.9179 50.936 33.3109 49.402Z" fill="#F6EBD5"/>
<path d="M31.2583 53.747C31.2583 53.747 31.0243 53.856 31.0173 53.868C31.2443 52.498 29.2473 55.705 27.1533 56.403C28.5563 55.261 29.5993 54.015 30.7753 52.66C31.6373 51.665 32.5213 50.699 33.3113 49.642C33.2653 49.767 33.3593 50.069 33.3113 50.185C32.9053 51.168 31.8723 52.834 31.2583 53.747Z" fill="#A6C4C6"/>
<path d="M36.813 44.21C37.124 46.401 37.771 48.528 38.02 50.731C35.808 49.943 35.209 52.602 35.243 54.232C34.103 54.906 32.811 55.507 31.741 56.285C31.65 55.894 32.792 54.848 33.553 53.568C34.946 51.223 35.69 48.555 36.813 46.082C36.709 45.587 36.438 44.179 36.813 44.21Z" fill="#3D6694"/>
<path d="M35.2429 54.23C35.2429 54.302 35.4459 55.45 35.4849 55.679C32.9509 57.092 31.3819 57.111 29.0849 59.181C28.9499 59.304 28.8459 59.427 28.7229 59.543C28.4499 59.415 29.9519 57.681 30.2919 57.369C30.4519 57.222 31.4149 56.522 31.7409 56.283C32.8089 55.505 34.1029 54.904 35.2429 54.23Z" fill="#17485D"/>
<path d="M36.933 59.543C36.644 60.779 33.978 62.752 32.466 64.01C32.34 64.117 31.183 64.788 29.809 65.942C27.556 67.838 27.006 69.688 25.583 68.116C26.119 67.218 26.742 66.756 26.911 66.546C27.532 65.781 27.909 65.839 28.24 64.675C29.143 61.504 27.426 65.561 27.515 63.709C27.522 63.571 28.141 61.315 28.24 61.052C28.59 60.125 29.722 59.135 29.085 59.181C31.379 57.111 32.951 57.092 35.485 55.679C35.709 57 36.364 58.34 36.933 59.543Z" fill="url(#paint3_linear_81_1331)"/>
<path d="M37.175 64.614C37.315 70.384 34.627 74.095 29.085 75.841C28.609 75.694 28.191 75.626 27.877 75.177C27.8 74.569 27.993 74.317 27.998 74.272C28.051 73.593 28.283 72.9 28.36 72.219C29.491 72.617 29.162 72.045 29.447 71.494C30.324 69.806 30.326 68.529 31.862 67.147C32.207 66.838 36.233 64.138 36.511 64.129C36.702 64.122 36.96 64.469 37.175 64.612V64.614Z" fill="url(#paint4_linear_81_1331)"/>
<path d="M30.896 76.204C30.589 76.013 29.73 76.039 29.085 75.841C34.627 74.093 37.313 70.384 37.175 64.614C37.279 64.684 37.805 64.691 37.899 64.916C38.452 71.161 36.192 74.308 31.077 77.532C30.862 77.249 31.222 76.406 30.896 76.204Z" fill="#1F5D74"/>
<path d="M29.4501 70.6489C29.4451 69.9389 29.3291 69.2339 29.2081 68.5359C28.9811 68.3159 28.7591 68.8669 28.4841 68.9589C28.0031 69.1179 27.0181 69.1449 26.7931 69.5019C26.6071 69.7989 26.7111 70.6269 26.6721 71.0109C26.6631 71.1079 26.7421 71.1349 26.7931 71.1929L26.4911 71.2529L24.6201 70.3469C24.9411 69.5119 25.1151 68.9029 25.5861 68.1129C27.0081 69.6859 27.5591 67.8359 29.8121 65.9399C30.1281 66.8719 29.9861 70.3909 29.4501 70.6489Z" fill="#7AA7B5"/>
<path d="M28.3629 72.219C28.2859 72.9 28.0539 73.593 28.0009 74.272C27.2689 74.301 27.3779 71.497 26.6719 71.011C26.7109 70.627 26.6069 69.799 26.7929 69.502C27.0179 69.145 28.0029 69.118 28.4839 68.959C28.5079 70.05 28.4859 71.132 28.3629 72.219Z" fill="#E4EAE6"/>
<path d="M87.1569 61.716C87.2969 61.724 87.5099 61.967 88.0629 61.475C90.1179 64.522 92.5159 67.324 94.8239 70.169C95.2279 69.567 94.9889 69.478 95.0059 69.444C95.2689 68.949 95.2369 68.744 95.7299 68.84C95.0459 70.51 94.3619 72.18 93.6769 73.851C93.4619 74.293 92.5159 73.137 92.2889 73.187C92.1849 73.209 91.7429 74.122 91.1419 74.998C88.7869 72.156 86.3209 66.814 85.8289 63.107C85.7729 62.685 85.5969 61.518 85.9499 61.477C86.3139 61.75 86.7419 61.699 87.1569 61.719V61.716Z" fill="#0A2E42"/>
<path d="M32.4663 64.01L32.3453 66.486L31.8623 67.15C30.3263 68.531 30.3243 69.806 29.4473 71.497V70.652C29.9833 70.393 30.1263 66.875 29.8093 65.942C31.1833 64.788 32.3403 64.117 32.4663 64.01Z" fill="#14759A"/>
<path d="M87.1571 61.7159C86.7421 61.6969 86.3141 61.7479 85.9501 61.4749C85.1241 61.4509 85.5171 58.2649 84.9841 56.9469C84.9671 56.7049 85.1331 56.5799 85.1041 56.0409V55.9199L85.4671 55.7999C85.6741 58.2609 86.2561 59.4849 87.1571 61.7159Z" fill="#0A2E42"/>
<path d="M72.1869 26.463C72.1219 27.504 73.8239 27.634 74.9039 28.274C80.4919 31.59 80.9459 34.423 82.0879 35.821C82.6869 36.555 83.0149 36.594 83.7789 36.968C83.8629 37.009 83.9329 37.052 84.0199 37.089C83.7129 37.514 83.0709 37.569 83.0539 37.632C82.8659 38.357 84.3969 39.999 83.6579 40.47C82.2519 40.566 81.8679 40.694 80.3979 40.349C80.0689 40.272 79.3039 40.033 79.0689 39.866C78.1519 39.211 76.8209 36.287 76.2919 35.157C75.3669 31.906 74.3189 29.368 71.7639 27.067C71.6889 26.999 70.3349 25.915 70.2549 25.859C70.8679 26.156 71.5469 26.255 72.1869 26.463Z" fill="#EAC39E"/>
<path d="M80.3983 40.346C80.0763 40.479 80.9413 41.056 81.5453 41.433C82.7303 42.17 84.0613 42.711 85.2283 43.486C87.2343 46.244 90.6373 47.652 92.8353 50.187C92.8713 50.228 92.8033 50.451 92.8353 50.489C89.7513 48.277 86.0923 47.149 82.6943 45.539L82.2113 45.237L79.0723 39.863C79.3063 40.03 80.0723 40.269 80.4003 40.346H80.3983Z" fill="#94809D"/>
<path d="M92.3493 40.709C90.2563 40.507 88.1633 40.306 86.0703 40.105C88.2823 39.861 88.8043 39.224 92.3493 40.709Z" fill="#775F7C"/>
<path d="M62.529 14.511C59.793 16.46 56.485 17.962 54.802 21.032C54.483 20.616 53.355 23.261 53.111 24.111C52.932 24.729 52.23 28.897 52.387 29.182C52.418 29.24 53.048 29.025 53.111 28.941C53.326 28.648 53.012 25.656 54.56 21.877C56.106 21.283 55.536 22.633 55.949 22.722C56.248 22.787 57.753 20.877 60.779 18.979C61.665 18.424 64.551 16.699 64.582 17.289C63.969 17.627 63.551 18.185 63.012 18.617C63.003 18.624 62.967 18.383 62.831 18.496C61.952 19.225 59.561 21.954 59.028 22.903C59.021 22.918 59.235 23.039 59.149 23.205C59.11 23.278 58.743 23.461 58.303 24.594C58.139 26.038 56.328 29.854 57.156 29.726C57.654 29.648 58.412 25.794 58.666 25.077C58.941 24.297 59.583 23.594 59.39 23.205C61.423 21.788 60.668 23.181 61.02 23.326C61.117 23.365 61.578 23.198 62.228 23.688C62.561 23.345 63.191 22.469 63.495 22.239C63.539 22.205 63.693 22.152 63.737 22.118C64.874 22.201 64.225 23.389 65.427 22.843H65.91C65.239 23.068 64.138 23.531 64.341 24.352C64.563 25.258 66.005 24.939 66.635 25.016C67.818 25.159 69.028 25.111 70.137 25.62C68.074 27.859 70.559 27.772 71.465 28.941C72.006 29.641 72.114 30.631 72.189 30.812C72.844 32.389 73.3 34.092 74 35.642C71.407 33.015 69.547 30.431 65.609 29.846C65.142 29.776 63.563 29.588 63.495 29.967C62.694 29.851 61.885 29.88 61.08 29.967C60.194 30.061 59.347 30.375 58.484 30.571C57.108 30.508 56.545 28.209 51.481 29.605C50.786 29.796 49.457 30.373 48.885 30.812C48.528 30.609 48.308 30.262 48.04 29.967C50.438 31.686 49.414 28.122 49.489 26.767C49.515 26.26 49.808 25.497 49.851 25.077C49.873 24.869 49.706 23.652 49.73 23.507C49.735 23.476 49.993 23.447 50.092 22.964C51.071 21.305 52.097 19.626 53.594 18.375C53.519 18.571 53.155 19.848 53.292 19.945C55.123 18.467 60.402 15.132 62.286 14.511C62.346 14.492 62.462 14.531 62.527 14.511H62.529Z" fill="#0E0C13"/>
<path d="M82.8103 21.633C83.7863 22.244 84.9263 22.956 85.7083 23.807C86.2563 24.403 86.7923 25.306 87.1573 26.04C87.4613 26.241 87.9903 26.39 88.2443 26.584C86.5483 28.668 87.8793 28.134 88.8483 29.723C86.7253 28.108 84.8293 25.999 82.3883 24.772C80.4653 23.809 77.7123 23.15 75.5653 22.841C73.3193 22.007 68.1513 22.092 65.9083 22.841H65.4253C65.4833 22.814 65.8603 22.336 66.4513 22.116C67.1403 21.86 68.9193 21.259 69.6513 21.029C70.6653 20.711 71.7113 20.655 72.7303 20.426C73.8703 20.17 73.8103 19.088 78.8883 20.546C79.2993 20.665 82.0283 22.379 82.8133 21.633H82.8103Z" fill="#613965"/>
<path d="M88.8479 29.7229C89.7559 30.4139 91.1919 31.6139 91.7449 32.0169C87.7459 29.1869 83.7539 29.3679 81.0619 27.9119C78.1399 26.3349 78.7239 24.0139 75.5679 22.8409C77.7149 23.1499 80.4679 23.8089 82.3899 24.7719C84.8309 25.9969 86.7269 28.1049 88.8499 29.7229H88.8479Z" fill="#1A1322"/>
<path d="M84.3801 31.8969C85.1451 32.5289 89.5891 35.7069 90.2361 35.3979C90.3591 35.3379 90.1781 35.3209 90.1761 35.0359C90.4991 35.1569 90.6661 35.5699 90.9001 35.7599C90.3791 36.8689 91.5571 36.5669 91.6251 37.0889C89.5091 36.5139 89.1901 36.6269 86.9761 36.4849C83.0541 34.7119 82.7141 33.2709 85.5871 37.6319C85.4501 37.8879 84.2301 37.1759 84.0181 37.0889C83.9311 37.0519 83.8611 37.0089 83.7761 36.9679C81.7211 34.3479 82.5421 32.4759 78.7051 29.6019C80.0861 30.2709 82.9911 31.6769 84.3801 31.8969Z" fill="#0E0C13"/>
<path d="M77.2579 28.636C77.7649 28.88 78.1879 29.351 78.7069 29.602C82.5439 32.474 81.7229 34.345 83.7789 36.968C83.0149 36.594 82.6869 36.555 82.0879 35.821C80.9459 34.423 80.4919 31.59 74.9039 28.274C73.8239 27.634 72.1219 27.504 72.1869 26.463C74.3889 27.175 75.3189 27.699 77.2579 28.636Z" fill="#FCF9F3"/>
<path d="M91.6249 34.792C89.2559 34.828 90.1729 34.804 90.1759 35.034C90.1779 35.319 90.3589 35.335 90.2359 35.396C89.5909 35.705 85.1449 32.527 84.3799 31.894C86.5339 32.235 88.0699 31.23 91.6249 34.792Z" fill="#613965"/>
<path d="M77.2583 28.6359C75.3193 27.7019 74.3893 27.1749 72.1873 26.4629C71.5473 26.2549 70.8683 26.1559 70.2553 25.8589C70.2363 25.8449 70.3203 25.6009 70.1343 25.6179C69.0283 25.1079 67.8163 25.1559 66.6323 25.0139C70.3203 24.9169 75.5583 24.5579 77.2563 28.6359H77.2583Z" fill="#855874"/>
<path d="M64.5819 17.286C64.5529 16.695 61.6649 18.421 60.7789 18.977C57.7529 20.875 56.2479 22.783 55.9489 22.72C55.5359 22.63 56.1079 21.28 54.5599 21.875C54.5789 21.829 54.2239 22.082 54.8019 21.029C56.4849 17.96 59.7929 16.458 62.5289 14.509C65.5599 13.613 67.8709 14.043 70.8609 14.932C68.6559 15.403 66.5649 16.224 64.5819 17.286Z" fill="#613965"/>
<path d="M77.017 18.977C78.526 19.237 81.453 20.781 82.813 21.633C82.028 22.379 79.299 20.665 78.888 20.546C73.81 19.088 73.87 20.17 72.73 20.426C71.711 20.655 70.665 20.711 69.651 21.029C69.651 20.95 69.685 20.824 69.591 20.788C69.443 20.732 66.608 20.771 66.451 20.788C65.794 20.86 64.304 21.693 63.735 22.116C63.691 22.15 63.536 22.203 63.493 22.237L62.769 21.995C62.911 21.913 64.121 20.73 65.485 20.184C67.236 19.481 71.525 18.754 73.455 18.735C73.723 18.733 76.84 18.945 77.017 18.977Z" fill="#4F2954"/>
<path d="M77.0168 18.977C76.8398 18.945 73.7228 18.733 73.4548 18.735C71.5278 18.754 67.2388 19.481 65.4848 20.184C64.1208 20.73 62.9108 21.913 62.7688 21.995C62.5508 22.121 62.2978 22.191 62.1038 22.358L61.9228 22.176C61.7858 21.375 62.0388 21.024 62.1648 20.546C63.8788 18.856 66.2458 17.9 68.6248 17.648C70.8388 17.414 75.2048 17.665 77.0168 18.977Z" fill="#613965"/>
<path d="M62.288 14.511C60.404 15.132 55.125 18.467 53.295 19.945C53.157 19.848 53.522 18.571 53.597 18.375C54.345 16.419 59.173 13.63 61.204 12.821C61.856 14.108 61.088 14.606 61.747 14.511C61.863 14.494 62.312 13.693 62.29 14.511H62.288Z" fill="#EAC39E"/>
<path d="M63.012 18.614C62.706 19.269 62.356 19.834 62.167 20.546C62.042 21.022 61.788 21.375 61.926 22.176L62.107 22.358C62.3 22.191 62.554 22.121 62.771 21.995L63.495 22.237C63.191 22.466 62.561 23.343 62.228 23.686C61.578 23.196 61.117 23.362 61.02 23.324C60.668 23.179 61.423 21.785 59.39 23.203C59.368 23.217 59.248 23.196 59.149 23.203C59.235 23.036 59.021 22.915 59.028 22.901C59.559 21.952 61.952 19.223 62.831 18.494C62.967 18.38 63.003 18.622 63.012 18.614Z" fill="#371E3D"/>
<path d="M82.689 45.539C86.09 47.149 89.746 48.277 92.83 50.489C96.411 54.768 94.89 54.667 94.52 56.044C94.185 54.756 87.799 50.209 87.336 50.127C87.082 50.081 86.887 50.211 86.913 50.489C85.529 49.224 83.808 48.053 82.808 46.384C82.547 45.949 82.199 45.507 82.687 45.539H82.689Z" fill="#3D6694"/>
<path d="M75.9299 34.671C76.0339 34.828 76.1549 35.022 76.2919 35.154C76.8209 36.282 78.1519 39.207 79.0689 39.863L82.2089 45.237L82.6919 45.539C82.2039 45.507 82.5519 45.949 82.8129 46.384C82.5249 46.563 82.4309 46.918 82.1479 47.108C82.0229 47.193 81.5689 46.828 81.7259 47.591C80.8439 46.442 80.4409 44.995 79.6729 43.788C78.8979 42.571 77.9629 41.696 77.8619 41.554C76.8669 40.134 75.6039 38.864 74.9639 37.207C75.0319 36.666 74.5659 34.901 75.1449 34.671C75.4319 34.558 75.9609 35.239 75.9299 34.671Z" fill="#36527F"/>
<path d="M47.1972 32.86C46.5742 33.628 45.9652 34.473 45.3862 35.275C45.0862 35.191 45.1662 34.968 45.1442 34.913C45.5112 34.468 44.4922 32.694 44.7222 32.619C44.9412 32.749 45.8402 33.952 45.9292 33.947C46.7652 33.896 44.2602 31.923 47.1972 32.86Z" fill="#8C6355"/>
<path d="M48.04 29.965C48.308 30.259 48.528 30.605 48.885 30.81C48.871 30.82 48.755 30.952 48.644 31.051C47.521 30.064 45.794 27.489 48.04 29.965Z" fill="#6A5850"/>
<path d="M42.3669 35.034L42.2459 35.154C42.1839 34.732 42.0849 34.403 42.3669 35.034Z" fill="#5B5256"/>
<path d="M29.4503 70.649V71.494C29.1653 72.045 29.4933 72.617 28.3633 72.219C28.4863 71.132 28.5083 70.0499 28.4843 68.9589C28.7593 68.8669 28.9813 68.316 29.2083 68.536C29.3293 69.234 29.4453 69.937 29.4503 70.649Z" fill="#8FD0DD"/>
<path d="M70.255 25.859C70.335 25.915 71.689 26.999 71.764 27.067C74.317 29.368 75.367 31.906 76.292 35.157C76.155 35.024 76.034 34.831 75.93 34.674C75.276 33.669 72.735 30.559 72.187 30.81C72.112 30.629 72.006 29.639 71.462 28.938C70.557 27.769 68.072 27.859 70.134 25.618C70.32 25.601 70.236 25.845 70.255 25.859Z" fill="#613965"/>
<path d="M75.93 34.6709C75.961 35.2389 75.432 34.5579 75.145 34.6709C74.566 34.9009 75.032 36.6659 74.964 37.2069C74.609 36.7679 74.227 36.1439 73.998 35.6369C73.298 34.0869 72.841 32.3839 72.187 30.8069C72.733 30.5539 75.276 33.6669 75.93 34.6709Z" fill="#464E7B"/>
<path d="M69.6509 21.029C68.9189 21.259 67.1419 21.86 66.4509 22.116C65.8599 22.336 65.4829 22.814 65.4249 22.841C64.2219 23.386 64.8719 22.198 63.7349 22.116C64.3039 21.693 65.7939 20.86 66.4509 20.788C66.6079 20.771 69.4429 20.732 69.5909 20.788C69.6849 20.824 69.6509 20.95 69.6509 21.029Z" fill="#281526"/>
<path d="M54.802 21.029C54.224 22.082 54.579 21.829 54.56 21.875C53.012 25.652 53.329 28.646 53.111 28.938C53.048 29.023 52.418 29.238 52.387 29.18C52.23 28.895 52.932 24.727 53.111 24.108C53.355 23.258 54.483 20.614 54.802 21.029Z" fill="#181F2C"/>
<path d="M59.3901 23.203C59.5831 23.592 58.9412 24.294 58.6662 25.074C58.4142 25.792 57.6541 29.643 57.1561 29.723C56.3281 29.854 58.1392 26.036 58.3032 24.591C58.7432 23.459 59.1101 23.275 59.1491 23.203C59.2481 23.196 59.3681 23.217 59.3901 23.203Z" fill="#0E0C13"/>
<path d="M78.4657 80.067C74.9467 84.296 73.0607 81.42 72.4277 81.939C72.9227 89.594 72.5947 91.183 78.3447 96.245C78.6847 96.545 78.6897 96.472 78.7067 96.487C79.1027 96.822 79.6127 97.527 80.4577 98.177C81.3587 98.87 82.9737 99.044 83.0537 100.471C82.9887 100.452 82.8777 100.491 82.8127 100.471C80.4717 99.771 74.0487 94.161 72.9137 91.959C71.8557 89.913 71.6357 84.294 71.7057 81.879C71.7347 80.918 71.7957 79.932 71.9477 78.981C71.9667 78.546 72.5947 78.268 72.7927 78.015C72.7637 78.657 72.1457 81.154 72.6117 81.516C76.4587 82.881 76.3817 81.07 78.4677 80.067H78.4657Z" fill="#FCF9F3"/>
<path d="M71.7037 81.879C71.6337 84.294 71.8537 89.913 72.9107 91.959C74.0457 94.159 80.4697 99.771 82.8097 100.471C82.8847 102.348 81.9617 103.956 81.3607 105.663C80.2377 106.96 78.8667 108.397 77.3767 109.286C77.1397 109.428 73.9207 110.889 73.3917 111.097C73.4427 110.527 72.6497 111.271 72.8487 110.735C75.6617 109.158 78.8737 108.173 80.9987 105.603C80.9547 105.523 79.7137 105.878 79.5497 105.905C78.4577 106.081 77.3787 106.352 76.2897 106.509C76.0797 106.035 74.2997 105.813 73.3307 105.422C72.7007 105.168 69.2617 103.333 68.8637 103.007C66.3687 100.962 68.1797 95.615 68.4407 92.686C68.4437 92.647 68.1967 92.483 68.1997 92.444C68.2017 92.403 68.5427 92.118 68.5617 91.72C68.5717 91.538 68.3157 91.36 68.3197 90.995C68.3197 90.901 68.7497 91.418 68.4407 89.305C68.2767 89.276 67.3087 89.331 67.0527 89.365C66.2527 89.474 62.9127 90.176 62.4637 90.572C62.3457 90.676 62.5677 90.681 62.5247 90.935C61.9347 90.348 58.2137 88.058 57.0907 87.312C56.4237 86.87 55.8157 86.308 55.1587 85.863C55.2917 85.264 55.7017 85.66 56.2457 85.743C59.7807 86.274 61.8527 87.551 66.2047 85.139C67.8107 84.25 70.5057 81.787 71.5177 80.188L71.6987 81.879H71.7037Z" fill="#621B35"/>
<path d="M73.3936 111.095C70.9426 112.063 69.6746 112.476 66.9946 112.785L67.4776 111.336C69.5176 110.865 72.7036 110.488 71.9446 109.163C74.4516 108.841 77.5886 107.525 79.5516 105.903C79.7166 105.876 80.9576 105.521 81.0006 105.601C78.8756 108.17 75.6666 109.155 72.8506 110.732C72.6526 111.269 73.4446 110.525 73.3936 111.095Z" fill="#9F4753"/>
<path d="M41.763 106.506C41.853 106.542 41.918 106.588 42.005 106.627C42.126 106.683 43.454 107.665 44.239 108.076C46.352 109.182 50.882 111.433 53.111 111.578L54.198 112.664C54.106 112.674 54.065 112.681 54.077 112.785C49.035 112.184 44.328 109.431 40.314 106.385C40.609 106.221 41.476 106.393 41.763 106.506Z" fill="#9F4753"/>
<path d="M38.6239 98.298C38.5799 98.684 38.5149 98.986 38.5029 99.385C38.4719 100.387 38.4429 100.792 38.7449 101.8C38.3659 103.12 39.6159 104.386 40.1939 105.422C40.8289 106.564 40.3509 105.733 40.1939 106.267C39.5439 105.765 38.9739 105.627 38.3819 104.879C37.0709 103.224 36.5229 100.38 37.6579 98.539C37.8829 98.175 38.2159 97.984 38.5029 97.694C38.7949 97.595 38.6649 97.938 38.6239 98.298Z" fill="#181F2C"/>
<path d="M66.9948 112.785C63.4908 113.188 57.5667 113.203 54.0767 112.785C54.0647 112.681 54.1057 112.674 54.1977 112.664C55.5617 112.505 58.5347 113.068 60.1747 112.906C60.2687 112.896 60.2007 112.676 60.2957 112.664C61.4257 112.534 61.8027 112.399 62.4087 112.302C64.1087 112.029 65.7988 111.725 67.4798 111.336L66.9967 112.785H66.9948Z" fill="#AC4F4F"/>
<path d="M41.5218 105.782C41.6618 105.944 41.9468 105.835 41.7628 106.506C41.4778 106.393 40.6088 106.221 40.3138 106.385C40.2008 106.299 40.2008 106.27 40.1938 106.265C40.3508 105.731 40.8288 106.562 40.1938 105.42C40.5988 105.743 40.9828 106.12 41.5218 105.782Z" fill="#4C1B24"/>
<path d="M51.0579 50.245C48.6119 49.188 43.3719 49.185 42.7869 52.54C42.1999 52.511 41.7009 52.226 41.1569 52.057C40.9519 51.994 40.8429 51.658 40.5529 51.875C39.2689 59.871 42.5409 65.484 48.4619 70.528C48.8419 70.63 49.2499 70.739 49.6099 70.891V71.977C49.4189 71.973 49.2129 71.939 49.1269 72.038C50.7739 77.916 50.4449 79.78 55.0429 83.808C55.5499 84.253 56.0689 84.723 56.4919 85.257C56.4529 85.252 56.4099 85.264 56.3709 85.257C55.4969 85.11 54.3769 84.806 53.5939 84.412C52.4739 83.849 48.6099 80.695 47.5569 79.703C47.5179 79.667 47.4799 79.623 47.4359 79.582C42.2219 74.59 41.1599 71.349 40.0699 64.25C40.0509 64.064 39.9859 63.844 39.9499 63.646C39.9259 63.52 39.6939 63.153 39.5869 62.921C39.5459 62.834 39.6529 61.856 38.3799 61.714C38.7659 61.04 39.1429 61.538 39.2249 60.869C39.2709 60.485 39.1819 60.048 39.2249 59.661C39.2899 59.07 39.4259 58.442 39.4669 57.85C39.6869 54.645 39.5459 51.388 39.9499 48.193C40.3549 47.775 40.2589 48.871 41.3379 48.796C41.5219 48.784 44.2629 47.471 44.7189 47.347C45.3079 47.188 46.8029 47.355 46.8319 46.864C47.7259 47.42 51.4349 49.06 50.0919 49.702L51.0579 50.245Z" fill="#D57F62"/>
<path d="M83.0518 100.471C83.1888 100.51 83.4158 100.401 83.5348 100.532C83.6508 100.727 83.3868 102.538 83.2928 102.886C82.9188 104.265 82.0158 104.908 81.3608 105.663C81.9618 103.956 82.8848 102.348 82.8098 100.471C82.8748 100.491 82.9858 100.452 83.0518 100.471Z" fill="#181F2C"/>
<path d="M77.9828 48.074C78.2188 51.938 78.6028 55.85 79.5518 59.603C79.4458 60.654 79.4438 61.757 79.3108 62.803C79.0808 64.612 77.8228 70.144 77.1368 71.796C76.1038 74.288 74.4038 75.948 72.7908 78.015C72.5928 78.268 71.9648 78.546 71.9448 78.981C71.3388 78.722 70.1648 80.649 68.8658 81.758C67.0478 83.311 64.7538 84.535 62.4058 85.018C62.9858 84.318 62.9638 83.69 63.0098 83.629C63.2928 83.265 67.2918 81.995 69.7718 77.592C70.1968 76.783 69.9358 76.368 70.4958 76.022C70.6728 73.284 71.8148 70.422 71.9448 67.63C73.7278 66.785 77.2048 59.862 76.4128 56.585C74.6278 55.565 72.4648 55.718 70.4958 55.317C70.4818 55.155 70.8678 55.223 71.3418 55.075C72.6308 54.672 74.5678 53.03 75.3258 51.875C75.2298 51.535 71.3628 50.047 70.8588 50.004V49.883C73.0468 50.03 75.4978 51.641 75.7488 51.574C76.6538 51.33 72.9228 49.675 71.8248 49.521C72.3408 48.753 71.8988 49.035 71.9448 48.736C72.1118 47.63 72.5368 46.55 72.5488 45.415C74.6108 45.638 76.3448 46.891 77.9828 48.072V48.074Z" fill="#621B35"/>
<path d="M71.945 78.9811C71.793 79.9321 71.733 80.9181 71.704 81.8791L71.523 80.1881C70.511 81.7871 67.816 84.2481 66.21 85.1391C61.858 87.5511 59.784 86.2741 56.251 85.7431L56.371 85.2601C56.41 85.2671 56.453 85.2551 56.492 85.2601C58.48 85.5541 60.426 85.4261 62.409 85.0181C64.756 84.5351 67.05 83.3111 68.869 81.7581C70.168 80.6491 71.342 78.7221 71.948 78.9811H71.945Z" fill="#34121F"/>
<path d="M76.2921 106.506C71.8831 107.141 69.8541 106.866 66.0311 104.574C66.0051 104.56 65.6951 104.108 65.6691 104.091C64.9351 101.326 62.7401 99.409 61.0801 97.209C61.1001 96.603 61.0681 96.267 61.2011 95.639C61.4071 94.659 62.4691 92.487 63.0121 91.473C63.0051 91.198 62.6841 91.082 62.5291 90.93C62.5731 90.676 62.3511 90.671 62.4691 90.568C62.9181 90.172 66.2581 89.469 67.0571 89.36C67.3131 89.326 68.2791 89.271 68.4461 89.3C68.7551 91.41 68.3251 90.894 68.3251 90.99C68.3201 91.355 68.5761 91.534 68.5671 91.715C68.5471 92.113 68.2071 92.398 68.2051 92.439C68.2021 92.478 68.4481 92.642 68.4461 92.681C68.1851 95.61 66.3741 100.959 68.8691 103.002C69.2671 103.328 72.7041 105.161 73.3361 105.417C74.3051 105.808 76.0851 106.03 76.2951 106.504L76.2921 106.506Z" fill="#621B35"/>
<path d="M76.2917 106.506C77.3807 106.349 78.4607 106.081 79.5517 105.903C77.5907 107.525 74.4537 108.841 71.9447 109.163C70.4917 109.349 67.5107 109.428 66.2697 108.559C65.2747 107.861 65.4437 106.861 65.3037 106.506C66.0527 106.115 65.3957 104.823 66.0287 104.574C69.8517 106.866 71.8827 107.141 76.2897 106.506H76.2917Z" fill="#9F4753"/>
<path d="M62.5287 90.9321C62.6837 91.0841 63.0047 91.2001 63.0117 91.4761C62.4687 92.4871 61.4067 94.6611 61.2007 95.6411C61.7327 92.7461 58.0257 89.9401 57.0957 87.3101C58.2187 88.0561 61.9397 90.3451 62.5287 90.9321Z" fill="#9F4753"/>
<path d="M53.5939 84.4141C54.3769 84.8081 55.4969 85.1101 56.3709 85.2601L56.2509 85.7431C55.7069 85.6601 55.2969 85.2641 55.1639 85.8631C54.5699 85.4601 53.8429 85.1971 53.2319 84.7771L53.5939 84.4141Z" fill="#621B35"/>
<path d="M71.9448 109.163C72.7038 110.488 69.5178 110.865 67.4778 111.336C65.7988 111.725 64.1058 112.029 62.4058 112.302C63.3308 111.29 66.6608 109.699 66.2698 108.559C67.5108 109.428 70.4918 109.349 71.9448 109.163Z" fill="#AC4F4F"/>
<path d="M53.1109 111.578C50.8819 111.433 46.3489 109.182 44.2389 108.076C43.4539 107.665 42.1259 106.683 42.0049 106.627C42.1519 106.639 42.1139 106.528 42.1259 106.506C45.3449 107.153 48.6309 107.492 51.9039 107.714C52.0339 108.064 53.6379 109.585 54.0769 108.861C54.1929 106.919 54.1089 107.272 52.1449 106.868C50.6719 106.564 48.7229 106.468 47.1949 106.385C46.9919 105.591 50.2199 105.313 51.4209 104.635C51.6379 103.872 50.6499 97.81 50.9979 97.812C51.8629 99.844 52.7279 101.877 53.5939 103.91C54.6039 108.404 57.8899 111.887 53.1109 111.578Z" fill="#D57F62"/>
<path d="M65.666 104.091C65.084 103.731 63.911 103.041 63.252 103.246C62.928 102.852 62.566 103.147 61.803 101.374C61.237 100.061 61.032 98.619 61.078 97.209C62.735 99.409 64.932 101.326 65.666 104.091Z" fill="#9F4753"/>
<path d="M47.1969 106.385C48.7259 106.468 50.6739 106.564 52.1479 106.868C51.8869 107.262 51.7469 107.277 51.9059 107.714C48.6339 107.492 45.3469 107.153 42.1279 106.506C42.4299 105.999 46.3519 106.34 47.1989 106.385H47.1969Z" fill="#EB996B"/>
<path d="M65.666 104.091C65.693 104.108 66.002 104.56 66.029 104.574C65.396 104.823 66.053 106.115 65.304 106.506C64.797 105.217 64.964 104.905 63.252 103.246C63.911 103.041 65.084 103.731 65.666 104.091Z" fill="#AC4F4F"/>
<path d="M53.2321 84.7771C53.8431 85.1971 54.5701 85.4601 55.1641 85.8631C55.8211 86.3081 56.4291 86.8701 57.0961 87.3121C58.0261 89.9401 61.7331 92.7481 61.2011 95.6441C61.0681 96.2721 61.1001 96.6071 61.0801 97.2141C61.0351 98.6241 61.2401 100.066 61.8051 101.379C62.5681 103.149 62.9281 102.857 63.2541 103.251C64.9661 104.91 64.7991 105.221 65.3071 106.511C65.4471 106.866 65.2781 107.866 66.2731 108.564C66.6641 109.704 63.3341 111.295 62.4091 112.307C61.8031 112.404 61.4261 112.539 60.2961 112.669C60.2011 112.681 60.2691 112.901 60.1751 112.911C58.5351 113.072 55.5651 112.51 54.1981 112.669L53.1111 111.582C57.8901 111.892 54.6041 108.409 53.5941 103.915C52.7301 101.883 51.8641 99.8511 50.9981 97.8171C50.6501 97.8121 51.6381 103.874 51.4211 104.639C50.2201 105.318 46.9921 105.596 47.1951 106.39C46.3471 106.344 42.4251 106.004 42.1231 106.511C42.1111 106.533 42.1501 106.644 42.0021 106.632C41.9151 106.593 41.8501 106.547 41.7611 106.511C41.9441 105.84 41.6601 105.948 41.5191 105.787C40.6981 104.847 39.4381 104.123 38.7421 101.802C38.4401 100.795 38.4691 100.389 38.5011 99.3871C40.8021 96.6851 44.9531 94.5311 46.4701 91.2371C47.5281 88.9381 48.0471 82.9171 47.7981 80.4321C49.4311 82.2241 51.2691 83.4311 53.2321 84.7791V84.7771Z" fill="#D57F62"/>
<path d="M53.5941 84.4141L53.2321 84.7771C51.2711 83.4291 49.4331 82.2221 47.7981 80.4301C47.7551 79.9851 47.6081 80.0311 47.5571 79.7051C48.6071 80.6981 52.4741 83.8521 53.5941 84.4141Z" fill="#7C2F2E"/>
<path d="M41.5221 105.782C40.9831 106.12 40.5991 105.743 40.1941 105.42C39.6161 104.384 38.3661 103.118 38.7451 101.797C39.4401 104.115 40.7011 104.842 41.5221 105.782Z" fill="#7C3843"/>
<path d="M64.6432 108.197C67.2702 109.39 64.1722 108.834 63.0122 108.74L64.6432 108.197Z" fill="#F9D9B5"/>
<path d="M58.0621 60.388C57.4001 60.649 56.3911 62.194 57.3371 62.924L57.5181 63.286C56.5451 63.267 56.3451 62.622 55.5261 62.924C55.3331 62.994 54.6231 63.443 54.5601 63.648C54.2581 63.665 54.1381 63.47 53.9561 63.286C56.5261 61.074 55.6321 60.692 53.5941 62.682C53.1811 62.112 52.9981 62.405 52.9901 63.045C51.5701 64.501 49.9451 66.9471 50.0921 69.021C50.1311 69.5721 50.6141 70.543 50.6961 71.135C50.3611 71.033 49.9401 71.031 49.6101 70.893C49.2501 70.741 48.8421 70.632 48.4621 70.531C42.5431 65.486 39.2711 59.874 40.5531 51.878C40.8431 51.66 40.9521 51.994 41.1571 52.059C42.4251 53.684 43.5941 52.525 44.7801 53.87C44.8691 53.972 44.6401 54.938 46.7721 55.198C48.1701 55.367 51.6571 54.578 53.1111 54.112C53.4151 54.015 53.5121 54.121 54.1981 53.749C54.9591 53.336 56.7461 51.47 56.8541 50.61C56.8691 50.494 56.8541 50.366 56.8541 50.248C58.6901 53.578 57.6131 58.809 57.8201 59.965C57.8251 59.99 58.0281 60.241 58.0621 60.388Z" fill="#EB996B"/>
<path d="M71.945 67.633C71.815 70.425 70.673 73.284 70.496 76.025C69.936 76.37 70.197 76.786 69.772 77.595C67.292 81.997 63.293 83.267 63.01 83.632C62.964 83.692 62.986 84.318 62.406 85.02C60.424 85.429 58.48 85.554 56.49 85.262C56.067 84.728 55.55 84.26 55.041 83.813C56.888 83.837 58.796 83.685 60.595 83.209C62.95 82.586 63.073 82.726 62.286 81.277C61.085 79.065 58.344 78.746 56.248 77.655C61.725 79.01 65.256 76.312 67.837 71.738C68.089 71.294 68.439 70.842 68.562 70.35C68.521 70.28 67.166 70.717 66.992 70.772C66.992 70.627 66.874 70.707 66.751 70.531C66.379 70.004 65.055 68.604 64.577 68.418C64.227 67.853 66.326 67.891 65.543 66.486C66.601 64.947 66.872 65.568 66.992 65.399C67.4 64.822 65.507 63.371 66.147 62.682C67.074 64.269 69.052 67.312 70.917 67.754C71.602 67.915 71.764 67.717 71.943 67.633H71.945Z" fill="#7C3843"/>
<path d="M49.61 71.977C49.677 71.977 50.022 72.19 50.334 72.219C51.334 73.752 52.635 75.073 54.077 76.204C55.009 76.935 55.13 77.07 56.251 77.652C58.344 78.742 61.088 79.063 62.288 81.275C61.687 81.925 60.689 82.267 60.597 83.207C58.798 83.683 56.891 83.835 55.043 83.811C50.445 79.782 50.776 77.918 49.127 72.04C49.213 71.941 49.419 71.975 49.61 71.98V71.977Z" fill="url(#paint5_linear_81_1331)"/>
<path d="M54.0771 47.7121C54.0391 47.9581 53.9731 47.9901 53.9561 48.0741C53.9301 48.2121 53.7491 48.4121 53.7151 48.5571C53.6571 48.8081 53.3021 49.2171 53.3531 49.7041C53.4201 50.3661 54.8111 51.0981 54.1981 53.7491C53.5121 54.1211 53.4151 54.0151 53.1111 54.1121C52.9111 53.4431 53.0851 53.2231 52.6281 52.4211L52.7491 52.1801C53.8981 53.2761 53.1841 51.1681 51.0581 50.2481L50.0921 49.7041C51.4351 49.0621 47.7261 47.4221 46.8321 46.8671C46.4651 46.6371 46.0671 46.5071 45.7461 46.2031L46.3491 46.0221C49.0131 46.1981 51.5321 46.9781 54.0771 47.7121Z" fill="#D57F62"/>
<path d="M41.4007 46.7461C41.2897 46.8841 40.5607 47.9371 40.5557 48.0141C40.4757 49.0351 42.5717 46.1881 44.2387 45.9011C44.9317 45.7821 45.6677 45.9761 46.3517 46.0221L45.7477 46.2031C46.0687 46.5071 46.4677 46.6371 46.8347 46.8671C46.8057 47.3571 45.3127 47.1901 44.7217 47.3501C44.2647 47.4731 41.5237 48.7871 41.3407 48.7991C40.2607 48.8741 40.3577 47.7771 39.9517 48.1951C40.2437 45.8721 40.2227 45.3721 41.8837 43.4861C42.8157 44.3411 41.1927 45.7801 41.4007 46.7461Z" fill="#EB996B"/>
<path d="M67.357 54.3511C68.067 54.8651 69.588 55.1311 70.496 55.3171C72.462 55.7181 74.628 55.5651 76.413 56.5851C77.205 59.8621 73.728 66.7851 71.945 67.6301C71.767 67.7151 71.605 67.9131 70.919 67.7511C69.055 67.3091 67.077 64.2661 66.149 62.6801C63.585 58.2941 64.802 59.0891 64.338 55.7371C64.302 55.4711 63.561 55.0321 63.976 54.1071C64.056 54.1121 64.138 54.1021 64.217 54.1071C65.179 54.1721 65.135 53.9841 65.183 53.9861C65.898 54.0221 66.654 54.1991 67.357 54.3481V54.3511Z" fill="url(#paint6_linear_81_1331)"/>
<path d="M70.8589 43.2441C72.7949 43.3391 74.2349 43.7811 75.8089 44.9351C77.2269 45.9731 78.6999 48.3181 78.8279 47.7121C78.8739 48.0361 78.9049 48.3591 78.9489 48.6781C78.5939 48.6151 78.2749 48.2841 77.9829 48.0741C76.3449 46.8931 74.6109 45.6401 72.5489 45.4181C71.2569 45.2781 69.7329 45.4661 68.4439 45.6591C66.6279 45.9301 64.9229 46.6231 63.1309 46.9881C63.1449 46.9081 62.8579 45.9521 63.0099 45.3571C63.4469 43.6501 69.3929 43.1721 70.8589 43.2441Z" fill="#0E0C13"/>
<path d="M72.549 45.4181C72.537 46.5531 72.112 47.6321 71.945 48.7381C71.899 49.0381 72.341 48.7551 71.825 49.5231C71.515 49.4801 71.086 49.5351 70.738 49.5231C70.634 48.9121 71.542 45.8671 71.281 45.7801C67.487 46.7221 68.393 49.4631 67.478 48.6781C67.874 47.7241 68.296 46.6911 68.444 45.6591C69.733 45.4661 71.257 45.2781 72.549 45.4181Z" fill="#9F4753"/>
<path d="M70.7379 49.5231C71.0859 49.5351 71.5149 49.4801 71.8249 49.5231C72.9209 49.6781 76.6539 51.3321 75.7489 51.5761C75.4979 51.6441 73.0489 50.0331 70.8589 49.8851C69.6699 49.8061 67.1639 50.2571 66.1489 50.8511V50.6101C66.5869 50.4171 66.8329 50.1411 66.8739 50.1271C68.4239 49.6151 69.0719 49.4601 70.7379 49.5231Z" fill="#34121F"/>
<path d="M81.7258 47.591C81.9768 48.813 83.9208 50.412 84.8648 51.214C84.5678 51.593 85.2538 52.119 85.5898 52.482L85.3478 52.602C85.7178 54.65 85.4518 55.599 85.4688 55.802L85.1068 55.923C85.1018 55.817 85.3598 54.655 85.2278 53.81C85.2228 53.781 84.9758 53.783 84.8648 53.327C84.7998 53.059 84.9908 52.984 84.9858 52.965C84.8388 52.494 82.7998 49.559 82.3898 49.644C80.9768 51.057 80.8248 54.947 81.8468 56.587L79.6728 58.519C80.3318 56.208 79.3538 51.624 78.9488 48.68C78.9048 48.362 78.8738 48.038 78.8278 47.714C78.5408 45.657 78.3708 43.58 77.8618 41.556C77.9628 41.699 78.8978 42.573 79.6728 43.79C80.4408 44.998 80.8438 46.444 81.7258 47.594V47.591Z" fill="#0E0C13"/>
<path d="M79.4321 62.8031C79.5931 62.8391 79.6661 62.7381 79.7941 62.6821C79.9481 62.6151 80.8081 62.1441 80.8811 62.2601C80.4101 63.3081 80.2021 63.9981 79.4321 62.8031Z" fill="#AC4F4F"/>
<path d="M78.9489 48.6781C79.3539 51.6221 80.3319 56.2051 79.6729 58.5161L81.8469 56.5851C80.8249 54.9471 80.9769 51.0571 82.3899 49.6421C82.7999 49.5571 84.8359 52.4911 84.9859 52.9621C84.9909 52.9811 84.7999 53.0561 84.8649 53.3241C84.9759 53.7811 85.2229 53.7781 85.2279 53.8071C85.3599 54.6531 85.1019 55.8141 85.1069 55.9201V56.0411C84.9979 56.6761 83.1409 60.0931 83.1749 60.3281C83.2159 60.6201 84.2569 60.2461 83.6579 62.0791C83.4689 62.6561 82.5609 63.7571 82.0879 64.2521H81.0009C81.1529 62.3761 82.7959 61.5181 81.7859 61.4751C81.4089 61.4581 79.7209 62.1031 79.7939 62.6821C79.6659 62.7381 79.5929 62.8391 79.4319 62.8031H79.3109C79.4439 61.7571 79.4459 60.6541 79.5519 59.6031C78.6029 55.8501 78.2189 51.9381 77.9829 48.0741C78.2749 48.2841 78.5939 48.6151 78.9489 48.6781Z" fill="#621B35"/>
<path d="M82.6308 51.2111C83.8488 52.1191 84.3848 53.8071 84.1408 55.2561C84.0078 56.0411 81.3758 60.4851 79.9748 60.2671C79.3908 60.1921 82.0828 56.9851 82.3298 56.4641C83.3508 54.2901 82.4088 53.3361 82.6308 51.2111Z" fill="#281526"/>
<path d="M61.0799 29.965C62.8239 30.443 64.1379 32.005 65.1859 33.406C66.3859 35.007 70.0859 41.165 70.8609 43.244C69.3949 43.172 63.4499 43.65 63.0119 45.357C62.8599 45.952 63.1479 46.908 63.1329 46.988C63.0629 47.355 60.9959 50.489 60.2349 53.87C59.3249 57.922 60.0489 58.62 60.1149 60.511C59.7839 60.366 59.6409 60.543 59.5109 60.511C59.3249 60.465 59.3269 60.262 59.0279 60.27C59.1269 57.125 59.3729 51.938 57.2169 49.465C56.0479 48.125 56.8469 49.687 56.8539 50.25C56.8539 50.368 56.8689 50.496 56.8539 50.612C56.6799 50.557 56.5719 50.405 56.4919 50.25C55.8809 49.067 55.0819 48.69 53.9559 48.077C53.9729 47.992 54.0389 47.961 54.0769 47.714C54.1159 47.468 54.0649 47.14 54.0769 46.869C54.5819 46.959 54.1809 45.604 54.3189 44.635C54.3739 44.247 54.9369 42.858 55.0429 41.617C55.2219 39.513 55.1079 33.985 52.3259 33.587C46.7139 32.783 45.0499 41.218 43.4539 44.935C43.1279 45.164 41.5969 46.505 41.4009 46.746C41.1929 45.78 42.8159 44.341 41.8839 43.486C41.7299 42.044 41.9949 40.658 42.1259 39.26C42.6129 40.38 43.2219 38.328 43.5749 37.811C44.1539 36.961 44.7819 36.111 45.3859 35.275C45.9649 34.473 46.5739 33.628 47.1969 32.86C47.6099 32.353 48.2499 31.402 48.6459 31.049C48.7569 30.95 48.8729 30.817 48.8869 30.807C49.4599 30.368 50.7859 29.793 51.4829 29.6C56.5479 28.204 57.1079 30.503 58.4869 30.566C59.3489 30.37 60.1969 30.056 61.0829 29.962L61.0799 29.965Z" fill="url(#paint7_linear_81_1331)"/>
<path d="M45.1437 34.9131C45.1657 34.9681 45.0857 35.1881 45.3857 35.2751C44.7817 36.1081 44.1537 36.9611 43.5747 37.8111C42.9227 37.5521 43.2067 37.2991 43.2117 37.2071C43.2237 36.9991 43.6227 35.2871 43.6947 35.2151C43.8157 35.0941 43.9707 35.4201 43.9967 35.3961C44.3277 35.1061 43.1947 33.0821 42.9707 32.6791C43.6227 33.2051 44.8927 34.2581 45.1437 34.9131Z" fill="#BD7F5F"/>
<path d="M43.212 37.2071C43.207 37.2991 42.923 37.5521 43.575 37.8111C43.222 38.3281 42.616 40.3801 42.126 39.2601C42.188 38.5931 42.763 38.5811 42.246 35.1541L42.367 35.0341C42.657 35.6811 42.814 36.5981 43.212 37.2071Z" fill="#EB996B"/>
<path d="M51.9038 107.714C51.7438 107.277 51.8838 107.262 52.1448 106.868C54.1088 107.272 54.1928 106.919 54.0768 108.861C53.6378 109.585 52.0338 108.064 51.9038 107.714Z" fill="#E2B08F"/>
<path d="M56.4917 50.2451C56.5717 50.4001 56.6797 50.5521 56.8537 50.6081C56.7457 51.4671 54.9607 53.3341 54.1977 53.7471C54.8107 51.0951 53.4197 50.3641 53.3527 49.7021C53.3017 49.2141 53.6567 48.8061 53.7147 48.5551C54.8137 49.0161 56.0617 50.5421 56.4917 50.2451Z" fill="#D57F62"/>
<path d="M60.1149 60.509C60.1649 61.97 60.2259 63.861 58.4239 64.252C57.9429 64.356 57.5549 64.281 57.0959 64.131C56.4369 63.919 55.9249 63.484 55.5259 62.924C56.3419 62.622 56.5449 63.267 57.5179 63.286L57.3369 62.924C58.3369 63.694 60.1429 61.596 59.5109 60.509C59.6409 60.54 59.7839 60.364 60.1149 60.509Z" fill="#D57F62"/>
<path d="M59.028 60.2671C58.909 60.2701 58.108 60.3711 58.062 60.3881C58.028 60.2411 57.825 59.9901 57.82 59.9651C57.613 58.8091 58.69 53.5761 56.854 50.2481C56.847 49.6851 56.048 48.1231 57.217 49.4631C59.373 51.9381 59.127 57.1251 59.028 60.2671Z" fill="#EAC39E"/>
<path d="M59.0281 60.267C59.3271 60.26 59.3251 60.463 59.5111 60.509C60.1431 61.596 58.3401 63.694 57.3371 62.924C56.3911 62.194 57.4001 60.649 58.0621 60.388C58.1081 60.371 58.9091 60.27 59.0281 60.267Z" fill="#F4E5BF"/>
<path d="M57.096 64.1311L56.734 64.8561C56.647 64.8271 56.48 64.8801 56.371 64.8561C55.78 64.7161 55.28 64.7081 54.681 64.7351C54.599 64.4431 54.478 63.9211 54.56 63.6481C54.623 63.4431 55.333 62.9961 55.526 62.9241C55.925 63.4841 56.437 63.9191 57.096 64.1311Z" fill="#34121F"/>
<path d="M52.9898 63.045C52.9828 63.747 54.3258 65.87 55.2848 65.641C55.0618 65.358 54.7818 65.092 54.6808 64.735C55.2798 64.708 55.7768 64.716 56.3708 64.856C55.7388 65.216 56.1708 65.752 55.7678 66.607C55.4578 67.259 53.8958 68.292 54.3188 69.082C53.7368 69.343 51.6358 70.739 50.9378 71.255C50.6068 71.168 50.7078 71.139 50.6958 71.135C50.6138 70.543 50.1308 69.572 50.0918 69.021C49.9448 66.947 51.5698 64.501 52.9898 63.045Z" fill="#F6BB85"/>
<path d="M53.5938 62.6821C53.6158 62.7111 53.5118 62.8341 53.9558 63.2861C54.1378 63.4701 54.2578 63.6651 54.5598 63.6481C54.4778 63.9191 54.5988 64.4431 54.6808 64.7351C54.7818 65.0921 55.0618 65.3581 55.2848 65.6411C54.3258 65.8701 52.9828 63.7471 52.9898 63.0451C52.9978 62.4051 53.1808 62.1121 53.5938 62.6821Z" fill="#B6623F"/>
<path d="M53.9557 63.2861C53.5117 62.8341 53.6157 62.7111 53.5938 62.6821C55.6318 60.6921 56.5257 61.0741 53.9557 63.2861Z" fill="#F4E5BF"/>
<path d="M62.2877 81.275C63.0747 82.724 62.9517 82.584 60.5967 83.207C60.6887 82.267 61.6867 81.925 62.2877 81.275Z" fill="#C0675C"/>
<path d="M54.0769 46.867C54.0649 47.137 54.1159 47.466 54.0769 47.712C51.5339 46.978 49.0129 46.198 46.3489 46.022C45.6659 45.976 44.9289 45.782 44.2359 45.901C42.5719 46.186 40.4739 49.035 40.5529 48.014C40.5579 47.939 41.2879 46.884 41.3989 46.746C41.5939 46.505 43.1249 45.164 43.4509 44.935C45.1709 43.73 46.2739 43.718 48.4619 43.727C49.1509 43.73 53.6519 44.162 53.9559 44.512C54.1419 45.222 54.1089 46.128 54.0769 46.867Z" fill="#181F2C"/>
<path d="M56.4918 50.245C56.0648 50.542 54.8158 49.016 53.7148 48.555C53.7488 48.41 53.9298 48.21 53.9558 48.072C55.0818 48.685 55.8788 49.062 56.4918 50.245Z" fill="#D57F62"/>
<path d="M66.149 50.608V50.849C65.408 51.284 63.913 53.051 64.217 53.988V54.109C64.138 54.104 64.056 54.114 63.976 54.109C63.553 54.085 63.394 53.996 63.252 53.988C63.923 50.419 64.831 51.194 66.149 50.608Z" fill="#621B35"/>
<path d="M63.4946 29.9651C64.3786 30.0931 65.9096 30.6071 66.6946 31.0511C68.9116 32.3071 74.9126 41.9521 75.8086 44.9351C74.2346 43.7811 72.7946 43.3411 70.8586 43.2441C70.0826 41.1631 66.3836 35.0071 65.1826 33.4061C64.1346 32.0081 62.8216 30.4431 61.0776 29.9651C61.8816 29.8781 62.6906 29.8491 63.4926 29.9651H63.4946Z" fill="#7C3843"/>
<path d="M73.9976 35.637C74.2266 36.144 74.6086 36.768 74.9636 37.207C75.6036 38.864 76.8666 40.134 77.8616 41.554C78.3706 43.578 78.5406 45.655 78.8276 47.712C78.6996 48.318 77.2266 45.973 75.8086 44.935C74.9106 41.95 68.9096 32.307 66.6946 31.051C65.9096 30.607 64.3786 30.093 63.4946 29.965C63.5626 29.585 65.1416 29.774 65.6086 29.844C69.5446 30.428 71.4036 33.012 73.9996 35.64L73.9976 35.637Z" fill="#571038"/>
<path d="M68.4439 45.6591C68.2959 46.6911 67.8739 47.7221 67.4779 48.6781C67.2819 49.1471 66.9749 49.6131 66.8739 50.1271C66.8329 50.1411 66.5869 50.4171 66.1489 50.6101C64.8329 51.1941 63.9229 50.4221 63.2519 53.9911C62.2419 53.9401 61.2469 53.8531 60.2329 53.8701C60.9909 50.4921 63.0609 47.3571 63.1309 46.9881C64.9229 46.6231 66.6279 45.9301 68.4439 45.6591Z" fill="#7C3843"/>
<path d="M70.738 49.523C69.072 49.46 68.424 49.615 66.874 50.127C66.975 49.613 67.282 49.147 67.478 48.678C68.393 49.463 67.485 46.722 71.281 45.78C71.542 45.867 70.634 48.912 70.738 49.523Z" fill="#AC4F4F"/>
<path d="M54.0767 46.867C54.1087 46.13 54.1417 45.225 53.9557 44.512C53.6547 44.162 49.1507 43.73 48.4617 43.727C46.2737 43.718 45.1727 43.727 43.4507 44.935C45.0477 41.216 46.7137 32.783 52.3237 33.587C55.1027 33.985 55.2187 39.513 55.0407 41.617C54.9337 42.858 54.3717 44.247 54.3157 44.635C54.1787 45.604 54.5787 46.959 54.0747 46.869L54.0767 46.867Z" fill="#EAC39E"/>
<path d="M56.7337 64.8561C56.8327 64.8901 57.6797 65.6841 58.3027 65.9421C58.0907 67.8331 58.5757 67.7561 56.8537 68.3571C56.0207 68.6471 55.1447 68.7121 54.3187 69.0821C53.8957 68.2921 55.4577 67.2591 55.7677 66.6071C56.1707 65.7521 55.7387 65.2161 56.3707 64.8561C56.4797 64.8801 56.6467 64.8271 56.7337 64.8561Z" fill="#EB996B"/>
<path d="M51.0577 50.245C53.1837 51.163 53.8977 53.271 52.7487 52.177C50.2127 49.765 48.6767 49.712 45.2017 50.608C43.5117 51.689 46.0667 50.477 47.1337 50.366C47.8467 50.291 48.5417 50.388 49.2467 50.487C48.4067 50.9 49.0877 50.847 50.0917 51.453C49.7997 51.849 49.9037 52.226 49.7297 52.66C49.5387 52.667 49.6257 52.431 49.6097 52.177C49.5557 51.409 48.8867 51.52 49.0057 52.177C48.4907 51.887 49.1577 50.789 47.9787 51.091C47.2977 51.264 47.5447 51.914 47.6777 52.54C46.9357 51.656 48.0417 51.153 46.8317 51.694C46.5007 51.842 45.0547 52.39 45.0207 52.721C45.4897 53.757 46.1587 54.102 47.1947 54.351C46.4917 54.86 45.5547 53.783 44.7797 53.868C43.5937 52.523 42.4267 53.682 41.1567 52.057C41.7007 52.226 42.1997 52.511 42.7867 52.54C43.3687 49.185 48.6097 49.188 51.0577 50.245Z" fill="#221517"/>
<path d="M52.7489 52.177L52.6279 52.419C52.2929 51.83 51.4209 51.262 50.8169 50.97C50.2449 50.692 49.8799 50.574 49.2469 50.487C48.5419 50.388 47.8469 50.291 47.1339 50.366C46.0669 50.477 43.5139 51.689 45.2019 50.608C48.6769 49.712 50.2129 49.765 52.7489 52.177Z" fill="#C19980"/>
<path d="M47.6777 52.54C48.0807 54.442 48.7257 52.919 48.8247 52.902C49.0197 52.868 49.2617 53.839 49.7297 52.66C49.9037 52.226 49.7997 51.849 50.0917 51.453C50.1117 51.465 50.2977 51.45 50.4547 51.574C51.2177 52.172 50.5707 53.996 49.5487 54.351C49.4447 54.387 48.0807 54.488 47.7977 54.471C46.9047 53.66 46.5907 52.897 46.8317 51.694C48.0397 51.153 46.9357 51.656 47.6777 52.54Z" fill="#392227"/>
<path d="M46.8349 51.694C46.5929 52.897 46.9069 53.66 47.8009 54.471C47.3319 54.442 47.3059 54.377 47.1969 54.351C46.1609 54.102 45.4919 53.757 45.0239 52.721C45.0569 52.39 46.5039 51.842 46.8349 51.694Z" fill="#FCF9F3"/>
<path d="M49.0056 52.177C49.2636 52.322 49.3436 52.358 49.6096 52.177C49.6256 52.431 49.5386 52.667 49.7296 52.66C49.2616 53.839 49.0196 52.868 48.8246 52.902C48.7256 52.919 48.0826 54.442 47.6776 52.54C47.5446 51.914 47.2976 51.264 47.9786 51.091C49.1576 50.789 48.4906 51.887 49.0056 52.177Z" fill="#351510"/>
<path d="M50.8166 50.9699L50.4546 51.5739C50.2976 51.4499 50.1116 51.4649 50.0916 51.4529C49.0876 50.8469 48.4066 50.8999 49.2466 50.4869C49.8796 50.5739 50.2446 50.6919 50.8166 50.9699Z" fill="#351510"/>
<path d="M49.6099 52.177C49.3439 52.358 49.2639 52.322 49.0059 52.177C48.8869 51.52 49.5559 51.409 49.6099 52.177Z" fill="#D8EBEF"/>
<path d="M52.6278 52.419C53.0848 53.221 52.9108 53.44 53.1108 54.109C51.6568 54.575 48.1698 55.365 46.7718 55.196C44.6398 54.938 44.8688 53.969 44.7798 53.868C45.5548 53.783 46.4918 54.86 47.1948 54.351C47.3028 54.377 47.3298 54.442 47.7978 54.471C48.0808 54.488 49.4448 54.387 49.5488 54.351C50.5708 53.996 51.2178 52.172 50.4548 51.574L50.8168 50.97C51.4208 51.262 52.2928 51.83 52.6278 52.419Z" fill="#351510"/>
<path d="M51.3598 52.177C53.2198 53.885 53.4298 54.31 50.6958 54.17C51.1718 53.612 51.2488 52.89 51.3598 52.177Z" fill="#FCF9F3"/>
<path d="M58.4239 64.252C58.4239 64.909 59.2909 64.506 60.2349 64.493C61.0349 64.484 61.8479 64.535 62.6499 64.493C62.0829 65.042 61.6989 65.759 60.8389 66.063C59.8149 66.425 59.2599 66.338 58.3029 65.942C57.6799 65.684 56.8329 64.89 56.7339 64.856L57.0959 64.131C57.5549 64.281 57.9429 64.356 58.4239 64.252Z" fill="#621B35"/>
<path d="M60.839 66.063C60.936 66.271 61.208 66.404 61.322 66.546C61.636 66.942 62.556 68.167 62.288 68.237C61.679 68.077 61.097 68.104 60.477 68.116C59.825 68.128 58.18 68.227 58.183 68.478C57.96 68.432 57.82 68.382 57.579 68.357C57.342 68.333 57.093 68.374 56.854 68.357C58.576 67.756 58.091 67.836 58.303 65.942C59.257 66.338 59.815 66.425 60.839 66.063Z" fill="#C0675C"/>
<path d="M63.7369 63.407C63.6039 64.023 62.7539 64.392 62.6499 64.493C61.8509 64.535 61.0349 64.484 60.2349 64.493C61.1769 64.071 61.6409 62.958 61.7449 62.924C61.8409 62.89 63.4419 63.332 63.7369 63.407Z" fill="#221517"/>
<path d="M64.4609 63.648C63.8619 64.655 62.9959 65.404 62.0459 66.063C61.8049 66.23 61.5419 66.353 61.3219 66.546C61.2079 66.404 60.9379 66.271 60.8389 66.063C61.6989 65.759 62.0829 65.042 62.6499 64.493C62.7539 64.392 63.6039 64.025 63.7369 63.407C63.9279 63.455 64.2899 63.617 64.4609 63.648Z" fill="#7C3843"/>
<path d="M62.0459 66.0631C62.9959 65.4041 63.8619 64.6551 64.4609 63.6481C64.5169 63.6581 65.0219 62.8831 64.8239 64.1921C64.6589 65.2711 62.9959 65.9301 62.0459 66.0631Z" fill="#4C1B24"/>
<path d="M63.2538 53.988C63.3958 53.996 63.5558 54.085 63.9778 54.109C63.5628 55.034 64.3038 55.474 64.3408 55.739C64.8038 59.091 63.5868 58.297 66.1518 62.682C65.5118 63.371 67.4048 64.822 66.9968 65.399C66.8758 65.568 66.6078 64.947 65.5478 66.486C66.3308 67.889 64.2318 67.853 64.5818 68.418C65.0598 68.604 66.3838 70.004 66.7558 70.531C65.4008 70.132 63.5358 68.565 62.2878 68.237C62.5558 68.167 61.6358 66.942 61.3218 66.546C61.5418 66.353 61.8048 66.23 62.0458 66.063C62.9958 65.93 64.6588 65.271 64.8238 64.192C65.0218 62.883 64.5168 63.658 64.4608 63.648C64.2898 63.617 63.9298 63.455 63.7368 63.407C63.4418 63.332 61.8408 62.89 61.7448 62.924C61.6408 62.958 61.1768 64.068 60.2348 64.493C59.2908 64.506 58.4238 64.909 58.4238 64.252C60.2258 63.861 60.1648 61.97 60.1148 60.509C60.0488 58.62 59.3248 57.92 60.2348 53.868C61.2498 53.851 62.2438 53.938 63.2538 53.988Z" fill="#7C3843"/>
<path d="M62.4687 61.233C62.8427 60.968 63.9347 61.663 63.7367 62.139C63.4737 62.774 61.8747 61.656 62.4687 61.233Z" fill="#F4F2D5"/>
<path d="M67.8399 71.736C66.7749 71.859 65.7489 72.267 64.6999 72.46C64.5069 72.497 64.2779 72.552 64.0969 72.581C62.0009 72.912 59.8169 73.03 57.6969 72.943C56.4409 72.89 55.6469 72.651 54.7989 72.581C54.6009 72.564 54.3939 72.598 54.1949 72.581C52.9109 72.465 51.6159 72.3401 50.3319 72.2191C50.0199 72.1901 49.6749 71.98 49.6069 71.977V70.891C49.9379 71.028 50.3579 71.0311 50.6939 71.1321C50.7059 71.1371 50.6039 71.166 50.9349 71.253C51.3699 71.369 51.7199 71.6801 53.1689 71.8571C55.1159 71.8451 57.0789 72.137 59.0249 72.098C61.2299 72.055 63.3989 71.748 65.5459 71.253C66.1179 71.12 66.4749 70.934 66.9949 70.77C67.1689 70.714 68.5229 70.277 68.5639 70.347C68.4409 70.84 68.0909 71.292 67.8399 71.736Z" fill="#621B35"/>
<path d="M67.8401 71.7361C65.2581 76.3071 61.7281 79.0071 56.2511 77.6521C55.1301 77.0701 55.0121 76.9351 54.0771 76.2041C54.1281 75.9771 54.6691 76.3701 54.9221 76.4451C56.7671 76.9931 60.0421 77.0151 61.8051 76.2041C62.3801 75.9381 62.5991 75.6871 63.0121 75.2381C63.6091 74.5881 64.3332 73.2941 64.7032 72.4601C65.7512 72.2671 66.7772 71.8591 67.8422 71.7361H67.8401Z" fill="#621B35"/>
<path d="M62.2877 68.2341C63.5357 68.5601 65.4007 70.1301 66.7557 70.5281C66.8787 70.7051 66.9997 70.6251 66.9967 70.7701C66.4777 70.9341 66.1197 71.1201 65.5477 71.2531C63.9927 69.9301 62.0317 69.0991 60.1147 68.4761C60.2707 68.4111 60.4187 68.2781 60.4767 68.1131C61.0967 68.1011 61.6787 68.0751 62.2877 68.2341Z" fill="#571038"/>
<path d="M54.198 72.5811C55.101 73.4191 56.311 74.6191 57.579 74.7551C58.117 74.8131 59.948 74.8201 59.632 74.0301C60.052 74.1461 60.793 74.6151 61.08 74.2721C63.073 75.2451 60.201 75.2251 58.484 75.2381C57.811 75.2421 58.373 74.6581 56.854 76.0831C56.253 76.0921 55.224 75.8391 54.922 76.4451C54.671 76.3701 54.128 75.9771 54.077 76.2041C52.635 75.0731 51.334 73.7521 50.334 72.2191C51.619 72.3401 52.913 72.4651 54.198 72.5811Z" fill="#D05876"/>
<path d="M57.579 68.355C59.175 69.43 60.293 70.178 59.028 72.098C57.084 72.137 55.12 71.845 53.172 71.857C51.723 71.68 51.372 71.369 50.938 71.253C51.633 70.736 53.734 69.34 54.319 69.079C55.145 68.71 56.021 68.645 56.854 68.355C57.093 68.372 57.342 68.331 57.579 68.355Z" fill="#B13C68"/>
<path d="M58.1831 68.4761C58.4071 68.5221 58.7381 69.0431 60.1151 68.4761C62.0301 69.0991 63.9931 69.9301 65.5481 71.2531C63.4041 71.7481 61.2331 72.0551 59.0281 72.0981C60.2931 70.1781 59.1751 69.4301 57.5791 68.3551C57.8201 68.3791 57.9601 68.4301 58.1831 68.4761Z" fill="#7B1C52"/>
<path d="M64.099 72.5811C62.481 74.5081 61.194 74.3051 63.012 75.2381C62.599 75.6871 62.38 75.9381 61.805 76.2041C61.638 75.3801 60.694 76.0541 60.175 76.0831C59.078 76.1461 57.956 76.0631 56.854 76.0831C58.373 74.6581 57.811 75.2421 58.484 75.2381C60.201 75.2251 63.073 75.2451 61.08 74.2721C60.588 74.0301 58.253 73.2431 57.82 73.1851L57.7 72.9431C59.82 73.0301 62.001 72.9121 64.099 72.5811Z" fill="#B13C68"/>
<path d="M57.6998 72.9431L57.8198 73.1851C55.7578 72.9101 59.2838 73.9331 59.6318 74.0301C59.9478 74.8201 58.1168 74.8131 57.5788 74.7551C57.9888 74.0831 55.7918 73.2361 54.8018 72.5811C55.6468 72.6511 56.4438 72.8901 57.6998 72.9431Z" fill="#DB7C97"/>
<path d="M64.7028 72.4601C64.3328 73.2941 63.6108 74.5881 63.0118 75.2381C61.1938 74.3051 62.4808 74.5081 64.0988 72.5811C64.2798 72.5521 64.5098 72.4971 64.7028 72.4601Z" fill="#942F63"/>
<path d="M54.8018 72.5811C55.7918 73.2361 57.9888 74.0831 57.5788 74.7551C56.3108 74.6191 55.1028 73.4191 54.1978 72.5811C54.3958 72.5981 54.6038 72.5641 54.8018 72.5811Z" fill="#FCF9F3"/>
<path d="M61.8049 76.2041C60.0439 77.0151 56.7669 76.9931 54.9219 76.4451C55.2219 75.8391 56.2529 76.0921 56.8539 76.0831C57.9559 76.0631 59.0779 76.1461 60.1749 76.0831C60.6939 76.0541 61.6379 75.3801 61.8049 76.2041Z" fill="#B13C68"/>
<path d="M60.4771 68.113C60.4191 68.278 60.2711 68.411 60.1151 68.476C58.7381 69.043 58.4071 68.522 58.1831 68.476C58.1801 68.225 59.8251 68.126 60.4771 68.113Z" fill="#E0B573"/>
<path d="M57.8198 73.1851C58.2528 73.2431 60.5878 74.0301 61.0798 74.2721C60.7928 74.6151 60.0518 74.1461 59.6318 74.0301C59.2838 73.9331 55.7578 72.9101 57.8198 73.1851Z" fill="#F5B3C3"/>
<path d="M70.8588 50.0061C71.3628 50.0501 75.2298 51.5351 75.3258 51.8781C74.5678 53.0321 72.6338 54.6741 71.3418 55.0781L70.8588 54.3531C70.9188 54.3361 70.9988 54.3681 71.2208 54.2321C71.0658 54.9011 73.5268 53.2831 73.3938 52.8441C72.5698 52.2611 71.7448 51.6771 70.9188 51.0931C69.8948 50.9791 69.2598 51.3181 69.1678 51.3341C68.3228 51.4911 66.9778 51.2141 67.3568 52.6631C66.2868 53.4211 67.1368 53.3651 66.8738 53.7491C66.5288 53.2761 66.2728 52.9071 66.2098 52.3001L65.1828 53.9911C65.1348 53.9881 65.1788 54.1771 64.2168 54.1121V53.9911C65.4348 51.6681 68.1878 49.7771 70.8588 50.0061Z" fill="#221517"/>
<path d="M70.3762 54.4712C70.5302 54.4672 70.7022 54.3942 70.8592 54.3512L71.3422 55.0752C70.8682 55.2232 70.4822 55.1552 70.4962 55.3172C69.5912 55.1312 68.0692 54.8652 67.3572 54.3512C67.3132 54.3192 66.9732 53.8822 66.8742 53.7472C67.1372 53.3652 66.2872 53.4192 67.3572 52.6602C67.6562 53.8052 69.2742 54.5102 70.3762 54.4712Z" fill="#221517"/>
<path d="M70.859 49.8851V50.0061C68.188 49.7771 65.437 51.6681 64.217 53.9911C63.913 53.0541 65.408 51.2861 66.149 50.8511C67.161 50.2571 69.67 49.8061 70.859 49.8851Z" fill="#A17264"/>
<path d="M66.8741 53.7471C66.9731 53.8821 67.3131 54.3191 67.3571 54.3511C66.6541 54.2011 65.8981 54.0251 65.1831 53.9881L66.2101 52.2981C66.2731 52.9021 66.5291 53.2741 66.8741 53.7471Z" fill="#FCF9F3"/>
<path d="M69.1678 51.3322C69.3688 52.1072 68.4318 51.2142 68.2018 51.8152C67.8908 52.6362 68.4608 52.1312 68.6848 52.0572C69.4798 51.7932 69.3488 51.6872 70.2548 51.6942C70.4578 52.6652 68.7498 52.6652 70.0738 53.7472C70.1798 53.8342 70.5038 53.2592 70.6168 54.1092C70.5328 54.2182 70.4358 54.3462 70.3758 54.4712C69.2738 54.5102 67.6558 53.8052 67.3568 52.6602C66.9778 51.2112 68.3228 51.4892 69.1678 51.3322Z" fill="#392227"/>
<path d="M71.221 54.2301C70.999 54.3651 70.919 54.3341 70.859 54.3511C70.702 54.3941 70.53 54.4671 70.376 54.4711C70.436 54.3461 70.533 54.2181 70.617 54.1091C71.317 53.1941 71.392 52.4141 70.376 51.6941C72.056 51.8461 72.356 53.5341 71.221 54.2301Z" fill="#FCF9F3"/>
<path d="M70.617 54.1091C70.504 53.2591 70.18 53.8341 70.074 53.7471C68.75 52.6651 70.458 52.6651 70.255 51.6941C70.296 51.6941 70.337 51.6921 70.376 51.6941C71.392 52.4141 71.317 53.1941 70.617 54.1091Z" fill="#221517"/>
<path d="M71.2211 54.2301C72.3561 53.5341 72.0561 51.8461 70.3761 51.6941C70.3371 51.6921 70.2961 51.6941 70.2551 51.6941C69.3491 51.6871 69.4801 51.7931 68.6851 52.0571C68.7411 51.7301 68.5091 51.8171 68.2021 51.8151C68.4321 51.2161 69.3691 52.1071 69.1681 51.3321C69.2601 51.3151 69.8951 50.9771 70.9191 51.0911C71.7431 51.6731 72.5681 52.2571 73.3941 52.8411C73.5271 53.2811 71.0661 54.8991 71.2211 54.2301Z" fill="#392227"/>
<path d="M68.6851 52.0571C68.4611 52.1311 67.8911 52.6361 68.2021 51.8151C68.5091 51.8151 68.7411 51.7301 68.6851 52.0571Z" fill="#E8E0E1"/>
<path d="M72.0059 52.2981C72.1189 52.4501 72.6649 52.9041 72.6699 52.9621C72.7039 53.3701 71.8319 53.7371 72.0059 52.2981Z" fill="#FCF9F3"/>
</g>
<defs>
<linearGradient id="paint0_linear_81_1331" x1="44.0238" y1="14.7939" x2="50.0273" y2="21.5726" gradientUnits="userSpaceOnUse">
<stop stop-color="#8D5E7F"/>
<stop offset="1" stop-color="#633464"/>
</linearGradient>
<linearGradient id="paint1_linear_81_1331" x1="53.5555" y1="18.4405" x2="44.98" y2="21.3505" gradientUnits="userSpaceOnUse">
<stop stop-color="#653A68"/>
<stop offset="1" stop-color="#49264F"/>
</linearGradient>
<linearGradient id="paint2_linear_81_1331" x1="68.7601" y1="23.0772" x2="84.5707" y2="31.4063" gradientUnits="userSpaceOnUse">
<stop stop-color="#E9C49E"/>
<stop offset="1" stop-color="#D2A888"/>
</linearGradient>
<linearGradient id="paint3_linear_81_1331" x1="29.2056" y1="61.7211" x2="32.2388" y2="62.5301" gradientUnits="userSpaceOnUse">
<stop stop-color="#7DB3C1"/>
<stop offset="1" stop-color="#5792A9"/>
</linearGradient>
<linearGradient id="paint4_linear_81_1331" x1="31.5047" y1="69.4562" x2="34.393" y2="70.6878" gradientUnits="userSpaceOnUse">
<stop stop-color="#6AA8BD"/>
<stop offset="1" stop-color="#377794"/>
</linearGradient>
<linearGradient id="paint5_linear_81_1331" x1="55.2484" y1="74.9236" x2="57.2359" y2="82.5162" gradientUnits="userSpaceOnUse">
<stop stop-color="#EEA471"/>
<stop offset="1" stop-color="#D8805F"/>
</linearGradient>
<linearGradient id="paint6_linear_81_1331" x1="64.203" y1="57.7994" x2="73.4039" y2="62.0642" gradientUnits="userSpaceOnUse">
<stop stop-color="#CD765D"/>
<stop offset="1" stop-color="#963E55"/>
</linearGradient>
<linearGradient id="paint7_linear_81_1331" x1="68.545" y1="41.3801" x2="45.69" y2="47.9681" gradientUnits="userSpaceOnUse">
<stop stop-color="#A85351"/>
<stop offset="0.8" stop-color="#F1A271"/>
<stop offset="1" stop-color="#F1A271"/>
</linearGradient>
<clipPath id="clip0_81_1331">
<rect width="120" height="120" fill="white"/>
</clipPath>
</defs>
</svg>
