<svg width="120" height="120" viewBox="0 0 120 120" fill="none" xmlns="http://www.w3.org/2000/svg">
<g clip-path="url(#clip0_81_1591)">
<mask id="mask0_81_1591" style="mask-type:luminance" maskUnits="userSpaceOnUse" x="4" y="-10" width="679" height="140">
<path d="M682.685 -9.245H4.08008V129.245H682.685V-9.245Z" fill="white"/>
</mask>
<g mask="url(#mask0_81_1591)">
<path d="M41.1742 79.477C42.4662 81.479 44.1722 83.166 45.6402 85.023C47.1782 86.973 48.7542 88.988 50.2412 90.976C51.9982 93.326 53.7182 95.631 55.2452 98.146C53.5802 98.385 51.7922 99.519 50.3762 100.445C49.9462 100.727 49.2142 101.079 49.1582 101.122C46.9912 97.505 41.4562 86.134 38.1982 84.211L40.4972 79.542C40.9582 79.071 41.1392 79.472 41.1742 79.475V79.477Z" fill="#51A8BB"/>
<path d="M46.8564 81.0991C46.5284 82.4261 46.1954 83.7671 45.6374 85.0231C44.1724 83.1661 42.4634 81.4791 41.1724 79.4771C42.5344 79.6181 45.3044 80.7101 46.8534 81.0991H46.8564Z" fill="#074866"/>
<path d="M38.1981 84.211C41.4561 86.134 46.9911 97.505 49.1581 101.122C49.0741 101.185 48.0091 102.311 47.6681 102.612C46.8531 103.33 46.0001 104.001 45.2341 104.776C45.1581 104.51 42.7911 100.746 42.3931 100.042C39.4981 94.927 36.9881 90.745 32.2461 87.054C32.3761 86.884 32.7501 86.705 32.6521 86.242C34.3281 85.57 35.9531 84.579 37.5891 83.807C37.7951 83.937 37.9901 84.089 38.1981 84.214V84.211Z" fill="#F5DEA2"/>
<path d="M42.3903 100.039C41.8493 100.326 42.5803 100.743 42.2553 100.987C41.0283 98.883 39.8773 96.687 38.4663 94.696C37.7133 93.632 35.3173 90.431 34.2723 90.028C34.2343 90.012 34.1773 90.041 34.1363 90.028C34.0553 89.521 32.6743 89.348 32.1083 88.674C31.2583 87.664 31.8613 87.555 32.2433 87.052C36.9853 90.743 39.4933 94.924 42.3903 100.039Z" fill="#ECBC55"/>
<path d="M45.2311 104.776C45.2421 104.813 45.2311 104.87 45.2311 104.911C44.9931 104.943 44.8681 105.444 44.5541 105.249C44.3481 105.122 42.5931 101.569 42.2551 100.987C42.5801 100.743 41.8491 100.326 42.3901 100.039C42.7881 100.743 45.1551 104.507 45.2311 104.773V104.776Z" fill="#D37E33"/>
<path d="M70.2583 13.0529C70.4563 13.2099 70.7783 13.4099 70.9353 13.5939C71.4203 14.1679 73.1533 17.8509 72.2223 18.0599C71.1283 17.4669 69.9173 17.2039 68.7043 16.9769C68.5123 16.8249 68.2923 15.2299 67.8243 14.4739C66.5243 12.3759 64.3123 12.9519 62.8193 12.3779C63.1363 12.0779 63.4693 11.7469 63.7673 11.4309C65.9823 11.6279 68.4093 11.5879 70.2613 13.0529H70.2583Z" fill="#253D52"/>
<path d="M42.2554 35.2389C41.1534 36.3119 38.5394 36.7369 36.4384 37.9449C33.7544 39.4879 34.4374 40.8209 32.6494 38.4859C32.6964 38.3559 32.7364 38.0559 32.7854 37.9449C34.6534 33.7499 38.3584 34.0479 42.2554 35.2389Z" fill="#2E2A53"/>
<path d="M70.2581 13.0529C68.4061 11.5879 65.9801 11.6279 63.7651 11.4309C66.2881 8.73295 70.0121 9.38095 70.2581 13.0529Z" fill="#161A28"/>
<path d="M56.8672 13.3229C56.9192 12.2779 57.5772 11.8609 57.8152 11.5659C58.8582 11.5899 62.8682 13.3749 62.6842 14.0679C62.6732 14.1109 62.0152 14.5389 61.9392 14.5419C61.6742 14.5469 61.4652 13.5749 56.8672 13.3229Z" fill="#074866"/>
<path d="M34.004 30.097C33.99 29.477 34.242 28.867 34.545 28.339C35.241 28.643 37.524 27.744 37.521 28.272C34.764 29.309 35.29 31.12 34.004 30.097Z" fill="#48417B"/>
<path d="M31.1631 36.4549C31.2201 35.1549 32.3251 34.0529 33.3261 33.2079C36.0451 33.1219 33.0641 34.0609 31.1631 36.4549Z" fill="#6266A0"/>
<path d="M62.8192 12.3759C64.3122 12.9519 66.5272 12.3759 67.8242 14.4719C68.2922 15.2299 68.5122 16.8219 68.7042 16.9739C69.9172 17.2009 71.1282 17.4639 72.2222 18.0569C73.1532 17.8479 71.4202 14.1659 70.9352 13.5909C74.1332 10.0059 79.3002 12.5429 79.1872 17.1769C83.2592 17.2309 86.0702 20.7619 83.9202 24.6189C88.9222 26.4409 85.9892 29.2899 85.9492 29.6229C85.8942 30.0619 87.6222 32.3629 83.9202 34.3569C84.5892 35.7969 83.9802 37.4519 82.8372 38.4839C81.3232 33.8089 81.7382 33.4169 77.1562 32.3959C74.4262 31.7869 71.6852 31.6859 68.9042 31.7189C68.6522 31.7219 68.3092 31.7109 68.0922 31.7189C65.7932 31.8079 62.6052 32.1389 60.3802 32.6669C59.2042 32.9459 56.9972 33.2709 56.8622 34.5599C55.9762 34.7819 54.7282 35.3119 53.6152 35.3719C49.9832 36.1299 46.4792 37.3679 42.9942 38.6189C42.1062 38.4839 44.8192 37.4949 44.8192 37.0619C44.7682 36.2789 43.0402 35.4779 42.2492 35.2369C38.3532 34.0449 34.6482 33.7469 32.7792 37.9419C32.4272 37.6629 31.2852 37.3239 31.2222 37.2649C30.8842 36.9429 31.1302 36.9829 31.1552 36.4529C33.0562 34.0589 36.0372 33.1189 33.3182 33.2059C33.8682 32.7429 34.1822 32.1849 35.0762 32.1899C35.2412 31.9649 34.0222 31.5129 33.9932 30.0939C35.2792 31.1179 34.7542 29.3029 37.5102 28.2689C37.5132 27.7409 35.2302 28.6399 34.5342 28.3369C35.7852 26.1539 39.2492 25.4899 41.5702 25.8339C39.1512 20.0929 43.4542 17.4769 48.8082 17.7859C48.9712 15.5329 50.0542 13.6269 52.4612 13.3209C52.7242 13.2879 56.3452 13.2939 56.8592 13.3209C61.4602 13.5729 61.6662 14.5419 61.9312 14.5389C62.0072 14.5389 62.6652 14.1089 62.6762 14.0649C62.8572 13.3719 58.8492 11.5879 57.8072 11.5629C58.0992 11.1979 58.5192 10.3229 59.0932 10.3449L62.8142 12.3729L62.8192 12.3759Z" fill="#140E1C"/>
<path d="M58.6924 19.6819C59.4514 19.5359 63.9054 21.7699 64.6454 22.3869C66.3104 23.7789 68.3284 27.2239 64.3744 26.7169C62.0344 26.4169 56.8184 20.0419 58.6924 19.6819Z" fill="#15304F"/>
<path d="M80.3386 18.5989C81.7706 18.5229 83.1516 20.5159 83.2466 21.7779C83.4876 25.0219 79.4826 26.5359 76.8206 26.7149C76.6256 26.6139 77.9576 24.9919 78.6456 22.7229C79.3036 20.5539 78.7676 18.6799 80.3356 18.5959L80.3386 18.5989Z" fill="#253D52"/>
<path d="M50.2386 23.874C48.8846 24.253 49.4696 24.009 48.7496 23.874C47.3216 23.606 45.1586 22.688 43.6096 22.317C43.5066 22.1 45.3376 19.557 45.8406 19.408C47.6116 19.303 51.1676 19.416 52.2666 20.965C53.1036 22.143 51.8196 22.116 50.2386 23.874Z" fill="#253D52"/>
<path d="M42.1195 30.6379C42.8295 31.3339 43.7795 31.8299 44.4865 32.5309L44.9605 31.4479C45.8055 32.4279 47.6525 33.9119 48.8165 34.5599L48.6815 34.8299C41.8135 32.2039 44.6785 34.1559 44.4195 34.4919C44.1725 34.8109 37.3565 33.4629 36.4385 33.4089L36.7095 32.9349C37.0265 32.9919 39.2465 32.1279 39.2795 31.9189L37.6575 30.0939C39.2765 29.7879 40.5515 30.4409 42.1225 30.6359L42.1195 30.6379Z" fill="#22243F"/>
<path d="M58.0154 15.3519C60.8374 15.0239 62.8194 17.3879 62.6164 20.0849L54.5684 18.2599C55.3404 17.0359 56.4564 15.5329 58.0184 15.3519H58.0154Z" fill="#253D52"/>
<path d="M43.2702 23.4699C44.5382 23.3379 46.2682 24.2009 47.5332 24.6209C48.7242 27.9549 47.9582 26.3869 47.4652 26.4459C46.7452 26.5329 49.4882 29.6609 49.2232 29.9639C48.0932 29.7879 41.6942 25.1819 41.4422 24.7569C41.0502 24.0929 42.8292 23.5189 43.2682 23.4699H43.2702Z" fill="#2E2A53"/>
<path d="M52.4693 14.5389C52.8513 14.4849 56.1013 14.6769 56.0553 15.1489C54.7503 15.7089 54.2623 17.3529 53.2823 18.3279L49.6293 17.9219C49.1143 17.5909 50.4603 14.8289 52.4693 14.5389Z" fill="#253D52"/>
<path d="M55.7847 29.287C54.3307 29.523 51.5437 29.046 50.3737 28.204C49.7027 27.719 47.7987 24.518 48.7517 23.874C49.4727 24.009 48.8847 24.253 50.2417 23.874C52.0287 23.373 53.7867 21.076 55.1777 19.814L57.7477 19.95C58.6147 20.175 58.6277 26.33 59.3047 27.324L59.1017 27.527L54.0977 24.822C53.7567 25.106 55.5007 28.718 55.7877 29.287H55.7847Z" fill="#22243F"/>
<path d="M55.7846 29.287C55.9256 29.563 56.9406 30.595 57.1386 31.654C55.8196 32.136 54.2786 32.261 53.0116 31.586C52.4136 31.267 50.0466 28.935 50.3736 28.204C51.5436 29.046 54.3336 29.523 55.7846 29.287Z" fill="#140E1C"/>
<path d="M44.9603 31.4509L44.4863 32.5339C43.7773 31.8299 42.8293 31.3339 42.1193 30.6409C41.1963 29.7369 39.8043 28.5799 40.6983 27.2589C43.3243 27.2099 42.9293 29.0949 44.9603 31.4539V31.4509Z" fill="#2E2A53"/>
<path d="M84.9384 29.0159C86.3984 34.5999 80.3294 34.1969 81.4884 31.9249C81.8814 31.1559 84.2784 29.9479 84.9384 29.0159Z" fill="#253D52"/>
<path d="M37.6575 30.0969L39.2795 31.9219C39.2465 32.1309 37.0265 32.9939 36.7095 32.9379C36.3655 32.8749 35.5555 31.7189 35.6265 31.3799C35.7155 30.9499 37.0425 30.2109 37.6545 30.0939L37.6575 30.0969Z" fill="#2E2A53"/>
<path d="M44.6226 19.1399C45.3916 19.1649 43.2326 22.0949 43.0656 22.1839C40.4246 23.5839 43.2516 19.0939 44.6226 19.1399Z" fill="#2E2A53"/>
<path d="M68.3652 17.922C67.7992 18.13 69.8252 19.587 70.8002 21.71C70.5022 23.181 68.7742 25.03 68.5692 24.957C66.9632 20.118 62.0482 16.76 61.8722 16.232C61.4682 15.013 66.2612 11.69 67.4182 17.586C67.6402 17.905 68.2492 17.87 68.3652 17.924V17.922Z" fill="#074866"/>
<path d="M70.8002 21.71C69.8252 19.587 67.7972 18.13 68.3652 17.922C69.9662 18.666 71.3772 18.867 70.8002 21.71Z" fill="#0B6A83"/>
<path d="M83.6525 25.2279L82.4345 28.7459C81.4995 29.4059 80.2165 30.1809 79.1875 29.8959C79.7235 29.2599 80.0755 28.4399 79.9995 27.5969C81.0285 27.2829 83.0355 25.3499 83.6525 25.2309V25.2279Z" fill="#1A4657"/>
<path d="M82.4346 28.7459L83.6526 25.2279C86.2196 24.7239 83.7146 27.8409 82.4346 28.7459Z" fill="#3C8898"/>
<path d="M76.8885 14.2709C77.3025 16.1589 77.2345 18.0329 77.2945 19.9529C77.2945 19.9629 77.4166 19.9069 77.4296 20.0879C77.2025 21.0759 76.6715 22.2729 76.7525 23.1999C76.3545 23.9439 75.3065 25.1379 74.6565 25.6339C71.3605 28.1389 73.7845 25.5449 74.0475 23.4029C74.3775 20.7189 73.6796 16.4669 72.2896 14.0679C73.8256 13.3499 75.4255 13.3859 76.8905 14.2709H76.8885Z" fill="#074866"/>
<path d="M77.2947 19.9529C77.2347 18.0329 77.3027 16.1589 76.8887 14.2709C79.0707 15.5929 78.3017 18.0539 77.2947 19.9529Z" fill="#0B6A83"/>
<path d="M76.7525 23.1999C76.6685 22.2729 77.2025 21.0759 77.4295 20.0879C77.5245 21.4469 77.4215 21.9399 76.7525 23.1999Z" fill="#97C2CA"/>
<path d="M40.6334 40.515L37.0474 44.168L35.3584 40.988C35.8564 39.976 36.7634 39.48 37.6574 38.892C37.9654 39.767 40.1024 39.58 40.2944 39.705C40.5544 39.873 40.6034 40.482 40.6334 40.517V40.515Z" fill="#22243F"/>
<path d="M37.6574 38.8919C36.7634 39.4799 35.8564 39.9779 35.3584 40.9879L37.0474 44.1679L40.6334 40.5149C42.8264 43.1329 43.6394 46.9649 44.6924 50.2549C39.3004 51.0129 43.4794 62.2139 48.2104 62.7009L48.3454 67.5699C43.4274 60.4399 40.7114 58.8719 39.6884 48.4269C33.6844 48.3729 30.5594 44.2409 32.6524 38.4839C34.4374 40.8179 33.7544 39.4849 36.4414 37.9419C37.3484 38.7329 39.9694 37.3679 37.6594 38.8899L37.6574 38.8919Z" fill="#20101D"/>
<path d="M32.5823 39.2989C32.7423 39.2359 34.6833 41.0699 34.8133 41.8009C35.1763 43.8129 33.0913 46.7939 32.5143 43.0189C32.1163 44.0699 31.7943 40.8639 32.5823 39.2989Z" fill="#161A28"/>
<path d="M58.8961 104.369C62.7251 106.606 71.2931 106.235 73.2341 101.258C73.3291 101.258 73.4701 101.223 73.5051 101.326C73.9221 102.525 70.4591 123.415 69.6491 126.421C69.4951 126.545 69.2371 126.052 69.1751 125.947C68.6581 125.067 64.6071 114.849 63.2231 112.011C61.9371 109.376 60.4341 106.861 58.8931 104.367L58.8961 104.369Z" fill="#ECBC55"/>
<path d="M74.3183 98.1459C74.5973 98.9129 74.8703 99.6739 75.1303 100.445C75.8213 102.509 76.3873 104.591 77.0233 106.668C78.4653 113.343 79.9093 120.017 81.3533 126.691C73.2783 126.71 65.2133 126.7 57.1383 126.691C57.0113 121.235 57.0033 115.781 57.0033 110.322V104.911C57.0033 104.155 56.8943 103.153 57.1383 102.476C57.5363 103.313 58.0753 103.89 58.8963 104.369C60.4363 106.861 61.9393 109.376 63.2263 112.014C64.6093 114.849 68.6613 125.067 69.1783 125.95C69.2403 126.052 69.4973 126.548 69.6523 126.423C70.4613 123.418 73.9253 102.528 73.5083 101.328C73.4733 101.225 73.3323 101.261 73.2373 101.261C73.5513 100.454 73.6683 99.5439 73.7793 98.6909C73.8463 98.1759 74.0413 97.8319 74.0503 97.6069C74.2663 97.6699 74.2663 97.9969 74.3203 98.1489L74.3183 98.1459Z" fill="#E4CAB2"/>
<path d="M89.8754 92.8679C89.0444 93.0579 87.9444 91.8479 87.2384 91.9209C86.9344 91.9529 82.9674 95.0649 82.4364 95.6409L85.5484 103.893C85.6184 104.364 85.3374 104.193 85.2774 104.231C84.9744 104.007 84.5674 103.709 84.3294 103.419C82.5504 98.2189 78.0844 91.8529 74.1824 87.9969C74.0904 87.8449 74.0204 87.7339 73.9114 87.5909C73.8004 87.4439 73.7874 87.4309 73.6414 87.3199C73.5194 87.2249 73.3754 87.1169 73.2344 87.0489V86.1009C73.2784 85.9119 73.3674 85.9769 73.3704 85.9659C79.0004 87.9859 84.4864 90.2709 89.8754 92.8659V92.8679Z" fill="#074866"/>
<path d="M102.186 126.691C101.834 126.109 99.3454 125.706 98.0594 125.337L97.8564 124.999L99.0744 111.47C100.193 107.944 101.985 104.673 103.404 101.255C110.572 108.461 113.148 116.564 113.28 126.621C109.584 126.756 105.885 126.673 102.188 126.689L102.186 126.691Z" fill="url(#paint0_linear_81_1591)"/>
<path d="M103.404 101.258C101.985 104.675 100.193 107.947 99.0742 111.472L97.8562 125.002L98.0592 125.34C99.3422 125.708 101.834 126.112 102.186 126.694C100.696 126.702 99.2102 126.691 97.7202 126.694L97.4492 114.925C97.8042 113.271 97.8012 111.589 97.9912 109.921C98.0342 109.531 97.8012 109.011 97.9912 107.622C98.2652 105.607 99.8702 101.011 100.967 99.0999C102.115 99.9989 102.375 100.232 103.402 101.263L103.404 101.258Z" fill="#055779"/>
<path d="M99.2106 97.8759C98.4196 100.941 97.8776 104.096 97.3176 107.21C97.0196 108.857 96.5646 110.457 96.6406 112.147C96.1906 107.126 97.6425 102.17 98.1295 97.1989C98.5115 97.4309 98.8335 97.6259 99.2125 97.8759H99.2106Z" fill="#51A8BB"/>
<path d="M100.564 98.8229C99.7434 100.941 98.8554 102.977 98.2654 105.182C97.6424 105.277 97.8914 107.123 97.3174 107.21C97.8804 104.096 98.4194 100.941 99.2104 97.8759C99.6894 98.1899 100.101 98.4789 100.564 98.8229Z" fill="#0B6A83"/>
<path d="M100.97 99.0939C99.8733 101.006 98.2673 105.602 97.9943 107.616C97.3253 107.589 98.0613 105.937 98.2653 105.182C98.8553 102.977 99.7433 100.941 100.564 98.8229C100.583 98.8369 100.626 98.8229 100.97 99.0939Z" fill="#51A8BB"/>
<path d="M83.6522 102.474C83.9012 102.793 84.0833 103.124 84.3293 103.422C84.5673 103.709 84.9712 104.007 85.2772 104.234C84.7712 104.562 78.3772 106.33 77.0262 106.668C76.3892 104.591 75.8213 102.509 75.1333 100.445C75.5123 100.291 74.9302 99.8009 75.2002 99.6329C75.4282 99.4919 80.0322 99.9769 80.4762 100.175C81.2802 100.532 82.9452 103.457 83.6552 102.474H83.6522Z" fill="#074866"/>
<path d="M89.8755 92.8679C92.6835 94.2199 95.4645 95.5709 98.1265 97.1989C97.6395 102.17 96.1905 107.126 96.6375 112.147C96.5615 110.454 97.0165 108.854 97.3145 107.21C97.8885 107.123 97.6365 105.277 98.2625 105.182C98.0595 105.937 97.3225 107.589 97.9915 107.616C97.8015 109.005 98.0345 109.525 97.9915 109.915C97.7185 109.961 97.3955 112.512 97.3145 113.501C97.2685 114.067 97.2685 114.914 97.4495 114.922L97.7205 126.691C92.2645 126.705 86.8075 126.678 81.3505 126.691C79.9085 120.017 78.4655 113.343 77.0205 106.668C78.3745 106.327 84.7655 104.562 85.2725 104.234C85.3315 104.196 85.6135 104.367 85.5425 103.895L82.4315 95.6439C82.9625 95.0669 86.9325 91.9559 87.2325 91.9229C87.9395 91.8479 89.0385 93.0609 89.8705 92.8709L89.8755 92.8679Z" fill="#1D7898"/>
<path d="M97.9912 109.915C97.8042 111.584 97.8042 113.268 97.4492 114.92C97.2682 114.914 97.2682 114.064 97.3142 113.498C97.3952 112.51 97.7182 109.959 97.9912 109.913V109.915Z" fill="#D0E8E3"/>
<path d="M87.5085 116.409C87.8045 116.309 88.2645 116.902 87.7795 117.086C87.3325 117.254 87.1105 116.542 87.5085 116.409Z" fill="#9EB6A9"/>
<path d="M92.6484 99.4978C93.3364 99.6518 92.2233 101.044 92.4453 99.7008C92.4453 99.6868 92.6354 99.4948 92.6484 99.4978Z" fill="#ADDCE8"/>
<path d="M86.5613 117.357C86.8313 117.392 86.8453 117.525 86.6963 117.763C86.4603 118.14 86.2953 117.322 86.5613 117.357Z" fill="#97C2CA"/>
<path d="M91.0262 113.568C91.2912 113.498 91.2972 113.915 91.1612 113.975C91.1132 113.996 90.8202 113.623 91.0262 113.568Z" fill="#7AC8D5"/>
<path d="M89.4014 115.597C89.6044 115.516 89.6994 115.803 89.5374 115.868C89.3344 115.949 89.2394 115.662 89.4014 115.597Z" fill="#ADDCE8"/>
<path d="M73.6414 87.322C73.5704 87.702 73.9014 87.574 73.9114 87.593C73.9934 87.715 73.8304 87.65 74.1824 87.999C76.0354 91.03 76.3434 95.132 77.0234 98.553C76.9204 98.553 75.2254 98.932 75.0624 99.094L74.3184 98.146C74.2634 97.995 74.2634 97.667 74.0474 97.605C73.6844 94.726 73.2804 91.842 73.2344 88.947C73.2244 88.316 73.2434 87.685 73.2344 87.054C73.3754 87.122 73.5194 87.23 73.6414 87.325V87.322Z" fill="#074866"/>
<path d="M77.0234 98.5529C81.1284 98.5959 81.4514 99.6299 83.6524 102.476C82.9434 103.459 81.2774 100.535 80.4734 100.177C80.0294 99.9799 75.4234 99.4949 75.1984 99.6359C74.9274 99.8039 75.5094 100.294 75.1304 100.448C74.8734 99.6759 74.5974 98.9129 74.3184 98.1489L75.0624 99.0969C75.2254 98.9339 76.9234 98.5549 77.0234 98.5549V98.5529Z" fill="#253D52"/>
<path d="M84.3296 103.422C84.0836 103.124 83.9016 102.796 83.6526 102.474C81.4516 99.6279 81.1286 98.5929 77.0236 98.5499C76.3436 95.1319 76.0356 91.0299 74.1826 87.9969C78.0826 91.8529 82.5476 98.2219 84.3296 103.419V103.422Z" fill="#51A8BB"/>
<path d="M74.1826 87.9989C73.8306 87.6499 73.9936 87.7179 73.9116 87.5929C74.0206 87.7369 74.0906 87.8479 74.1826 87.9989Z" fill="#51A8BB"/>
<path d="M73.9113 87.5929C73.9013 87.5739 73.5703 87.7019 73.6413 87.3219C73.7873 87.4329 73.8003 87.4469 73.9113 87.5929Z" fill="#51A8BB"/>
<path d="M32.1082 88.6759C32.6772 89.3509 34.0552 89.5209 34.1362 90.0299C31.6992 89.2209 32.7282 90.0679 32.7822 90.1659C34.6642 93.3859 39.6232 100.64 41.9812 103.966C42.6262 104.876 43.0892 105.959 43.7392 106.874C44.0692 107.364 44.3972 107.156 44.5512 107.213C45.5502 107.584 50.5662 108.526 52.7352 109.106C53.9022 109.417 55.0502 109.994 56.1852 110.324V126.694C53.8402 126.691 51.4952 126.697 49.1492 126.694C37.6542 121.349 36.4142 106.617 26.1502 101.802C24.1252 100.437 19.8542 98.8099 17.4932 97.4039C18.2592 96.6299 24.5422 92.0099 25.0022 92.0609C25.1942 92.0829 25.8772 93.1769 25.9502 93.1449C26.1312 92.3319 25.1272 92.1319 25.8142 91.5229C26.0772 91.2899 31.4012 88.5839 32.1052 88.6819L32.1082 88.6759Z" fill="url(#paint1_linear_81_1591)"/>
<path d="M13.8452 126.691C10.5982 126.678 7.34923 126.759 4.10423 126.624C3.91223 119.169 4.75723 112.775 8.83823 106.398C9.85623 113.29 12.0142 119.976 13.8422 126.691H13.8452Z" fill="#673767"/>
<path d="M49.1552 126.691C45.3662 126.686 41.5782 126.7 37.7922 126.691C35.7152 120.501 35.2412 113.769 31.1632 108.429C31.2202 106.159 27.9322 102.996 26.1582 101.799C36.4222 106.614 37.6622 121.346 49.1582 126.691H49.1552Z" fill="#673767"/>
<path d="M31.163 108.429C35.241 113.772 35.715 120.501 37.792 126.691H35.493C35.298 125.351 34.922 124.067 34.545 122.768C34.862 122.889 34.743 122.435 34.681 122.158C33.817 118.308 32.027 114.649 30.757 110.931C30.161 109.701 29.722 109.328 29.673 109.241C28.617 107.294 27.017 104.559 25.479 103.018C27.512 104.554 29.608 106.395 31.16 108.429H31.163Z" fill="#15304F"/>
<path d="M57.0034 110.322C57.0034 115.781 57.0114 121.235 57.1384 126.691H56.1904V110.322C56.2284 110.332 56.4374 110.14 57.0034 110.322Z" fill="#605080"/>
<path d="M56.461 105.317C55.814 105.363 50.3 102.829 48.548 102.476C48.38 102.444 48.754 101.921 47.668 102.612C48.009 102.311 49.071 101.187 49.158 101.122C49.214 101.082 49.946 100.727 50.376 100.445C54.76 101.15 56.068 100.871 56.464 105.314L56.461 105.317Z" fill="#39254D"/>
<path d="M55.242 98.1459C55.982 99.3619 56.209 100.402 56.732 101.258C56.8 101.697 56.948 102.076 57.138 102.476C56.894 103.153 57.003 104.155 57.003 104.911C56.724 105.853 56.51 105.314 56.461 105.317C56.066 100.871 54.758 101.15 50.373 100.448C51.792 99.5219 53.58 98.3869 55.242 98.1489V98.1459Z" fill="#15304F"/>
<path d="M56.4611 105.317C56.5071 105.314 56.7241 105.853 57.0031 104.911V110.322C56.4371 110.14 56.2311 110.332 56.1901 110.322C55.0561 109.991 53.9071 109.417 52.7401 109.103C50.5681 108.523 45.5561 107.578 44.5571 107.21C44.7411 106.62 44.5301 106.149 44.2861 105.588C44.6651 105.696 45.2281 105.366 45.2341 104.911C45.2341 104.87 45.2441 104.813 45.2341 104.776C46.0001 103.998 46.8531 103.33 47.6681 102.612C48.7541 101.921 48.3801 102.444 48.5481 102.476C50.3001 102.829 55.8141 105.363 56.4611 105.317Z" fill="#2E2A53"/>
<path d="M34.139 90.0279C34.18 90.0409 34.236 90.0119 34.274 90.0279C35.691 91.6529 37.145 93.2959 38.334 95.0999C38.347 95.1219 38.152 95.3569 38.334 95.6409C39.124 96.8679 40.032 98.0219 40.768 99.2949C40.782 99.3189 40.727 99.7629 40.768 99.8359C41.803 101.653 43.471 103.7 44.286 105.585C44.53 106.149 44.741 106.617 44.557 107.207C44.405 107.151 44.075 107.359 43.744 106.869C43.094 105.954 42.631 104.87 41.987 103.96C42.184 103.397 41.023 101.317 40.497 100.375C39.742 99.0179 34.518 90.9109 33.868 90.3639C33.787 90.2959 32.972 89.936 32.785 90.16C32.728 90.063 31.699 89.215 34.139 90.025V90.0279Z" fill="#48417B"/>
<path d="M41.9842 103.963C39.6252 100.64 34.6672 93.3829 32.7852 90.1629C32.9692 89.9379 33.7872 90.2989 33.8682 90.3659C34.5182 90.9129 39.7422 99.0209 40.4972 100.378C41.0232 101.32 42.1842 103.4 41.9872 103.963H41.9842Z" fill="#605080"/>
<path d="M25.4813 103.015C27.0203 104.556 28.6203 107.291 29.6763 109.238C31.2713 113.758 33.2153 118.153 34.5453 122.768C34.9193 124.067 35.2953 125.348 35.4933 126.691C28.2793 126.675 21.0623 126.724 13.8483 126.691C12.0203 119.976 9.86226 113.292 8.84326 106.398C10.9563 103.099 13.7753 100.389 16.7563 97.8759C19.5213 99.2969 23.3183 100.852 25.4813 103.015Z" fill="#8C6A91"/>
<path d="M34.5453 122.768C33.2153 118.153 31.2683 113.758 29.6763 109.238C29.7253 109.328 30.1643 109.699 30.7593 110.928C32.0293 114.649 33.8193 118.305 34.6833 122.156C34.7453 122.432 34.8653 122.887 34.5483 122.765L34.5453 122.768Z" fill="#533863"/>
<path d="M17.2952 99.3618C17.5602 99.3298 22.8282 102.217 20.6772 102.203C20.4152 102.203 15.4182 99.5838 17.2952 99.3618Z" fill="#FBFBFD"/>
<path d="M42.2555 100.987C42.5935 101.569 44.3485 105.119 44.5545 105.249C44.8685 105.447 44.9905 104.943 45.2315 104.911C45.2285 105.366 44.6625 105.696 44.2835 105.588C43.4715 103.703 41.8035 101.656 40.7655 99.8389C40.7255 99.7659 40.7795 99.3219 40.7655 99.2969C40.0265 98.0249 39.1225 96.8709 38.3315 95.6439C38.1495 95.3629 38.3445 95.1269 38.3315 95.1029C37.1455 93.2989 35.6915 91.6529 34.2725 90.0299C35.3145 90.4339 37.7115 93.6319 38.4665 94.6989C39.8775 96.6889 41.0255 98.8859 42.2555 100.99V100.987Z" fill="#22243F"/>
<path d="M82.8404 38.486C83.2874 39.865 83.6554 41.286 84.0584 42.681C83.6034 42.537 82.7944 42.627 82.3014 42.41C82.2954 42.302 82.3774 42.272 82.4364 42.2071C80.7824 41.5681 78.4474 40.517 76.7554 40.111C77.5974 37.292 78.1034 35.304 77.1614 32.399C81.7434 33.42 81.3294 33.812 82.8424 38.486H82.8404Z" fill="#DF7F58"/>
<path d="M86.4932 54.992C86.6612 55.398 86.7883 56.237 86.8993 56.749C86.7343 56.714 86.3013 57.304 86.2223 57.426C85.5343 57.621 84.9553 58.945 84.3293 59.184C83.2303 58.934 83.4412 58.523 83.3812 58.507C84.0422 57.074 80.1703 56.83 79.9993 58.371L78.5103 56.14C78.5393 56.007 80.5082 54.916 80.8092 54.718L81.8242 56.746C86.0812 56.175 87.2572 55.826 85.0033 53.364H85.1393C85.7813 53.865 86.1732 54.212 86.4932 54.986V54.992Z" fill="#EF9A5F"/>
<path d="M87.3054 63.514C87.1674 62.539 86.6824 60.952 85.9514 60.267C85.6724 60.004 85.7754 59.879 85.2744 59.725L86.8964 57.426C87.2574 59.433 87.7394 61.461 87.3034 63.514H87.3054Z" fill="#DF7F58"/>
<path d="M86.4933 69.0599L85.6803 71.7649L82.8403 72.4419C83.2703 72.0979 83.8533 71.4889 84.3293 71.0879C84.7653 70.7219 85.7133 71.0579 85.9513 69.0599H86.4933Z" fill="#8D4344"/>
<path d="M86.8993 56.7489C86.9403 56.9439 86.8613 57.2199 86.8993 57.4259L85.2773 59.7249C85.2363 59.7139 84.5763 59.6029 84.4653 59.5899C85.3313 59.0749 85.7163 58.2139 86.2223 57.4259C86.3013 57.3039 86.7343 56.7169 86.8993 56.7489Z" fill="#AC4C40"/>
<path d="M68.9075 31.722C69.3055 32.06 70.7595 31.722 71.0035 31.857C71.5205 32.139 70.5565 38.66 70.5295 39.705V39.84C66.5625 39.402 63.1615 40.341 61.3305 44.17C60.5475 44.644 58.1835 46.12 58.0835 46.943C57.9345 48.175 61.3875 52.896 62.2785 54.114C65.5685 58.62 67.1525 58.157 67.9595 65.883C71.1795 68.51 73.3945 72.174 76.7525 74.608C76.3355 74.551 75.8265 74.66 75.3985 74.608C75.1985 74.584 74.9275 74.514 74.7215 74.473C73.4245 72.699 73.6305 74.386 72.4225 72.984C72.1515 72.672 72.1245 72.404 71.7455 72.036C68.6285 69.024 58.3815 65.171 55.1045 55.937L56.7265 44.371C57.5885 43.396 62.0295 39.54 62.2725 38.825C62.6035 37.858 62.1265 37.051 61.7315 36.187C61.4175 35.502 60.5455 33.858 59.8385 34.023C60.0875 33.964 60.4825 33.693 60.7865 33.617C63.1805 33.021 65.6385 32.599 68.0245 31.995C68.1245 31.971 68.0925 31.816 68.0925 31.724C68.3095 31.716 68.6505 31.727 68.9045 31.724L68.9075 31.722Z" fill="url(#paint2_linear_81_1591)"/>
<path d="M77.1582 32.399C78.1012 35.304 77.5942 37.289 76.7522 40.111C74.7862 39.64 72.4952 39.307 70.5292 39.705C70.5562 38.662 71.5202 32.141 71.0032 31.857C70.7592 31.724 69.3052 32.06 68.9072 31.722C71.6882 31.689 74.4292 31.789 77.1582 32.399Z" fill="#F4AB6F"/>
<path d="M68.0953 31.722C68.0953 31.814 68.1273 31.965 68.0273 31.992C65.6413 32.596 63.1853 33.021 60.7883 33.615C60.3743 33.197 60.2313 33.249 60.3823 32.667C62.6083 32.139 65.7963 31.808 68.0953 31.719V31.722Z" fill="#9E2E28"/>
<path d="M60.3822 32.6689C60.2312 33.2519 60.3742 33.1999 60.7882 33.6169C60.4852 33.6929 60.0902 33.9639 59.8412 34.0229C59.8322 34.0229 59.8732 34.1719 59.7052 34.1589C58.8742 34.3589 57.3932 34.4319 56.8652 34.5649C57.0002 33.2759 59.2042 32.9479 60.3822 32.6719V32.6689Z" fill="#5E1713"/>
<path d="M76.7523 40.108C78.4453 40.515 80.7793 41.568 82.4343 42.204C82.3743 42.269 82.2933 42.299 82.2983 42.407C82.3093 42.673 82.2063 44.111 82.1633 44.436C81.9893 45.782 81.2313 47.301 81.4863 48.63C81.6273 49.318 82.5723 50.965 82.9753 51.471C83.2353 51.799 83.5473 52.002 83.7883 52.284C83.7983 52.294 84.0483 52.408 84.0583 52.419C84.3593 52.766 84.6923 53.026 85.0063 53.367C87.2593 55.828 86.0843 56.178 81.8273 56.749L80.8113 54.721C81.4323 54.317 82.4123 53.987 82.4343 53.57C81.6403 51.986 80.7003 50.458 80.1343 48.769C79.1923 45.958 80.8363 46.342 76.4813 43.493C76.8253 41.866 76.7063 41.449 73.7083 40.517C73.1423 40.341 71.0953 39.903 70.5293 39.84V39.705C72.4953 39.307 74.7863 39.64 76.7523 40.111V40.108Z" fill="#F4AB6F"/>
<path d="M74.1822 43.084C72.1082 44.009 70.0342 44.933 67.9592 45.857C69.7112 46.139 71.9082 45.462 73.2342 46.602C72.7142 46.537 71.9052 46.537 71.4092 46.602C70.4942 46.721 63.5402 48.546 64.5092 49.037C65.3762 49.142 66.2022 48.706 66.6052 48.63C67.8482 48.847 69.0562 49.416 70.2582 49.714C70.4372 49.757 70.4862 49.947 70.6652 49.984C71.5742 50.179 72.3952 50.128 73.3022 49.984C73.5922 49.787 73.6542 48.211 73.6412 47.821C74.4962 47.853 76.1052 44.549 76.3462 43.626C76.3952 43.436 76.4792 43.499 76.4812 43.491C80.8362 46.339 79.1922 45.955 80.1342 48.766C79.5092 49.513 76.5252 54.369 76.4812 54.718C72.7122 54.16 68.6962 52.571 64.9832 53.703C68.7822 59.324 70.3422 63.213 77.4292 58.504C78.1872 59.449 78.9562 59.135 79.4572 59.181C80.3812 59.262 83.6792 59.43 84.3262 59.181C84.9552 58.94 85.5322 57.616 86.2192 57.423C85.7132 58.211 85.3262 59.075 84.4622 59.587C83.6142 59.484 82.4552 59.663 81.5532 59.587L79.4572 62.157C77.4942 62.739 73.9412 63.329 73.7082 63.511C73.4622 63.703 72.9122 65.168 74.5882 65C74.9242 65.331 75.4202 65.434 75.8072 65.677C75.8862 65.729 76.2512 66.197 76.2812 66.219C76.3302 66.251 77.2592 66.552 77.3642 66.625C77.5102 66.728 77.2212 66.842 77.2962 66.896L77.0262 66.964C77.8952 67.925 79.1432 70.086 80.2052 70.684C81.0582 71.166 83.4682 71.703 83.3842 71.091C83.6952 71.115 84.0182 71.074 84.3322 71.091C83.8582 71.489 83.2732 72.098 82.8422 72.445C81.6292 73.417 79.9532 75.161 78.7832 74.879C78.1142 74.717 77.4372 74.703 76.7552 74.608C73.3972 72.174 71.1822 68.51 67.9622 65.883C67.1552 58.154 65.5712 58.62 62.2812 54.114C61.3922 52.896 57.9372 48.175 58.0862 46.943C58.1862 46.117 60.5502 44.644 61.3332 44.17C66.1262 41.267 68.9122 41.871 74.1852 43.087L74.1822 43.084Z" fill="#DF7F58"/>
<path d="M80.1346 48.769C80.7006 50.458 81.6436 51.986 82.4346 53.57C82.4126 53.987 81.4326 54.317 80.8116 54.721C80.5116 54.916 78.5396 56.01 78.5126 56.142L80.0026 58.374C80.8746 58.734 82.7886 58.341 83.3846 58.509C83.4446 58.525 83.2326 58.937 84.3326 59.186C83.6856 59.435 80.3846 59.267 79.4636 59.186C78.7326 58.718 78.0446 57.71 77.1646 57.697C76.9066 57.085 76.4246 55.227 76.4876 54.721C76.5306 54.371 79.5126 49.516 80.1406 48.769H80.1346Z" fill="#DF7F58"/>
<path d="M83.3815 58.507C82.7865 58.339 80.8715 58.731 79.9995 58.371C80.1705 56.83 84.0425 57.074 83.3815 58.507Z" fill="#591A20"/>
<path d="M86.0872 46.467C85.8102 47.387 86.0602 47.734 86.2222 48.766C83.9552 47.888 82.5452 49.443 81.4882 48.63C81.2342 47.301 81.9892 45.784 82.1652 44.436C83.7582 45.04 84.7762 45.291 86.0892 46.464L86.0872 46.467Z" fill="#AC4C40"/>
<path d="M84.0581 42.678C88.0361 43.929 86.1651 46.212 86.0871 46.467C84.7731 45.294 83.7551 45.042 82.1631 44.438C82.2061 44.113 82.3091 42.673 82.2981 42.41C82.7941 42.627 83.6031 42.537 84.0561 42.681L84.0581 42.678Z" fill="#140E1C"/>
<path d="M86.2224 48.7691C86.3064 49.3051 86.3824 49.8331 86.6284 50.3261C86.0654 50.7671 85.8704 49.1291 85.4104 51.2061C83.8504 50.6241 84.6574 51.9371 84.0564 52.4241C84.0454 52.4141 83.7964 52.3001 83.7854 52.2891L83.7174 49.8541C82.8974 50.1521 83.5004 50.8781 82.9724 51.4771C82.5724 50.9701 81.6274 49.3241 81.4834 48.6361C82.5394 49.4481 83.9504 47.8941 86.2174 48.7711L86.2224 48.7691Z" fill="#3F1414"/>
<path d="M85.4102 51.203C85.2632 51.858 85.3202 52.687 85.1392 53.367H85.0032C84.6922 53.026 84.3562 52.766 84.0562 52.419C84.6542 51.931 83.8502 50.621 85.4102 51.2V51.203Z" fill="#9E2E28"/>
<path d="M83.7881 52.284C83.5471 52.002 83.2351 51.799 82.9751 51.471C83.5001 50.87 82.8971 50.144 83.7201 49.849L83.7881 52.284Z" fill="#FBECDD"/>
<path d="M55.1073 55.937C58.3843 65.171 68.6314 69.024 71.7484 72.036C70.1424 72.705 70.0803 72.412 69.9903 72.442C69.9583 72.453 70.1044 72.252 69.3134 72.577C63.7324 70.238 57.7583 68.155 54.4333 62.701C54.4223 62.606 54.2653 61.954 54.1623 61.889C53.7723 60.085 53.7994 58.144 53.4854 56.343C54.0374 56.015 54.4523 55.855 55.1073 55.937Z" fill="#AC4C40"/>
<path d="M69.3136 72.577C68.8696 73.07 68.2466 73.455 67.6916 73.796C67.1556 74.124 66.6276 74.489 66.1346 74.879C65.9636 74.906 65.7036 74.641 65.5256 74.608C64.7236 74.457 61.3736 73.233 60.5206 72.851C52.5706 69.29 55.0376 68.304 54.4336 62.704C57.7586 68.158 63.7326 70.24 69.3136 72.58V72.577Z" fill="#AC4C40"/>
<path d="M77.2944 66.896C77.5004 67.042 77.8544 67.191 78.3774 67.573C79.8474 68.645 81.3454 69.658 82.6394 70.955C82.9054 71.093 83.1084 71.069 83.3844 71.091C83.4684 71.703 81.0584 71.166 80.2054 70.684C79.1434 70.086 77.8954 67.925 77.0264 66.964L77.2964 66.896H77.2944Z" fill="#AC4C40"/>
<path d="M70.5296 39.838C71.0956 39.9 73.1426 40.338 73.7086 40.515C76.7066 41.446 76.8256 41.863 76.4816 43.491C76.4816 43.499 76.3976 43.436 76.3466 43.626C75.6396 43.382 74.9086 43.252 74.1826 43.084C68.9106 41.869 66.1266 41.262 61.3306 44.168C63.1616 40.338 66.5626 39.399 70.5296 39.838Z" fill="#140E1C"/>
<path d="M85.6807 71.765C85.9007 71.995 86.1007 72.415 86.2227 72.713H86.0877C84.2707 74.294 78.5157 78.226 76.8887 75.96C77.9527 76.239 78.9627 76.049 79.5937 75.08C79.3147 75.052 79.0437 74.939 78.7807 74.876C79.9507 75.158 81.6277 73.414 82.8407 72.442L85.6807 71.765Z" fill="#3E2C38"/>
<path d="M86.0875 73.39C85.8085 74.124 85.8435 75.35 85.6805 76.027C85.5425 76.61 84.8065 77.398 85.1395 77.853C83.5225 79.529 83.3435 78.849 82.5015 79.61C80.7385 79.908 78.9595 79.992 76.8205 79.745C76.6635 79.507 75.4205 79.166 74.9955 79.068C76.0295 77.812 73.5115 77.72 73.0345 77.446C72.7175 77.262 70.7705 75.738 70.1265 75.283C71.4935 75.223 73.0485 75.063 73.9825 73.929C74.2455 74.178 74.3235 74.392 74.7275 74.47C74.9325 74.511 75.2035 74.581 75.4045 74.606C75.0625 74.952 76.4225 75.835 76.8935 75.96C78.5205 78.226 84.2755 74.294 86.0925 72.713C86.0925 72.956 86.0605 73.141 86.0925 73.39H86.0875Z" fill="#20101D"/>
<path d="M70.1236 75.283C70.7676 75.74 72.7146 77.265 73.0316 77.446C73.5116 77.723 76.0296 77.815 74.9926 79.068C73.3706 78.703 72.0976 78.57 71.9486 78.527C69.8176 77.901 67.3076 76.734 65.2516 75.822C64.8106 75.234 65.6116 75.207 65.5226 74.603C65.7016 74.635 65.9586 74.901 66.1316 74.874C66.6246 74.484 67.1526 74.118 67.6886 73.791C68.5936 73.996 69.3816 74.752 70.1236 75.28V75.283Z" fill="#1B0E15"/>
<path d="M85.1426 77.853C84.8086 77.398 85.5456 76.61 85.6836 76.027C85.8466 75.35 85.8106 74.124 86.0896 73.39C86.2986 74.977 86.2686 75.702 85.9546 77.246C85.5996 77.983 85.1776 77.817 85.1426 77.855V77.853Z" fill="#20101D"/>
<path d="M76.7527 74.606C77.4357 74.7 78.1127 74.714 78.7807 74.876C79.0437 74.939 79.3117 75.052 79.5937 75.08C78.9627 76.049 77.9527 76.239 76.8887 75.96C76.4167 75.835 75.0607 74.952 75.3987 74.606C75.8237 74.657 76.3327 74.549 76.7527 74.606Z" fill="#5C3D4B"/>
<path d="M69.9885 72.442C68.7615 73.16 72.4655 74.113 72.4225 72.984C73.6305 74.384 73.4275 72.699 74.7215 74.473C74.3185 74.394 74.2425 74.18 73.9765 73.931C73.0455 75.066 71.4885 75.226 70.1205 75.285C69.3785 74.76 68.5905 74.002 67.6865 73.796C68.2415 73.457 68.8665 73.07 69.3085 72.577C70.0995 72.252 69.9525 72.453 69.9855 72.442H69.9885Z" fill="#20101D"/>
<path d="M71.7486 72.036C72.1276 72.401 72.1546 72.669 72.4256 72.984C72.4686 74.113 68.7646 73.162 69.9906 72.442C70.0806 72.412 70.1426 72.705 71.7486 72.036Z" fill="#3E2C38"/>
<path d="M53.6204 35.3749C54.0754 35.8969 55.1644 36.0379 55.8524 36.0519C56.2744 36.3089 55.8194 36.5659 55.9194 36.7289L53.3504 38.4189C53.4664 38.8729 56.9434 38.7999 57.5444 38.7569C59.5024 38.6189 60.8864 38.1499 61.7394 36.1869C62.1344 37.0509 62.6114 37.8579 62.2814 38.8249C62.0374 39.5399 57.5934 43.3959 56.7354 44.3709L55.1124 55.9369C54.4574 55.8549 54.0434 56.0149 53.4904 56.3429C52.9874 53.4619 53.1004 52.4889 49.6344 52.5539C48.7464 50.7319 46.6204 49.9839 44.6974 50.2549C43.6444 46.9649 42.8324 43.1329 40.6384 40.5149C40.6114 40.4819 40.5604 39.8699 40.3004 39.7019C40.1074 39.5779 37.9684 39.7639 37.6624 38.8899C39.9724 37.3679 37.3534 38.7329 36.4434 37.9419C38.5454 36.7339 41.1584 36.3089 42.2604 35.2369C43.0514 35.4779 44.7814 36.2789 44.8304 37.0619C44.8304 37.4949 42.1144 38.4839 43.0054 38.6189C46.4904 37.3679 49.9944 36.1299 53.6264 35.3719L53.6204 35.3749Z" fill="url(#paint3_linear_81_1591)"/>
<path d="M59.7081 34.156C60.4991 34.779 57.8101 36.471 56.8671 37.809C56.5611 37.452 56.1711 37.135 55.9191 36.726C55.8191 36.564 56.2741 36.306 55.8521 36.049C55.1641 36.035 54.0731 35.895 53.6201 35.372C54.7331 35.312 55.9821 34.782 56.8671 34.56C57.3951 34.427 58.8771 34.354 59.7081 34.153V34.156Z" fill="#20101D"/>
<path d="M61.7362 36.187C60.8832 38.15 59.5022 38.619 57.5422 38.757C57.3952 38.391 57.1162 38.102 56.8652 37.809C57.8072 36.471 60.4962 34.779 59.7052 34.156C59.8732 34.17 59.8322 34.023 59.8412 34.021C60.5472 33.856 61.4192 35.499 61.7342 36.184L61.7362 36.187Z" fill="#3E2C38"/>
<path d="M55.9196 36.726C56.1716 37.135 56.5596 37.4519 56.8676 37.8089C57.1166 38.1019 57.3986 38.389 57.5446 38.757C56.9436 38.8 53.4666 38.8729 53.3506 38.4189L55.9196 36.729V36.726Z" fill="#5C3D4B"/>
<path d="M44.6896 50.255C46.6126 49.984 48.7406 50.732 49.6266 52.554C53.0926 52.489 52.9796 53.462 53.4826 56.343C53.7966 58.144 53.7676 60.085 54.1596 61.889C52.7596 63.511 53.0416 62.379 51.2516 61.618C51.0456 61.669 51.1646 62.436 51.1836 62.566C50.4446 62.387 48.6926 62.75 48.2076 62.701C43.4766 62.214 39.2986 51.013 44.6896 50.255Z" fill="#DF7F58"/>
<path d="M48.2074 52.554C48.0534 53.413 48.2724 54.277 48.3424 55.124C47.6924 55.36 47.1834 56.646 46.7204 57.288C46.0244 57.299 44.9474 56.711 44.9634 56.069C44.9844 55.124 47.3114 54.019 47.3974 53.703C47.6714 52.695 45.1504 52.43 43.7444 54.244C43.4274 54.653 43.6414 55.384 42.7964 55.53C42.6184 51.59 46.5394 49.984 48.2074 52.554Z" fill="#9E2E28"/>
<path d="M44.9604 56.072C44.9474 56.714 46.0224 57.301 46.7184 57.291C47.1404 57.765 47.2194 58.201 47.2594 58.238C48.1234 59.018 48.9794 59.812 49.8294 60.605C46.8994 60.462 45.0794 60.646 43.6064 57.832C44.0724 57.207 44.0424 55.891 44.9604 56.075V56.072Z" fill="#C65950"/>
<path d="M44.9604 56.072C44.0424 55.891 44.0724 57.207 43.6064 57.83C43.2134 57.077 42.8344 56.429 42.7944 55.53C43.6364 55.384 43.4254 54.656 43.7424 54.244C45.1474 52.43 47.6654 52.695 47.3954 53.703C47.3084 54.022 44.9824 55.127 44.9604 56.069V56.072Z" fill="#D76848"/>
<path d="M48.6135 58.103C48.3695 57.123 48.4245 56.115 48.3425 55.127C48.2725 54.279 48.0535 53.415 48.2075 52.557C48.9145 53.643 49.0825 56.505 49.4265 57.09C49.7215 57.591 53.0495 59.175 50.8475 58.915C49.9595 58.81 48.7325 58.125 48.6165 58.103H48.6135Z" fill="#79281F"/>
<path d="M48.3423 55.127C48.4243 56.115 48.3673 57.123 48.6133 58.103C48.1533 58.019 47.7063 58.19 47.2593 58.238C47.2193 58.201 47.1403 57.765 46.7183 57.291C47.1813 56.649 47.6903 55.363 48.3403 55.127H48.3423Z" fill="#D76848"/>
<path d="M76.4814 54.721C76.4194 55.227 76.9014 57.085 77.1584 57.697C77.2264 57.862 77.4024 58.474 77.4294 58.509C70.3424 63.216 68.7824 59.327 64.9834 53.708C68.6964 52.576 72.7124 54.166 76.4814 54.723V54.721Z" fill="#EF9A5F"/>
<path d="M76.3465 43.626C76.1025 44.549 74.4965 47.853 73.6415 47.821C73.6275 47.439 73.6495 47.054 73.6415 46.67C73.5845 46.532 73.2785 46.64 73.2345 46.602C71.9055 45.465 69.7115 46.142 67.9595 45.857C70.0345 44.933 72.1085 44.009 74.1825 43.084C74.9085 43.252 75.6395 43.382 76.3465 43.626Z" fill="#D76848"/>
<path d="M73.2344 46.602C73.2784 46.64 73.5844 46.532 73.6414 46.67C73.6494 47.052 73.6274 47.436 73.6414 47.821C73.6544 48.211 73.5924 49.787 73.3024 49.984C72.3954 50.128 71.5724 50.179 70.6654 49.984C73.0884 49.516 74.4944 50.163 71.6804 47.956C71.3204 47.894 70.8494 48.07 70.2584 48.092C68.9534 48.14 67.9324 48.387 66.6054 48.633C66.2024 48.709 65.3764 49.145 64.5094 49.039C63.5374 48.549 70.4944 46.724 71.4094 46.605C71.9054 46.54 72.7144 46.54 73.2344 46.605V46.602Z" fill="#3F1414"/>
<path d="M70.6653 49.984C70.4863 49.947 70.4373 49.757 70.2583 49.714V48.092C70.8493 48.07 71.3173 47.894 71.6803 47.956C74.4943 50.163 73.0883 49.519 70.6653 49.984Z" fill="#5E1713"/>
<path d="M70.2585 48.089V49.714C69.0565 49.416 67.8485 48.847 66.6055 48.63C67.9325 48.384 68.9535 48.138 70.2585 48.089Z" fill="#FBFBFD"/>
<path d="M79.4572 59.184C78.9542 59.14 78.1852 59.452 77.4292 58.507C77.4022 58.474 77.2262 57.859 77.1582 57.694C78.0412 57.708 78.7262 58.712 79.4572 59.184Z" fill="#AC4C40"/>
<path d="M51.183 62.5661C51.24 62.9311 52.889 69.1821 53.076 69.7371C55.386 76.5741 64.458 80.9451 68.566 89.7601C69.053 89.8301 72.484 85.9331 72.828 85.2941C72.988 84.9991 73.129 84.6631 73.234 84.3461C73.354 84.4951 73.383 85.8901 73.37 85.9681C73.37 85.9771 73.278 85.9141 73.234 86.1041C72.666 88.5821 70.212 91.0031 67.892 91.9211C63.735 84.0571 60.445 85.3561 52.673 83.1281C51.075 82.2371 48.797 70.2571 48.884 67.9091C48.827 67.7731 48.497 67.8711 48.478 67.8411C48.434 67.7761 48.386 67.6331 48.342 67.5701L48.207 62.7011C48.692 62.7531 50.444 62.3871 51.183 62.5661Z" fill="#AC4C40"/>
<path d="M52.6732 83.13C51.7682 85.581 51.6872 88.441 51.0502 91.043C50.5252 91.672 50.2732 90.271 50.2382 90.976C48.7512 88.988 47.1752 86.973 45.6372 85.023C46.1922 83.767 46.5252 82.429 46.8562 81.099C47.9312 76.756 48.2752 72.307 48.4782 67.841C48.4972 67.871 48.8242 67.773 48.8842 67.909C48.7972 70.257 51.0722 82.237 52.6732 83.128V83.13Z" fill="#C65950"/>
<path d="M54.1593 61.889C54.2623 61.954 54.4193 62.606 54.4303 62.701C55.0373 68.301 52.5673 69.287 60.5183 72.848C59.6003 73.861 63.3263 74.971 65.2513 75.824C67.3073 76.737 69.8143 77.907 71.9483 78.53C72.0973 78.573 73.3703 78.706 74.9923 79.071C75.4173 79.166 76.6603 79.51 76.8173 79.748C78.9593 79.995 80.7383 79.911 82.4993 79.613C83.3413 78.852 83.5193 79.529 85.1363 77.855C85.1713 77.82 85.5943 77.985 85.9493 77.246C86.2633 75.702 86.2923 74.977 86.0843 73.39C86.0513 73.143 86.0843 72.956 86.0843 72.713H86.2193C88.6083 78.516 81.6323 83.098 74.1123 79.342C73.7603 80.861 73.7033 82.941 73.2323 84.346C73.1263 84.663 72.9853 84.996 72.8263 85.294C68.2383 77.809 62.6683 76.147 55.9823 71.494C54.5713 70.511 54.0403 69.333 53.0733 69.737C52.8863 69.182 51.2353 62.934 51.1803 62.566C51.1613 62.436 51.0423 61.669 51.2483 61.618C53.0383 62.379 52.7563 63.511 54.1573 61.889H54.1593Z" fill="#5E1713"/>
<path d="M73.2344 86.1071V87.0541C73.2434 87.6851 73.2244 88.3161 73.2344 88.9471C73.0854 89.0911 73.0203 89.4241 72.9643 89.6241C72.1973 92.3781 70.3183 97.0141 68.7693 99.3651C68.4873 99.7931 65.7034 103.221 65.4544 103.289C64.0434 103.514 57.9024 101.334 57.3384 101.531C57.2364 101.567 57.2714 101.707 57.2714 101.802C57.1874 101.702 56.7534 101.301 56.7294 101.261C56.2064 100.405 55.9824 99.3651 55.2404 98.1491C53.7104 95.6331 51.9934 93.3291 50.2354 90.9781C50.2714 90.2741 50.5224 91.6741 51.0484 91.0461C51.6874 88.4411 51.7683 85.5811 52.6703 83.1331C60.4423 85.3621 63.7354 84.0621 67.8894 91.9261C70.2104 91.0081 72.6664 88.5841 73.2324 86.1091L73.2344 86.1071Z" fill="#DF7F58"/>
<path d="M72.8311 85.294C72.4871 85.931 69.0561 89.83 68.5691 89.76C64.4601 80.945 55.3891 76.574 53.0791 69.737C54.0451 69.333 54.5761 70.514 55.9871 71.494C62.6731 76.144 68.2441 77.809 72.8311 85.294Z" fill="#79281F"/>
<path d="M73.7764 98.6881C73.6654 99.5411 73.5494 100.451 73.2344 101.258C71.2904 106.235 62.7254 106.606 58.8964 104.369C58.0754 103.89 57.5334 103.313 57.1384 102.476C56.9484 102.078 56.8004 101.697 56.7324 101.258C56.7564 101.298 57.1894 101.699 57.2734 101.799C59.4294 104.375 64.3664 104.572 67.4884 103.963C68.0034 103.562 68.1984 102.504 68.3684 102.273C68.5794 101.986 68.7614 102.089 68.7744 102.07C68.3984 104.074 69.4894 103.817 70.8704 102.883C71.4474 102.493 73.5134 100.028 73.1024 99.3651C73.3674 99.0451 73.5464 98.6231 73.7794 98.6881H73.7764Z" fill="#9E2E28"/>
<path d="M74.0473 97.605C74.0393 97.827 73.8444 98.173 73.7764 98.688C73.5434 98.623 73.3673 99.045 73.0993 99.365C72.6414 99.915 72.1404 100.44 71.6104 100.922C71.7454 99.72 71.9674 98.531 72.1514 97.337C72.5444 94.794 73.1883 92.216 72.9643 89.624C73.0203 89.424 73.0854 89.091 73.2344 88.947C73.2804 91.842 73.6843 94.726 74.0473 97.605Z" fill="#382125"/>
<path d="M65.525 74.606C65.614 75.21 64.813 75.234 65.254 75.824C63.329 74.969 59.602 73.861 60.52 72.848C61.373 73.23 64.726 74.457 65.525 74.606Z" fill="#3F1414"/>
<path d="M68.7724 99.362C68.9864 100.064 67.9384 101.561 68.9074 101.797C68.8664 101.859 68.8124 102.008 68.7724 102.068C68.7584 102.087 68.5774 101.984 68.3654 102.271C68.1954 102.501 68.0034 103.562 67.4854 103.96C64.3634 104.57 59.4294 104.372 57.2714 101.797C57.2714 101.702 57.2364 101.561 57.3384 101.526C57.9024 101.328 64.0434 103.508 65.4544 103.283C65.7014 103.216 68.4874 99.787 68.7694 99.36L68.7724 99.362Z" fill="#C65950"/>
<path d="M72.154 97.334C71.729 98.173 72.016 97.337 71.815 97.199C71.477 96.963 69.76 100.538 68.907 101.799C67.938 101.564 68.986 100.066 68.772 99.365C70.318 97.014 72.2 92.378 72.966 89.624C73.191 92.213 72.547 94.794 72.154 97.337V97.334Z" fill="#AC4C40"/>
<path d="M72.1542 97.3341C71.9702 98.5281 71.7482 99.7171 71.6122 100.919C72.1432 100.44 72.6412 99.9121 73.1022 99.3621C73.5132 100.026 71.4442 102.49 70.8702 102.88C69.4892 103.814 68.3982 104.074 68.7742 102.068C68.8152 102.008 68.8692 101.859 68.9102 101.797C69.7632 100.535 71.4802 96.9631 71.8182 97.1961C72.0192 97.3341 71.7312 98.1711 72.1572 97.3311L72.1542 97.3341Z" fill="#D76848"/>
<path d="M87.3052 63.514C87.5062 64.933 87.4812 65.607 86.7642 66.896L86.0872 66.084C86.1302 65.983 85.9052 66.059 86.0872 65.677C86.1252 65.596 86.9722 65.16 86.4932 64.055C87.7852 64.09 86.5852 62.891 86.0872 62.433L85.9512 60.269C86.6822 60.955 87.1672 62.541 87.3052 63.516V63.514Z" fill="#382125"/>
<path d="M85.951 69.0601C85.71 71.0581 84.762 70.7251 84.329 71.0881C84.015 71.0721 83.695 71.1121 83.381 71.0881C83.105 71.0661 82.902 71.0881 82.637 70.9531C81.342 69.6551 79.845 68.6431 78.374 67.5701C80.69 68.7751 83.303 69.0491 85.884 68.6531C86.217 68.9051 85.973 68.8811 85.951 69.0601Z" fill="#20101D"/>
<path d="M84.465 59.59C84.576 59.603 85.236 59.712 85.277 59.725C85.778 59.879 85.675 60.004 85.954 60.267L86.089 62.43C85.171 61.586 83.446 60.876 82.233 60.673C80.738 62.439 79.742 62.078 79.46 62.162L81.556 59.592C82.458 59.668 83.617 59.49 84.465 59.592V59.59Z" fill="#61403F"/>
<path d="M86.0872 62.43C86.5852 62.888 87.7852 64.088 86.4932 64.053C86.3332 63.684 86.0002 63.554 85.6802 63.376C85.1232 63.064 84.5432 62.931 83.9232 62.834C80.8762 62.36 79.9642 62.834 77.2942 63.782C77.1612 63.828 77.0232 63.866 76.8882 63.917C76.2862 64.139 75.0622 64.952 74.5882 65C72.9122 65.171 73.4622 63.703 73.7082 63.511C73.9412 63.329 77.4942 62.742 79.4572 62.157C79.7392 62.073 80.7362 62.433 82.2302 60.668C83.4442 60.873 85.1662 61.583 86.0872 62.425V62.43Z" fill="#382125"/>
<path d="M78.5122 65.1359C78.5992 65.7129 79.0352 66.3839 78.3772 66.4219C79.9072 67.5589 81.6292 67.8739 83.5172 67.8439C86.8072 67.7919 86.0162 67.3129 85.9512 66.6249C85.9382 66.4709 85.6802 66.1779 85.6802 66.1509C85.6862 66.0289 86.0792 66.1049 86.0872 66.0839L86.7642 66.8959L86.4932 69.0599H85.9512C85.9732 68.8809 86.2172 68.9049 85.8842 68.6529C83.3032 69.0519 80.6902 68.7779 78.3742 67.5699C77.8522 67.1909 77.5002 67.0389 77.2912 66.8929C77.2152 66.8389 77.5052 66.7249 77.3592 66.6219C77.2562 66.5489 76.3242 66.2489 76.2762 66.2159C76.2462 66.1969 75.8802 65.7259 75.8022 65.6749L78.5072 65.1329L78.5122 65.1359Z" fill="#E17478"/>
<path d="M81.8954 64.9999C82.5394 66.1779 82.6424 67.8109 83.5174 67.8409C81.6274 67.8709 79.9074 67.5589 78.3774 66.4189C79.0354 66.3839 78.5994 65.7129 78.5124 65.1329C78.5074 65.0899 78.5184 65.0409 78.5124 64.9979C79.6334 65.0539 80.7794 64.9189 81.8954 64.9979V64.9999Z" fill="#E79DAC"/>
<path d="M83.6525 65.2709C85.7025 65.7989 84.5765 66.0669 85.9515 66.6249C86.0165 67.3099 86.8075 67.7899 83.5175 67.8439C82.6425 67.8139 82.5395 66.1809 81.8955 65.0029C82.4125 65.0379 83.1515 65.1439 83.6525 65.2739V65.2709Z" fill="#F2C4CE"/>
<path d="M78.5124 64.594V65C78.5184 65.044 78.5074 65.092 78.5124 65.136L75.8074 65.677C75.4204 65.434 74.9274 65.331 74.5884 65C75.0624 64.952 76.2864 64.142 76.8884 63.917C77.0964 64.063 78.4234 64.589 78.5104 64.594H78.5124Z" fill="#AA374F"/>
<path d="M86.0873 65.6769C85.9053 66.0589 86.1303 65.9829 86.0873 66.0839C86.0793 66.1049 85.6863 66.0289 85.6803 66.1509C85.6803 66.1779 85.9353 66.4709 85.9513 66.6249C84.5763 66.0699 85.7023 65.8019 83.6523 65.2709C83.8553 64.3129 85.5153 65.1169 86.0873 65.6769Z" fill="#AA374F"/>
<path d="M86.4932 64.055C86.9722 65.163 86.1272 65.596 86.0872 65.677C85.5152 65.117 83.8532 64.313 83.6522 65.271C83.1512 65.141 82.4122 65.038 81.8952 65C80.7792 64.922 79.6332 65.057 78.5122 65V64.594C78.7072 64.602 81.6922 64.08 82.3692 64.053C82.6292 64.042 83.3792 64.564 83.5192 64.053C84.5242 64.551 83.9452 64.115 84.4672 63.646C84.8442 63.638 85.3422 63.533 85.6862 63.376C86.0052 63.554 86.3382 63.682 86.4982 64.053L86.4932 64.055Z" fill="#CE5A66"/>
<path d="M83.5172 64.055C83.3792 64.567 82.6292 64.044 82.3662 64.055C81.6892 64.08 78.7052 64.605 78.5102 64.597C78.4232 64.591 77.0962 64.066 76.8882 63.92C77.0232 63.868 77.1612 63.83 77.2942 63.784C78.5942 63.644 79.6332 62.91 81.0152 62.972C82.5172 63.04 82.8532 63.725 83.5172 64.055Z" fill="#CE5A66"/>
<path d="M83.9234 62.837C82.3394 63.476 83.3414 63.676 84.4654 63.649C83.9424 64.118 84.5244 64.554 83.5174 64.055C82.8514 63.725 82.5154 63.042 81.0154 62.972C79.6364 62.91 78.5944 63.641 77.2944 63.784C79.9644 62.837 80.8764 62.363 83.9234 62.837Z" fill="#E89698"/>
<path d="M85.6806 63.3779C85.3376 63.5349 84.8416 63.6379 84.4626 63.6489C83.3386 63.6759 82.3366 63.4759 83.9206 62.8369C84.5436 62.9339 85.1236 63.0669 85.6786 63.3779H85.6806Z" fill="#FAD6D2"/>
</g>
</g>
<defs>
<linearGradient id="paint0_linear_81_1591" x1="99.971" y1="113.682" x2="112.62" y2="114.987" gradientUnits="userSpaceOnUse">
<stop stop-color="#147695"/>
<stop offset="1" stop-color="#469BB7"/>
</linearGradient>
<linearGradient id="paint1_linear_81_1591" x1="27.6155" y1="91.5171" x2="53.458" y2="126.079" gradientUnits="userSpaceOnUse">
<stop stop-color="#B48BB3"/>
<stop offset="1" stop-color="#8C6D92"/>
</linearGradient>
<linearGradient id="paint2_linear_81_1591" x1="71.0279" y1="53.2611" x2="56.318" y2="54.2794" gradientUnits="userSpaceOnUse">
<stop stop-color="#D67B58"/>
<stop offset="1" stop-color="#CB5E51"/>
</linearGradient>
<linearGradient id="paint3_linear_81_1591" x1="39.2656" y1="43.9373" x2="58.0565" y2="46.3204" gradientUnits="userSpaceOnUse">
<stop stop-color="#201B31"/>
<stop offset="1" stop-color="#7D4042"/>
</linearGradient>
<clipPath id="clip0_81_1591">
<rect width="120" height="120" fill="white"/>
</clipPath>
</defs>
</svg>
