<svg width="120" height="120" viewBox="0 0 120 120" fill="none" xmlns="http://www.w3.org/2000/svg">
<g clip-path="url(#clip0_81_888)">
<mask id="mask0_81_888" style="mask-type:luminance" maskUnits="userSpaceOnUse" x="-114" y="-4" width="606" height="124">
<path d="M491.645 -3.50305H-113.52V120H491.645V-3.50305Z" fill="white"/>
</mask>
<g mask="url(#mask0_81_888)">
<path d="M86.041 83.049C86.041 83.129 86.039 83.2109 86.041 83.2899C86.061 83.8769 86.7969 84.6909 86.6449 85.8869C85.9809 86.9389 85.7929 88.9799 85.1959 89.0859C85.1959 88.4679 85.0509 87.9749 85.0749 87.2749C85.1279 85.7919 85.5289 84.2439 85.5579 82.7469L86.041 83.049Z" fill="#CCDCEC"/>
<path d="M72.7588 82.566C72.9668 83.216 73.2468 83.431 73.4838 83.894C73.9398 84.79 74.6518 86.027 75.2948 86.792C75.2128 87.21 75.3138 87.524 75.1738 87.939C75.2608 88.038 75.3888 88.246 75.4148 88.362C74.5678 90.202 72.6188 92.535 71.0688 93.795C71.0348 93.822 70.5738 94.109 70.3438 94.278C69.7618 94.703 69.3058 95.032 68.6538 95.365C68.7018 94.749 69.4118 94.66 68.8948 94.278C70.5418 92.916 73.5608 90.535 74.3288 88.724C74.4348 88.475 74.8238 87.852 74.8118 87.698C74.1038 86.502 72.3818 83.914 72.0348 82.807C72.9378 82.706 71.8028 81.986 72.5178 81.6C72.5218 81.936 72.6598 82.252 72.7588 82.566Z" fill="#F7E9E0"/>
<path d="M68.8949 94.278C69.4119 94.66 68.7019 94.749 68.6539 95.365C68.4149 95.488 67.9269 95.604 67.6879 95.727C65.6059 96.79 62.4999 97.21 61.6499 101.282C61.7079 100.664 61.5919 100.026 61.7709 99.41C63.3769 96.191 65.6619 95.336 68.8949 94.278Z" fill="#EFF3F7"/>
<path d="M42.8138 35.5949C42.5018 36.2999 41.4008 37.7639 41.0028 39.2779C40.7948 40.0699 40.3338 43.1829 40.7608 43.0819C40.3188 46.2599 40.4658 49.6869 40.7608 52.8619L40.2778 52.9829C40.3458 52.6539 40.4878 52.9099 40.5198 52.0769C40.5218 51.9949 40.2778 50.8379 40.2778 50.4469C40.2778 47.6939 40.3308 44.8199 40.2778 42.2969C40.2488 40.9299 39.4688 39.2009 40.7608 36.0179C40.8698 35.7499 42.3428 33.0229 42.5118 33.0599C42.7408 33.1079 42.4538 34.4649 44.0208 31.8519C43.7748 33.1199 43.3328 34.4189 42.8138 35.5949Z" fill="#351A25"/>
<path d="M36.4139 89.69C36.7599 91.127 37.4958 93.424 38.2248 94.641C38.2448 94.674 38.2009 95.121 38.5269 95.365C41.5629 95.689 44.8498 95.585 47.5229 93.916C48.7399 94.732 54.2169 97.312 54.5259 97.961C55.6319 105.305 56.9939 112.608 57.7859 119.998H52.9569C52.4759 118.727 51.6959 116.853 51.0249 115.711C50.2489 114.393 48.9939 113.088 48.2469 112.028C46.4289 109.444 44.4169 106.945 42.6929 104.3C41.7579 102.868 40.7219 101.332 39.9159 99.833C39.6119 99.268 39.3529 98.608 39.0709 98.022C37.9939 95.795 36.2309 91.825 36.1729 89.569L36.4139 89.69Z" fill="#76C6C4"/>
<path d="M35.4478 97.2969C35.4838 97.3859 35.5328 97.4489 35.5688 97.5389C35.8098 98.1159 36.1558 98.6589 36.4138 99.2289C39.6478 106.363 43.5428 113.19 47.4018 119.998C42.2898 119.995 37.1798 120.002 32.0668 119.998C32.1568 116.793 31.7648 113.596 31.7048 110.398C31.6228 106.102 31.8638 101.83 31.9468 97.5389C33.0978 97.3989 34.2958 97.0579 35.4478 97.2969Z" fill="url(#paint0_linear_81_888)"/>
<path d="M36.1728 89.569C36.2308 91.825 37.9938 95.795 39.0708 98.022L35.5688 97.539C35.5328 97.449 35.4838 97.386 35.4478 97.297C35.2088 96.715 34.7548 95.865 34.6028 95.365C34.4598 94.897 34.4628 93.206 34.1798 93.071C32.6658 93.453 31.1538 93.851 29.6518 94.278C27.1528 94.991 17.4688 98.425 15.8268 99.591C15.2668 99.99 13.8678 102.233 13.8338 102.791C13.8148 103.112 14.2428 103.873 14.4378 104.421C12.9478 103.52 12.3898 103.82 12.2648 105.508C12.1008 107.732 12.9428 108.652 14.0758 110.338C15.0728 111.823 17.1908 114.062 17.6978 115.047C18.3168 116.247 18.7798 118.578 19.3888 119.998H18.9058C17.3118 118.005 15.6428 116.114 13.8338 114.322C12.4888 112.989 10.7718 111.171 9.12484 110.398C8.70784 111.169 13.1508 118.271 13.9548 119.273C12.3258 118.025 10.6958 116.778 9.06484 115.53L12.3848 119.998C10.0498 119.993 7.71684 120.01 5.38184 119.998C6.62784 114.687 7.52884 109.543 9.48784 104.421C12.1268 99.898 12.0858 97.939 17.3958 95.848C19.3858 95.066 32.1688 91.407 32.6708 90.777C33.8738 90.427 35.0038 90.006 36.1728 89.569Z" fill="#107088"/>
<path d="M37.0181 99.3469C37.5711 99.9869 38.5541 101.956 39.0711 102.849C40.6811 105.46 45.5981 110.722 48.2471 112.026C48.9941 113.086 50.2491 114.39 51.0251 115.709C51.6961 116.851 52.4761 118.725 52.9571 119.995H47.4021C43.5451 113.187 39.6481 106.36 36.4141 99.2269C36.8851 98.6689 36.8171 99.1159 37.0181 99.3469Z" fill="#76C6C4"/>
<path d="M31.947 97.5389C31.864 101.83 31.623 106.1 31.705 110.398C31.765 113.596 32.157 116.793 32.067 119.998H30.86C30.79 115.957 30.597 111.895 30.377 107.862C30.372 107.771 30.14 107.834 30.135 107.742C30.048 106.145 30.217 104.511 30.135 102.912C30.13 102.82 29.899 102.883 29.894 102.791C29.819 101.289 29.841 99.7749 29.773 98.2629C29.766 98.1039 29.78 97.9389 29.773 97.7799C30.488 97.6209 31.232 97.6259 31.947 97.5389Z" fill="#99C6BA"/>
<path d="M45.1079 91.2599C45.1849 91.2739 45.2699 91.2529 45.3489 91.2599C46.5129 92.4839 48.5809 93.5249 50.0589 94.3989C52.2849 95.7149 55.9239 96.5389 55.6129 99.4709C55.9629 102.692 56.7259 105.832 57.3029 109.01C57.5879 110.579 57.9969 112.144 58.2689 113.719C58.6289 115.798 58.9599 117.889 59.1149 119.998H57.7859C56.9939 112.61 55.6319 105.307 54.5259 97.9609C54.2169 97.3119 48.7399 94.7319 47.5229 93.9159C47.4049 93.8369 47.2769 93.7569 47.1609 93.6749C46.8059 93.4239 43.6079 90.9869 45.1079 91.2599Z" fill="#EFF3F7"/>
<path d="M13.8368 114.32C14.8628 116.329 16.8018 117.872 17.8218 119.995C16.7348 119.995 15.6478 119.998 14.5608 119.995C14.3868 119.732 14.1558 119.517 13.9578 119.271C13.1528 118.271 8.70977 111.166 9.12777 110.396C10.7748 111.169 12.4918 112.987 13.8368 114.32Z" fill="#39B4BD"/>
<path d="M29.7752 98.2629C29.8432 99.7749 29.8212 101.289 29.8962 102.791C29.9012 102.883 30.1332 102.82 30.1382 102.912C30.2202 104.511 30.0512 106.145 30.1382 107.742C30.1432 107.834 30.3742 107.771 30.3792 107.862C30.5992 111.893 30.7922 115.957 30.8622 119.998H27.6022L26.0322 98.3839C27.7252 98.1469 29.8292 97.4469 29.7752 98.2629Z" fill="#F8DEA8"/>
<path d="M29.655 96.452C29.669 96.906 29.754 97.343 29.775 97.78C29.783 97.939 29.768 98.104 29.775 98.263C29.829 97.447 27.725 98.147 26.032 98.384C24.931 98.538 23.871 98.662 22.772 98.867C22.238 98.968 18.889 99.471 18.787 99.772C21.434 106.322 23.064 113.207 24.946 119.998H23.98C23.306 117.935 22.709 115.844 22.048 113.779C22.016 113.678 21.84 113.76 21.806 113.658C21.755 113.501 21.978 113.451 21.927 113.296C21.912 113.25 21.461 112.497 21.444 112.451C21.391 112.296 21.618 112.241 21.565 112.089C20.15 108.005 18.416 103.926 16.071 100.316C15.351 100.796 14.561 102.042 14.682 102.912C14.762 103.482 18.737 110.572 19.995 113.115C19.473 113.154 19.852 113.656 19.995 114.926C19.534 115.011 19.862 114.296 19.753 113.9C19.724 113.796 18.848 112.555 18.787 111.968C17.788 110.85 15.071 105.626 14.682 105.266C14.769 104.605 14.455 104.462 14.441 104.421C14.245 103.873 13.818 103.112 13.837 102.791C13.871 102.233 15.269 99.99 15.829 99.591C17.471 98.425 27.155 94.991 29.655 94.278C29.672 95.003 29.631 95.73 29.655 96.452Z" fill="#E9AC5E"/>
<path d="M22.7721 98.864C24.2771 105.851 25.8851 112.835 26.2741 119.995H24.9461C23.0641 113.204 21.4341 106.319 18.7871 99.77C18.8891 99.468 22.2381 98.966 22.7721 98.864Z" fill="#F8DEA8"/>
<path d="M26.032 98.3839L27.602 119.998H26.274C25.887 112.837 24.277 105.853 22.772 98.8669C23.871 98.6619 24.931 98.5379 26.032 98.3839Z" fill="#F2C06C"/>
<path d="M23.9803 119.995H23.2553C22.2513 117.667 21.1183 115.385 19.9953 113.113C18.7373 110.57 14.7623 103.479 14.6823 102.909C14.5613 102.04 15.3513 100.794 16.0713 100.313C18.4133 103.924 20.1503 108.003 21.5653 112.086C21.6183 112.238 21.3913 112.294 21.4443 112.448C21.4613 112.494 21.9123 113.248 21.9273 113.294C21.9783 113.448 21.7553 113.499 21.8063 113.656C21.8403 113.757 22.0163 113.675 22.0483 113.777C22.7093 115.841 23.3063 117.933 23.9803 119.995Z" fill="#F2C06C"/>
<path d="M23.2552 119.995H20.9612C20.4062 118.331 20.1862 116.626 19.9952 114.924C19.8522 113.654 19.4732 113.151 19.9952 113.113C21.1182 115.385 22.2482 117.667 23.2552 119.995Z" fill="#CF854E"/>
<path d="M13.9579 119.271C14.1559 119.517 14.3869 119.732 14.5609 119.995H12.3879L9.06689 115.528C10.6969 116.775 12.3269 118.023 13.9579 119.271Z" fill="#39B4BD"/>
<path d="M109.585 119.995C108.819 119.998 108.056 119.995 107.29 119.995C108.949 118.483 111.217 115.745 110.913 118.003C110.86 118.389 109.72 119.469 109.585 119.995Z" fill="#F8DEA8"/>
<path d="M18.9079 119.995H17.8219C16.8019 117.872 14.8629 116.329 13.8369 114.32C15.6459 116.112 17.3139 118.003 18.9079 119.995Z" fill="#95ACA0"/>
<path d="M32.6708 90.777C32.1688 91.407 19.3858 95.066 17.3958 95.848C12.0858 97.939 12.1268 99.898 9.48779 104.421C11.3158 99.644 11.9768 97.575 16.9128 95.607C20.5138 94.17 28.5168 91.984 32.6708 90.777Z" fill="#3494A5"/>
<path d="M45.1079 82.928C44.2019 83.602 42.8329 83.945 41.7269 84.619C41.7049 84.633 41.6139 84.566 41.3649 84.739C39.9499 85.727 38.0249 88.659 36.4139 89.69L36.1729 89.569C35.0039 90.006 33.8739 90.427 32.6709 90.777C32.7119 90.639 32.8059 90.634 32.7919 90.415C36.9769 89.717 38.7879 86.587 41.5459 83.773C41.8789 83.597 44.4099 83.133 45.1079 82.928Z" fill="#B9E0E9"/>
<path d="M45.1081 91.26C43.6081 90.987 46.8061 93.424 47.1611 93.675C44.3351 94.829 41.2221 94.643 38.2251 94.641C37.4961 93.424 36.7601 91.127 36.4141 89.69C38.0251 88.659 39.9501 85.727 41.3651 84.739C42.3571 87.046 43.2921 89.458 45.1081 91.26Z" fill="#107088"/>
<path d="M42.6928 104.298C44.4168 106.942 46.4288 109.442 48.2468 112.026C45.5978 110.722 40.6808 105.462 39.0708 102.849C40.2028 102.827 41.2658 104.465 42.6928 104.298Z" fill="#39B4BD"/>
<path d="M39.9161 99.8299C40.7221 101.33 41.7581 102.866 42.6931 104.298C41.2661 104.465 40.2031 102.827 39.0711 102.849C38.5541 101.956 37.5711 99.9869 37.0181 99.3469C37.9741 99.5189 38.9431 100.164 39.9161 99.8299Z" fill="#3494A5"/>
<path d="M47.5226 93.9159C44.8496 95.5849 41.5626 95.6889 38.5266 95.3649C38.2006 95.1209 38.2446 94.6739 38.2246 94.6409C41.2216 94.6409 44.3346 94.8289 47.1606 93.6749C47.2766 93.7569 47.4046 93.8369 47.5226 93.9159Z" fill="#3494A5"/>
<path d="M39.0708 98.0219C39.3528 98.6079 39.6118 99.2679 39.9158 99.8329C38.9428 100.166 37.9738 99.5209 37.0178 99.3499C36.8168 99.1179 36.8848 98.6709 36.4138 99.2289C36.1558 98.6589 35.8098 98.1159 35.5688 97.5389L39.0708 98.0219Z" fill="#3494A5"/>
<path d="M35.4479 97.297C34.2959 97.058 33.0979 97.399 31.9469 97.539C31.2319 97.626 30.4879 97.621 29.7729 97.78C29.7509 97.343 29.6669 96.906 29.6519 96.452L34.6029 95.365C34.7549 95.865 35.2089 96.715 35.4479 97.297Z" fill="#8BA28B"/>
<path d="M34.6028 95.3649L29.6518 96.4519C29.6278 95.7299 29.6688 95.0029 29.6518 94.2779C31.1518 93.8509 32.6658 93.4529 34.1798 93.0709C34.4628 93.2059 34.4598 94.8969 34.6028 95.3649Z" fill="#4A7F83"/>
<path d="M14.682 105.264C15.071 105.624 17.788 110.847 18.787 111.965C18.848 112.55 19.724 113.794 19.753 113.897C19.862 114.293 19.534 115.008 19.995 114.924C20.186 116.626 20.406 118.331 20.961 119.995H19.753C19.621 118.686 18.884 115.728 18.305 114.682C17.582 114.248 15.399 110.408 15.165 110.275C14.796 110.065 14.445 110.41 14.078 110.335C12.946 108.65 12.103 107.73 12.267 105.506L14.501 104.902C14.6 104.924 14.477 105.076 14.682 105.264Z" fill="#76C6C4"/>
<path d="M19.7532 119.995H19.3912C18.7832 118.575 18.3192 116.245 17.7012 115.045L18.3052 114.682C18.8822 115.728 19.6212 118.686 19.7532 119.995Z" fill="#99C6BA"/>
<path d="M18.3051 114.682L17.7011 115.045C17.1941 114.059 15.0761 111.821 14.0781 110.335C14.4451 110.41 14.7961 110.065 15.1651 110.275C15.3991 110.408 17.5821 114.248 18.3051 114.682Z" fill="#76C6C4"/>
<path d="M14.4411 104.419C14.4551 104.46 14.7691 104.602 14.6821 105.264C14.4771 105.076 14.6001 104.924 14.5011 104.902L12.2671 105.506C12.3931 103.817 12.9511 103.518 14.4411 104.419Z" fill="#3494A5"/>
<path d="M41.7267 84.619C41.9127 85.679 42.4437 86.582 42.9347 87.517C43.4387 88.478 44.6557 90.53 45.3487 91.26C45.2697 91.253 45.1847 91.274 45.1077 91.26C43.2917 89.458 42.3567 87.046 41.3647 84.739C41.6137 84.566 41.7047 84.633 41.7267 84.619Z" fill="#87C8DA"/>
<path d="M46.6781 82.324C46.1631 83.841 45.362 85.203 44.746 86.671C44.668 86.734 43.2461 87.258 42.9351 87.517C42.4441 86.582 41.9131 85.679 41.7271 84.619C42.8311 83.945 44.2021 83.602 45.1081 82.928C45.6391 82.771 46.1341 82.455 46.6781 82.324Z" fill="#107088"/>
<path d="M42.814 64.9369C43.314 66.8759 43.932 68.6629 44.987 70.3709C44.903 70.3559 44.524 70.2669 44.504 70.2499C44.473 70.2209 44.565 69.9239 44.444 69.8879C44.354 69.8609 43.386 70.3419 42.633 69.8879C41.319 69.0979 42.333 66.3329 42.331 64.6949L42.814 64.9369Z" fill="#0F0B0C"/>
<path d="M40.1567 59.2619C41.9977 60.6889 40.9007 61.1159 41.1227 62.0989C41.2877 62.8289 42.3257 62.8329 42.3307 64.6949C42.3327 66.3299 41.3187 69.0979 42.6327 69.8879C43.3857 70.3419 44.3537 69.8609 44.4437 69.8879C44.5647 69.9239 44.4727 70.2209 44.5037 70.2499C40.2847 71.8269 41.5677 66.6419 41.8477 64.1519C40.9757 62.6039 40.2757 62.7049 40.7607 60.5299C40.5387 59.7759 39.6067 59.9649 39.9157 59.1409C39.9467 59.1679 40.1207 59.2329 40.1567 59.2619Z" fill="#F9E7CE"/>
<path d="M79.0377 59.7449C80.6537 62.9159 79.4187 62.0819 76.5017 64.0309C76.3327 64.6079 76.4387 65.2049 76.3807 65.7819C76.3037 66.5599 76.1087 68.6219 76.3807 69.2229C76.5747 69.6459 78.0087 70.2059 78.3127 70.7329C78.3127 70.7709 78.3177 70.8149 78.3127 70.8529C77.1177 70.2959 75.3597 69.9579 75.3547 68.3179C74.7607 69.8679 73.3527 71.2829 72.1547 72.4229L72.0347 72.3019C74.8957 68.8559 75.4007 67.9169 76.3807 63.4279C76.6297 62.8939 76.8397 63.0239 76.8637 63.0049C78.2547 61.9089 79.9557 62.5199 78.1927 60.3479C78.4727 60.1289 78.7987 59.9399 79.0377 59.7449Z" fill="#F9E7CE"/>
<path d="M94.1307 94.641C93.9527 98.403 95.2417 95.232 95.7007 95.909C96.0417 96.411 94.4667 104.718 94.1307 105.931C93.6017 107.838 91.9627 111.577 91.7157 112.451C91.7117 112.47 91.9067 112.552 91.8367 112.813C91.7567 113.103 90.1677 117.674 91.6557 117.22C92.2597 117.037 97.3017 107.578 97.9947 106.293C98.2077 105.897 98.2867 105.221 98.4777 104.965C99.4027 103.726 97.7297 107.037 98.4777 107.319C97.9197 108.657 96.4537 110.903 96.5457 111.847C95.3097 112.912 94.3167 116.013 93.1647 117.764C93.1437 118.244 94.1817 118.776 94.7347 119.394C94.8847 119.563 95.0007 119.792 95.0967 119.998C84.7947 120.01 74.4907 119.993 64.1857 119.998C64.2707 117.897 64.0847 115.757 64.1857 113.658C64.1907 113.567 64.4227 113.629 64.4277 113.538C64.5887 110.277 64.7677 107.017 64.9097 103.757C64.9227 103.66 65.1397 103.733 65.1517 103.636C65.5497 100.28 65.2797 98.649 67.6877 95.727C67.9267 95.604 68.4147 95.488 68.6537 95.365C69.3057 95.032 69.7617 94.703 70.3437 94.278C70.2957 94.807 70.8457 94.271 70.8867 94.278C71.1527 94.332 71.4117 95.87 71.4307 96.15C71.6097 98.647 70.1627 99.048 70.3437 102.308C70.3587 102.559 71.0397 106.404 71.1887 107.259C71.4477 108.717 72.8217 109.596 70.8267 114.141C70.4187 115.071 68.4507 117.537 68.8947 118.367C69.0907 118.735 69.8007 118.894 70.1627 118.79C70.4547 118.708 72.6577 115.24 73.7247 113.9C75.3767 111.825 77.1807 109.86 78.8567 107.802C80.3727 107.691 83.3987 107.358 83.2037 109.01C85.0967 108.766 82.4157 112.335 83.2637 113.236C82.8867 114.479 82.5707 115.769 81.9357 116.919C82.1457 117.162 82.0997 117.109 82.2977 116.919C82.5197 116.704 84.7177 111.978 84.9547 111.364C85.8867 108.942 86.7047 105.653 87.1877 103.093C87.7847 105.522 86.9687 108.118 87.0067 110.519C87.0117 110.838 87.3277 111.429 87.3687 111.726C87.3737 111.767 87.0697 111.874 87.1277 112.209C87.3037 113.241 88.4537 113.827 88.8787 113.719C89.9677 113.441 89.8447 108.606 90.0257 107.5C90.2957 105.846 91.1437 104.197 91.4747 102.55C91.9957 99.966 92.3797 97.324 92.4407 94.701L92.8027 94.037C93.2427 94.223 93.7037 94.472 94.1307 94.641Z" fill="#F8DEA8"/>
<path d="M106.686 99.106C108.871 101.871 109.499 105.409 111.153 108.464C112.327 112.272 112.948 116.254 114.293 119.995C112.723 120.005 111.153 119.99 109.584 119.995C109.719 119.469 110.859 118.389 110.912 118.003C111.216 115.745 108.948 118.483 107.289 119.995H106.082L110.127 111.784C107.562 114.856 104.452 117.329 101.493 119.995H99.8035C103.046 117.005 106.302 114.079 109.342 110.879C109.538 110.246 108.692 110.929 107.712 111.664C106.147 112.835 102.945 115.827 101.252 117.339C100.061 117.501 99.3254 117.501 100.769 116.916C100.139 116.245 101.015 116.624 101.071 116.614C102.648 116.37 100.969 116.624 101.614 115.709C100.486 115.474 103.02 114.291 103.124 114.199C103.283 114.057 103.266 113.728 103.969 113.113C105.836 111.478 107.842 109.988 109.704 108.343C108.714 107.005 108.704 105.179 108.014 103.513C107.741 102.854 106.739 100.842 106.082 100.736C106.901 100.381 104.061 99.335 103.908 99.408C103.326 101.079 102.802 102.794 102.097 104.419C101.399 106.027 100.494 107.575 99.8035 109.188C99.0255 111.004 98.5545 113.006 97.7505 114.803C97.5675 115.211 97.2794 115.59 97.2674 116.071C96.1304 117.102 95.9925 118.425 94.7325 119.391C94.1795 118.773 93.1405 118.242 93.1625 117.761C94.3145 116.011 95.3064 112.91 96.5434 111.845C96.4514 110.9 97.9174 108.655 98.4754 107.317C98.9314 106.22 101.443 98.995 101.373 98.442C101.363 98.374 101.001 97.891 100.95 97.898C99.7164 99.19 99.0335 97.348 98.7165 96.208C98.7315 96.213 98.6614 96.034 99.0184 96.087C99.7744 96.855 101.559 97.232 102.641 97.657C103.36 97.939 104.459 98.782 106.686 99.106Z" fill="#F9E7CE"/>
<path d="M64.1857 119.995H60.8047C61.0177 113.844 61.0827 107.655 61.6497 101.521C61.6577 101.441 61.6427 101.359 61.6497 101.279C62.4997 97.208 65.6057 96.788 67.6877 95.725C65.2797 98.647 65.5527 100.277 65.1517 103.634C65.1397 103.731 64.9227 103.658 64.9097 103.755C64.7677 107.015 64.5887 110.275 64.4277 113.535C64.4227 113.627 64.1907 113.564 64.1857 113.656C64.0847 115.752 64.2707 117.894 64.1857 119.995Z" fill="#76C6C4"/>
<path d="M106.083 119.995C104.554 119.998 103.023 119.993 101.494 119.995C104.453 117.329 107.563 114.859 110.128 111.784L106.083 119.995Z" fill="#F8DEA8"/>
<path d="M99.8035 119.995H98.3545C99.3475 119.145 100.279 118.208 101.252 117.339C102.945 115.827 106.147 112.835 107.712 111.664C108.692 110.929 109.538 110.246 109.342 110.879C106.302 114.079 103.046 117.005 99.8035 119.995Z" fill="#F8DEA8"/>
<path d="M85.1958 89.5689C89.2268 91.3349 102.089 95.1089 104.334 96.6929C104.687 96.9419 106.358 98.6879 106.689 99.1079C104.462 98.7849 103.364 97.9419 102.644 97.6589C101.562 97.2339 99.7768 96.8579 99.0219 96.0899C98.6639 96.0369 98.7338 96.2149 98.7198 96.2099C98.1758 96.0079 97.2318 95.7059 96.7268 95.8479C96.1618 95.1719 94.9768 94.9739 94.1308 94.6409C93.7038 94.4719 93.2428 94.2229 92.8028 94.0369C92.7208 94.0029 92.4408 93.6989 92.3798 93.6749C92.1338 93.5679 91.8418 93.8649 91.6558 93.7949C90.6148 93.3989 90.2918 92.7469 90.2068 92.7089C89.0698 92.2039 87.8908 91.8079 86.7658 91.2599C85.9418 90.8589 82.4938 89.4729 82.0568 88.9659C81.8608 88.7359 81.8368 88.1489 81.6938 87.8789C82.4988 88.4389 84.2468 89.1539 85.1958 89.5689Z" fill="#F7E9E0"/>
<path d="M83.2639 113.233C82.4159 112.333 85.0969 108.763 83.2039 109.007C83.3989 107.355 80.3729 107.689 78.8569 107.8C77.1809 109.857 75.3769 111.821 73.7249 113.897C72.6579 115.238 70.4549 118.706 70.1629 118.788C69.8009 118.892 69.0909 118.732 68.8949 118.365C68.4509 117.534 70.4189 115.069 70.8269 114.139C72.8219 109.594 71.4479 108.715 71.1889 107.256C71.0399 106.401 70.3589 102.557 70.3439 102.306C70.1629 99.0459 71.6099 98.6449 71.4309 96.1479C71.4119 95.8669 71.1529 94.3289 70.8869 94.2759C70.8459 94.2689 70.2959 94.8049 70.3439 94.2759C70.5739 94.1069 71.0349 93.8199 71.0689 93.7929C71.6339 94.0589 71.7929 96.5749 71.7929 97.7169C74.5359 98.0579 76.1249 96.3549 77.7099 94.3969C77.9559 94.0919 78.1879 93.7349 78.4339 93.4309C80.2769 92.8829 78.2579 94.1239 78.7959 94.4569C78.0279 95.3989 74.4009 101.567 74.4499 102.185C74.4829 102.61 75.1739 101.62 76.0189 100.736C76.0579 100.697 75.7249 100.953 76.6229 99.9509C76.6449 99.9269 76.8349 100.094 77.2269 99.6489C77.4269 99.4219 79.6709 96.0079 79.9439 96.2079C80.2259 97.6159 79.2499 98.7679 78.7959 100.012C78.6519 100.41 78.4219 101.262 78.6759 101.219C78.6269 101.342 78.3639 101.217 78.3129 101.34C77.5259 103.305 77.7559 103.291 77.7099 103.392C76.8549 105.336 75.5359 107.111 74.6909 109.068C73.6849 110.557 72.6789 112.046 71.6719 113.535C71.6889 114.105 70.1919 116.957 71.6719 115.709C74.2079 113.567 80.2499 99.9579 82.4189 96.2679C82.6479 94.9879 81.0249 98.0069 80.9699 96.2679C80.9699 96.2099 81.4019 95.5749 81.4529 95.6649C80.9069 94.8169 81.6339 95.7059 82.1769 94.5779C82.8269 93.2329 82.1849 92.9819 82.1769 92.8869C82.1219 92.1629 83.0369 92.4669 83.1429 93.0079C83.2709 93.6479 82.2399 94.3819 82.9619 94.8799C83.6669 92.6649 85.2269 91.9359 84.5919 93.8529C85.5509 95.0489 84.1959 95.3429 85.0749 95.7849C84.6139 96.1449 84.8189 97.4659 85.3169 97.7169C84.8769 97.9369 86.1669 99.9749 85.5579 100.736C85.7249 100.763 85.9179 101.055 85.9209 101.098C86.0939 104.873 84.3869 109.526 83.2639 113.233Z" fill="#F8DEA8"/>
<path d="M86.7656 91.2599C87.8906 91.8079 89.0696 92.2019 90.2066 92.7089C90.2916 92.7469 90.6146 93.3989 91.6556 93.7949C91.8416 93.8649 92.1336 93.5679 92.3796 93.6749C92.4406 93.6989 92.7206 94.0029 92.8026 94.0369L92.4406 94.7009C92.3796 97.3239 91.9956 99.9659 91.4746 102.55C91.1436 104.197 90.2956 105.846 90.0256 107.5C89.8446 108.606 89.9676 113.441 88.8786 113.719C88.4536 113.827 87.3036 113.241 87.1276 112.209C87.0696 111.874 87.3736 111.767 87.3686 111.726C87.3276 111.429 87.0116 110.838 87.0066 110.519C86.9686 108.118 87.7846 105.522 87.1876 103.093C86.7046 105.653 85.8866 108.942 84.9546 111.364C84.7176 111.978 82.5196 116.704 82.2976 116.919C82.0996 117.109 82.1456 117.162 81.9356 116.919C82.5706 115.769 82.8866 114.479 83.2636 113.236C84.3866 109.529 86.0936 104.875 85.9206 101.101C85.9206 101.057 85.7246 100.765 85.5576 100.738C86.1666 99.9779 84.8766 97.9389 85.3166 97.7199C84.8186 97.4689 84.6136 96.1479 85.0746 95.7879C84.1956 95.3459 85.5506 95.0509 84.5916 93.8559C85.2266 91.9379 83.6666 92.6679 82.9616 94.8819C82.2396 94.3849 83.2706 93.6509 83.1426 93.0109C83.0366 92.4699 82.1216 92.1649 82.1766 92.8899C82.1846 92.9819 82.8266 93.2349 82.1766 94.5799C81.6336 95.7079 80.9066 94.8189 81.4526 95.6669C81.4016 95.5779 80.9666 96.2129 80.9696 96.2709C81.0246 98.0099 82.6476 94.9909 82.4186 96.2709C80.2496 99.9609 74.2076 113.569 71.6716 115.711C70.1916 116.962 71.6886 114.108 71.6716 113.538C72.6786 112.048 73.6846 110.559 74.6906 109.07C75.5356 107.114 76.8546 105.339 77.7096 103.395C77.7556 103.293 77.5256 103.308 78.3126 101.342C78.3636 101.219 78.6266 101.345 78.6756 101.221C78.4216 101.265 78.6516 100.412 78.7956 100.014C79.2496 98.7699 80.2256 97.6209 79.9436 96.2099C79.6706 96.0099 77.4266 99.4249 77.2266 99.6519C76.8346 100.096 76.6446 99.9289 76.6226 99.9539C76.1006 99.8689 76.6496 99.9149 76.8636 99.6519C78.0256 98.2369 81.4576 92.0639 83.0826 89.9319C83.4906 90.2719 82.5226 91.8419 83.3236 92.4669C84.1186 93.0849 83.8626 91.9629 84.1086 91.8029C85.5286 90.8879 84.9706 93.5709 85.6186 93.0709C85.9616 92.8079 84.9686 91.4699 85.7386 91.2599C85.9826 91.1949 86.7046 91.9049 86.7656 91.2599Z" fill="#F8DEA8"/>
<path d="M98.7166 96.2099C99.0336 97.3499 99.7146 99.1929 100.951 97.9009C101.002 97.8939 101.364 98.3769 101.374 98.4439C101.444 98.9969 98.9316 106.223 98.4756 107.319C97.7266 107.037 99.4006 103.726 98.4756 104.965C98.2846 105.221 98.2046 105.897 97.9926 106.293C97.2996 107.578 92.2566 117.034 91.6536 117.22C90.1656 117.674 91.7546 113.103 91.8346 112.813C91.9046 112.552 91.7086 112.47 91.7136 112.451C91.9596 111.577 93.5996 107.838 94.1286 105.931C94.4646 104.718 96.0386 96.4129 95.6986 95.9089C95.2396 95.2319 93.9496 98.4029 94.1286 94.6409C94.9736 94.9739 96.1596 95.1719 96.7246 95.8479C97.2296 95.7059 98.1736 96.0079 98.7166 96.2099Z" fill="#F8DEA8"/>
<path d="M97.7539 114.803C98.5579 113.006 99.0289 111.004 99.8059 109.188C100.497 107.578 101.403 106.03 102.101 104.419C102.192 104.414 102.34 104.399 102.342 104.479C102.352 105.047 99.0719 113.943 97.7539 114.803Z" fill="#F2C06C"/>
<path d="M101.253 117.339C100.28 118.208 99.3479 119.145 98.3549 119.995H95.0949C94.9979 119.79 94.8819 119.56 94.7329 119.391C95.9929 118.425 96.1309 117.102 97.2679 116.071C97.2799 115.59 97.5679 115.211 97.7509 114.803C99.0699 113.943 102.349 105.047 102.34 104.479C102.34 104.399 102.19 104.414 102.098 104.419C102.803 102.794 103.327 101.079 103.909 99.4079C104.062 99.3349 106.902 100.381 106.083 100.736C106.74 100.842 107.742 102.851 108.015 103.513C108.705 105.179 108.715 107.005 109.705 108.343C107.843 109.988 105.837 111.478 103.97 113.113C103.267 113.728 103.284 114.057 103.125 114.199C103.021 114.291 100.487 115.474 101.615 115.709C100.97 116.624 102.649 116.37 101.072 116.614C101.016 116.624 100.14 116.245 100.77 116.916C99.3259 117.501 100.062 117.501 101.253 117.339Z" fill="#F8DEA8"/>
<path d="M103.306 111.301C102.598 112.528 101.941 113.82 101.132 114.984C100.693 115.614 98.8068 118.112 98.8378 117.52C100.939 113.772 103.929 106.73 105.841 103.453C106.064 104.235 104.929 106.131 104.513 107.256C104.04 108.539 103.644 109.973 103.306 111.301Z" fill="#F2C06C"/>
<path d="M103.306 111.301C103.644 109.973 104.04 108.539 104.513 107.256C104.929 106.131 106.064 104.235 105.841 103.453C106.027 103.136 106.17 102.791 106.385 102.487C106.831 102.455 106.443 106.051 106.566 106.411C105.745 108.191 104.619 109.848 103.306 111.301Z" fill="#F8DEA8"/>
<path d="M77.8298 84.0149C78.7868 85.0199 80.6748 87.1689 81.6938 87.8789C81.8368 88.1489 81.8608 88.7359 82.0568 88.9659C80.4798 90.1169 79.6198 91.9599 78.4338 93.4329C78.1878 93.7369 77.9558 94.0949 77.7098 94.3989C76.9848 94.3099 77.3158 93.6259 77.2268 93.3729C76.6588 91.7359 75.8088 90.0469 75.4148 88.3619C75.3888 88.2459 75.2608 88.0379 75.1738 87.9389C75.3138 87.5239 75.2128 87.2099 75.2948 86.7919C75.4348 86.0889 75.8548 85.1669 76.1398 84.4979C76.1618 84.4469 76.4948 84.0559 76.6228 83.5319C76.7508 83.5729 77.0018 83.5049 77.1658 83.5319L77.8298 84.0149Z" fill="#B9E0E9"/>
<path d="M86.7657 91.2599C86.7047 91.9049 85.9827 91.1949 85.7387 91.2599C84.9687 91.4699 85.9617 92.8079 85.6187 93.0709C84.9707 93.5709 85.5287 90.8879 84.1087 91.8029C83.8627 91.9629 84.1187 93.0849 83.3237 92.4669C82.5227 91.8419 83.4907 90.2719 83.0827 89.9319C81.4597 92.0639 78.0257 98.2339 76.8637 99.6519C76.6497 99.9149 76.1007 99.8689 76.6227 99.9539C75.7247 100.956 76.0577 100.7 76.0187 100.738C75.1737 101.622 74.4827 102.612 74.4497 102.187C74.4007 101.569 78.0257 95.4009 78.7957 94.4599C78.2577 94.1259 80.2767 92.8849 78.4337 93.4329C79.6197 91.9599 80.4797 90.1169 82.0567 88.9659C82.4937 89.4729 85.9417 90.8589 86.7657 91.2599Z" fill="#F9E7CE"/>
<path d="M77.7098 94.3989C76.1248 96.3579 74.5358 98.0599 71.7928 97.7199C71.7928 96.5769 71.6338 94.0609 71.0688 93.7949C72.6188 92.5349 74.5678 90.2019 75.4148 88.3619C75.8088 90.0469 76.6588 91.7359 77.2268 93.3729C77.3158 93.6259 76.9848 94.3099 77.7098 94.3989Z" fill="#E8E1C4"/>
<path d="M76.1399 84.4979C75.8549 85.1669 75.4349 86.0889 75.2949 86.7919C74.6519 86.0269 73.9399 84.7899 73.4839 83.8939C74.1939 83.7659 75.5149 84.0949 76.1399 84.4979Z" fill="#107088"/>
<path d="M76.6228 83.5319C76.4948 84.0559 76.1618 84.4469 76.1398 84.4979C75.5148 84.0949 74.1938 83.7659 73.4838 83.8939C73.2468 83.4309 72.9668 83.2159 72.7588 82.5659C73.9928 83.0149 75.3868 83.1429 76.6228 83.5319Z" fill="#62C2CE"/>
<path d="M78.6757 37.7689C78.8997 39.3579 79.3708 41.2559 79.5208 42.7189H78.4337C78.2427 40.7999 78.5037 40.0049 77.2267 38.2519C76.4197 37.1459 75.7287 36.7929 74.5697 36.1389C74.5097 35.9499 74.8187 35.1939 74.8117 34.3879C75.6427 34.6339 78.1367 37.9179 78.3737 38.0099C78.5937 38.0969 78.5067 37.7589 78.6757 37.7689Z" fill="#8E505A"/>
<path d="M79.5206 42.7189C79.7186 44.6589 80.3686 51.2219 78.6756 51.4129C78.8206 48.5249 78.7186 45.6029 78.4336 42.7189H79.5206Z" fill="#70384E"/>
<path d="M59.3557 10.3619C58.9377 10.6179 58.5537 10.9339 58.1487 11.2069C57.2137 11.8369 56.8417 12.1849 56.0957 13.0179C52.3187 17.2349 54.0257 19.9009 53.6807 21.2289C53.6637 21.2919 53.6907 21.3619 53.5597 21.3499C52.7217 19.0599 53.1467 16.0539 51.6887 19.2969C51.4447 16.8339 50.6857 17.8579 51.0247 19.5989C50.7657 20.0379 50.2977 17.4999 49.9377 19.3569C49.6187 20.9969 50.4207 22.4509 50.4207 22.6169C50.4207 22.8829 49.8097 22.8229 49.9377 23.7039C49.9517 23.8059 50.1767 23.7519 50.1787 23.7649C50.2127 23.9189 50.1357 24.1199 50.4207 24.8509C49.6457 26.1239 46.4647 27.0509 45.7117 28.0509C45.3157 28.5749 44.7577 30.6419 44.5037 31.1299C44.3617 31.4049 44.1727 31.6029 44.0207 31.8549C42.4537 34.4679 42.7407 33.1099 42.5117 33.0619C42.3427 33.0259 40.8697 35.7519 40.7607 36.0199C39.4687 39.2029 40.2487 40.9299 40.2777 42.2989C40.3307 44.8229 40.2777 47.6969 40.2777 50.4499H40.0367C39.2177 49.0779 38.5247 47.6189 37.8027 46.2229C37.7447 46.2229 37.4597 46.7159 37.3797 46.8269C36.1817 48.4959 37.0177 52.4759 37.5007 54.4339C37.7667 55.5139 38.1937 56.5569 38.4667 57.6339C39.4227 58.3419 39.8187 59.0639 39.9157 59.1429C39.6067 59.9669 40.5387 59.7789 40.7607 60.5319C40.2757 62.7079 40.9757 62.6059 41.8477 64.1539C41.5677 66.6419 40.2827 71.8289 44.5037 70.2519C44.5237 70.2689 44.9027 70.3579 44.9867 70.3729C45.5717 71.3199 46.2937 72.0949 47.0397 72.9089C47.2447 73.1329 47.4337 73.4159 47.6437 73.6329C47.7397 76.8009 47.6897 79.3399 46.6777 82.3269C46.1337 82.4569 45.6387 82.7739 45.1077 82.9309C44.4097 83.1359 41.8787 83.5999 41.5457 83.7759C38.7877 86.5889 36.9767 89.7189 32.7917 90.4169C32.7597 89.9149 30.3117 85.1279 32.5497 80.6969C32.0527 78.6849 33.5497 76.5309 35.7497 76.8929C38.9087 74.2389 33.1557 73.3989 36.1727 70.0709C32.6197 68.5419 29.6517 65.4199 32.6707 61.7389C29.4327 58.5369 30.4877 56.0639 33.5157 53.2869L33.8777 49.0609C32.8227 46.9069 33.4337 44.3079 34.9647 42.5409C34.4677 39.7679 33.7547 37.5969 35.4477 35.0539C34.8587 32.9239 35.5207 31.1739 37.0177 29.6209C36.8007 27.2759 38.5337 24.8999 40.8817 24.4289C40.9857 23.0349 41.4877 21.6129 42.6927 20.8059C43.4777 16.9349 46.8947 13.4379 50.8427 13.2599C53.0167 11.0739 56.4097 10.6919 59.3557 10.3619Z" fill="url(#paint1_linear_81_888)"/>
<path d="M85.0749 46.7039C85.0989 47.3559 85.5609 47.8389 85.7999 48.3949C85.8939 48.6119 85.9129 48.7399 85.9209 48.7569C82.2909 55.0769 84.5099 54.8639 84.5919 56.9679C84.6499 58.4259 83.2089 60.7109 83.5059 61.6769C81.5469 64.9949 83.2349 64.3429 85.0749 66.0239C87.6569 68.3849 86.5579 69.9579 85.7999 72.7849C85.5119 69.6509 85.3599 68.9479 82.8409 67.1099C80.3059 65.2579 81.5039 66.1949 82.1769 67.0499C83.6819 68.9629 83.2209 70.5709 83.6259 72.8459C83.9839 73.2349 85.5849 73.5749 85.6789 73.6309C86.5029 74.1059 87.0769 74.9249 87.6109 75.6829C87.6039 76.2919 88.1279 77.8809 87.6109 80.1509C87.4829 80.7109 86.5169 82.9599 86.0409 83.2899C86.0389 83.2109 86.0409 83.1289 86.0409 83.0489C86.0559 82.8289 86.6739 81.3799 86.7659 80.8759C86.9319 79.9599 87.0869 79.0809 86.8859 78.1589C86.7459 77.9199 86.2439 77.9149 86.1619 77.8569C84.9109 76.9579 83.4599 76.2529 82.0569 75.6229C83.8529 77.3179 83.4859 79.1439 83.2639 81.3579C82.6099 80.4649 82.0449 82.3799 81.0909 83.5919L81.1509 83.8939C81.2039 84.0099 82.5709 84.8119 82.7809 84.9809C83.5999 85.6449 84.6429 86.2749 85.0749 87.2749C85.0509 87.9749 85.1959 88.4679 85.1959 89.0859V89.5689C84.2469 89.1539 82.4989 88.4389 81.6939 87.8789C80.6749 87.1689 78.7869 85.0199 77.8299 84.0149C77.1419 79.9649 76.8789 75.8569 76.6229 71.7589C76.8669 71.3779 77.8879 72.6089 78.4339 71.3969C78.5719 71.0899 78.3109 70.8799 78.3129 70.8529C78.3179 70.8149 78.3129 70.7709 78.3129 70.7329C78.3129 70.7209 78.5669 70.7669 78.5549 70.6719C78.4439 69.8369 77.4949 69.0369 77.3469 68.7399C76.8519 67.7409 76.6039 66.7719 76.3809 65.7819C76.4389 65.2049 76.3329 64.6079 76.5019 64.0309C79.4189 62.0819 80.6539 62.9159 79.0379 59.7449C80.9429 58.1819 82.4839 54.8909 83.0229 52.4999C83.0929 52.1929 83.2179 52.0189 83.2639 51.6549C83.7759 50.5949 83.8099 48.0399 83.2639 47.0659C82.8289 46.2859 82.6649 46.1389 81.8149 46.5829C83.6309 44.4049 83.0709 45.5909 85.0749 46.7039Z" fill="#291637"/>
<path d="M69.7399 10.8449C69.9479 11.4479 71.8439 12.0179 72.8189 12.6559C74.8239 13.9619 76.7339 15.9839 78.0719 17.9689C77.5189 17.8209 76.9469 17.8409 76.3809 17.8479C75.9199 17.9369 75.9709 17.5969 75.7779 17.4859C74.2829 16.6279 74.3919 15.3339 72.0349 16.2779C71.7519 15.7859 72.6579 16.3989 72.3969 15.3119C72.9179 15.1239 73.5609 15.2179 73.0609 14.9499C72.8819 14.8559 70.3029 14.0709 69.2569 13.6219C69.2209 13.6069 68.9649 13.2669 68.6539 13.1389C67.8809 12.8219 67.1389 12.5739 66.3589 12.2939C64.5989 11.6579 62.8119 10.9869 60.9259 10.9649C59.9379 10.9529 59.1099 11.1609 58.1489 11.2069C58.5539 10.9339 58.9379 10.6179 59.3559 10.3619C62.9089 9.49493 66.2599 9.76293 69.7399 10.8449Z" fill="#9AC3D8"/>
<path d="M90.1466 68.1969C89.6636 69.9139 88.5746 71.5469 88.3346 73.2679C88.0646 73.7919 87.9506 73.5799 88.0936 74.2339C87.8546 74.3289 87.6126 75.4679 87.6106 75.6829C87.0766 74.9249 86.5026 74.1059 85.6786 73.6309C85.6806 73.3669 85.7316 73.0369 85.7996 72.7849C86.5576 69.9579 87.6566 68.3849 85.0746 66.0239C84.9586 65.0839 84.1906 63.7079 84.4716 62.8839C86.6056 65.5719 89.2116 66.6679 90.1466 68.1969Z" fill="#849ECB"/>
<path d="M87.6107 63.8499C88.0667 65.3549 89.6367 66.5399 89.7837 66.7479C90.5377 67.8149 90.4457 68.2739 90.8707 68.8609C90.9317 69.3489 90.7497 69.2619 90.7497 69.2839C90.5717 68.9119 90.3617 68.5499 90.1467 68.1969C89.2137 66.6709 86.6057 65.5719 84.4717 62.8839C84.1497 62.4809 83.7907 62.1089 83.5057 61.6769C83.2087 60.7109 84.6497 58.4259 84.5917 56.9679C85.9057 58.4909 86.0817 62.4489 87.6107 63.8499Z" fill="#291637"/>
<path d="M83.9888 24.9719C84.2008 25.3439 84.2928 25.5659 84.4718 25.9379C83.8338 25.5999 83.1918 25.2839 82.5398 24.9719C80.8318 24.1579 75.9538 21.7189 75.7778 20.2629C75.9728 20.0869 76.8208 19.4779 76.9848 19.4179C77.1108 19.3689 77.6708 19.1789 77.7098 19.1759C77.6728 19.4469 78.3128 19.5549 78.6148 19.7799C79.7888 20.6519 83.2368 24.7859 83.8068 25.0929C83.8898 25.1359 84.0008 25.0849 83.9888 24.9719Z" fill="#9AC3D8"/>
<path d="M81.6937 20.384C80.7157 19.427 79.4267 18.331 78.0717 17.969C76.7337 15.984 74.8237 13.962 72.8187 12.656C71.8437 12.018 69.9477 11.448 69.7397 10.845C74.7417 12.4 79.2117 15.701 81.6937 20.384Z" fill="#CCDCEC"/>
<path d="M78.0717 17.969C79.4267 18.331 80.7157 19.427 81.6937 20.384C82.0827 21.118 82.7667 22.39 82.5397 22.678C81.5997 21.492 79.2747 19.116 77.7097 19.176C77.6707 19.176 77.1107 19.369 76.9847 19.418L75.6567 18.452C75.9267 18.271 76.1517 18.077 76.3807 17.848C76.9467 17.841 77.5187 17.821 78.0717 17.969Z" fill="#9884AE"/>
<path d="M82.5395 22.6779C83.1135 23.4019 83.5345 24.1729 83.9885 24.9719C84.0005 25.0849 83.8895 25.1359 83.8065 25.0929C83.2365 24.7859 79.7885 20.6519 78.6145 19.7799C78.3125 19.5549 77.6725 19.4469 77.7095 19.1759C79.2745 19.1159 81.5995 21.4919 82.5395 22.6779Z" fill="#CCDCEC"/>
<path d="M87.6109 80.1509C88.1279 77.8809 87.6039 76.2919 87.6109 75.6829C87.6109 75.4679 87.8549 74.3289 88.0939 74.2339C88.2239 74.8359 89.7069 76.4129 87.6109 80.1509Z" fill="#CCDCEC"/>
<path d="M90.75 69.2839C90.7 70.3829 88.905 72.1619 88.335 73.2679C88.575 71.5489 89.664 69.9139 90.147 68.1969C90.362 68.5499 90.572 68.9119 90.75 69.2839Z" fill="#CCDCEC"/>
<path d="M82.5395 24.972C83.1915 25.284 83.8335 25.5999 84.4715 25.9379C84.6425 26.2929 85.1855 26.5469 84.8335 27.0249C83.6525 26.1699 82.1985 25.8749 80.8485 25.4549C80.8365 25.4499 80.9285 25.4309 80.6075 25.3339C80.5515 24.4649 82.0195 25.39 82.5395 24.972Z" fill="#9884AE"/>
<path d="M87.8519 36.0779C87.8359 36.1359 87.8619 36.2399 87.8519 36.3199C87.3209 35.8029 86.1329 34.9629 85.4379 34.6289C85.1449 34.4889 85.1479 34.4889 84.8339 34.3879C84.4299 34.2569 83.9499 33.9919 83.5059 34.0259V33.1799C83.7229 33.1949 83.7299 33.1009 83.8679 33.0599C85.0949 34.0429 87.3909 34.4169 87.8519 36.0779Z" fill="#92739F"/>
<path d="M80.6079 25.334C80.9289 25.431 80.8369 25.45 80.8489 25.455C80.6389 25.436 80.8079 25.665 80.9089 25.696C83.0679 26.382 84.6649 27.365 86.2829 28.957C86.3769 29.655 86.3749 30.449 86.0409 31.13C85.1449 29.539 83.9839 29.111 82.5999 27.991C82.4089 27.94 82.3419 28.222 82.1769 28.232C79.8009 28.355 77.4729 28.655 75.2949 29.681L74.9929 29.802C74.7269 29.647 74.8329 29.333 74.8119 29.319C75.5759 28.776 76.3409 28.233 77.1059 27.689C76.1639 25.274 76.4729 25.709 78.4339 24.489C78.8929 24.093 78.4949 24.909 78.6149 24.972C78.7049 25.018 79.0909 24.88 80.6079 25.334Z" fill="#7F79A7"/>
<path d="M84.8339 27.025C85.4569 27.476 86.1839 28.21 86.2829 28.957C84.6669 27.365 83.0679 26.382 80.9089 25.696C80.8079 25.665 80.6389 25.436 80.8489 25.455C82.1989 25.875 83.6529 26.17 84.8339 27.025Z" fill="#CACEE7"/>
<path d="M89.6638 65.299C89.6608 65.384 89.7718 65.398 89.7838 65.661C89.8008 66.021 89.7718 66.386 89.7838 66.748C89.6368 66.54 88.0668 65.355 87.6108 63.85L89.6638 65.299Z" fill="#878EBF"/>
<path d="M58.7516 17.0029C58.7136 17.3819 58.7906 18.1299 58.8726 18.5119C59.5346 21.5719 59.3996 17.2829 59.7786 17.1229C63.2826 18.7249 61.6696 19.7579 63.0386 22.4359C63.1186 20.8809 63.5556 19.7169 64.1856 18.3309C64.2246 18.2459 64.2656 18.1719 64.3066 18.0889C65.9076 17.9859 67.4236 18.3189 68.8946 18.9349C68.1126 21.1519 68.2746 22.5209 68.8346 20.1419C69.1286 22.3029 69.1316 20.3299 69.4986 19.2969L72.3966 20.0209C71.5586 21.6949 71.8116 23.2739 72.5776 20.9869C73.1306 23.9169 72.8816 21.9699 73.0006 21.4099C73.3016 19.9779 74.5576 19.1859 75.6566 18.4519L76.9846 19.4179C76.8206 19.4779 75.9726 20.0869 75.7776 20.2629C75.3816 20.6229 74.7606 21.2259 74.6906 21.7719C74.4396 23.7279 76.3616 22.5719 75.4146 23.1609C74.6276 23.6509 73.7926 24.7299 74.0266 24.8509C75.3596 24.9839 76.6366 24.5419 77.9506 24.4889C78.1106 24.4819 78.2716 24.4939 78.4336 24.4889C76.4726 25.7089 76.1636 25.2739 77.1056 27.6889C76.3406 28.2309 75.5756 28.7749 74.8116 29.3189C74.0946 28.8579 73.2856 28.4859 72.5776 27.9909C71.5846 27.2979 72.1816 26.5799 70.4646 27.7489C66.4606 24.7809 64.2746 24.2329 59.2346 24.7299L59.1146 23.2819C58.8026 22.3179 55.8706 23.7019 55.0696 23.7649C54.3906 23.1079 53.8836 22.2359 53.5596 21.3499C53.6906 21.3619 53.6636 21.2919 53.6806 21.2289C54.1706 21.9099 53.8566 20.7269 54.0426 19.2969C54.5716 19.9779 54.7866 17.7079 56.3976 16.5199C55.7816 19.6159 56.1656 17.9569 56.6996 17.3049C58.5276 15.0659 56.6366 18.8719 57.1216 18.9349C57.7376 18.4299 57.7646 16.5969 58.7516 17.0029Z" fill="#291637"/>
<path d="M53.5598 21.3499C53.8838 22.2359 54.3908 23.1079 55.0698 23.7649C55.8708 23.7019 58.8028 22.3179 59.1148 23.2819C57.0498 22.8539 54.8978 24.3999 54.6468 24.4889C54.4998 24.5419 54.5048 24.4209 54.2238 24.8509C53.9968 24.8779 53.6638 24.8099 53.5598 24.8509L53.8018 24.5489C51.8218 24.3509 49.7778 22.9139 50.1788 23.7649C50.1768 23.7519 49.9518 23.8059 49.9378 23.7039C49.8098 22.8229 50.4228 22.8829 50.4208 22.6169C50.4208 22.4509 49.6188 20.9969 49.9378 19.3569C50.2978 17.4999 50.7658 20.0379 51.0248 19.5989C50.6858 17.8579 51.4448 16.8339 51.6888 19.2969C53.1468 16.0539 52.7218 19.0599 53.5598 21.3499Z" fill="#180F1A"/>
<path d="M51.0249 25.696C50.2179 26.131 46.9889 28.87 46.0739 29.681C45.5379 30.154 45.0519 30.671 44.5039 31.13C44.7579 30.642 45.3159 28.575 45.7119 28.051C46.4649 27.051 49.6459 26.126 50.4209 24.851C50.5869 25.279 50.5659 25.706 51.0249 25.696Z" fill="#351A25"/>
<path d="M55.9749 13.6219C55.5649 14.8459 54.4919 15.8389 54.0429 19.2969C53.8569 20.7269 54.1709 21.9099 53.6809 21.2289C54.0259 19.9009 52.3189 17.2369 56.0959 13.0179C56.1079 13.2209 56.0379 13.4359 55.9749 13.6219Z" fill="#3F274A"/>
<path d="M53.5597 24.8509C53.2387 24.9819 52.1477 25.0899 51.0247 25.6959C50.5657 25.7059 50.5867 25.2789 50.4207 24.8509C50.1357 24.1199 50.2127 23.9189 50.1787 23.7649C49.7777 22.9139 51.8217 24.3509 53.8017 24.5489L53.5597 24.8509Z" fill="#351A25"/>
<path d="M60.9256 10.965C61.1116 11.605 60.9686 11.644 60.3216 11.811C59.5416 12.011 57.5906 11.811 55.9746 13.622C56.0376 13.436 56.1076 13.221 56.0956 13.018C56.8416 12.185 57.2136 11.837 58.1486 11.207C59.1096 11.161 59.9376 10.953 60.9256 10.965Z" fill="#67547D"/>
<path d="M78.3128 70.8529C78.3108 70.8799 78.5718 71.0899 78.4338 71.3969C77.8878 72.6089 76.8668 71.3779 76.6228 71.7589C76.8788 75.8569 77.1418 79.9649 77.8298 84.0149L77.1658 83.5319C77.0018 83.5049 76.7508 83.5729 76.6228 83.5319C75.3868 83.1429 73.9928 83.0149 72.7588 82.5659C72.6598 82.2519 72.5218 81.9359 72.5178 81.5999C72.4158 79.9649 71.7248 73.3669 72.1548 72.4229C73.3528 71.2829 74.7608 69.8679 75.3548 68.3179C75.3598 69.9579 77.1178 70.2959 78.3128 70.8529Z" fill="#180F1A"/>
<path d="M83.5056 33.1799V34.0259C83.1166 34.0549 81.7086 35.0569 81.3316 35.3539C80.9836 35.6289 80.6246 35.9069 80.2446 36.1389L81.0906 38.3119L83.1426 37.7689C83.0626 39.0759 82.9816 40.3839 82.9016 41.6929C84.1066 42.6639 84.3886 44.9849 85.0746 46.7039C83.0706 45.5909 83.6306 44.4049 81.8146 46.5829C80.7376 47.8779 79.9796 49.0489 80.1246 50.8089C79.5666 51.0579 79.1146 51.3479 78.6756 51.7749C78.6756 51.6549 78.6706 51.5339 78.6756 51.4129C80.3686 51.2219 79.7186 44.6609 79.5206 42.7189C79.3706 41.2559 78.8996 39.3579 78.6756 37.7689C78.5356 36.7829 78.5766 35.5399 78.4336 34.5689C78.2476 33.3009 77.6996 31.9749 77.7096 30.7649C80.4066 35.3029 78.2836 32.8569 83.5056 33.1799Z" fill="#291637"/>
<path d="M87.1279 39.338C87.2459 39.459 88.8209 41.744 89.0599 42.116C90.9919 45.142 90.4799 44.156 88.5769 43.323L87.2489 43.1419L88.4559 45.074C88.1739 46.644 87.8929 48.213 87.6109 49.783L85.7999 48.395C85.5609 47.839 85.0989 47.3559 85.0749 46.7039C84.3889 44.9849 84.1069 42.664 82.9019 41.693C82.9819 40.386 83.0629 39.078 83.1429 37.769C83.1359 37.73 83.1529 37.6839 83.1429 37.6479C84.3799 37.6499 86.2709 38.472 87.1279 39.338Z" fill="#572E5A"/>
<path d="M86.7658 49.964L86.1618 49.542V55.941L88.5768 58.175C88.9628 59.52 89.2848 60.264 90.2668 61.314C90.0938 62.776 89.6808 64.804 89.6638 65.299L87.6108 63.85C86.0818 62.449 85.9058 58.491 84.5918 56.968C84.5098 54.864 82.2908 55.077 85.9208 48.757C86.0098 48.962 86.5968 49.588 86.7658 49.964Z" fill="#3F274A"/>
<path d="M88.5768 43.323C88.8498 43.772 89.8618 45.441 89.9048 45.678C89.9698 46.047 89.4028 50.058 89.3008 50.266C89.2578 50.353 88.4558 50.843 88.4558 50.991C88.4558 51.563 91.6918 51.618 90.5088 61.254C90.4968 61.356 90.2698 61.302 90.2668 61.314C89.2848 60.264 88.9628 59.52 88.5768 58.175C87.9538 56.009 87.8278 53.676 87.3688 51.474L86.7658 49.964C86.5968 49.588 86.0098 48.962 85.9208 48.757C85.9128 48.74 85.8938 48.612 85.7998 48.395L87.6108 49.783C87.8928 48.213 88.1738 46.644 88.4558 45.074L87.2488 43.142L88.5768 43.323Z" fill="#91B7D8"/>
<path d="M85.7999 72.785C85.7319 73.037 85.6809 73.367 85.6789 73.631C85.5849 73.575 83.9839 73.235 83.6259 72.846C83.2229 70.573 83.6819 68.963 82.1769 67.05C81.5039 66.195 80.3059 65.258 82.8409 67.11C85.3599 68.948 85.5119 69.651 85.7999 72.785Z" fill="#6B5792"/>
<path d="M84.4718 62.8839C84.1908 63.7079 84.9588 65.0839 85.0748 66.0239C83.2348 64.3429 81.5468 64.9949 83.5058 61.6769C83.7908 62.1089 84.1498 62.4809 84.4718 62.8839Z" fill="#6B5792"/>
<path d="M78.3126 70.733C78.0086 70.206 76.5746 69.646 76.3806 69.223C76.1086 68.622 76.3036 66.56 76.3806 65.782C76.6036 66.772 76.8516 67.741 77.3466 68.74C77.4946 69.037 78.4436 69.837 78.5546 70.672C78.5666 70.767 78.3126 70.721 78.3126 70.733Z" fill="#291637"/>
<path d="M86.1616 77.8569C86.7006 78.6799 86.0506 80.5469 86.7656 80.8759C86.6736 81.3799 86.0556 82.8289 86.0406 83.0489L85.5576 82.7469C85.5286 84.2439 85.1276 85.7919 85.0746 87.2749C84.6426 86.2749 83.5996 85.6449 82.7806 84.9809C82.7996 83.7729 83.1456 82.5389 83.2636 81.3579C83.4856 79.1439 83.8526 77.3179 82.0566 75.6229C83.4596 76.2529 84.9106 76.9579 86.1616 77.8569Z" fill="#717CAF"/>
<path d="M83.2638 81.3579C83.1458 82.5389 82.7998 83.7729 82.7808 84.9809C82.5708 84.8119 81.2038 84.0099 81.1508 83.8939L81.0908 83.5919C82.0448 82.3799 82.6098 80.4649 83.2638 81.3579Z" fill="#514479"/>
<path d="M86.7656 80.8759C86.0506 80.5469 86.7006 78.6829 86.1616 77.8569C86.2436 77.9149 86.7456 77.9199 86.8856 78.1589C87.0866 79.0809 86.9316 79.9599 86.7656 80.8759Z" fill="#878EBF"/>
<path d="M66.3587 12.2939C67.1387 12.5739 67.8807 12.8219 68.6537 13.1389C66.2797 13.7159 64.3617 16.0199 64.1857 18.3309C63.5557 19.7169 63.1187 20.8809 63.0387 22.4359C61.6697 19.7579 63.2827 18.7249 59.7787 17.1229C59.3997 17.2829 59.5347 21.5719 58.8727 18.5119C58.7907 18.1299 58.7137 17.3819 58.7517 17.0029C58.9497 15.0009 61.2447 13.0079 63.0987 12.5349C64.2047 12.2519 65.2487 12.3779 66.3587 12.2939Z" fill="#3F274A"/>
<path d="M69.2566 13.6219C70.3006 14.0709 72.8816 14.8559 73.0606 14.9499C73.5606 15.2179 72.9176 15.1239 72.3966 15.3119C71.1676 15.7539 71.0946 15.8049 70.2226 16.7609C69.5006 17.5529 69.2666 17.8819 68.8946 18.9349C67.4236 18.3189 65.9076 17.9859 64.3066 18.0889C65.3016 16.0749 66.8666 13.9159 69.2566 13.6219Z" fill="#6D3C5F"/>
<path d="M75.7778 17.4859C74.8648 17.8719 73.9638 18.2169 73.2418 18.9349L70.4648 17.4859C70.5318 17.4039 70.6438 17.1859 70.7058 17.1229C70.9158 16.9159 71.7299 16.4009 72.0349 16.2779C74.3919 15.3339 74.2828 16.6279 75.7778 17.4859Z" fill="#6D3C5F"/>
<path d="M76.3808 17.848C76.1518 18.077 75.9268 18.271 75.6568 18.452C74.5578 19.186 73.3018 19.978 73.0008 21.41C72.8818 21.97 73.1308 23.917 72.5778 20.987C71.8118 23.274 71.5588 21.695 72.3968 20.021C72.4278 19.961 73.1548 19.022 73.2418 18.935C73.9618 18.217 74.8618 17.872 75.7778 17.486C75.9708 17.597 75.9198 17.937 76.3808 17.848Z" fill="#878EBF"/>
<path d="M66.3587 12.294C65.2487 12.378 64.2047 12.252 63.0987 12.535C61.8237 11.883 60.1187 12.518 60.3217 11.811C60.9687 11.644 61.1117 11.605 60.9257 10.965C62.8117 10.987 64.5987 11.658 66.3587 12.294Z" fill="#72668C"/>
<path d="M69.2566 13.6219C66.8666 13.9159 65.3035 16.0749 64.3065 18.0889C64.2655 18.1719 64.2245 18.2459 64.1855 18.3309C64.3615 16.0199 66.2795 13.7159 68.6535 13.1389C68.9645 13.2669 69.2206 13.6069 69.2566 13.6219Z" fill="#8884A6"/>
<path d="M72.3967 15.3119C72.6577 16.3989 71.7517 15.7859 72.0347 16.2779C71.7297 16.4009 70.9157 16.9129 70.7057 17.1229L70.2227 16.7609C71.0947 15.8049 71.1677 15.7539 72.3967 15.3119Z" fill="#91B7D8"/>
<path d="M74.8118 29.3189C74.8328 29.3329 74.7268 29.6469 74.9928 29.8019L75.2948 29.6809L77.7098 30.6469V30.7679C77.6998 31.9779 78.2478 33.3009 78.4338 34.5709C78.5768 35.5419 78.5358 36.7859 78.6758 37.7709C78.5069 37.7619 78.5938 38.0999 78.3738 38.0129C78.1368 37.9209 75.6428 34.6369 74.8118 34.3899C74.7798 31.0599 72.9978 29.6259 70.4648 27.7489C72.1818 26.5799 71.5849 27.2979 72.5779 27.9909C73.2859 28.4859 74.0948 28.8579 74.8118 29.3189Z" fill="#70384E"/>
<path d="M82.5398 24.9719C82.0198 25.3869 80.5518 24.4649 80.6078 25.3339C79.0908 24.8799 78.7048 25.0179 78.6148 24.9719C78.4948 24.9089 78.8928 24.0929 78.4338 24.4889C78.2718 24.4939 78.1108 24.4819 77.9508 24.4889C77.9798 23.9719 77.5718 24.4459 77.1658 24.3679C76.9628 24.3299 75.3528 23.5929 75.4148 23.1609C76.3618 22.5719 74.4398 23.7279 74.6908 21.7719C74.7608 21.2259 75.3818 20.6229 75.7778 20.2629C75.9538 21.7189 80.8318 24.1579 82.5398 24.9719Z" fill="#7F79A7"/>
<path d="M82.1769 28.2319V28.3529C81.6559 28.6139 81.2499 29.0389 80.7279 29.3189C79.9719 29.7219 78.5839 30.1879 77.7099 30.6469L75.2949 29.6809C77.4729 28.6549 79.8009 28.3549 82.1769 28.2319Z" fill="#3F274A"/>
<path d="M82.177 28.3529C83.126 28.9519 86.556 34.1219 86.886 34.3299C87.046 34.4289 87.101 34.1369 87.249 34.1489C87.481 34.7429 88.024 35.5199 87.852 36.0809C87.394 34.4189 85.097 34.0449 83.868 33.0619C83.295 32.6029 81.284 30.1689 80.728 29.3189C81.25 29.0389 81.656 28.6139 82.177 28.3529Z" fill="#9AC3D8"/>
<path d="M86.0408 31.1299C86.3038 31.5959 86.9778 33.4629 87.2488 34.1489C87.1008 34.1369 87.0458 34.4289 86.8858 34.3299C86.5558 34.1219 83.1258 28.9539 82.1768 28.3529V28.2319C82.3418 28.2219 82.4088 27.9399 82.5998 27.9909C83.9838 29.1109 85.1448 29.5389 86.0408 31.1299Z" fill="#CCDCEC"/>
<path d="M80.728 29.3188C81.284 30.1688 83.295 32.6028 83.868 33.0618C83.73 33.1028 83.725 33.1968 83.506 33.1828C78.284 32.8588 80.407 35.3058 77.71 30.7678V30.6468C78.584 30.1878 79.972 29.7218 80.728 29.3188Z" fill="#7F79A7"/>
<path d="M60.3215 11.8109C60.1185 12.5179 61.8235 11.8829 63.0985 12.5349C61.2445 13.0079 58.9495 15.0009 58.7515 17.0029C57.7645 16.5969 57.7375 18.4299 57.1215 18.9349C56.6365 18.8719 58.5275 15.0659 56.6995 17.3049C56.1655 17.9569 55.7815 19.6159 56.3975 16.5199C54.7865 17.7079 54.5715 19.9779 54.0425 19.2969C54.4915 15.8389 55.5645 14.8459 55.9745 13.6219C57.5905 11.8109 59.5415 12.0109 60.3215 11.8109Z" fill="#291637"/>
<path d="M73.2415 18.935C73.1545 19.022 72.4275 19.959 72.3965 20.021L69.4985 19.297C69.7325 18.635 70.0175 18.034 70.4645 17.486L73.2415 18.935Z" fill="#572E5A"/>
<path d="M77.9508 24.4889C76.6398 24.5419 75.3598 24.9839 74.0268 24.8509C73.7928 24.7299 74.6278 23.6509 75.4148 23.1609C75.3528 23.5929 76.9628 24.3299 77.1658 24.3679C77.5718 24.4459 77.9798 23.9719 77.9508 24.4889Z" fill="#72668C"/>
<path d="M70.7058 17.123C70.6438 17.186 70.5318 17.404 70.4648 17.486C70.0178 18.034 69.7328 18.635 69.4988 19.297C69.1318 20.33 69.1288 22.303 68.8348 20.142C68.2748 22.521 68.1128 21.152 68.8948 18.935C69.2668 17.882 69.5008 17.553 70.2228 16.761L70.7058 17.123Z" fill="#878FAB"/>
<path d="M87.8515 36.3199C88.4315 36.8849 88.9455 37.5369 89.4215 38.1909C90.5255 42.6829 90.8195 46.4459 89.6635 50.9909C92.3705 53.8549 91.1625 61.0419 90.2665 64.6349C90.2115 64.8619 89.9235 65.7919 89.7835 65.6609C89.7715 65.3979 89.6605 65.3839 89.6635 65.2989C89.6805 64.8039 90.0935 62.7759 90.2665 61.3139C90.2665 61.3019 90.4965 61.3559 90.5085 61.2539C91.6915 51.6179 88.4555 51.5629 88.4555 50.9909C88.4555 50.8429 89.2575 50.3529 89.3005 50.2659C89.4025 50.0579 89.9695 46.0469 89.9045 45.6779C89.8615 45.4409 88.8495 43.7719 88.5765 43.3229C90.4795 44.1559 90.9915 45.1419 89.0595 42.1159C89.8175 41.8599 88.1975 39.7319 87.9725 39.2779C87.8785 39.0869 88.1485 38.9039 88.0935 38.7949C87.4845 37.5899 86.0675 35.9309 85.4375 34.6289C86.1325 34.9629 87.3205 35.8029 87.8515 36.3199Z" fill="#CCDCEC"/>
<path d="M85.4375 34.6289C86.0675 35.9309 87.4845 37.5899 88.0935 38.7949C88.1485 38.9039 87.8785 39.0869 87.9725 39.2779C88.1975 39.7319 89.8175 41.8599 89.0595 42.1159C88.8225 41.7439 87.2455 39.4589 87.1275 39.3379C88.4365 39.0219 86.7895 38.1429 85.5575 36.1389C85.3475 35.7979 84.8675 34.8009 84.8335 34.3879C85.1475 34.4889 85.1445 34.4889 85.4375 34.6289Z" fill="#9AC3D8"/>
<path d="M83.5055 34.0259C83.9495 33.9919 84.4295 34.2569 84.8335 34.3879C84.8675 34.8009 85.3475 35.7979 85.5575 36.1389C86.7895 38.1429 88.4365 39.0219 87.1275 39.3379C86.2705 38.4719 84.3795 37.6499 83.1425 37.6479C83.1045 37.5079 81.6625 35.6099 81.3315 35.3539C81.7085 35.0569 83.1165 34.0549 83.5055 34.0259Z" fill="#849ECB"/>
<path d="M83.1426 37.6479C83.1526 37.6839 83.1356 37.7299 83.1426 37.7689L81.0906 38.3119L80.2446 36.1389C80.6246 35.9069 80.9836 35.6289 81.3316 35.3539C81.6626 35.6099 83.1046 37.5079 83.1426 37.6479Z" fill="#878EBF"/>
<path d="M86.7656 49.9639L87.3686 51.4739C87.8276 53.6759 87.9536 56.0089 88.5766 58.1749L86.1616 55.9409V49.5419L86.7656 49.9639Z" fill="#572E5A"/>
<path d="M76.8639 63.0049C76.8739 62.8459 76.8499 62.6809 76.8639 62.5219C76.9629 61.3479 77.4439 60.8019 77.4679 60.7109C77.6569 60.6769 78.0569 60.4549 78.1929 60.3479C79.9559 62.5199 78.2549 61.9089 76.8639 63.0049Z" fill="#0F0B0C"/>
<path d="M61.6496 101.521C61.0826 107.655 61.0176 113.842 60.8046 119.995H59.1146C58.9596 117.887 58.6286 115.796 58.2686 113.716C58.8266 111.487 58.8266 109.13 59.3556 106.894C59.8126 104.967 60.5536 103.66 60.9256 102.608C61.0556 102.241 61.3556 101.922 61.4086 101.521H61.6496Z" fill="#953D41"/>
<path d="M74.3285 88.7239C73.5605 90.5349 70.5445 92.9159 68.8945 94.2779C65.6615 95.3359 63.3765 96.1909 61.7705 99.4099C61.5915 100.026 61.7075 100.664 61.6495 101.282C61.6425 101.361 61.6575 101.444 61.6495 101.523H61.4085L61.1665 99.8329C61.5705 99.0909 62.1325 96.6329 62.2535 95.7269C62.9155 94.7829 64.0555 95.1889 64.3665 95.1239C65.1205 94.9639 66.0595 94.5659 66.7815 94.3989C66.9075 94.3699 67.6415 94.8269 69.1965 93.9159C69.4405 93.7739 73.1785 90.3279 73.3625 90.1129C73.7125 89.7019 73.7685 88.8569 74.3285 88.7239Z" fill="#E79065"/>
<path d="M51.5076 93.7949C52.5986 93.6239 57.4046 96.3089 57.6656 96.9349C57.7256 97.0769 57.8396 98.5169 57.9066 99.0479C57.9966 99.1979 58.6356 99.2509 58.9936 99.3499C59.5726 99.5119 60.2256 99.5359 60.6836 99.7119C60.7516 99.7389 60.9376 99.6569 61.1666 99.8329L61.4086 101.523C61.3556 101.924 61.0556 102.243 60.9256 102.61C59.6596 103.223 57.4556 100.84 55.9746 100.195C55.8926 99.8759 55.9386 99.3859 55.6126 99.4709C55.9236 96.5389 52.2846 95.7149 50.0586 94.3989C50.5916 93.9449 51.4396 93.8339 51.5076 93.7949Z" fill="#EB9F69"/>
<path d="M60.9256 102.608C60.5536 103.66 59.8126 104.967 59.3556 106.894C58.8266 109.13 58.8266 111.487 58.2686 113.716C57.9966 112.142 57.5876 110.577 57.3026 109.007C57.4336 109.046 57.6366 108.927 57.6656 108.826C58.0736 107.428 56.4286 101.963 55.9746 100.193C57.4556 100.837 59.6596 103.221 60.9256 102.608Z" fill="#E79065"/>
<path d="M50.0586 75.8039C51.0436 77.6249 54.5066 80.6269 56.3976 81.1169C59.0156 81.7959 60.6456 80.9239 62.9786 80.0299C63.7266 79.7429 64.6226 79.5279 65.3326 79.1849C65.9126 78.9049 66.4576 78.1589 66.7216 78.4609C61.9806 82.9549 60.5026 82.4309 58.3296 84.3769C55.9656 86.4949 55.1076 89.3909 54.4046 90.5349C53.7696 91.5689 52.5726 93.2089 51.5076 93.7949C51.4396 93.8339 50.5916 93.9449 50.0586 94.3989C48.5806 93.5249 46.5126 92.4839 45.3486 91.2599C44.6556 90.5299 43.4386 88.4779 42.9346 87.5169C43.2456 87.2579 44.6676 86.7339 44.7456 86.6709C46.8556 84.9909 48.6936 76.9439 48.2466 74.1139C48.7206 74.5769 49.5846 75.4029 50.0586 75.8039Z" fill="#953D41"/>
<path d="M55.9748 100.193C56.4288 101.963 58.0738 107.428 57.6658 108.826C57.6368 108.927 57.4338 109.046 57.3028 109.007C56.7258 105.829 55.9628 102.69 55.6128 99.4679C55.9388 99.3839 55.8928 99.8739 55.9748 100.193Z" fill="#C05F55"/>
<path d="M48.2466 74.1139C48.6936 76.9439 46.8556 84.9909 44.7456 86.6709C45.3616 85.2029 46.1626 83.8409 46.6776 82.3239C47.6896 79.3369 47.7396 76.7989 47.6436 73.6309C47.6696 73.6569 47.6626 73.5409 48.2466 74.1139Z" fill="#B37C75"/>
<path d="M72.0348 82.8069C72.3818 83.9139 74.1038 86.4999 74.8118 87.6979C74.8238 87.8519 74.4348 88.4749 74.3288 88.7239C73.7688 88.8569 73.7128 89.7019 73.3628 90.1129C73.1788 90.3279 69.4408 93.7739 69.1968 93.9159C67.6418 94.8269 66.9098 94.3699 66.7818 94.3989C66.0598 94.5659 65.1208 94.9639 64.3668 95.1239C64.0558 95.1889 62.9158 94.7829 62.2538 95.7269C62.2878 95.4739 62.4618 92.8079 62.0128 93.1919C64.1258 89.6999 64.5888 85.4829 65.2728 81.5399C65.2148 81.4449 65.0958 81.4769 64.9708 81.4789C64.6498 81.4889 60.5418 85.1449 60.0808 85.6449C57.0308 88.9509 56.4728 91.8709 57.7858 96.2099C56.2428 94.6139 54.8428 92.7719 54.4048 90.5349C55.1078 89.3909 55.9658 86.4949 58.3298 84.3769C60.5008 82.4309 61.9808 82.9549 66.7218 78.4609C68.1828 77.0769 68.8228 76.3089 70.1028 74.8379C70.4208 74.4709 70.7278 74.0219 71.1888 73.8119C71.4088 76.3429 71.3288 80.5639 72.0348 82.8069Z" fill="url(#paint2_linear_81_888)"/>
<path d="M62.2533 95.7268C62.1323 96.6328 61.5703 99.0908 61.1663 99.8328C60.9373 99.6568 60.7513 99.7388 60.6833 99.7118C60.5583 97.8278 61.0293 94.8528 62.0123 93.1918C62.4613 92.8078 62.2873 95.4738 62.2533 95.7268Z" fill="#D77E5C"/>
<path d="M62.0125 93.1918C61.0295 94.8528 60.5585 97.8278 60.6835 99.7118C60.2255 99.5358 59.5725 99.5118 58.9935 99.3498C58.7885 98.5068 58.4545 97.6838 58.1485 96.8748C58.1075 96.7658 57.9115 96.8288 57.9065 96.8138C57.8225 96.5728 57.8145 96.3048 57.7855 96.2098C56.4725 91.8728 57.0305 88.9508 60.0805 85.6448C60.5415 85.1448 64.6495 81.4888 64.9705 81.4788C65.0955 81.4768 65.2145 81.4448 65.2725 81.5398C64.5885 85.4828 64.1255 89.6998 62.0125 93.1918Z" fill="#E79065"/>
<path d="M57.7858 96.2099C57.8148 96.3049 57.8228 96.5729 57.9068 96.8139L57.6658 96.9349C57.4048 96.3089 52.5988 93.6239 51.5078 93.7949C52.5728 93.2089 53.7698 91.5689 54.4048 90.5349C54.8428 92.7719 56.2408 94.6119 57.7858 96.2099Z" fill="#AA4D4B"/>
<path d="M58.9935 99.3469C58.6355 99.2479 57.9965 99.1949 57.9065 99.0459C57.8395 98.5139 57.7255 97.0749 57.6655 96.9319L57.9065 96.8119C57.9115 96.8259 58.1075 96.7629 58.1485 96.8719C58.4545 97.6809 58.7885 98.5049 58.9935 99.3469Z" fill="#CA6F58"/>
<path d="M56.3366 79.6678C58.7256 80.2448 60.3776 80.1048 62.7366 79.4268L62.9786 80.0298C60.6456 80.9238 59.0156 81.7958 56.3976 81.1168C54.5066 80.6268 51.0436 77.6248 50.0586 75.8038C51.9126 77.3738 53.9266 79.0858 56.3366 79.6678Z" fill="#351A25"/>
<path d="M66.7213 78.4609C66.4573 78.1589 65.9123 78.9049 65.3323 79.1849C64.6223 79.5279 63.7263 79.7429 62.9783 80.0299L62.7363 79.4269C63.0163 79.3469 63.3043 79.2889 63.5813 79.1849C63.8903 79.0689 64.1443 78.8369 64.4273 78.7019C66.5233 77.6969 68.3123 76.2939 70.1023 74.8379C68.8223 76.3089 68.1823 77.0769 66.7213 78.4609Z" fill="#5F272F"/>
<path d="M41.7267 58.8998C42.0597 60.8118 42.3327 63.0678 42.8137 64.9368L42.3307 64.6948C42.3257 62.8328 41.2877 62.8288 41.1227 62.0988C40.9007 61.1158 41.9977 60.6888 40.1567 59.2618C42.6037 61.1698 41.5237 60.0508 41.2437 57.6318C41.2097 57.3438 41.2077 56.9408 41.3647 56.9678C41.4607 57.6168 41.6157 58.2548 41.7267 58.8998Z" fill="#301315"/>
<path d="M42.814 35.5948C43.333 34.4188 43.775 33.1198 44.021 31.8518C44.173 31.6008 44.362 31.4028 44.504 31.1278C45.052 30.6688 45.538 30.1538 46.074 29.6788L46.436 34.2068C45.229 34.6688 44.021 35.1318 42.814 35.5948Z" fill="#5F272F"/>
<path d="M47.2806 72.5439L47.0396 72.9059C46.2936 72.0919 45.5716 71.3169 44.9866 70.3709C43.9316 68.6629 43.3136 66.8759 42.8136 64.9369C42.3326 63.0679 42.0596 60.8119 41.7266 58.8999L42.0886 58.2959C42.8346 62.7029 44.5326 68.9989 47.2806 72.5439Z" fill="#AA6B7A"/>
<path d="M72.1547 72.4229C71.7247 73.3669 72.4157 79.9649 72.5177 81.5999C71.8027 81.9859 72.9377 82.7059 72.0347 82.8069C71.3287 80.5639 71.4087 76.3429 71.1887 73.8119C70.7277 74.0219 70.4207 74.4709 70.1027 74.8379C68.3157 76.2939 66.5237 77.6969 64.4277 78.7019C66.7357 76.5289 69.7187 75.0989 71.6717 72.5439C71.6887 72.5289 71.8117 72.6309 72.0347 72.3019L72.1547 72.4229Z" fill="#F7E9E0"/>
<path d="M59.115 23.2819L59.235 24.7299C58.545 24.7979 57.458 25.0849 56.7 25.2129C54.645 25.5589 55.879 25.8629 54.647 24.4889C54.898 24.3999 57.047 22.8539 59.115 23.2819Z" fill="#D77E5C"/>
<path d="M54.6468 24.4889C55.8788 25.8629 54.6448 25.5589 56.6998 25.2129C56.8298 25.7709 56.4288 25.6649 56.2168 25.9979C54.2438 29.0749 53.3188 36.0349 52.9568 39.7639L52.6548 40.1859C51.9178 40.1189 52.0238 40.3019 51.9908 40.3069C50.8528 40.5019 47.2068 39.5169 44.6248 40.9109C43.0048 41.7849 42.6178 44.4239 42.4518 43.0839C42.5508 42.0089 42.8718 41.6129 41.4858 41.5139C41.1108 41.4879 41.1378 41.1909 40.8818 41.6949C40.9618 42.0459 40.8288 42.5989 40.7608 43.0839C40.3338 43.1849 40.7948 40.0729 41.0028 39.2809C41.4008 37.7659 42.5018 36.3029 42.8138 35.5979C44.0208 35.1359 45.2288 34.6729 46.4358 34.2089L46.0738 29.6809C46.9888 28.8699 50.2178 26.1309 51.0248 25.6959C52.1478 25.0899 53.2388 24.9819 53.5598 24.8509C53.6638 24.8099 53.9968 24.8779 54.2238 24.8509C54.5048 24.4209 54.4998 24.5419 54.6468 24.4889Z" fill="url(#paint3_linear_81_888)"/>
<path d="M78.4337 42.7188C78.7187 45.6028 78.8207 48.5248 78.6757 51.4128C78.6707 51.5338 78.6757 51.6548 78.6757 51.7748C78.6757 52.2898 78.6097 52.7608 78.7957 52.7408C78.7577 52.8378 78.7017 52.8858 78.6757 52.9828C78.5527 53.4198 78.4407 55.7208 78.1927 56.9678C77.9487 58.1898 77.7747 59.5108 77.4677 60.7108C77.4437 60.8018 76.9627 61.3478 76.8637 62.5218C76.4727 60.1138 77.2337 57.6628 77.3467 55.2168C77.4897 52.1448 77.5137 45.9508 77.4677 42.7188C77.4557 41.8978 77.7717 41.2658 77.7097 40.7268C77.6947 40.5988 76.8977 39.5408 77.2267 38.2518C78.5037 40.0048 78.2427 40.7998 78.4337 42.7188Z" fill="#F8D0C4"/>
<path d="M83.0228 52.5C82.4858 54.891 80.9428 58.182 79.0378 59.745C78.7988 59.94 78.4728 60.129 78.1928 60.348C78.0568 60.455 77.6568 60.677 77.4678 60.711C77.7748 59.511 77.9488 58.19 78.1928 56.968C78.2018 57.984 80.0518 57.013 80.0038 56.122C80.7738 55.533 80.9068 54.702 80.9698 53.828C81.1938 50.66 79.3178 51.433 78.7958 52.741C78.6098 52.761 78.6758 52.29 78.6758 51.775C79.1148 51.348 79.5668 51.058 80.1248 50.809C80.3178 50.723 80.9428 50.532 81.2108 50.447C81.2258 50.585 81.2018 50.73 81.2108 50.87C82.9358 46.47 82.6918 50.621 82.7808 52.681L83.0228 52.5Z" fill="#EB9F69"/>
<path d="M83.1426 47.4289C83.0466 48.5349 83.4546 50.1189 83.2636 51.6549C83.2176 52.0189 83.0926 52.1929 83.0226 52.4999L82.7806 52.6809C82.6916 50.6209 82.9356 46.4699 81.2106 50.8699C81.2016 50.7299 81.2256 50.5849 81.2106 50.4469C81.0656 49.0609 82.0076 46.9259 83.1426 47.4289Z" fill="#C05F55"/>
<path d="M83.2637 47.066C83.1337 47.066 83.1507 47.334 83.1427 47.429C82.0077 46.926 81.0657 49.0609 81.2107 50.4469C80.9427 50.5319 80.3177 50.7229 80.1247 50.8089C79.9797 49.0489 80.7377 47.878 81.8147 46.583C82.6647 46.139 82.8287 46.286 83.2637 47.066Z" fill="#FBCDA5"/>
<path d="M83.2638 51.6549C83.4548 50.1189 83.0468 48.5349 83.1428 47.4289C83.1508 47.3339 83.1338 47.0659 83.2638 47.0659C83.8098 48.0399 83.7758 50.5949 83.2638 51.6549Z" fill="#E99C8E"/>
<path d="M79.2789 53.1039C80.6199 54.3979 77.1349 58.3129 80.0039 56.1219C80.0519 57.0129 78.2019 57.9839 78.1929 56.9679C78.4409 55.7239 78.5529 53.4199 78.6759 52.9829C78.9049 53.0219 79.0229 53.0989 79.2789 53.1039Z" fill="#F6AB93"/>
<path d="M80.9699 53.828C80.9069 54.702 80.7739 55.533 80.0039 56.122C77.1349 58.313 80.6199 54.398 79.2789 53.104C80.3399 53.125 80.0399 53.261 80.9699 53.828Z" fill="#AC3252"/>
<path d="M80.9698 53.828C80.0398 53.261 80.3398 53.125 79.2788 53.104C79.0228 53.099 78.9048 53.022 78.6758 52.983C78.7018 52.886 78.7578 52.838 78.7958 52.741C79.3178 51.433 81.1938 50.66 80.9698 53.828Z" fill="#792131"/>
<path d="M71.6718 72.5439C69.7188 75.0969 66.7358 76.5289 64.4278 78.7019C64.1448 78.8369 63.8908 79.0689 63.5818 79.1849C62.5608 79.0019 61.5898 79.4049 60.5638 79.4269C60.5488 79.0039 61.1308 79.3779 61.1668 78.7619C61.1668 78.7259 60.8938 78.2869 60.9258 78.0979C63.0898 77.9559 65.5068 76.1909 66.7818 74.4759C69.3438 73.6449 70.8828 70.9889 71.2498 70.9739C72.2858 70.9329 69.4388 73.2809 70.2838 73.6309C70.7518 73.2679 71.2328 72.9499 71.6718 72.5439Z" fill="#E79065"/>
<path d="M68.1705 44.1678C68.2905 44.4768 74.1475 44.2068 74.8115 44.1678C75.1755 44.7458 76.5795 46.9598 76.6225 47.3678C76.6905 48.0058 76.1105 49.6188 75.4145 49.4808C75.0385 49.4058 72.4685 47.2838 70.7055 47.0658C70.9835 46.7668 71.2855 47.1888 71.0685 46.5828C71.8525 46.7548 75.3615 48.4228 72.9395 46.9458C70.5175 45.4678 66.8055 45.0428 65.3925 48.0318C64.9535 47.3678 62.8165 48.1068 61.7705 48.3948C62.2685 46.6198 63.5095 45.0228 63.4615 44.8318C63.3745 44.4898 62.9175 44.8928 62.6155 44.4098C62.9035 44.5718 63.3905 44.5738 63.7025 44.5308C65.2865 45.5498 66.6345 44.6008 68.1705 44.1678Z" fill="#E79065"/>
<path d="M51.9909 40.3039C53.8979 40.4519 56.4869 41.6909 55.9749 44.0479C53.7949 43.2309 51.3919 43.2099 49.0929 42.9609C47.5979 42.7989 47.1319 42.2819 45.3489 42.5989C43.6929 42.8929 41.2199 46.0419 43.2969 42.5379C43.6539 41.9369 44.1849 41.4469 44.6249 40.9079C47.2069 39.5149 50.8509 40.4999 51.9909 40.3039Z" fill="#180F1A"/>
<path d="M76.5017 44.7719C76.4147 44.7789 75.8277 44.2119 75.5357 44.0479C72.6597 42.4389 71.4977 43.1199 68.5327 43.9269C69.1917 43.4969 70.0057 43.3229 70.7667 43.2019C69.4137 42.4589 65.4317 44.2939 63.7027 44.5309C63.3907 44.5739 62.9037 44.5719 62.6157 44.4099C61.6037 42.7869 65.1757 41.3309 67.8687 41.0289C71.6647 40.6009 74.8787 40.8619 76.5017 44.7719Z" fill="#180F1A"/>
<path d="M58.1489 49.2399C58.2689 50.4639 58.1529 53.3809 57.9069 54.6129C57.1509 58.3919 55.5409 57.0259 57.5449 59.0199C58.9409 60.4089 59.7109 60.3699 59.5979 60.8309C58.0709 60.7759 57.9549 60.2279 56.9409 59.3829C56.6849 59.1679 56.4799 58.6119 56.0359 58.6579C54.0719 59.9739 53.7849 60.2059 53.4399 58.5369C53.4899 58.5249 53.6739 58.4289 53.6809 58.4169C54.0479 59.0899 55.4079 57.7569 56.0959 56.6049C56.1249 56.5549 57.0929 55.8469 56.2769 55.7599L53.7409 56.9679C53.1419 54.0289 55.9679 53.4779 57.1829 51.3529C58.2839 49.4279 57.0039 48.0809 58.1489 49.2399Z" fill="#AA4D4B"/>
<path d="M55.9748 44.0479C55.9388 44.2189 55.6368 44.1099 55.7338 44.5309C54.0478 44.2839 52.3528 44.2889 50.6618 44.1679C50.9618 43.6759 49.7758 43.3709 49.0928 42.9609C51.3918 43.2099 53.7948 43.2309 55.9748 44.0479Z" fill="#AA4D4B"/>
<path d="M64.7898 59.3829C64.3208 61.4379 62.2928 61.4329 60.8048 60.3479C60.8558 60.2859 60.6068 60.1629 60.6838 60.0469C60.8168 59.8489 61.0418 59.7419 61.1668 59.5029C63.5478 58.1919 63.5238 61.6449 64.7898 59.3829Z" fill="#49121F"/>
<path d="M61.1665 59.5028C61.0415 59.7418 60.8165 59.8488 60.6835 60.0468C60.6065 60.1628 60.8555 60.2858 60.8045 60.3478C60.7905 60.3648 60.5265 60.2828 60.4425 60.5898C60.2415 60.7708 59.9355 60.8678 59.8385 60.9518C59.8485 60.7948 59.7325 60.8358 59.5975 60.8308C59.7105 60.3698 58.9405 60.4088 57.5445 59.0198C57.5175 58.5348 58.4285 59.1118 58.6915 59.1408C59.5055 59.2278 60.5265 59.1338 61.3475 59.0198C61.5385 59.1338 61.2585 59.3268 61.1665 59.5028Z" fill="#D77E5C"/>
<path d="M62.1326 55.2769C63.2826 56.2409 65.0256 57.4529 64.9096 59.1409C64.3236 59.2829 64.6106 58.4289 63.7626 57.6919C63.2876 57.2789 61.4756 57.0039 61.7706 55.3369C61.7896 55.2259 62.1306 55.2959 62.1326 55.2769Z" fill="#EB9F69"/>
<path d="M65.3928 48.0319C65.3518 48.1189 65.0428 48.9479 65.0308 48.9979C64.3548 48.4109 63.5478 48.6699 62.7368 48.7569C62.4468 48.7879 61.8798 48.8749 61.7108 49.1189L61.5298 48.8169C61.5828 48.7299 61.7638 48.4189 61.7708 48.3949C62.8168 48.1069 64.9538 47.3679 65.3928 48.0319Z" fill="#EB9F69"/>
<path d="M70.4647 27.7489C72.9977 29.6259 74.7797 31.0579 74.8117 34.3899C74.8187 35.1969 74.5097 35.9529 74.5697 36.1409C75.7287 36.7959 76.4197 37.1459 77.2267 38.2539C76.8977 39.5439 77.6947 40.6009 77.7097 40.7289C77.7717 41.2679 77.4557 41.9009 77.4677 42.7219L76.7437 44.7139L76.5017 44.7749C74.8817 40.8649 71.6647 40.6039 67.8687 41.0309C65.1757 41.3329 61.6037 42.7889 62.6157 44.4119C62.9177 44.8949 63.3747 44.4919 63.4617 44.8349C63.5097 45.0259 62.2687 46.6219 61.7707 48.3969C61.7637 48.4209 61.5827 48.7329 61.5297 48.8199L61.7107 49.1209C61.8797 48.8779 62.4467 48.7909 62.7367 48.7589C62.6817 48.9619 62.8597 49.0439 62.8577 49.0609C62.8047 49.3069 61.7877 50.0439 61.8917 53.8909C61.8917 53.9629 62.1987 54.3299 62.1327 55.2799C62.1327 55.2989 61.7897 55.2289 61.7707 55.3399C61.4757 57.0059 63.2877 57.2819 63.7627 57.6939C64.6107 58.4309 64.3237 59.2859 64.9097 59.1429C64.8887 59.4689 64.7917 59.3729 64.7897 59.3849C63.5237 61.6479 63.5477 58.1939 61.1667 59.5059C61.2587 59.3289 61.5387 59.1359 61.3477 59.0229C60.5267 59.1359 59.5057 59.2299 58.6917 59.1429C58.4287 59.1139 57.5177 58.5369 57.5447 59.0229C55.5407 57.0279 57.1507 58.3949 57.9067 54.6149C58.1527 53.3859 58.2687 50.4669 58.1487 49.2419C57.9717 47.4619 57.1317 45.6779 55.7337 44.5329C55.6367 44.1129 55.9387 44.2209 55.9747 44.0499C56.4867 41.6929 53.8977 40.4539 51.9907 40.3069C52.0237 40.3019 51.9177 40.1189 52.6547 40.1859L52.9567 39.7639C53.3187 36.0349 54.2437 29.0749 56.2167 25.9979C56.4287 25.6649 56.8297 25.7709 56.6997 25.2129C57.4577 25.0849 58.5447 24.7979 59.2347 24.7299C64.2727 24.2329 66.4577 24.7809 70.4647 27.7489Z" fill="#E79065"/>
<path d="M67.3857 28.3529C72.7607 31.2409 67.0327 39.4369 65.3927 35.1749C64.3257 32.3999 66.8547 28.4039 67.3857 28.3529Z" fill="url(#paint4_linear_81_888)"/>
<path d="M59.3558 56.6049C59.1728 56.5569 58.7498 56.5759 58.6318 56.3639C59.8028 52.3839 59.2888 50.2109 60.3218 47.0059C62.0338 45.7189 60.5468 50.1699 60.4428 50.9909C60.1238 53.5019 60.3168 56.8229 59.3558 56.6049Z" fill="#FBCDA5"/>
<path d="M59.3559 56.6049C63.722 57.7599 60.066 58.3829 58.269 56.9069C58.197 56.5229 58.622 56.3949 58.632 56.3639C58.75 56.5759 59.1729 56.5569 59.3559 56.6049Z" fill="#FBDCC9"/>
<path d="M41.4855 41.5119C41.1785 44.0789 41.0525 46.6559 41.1225 49.2399C41.1925 51.8119 41.6515 55.7139 42.0885 58.2959L41.7265 58.8999C41.6155 58.2549 41.4605 57.6169 41.3645 56.9679C41.3595 56.9289 41.3695 56.8849 41.3645 56.8469C41.3355 56.6439 41.2365 56.1679 41.1225 56.0019C41.0915 54.9439 40.8575 53.9129 40.7605 52.8619C40.4655 49.6869 40.3185 46.2599 40.7605 43.0819C40.8285 42.5959 40.9615 42.0429 40.8815 41.6929C41.1375 41.1879 41.1105 41.4849 41.4855 41.5119Z" fill="#C78E91"/>
<path d="M38.105 53.9489C38.614 54.5359 38.426 54.7459 39.071 55.3979C39.735 56.0689 40.64 56.2669 41.365 56.8469C41.37 56.8849 41.36 56.9288 41.365 56.9678C41.208 56.9408 41.21 57.3439 41.244 57.6319C41.524 60.0509 42.604 61.1699 40.157 59.2619C40.121 59.2329 39.947 59.1679 39.916 59.1409C39.819 59.0609 39.423 58.3389 38.467 57.6319C38.194 56.5549 37.767 55.5109 37.501 54.4319L38.105 53.9489Z" fill="#953D41"/>
<path d="M38.1047 53.9488L37.5007 54.4318C37.0177 52.4728 36.1817 48.4938 37.3797 46.8248C38.2787 47.9838 38.6937 49.3628 39.0707 50.7488C38.4977 51.5678 37.8047 52.9558 38.1047 53.9488Z" fill="#953D41"/>
<path d="M40.2775 50.4468C40.2775 50.8378 40.5215 51.9948 40.5195 52.0768C40.4875 52.9098 40.3455 52.6538 40.2775 52.9828C40.2415 53.1588 39.0505 54.2598 41.1225 56.0018C41.2365 56.1678 41.3355 56.6438 41.3645 56.8468C40.6395 56.2668 39.7345 56.0718 39.0705 55.3978C37.7905 53.6708 40.1105 51.3168 40.0365 50.4468H40.2775Z" fill="#301315"/>
<path d="M40.0369 50.4468C40.1109 51.3168 37.7929 53.6708 39.0709 55.3978C38.4259 54.7458 38.6139 54.5358 38.1049 53.9488C37.8049 52.9558 38.4979 51.5678 39.0709 50.7488C38.6939 49.3628 38.2789 47.9838 37.3799 46.8248C37.4599 46.7138 37.7449 46.2208 37.8029 46.2208C38.5249 47.6168 39.2179 49.0758 40.0369 50.4468Z" fill="#C05F55"/>
<path d="M40.7608 52.8618C40.8578 53.9128 41.0918 54.9438 41.1228 56.0018C39.0508 54.2598 40.2418 53.1588 40.2778 52.9828L40.7608 52.8618Z" fill="#792131"/>
<path d="M42.4518 43.0818C42.3768 43.9028 41.5888 48.8898 41.4858 49.1788C41.4468 49.2858 41.2248 49.2298 41.1228 49.2398C41.0528 46.6578 41.1788 44.0788 41.4858 41.5118C42.8718 41.6108 42.5508 42.0068 42.4518 43.0818Z" fill="#AA4D4B"/>
<path d="M57.3028 74.1139C57.1128 76.8739 58.0108 78.2889 60.9258 78.0979C60.8938 78.2869 61.1698 78.7259 61.1668 78.7619C61.1308 79.3779 60.5488 79.0039 60.5638 79.4269C58.8468 79.4599 58.5248 79.2649 57.0618 78.8229C56.3368 77.3739 55.7718 75.8599 55.6128 74.2339C57.0858 73.9109 57.2188 74.1259 57.3028 74.1139Z" fill="#D77E5C"/>
<path d="M49.0926 42.9609C49.7756 43.3709 50.9616 43.6759 50.6616 44.1679C48.9836 44.0479 45.7696 44.6079 45.3486 42.5989C47.1316 42.2819 47.5976 42.7989 49.0926 42.9609Z" fill="#D77E5C"/>
<path d="M55.6126 74.2339C55.7716 75.8599 56.3366 77.3739 57.0616 78.8229C57.0086 78.8059 56.8636 79.0139 56.5186 78.9439C55.1636 78.4269 53.8106 74.6669 55.1896 74.1139C55.3996 74.0289 55.5356 74.2509 55.6126 74.2339Z" fill="#C05F55"/>
<path d="M59.9597 63.0048C58.4377 62.9318 58.6287 63.0528 59.3557 64.2118C59.2547 64.1908 57.5327 63.9878 57.3027 63.9708C57.3947 62.9228 57.8997 62.4538 58.6317 61.7968C58.6867 61.7488 58.8897 61.7898 59.8387 60.9518C59.9357 60.8678 60.2417 60.7708 60.4427 60.5898C60.3607 61.2568 60.0267 62.4808 59.9597 63.0048Z" fill="#E79065"/>
<path d="M53.4395 58.5368C53.7845 60.2058 54.0715 59.9738 56.0355 58.6578C56.4795 58.6118 56.6845 59.1678 56.9405 59.3828C56.6605 59.5518 56.5905 59.7828 56.4575 59.8648C55.6265 60.3728 53.4105 61.2728 53.0765 59.8048C52.9635 59.3028 53.1925 57.3518 53.4395 58.5368Z" fill="#49121F"/>
<path d="M59.5975 60.8309C59.7325 60.8359 59.8485 60.7949 59.8385 60.9519C58.8895 61.7899 58.6865 61.7489 58.6315 61.7969L56.4575 59.8649C56.5905 59.7829 56.6605 59.5519 56.9405 59.3829C57.9545 60.2279 58.0705 60.7759 59.5975 60.8309Z" fill="#5F272F"/>
<path d="M56.0957 56.6049C55.4077 57.7569 54.0477 59.0899 53.6807 58.4169C53.8037 58.2279 53.9607 56.6659 56.1557 56.3639L56.0957 56.6049Z" fill="#E79065"/>
<path d="M76.8636 62.5219C76.8496 62.6809 76.8736 62.8459 76.8636 63.0049C76.8396 63.0239 76.6296 62.8939 76.3806 63.4279C75.4006 67.9169 74.8986 68.8559 72.0346 72.3019C71.8116 72.6309 71.6886 72.5289 71.6716 72.5439C71.2326 72.9499 70.7516 73.2679 70.2836 73.6309C69.4386 73.2829 72.2856 70.9329 71.2496 70.9739C70.8826 70.9889 69.3436 73.6449 66.7816 74.4759C65.5066 76.1909 63.0896 77.9559 60.9256 78.0979C58.0106 78.2889 57.1126 76.8739 57.3026 74.1139C59.4766 73.8139 62.1696 73.6719 62.7366 71.0949C63.6256 70.5199 64.9386 68.9919 65.7556 68.1969C66.4096 68.2019 67.5276 67.9629 67.6876 67.2309C68.2186 67.1469 68.2986 67.2239 68.4726 66.0239C67.4796 66.2819 65.4506 66.3809 65.0306 66.5069C63.7996 65.1739 61.9086 64.4349 60.0806 64.4539C60.0726 64.4509 60.1286 64.3789 59.9596 64.3329C59.9986 63.9079 59.9066 63.4149 59.9596 63.0049C60.0266 62.4809 60.3606 61.2569 60.4426 60.5899C60.5266 60.2829 60.7906 60.3649 60.8046 60.3479C62.2926 61.4329 64.3206 61.4379 64.7896 59.3829C64.7916 59.3699 64.8886 59.4669 64.9096 59.1409C65.0256 57.4529 63.2826 56.2409 62.1326 55.2769C62.1986 54.3279 61.8936 53.9609 61.8916 53.8889C61.7876 50.0419 62.8046 49.3049 62.8576 49.0589C62.8596 49.0419 62.6816 48.9599 62.7366 48.7569C63.5476 48.6699 64.3546 48.4109 65.0306 48.9979C65.0216 49.0369 65.0376 49.0799 65.0306 49.1189C65.0016 49.2569 64.9076 49.8069 64.9096 49.8429C64.9146 49.9419 64.9946 49.9639 65.0306 50.0849C65.0356 50.1019 64.7536 50.2519 65.0916 50.4469C67.2666 50.3889 68.8346 53.6129 72.3966 51.4129C72.9756 51.0559 73.5246 50.6379 73.7246 49.9639C73.8306 49.9569 74.3526 49.7249 74.3886 49.7229C75.0506 49.6869 76.0016 50.1859 75.4146 49.4809C76.1106 49.6189 76.6906 48.0059 76.6226 47.3679C76.5796 46.9619 75.1756 44.7479 74.8116 44.1679C74.8546 44.1659 74.6446 43.9339 75.5356 44.0479C75.8276 44.2119 76.4146 44.7789 76.5016 44.7719L76.7436 44.7119L77.4676 42.7189C77.5136 45.9479 77.4896 52.1429 77.3466 55.2169C77.2336 57.6629 76.4726 60.1139 76.8636 62.5219Z" fill="url(#paint5_linear_81_888)"/>
<path d="M61.4684 73.7509C67.7014 73.5049 60.8604 78.1219 58.1484 74.5359C58.1744 74.2709 61.0584 73.7679 61.4684 73.7509Z" fill="#FBCDA5"/>
<path d="M71.3695 54.3108C72.2245 54.1778 73.9785 55.9628 71.9735 57.6918C68.4435 60.7348 69.9985 54.5238 71.3695 54.3108Z" fill="#F7E9E0"/>
<path d="M68.7738 50.3259C68.2088 51.1479 71.6768 51.8189 72.2758 50.6889C72.4088 50.8409 72.7318 50.7779 72.7588 50.8699C72.7688 50.9009 72.5338 50.8429 72.3968 51.4129C68.8348 53.6129 67.2668 50.3889 65.0918 50.4469C64.7538 50.2519 65.0358 50.1019 65.0308 50.0849C66.2938 49.7179 67.5018 50.2829 68.7738 50.3259Z" fill="#CA6F58"/>
<path d="M75.5359 44.0479C74.6449 43.9339 74.8549 44.1659 74.8119 44.1679C74.1479 44.2069 68.2909 44.4769 68.1709 44.1679C68.5089 44.0719 68.5109 43.9319 68.5329 43.9269C71.4979 43.1199 72.6599 42.4389 75.5359 44.0479Z" fill="#FBCDA5"/>
<path d="M71.0687 46.5829C69.4457 46.2309 67.9097 46.2279 66.5407 47.3079C65.5717 48.0709 65.2917 49.4689 65.0307 49.1189C65.0377 49.0799 65.0217 49.0369 65.0307 48.9979C65.0427 48.9479 65.3517 48.1189 65.3927 48.0319C66.8037 45.0429 70.5177 45.4679 72.9397 46.9459C75.3617 48.4229 71.8527 46.7549 71.0687 46.5829Z" fill="#501D1C"/>
<path d="M71.0687 46.5829C71.2857 47.1889 70.9837 46.7669 70.7057 47.0659C67.8807 46.7189 66.5357 47.7519 64.9097 49.8429C64.9097 49.8069 65.0017 49.2569 65.0307 49.1189C65.2917 49.4689 65.5717 48.0709 66.5407 47.3079C67.9097 46.2279 69.4457 46.2309 71.0687 46.5829Z" fill="#AC6A63"/>
<path d="M73.7248 49.9639C73.5248 50.6379 72.9758 51.0559 72.3968 51.4129C72.5338 50.8429 72.7688 50.9009 72.7588 50.8699C72.7318 50.7779 72.4088 50.8409 72.2758 50.6889C72.0828 50.4689 72.1628 50.3309 72.1548 50.0849C72.1918 50.0829 72.7708 49.8479 72.8188 49.8429C73.6978 49.7639 73.6788 49.9669 73.7248 49.9639Z" fill="#C05F55"/>
<path d="M59.9597 63.0049C59.9067 63.4149 59.9987 63.9079 59.9597 64.3329C59.7057 64.2629 59.5607 64.2579 59.3557 64.2119C58.6287 63.0529 58.4377 62.9319 59.9597 63.0049Z" fill="#49121F"/>
<path d="M67.6879 67.2309C67.5279 67.9629 66.4099 68.2019 65.7559 68.1969C65.8689 68.0859 65.9589 67.7119 66.1179 67.5929C66.9389 66.9869 66.9219 67.3519 67.6879 67.2309Z" fill="#F8DEA8"/>
<path d="M68.5326 43.9269C68.4456 43.9819 68.1006 43.7869 68.1706 44.1679C66.6346 44.6009 65.2866 45.5499 63.7026 44.5309C65.4316 44.2939 69.4136 42.4589 70.7666 43.2019C70.0056 43.3229 69.1916 43.4969 68.5326 43.9269Z" fill="#AA4D4B"/>
<path d="M53.1974 65.299C54.7814 66.369 56.1294 66.7769 58.0274 66.8689C58.2274 66.8779 58.4304 66.8659 58.6314 66.8689C59.2684 66.8779 61.4374 66.7789 61.8914 66.6269C62.3864 66.6389 63.3524 66.5939 63.5814 66.9899C63.2384 67.0809 62.7874 67.4409 61.2874 67.7139C60.8384 67.7959 60.4234 67.9269 59.9594 67.9559C59.2514 67.9989 58.6024 67.8829 57.9064 67.8349C57.7474 67.8229 57.5834 67.8489 57.4234 67.8349C57.0614 67.8009 56.8774 67.7329 56.6994 67.7139C56.1364 67.6559 55.6684 67.4799 55.6124 67.4729C55.2574 67.4339 54.8754 67.3999 54.5254 67.3519C54.5014 67.3489 54.6484 67.3159 54.0424 67.2309C54.1244 66.8059 53.6274 67.1049 53.4394 66.9289C53.3884 66.8809 53.5214 66.4869 53.3784 66.3859C53.2284 66.2799 51.4034 66.5069 51.5074 65.9029C51.5194 65.9029 51.4634 65.6829 51.5674 65.6609C51.6564 65.6419 52.1374 65.734 53.1974 65.299Z" fill="#6F1038"/>
<path d="M66.1178 67.5929C65.9588 67.7119 65.8688 68.0859 65.7558 68.1969C64.9388 68.9919 63.6258 70.5199 62.7368 71.0949C62.7098 71.1119 62.6528 71.0469 62.1328 71.3359C61.7688 70.9279 60.9498 71.4089 60.2008 71.4569C58.1798 71.3169 58.8998 70.9939 58.8128 70.9739C58.2568 70.8559 57.6538 70.9259 56.9408 70.7329C55.9198 69.8729 55.6878 68.8009 55.6128 67.4729C55.6688 67.4799 56.1368 67.6559 56.6998 67.7139C56.4818 68.5909 56.8948 69.7689 57.6658 70.2499C58.8338 70.9769 60.4528 69.9069 61.5898 70.6119C61.7078 70.5929 61.5898 70.2959 61.7108 70.2499C63.0648 69.7449 64.5138 68.6729 64.9098 67.2309C65.3718 67.3249 66.0238 66.9679 66.1178 67.5929Z" fill="#B93A6D"/>
<path d="M54.0424 67.2309C54.6484 67.3159 54.5014 67.3489 54.5254 67.3519C54.6564 69.9889 54.9724 70.2009 56.9404 70.7329C57.6534 70.9259 58.2564 70.8559 58.8124 70.9739C58.8994 70.9939 58.1794 71.3169 60.2004 71.4569C56.6944 71.6869 55.3104 71.1049 52.7744 68.8009L52.7144 69.0419C52.1394 68.4099 51.4684 67.8569 51.0244 67.1099C52.0434 67.0889 53.0284 67.0889 54.0424 67.2309Z" fill="#6F1038"/>
<path d="M60.2004 71.4569C60.9494 71.4089 61.7684 70.9279 62.1324 71.3359C57.7524 73.7829 55.7834 72.4179 52.7144 69.0419L52.7744 68.8009C55.3104 71.1049 56.6944 71.6869 60.2004 71.4569Z" fill="#49121F"/>
<path d="M55.9748 64.0919C56.0668 65.4099 57.0978 66.1199 58.0278 66.8689C56.1318 66.7769 54.7818 66.369 53.1978 65.299L55.7938 63.9709L55.9748 64.0919Z" fill="#6F1038"/>
<path d="M57.3024 63.9709C57.5324 63.9879 59.2544 64.1909 59.3554 64.2119C59.5604 64.2579 59.7054 64.2629 59.9594 64.3329C60.1284 64.3789 60.0724 64.4509 60.0804 64.4539C60.1544 64.4779 61.0414 64.9199 61.5294 65.0579C59.9424 65.5549 58.3514 64.6369 56.8194 64.8159C56.5054 64.5189 56.3684 64.2339 56.3364 64.2119C56.4144 63.8839 56.9524 63.9439 57.3024 63.9709Z" fill="#AC3252"/>
<path d="M51.5076 65.903C51.4036 66.507 53.2286 66.28 53.3786 66.386C53.5216 66.487 53.3886 66.881 53.4396 66.929C53.6276 67.105 54.1246 66.806 54.0426 67.231C53.0286 67.089 52.0436 67.089 51.0246 67.11L49.4546 65.963C49.5606 65.792 50.2996 66.12 51.5076 65.903Z" fill="#49121F"/>
<path d="M56.3366 64.212C56.3686 64.234 56.5056 64.519 56.8196 64.816C57.3226 65.289 58.3466 66.4 58.6316 66.869C58.4306 66.866 58.2276 66.878 58.0276 66.869C57.0976 66.12 56.0666 65.41 55.9746 64.092C56.1126 64.068 56.2356 64.14 56.3366 64.212Z" fill="#98234E"/>
<path d="M65.0306 66.507C64.9896 66.519 64.4976 66.895 64.3066 66.99C63.9296 66.946 63.9806 66.883 63.5816 66.99C63.3526 66.594 62.3866 66.639 61.8916 66.627C62.9246 66.28 61.6166 66.42 61.5296 65.058C61.0416 64.92 60.1546 64.478 60.0806 64.454C61.9086 64.435 63.7996 65.174 65.0306 66.507Z" fill="#C85274"/>
<path d="M67.6877 67.2309C66.9217 67.3519 66.9387 66.9869 66.1177 67.5929C66.0237 66.9679 65.3717 67.3249 64.9097 67.2309C64.1037 67.3329 64.3447 66.9939 64.3067 66.9899C64.4977 66.8949 64.9897 66.5189 65.0307 66.5069C65.4507 66.3809 67.4797 66.2819 68.4727 66.0239C68.2987 67.2239 68.2187 67.1469 67.6877 67.2309Z" fill="#49121F"/>
<path d="M64.3065 66.9899C64.3445 66.9939 64.1035 67.3329 64.9095 67.2309C64.5135 68.6729 63.0645 69.7449 61.7105 70.2499C61.5895 70.2959 61.7075 70.5929 61.5895 70.6119C60.4525 69.9069 58.8335 70.9769 57.6655 70.2499L59.1745 70.0079C59.3675 69.8849 59.3095 69.4479 59.2345 69.2839C59.0685 68.9219 58.1915 68.1969 57.9065 67.8349C58.6025 67.8829 59.2515 67.9989 59.9595 67.9559C60.5145 68.4169 61.3765 68.3519 62.0725 68.4389C61.8235 67.9849 61.4085 68.3899 61.2875 67.7139C62.7845 67.4409 63.2385 67.0809 63.5815 66.9899C63.9805 66.8829 63.9295 66.9459 64.3065 66.9899Z" fill="#C85274"/>
<path d="M61.5298 65.058C61.6168 66.42 62.9248 66.28 61.8918 66.627C61.4378 66.779 59.2688 66.878 58.6318 66.869C58.3468 66.4 57.3228 65.289 56.8198 64.816C58.3488 64.637 59.9428 65.555 61.5298 65.058Z" fill="#B93A6D"/>
<path d="M55.6124 67.4729C55.6874 68.8009 55.9194 69.8729 56.9404 70.7329C54.9724 70.2009 54.6564 69.9889 54.5254 67.3519C54.8754 67.3999 55.2574 67.4339 55.6124 67.4729Z" fill="#98234E"/>
<path d="M57.4236 67.8349C56.3126 67.9479 57.8776 69.3919 59.2346 69.2839C59.3096 69.4479 59.3676 69.8849 59.1746 70.0079L57.6656 70.2499C56.8946 69.7689 56.4816 68.5909 56.6996 67.7139C56.8776 67.7329 57.0616 67.8009 57.4236 67.8349Z" fill="#C85274"/>
<path d="M57.9068 67.8349C58.1918 68.1969 59.0688 68.9219 59.2348 69.2839C57.8778 69.3919 56.3128 67.9479 57.4238 67.8349C57.5838 67.8489 57.7478 67.8229 57.9068 67.8349Z" fill="#F6CCD6"/>
<path d="M59.9595 67.9559C60.4235 67.9269 60.8385 67.7959 61.2875 67.7139C61.4085 68.3899 61.8235 67.9849 62.0725 68.4389C61.3765 68.3519 60.5145 68.4169 59.9595 67.9559Z" fill="#F5B0D0"/>
<path d="M44.6246 40.9078C44.1846 41.4468 43.6536 41.9368 43.2966 42.5378C41.2196 46.0418 43.6926 42.8928 45.3486 42.5988C45.7696 44.6078 48.9836 44.0478 50.6616 44.1678C52.3526 44.2888 54.0476 44.2838 55.7336 44.5308C57.1316 45.6748 57.9716 47.4578 58.1486 49.2398C57.0036 48.0808 58.2836 49.4278 57.1826 51.3528C55.9676 53.4778 53.1416 54.0288 53.7406 56.9678L56.2766 55.7598C57.0926 55.8468 56.1246 56.5548 56.0956 56.6048L56.1556 56.3638C53.9606 56.6658 53.8036 58.2278 53.6806 58.4168C53.6736 58.4288 53.4896 58.5248 53.4396 58.5368C53.1926 57.3518 52.9636 59.3028 53.0766 59.8048C53.4106 61.2728 55.6266 60.3728 56.4576 59.8648L58.6316 61.7968C57.8996 62.4538 57.3946 62.9228 57.3026 63.9708C56.9526 63.9438 56.4146 63.8838 56.3366 64.2118C56.2356 64.1398 56.1126 64.0678 55.9746 64.0918L55.7936 63.9708L53.1976 65.2988C52.1376 65.7338 51.6566 65.6418 51.5676 65.6608C51.4636 65.6828 51.5196 65.8998 51.5076 65.9028C50.2996 66.1198 49.5606 65.7918 49.4546 65.9628L51.0246 67.1098C51.4686 67.8568 52.1396 68.4098 52.7146 69.0418C55.7816 72.4178 57.7526 73.7828 62.1326 71.3358C62.6526 71.0468 62.7096 71.1118 62.7366 71.0948C62.1696 73.6718 59.4766 73.8138 57.3026 74.1138C57.2186 74.1258 57.0856 73.9108 55.6126 74.2338C55.5356 74.2508 55.3996 74.0288 55.1896 74.1138C53.8106 74.6668 55.1636 78.4268 56.5186 78.9438C56.8636 79.0138 57.0086 78.8058 57.0616 78.8228C58.5246 79.2648 58.8466 79.4598 60.5636 79.4268C61.5896 79.4048 62.5606 79.0018 63.5816 79.1848C63.3046 79.2888 63.0166 79.3468 62.7366 79.4268C60.3776 80.1048 58.7256 80.2448 56.3366 79.6678C53.0186 77.8858 49.6136 75.5508 47.2806 72.5438C44.5326 68.9988 42.8346 62.7028 42.0886 58.2958C41.6516 55.7138 41.1926 51.8138 41.1226 49.2398C41.2246 49.2298 41.4466 49.2858 41.4856 49.1788C41.5886 48.8898 42.3766 43.9028 42.4516 43.0818C42.6176 44.4218 43.0046 41.7818 44.6246 40.9078Z" fill="#953D41"/>
<path d="M56.3366 79.6678C53.9266 79.0858 51.9125 77.3738 50.0585 75.8038C49.5845 75.4028 48.7206 74.5768 48.2466 74.1138C47.6626 73.5408 47.6696 73.6568 47.6436 73.6308C47.4336 73.4128 47.2446 73.1308 47.0396 72.9058L47.2805 72.5438C49.6115 75.5508 53.0186 77.8858 56.3366 79.6678Z" fill="#C78E91"/>
<path d="M54.1638 50.0848C54.1518 50.0988 54.1708 50.2268 54.1638 50.3258C52.7898 51.7048 52.3938 56.2938 51.2658 58.4168C50.9788 58.9568 49.8118 60.3768 49.3338 60.8308C49.0418 61.1088 47.8468 62.0218 47.5228 62.1598C48.0878 57.0158 43.8348 53.8958 45.3488 51.2918C45.8898 51.2318 49.6698 52.4008 51.3868 51.2918C51.8868 50.9688 51.8358 50.5578 51.9908 49.9638C51.9908 49.9568 52.0798 50.0098 52.1108 49.8428L53.3188 49.7228C53.6128 49.9708 53.5338 50.1958 54.1638 50.0848Z" fill="#D77E5C"/>
<path d="M45.3488 51.2917C43.8348 53.8957 48.0878 57.0127 47.5228 62.1597C47.5058 62.1667 47.4698 62.2677 47.2208 62.4007C46.7768 59.4547 45.2598 58.5027 44.5038 57.0277C43.5168 55.0957 42.7648 51.5797 45.3488 51.2917Z" fill="#C05F55"/>
<path d="M45.5904 49.2398C46.1604 49.3868 49.2654 49.9298 49.5754 49.7228C49.5924 49.7128 49.7074 49.7488 49.6954 49.6018C50.5044 50.0658 51.0864 49.9708 51.9904 49.9638C51.8354 50.5578 51.8864 50.9688 51.3864 51.2918C49.3434 51.3258 45.9164 51.2758 45.1074 49.1188C45.3074 49.1838 45.4264 49.1958 45.5904 49.2398Z" fill="#CA6F58"/>
<path d="M54.1637 50.3258C54.1707 50.2268 54.1517 50.0988 54.1637 50.0848C54.1807 50.0658 54.4077 50.1258 54.4047 50.0248C54.3907 49.2108 51.7877 46.5248 49.8167 46.0998C49.5387 46.0398 49.2587 45.9918 48.9717 45.9798C49.6457 44.9598 52.6377 46.4958 53.4997 47.1868C54.2647 47.7998 54.7817 48.6578 55.3707 49.4208C54.5937 50.3528 54.2167 50.2728 54.1637 50.3258Z" fill="#AA4D4B"/>
<path d="M49.3338 60.8307C49.8118 60.3767 50.9788 58.9567 51.2658 58.4167C51.5388 58.6917 51.4588 59.1677 51.3868 59.5637C50.8188 62.6807 47.6048 64.8087 49.3338 60.8307Z" fill="#AA4D4B"/>
<path d="M54.1635 50.0849C53.5335 50.1959 53.6125 49.9709 53.3185 49.7229C52.9075 49.3749 52.5265 48.7469 52.2315 48.5149C52.0985 48.4109 52.0045 48.3579 51.8695 48.2739C50.1525 47.1869 51.0405 47.9039 51.7485 48.8779C51.6905 48.9429 50.2295 49.0299 49.9975 49.1189C49.7035 48.6479 49.4135 48.1309 49.5755 47.6099C47.2665 47.3099 46.9045 49.1719 46.7375 49.2399C46.5975 49.2979 45.8395 48.8899 45.5905 49.2399C45.4265 49.1959 45.3075 49.1839 45.1075 49.1189C44.9775 49.0779 44.6965 49.0339 44.6245 48.9979C46.0205 49.0419 45.3875 48.5639 45.8315 47.9119C47.0245 46.1629 49.5635 46.5709 49.7565 46.4629C49.8695 46.3999 49.8025 46.2069 49.8165 46.0999C51.7875 46.5249 54.3905 49.2109 54.4045 50.0249C54.4045 50.1259 54.1805 50.0659 54.1635 50.0849Z" fill="#301315"/>
<path d="M48.9716 45.9798C49.2586 45.9918 49.5386 46.0398 49.8166 46.0998C49.8026 46.2068 49.8696 46.3998 49.7566 46.4628C49.5636 46.5688 47.0246 46.1628 45.8316 47.9118C45.6726 47.9038 45.5086 47.9208 45.3486 47.9118C45.8856 46.4888 47.5246 45.9218 48.9716 45.9798Z" fill="#301315"/>
<path d="M45.3485 47.9119C45.5085 47.9209 45.6725 47.9039 45.8315 47.9119C45.3875 48.5639 46.0205 49.0419 44.6245 48.9979C44.2305 48.8069 43.5525 48.0809 43.4165 47.7299C42.7845 46.0949 43.7915 47.8079 45.3485 47.9119Z" fill="#251415"/>
<path d="M51.7483 48.8778C51.9443 48.6598 51.8623 48.5178 51.8693 48.2738C52.0043 48.3578 52.0983 48.4108 52.2313 48.5148C52.0813 48.6288 52.2213 49.2688 52.1103 49.8428C52.0793 50.0098 51.9923 49.9568 51.9903 49.9638C51.0863 49.9708 50.5043 50.0658 49.6953 49.6018C49.1303 49.2778 48.6213 48.5388 48.7293 47.8508C48.4763 47.4018 46.0133 49.5998 49.5753 49.7228C49.2683 49.9298 46.1603 49.3868 45.5903 49.2398C45.8393 48.8898 46.5973 49.2978 46.7373 49.2398C46.9043 49.1718 47.2663 47.3098 49.5753 47.6098C49.4133 48.1308 49.7033 48.6478 49.9973 49.1188C50.2293 49.0298 51.6903 48.9428 51.7483 48.8778Z" fill="#292231"/>
<path d="M53.3184 49.7229L52.1104 49.8429C52.2214 49.2689 52.0813 48.6289 52.2313 48.5149C52.5263 48.7469 52.9074 49.3749 53.3184 49.7229Z" fill="#EFF3F7"/>
<path d="M51.8693 48.2738C51.8623 48.5178 51.9443 48.6598 51.7483 48.8778C51.0403 47.9038 50.1523 47.1868 51.8693 48.2738Z" fill="#F7E9E0"/>
<path d="M49.6955 49.6018C49.7075 49.7488 49.5925 49.7128 49.5755 49.7228C46.0135 49.5998 48.4765 47.4018 48.7295 47.8508C48.6215 48.5388 49.1305 49.2778 49.6955 49.6018Z" fill="#EFF3F7"/>
<path d="M71.1889 49.9639C71.2379 49.9619 72.0129 50.0989 72.1549 50.0849C72.1629 50.3309 72.0829 50.4689 72.2759 50.6889C71.6769 51.8189 68.2089 51.1479 68.7739 50.3259C70.6869 50.3889 70.9499 49.9709 71.0689 49.9639C71.1099 49.9619 71.1479 49.9639 71.1889 49.9639Z" fill="#FBCDA5"/>
<path d="M70.7057 47.0659C72.4687 47.2839 75.0387 49.4058 75.4147 49.4808C76.0017 50.1858 75.0507 49.6868 74.3887 49.7228C74.3527 49.7228 73.8307 49.9568 73.7247 49.9638C73.6787 49.9668 73.6977 49.7638 72.8187 49.8428C72.7707 49.8478 72.1917 50.0828 72.1547 50.0848C72.0127 50.0988 71.2377 49.9618 71.1887 49.9638C72.8437 50.0728 71.5967 48.7618 71.4907 48.7568C71.2547 48.7468 71.2497 49.7588 71.0687 49.9638C70.9497 49.9708 70.6867 50.3888 68.7737 50.3258C67.5017 50.2828 66.2937 49.7178 65.0307 50.0848C64.9947 49.9638 64.9147 49.9418 64.9097 49.8428C66.5357 47.7518 67.8807 46.7189 70.7057 47.0659Z" fill="#301315"/>
<path d="M70.7056 48.9979C70.7056 48.9979 70.8416 48.9719 70.8266 49.1189C70.8096 49.2109 71.0466 50.0969 69.6796 50.0849C69.4386 50.0849 67.3636 49.2589 68.2306 48.3949C69.5086 49.3149 69.2596 48.5099 69.6796 48.5149C69.8556 48.5149 70.5826 49.3409 70.7056 48.9979Z" fill="#4C1E33"/>
<path d="M67.3857 48.5149C68.8077 50.6809 68.6317 50.2559 66.1177 49.5419L67.3857 48.5149Z" fill="#EFF3F7"/>
<path d="M71.1889 49.9639C71.1479 49.9639 71.1098 49.9619 71.0688 49.9639C71.2498 49.7589 71.2548 48.7469 71.4908 48.7569C71.5968 48.7619 72.8439 50.0729 71.1889 49.9639Z" fill="#EFF3F7"/>
<path d="M70.8265 49.1189C70.8415 48.9719 70.7105 49.0049 70.7055 48.9979C70.3535 48.6119 69.8555 48.5229 70.2835 48.3949C71.3365 48.0809 70.8385 49.0539 70.8265 49.1189Z" fill="#EFF3F7"/>
<path d="M68.5329 43.9268C68.5109 43.9318 68.5089 44.0718 68.1709 44.1678C68.1009 43.7868 68.4459 43.9818 68.5329 43.9268Z" fill="#180F1A"/>
</g>
</g>
<defs>
<linearGradient id="paint0_linear_81_888" x1="39.906" y1="108.643" x2="30.4345" y2="113.719" gradientUnits="userSpaceOnUse">
<stop stop-color="#9CCEC3"/>
<stop offset="1" stop-color="#B7CFB1"/>
</linearGradient>
<linearGradient id="paint1_linear_81_888" x1="57.0037" y1="49.5633" x2="30.1544" y2="51.5871" gradientUnits="userSpaceOnUse">
<stop stop-color="#27182A"/>
<stop offset="1" stop-color="#0C0F1C"/>
</linearGradient>
<linearGradient id="paint2_linear_81_888" x1="73.2781" y1="80.9913" x2="58.2451" y2="93.8799" gradientUnits="userSpaceOnUse">
<stop stop-color="#E48E64"/>
<stop offset="1" stop-color="#BF6452"/>
</linearGradient>
<linearGradient id="paint3_linear_81_888" x1="42.4223" y1="33.6343" x2="53.6349" y2="34.2453" gradientUnits="userSpaceOnUse">
<stop stop-color="#95463E"/>
<stop offset="1" stop-color="#DD8361"/>
</linearGradient>
<linearGradient id="paint4_linear_81_888" x1="68.4771" y1="31.4439" x2="65.8183" y2="33.5304" gradientUnits="userSpaceOnUse">
<stop stop-color="#F8DAB9"/>
<stop offset="1" stop-color="#F6F1ED"/>
</linearGradient>
<linearGradient id="paint5_linear_81_888" x1="63.1762" y1="51.5218" x2="72.9519" y2="69.8464" gradientUnits="userSpaceOnUse">
<stop stop-color="#F9BE92"/>
<stop offset="1" stop-color="#ED9B6B"/>
</linearGradient>
<clipPath id="clip0_81_888">
<rect width="120" height="120" fill="white"/>
</clipPath>
</defs>
</svg>
