<svg width="461" height="260" viewBox="0 0 461 260" fill="none" xmlns="http://www.w3.org/2000/svg">
<g clip-path="url(#clip0_76_53)">
<path d="M460.8 0H0V259.2H460.8V0Z" fill="#9EF1DF"/>
<path fill-rule="evenodd" clip-rule="evenodd" d="M230.4 24.24C288.55 24.24 335.76 71.45 335.76 129.6C335.76 187.75 288.55 234.96 230.4 234.96C172.25 234.96 125.04 187.75 125.04 129.6C125.04 71.45 172.25 24.24 230.4 24.24ZM230.4 51.384C273.569 51.384 308.616 86.431 308.616 129.6C308.616 172.769 273.569 207.816 230.4 207.816C187.231 207.816 152.184 172.769 152.184 129.6C152.184 86.431 187.231 51.384 230.4 51.384Z" fill="#1DAF9B"/>
<path fill-rule="evenodd" clip-rule="evenodd" d="M232.126 65.5291C233.083 65.5541 234.036 65.6011 234.984 65.6681L239.18 74.3841L234.302 83.9441L231.766 76.5301L225.912 71.6521L227.668 69.3111L232.126 65.5291Z" fill="#155A53"/>
<path fill-rule="evenodd" clip-rule="evenodd" d="M251.734 69.1479C276.634 77.9459 294.494 101.704 294.494 129.6C294.494 146.849 287.666 162.515 276.569 174.039L277.812 164.72L275.471 159.062L277.422 151.062L275.471 147.55L274.69 140.331H259.667L250.887 130.868L253.423 117.893L267.471 109.113L275.08 112.625L277.812 108.723L283.47 110.089V104.626L281.129 107.357L279.178 100.528L280.544 95.8459L277.032 92.7239L273.715 96.0409L278.007 101.114L276.641 104.821L274.105 101.699L269.032 97.7969L267.276 99.9429L272.154 103.65L271.568 107.943L263.569 103.065L261.032 106.187L261.423 109.113L254.594 113.601L252.448 106.577L259.081 100.919L254.789 98.9679L252.057 99.5529L249.521 90.7729L257.325 95.6509L257.52 91.3579L264.544 89.4069L266.886 85.1149L258.496 77.896L257.13 79.8469L260.252 87.2609L256.545 85.1149L252.838 85.8949L251.734 69.1479Z" fill="#155A53"/>
<path fill-rule="evenodd" clip-rule="evenodd" d="M219.342 66.458L211.474 80.822L214.206 92.919L222.205 79.652L232.741 90.188L223.766 102.675L214.011 108.723L210.304 121.991L204.06 114.186L193.329 115.747L188.256 120.235L188.646 123.552L187.085 126.088L191.963 130.868L196.06 129.6L195.475 135.453L199.963 139.551L200.353 144.233L205.036 147.55L212.645 141.502L222.01 143.063L232.936 148.331L246.789 156.33L249.521 159.062L244.448 166.086L244.643 169.403L244.058 173.89L238.4 177.402V181.695L230.4 187.353L231.478 193.685C231.121 193.691 230.761 193.694 230.4 193.694C226.841 193.694 223.35 193.403 219.948 192.844L217.035 179.548L214.596 171.744L209.718 170.378L201.914 161.403L202.499 154.379L204.255 149.892L198.402 147.355L192.744 137.795L183.378 133.307L178.891 123.356L180.256 112.43L176.744 119.844L177.915 109.699L180.452 97.407L180.259 89.692L180.318 89.617L185.915 90.968L198.987 79.066L204.406 71.004C209.114 68.911 214.12 67.368 219.342 66.458Z" fill="#155A53"/>
<path d="M96.96 0H0V259.2H96.96V0Z" fill="#1DAF9B"/>
<path d="M460.8 0H363.84V259.2H460.8V0Z" fill="#1DAF9B"/>
</g>
<defs>
<clipPath id="clip0_76_53">
<rect width="461" height="260" fill="white"/>
</clipPath>
</defs>
</svg>
