<svg width="461" height="260" viewBox="0 0 461 260" fill="none" xmlns="http://www.w3.org/2000/svg">
<g clip-path="url(#clip0_76_9)">
<path d="M460.8 0H0V259.2H460.8V0Z" fill="#4B0404"/>
<path fill-rule="evenodd" clip-rule="evenodd" d="M63.201 160.745L72.537 189.48H102.752L78.308 207.24L87.644 235.975L63.201 218.216L38.757 235.975L48.093 207.24L23.65 189.48H53.864L63.201 160.745Z" fill="#FFDFDF"/>
<path fill-rule="evenodd" clip-rule="evenodd" d="M397.599 23.65L406.936 52.385H437.15L412.707 70.145L422.043 98.88L397.599 81.121L373.156 98.88L382.492 70.145L358.048 52.385H388.263L397.599 23.65Z" fill="#FFDFDF"/>
<path fill-rule="evenodd" clip-rule="evenodd" d="M397.599 160.745L406.936 189.48H437.15L412.707 207.24L422.043 235.975L397.599 218.216L373.156 235.975L382.492 207.24L358.048 189.48H388.263L397.599 160.745Z" fill="#FFDFDF"/>
<path fill-rule="evenodd" clip-rule="evenodd" d="M63.201 23.65L72.537 52.385H102.752L78.308 70.145L87.644 98.88L63.201 81.121L38.757 98.88L48.093 70.145L23.65 52.385H53.864L63.201 23.65Z" fill="#FFDFDF"/>
<path fill-rule="evenodd" clip-rule="evenodd" d="M230.697 66.024C281.192 90.669 309.355 137.635 324.96 197.16H135.84C151.476 137.516 179.721 90.481 230.4 65.88L230.697 66.024Z" fill="#EE1414"/>
<path fill-rule="evenodd" clip-rule="evenodd" d="M324.96 182.28C324.96 175.988 319.852 170.88 313.56 170.88H147.24C140.948 170.88 135.84 175.988 135.84 182.28V205.08C135.84 211.372 140.948 216.48 147.24 216.48H313.56C319.852 216.48 324.96 211.372 324.96 205.08V182.28Z" fill="#FFDFDF"/>
<path d="M230.4 86.4C247.101 86.4 260.64 72.8611 260.64 56.16C260.64 39.4589 247.101 25.92 230.4 25.92C213.699 25.92 200.16 39.4589 200.16 56.16C200.16 72.8611 213.699 86.4 230.4 86.4Z" fill="#FFDFDF"/>
</g>
<defs>
<clipPath id="clip0_76_9">
<rect width="461" height="260" fill="white"/>
</clipPath>
</defs>
</svg>
