<svg width="461" height="260" viewBox="0 0 461 260" fill="none" xmlns="http://www.w3.org/2000/svg">
<g clip-path="url(#clip0_76_2)">
<path d="M460.8 0H0V259.2H460.8V0Z" fill="#FFF0F0"/>
<path d="M460.8 0H0V129.6H460.8V0Z" fill="#FF2323"/>
<path d="M460.8 129.6H0V259.2H460.8V129.6Z" fill="#FFF0F0"/>
<path fill-rule="evenodd" clip-rule="evenodd" d="M226.957 203.76C195.047 181.619 186.909 155.425 199.117 125.76C164.896 161.036 162.292 190.521 219.037 209.04C209.291 211.271 204.281 216.245 201.037 222.24C209.659 215.173 218.749 210.911 228.397 210C237.743 211.708 245.576 215.162 250.477 222C249.556 216.019 245.445 211.499 236.317 209.28C286.781 197.844 306.519 174.688 257.437 125.28C268.578 156.807 259.248 183.176 226.957 203.76Z" fill="#EBC934"/>
<path fill-rule="evenodd" clip-rule="evenodd" d="M216.444 52.32L205.884 46.32V38.16C204.768 34.058 202.468 31.496 199.164 30.24C194.295 29.531 191.629 31.025 190.044 33.6C183.845 38.287 181.106 43.919 179.724 49.92C177.469 72.073 179.566 92.982 182.124 113.76C191.887 110.477 202.435 108.49 205.164 93.6L207.084 81.84H211.164C208.165 88.118 206.698 94.557 210.204 101.52C212.364 98.611 214.524 97.655 216.684 100.56L215.964 105.6C206.257 105.781 196.769 108.377 187.404 112.32C191.122 114.764 195.619 115.392 200.364 115.44C209.724 117.209 219.084 117.055 228.444 114.72C240.323 117.823 251.947 117.368 263.484 115.68C266.844 116.151 270.204 114.687 273.564 112.08C266.672 108.657 258.507 107.144 249.564 106.8C252.725 103.348 256.314 102.247 260.844 106.32C257.503 98.347 253.139 90.74 245.004 84.48L252.444 80.88L257.484 94.08C260.212 103.957 267.871 109.8 278.124 113.52C281.169 93.022 283.449 72.237 281.004 49.68C279.388 44.278 276.198 38.719 270.204 32.88C268.744 31.025 266.695 29.906 263.484 30.24C260.221 30.643 257.774 32.794 256.044 36.48C255.069 39.76 254.766 43.04 255.324 46.32C249.704 48.46 245.25 51.767 241.164 55.44H234.924C234.784 51.714 234.197 47.477 232.524 42C240.162 42.909 244.214 41.127 245.724 37.44C245.436 38.383 243.084 38.749 237.324 38.16C240.265 35.739 243.445 33.583 248.364 33.36C249.137 31.605 247.783 30.787 243.084 31.44C240.979 29.921 238.121 28.82 234.046 28.395C229.465 28.343 225.711 29.805 222.444 32.16C219.294 38.497 216.966 45.107 216.444 52.32Z" fill="#EBC934"/>
<path fill-rule="evenodd" clip-rule="evenodd" d="M217.18 177.12L220.434 172.979V144.876L217.476 138.96H243.212V154.342L235.333 144.58H229.9V156.031C232.679 153.107 235.127 152.438 237 155.701L236.976 165.035C234.79 162.697 232.388 161.177 229.9 160.802V172.387L233.199 176.528L230.196 177.12H217.18Z" fill="#EBC934"/>
</g>
<defs>
<clipPath id="clip0_76_2">
<rect width="461" height="260" fill="white"/>
</clipPath>
</defs>
</svg>
