<svg width="461" height="260" viewBox="0 0 461 260" fill="none" xmlns="http://www.w3.org/2000/svg">
<g clip-path="url(#clip0_76_19)">
<path d="M460.8 0H0V259.2H460.8V0Z" fill="white"/>
<path d="M230.4 0H0V259.2H230.4V0Z" fill="#FF00E1"/>
<path d="M460.8 0H230.4V259.2H460.8V0Z" fill="#FFE400"/>
<path fill-rule="evenodd" clip-rule="evenodd" d="M230.4 0L524.323 259.2H-63.5229L230.4 0Z" fill="#007EFF"/>
<path fill-rule="evenodd" clip-rule="evenodd" d="M230.4 64.2241L411.262 223.72H49.5381L230.4 64.2241Z" fill="#1EFF00"/>
<path fill-rule="evenodd" clip-rule="evenodd" d="M86.861 54.93C85.322 51.048 81.113 37.829 79.087 32.108C78.449 30.307 77.917 29.143 77.736 28.912C77.134 28.143 76.483 28.079 76.13 28.073C75.43 28.06 74.761 28.325 74.335 29.152C74.225 29.365 74.086 29.761 74.084 30.304C74.083 30.809 74.245 31.8 74.228 32.263C74.186 33.379 74.147 34.496 74.102 35.612C73.889 40.801 73.632 45.993 73.224 51.17C72.676 58.113 71.741 71.695 68.328 83.011C66.383 89.46 63.696 95.196 59.641 98.24C57.86 96.072 54.481 91.736 54.217 91.428C50.192 86.731 45.779 81.448 40.759 77.768C39.997 77.209 39.335 77.201 38.861 77.296C38.323 77.405 37.85 77.689 37.493 78.21C37.226 78.6 36.981 79.383 36.987 80.405C36.994 81.487 37.247 83.078 37.119 83.915C36.586 87.378 34.241 98.412 32.258 104.357C32.225 104.456 32.191 104.555 32.155 104.654L32.086 104.471C28.771 95.624 21.452 73.799 20.451 70.459C20.147 69.444 19.076 68.867 18.061 69.171C17.046 69.475 16.468 70.546 16.773 71.561C17.909 75.352 27.114 102.747 29.557 108.547C29.853 109.248 30.097 109.707 30.233 109.901C30.478 110.251 30.734 110.429 30.899 110.525C31.629 110.951 32.431 110.995 33.278 110.44C33.749 110.132 34.422 109.31 35.007 107.962C37.18 102.948 40.283 88.6 40.914 84.498C40.98 84.069 40.984 83.485 40.959 82.85C44.738 86.14 48.136 90.232 51.301 93.926C51.625 94.304 56.577 100.657 57.678 101.859C58.798 103.08 60.112 102.505 60.256 102.423C65.756 99.289 69.539 92.291 72.004 84.12C75.504 72.516 76.49 58.592 77.052 51.472C77.35 47.687 77.569 43.895 77.748 40.101C79.894 46.534 82.443 54.321 83.454 56.746C83.722 57.389 83.969 57.788 84.097 57.944C84.495 58.426 84.927 58.572 85.205 58.634C87.136 59.069 89.069 58.551 90.936 57.214C93.163 55.618 95.351 52.747 97.368 49.375C100.636 43.915 103.531 37.124 105.771 33.153C106.2 32.391 106.6 31.744 106.973 31.251C107.141 31.03 107.418 30.752 107.466 30.704C108.569 30.189 109.825 30.49 111.181 31.033C113.011 31.766 114.958 33.013 116.942 34.303C119.563 36.008 122.237 37.786 124.768 38.813C126.744 39.615 128.658 39.969 130.429 39.68C138.328 38.388 144.632 32.374 148.958 26.067C150.814 23.361 152.314 20.412 153.604 17.402L153.611 17.384C154.064 17.94 154.52 18.606 154.985 19.305C156.857 22.121 158.578 25.603 159.585 27.185C161.162 29.662 162.571 32.265 164.039 34.81C164.569 35.728 165.744 36.043 166.662 35.514C167.58 34.985 167.895 33.809 167.366 32.892C165.87 30.298 164.432 27.647 162.824 25.123C161.628 23.243 159.43 18.737 157.167 15.739C155.971 14.155 154.701 12.975 153.56 12.479C152.505 12.021 151.725 12.302 151.107 12.886C150.786 13.188 150.47 13.707 150.312 14.405C150.209 14.865 150.229 15.529 150.074 15.89C148.883 18.67 147.505 21.396 145.791 23.895C142.031 29.377 136.674 34.767 129.809 35.89C128.415 36.118 126.911 35.615 125.335 34.868C122.437 33.493 119.393 31.227 116.488 29.472C114.292 28.146 112.155 27.107 110.205 26.754C108.614 26.465 107.121 26.603 105.754 27.266C104.863 27.698 103.651 29.095 102.426 31.266C100.198 35.216 97.324 41.972 94.073 47.404C92.628 49.818 91.12 51.964 89.545 53.401C88.651 54.217 87.773 54.823 86.861 54.93Z" fill="black"/>
<path fill-rule="evenodd" clip-rule="evenodd" d="M218.52 135.504H124.2L147.78 64.2241H194.94L218.52 135.504Z" fill="#010081"/>
<path fill-rule="evenodd" clip-rule="evenodd" d="M387.72 204.192C403.105 184.32 433.876 184.32 449.261 194.256C464.647 204.192 464.647 224.064 449.261 243.936C438.491 258.84 410.798 273.744 387.72 283.68C364.642 273.744 336.949 258.84 326.179 243.936C310.794 224.064 310.794 204.192 326.179 194.256C341.564 184.32 372.335 184.32 387.72 204.192Z" fill="#FF2900"/>
<path fill-rule="evenodd" clip-rule="evenodd" d="M170.128 311.85C170.128 311.85 240.763 269.577 247.066 185.586C247.066 185.586 272.824 102.943 312.765 99.864C312.765 99.864 305.203 161.845 290.439 183.172C290.439 183.172 184.774 231.736 167.217 266.629C167.217 266.629 137.182 298.523 152.279 309.791C152.279 309.791 158.493 328.642 170.128 311.85Z" fill="black"/>
<path d="M105.334 165.274C125.036 165.274 141.008 149.302 141.008 129.6C141.008 109.898 125.036 93.926 105.334 93.926C85.6318 93.926 69.66 109.898 69.66 129.6C69.66 149.302 85.6318 165.274 105.334 165.274Z" fill="black"/>
<path d="M105.334 151.351C117.347 151.351 127.085 141.613 127.085 129.6C127.085 117.587 117.347 107.849 105.334 107.849C93.3213 107.849 83.583 117.587 83.583 129.6C83.583 141.613 93.3213 151.351 105.334 151.351Z" fill="#FF0004"/>
<path d="M105.334 142.617C112.523 142.617 118.351 136.789 118.351 129.6C118.351 122.411 112.523 116.583 105.334 116.583C98.1449 116.583 92.317 122.411 92.317 129.6C92.317 136.789 98.1449 142.617 105.334 142.617Z" fill="#FFDA00"/>
<path d="M112.894 129.6C117.069 129.6 120.454 126.215 120.454 122.04C120.454 117.865 117.069 114.48 112.894 114.48C108.719 114.48 105.334 117.865 105.334 122.04C105.334 126.215 108.719 129.6 112.894 129.6Z" fill="white"/>
<path d="M355.466 165.274C375.168 165.274 391.14 149.302 391.14 129.6C391.14 109.898 375.168 93.926 355.466 93.926C335.764 93.926 319.792 109.898 319.792 129.6C319.792 149.302 335.764 165.274 355.466 165.274Z" fill="black"/>
<path d="M355.466 151.351C367.479 151.351 377.217 141.613 377.217 129.6C377.217 117.587 367.479 107.849 355.466 107.849C343.453 107.849 333.715 117.587 333.715 129.6C333.715 141.613 343.453 151.351 355.466 151.351Z" fill="#FF0004"/>
<path d="M355.466 142.617C362.655 142.617 368.483 136.789 368.483 129.6C368.483 122.411 362.655 116.583 355.466 116.583C348.277 116.583 342.449 122.411 342.449 129.6C342.449 136.789 348.277 142.617 355.466 142.617Z" fill="#FFDA00"/>
<path d="M363.026 129.6C367.201 129.6 370.586 126.215 370.586 122.04C370.586 117.865 367.201 114.48 363.026 114.48C358.851 114.48 355.466 117.865 355.466 122.04C355.466 126.215 358.851 129.6 363.026 129.6Z" fill="white"/>
<path fill-rule="evenodd" clip-rule="evenodd" d="M230.4 102.423L273.763 156.777H187.037L230.4 102.423Z" fill="#610002"/>
<path fill-rule="evenodd" clip-rule="evenodd" d="M230.4 115.891L257.083 149.337H203.717L230.4 115.891Z" fill="#FF0004"/>
<path fill-rule="evenodd" clip-rule="evenodd" d="M43.1471 178.615C43.1471 175.088 46.0111 172.224 49.5381 172.224C53.0651 172.224 55.9281 175.088 55.9281 178.615C57.6921 175.56 61.6031 174.512 64.6581 176.276C67.7121 178.039 68.7601 181.951 66.9971 185.005C70.0511 183.242 73.9631 184.29 75.7261 187.344C77.4901 190.399 76.4421 194.31 73.3871 196.074C76.9141 196.074 79.7781 198.937 79.7781 202.464C79.7781 205.991 76.9141 208.855 73.3871 208.855C76.4421 210.618 77.4901 214.53 75.7261 217.584C73.9631 220.639 70.0511 221.687 66.9971 219.923C68.7601 222.978 67.7121 226.889 64.6581 228.653C61.6031 230.416 57.6921 229.368 55.9281 226.314C55.9281 229.841 53.0651 232.704 49.5381 232.704C46.0111 232.704 43.1471 229.841 43.1471 226.314C41.3841 229.368 37.4721 230.416 34.4181 228.653C31.3631 226.889 30.3151 222.978 32.0791 219.923C29.0241 221.687 25.1131 220.639 23.3491 217.584C21.5861 214.53 22.6341 210.618 25.6881 208.855C22.1611 208.855 19.2981 205.991 19.2981 202.464C19.2981 198.937 22.1611 196.074 25.6881 196.074C22.6341 194.31 21.5861 190.399 23.3491 187.344C25.1131 184.29 29.0241 183.242 32.0791 185.005C30.3151 181.951 31.3631 178.039 34.4181 176.276C37.4721 174.512 41.3841 175.56 43.1471 178.615Z" fill="white"/>
<path fill-rule="evenodd" clip-rule="evenodd" d="M331.92 6.71997C349.272 6.71997 363.36 20.808 363.36 38.16C363.36 55.512 349.272 69.6 331.92 69.6C337.126 62.264 341.352 50.702 341.352 38.16C341.352 25.618 337.126 14.056 331.92 6.71997Z" fill="#31A750"/>
<path fill-rule="evenodd" clip-rule="evenodd" d="M123.36 34.116C123.36 29.063 119.257 24.96 114.204 24.96H58.6941C53.6401 24.96 49.5381 29.063 49.5381 34.116V52.428C49.5381 57.481 53.6401 61.584 58.6941 61.584H73.5301L99.1391 77.28L84.6031 61.584H114.204C119.257 61.584 123.36 57.481 123.36 52.428V34.116Z" fill="#816C00"/>
<path fill-rule="evenodd" clip-rule="evenodd" d="M218.52 190.32C211.959 190.32 206.64 202.408 206.64 217.32C206.64 232.222 211.963 244.32 218.52 244.32C225.081 244.32 230.4 232.232 230.4 217.32H218.52V190.32Z" fill="#010081"/>
<path d="M404.64 37.44C411.002 37.44 416.16 31.5839 416.16 24.36C416.16 17.1361 411.002 11.28 404.64 11.28C398.278 11.28 393.12 17.1361 393.12 24.36C393.12 31.5839 398.278 37.44 404.64 37.44Z" fill="black"/>
<path d="M431.88 37.44C438.441 37.44 443.76 33.3031 443.76 28.2C443.76 23.0969 438.441 18.96 431.88 18.96C425.319 18.96 420 23.0969 420 28.2C420 33.3031 425.319 37.44 431.88 37.44Z" fill="black"/>
<path fill-rule="evenodd" clip-rule="evenodd" d="M403.465 35.2009C402.324 47.8179 399.243 60.9089 401.417 73.6189C402.623 80.6659 406.977 92.8109 413.696 99.0589C416.149 101.34 418.915 102.862 421.929 103.254C424.963 103.649 428.282 102.921 431.826 100.511C434.057 98.993 436.074 97.2399 437.785 95.1469C440.306 92.0639 442.3 88.4099 443.795 84.7349C448.559 73.0169 447.288 63.9559 444.427 54.6939C442.608 48.8049 440.125 42.8309 438.257 35.9649C437.978 34.9429 436.922 34.3389 435.9 34.6169C434.877 34.8949 434.273 35.9509 434.551 36.9739C436.432 43.8849 438.927 49.8989 440.758 55.8279C443.373 64.2939 444.593 72.5779 440.238 83.2879C438.885 86.6139 437.094 89.9269 434.812 92.7169C433.336 94.5219 431.59 96.0269 429.666 97.3359C427.063 99.1059 424.653 99.7359 422.424 99.4459C420.174 99.1539 418.143 97.9499 416.311 96.2469C410.177 90.5419 406.303 79.4059 405.202 72.9719C403.084 60.5889 406.178 47.8389 407.289 35.5469C407.384 34.4919 406.605 33.5579 405.55 33.4619C404.494 33.3669 403.56 34.1459 403.465 35.2009Z" fill="black"/>
<path fill-rule="evenodd" clip-rule="evenodd" d="M137.28 193.68C137.28 193.68 121.92 211.152 121.92 218.64C121.92 227.117 128.803 234 137.28 234C145.757 234 152.64 227.117 152.64 218.64C152.64 211.152 137.28 193.68 137.28 193.68Z" fill="#E8FF7D"/>
</g>
<defs>
<clipPath id="clip0_76_19">
<rect width="461" height="260" fill="white"/>
</clipPath>
</defs>
</svg>
