<svg width="120" height="120" viewBox="0 0 120 120" fill="none" xmlns="http://www.w3.org/2000/svg">
<g clip-path="url(#clip0_79_248)">
<mask id="mask0_79_248" style="mask-type:luminance" maskUnits="userSpaceOnUse" x="3" y="10" width="112" height="274">
<path d="M114.157 10.5601H3.35986V283.67H114.157V10.5601Z" fill="white"/>
</mask>
<g mask="url(#mask0_79_248)">
<path d="M26.4857 96.125C24.0667 99.384 22.0497 102.901 19.8837 106.322C18.0887 109.167 15.9637 111.652 14.4817 114.725C14.2417 114.725 13.8877 113.957 13.8817 113.825C13.6707 109.143 22.2957 98.208 26.4797 96.125H26.4857Z" fill="#111120"/>
<path d="M97.5916 101.227C97.0876 100.86 96.7926 100.488 96.3906 100.026C99.4576 101.869 105.202 102.829 103.744 107.229C104.332 103.045 100.083 103.033 97.5916 101.227Z" fill="#625A5E"/>
<path d="M104.488 108.729C104.248 109.149 103.894 109.455 103.738 109.929C103.294 109.605 103.318 109.353 103.288 109.329L104.938 106.928C105.46 107.073 104.614 108.501 104.488 108.729Z" fill="#3A363A"/>
<path d="M106.289 113.225C106.289 113.261 106.481 112.991 106.589 113.825L105.989 114.875C105.706 113.933 104.908 113.321 106.289 113.225Z" fill="#625A5E"/>
<path d="M81.3856 16.922C79.8616 17.174 78.1866 16.406 78.9846 17.522C79.2856 19.123 79.5856 20.723 79.8856 22.324C74.8136 20.823 69.3096 21.832 65.3366 25.325C64.5866 23.5 63.0736 22.306 61.2856 21.724C56.1896 20.079 47.6426 21.61 42.6846 23.824C42.3846 23.957 41.0526 24.623 40.8846 24.725C42.7026 22.738 45.4936 18.105 42.6846 16.322C42.3786 16.13 40.2596 15.974 41.0346 15.122C52.4986 9.36 71.4286 8.117 81.3856 16.922Z" fill="#111120"/>
<path d="M35.4885 73.023C30.9325 72.621 26.5935 70.946 22.4395 69.122L18.3885 72.423C18.3525 72.363 17.5065 72.003 17.1885 71.823C18.1665 69.866 19.9735 69.11 21.3895 67.621C21.4195 67.675 21.8815 67.663 22.1395 68.522C28.9385 67.321 35.7385 66.121 42.5405 64.92L42.9905 65.37C40.4155 67.867 38.0995 70.556 35.4885 73.023Z" fill="#182945"/>
<path d="M35.4887 73.0231C32.3737 75.9641 29.4987 79.7751 24.5407 79.0251C19.5407 78.2691 18.6347 72.8371 18.3887 72.4231L22.4397 69.1221C26.5997 70.9461 30.9387 72.6211 35.4887 73.0231Z" fill="#171C35"/>
<path d="M38.7897 18.4229C35.0387 21.1119 31.5147 31.6149 35.7887 27.2759C36.6407 26.4109 40.1457 21.3999 41.6407 19.6229C42.4927 20.0429 40.6207 23.4279 40.2897 24.1249C37.9617 26.2549 36.0227 28.9079 33.9877 31.3269C32.3437 31.3449 29.1027 21.4239 29.1867 20.2289C29.4987 15.8479 32.2477 14.4669 36.2387 16.0279C37.1147 16.3699 38.3037 17.5819 38.7897 18.4289V18.4229Z" fill="#961C5A"/>
<path d="M25.2846 31.6269C14.7816 35.5939 18.4006 34.5019 19.8836 41.2239C18.6466 41.5359 18.0286 44.6999 18.5326 45.7259C19.9676 44.1469 22.4456 43.8889 24.0846 42.7249C22.6076 46.1399 20.0336 49.7649 19.5826 53.5219C17.9746 50.5089 14.6256 44.6029 17.1826 41.6739C18.3106 40.3839 18.9886 42.2029 18.6826 40.7739C18.6166 40.4739 15.9096 36.4829 15.6816 35.3719L24.6846 28.9199C25.4046 31.6149 25.2126 31.4889 25.2846 31.6209V31.6269Z" fill="#FEFDFA"/>
<path d="M29.1866 20.223C29.1026 21.418 32.3436 31.339 33.9876 31.321C33.9096 31.411 34.0776 31.963 33.9876 32.071C32.8356 33.44 31.4066 34.142 30.9866 34.622C29.0666 30.247 27.5536 25.601 24.6846 21.724C24.8586 21.232 25.3506 19.449 25.7356 19.323C25.9036 19.269 28.6826 20.043 29.1866 20.223Z" fill="#580D2A"/>
<path d="M40.8904 24.7249C40.8244 24.7609 40.5304 24.7009 40.2894 24.7249C39.7914 24.7009 40.1034 24.5149 40.2894 24.1249C40.6204 23.4279 42.4924 20.0489 41.6404 19.6229C40.1454 21.3939 36.6404 26.4109 35.7884 27.2759C31.5144 31.6209 35.0324 21.1119 38.7894 18.4229C39.9414 17.5939 41.6104 17.3179 42.6904 16.3219C45.5054 18.1049 42.7084 22.7379 40.8904 24.7249Z" fill="#C9368B"/>
<path d="M30.9868 34.6219C30.6748 34.9699 30.3988 35.4739 30.0868 35.8229C29.2768 35.5879 25.4468 31.8969 25.2848 31.6209C25.2128 31.4949 25.4048 31.6149 24.6848 28.9199C23.8568 25.8289 23.4848 25.1149 24.6848 21.7179C27.5478 25.5949 29.0668 30.2409 30.9868 34.6159V34.6219Z" fill="#C04E97"/>
<path d="M25.2844 31.627C25.4404 31.903 29.2704 35.594 30.0864 35.829C28.7964 37.257 27.6494 38.8 26.4854 40.33C24.1504 39.976 21.5454 42.311 19.8834 41.23C18.3944 34.508 14.7814 35.6 25.2844 31.633V31.627Z" fill="#961C5A"/>
<path d="M26.4854 40.3239C25.8194 41.2299 24.9964 42.0709 24.0844 42.7249C22.4514 43.8889 19.9734 44.1469 18.5324 45.7259C18.0284 44.6999 18.6464 41.5359 19.8834 41.2239C21.5454 42.3049 24.1444 39.9699 26.4854 40.3239Z" fill="#5E111D"/>
<path d="M47.4866 58.324C47.5106 59.969 50.2116 63.192 46.2856 61.925C43.9456 60.575 44.8876 57.88 47.4866 58.324Z" fill="#F59E42"/>
<path d="M40.2897 24.125C40.1037 24.515 39.7917 24.701 40.2897 24.725C36.8267 27.204 34.9907 32.815 37.4387 33.428C38.3637 33.656 48.2187 26.916 55.1387 26.525C57.6417 26.387 60.0187 27.384 62.4917 26.825C70.1077 27.786 73.4877 24.725 82.4427 28.326C84.2127 29.04 86.6737 31.231 87.0937 30.577C87.2737 29.496 86.7877 29.058 86.7937 28.926C87.8317 29.328 89.0327 31.057 89.7947 31.927C90.1247 32.299 90.6707 32.749 90.9957 33.128C91.2057 33.368 91.3917 33.782 91.5957 34.028C93.3477 36.135 96.3007 39.538 97.5977 41.831C97.8497 42.281 99.3257 44.958 99.3977 45.132C102.537 52.436 102.417 58.864 96.0967 64.332C95.2267 64.71 94.4527 65.232 93.5457 65.533C92.9877 66.613 99.9447 66.523 99.9987 66.883C99.2477 70.724 98.1797 71.463 94.2967 71.985C103.33 72.633 97.3937 85.933 87.8437 86.233C86.4157 87.902 87.4417 89.703 85.2937 90.735C83.0067 91.833 79.7897 90.945 77.4907 90.135C76.5487 89.805 75.6477 89.445 74.7897 88.934C73.5597 88.208 69.5377 84.685 69.0877 83.533C68.1337 81.096 69.7657 79.031 68.7877 77.531C72.4967 75.706 76.1047 70.55 77.7907 66.883C78.4387 65.466 78.4627 62.616 80.1917 62.231C82.0037 63.3 85.8097 61.547 80.4917 58.93C80.2157 58.798 79.9037 58.99 79.7417 59.23C78.7387 58.582 79.1777 57.844 78.6907 57.13C80.7377 58.576 79.6997 55.419 79.5917 54.129C79.4957 52.976 79.2017 51.95 78.9907 50.828C78.9667 50.702 79.1177 48.847 78.9907 48.277C78.9187 48.019 78.4027 48.157 78.3907 48.127C76.8727 43.067 73.8177 37.197 68.4937 35.228C66.5367 34.502 67.5577 34.916 65.7927 35.528C58.8967 37.923 61.7477 40.084 54.9947 47.827C54.9647 47.857 54.8207 47.953 54.3947 48.427C53.6267 47.863 52.7087 48.553 51.9937 49.027C52.5107 47.634 59.6587 41.572 57.0957 41.524C57.7137 41.008 58.2357 40.456 58.5967 39.724C60.1927 39.262 62.1737 32.737 62.1977 31.471C62.2337 29.298 61.6817 31.261 61.5977 31.321C57.7677 33.98 55.0487 37.791 50.9497 40.324C46.3337 43.169 30.0687 48.847 29.1987 52.172C28.8687 53.432 29.4807 54.027 29.4987 54.123C31.4967 63.792 46.8507 64.008 42.8467 58.324C42.2947 57.538 34.4617 54.135 33.3937 52.322C35.0507 51.812 41.7007 56.391 48.0927 52.622C49.4497 54.219 49.7677 52.19 51.8437 50.521C52.2517 50.197 53.1407 50.269 53.1947 50.221V50.822C51.7177 51.23 51.2857 51.95 50.1937 52.922C49.4497 53.588 48.6687 54.111 47.7927 54.573C48.1827 59.458 47.4927 58.114 47.4927 58.324C44.8937 57.88 43.9517 60.575 46.2917 61.925C46.4367 62.009 47.3547 63.48 48.9927 61.925C48.6807 66.661 51.4357 71.757 54.9947 74.824C54.9227 77.765 54.1307 80.916 54.0947 83.827C52.5767 84.787 51.3577 86.089 49.8937 87.128C47.8587 88.568 43.7717 90.939 41.4907 91.629C38.9637 92.398 36.6527 92.98 33.9877 92.23C31.2567 91.461 29.8647 88.19 28.7367 85.927C21.6657 86.035 13.5207 79.145 17.1887 71.829C17.5067 72.009 18.3527 72.369 18.3887 72.429C18.6347 72.837 19.5407 78.269 24.5407 79.031C29.4987 79.781 32.3797 75.97 35.4887 73.029C38.0997 70.562 40.4157 67.873 42.9907 65.376L42.5407 64.926C35.7427 66.127 28.9427 67.327 22.1397 68.528C21.8817 67.669 21.4197 67.681 21.3897 67.627C20.3637 65.707 19.2947 56.001 19.5887 53.528C20.0397 49.765 22.6137 46.146 24.0907 42.731C25.0027 42.077 25.8257 41.236 26.4917 40.33C27.6497 38.8 28.8027 37.257 30.0927 35.829C30.4047 35.48 30.6807 34.982 30.9927 34.628C31.4127 34.154 32.8417 33.446 33.9937 32.077C34.0837 31.969 33.9157 31.423 33.9937 31.327C36.0287 28.908 37.9617 26.261 40.2957 24.125H40.2897Z" fill="#111120"/>
<path d="M89.7886 55.023C89.8306 55.113 90.8386 54.663 90.2386 56.523C89.0026 57.082 83.7146 59.549 83.3366 59.524C83.1686 59.512 83.3786 58.756 80.1856 58.174C80.3656 48.895 80.5036 45.816 75.6836 37.623C78.8106 42.071 81.2296 47.076 84.6866 51.272C87.2376 54.369 89.3446 57.13 89.7886 55.023Z" fill="#182945"/>
<path d="M89.7885 55.0231C89.3445 57.1301 87.2375 54.3751 84.6865 51.2721C81.2295 47.0761 78.8165 42.0711 75.6835 37.6231C71.7465 32.0231 77.3345 37.3411 79.2855 39.5741C80.4555 40.9181 89.1885 53.7211 89.7825 55.0231H89.7885Z" fill="#005784"/>
<path d="M47.9364 73.323C52.3724 71.955 51.4534 79.871 47.6364 77.825C45.8414 76.858 46.6704 73.713 47.9364 73.323Z" fill="#F5CC45"/>
<path d="M81.2357 72.423C84.9507 71.841 84.3447 78.689 80.6357 76.924C78.3727 75.844 79.5437 72.687 81.2357 72.423Z" fill="#FEED6C"/>
<path d="M80.1853 62.2251C78.7863 61.3971 79.0143 59.6871 80.4853 58.9241C85.8033 61.5411 81.9973 63.2941 80.1853 62.2251Z" fill="#E9A650"/>
<path d="M61.5855 31.327C57.4435 36.591 52.0415 40.816 45.8355 43.325V43.925C46.1595 43.979 46.6165 43.841 46.8865 43.925C49.9535 44.844 54.6285 43.577 57.0835 41.524C59.6465 41.572 52.5045 47.628 51.9815 49.027C50.6735 49.897 49.1365 52.004 48.0805 52.628C41.6885 56.397 35.0325 51.818 33.3815 52.328C32.4335 52.622 32.5235 55.629 29.4805 54.129C29.4625 54.033 28.8505 53.438 29.1805 52.178C30.0505 48.853 46.3155 43.175 50.9315 40.33C55.0305 37.797 57.7555 33.986 61.5795 31.327H61.5855Z" fill="#182945"/>
<path d="M29.4863 54.123C32.5293 55.623 32.4393 52.616 33.3873 52.322C34.4553 54.135 42.2823 57.532 42.8403 58.324C46.8383 64.008 31.4843 63.792 29.4923 54.123H29.4863Z" fill="#171C35"/>
<path d="M58.5903 39.724C58.7643 39.364 58.8963 38.962 59.1903 38.673L58.7403 38.223C55.3913 41.254 50.7633 41.849 46.8923 43.925C46.6223 43.841 46.1653 43.979 45.8413 43.925V43.325C52.0533 40.816 57.4493 36.585 61.5913 31.327C61.6753 31.267 62.2273 29.304 62.1913 31.477C62.1673 32.737 60.1923 39.268 58.5903 39.73V39.724Z" fill="#005784"/>
<path d="M58.5906 39.724C58.2296 40.456 57.7076 41.008 57.0896 41.524C54.6346 43.577 49.9536 44.844 46.8926 43.925C50.7696 41.855 55.3916 41.254 58.7406 38.223L59.1906 38.673C58.8966 38.962 58.7646 39.364 58.5906 39.724Z" fill="#182945"/>
<path d="M54.3884 48.427C54.3404 48.481 54.0704 49.531 54.0884 49.777C53.8904 49.999 53.6984 49.777 53.1884 50.227C53.1344 50.275 52.2454 50.203 51.8374 50.527C49.7614 52.196 49.4434 54.225 48.0864 52.628C49.1424 52.004 50.6734 49.897 51.9874 49.027C52.6964 48.553 53.6204 47.863 54.3884 48.427Z" fill="#111120"/>
<path d="M96.0908 64.3259C102.405 58.8579 102.531 52.4299 99.3918 45.1259L103.894 46.1759L101.793 42.1249C100.383 38.4629 106.235 36.7469 101.343 33.7219C100.107 32.9539 98.6958 32.8399 97.8918 32.5209C98.9918 30.5209 100.093 28.5199 101.193 26.5189C105.352 23.5479 102.453 25.6489 101.193 32.9719L105.694 36.2729C104.056 44.5909 107.399 53.2519 101.793 60.5749C99.0258 64.1879 96.5168 64.1399 96.0908 64.3259Z" fill="#FEFDFA"/>
<path d="M91.8896 28.3259C91.7036 28.5359 90.7366 29.7419 90.6886 29.8259C89.4346 28.3799 88.2226 26.9099 86.7876 25.6249C88.1626 23.1039 87.7836 20.4689 87.6876 17.8219C87.6876 17.6659 87.8496 15.8119 87.9886 15.4219C89.1886 15.3799 89.7106 14.9469 90.0886 15.2719C91.5956 21.8979 92.9036 18.6809 97.8916 20.6729C97.3216 24.1729 93.5816 26.4109 91.8896 28.3259Z" fill="#961C5A"/>
<path d="M97.5919 29.526C97.3039 30.271 95.5988 31.279 95.7908 31.777C95.8868 32.023 97.1658 32.239 97.8918 32.527C98.6958 32.846 100.101 32.96 101.343 33.728C106.235 36.753 100.383 38.463 101.793 42.131L97.5919 41.831C96.2949 39.538 93.3418 36.141 91.5898 34.028C93.6958 32.779 95.7189 31.087 97.5919 29.526Z" fill="#961C5A"/>
<path d="M90.9896 33.1279C90.6646 32.7549 90.1186 32.2989 89.7886 31.9269C89.9146 31.2369 90.3226 30.4209 90.6886 29.8259C90.7366 29.7419 91.7036 28.5359 91.8896 28.3259L98.7916 26.6749C99.2236 27.4859 91.7216 31.9929 90.9896 33.1279Z" fill="#C04E97"/>
<path d="M87.9887 15.422C87.8497 15.812 87.6817 17.666 87.6877 17.822C84.9567 19.371 81.4397 19.851 78.9847 17.522C78.1867 16.406 79.8617 17.174 81.3857 16.922C83.6967 16.538 85.5517 15.506 87.9887 15.422Z" fill="#D176AD"/>
<path d="M101.187 26.5249C100.087 28.5259 98.9856 30.5269 97.8856 32.5269C97.1596 32.2389 95.8806 32.0229 95.7846 31.7769C95.5926 31.2789 97.2976 30.2709 97.5856 29.5259C98.8336 28.4879 99.8426 27.4859 101.187 26.5249Z" fill="#CCDEBE"/>
<path d="M101.786 42.125L103.887 46.1759L99.3855 45.1259C99.3135 44.9519 97.8374 42.275 97.5854 41.825L101.786 42.125Z" fill="#580D2A"/>
<path d="M86.7875 25.6249C88.2225 26.9099 89.4345 28.3739 90.6885 29.8259C90.3225 30.4209 89.9145 31.2369 89.7885 31.9269C89.0265 31.0569 87.8315 29.3279 86.7875 28.9259C86.7935 28.8299 86.7875 28.7219 86.7875 28.6259C86.7455 27.8099 88.3725 27.7559 84.0865 24.7249C82.9465 23.9209 83.2405 23.8539 83.1865 23.8239C83.2645 22.1499 85.8215 24.7609 86.7875 25.6249Z" fill="#580D2A"/>
<path d="M87.6879 17.822C87.7839 20.469 88.1629 23.104 86.7879 25.625C85.8219 24.761 83.2709 22.15 83.1869 23.824C81.9079 23.08 80.4019 23.05 80.0359 22.924C79.7719 22.834 79.9159 22.336 79.8859 22.324C79.5859 20.723 79.2859 19.123 78.9849 17.522C81.4339 19.851 84.9509 19.371 87.6879 17.822Z" fill="#C9368B"/>
<path d="M79.8859 22.3241C79.9159 22.3361 79.7719 22.8341 80.0359 22.9241C80.4019 23.0501 81.9079 23.0801 83.1869 23.8241C83.2409 23.8541 82.9469 23.9211 84.0869 24.7251L86.7879 28.6261C86.7879 28.7221 86.7939 28.8301 86.7879 28.9261C86.7819 29.0581 87.2679 29.4961 87.0879 30.5771C86.6739 31.2311 84.2069 29.0401 82.4369 28.3261C73.4819 24.7251 70.1019 27.7861 62.4859 26.8251C57.6839 24.8751 53.0029 25.3911 48.0869 25.3251C48.0869 22.1801 57.7979 22.2581 61.2859 21.7241C63.0739 22.3001 64.5869 23.5001 65.3369 25.3251C69.3099 21.8321 74.8139 20.8231 79.8859 22.3241Z" fill="#005784"/>
<path d="M48.0867 25.325C53.0087 25.391 57.6837 24.875 62.4857 26.825C60.0187 27.384 57.6357 26.387 55.1327 26.525C48.2127 26.91 38.3577 33.656 37.4327 33.428C34.9847 32.815 36.8207 27.204 40.2837 24.725C40.5247 24.701 40.8187 24.761 40.8847 24.725C41.0527 24.623 42.3847 23.957 42.6847 23.824C42.9967 25.919 45.6197 25.289 48.0867 25.325Z" fill="#182945"/>
<path d="M61.2856 21.724C57.7976 22.258 48.0806 22.18 48.0866 25.325C45.6256 25.289 43.0026 25.919 42.6846 23.824C47.6426 21.61 56.1896 20.079 61.2856 21.724Z" fill="#0D3D63"/>
<path d="M86.7879 28.626L84.0869 24.725C88.3729 27.756 86.7459 27.81 86.7879 28.626Z" fill="#B12E7B"/>
<path d="M78.3906 48.127C76.8846 49.645 69.1596 48.409 69.0876 52.028C67.9236 52.016 67.2576 52.07 66.0866 51.728C65.4626 45.426 67.7496 41.128 68.4876 35.228C73.8116 37.203 76.8726 43.067 78.3846 48.127H78.3906Z" fill="#F3B38F"/>
<path d="M54.689 63.7261C55.656 65.5571 57.072 73.8451 59.491 70.3281C59.731 71.9131 60.679 72.5191 61.892 73.3291C63.206 74.1991 64.269 74.9921 66.093 74.8301C65.757 77.2181 62.318 78.5271 65.193 78.4311C61.057 78.8391 58.182 77.5791 54.995 74.8301C51.436 71.7631 48.687 66.6671 48.993 61.9311C49.131 59.8431 49.6 59.0381 50.794 57.4301C50.464 60.0411 53.363 61.2051 54.695 63.7321L54.689 63.7261Z" fill="#7B231E"/>
<path d="M68.7879 77.525C69.7659 79.025 68.1339 81.084 69.0879 83.527C68.2419 87.734 64.9769 90.939 63.6859 94.624C62.1439 94.804 60.6729 94.204 59.1849 94.024L56.4839 89.222C59.6649 86.744 65.2589 81.888 66.9809 78.425C67.0769 78.401 68.4399 77.693 68.7819 77.525H68.7879Z" fill="#BB4D34"/>
<path d="M78.6908 57.1241C79.1778 57.8381 78.7388 58.5761 79.7418 59.2241C79.9038 58.9841 80.2158 58.7921 80.4918 58.9241C79.0208 59.6811 78.7928 61.3971 80.1918 62.2251C78.4628 62.6041 78.4388 65.4601 77.7908 66.8771C76.1108 70.5441 72.4968 75.7061 68.7878 77.5251C68.4458 77.6931 67.0828 78.3951 66.9868 78.4251C66.6208 78.5271 65.8168 78.3651 65.1868 78.4251C62.3118 78.5271 65.7508 77.2121 66.0868 74.8241C68.7458 74.5841 70.5948 71.4451 72.0888 69.4221C72.1188 69.3861 72.7668 69.2421 72.6888 68.6721C72.4728 68.3411 71.8368 69.1101 71.7888 69.1221C70.5468 69.4881 67.3838 70.5261 66.3868 70.3221L65.1868 69.4221C65.0008 69.1341 64.1778 68.3591 63.9858 68.2211C65.7268 68.5581 69.2498 67.6811 69.3878 65.5211C72.8388 67.6931 78.0548 64.1761 77.7908 61.7691C77.5928 59.9571 74.3638 60.9951 75.3898 59.5181C77.0648 58.9721 78.0788 57.4541 77.7908 55.6171C78.7028 56.1271 78.6428 57.0461 78.6908 57.1181V57.1241Z" fill="#E38453"/>
<path d="M65.187 78.425C65.817 78.365 66.621 78.527 66.987 78.425C65.259 81.888 59.665 86.744 56.49 89.222C56.406 89.289 56.028 89.138 54.689 90.423C54.005 87.884 54.059 86.39 54.089 83.821C54.125 80.91 54.917 77.765 54.989 74.818C58.182 77.567 61.057 78.827 65.187 78.419V78.425Z" fill="#7B231E"/>
<path d="M62.4858 47.2261C63.9738 51.7281 64.3408 51.2181 66.0868 51.7281C67.2578 52.0701 67.9238 52.0161 69.0878 52.0281C69.4358 52.0281 69.7238 52.6341 69.8378 52.6281C71.2908 52.5141 76.5188 49.7951 78.9908 50.8281C79.2018 51.9441 79.4958 52.9761 79.5918 54.1291C75.0838 52.1601 70.8588 53.5221 68.7938 58.0301C65.9188 64.2961 69.0518 63.1621 69.3938 65.2321C68.9678 65.9171 67.8518 66.6311 67.1428 66.7331C60.0068 67.7771 68.2598 61.1031 62.7918 51.1341C62.7318 51.0261 62.3898 49.5731 61.5918 49.0331C62.1198 47.1001 62.4438 47.3521 62.4918 47.2321L62.4858 47.2261Z" fill="#E38453"/>
<path d="M65.7869 35.5221C66.0149 35.5401 66.6629 35.4261 66.6869 35.6721C66.7529 36.2851 63.0499 45.7981 62.4859 47.2201C62.4379 47.3401 62.1139 47.0881 61.5859 49.0211C59.6649 47.7311 57.0179 48.5111 54.9829 47.8211C61.7419 40.0721 58.8909 37.9111 65.7809 35.5221H65.7869Z" fill="#DA744D"/>
<path d="M61.8858 58.624C61.8738 58.66 61.6098 58.588 61.5858 58.624L59.9348 55.623C58.9508 55.635 60.8768 58.366 58.7348 58.924C54.9108 59.915 54.4188 52.712 53.7828 57.124C53.0448 56.638 52.4988 56.025 51.5318 55.923C50.5118 56.638 50.8298 57.358 50.7818 57.424C49.5878 59.032 49.1188 59.831 48.9808 61.925C47.3428 63.48 46.4248 62.009 46.2798 61.925C50.2058 63.198 47.5048 59.969 47.4808 58.324C47.4808 58.114 48.1708 59.458 47.7808 54.573C48.6568 54.111 49.4378 53.588 50.1818 52.922L50.0318 56.223C53.6748 49.447 62.8338 55.743 61.8798 58.624H61.8858Z" fill="#491815"/>
<path d="M68.4878 35.222C67.7498 41.122 65.4628 45.42 66.0868 51.722C64.3408 51.212 63.9738 51.722 62.4858 47.22C63.0498 45.798 66.7528 36.279 66.6868 35.672C66.6628 35.426 66.0148 35.54 65.7868 35.522C67.5518 34.91 66.5308 34.496 68.4878 35.222Z" fill="#EE9E76"/>
<path d="M61.5856 52.6221C62.7076 54.4291 61.9756 56.6981 61.8856 58.6241C62.8396 55.7431 53.6806 49.4471 50.0376 56.2231L50.1876 52.9221C51.2796 51.9501 51.7116 51.2301 53.1886 50.8221C55.6916 50.1251 60.4446 50.7921 61.5916 52.6221H61.5856Z" fill="#BB4D34"/>
<path d="M79.5916 54.123C79.6996 55.413 80.7376 58.57 78.6906 57.124C78.6426 57.052 78.7026 56.133 77.7906 55.623C77.7306 55.593 77.6046 55.641 77.4906 55.623C75.8336 55.335 76.9926 58.264 74.3396 58.624C69.5436 59.272 74.3936 53.655 69.6876 57.724C69.2256 58.126 69.1116 58.816 68.7876 58.024C70.8586 53.516 75.0776 52.16 79.5856 54.123H79.5916Z" fill="#2A0E0C"/>
<path d="M54.989 47.827C57.018 48.517 59.671 47.737 61.592 49.027C62.39 49.561 62.732 51.02 62.792 51.128L61.592 52.628C60.451 50.798 55.698 50.131 53.189 50.828V50.227C53.699 49.777 53.891 49.999 54.089 49.777C54.071 49.531 54.341 48.481 54.389 48.427C54.815 47.953 54.959 47.857 54.989 47.827Z" fill="#491815"/>
<path d="M78.9909 50.828C76.5249 49.795 71.2909 52.514 69.8379 52.628C69.7239 52.634 69.4359 52.034 69.0879 52.028C69.1539 48.409 76.8789 49.645 78.3909 48.127C78.3969 48.157 78.9189 48.019 78.9909 48.277C79.1179 48.847 78.9669 50.702 78.9909 50.828Z" fill="#491815"/>
<path d="M56.49 59.5241C57.75 59.9991 59.113 59.7951 60.391 59.5241C57.168 61.4391 55.53 58.8281 58.291 64.476C58.411 64.728 58.291 65.2021 57.99 65.3761C58.621 66.5771 59.749 65.6111 60.091 67.9271C59.989 68.1791 59.881 68.9541 59.791 69.1281C59.371 69.9321 59.527 70.2741 59.491 70.3281C57.072 73.8451 55.656 65.5631 54.689 63.7261C56.658 64.0501 53.603 58.9721 56.49 59.5241Z" fill="#C56540"/>
<path d="M53.7887 57.1241C54.5807 57.6461 55.7937 59.2601 56.4897 59.5241C53.6027 58.9661 56.6577 64.0441 54.6887 63.7261C53.3567 61.1991 50.4577 60.0351 50.7877 57.4241C50.8357 57.3581 50.5177 56.6381 51.5377 55.9231C52.5047 56.0251 53.0507 56.6381 53.7887 57.1241Z" fill="#BB4D34"/>
<path d="M71.7889 69.1281L72.0889 69.4281C70.5949 71.4451 68.7519 74.5901 66.0869 74.8301C64.2629 74.9921 63.1999 74.1991 61.8859 73.3291C60.7569 71.9311 60.0309 70.6161 62.1859 71.8291C63.6739 72.6691 66.4589 75.8981 69.6879 71.0781C69.4599 70.8021 66.6389 70.9041 66.0869 70.9281L66.3869 70.3281C67.3779 70.5321 70.5409 69.4941 71.7889 69.1281Z" fill="#961C5A"/>
<path d="M65.187 69.4281L66.387 70.3281L66.087 70.9281C65.067 70.9761 63.176 71.3781 62.186 71.8291C60.031 70.6161 60.757 71.9311 61.886 73.3291C60.673 72.5191 59.725 71.9131 59.485 70.3281C59.521 70.2801 59.359 69.9321 59.785 69.1281C61.682 69.6921 63.338 70.0761 65.187 69.4281Z" fill="#75132D"/>
<path d="M59.1907 94.0241C60.6787 94.2041 62.1497 94.8041 63.6917 94.6241C63.2537 98.0151 62.9957 101.413 62.7917 104.822C62.7257 105.896 62.1917 106.43 62.7917 107.823C62.7377 107.703 61.6397 106.514 61.2917 105.722C59.5987 101.893 57.9597 97.9431 56.4897 94.0241C57.2157 93.8801 58.4767 93.9341 59.1907 94.0241Z" fill="#DA744D"/>
<path d="M56.49 89.229L59.191 94.03C58.477 93.94 57.216 93.886 56.49 94.03C56.046 92.836 55.013 91.635 54.689 90.429C56.028 89.144 56.406 89.295 56.49 89.229Z" fill="#BB4D34"/>
<path d="M69.9878 58.624C70.9428 59.975 73.9858 59.987 75.3898 59.524C74.3578 61.001 77.5868 59.963 77.7908 61.775C78.0548 64.182 72.8388 67.699 69.3878 65.527C69.3878 65.436 69.3998 65.316 69.3878 65.226C69.0458 63.162 65.9128 64.29 68.7878 58.024C69.1118 58.816 69.2258 58.126 69.6878 57.724C69.6278 58.066 69.8078 58.366 69.9878 58.624Z" fill="#F3B38F"/>
<path d="M69.3879 65.2261C69.3999 65.3161 69.3879 65.4361 69.3879 65.5271C69.2499 67.6871 65.7269 68.5641 63.9859 68.2271C63.7039 68.0231 61.8259 67.0691 60.9849 66.4271C61.7119 63.7501 61.7599 61.3551 61.8859 58.6241C61.9759 56.7041 62.7079 54.4291 61.5859 52.6221L62.7859 51.1221C68.2539 61.0971 60.0009 67.7711 67.1369 66.7211C67.8459 66.6191 68.9619 65.9051 69.3879 65.2201V65.2261Z" fill="#7B231E"/>
<path d="M63.9857 68.227C64.1717 68.365 65.0007 69.14 65.1867 69.428C63.3437 70.076 61.6817 69.692 59.7847 69.128C59.8747 68.954 59.9767 68.179 60.0847 67.927C60.1867 67.681 60.8827 66.811 60.9847 66.427C61.8257 67.069 63.7037 68.023 63.9857 68.227Z" fill="#94362E"/>
<path d="M75.3898 59.524C73.9858 59.987 70.9428 59.975 69.9878 58.624C73.1818 59.621 77.5748 59.843 77.4908 55.623C77.6048 55.641 77.7308 55.593 77.7908 55.623C78.0848 57.46 77.0648 58.972 75.3898 59.524Z" fill="#7B3823"/>
<path d="M72.0886 69.428L71.7886 69.128C71.8366 69.116 72.4726 68.347 72.6886 68.678C72.7666 69.248 72.1186 69.392 72.0886 69.428Z" fill="#BB4D34"/>
<path d="M61.8856 58.624C61.7596 61.355 61.7116 63.75 60.9846 66.427C60.8826 66.811 60.1866 67.681 60.0846 67.927C59.7426 65.611 58.6146 66.577 57.9836 65.376C58.2776 65.202 58.4046 64.728 58.2846 64.476C55.5236 58.828 57.1616 61.439 60.3846 59.524C60.5346 59.434 61.5496 58.69 61.5856 58.624C61.6096 58.588 61.8736 58.66 61.8856 58.624Z" fill="#DA744D"/>
<path d="M61.5857 58.624C61.5497 58.69 60.5347 59.434 60.3847 59.524C59.1127 59.795 57.7437 59.999 56.4837 59.524C55.7877 59.266 54.5747 57.646 53.7827 57.124C54.4187 52.712 54.9107 59.915 58.7347 58.924C60.8767 58.366 58.9507 55.635 59.9347 55.623L61.5857 58.624Z" fill="#FEFDFA"/>
<path d="M77.4905 55.623C77.5745 59.837 73.1875 59.621 69.9875 58.624C69.8075 58.366 69.6276 58.066 69.6876 57.724C74.3936 53.655 69.5435 59.272 74.3395 58.624C76.9925 58.264 75.8335 55.335 77.4905 55.623Z" fill="#FEFDFA"/>
<path d="M66.0865 70.928C66.6325 70.904 69.4595 70.802 69.6875 71.078C66.4645 75.898 63.6795 72.669 62.1855 71.829C63.1755 71.384 65.0605 70.976 66.0865 70.928Z" fill="#E5B3D4"/>
<path d="M90.0889 93.124C100.677 97.475 92.8139 95.933 96.3909 100.026C96.7929 100.488 97.0879 100.86 97.5919 101.227C98.4499 102.691 102.663 108.909 103.294 109.329C103.324 109.347 103.294 109.605 103.744 109.929C103.9 109.455 104.254 109.149 104.494 108.729C108.9 108.861 106.133 111.676 106.295 113.231C104.914 113.327 105.712 113.939 105.995 114.881L106.595 113.831C106.997 116.952 109.182 121.459 109.896 124.478C113.047 137.845 119.895 163.137 104.494 171.432C104.236 171.57 103.282 171.642 102.994 171.732L99.0919 167.531C99.5899 167.297 104.692 164.974 103.744 164.53C97.8139 167.345 91.0019 167.339 84.6929 165.73C84.7409 164.734 84.6209 163.72 84.6929 162.729C109.548 159.404 105.839 133.259 98.3419 115.625C98.0959 122.3 102.88 139.874 98.4919 144.873C95.0649 148.781 90.4849 144.363 86.1939 143.523C86.3139 142.31 86.4879 142.671 86.4939 142.622C96.0849 138.505 94.0089 132.011 93.3959 123.122C93.1019 118.86 92.4839 114.635 92.1959 110.374H91.5959C91.4939 111.388 90.5809 113.597 90.0949 114.425C89.1889 114.467 89.1169 115.649 88.8949 116.226C87.9889 117.144 88.2769 116.394 87.9949 116.526L86.4939 100.176L92.1959 95.375L85.1439 93.124C84.2729 92.926 83.7689 93.556 83.1929 93.724C84.2909 90.897 88.8529 94.972 90.0949 93.124H90.0889Z" fill="#FEFDFA"/>
<path d="M13.8877 113.825C13.8877 113.957 14.2477 114.725 14.4877 114.725C12.1527 119.563 10.4717 125.379 9.38574 130.624C7.58474 139.315 4.78774 155.857 11.1867 162.723C14.0317 165.778 20.0157 169.139 24.0847 169.926C22.8307 170.898 18.9467 171.276 18.3827 172.026C16.6357 174.349 14.2957 204.053 13.8817 209.227C13.8277 209.917 13.9357 210.631 13.8817 211.328C12.2607 210.517 10.6937 196.197 10.5797 193.778C9.90774 179.397 13.3167 172.645 12.9807 171.576C-5.15125 164.29 6.88874 128.95 12.3807 115.475C12.8067 114.431 13.5267 113.147 13.8817 113.825H13.8877Z" fill="#FEFDFA"/>
<path d="M85.2876 90.7229C85.5936 92.0429 87.8436 92.1999 90.0886 93.1239C88.8526 94.9719 84.2906 90.8909 83.1866 93.7239C81.0556 94.3359 74.2616 98.0689 73.2896 100.026C72.0766 100.29 72.2566 99.0239 71.7886 98.2259C73.7456 95.5789 75.6056 92.8299 77.4906 90.1229C79.7836 90.9329 83.0006 91.8209 85.2936 90.7229H85.2876Z" fill="#FEFDFA"/>
<path d="M41.4905 91.6229C39.8875 92.1329 45.5055 96.4729 48.0925 98.5259C48.1285 99.2699 46.8985 98.6939 47.4925 100.326C40.9505 95.5489 36.4425 92.3079 28.2915 95.5249C28.7905 93.6519 35.3145 94.7919 33.9935 92.2239C36.6585 92.9739 38.9695 92.3919 41.4965 91.6229H41.4905Z" fill="#FEFDFA"/>
<path d="M74.7895 88.928C71.4405 92.71 66.9805 100.824 64.5925 103.627C64.0695 104.24 63.7155 104.822 62.7915 104.828C62.9955 101.419 63.2535 98.015 63.6915 94.63C64.9825 90.939 68.2415 87.74 69.0935 83.533C69.5435 84.685 73.5655 88.208 74.7955 88.934L74.7895 88.928Z" fill="#FEFDFA"/>
<path d="M57.6898 102.727C56.8678 102.211 55.3678 103.009 54.6888 103.627C52.7148 101.653 50.2598 100.248 48.0868 98.5259C45.5058 96.4789 39.8818 92.1329 41.4848 91.6229C43.7658 90.9329 47.8528 88.5619 49.8878 87.1219C50.0258 88.7779 49.1548 91.7849 49.5878 93.2739C49.7618 93.8739 56.6578 101.581 57.6898 102.727Z" fill="#F8D9B6"/>
<path d="M54.6887 90.4229C55.0127 91.6289 56.0397 92.8299 56.4897 94.0239C57.9597 97.9429 59.5987 101.893 61.2917 105.722C61.2917 106.184 60.9787 105.908 60.6907 105.722C60.5047 105.596 58.0917 103.165 57.6897 102.721C56.6577 101.575 49.7617 93.8679 49.5877 93.2679C49.1547 91.7789 50.0257 88.7779 49.8877 87.1159C51.3517 86.0769 52.5707 84.7749 54.0887 83.8149C54.0587 86.3839 54.0047 87.8719 54.6887 90.4169V90.4229Z" fill="#FEFDFA"/>
<path d="M77.4909 90.123C75.6119 92.824 73.7519 95.579 71.7889 98.226C70.4989 99.966 69.1359 101.797 67.5879 103.327C65.4689 101.629 67.3359 103.237 64.5869 103.627C66.9749 100.824 71.4349 92.704 74.7839 88.928C75.6419 89.433 76.5429 89.799 77.4849 90.129L77.4909 90.123Z" fill="#F8D9B6"/>
<path d="M87.9886 116.526C87.9516 116.544 88.1026 117.054 87.8376 117.126C84.5666 117.99 84.3746 112.918 84.9866 119.827C83.4806 120.109 84.5726 119.281 84.2366 119.227C82.6586 118.987 83.2226 123.314 81.3856 125.679C81.3616 126.357 82.1486 127.143 82.5866 127.629C76.7826 124.917 82.6946 129.904 83.6366 130.03C84.0626 130.084 84.5906 129.478 84.9866 129.43C86.5056 129.244 86.1276 129.142 86.1876 129.13C86.7336 129.004 87.6576 128.986 88.2886 128.83C88.0546 130.342 87.7176 131.345 87.6876 131.531C86.1576 132.929 84.3086 133.751 82.5866 134.832L67.5876 132.131C67.5156 131.591 67.3896 131.153 67.2876 130.63C70.6546 124.076 74.6156 117.786 77.7846 111.13C78.0726 110.53 78.4086 109.935 78.6846 109.329C79.3276 107.925 79.8856 105.986 80.4856 104.528C80.7616 103.861 82.8566 100.344 82.5866 99.8759C81.8116 99.7799 80.9716 99.9599 80.1856 100.026C79.1416 100.116 73.1516 101.419 72.8326 101.227C72.6166 101.119 73.0186 100.56 73.2836 100.026C74.2556 98.0749 81.0496 94.3419 83.1806 93.7239C83.7566 93.5559 84.2606 92.9259 85.1316 93.1239L92.1836 95.3749L86.4816 100.176L87.9826 116.526H87.9886Z" fill="#961C5A"/>
<path d="M48.3868 101.827C49.6478 103.339 51.1118 105.062 51.8378 106.928C54.4488 105.422 54.5208 103.777 54.6888 103.627C55.3678 103.009 56.8678 102.211 57.6897 102.727C58.0918 103.171 60.5048 105.602 60.6908 105.728C59.0408 107.475 60.8768 111.43 61.2918 113.531C59.8688 113.741 59.3588 111.724 58.5908 110.83C58.1638 102.553 51.6758 107.787 51.6878 108.579C51.6938 108.963 53.0807 109.989 54.2387 108.729C55.0667 112.252 56.6218 112.738 56.7898 112.93C58.2238 114.551 60.6008 116.418 62.1918 118.032C62.1918 118.212 63.3198 119.959 59.9408 119.533C58.9568 119.407 58.1877 118.236 56.1897 117.432C58.0378 116.994 56.2857 113.105 55.4397 112.93C53.9808 112.63 52.5228 115.655 50.1878 115.031C50.1218 115.013 49.0348 114.479 48.9868 114.431C48.5068 113.915 47.1868 109.929 47.4868 109.479L51.3878 107.379C51.2978 107.193 47.5768 107.487 47.1868 107.529C47.1028 106.802 44.9237 102.793 45.0857 102.577C45.4757 102.073 47.4208 102.979 47.1868 101.827C47.5768 101.785 47.9908 101.857 48.3868 101.827Z" fill="#FBD0B1"/>
<path d="M50.1878 115.025C50.3558 116.514 51.0458 116.166 51.0878 116.226C52.7148 118.488 56.3998 125.283 57.9898 128.224C58.0498 128.332 57.3118 127.749 58.8908 130.174C59.3948 130.949 58.4468 132.053 61.8918 132.725C62.1378 133.193 61.8978 134.094 62.9418 134.526L67.8938 135.426C67.8818 135.624 67.9178 135.828 67.8938 136.026C65.4928 135.926 63.0918 135.826 60.6908 135.726C59.8388 134.532 59.0888 133.349 58.2908 132.125C54.7188 126.663 51.6578 120.811 48.0928 115.325C48.9928 115.421 49.0888 115.313 48.9928 114.425C49.0408 114.473 50.1278 115.007 50.1938 115.025H50.1878Z" fill="#F9D1C4"/>
<path d="M42.9849 108.129C44.6479 110.578 46.4549 112.822 48.0869 115.331C51.6579 120.817 54.7189 126.669 58.2849 132.131C57.9479 131.879 57.3359 131.531 57.0839 131.231C55.2949 129.1 51.3759 122.882 49.5819 120.133C47.4149 116.802 40.8069 106.496 39.9839 103.633C41.4789 104.798 41.9709 106.64 42.9849 108.135V108.129Z" fill="#D96B94"/>
<path d="M47.1868 101.827C47.4208 102.979 45.4758 102.073 45.0858 102.577C44.9238 102.787 47.1028 106.802 47.1868 107.529C45.8058 107.679 44.3958 108.171 42.9848 108.129C41.9708 106.634 41.4788 104.792 39.9838 103.627C39.8818 103.279 39.6118 103.123 39.3838 102.877L39.8338 102.427C42.2948 102.295 44.7378 102.109 47.1868 101.827Z" fill="#F8D9B6"/>
<path d="M54.6885 103.627C54.5205 103.777 54.4485 105.422 51.8375 106.928C51.1115 105.062 49.6475 103.339 48.3865 101.827C48.2305 101.641 48.3865 100.284 47.4865 100.326C46.8925 98.7 48.1226 99.27 48.0865 98.526C50.2596 100.248 52.7145 101.653 54.6885 103.627Z" fill="#FBEFE1"/>
<path d="M47.4867 100.326C48.3807 100.284 48.2307 101.641 48.3867 101.827C47.9907 101.857 47.5767 101.785 47.1867 101.827C44.7377 102.109 42.2947 102.295 39.8337 102.427L39.3837 102.877C39.6117 103.123 39.8817 103.279 39.9837 103.627C40.8067 106.49 47.4147 116.802 49.5817 120.127C49.2567 123.002 47.8947 126.675 47.7807 127.479C46.9347 133.541 47.9367 133.511 57.0837 131.231C57.3357 131.531 57.9477 131.879 58.2847 132.131C59.0827 133.355 59.8327 134.538 60.6847 135.732C61.1887 136.44 61.5437 136.584 61.5857 136.632C62.0537 137.227 64.1717 140.792 64.7367 140.834C65.0307 140.702 65.4387 139.964 65.4867 139.934C65.8647 139.693 66.4227 139.387 66.6867 139.033C67.5397 137.893 67.7257 137.449 67.8877 136.032C67.9117 135.834 67.8757 135.63 67.8877 135.432C67.9537 134.142 67.7557 133.331 67.5877 132.131L82.5867 134.832C82.3287 134.994 81.7217 136.374 77.4847 137.683C78.1327 138.931 79.2317 141.722 80.4857 142.334C76.9867 146.056 60.5287 154.891 58.8847 157.333C57.3177 159.662 58.3027 159.374 58.2847 160.034C58.2597 160.983 59.2147 162.741 57.9837 164.686C58.3387 165.166 58.5847 165.1 58.5847 165.136C58.5007 166.517 58.9027 167.903 58.1337 168.437C57.8577 168.545 53.1887 167.621 52.2817 167.537C49.1367 167.243 43.1587 166.865 40.5847 166.336C40.1937 166.258 39.6597 166.39 39.2337 166.336C38.2197 165.616 38.5617 165.034 38.4837 164.836C38.4477 164.752 38.5137 164.626 38.4837 164.536C41.1127 168.035 41.1427 160.472 42.0847 157.483C45.1997 147.616 47.5167 146.308 54.0827 138.883C43.3987 139.003 37.4027 135.468 31.5817 126.735C31.4427 125.439 31.2687 123.206 31.2807 121.934C31.3107 117.612 32.3737 113.063 32.7817 108.735C33.0337 106.088 33.4477 103.435 33.6817 100.782L27.6797 95.5309C27.7997 95.4889 28.0757 95.5549 28.2797 95.5309C36.4307 92.3139 40.9387 95.5549 47.4807 100.332L47.4867 100.326Z" fill="#6F103D"/>
<path d="M84.6865 162.729C85.1375 156.343 85.5575 149.897 86.1875 143.529C90.4845 144.363 95.0645 148.787 98.4855 144.879C102.874 139.88 98.0895 122.306 98.3355 115.631C105.833 133.259 109.542 159.404 84.6865 162.735V162.729Z" fill="#F8D9B6"/>
<path d="M93.3898 123.128C92.6518 125.301 91.5238 122.09 88.8888 121.627C88.7928 120.679 88.0728 119.347 87.9888 118.326C89.2308 117.15 88.8108 116.43 88.8888 116.226C89.6568 115.451 89.6208 115.223 90.0888 114.425C90.5748 113.597 91.4878 111.388 91.5898 110.374H92.1898C92.4778 114.635 93.0958 118.86 93.3898 123.122V123.128Z" fill="#F3B38F"/>
<path d="M87.9888 116.526C88.2708 116.394 87.9828 117.144 88.8888 116.226C88.8108 116.43 89.2308 117.15 87.9888 118.326C87.7778 118.524 85.3658 119.755 84.9868 119.827C84.3688 112.918 84.5668 117.99 87.8378 117.126C88.1028 117.06 87.9518 116.544 87.9888 116.526Z" fill="#FCE6F1"/>
<path d="M90.0887 114.425C89.6207 115.223 89.6567 115.451 88.8887 116.226C89.1107 115.649 89.1827 114.467 90.0887 114.425Z" fill="#FCE6F1"/>
<path d="M73.2899 100.026C73.0249 100.56 72.6229 101.119 72.8389 101.227C73.1579 101.419 79.1479 100.116 80.1919 100.026C80.3479 100.974 76.4169 100.83 74.9399 101.227C68.2299 103.021 69.8799 106.46 75.3899 108.279C75.4319 108.717 70.9309 110.11 70.2889 110.23C70.0539 110.272 69.2379 110.878 67.8879 110.38C70.5769 102.415 68.3979 104.678 68.0379 104.228C67.4319 103.477 67.6299 103.357 67.5879 103.327C69.1359 101.797 70.4989 99.966 71.7889 98.226C72.2569 99.024 72.0769 100.29 73.2899 100.026Z" fill="#FBEFE1"/>
<path d="M67.5879 103.327C67.6299 103.357 67.4319 103.477 68.0379 104.228C68.3979 104.678 70.5769 102.415 67.8879 110.38C69.2319 110.878 70.0539 110.272 70.2889 110.23C71.0329 111.4 68.5899 111.388 71.4889 112.93C71.4649 112.948 72.0769 113.261 71.3389 113.531C69.5259 114.191 68.1219 111.88 69.0879 116.532C69.0219 116.562 69.0039 116.994 67.8879 117.432L66.8369 112.93C66.2549 114.425 64.7189 115.481 63.9859 116.832C62.6779 115.589 63.8419 109.485 63.6859 108.879C63.3379 108.159 62.9299 108.141 62.7859 107.829C62.1859 106.436 62.7199 105.902 62.7859 104.828C63.7039 104.822 64.0579 104.246 64.5869 103.627C67.3359 103.237 65.4689 101.629 67.5879 103.327Z" fill="#F3B38F"/>
<path d="M61.2855 105.728C61.6335 106.52 62.7315 107.709 62.7855 107.829C62.9295 108.141 63.3375 108.153 63.6855 108.879C63.8415 109.479 62.6775 115.589 63.9855 116.832C63.6855 117.39 62.7675 119.035 63.5355 119.233C64.9285 118.488 66.4225 118.008 67.8875 117.432C69.0035 116.994 69.0215 116.562 69.0875 116.532C69.2795 116.442 70.9125 116.346 72.9885 115.031C72.7065 116.796 71.5905 118.242 70.8885 119.833C70.0895 118.987 64.9405 120.577 64.8865 120.883L69.6875 123.134C68.7935 125.187 67.9895 127.287 66.6865 129.136C64.4365 130.216 62.4495 127.599 61.8855 127.335C73.1335 127.996 64.3285 124.388 57.5335 118.632C56.1715 118.632 60.8225 128.776 57.9835 125.685V128.236C56.3995 125.289 52.7085 118.494 51.0815 116.238C52.6305 116.256 54.7545 116.862 56.1835 117.438C58.1815 118.242 58.9445 119.413 59.9345 119.539C63.3135 119.965 62.1855 118.218 62.1855 118.038C62.2095 116.298 61.6095 115.169 61.2855 113.537C60.8705 111.436 59.0345 107.481 60.6845 105.734C60.9725 105.92 61.2855 106.196 61.2855 105.734V105.728Z" fill="#F3B38F"/>
<path d="M80.486 104.528C79.652 104.894 80.06 104.666 79.736 103.927C69.382 106.916 74.61 104.029 78.685 109.329C78.409 109.935 78.073 110.53 77.785 111.13C75.792 109.605 76.014 112.594 73.884 113.831C73.746 109.695 71.969 112.648 71.483 112.93C68.584 111.388 71.027 111.406 70.283 110.23C70.925 110.11 75.426 108.717 75.384 108.279C69.874 106.46 68.224 103.021 74.934 101.227C76.411 100.83 80.342 100.974 80.186 100.026C80.972 99.96 81.812 99.78 82.587 99.876C82.857 100.344 80.762 103.861 80.486 104.528Z" fill="#F8D9B6"/>
<path d="M88.8888 121.627C88.9128 121.867 88.4328 124.953 89.1888 126.429L86.1878 129.13C86.1278 129.142 86.5058 129.244 84.9868 129.43C84.2248 128.638 83.3548 128.488 82.5868 127.629C82.1488 127.143 81.3618 126.363 81.3858 125.679C83.2168 123.314 82.6588 118.987 84.2368 119.227C84.5728 119.281 83.4808 120.109 84.9868 119.827C85.3658 119.755 87.7778 118.524 87.9888 118.326C88.0728 119.347 88.7868 120.679 88.8888 121.627Z" fill="#B12E7B"/>
<path d="M77.7906 111.124C74.6216 117.78 70.6606 124.07 67.2936 130.624C67.2816 130.564 66.4766 130.144 66.3926 129.874L66.6926 129.124C67.9956 127.275 68.7996 125.175 69.6936 123.122C70.1016 122.18 70.4206 120.901 70.8946 119.821C71.5966 118.23 72.7126 116.79 72.9946 115.019C73.6436 114.611 74.0816 114.779 74.1956 114.569C74.3576 114.257 73.9076 114.125 73.8956 113.819C76.0256 112.582 75.7976 109.593 77.7966 111.118L77.7906 111.124Z" fill="#F9D1C4"/>
<path d="M80.486 104.528C79.886 105.986 79.328 107.925 78.685 109.329C74.61 104.029 69.382 106.922 79.736 103.927C80.06 104.666 79.652 104.894 80.486 104.528Z" fill="#FBEFE1"/>
<path d="M27.6858 95.5249L33.6878 100.776C33.4538 103.429 33.0398 106.082 32.7878 108.729C32.3378 105.722 29.6488 110.764 28.5858 112.03C27.6798 113.117 26.4678 114.059 25.7358 115.331C25.5728 106.436 30.3148 103.327 24.3848 108.129C18.3288 113.033 21.9358 111.376 19.8838 106.328C22.0438 102.901 24.0668 99.3899 26.4858 96.1309C26.8518 95.9449 26.6478 95.9149 27.6858 95.5309V95.5249Z" fill="#FBEFE1"/>
<path d="M31.2867 121.928C31.2747 123.194 31.4487 125.433 31.5877 126.729C31.9177 129.778 33.4897 136.284 35.1887 138.877C35.4107 144.729 36.9587 159.89 38.4897 164.53C38.5197 164.62 38.4537 164.746 38.4897 164.83C37.7277 164.974 37.0967 164.674 36.3887 164.53C33.6817 161.685 31.5937 158.24 30.0867 154.633C20.3097 131.207 28.7187 115.349 28.8867 113.231L29.7867 112.78C30.2867 115.829 30.7867 118.88 31.2867 121.934V121.928Z" fill="#A36648"/>
<path d="M32.7879 108.729C32.3799 113.057 31.3169 117.606 31.2869 121.928C30.7869 118.878 30.2869 115.827 29.7869 112.774L28.8869 113.225C28.9289 112.696 28.8629 112.462 28.5859 112.024C29.6489 110.758 32.3319 105.716 32.7879 108.723V108.729Z" fill="#FBD0B1"/>
<path d="M24.3849 108.129C22.9029 111.376 21.8939 113.681 21.0839 117.132C17.9449 127.089 13.4549 136.921 16.2819 147.43C11.5469 143.001 15.2859 130.955 9.37988 130.63C10.4659 125.385 12.1409 119.569 14.4819 114.731C15.9639 111.658 18.0829 109.173 19.8839 106.328C21.9299 111.376 18.3289 113.033 24.3849 108.129Z" fill="#F8D9B6"/>
<path d="M28.5857 112.024C28.8627 112.462 28.9287 112.696 28.8867 113.225C28.7187 115.343 20.3097 131.201 30.0867 154.627C28.1657 153.21 22.6687 148.426 21.6837 146.974C17.2607 140.456 19.3187 124.658 21.0837 117.126C21.8937 113.675 22.9027 111.37 24.3847 108.123C30.3147 103.321 25.5727 106.43 25.7357 115.325C26.4617 114.053 27.6737 113.111 28.5857 112.024Z" fill="#F3B38F"/>
<path d="M30.0869 154.627C31.5939 158.234 33.6819 161.679 36.3889 164.524C27.7639 162.771 18.6709 156.277 16.2879 147.424C13.4609 136.915 17.9509 127.083 21.0899 117.126C19.3249 124.664 17.2669 140.456 21.6899 146.974C22.6749 148.42 28.1659 153.204 30.0929 154.627H30.0869Z" fill="#CA8761"/>
<path d="M48.9869 114.425C49.0829 115.313 48.9869 115.421 48.0869 115.325C46.4609 112.822 44.6479 110.578 42.9849 108.123C44.3959 108.165 45.8059 107.673 47.1869 107.523C47.5769 107.481 51.2919 107.187 51.3879 107.373L47.4869 109.473C47.1869 109.923 48.5069 113.909 48.9869 114.425Z" fill="#FBEFE1"/>
<path d="M58.5905 110.824C55.8055 107.577 56.3215 108.417 56.7895 112.924C56.6215 112.732 55.0665 112.246 54.2385 108.723C53.0865 109.983 51.6935 108.957 51.6875 108.573C51.6755 107.781 58.1575 102.547 58.5905 110.824Z" fill="#FBEFE1"/>
<path d="M58.5908 110.824C59.3588 111.718 59.8688 113.735 61.2918 113.525C61.6158 115.157 62.2158 116.286 62.1918 118.026C60.6008 116.412 58.2298 114.545 56.7898 112.924C56.3218 108.417 55.8058 107.577 58.5908 110.824Z" fill="#F3B38F"/>
<path d="M56.1895 117.426C54.7605 116.85 52.6365 116.244 51.0875 116.226C51.0455 116.166 50.3555 116.514 50.1875 115.025C52.5225 115.649 53.9805 112.624 55.4395 112.924C56.2855 113.099 58.0375 116.982 56.1895 117.426Z" fill="#F8D9B6"/>
<path d="M61.8859 127.329C61.3819 127.089 60.9429 127.059 60.5349 126.729C59.9829 127.107 61.4359 131.879 61.8859 132.731C58.4409 132.059 59.3889 130.961 58.8849 130.18C57.3059 127.755 58.0439 128.338 57.9839 128.23V125.679C60.8229 128.77 56.1719 118.632 57.5339 118.626C64.3289 124.376 73.1339 127.99 61.8859 127.329Z" fill="#F8D9B6"/>
<path d="M73.8899 113.825C73.9019 114.131 74.3519 114.263 74.1899 114.575C74.0819 114.785 73.6379 114.617 72.9889 115.025C70.9129 116.34 69.2799 116.436 69.0879 116.526C68.1219 111.874 69.5259 114.185 71.3389 113.525C72.0769 113.255 71.4649 112.942 71.4889 112.924C71.9749 112.642 73.7519 109.689 73.8899 113.825Z" fill="#FBEFE1"/>
<path d="M67.888 117.426C66.429 118.002 64.929 118.482 63.536 119.227C62.768 119.029 63.686 117.384 63.986 116.826C64.719 115.475 66.255 114.419 66.837 112.924L67.888 117.426Z" fill="#FCDCC9"/>
<path d="M70.8887 119.827C70.4147 120.907 70.0957 122.186 69.6877 123.128L64.8867 120.877C64.9407 120.571 70.0897 118.981 70.8887 119.827Z" fill="#FBD0B1"/>
</g>
</g>
<defs>
<clipPath id="clip0_79_248">
<rect width="120" height="120" fill="white"/>
</clipPath>
</defs>
</svg>
