<svg width="120" height="120" viewBox="0 0 120 120" fill="none" xmlns="http://www.w3.org/2000/svg">
<g clip-path="url(#clip0_79_488)">
<mask id="mask0_79_488" style="mask-type:luminance" maskUnits="userSpaceOnUse" x="10" y="8" width="100" height="138">
<path d="M109.842 8.28894H10.1582V145.789H109.842V8.28894Z" fill="white"/>
</mask>
<g mask="url(#mask0_79_488)">
<path d="M88.0672 47.759L86.8762 54.819C90.2042 58.929 91.4802 65.917 89.9382 70.98L94.5322 75.232C93.9642 76.877 93.3972 78.521 92.8302 80.166C94.0212 81.016 95.2122 81.867 96.4032 82.717C97.5322 87.12 96.9542 87.885 95.3822 91.904C98.4682 94.414 100.159 93.646 99.1252 98.368C99.2982 99.065 107.698 102.25 108.991 108.235C109.624 111.161 109.399 124.722 109.842 129.499C109.257 130.414 108.358 131.047 107.46 131.625C106.997 124.487 107.576 110.096 103.207 104.492C101.993 102.934 100.383 102.141 99.2952 101.175C98.9002 100.828 98.3352 100.692 98.1042 100.154C96.8522 96.33 95.6072 95.456 94.0212 93.52C93.7802 93.224 93.3682 92.88 93.3412 92.839C92.1772 91.152 93.8782 90.781 94.0212 90.032C94.2492 88.838 92.2932 87.185 95.0422 83.398C94.4912 82.69 93.7462 82.513 93.6812 82.462C93.2932 82.163 92.8472 81.904 92.4902 81.612C88.2032 78.107 92.6642 77.869 89.2582 73.957C88.7882 72.752 88.0742 71.718 87.3872 70.639C89.7002 62.698 86.5502 61.695 85.5152 58.476C84.8082 56.275 85.4202 49.763 85.6862 48.695C86.0022 47.419 87.1762 48.099 88.0672 47.759Z" fill="#FAFAFB"/>
<path d="M33.4642 46.908C33.4132 47.766 34.6412 50.334 34.8252 51.161C34.8892 51.447 34.9172 51.702 34.9952 52.012C35.0832 52.362 34.9062 53.026 34.9952 53.373C31.5042 57.99 29.5342 61.161 32.6132 66.727C29.9732 72.129 27.6092 72.429 29.5512 78.635C23.0832 85.579 25.9522 83.599 26.3192 85.779C26.4962 86.824 25.6562 88.61 25.8092 89.522C25.8842 89.974 27.3982 91.659 27.3402 92.244C27.2962 92.693 22.8592 97.058 22.4062 98.283C9.9852 104.546 12.8092 118.741 12.0292 130.431C11.3462 129.815 10.6752 129.254 10.1582 128.475L10.8392 106.87C11.5192 103.101 17.5112 98.164 21.1312 97.089C22.4052 95.417 23.6812 93.744 24.9582 92.07C25.1152 91.267 23.3732 88.634 23.2572 87.988C23.1862 87.583 23.3452 83.796 23.4272 83.565C23.5222 83.286 26.9522 79.904 27.5102 79.312C24.1722 71.201 25.3772 73.133 30.5722 67.234C28.4352 64.069 27.7072 57.455 31.1672 55.07C31.2692 54.999 32.3342 55.186 33.2942 53.965L30.9122 47.415L33.4642 46.905V46.908Z" fill="#FAFAFB"/>
<path d="M93.1713 99.133C92.1643 100.835 91.9533 99.831 90.2793 98.113L93.1713 99.133Z" fill="#FAFAFB"/>
<path d="M93.3412 98.453C93.3952 98.729 93.3032 98.909 93.1712 99.133L90.2792 98.113C89.9862 97.813 89.4352 97.623 89.4282 97.092C90.7072 97.599 92.0412 97.997 93.3412 98.453Z" fill="#B3AF47"/>
<path d="M41.2895 60.858C39.4115 60.779 40.8945 56.697 39.2485 58.136C39.3465 57.578 39.5745 56.687 39.5885 56.435C39.5685 56.227 39.7515 56.275 39.7585 56.265C40.1155 57.857 40.7795 59.33 41.2895 60.858Z" fill="#DDE0E3"/>
<path d="M41.6294 61.708C41.6534 61.783 41.6704 62.008 41.7994 62.389C41.9874 63.563 41.1164 63.447 40.2684 63.239C39.9624 63.164 39.8434 62.709 39.5034 62.729C39.0064 63.137 40.4934 67.775 40.9494 68.513C40.9734 69.309 40.8164 70.156 41.1194 70.469C40.8404 71.265 37.9754 64.627 37.8874 64.005C37.7754 63.202 37.9114 62.334 38.0574 61.538C38.1864 61.946 41.0514 63.175 41.2044 63.069C41.5004 62.862 40.9594 61.572 41.6294 61.708Z" fill="#00588E"/>
<path d="M41.2896 61.198C41.2996 61.229 41.4226 61.079 41.6296 61.708C40.9596 61.572 41.5006 62.862 41.2046 63.069C41.0516 63.175 38.1866 61.946 38.0576 61.538C38.2276 60.599 38.7206 60.089 38.7376 60.007C39.2486 60.688 41.6166 61.814 41.2896 61.198Z" fill="#00588E"/>
<path d="M41.2894 60.858C41.3164 60.943 41.2624 61.113 41.2894 61.198C41.6164 61.814 39.2484 60.688 38.7374 60.007C38.7514 59.953 38.7274 59.891 38.7374 59.837C38.7994 59.551 38.8464 59.262 38.9084 58.986C38.9554 58.772 39.2144 58.33 39.2484 58.136C40.8944 56.697 39.4114 60.779 41.2894 60.858Z" fill="#136D9C"/>
<path d="M40.2687 63.239C40.5987 64.957 40.8947 66.767 40.9497 68.513C40.4937 67.775 39.0067 63.137 39.5037 62.729C39.8437 62.709 39.9627 63.164 40.2687 63.239Z" fill="#A79FA2"/>
<path d="M39.5882 91.308C39.0272 93.118 37.5532 95.2 36.6962 97.177C36.0732 98.616 33.6682 104.393 34.7402 104.917C38.7442 105.717 37.6722 105.649 38.7372 108.235C37.7752 109.521 37.8222 114.015 38.5672 115.124L37.3762 116.315C37.3762 116.315 37.4282 116.536 37.1212 116.485C35.5872 115.509 28.0302 105.013 27.6802 103.982C26.8702 101.6 29.0722 100.681 26.1492 99.559C24.8392 101.604 23.6112 103.771 22.2362 105.768C22.1852 105.839 21.8082 105.758 20.8752 106.874C20.0592 108.901 23.0362 118.261 23.9372 120.823C24.4312 121.088 24.0062 113.964 23.9372 113.338C23.7402 111.552 23.0092 110.218 23.0872 108.49C24.8942 113.882 31.3482 127.808 34.8252 132.051C39.9762 138.335 51.4082 144.319 51.8362 139.195C52.0302 136.861 49.7232 131.659 48.4342 129.584C52.6432 133.17 55.0242 139.172 57.6202 143.023C60.7882 147.721 59.7602 145.496 64.0842 138.6C65.9832 135.575 68.0622 132.646 70.3792 129.924C70.2292 132.602 69.4842 135.303 70.8892 137.834C72.8902 141.437 83.3282 143.2 86.6252 141.152L88.7512 140.982C78.0002 146.816 37.5742 148.878 28.0242 138.26C26.5812 135.388 25.6452 132.398 25.0472 129.244L24.2812 136.218C22.0022 135.16 15.7042 133.745 12.0332 130.434C12.8122 118.744 9.9912 104.55 22.4102 98.283C23.4752 97.711 24.6522 97.626 25.8122 97.262C26.0132 97.398 26.3122 97.449 26.4932 97.602C26.6972 97.776 27.2722 98.793 27.4282 98.793C27.6052 98.793 29.3812 96.966 30.0652 96.412C30.3882 96.15 30.0892 95.799 30.4902 95.561C33.5222 94.135 36.5332 92.679 39.5912 91.308H39.5882Z" fill="#1C294B"/>
<path d="M89.4283 97.092C89.4353 97.623 89.9863 97.813 90.2793 98.113C91.9533 99.831 92.1642 100.835 93.1712 99.133C93.3032 98.909 93.3953 98.729 93.3413 98.453C93.6813 98.572 93.9503 98.882 94.3613 98.793C94.6783 99.028 94.8753 98.929 94.8723 99.133C94.6103 100.413 94.5352 101.743 94.5322 103.046C94.5322 103.111 94.1843 103.771 94.3613 104.322C94.4743 104.672 95.5352 105.771 95.8923 104.237C95.9263 104.097 95.8892 103.89 95.8923 103.727C95.9202 102.767 95.1642 100.698 95.2122 99.474L98.1042 100.154C98.3352 100.692 98.9002 100.828 99.2952 101.175C99.3732 104.638 99.1893 108.098 98.9543 111.552C98.8423 111.552 98.6623 111.504 98.6143 111.637C98.4272 112.168 96.7123 120.615 96.2333 122.609C95.6443 125.052 95.2192 127.597 94.5322 130.009C93.6912 132.962 92.3543 135.779 91.6403 138.77C90.6223 139.876 90.0543 140.27 88.7483 140.982L86.6213 141.152C83.3283 143.2 72.8863 141.437 70.8863 137.834C69.4803 135.303 70.2263 132.602 70.3753 129.924C70.3823 129.774 70.5623 129.761 70.5453 129.414C75.2753 123.361 81.6103 119.003 87.2173 113.848C86.1793 113.498 86.5943 113.062 85.5153 113.593C85.0943 113.052 84.6003 112.583 84.1553 112.062C83.1853 110.936 82.1983 109.776 81.4333 108.49C82.1713 107.238 83.0663 105.101 83.4743 103.727C83.6513 103.135 83.9033 102.509 84.1553 101.94L83.9843 101.43C82.6243 98.681 81.2633 95.931 79.9023 93.179C83.1513 94.275 86.2473 95.833 89.4283 97.092Z" fill="url(#paint0_linear_79_488)"/>
<path d="M107.46 131.622C105.102 133.139 100.764 134.459 98.1043 135.705C97.0733 127.25 98.3973 119.775 98.9543 111.548C99.1893 108.095 99.3733 104.638 99.2953 101.171C100.383 102.138 101.993 102.93 103.207 104.489C107.576 110.089 106.997 124.48 107.46 131.622Z" fill="url(#paint1_linear_79_488)"/>
<path d="M98.9544 111.548C98.3974 119.775 97.0734 127.25 98.1044 135.705C97.1514 136.15 96.1514 136.596 95.2124 137.066C95.4094 134.163 95.5184 131.19 95.8924 128.305C96.2164 125.807 97.7674 122.323 96.2334 122.606C96.7124 120.612 98.4274 112.164 98.6144 111.633C98.6624 111.501 98.8424 111.548 98.9544 111.548Z" fill="#1C294B"/>
<path d="M37.3763 116.312C38.3223 116.866 40.2623 117.781 41.2893 118.183V118.353C39.8133 120.986 42.0043 121.527 44.6913 124.732C45.9813 126.27 47.3723 127.873 48.4343 129.581C49.7233 131.656 52.0303 136.858 51.8363 139.192C51.4113 144.316 39.9763 138.331 34.8253 132.047C31.3483 127.805 24.8943 113.882 23.0873 108.486C22.7873 107.588 22.5603 106.656 22.2363 105.764C23.6113 103.767 24.8393 101.6 26.1493 99.5549C29.0723 100.678 26.8703 101.597 27.6803 103.978C28.0303 105.009 35.5873 115.505 37.1213 116.482C37.4283 116.533 37.3633 116.305 37.3763 116.312Z" fill="#2C3962"/>
<path d="M57.96 140.978C57.78 141.591 57.385 142.638 57.96 142.934L57.62 143.02C55.024 139.168 52.643 133.167 48.434 129.581C47.372 127.873 45.981 126.27 44.691 124.732C42.004 121.527 39.813 120.986 41.289 118.353C46.114 124.324 52.088 129.965 55.919 136.64C56.701 138.008 57.246 139.573 57.96 140.978Z" fill="#141022"/>
<path d="M40.9491 90.9679C40.2311 92.2739 35.5491 103.026 35.8451 103.641C39.0641 104.808 42.5071 105.349 45.5421 106.959C46.5521 108.296 47.6991 108.047 48.2641 109.851C47.3081 108.639 44.5961 107.605 42.9901 106.959C41.8811 106.513 40.7891 106.023 39.6731 105.598C39.2611 105.751 39.4041 108.616 39.4181 109.17C39.2041 110.939 39.1391 112.841 39.2481 114.614C39.2851 115.236 38.8261 115.182 39.7581 115.805C39.6971 115.774 39.0301 115.811 38.5671 115.124C37.8221 114.015 37.7751 109.521 38.7371 108.235C37.6721 105.649 38.7441 105.717 34.7401 104.917C33.6681 104.393 36.0701 98.6159 36.6961 97.1769C37.5531 95.1999 39.0271 93.1179 39.5881 91.3079C39.6591 91.2779 40.1601 90.5119 40.9491 90.9679Z" fill="#141022"/>
<path d="M22.2364 105.768C22.5604 106.659 22.7874 107.592 23.0874 108.49C23.0094 110.218 23.7404 111.552 23.9374 113.338C24.0064 113.964 24.4314 121.088 23.9374 120.823C23.0364 118.264 20.0594 108.905 20.8754 106.874C21.8084 105.758 22.1854 105.839 22.2364 105.768Z" fill="#1C294B"/>
<path d="M39.758 115.801C42.534 117.23 47.924 118.989 51.496 121.585C50.703 121.599 48.92 120.299 48.689 120.224C48.07 120.027 45.083 119.666 41.289 118.183C40.262 117.781 38.322 116.866 37.376 116.312L38.567 115.121C39.03 115.808 39.697 115.771 39.758 115.801Z" fill="#141022"/>
<path d="M30.0623 96.412C29.3783 96.966 27.6023 98.793 27.4253 98.793C27.2683 98.793 26.6933 97.776 26.4893 97.602L30.0623 96.412Z" fill="#DDE0E3"/>
<path d="M30.0621 96.412L26.4891 97.602C26.3091 97.449 26.0091 97.398 25.8091 97.262C26.6871 96.987 30.1331 95.343 30.0621 96.412Z" fill="#D8C73B"/>
<path d="M79.9023 93.179C81.2633 95.928 82.6243 98.679 83.9843 101.43L84.1553 101.94C83.9033 102.509 83.6513 103.135 83.4743 103.727C82.3243 102.862 82.3453 104.196 81.3483 104.917C81.0893 105.104 75.3903 108.449 77.4353 108.32C78.3573 108.262 80.1703 104.703 81.0923 107.979C81.0073 107.969 80.7863 107.694 80.7523 107.639C80.4633 107.18 80.4223 106.639 79.8173 106.959C77.4653 108.66 75.1113 110.361 72.7573 112.062L74.1183 107.384L74.5433 106.959C77.4063 105.514 80.2693 104.068 83.1343 102.621C81.9773 99.154 80.0753 96.014 78.0303 93.009C78.3813 92.363 79.1843 92.938 79.9023 93.179Z" fill="#141022"/>
<path d="M70.5451 129.41C70.5421 129.312 70.3171 128.407 70.2051 128.049C72.6411 125.158 74.3661 123.167 77.1801 120.564C78.0781 119.734 85.0291 113.831 85.5151 113.59C86.5941 113.059 86.1791 113.494 87.2171 113.845C81.6101 118.996 75.2751 123.358 70.5451 129.41Z" fill="#141022"/>
<path d="M83.4742 103.727C83.0662 105.101 82.1712 107.238 81.4332 108.49H81.2632C81.3312 108.248 81.1472 108.167 81.0922 107.979C80.1702 104.703 78.3602 108.262 77.4352 108.32C75.3902 108.449 81.0892 105.104 81.3482 104.917C82.3452 104.196 82.3242 102.862 83.4742 103.727Z" fill="#2E1535"/>
<path d="M95.2122 99.4739C95.1642 100.695 95.9202 102.767 95.8922 103.727H95.5522C95.2872 103.427 94.8852 103.22 94.5322 103.046C94.5352 101.743 94.6102 100.413 94.8722 99.1329L95.2122 99.4739Z" fill="#E2D1C6"/>
<path d="M95.5522 103.727C95.5792 103.757 95.5452 104.312 95.8922 104.237C95.5352 105.771 94.4742 104.672 94.3612 104.322C94.1842 103.771 94.5322 103.111 94.5322 103.046C94.8852 103.22 95.2872 103.427 95.5522 103.727Z" fill="#DEBD5C"/>
<path d="M95.8922 103.727C95.8892 103.89 95.9262 104.097 95.8922 104.237C95.5492 104.312 95.5792 103.757 95.5522 103.727H95.8922Z" fill="#6C4420"/>
<path d="M46.222 85.524C43.599 89.131 44.933 95.837 46.052 99.899C47.049 103.516 48.543 105.37 48.604 105.683C48.716 106.251 48.458 106.496 48.434 106.618C48.379 106.901 48.162 107.394 48.094 107.724C46.668 105.155 44.858 102.539 42.735 100.324C42.14 100.27 45.29 106.625 45.542 106.959C42.507 105.349 39.064 104.812 35.845 103.641C35.549 103.026 40.231 92.278 40.949 90.968C41.84 89.342 44.399 84.874 46.222 85.524Z" fill="#10304A"/>
<path d="M48.4341 106.618C51.6701 113.991 53.6971 121.861 55.9191 129.584C56.1161 130.268 56.4051 130.948 56.5991 131.625C57.1471 133.551 57.7801 135.483 58.3011 137.409C58.7871 139.209 59.0521 141.128 59.4911 142.938C59.5221 143.064 59.7161 143.023 59.8321 143.023C59.3651 144.414 59.0631 143.149 57.9601 140.982C57.2461 139.576 56.7051 138.011 55.9191 136.644C52.0881 129.968 46.1141 124.327 41.2891 118.356V118.186C45.0831 119.67 48.0701 120.03 48.6891 120.228C48.9201 120.302 50.7031 121.602 51.4961 121.589L51.7511 121.759C51.9791 121.548 51.6151 120.854 51.4961 120.568C51.2681 120.02 50.4511 118.897 50.1351 118.016C49.0061 114.886 48.6381 111.045 48.2641 109.851C47.6991 108.047 46.5521 108.296 45.5421 106.959C45.2901 106.625 42.1401 100.27 42.7351 100.324C44.8581 102.539 46.6681 105.155 48.0941 107.724C48.1621 107.394 48.3791 106.901 48.4341 106.618Z" fill="#0C416D"/>
<path d="M78.0303 93.009C80.0753 96.014 81.9773 99.154 83.1343 102.621C80.2713 104.066 77.4083 105.512 74.5433 106.959L74.1183 107.384L72.7573 112.062C72.4713 112.579 73.2573 113.362 73.4373 113.763C74.4953 116.114 75.9383 118.312 77.1803 120.568C74.3663 123.171 72.6413 125.161 70.2053 128.053C67.8173 130.89 65.4963 133.837 63.4013 136.899C63.2243 137.161 63.0743 137.474 62.8903 137.749L62.5503 137.154C67.1703 125.345 71.2563 113.107 74.1183 100.75C74.1723 100.518 74.6183 100.11 74.6283 100.069C75.4113 96.623 76.2373 92.638 75.1383 89.267C76.1123 90.495 77.1493 91.713 78.0303 93.009Z" fill="#0C416D"/>
<path d="M75.1384 89.2669C76.2374 92.6379 75.4114 96.6229 74.6284 100.069C74.6184 100.11 74.1724 100.518 74.1184 100.75C71.2564 113.107 67.1704 125.341 62.5504 137.154L62.8904 137.749C61.5434 139.753 60.9884 141.931 60.3394 140.301C60.6214 139.284 60.8864 138.253 61.1894 137.239C61.6934 135.552 62.1794 133.806 62.7204 132.136C63.8054 128.784 65.1464 125.454 66.4634 122.184L66.2934 121.674C68.2054 115.199 73.4244 99.0759 73.7784 93.6049C73.9314 91.2499 73.6214 88.7089 72.5874 86.5449C73.7984 87.0449 74.4044 88.3409 75.1384 89.2669Z" fill="#10304A"/>
<path d="M88.9184 46.9079C88.6974 47.1159 88.5914 47.5579 88.0674 47.7589C87.1764 48.0989 86.0024 47.4189 85.6864 48.6949C85.4204 49.7629 84.8084 56.2749 85.5154 58.4759C84.3794 58.0339 85.0944 54.2199 84.3254 54.7339C84.5974 53.6549 84.8324 51.8929 83.9844 50.9909C84.4784 51.1309 84.4684 49.4799 84.6654 48.2689C84.7134 47.9769 84.2364 47.9629 84.7504 47.5889C87.7104 47.9829 87.0294 47.3439 85.3454 45.8879C87.2814 46.4799 88.9114 46.1729 88.9184 46.9079Z" fill="#141022"/>
<path d="M93.6812 82.462C93.7462 82.513 94.4912 82.69 95.0422 83.398C92.2932 87.185 94.2492 88.838 94.0212 90.032C93.8782 90.781 92.1772 91.152 93.3412 92.839C92.7282 92.394 84.9852 86.793 84.6652 87.31C85.2602 89.406 89.4382 96.408 91.2992 96.922C90.7522 97.677 92.6262 97.504 94.3612 98.793C93.9502 98.882 93.6812 98.572 93.3412 98.453C92.0412 97.997 90.7072 97.599 89.4282 97.092C86.2472 95.833 83.1512 94.275 79.9022 93.179C79.1842 92.938 78.3812 92.363 78.0302 93.009C77.1492 91.716 76.1122 90.495 75.1382 89.267C74.4072 88.341 73.7982 87.045 72.5872 86.545C72.3722 86.099 70.5902 83.527 70.2902 83.483C70.1782 83.466 68.6332 84.238 68.1642 84.333C68.0112 83.558 67.6812 75.988 67.8242 75.573C68.6612 74.906 69.5962 74.358 70.3752 73.616C69.7732 74.44 73.3012 78.727 74.0332 79.4C78.2582 83.292 86.8152 84.881 92.4052 85.354C93.0412 84.548 94.3922 83.129 93.6812 82.462Z" fill="#0D0F19"/>
<path d="M98.1044 100.154L95.2124 99.474L94.8724 99.133C94.8724 98.929 94.6784 99.028 94.3614 98.793C92.6264 97.504 90.7524 97.677 91.2994 96.922C93.5964 97.555 92.9834 95.901 93.3414 95.136C93.6474 94.483 94.2394 94.156 94.0214 93.52C95.6074 95.452 96.8524 96.33 98.1044 100.154Z" fill="#141022"/>
<path d="M34.8252 51.1609C34.6412 50.3339 33.4132 47.7659 33.4642 46.9079C33.4882 46.5199 33.3552 46.3609 33.7192 46.0579C34.0902 45.7519 42.5922 42.6549 42.8202 43.0809C40.7312 45.1119 40.1492 47.5749 39.2482 50.2259C38.5602 50.6679 37.4792 47.6299 34.8252 51.1609Z" fill="#0D0F19"/>
<path d="M93.341 92.839C93.368 92.88 93.78 93.224 94.021 93.52C94.239 94.156 93.647 94.483 93.341 95.136C92.983 95.901 93.596 97.555 91.299 96.922C89.438 96.408 85.26 89.406 84.665 87.31C84.985 86.793 92.728 92.394 93.341 92.839Z" fill="#2E1535"/>
<path d="M92.4901 81.612C91.9081 82.302 89.7441 80.856 87.5571 80.676L89.9381 75.573C89.7001 75.032 89.4721 74.508 89.2581 73.957C92.6641 77.869 88.2031 78.107 92.4901 81.612Z" fill="#141022"/>
<path d="M84.6651 48.269C84.4681 49.48 84.4781 51.131 83.9841 50.991C83.9641 50.967 83.5011 50.664 83.4741 50.651C83.7391 49.974 83.9541 48.354 84.6651 48.269Z" fill="#00588E"/>
<path d="M63.5711 27.175C65.5711 27.294 67.4121 27.798 69.3551 28.196C70.1371 29.666 66.4901 28.233 64.7611 27.941C64.5981 28.23 65.8941 31.265 66.1221 31.768C66.4521 32.5 67.6131 34.687 67.9941 35.256C70.3241 38.722 74.9451 41.359 78.7111 43.166C78.3881 44.057 79.6091 45.813 79.9021 47.164C80.1501 48.317 80.0821 49.902 80.4121 51.076C79.4871 52.893 80.0341 55.115 79.5611 57.03C79.4531 57.462 77.7921 61.361 77.5201 60.177C78.7861 52.954 77.8501 52.607 77.3501 47.419C77.3061 46.959 77.7651 45.578 77.3501 43.761C76.9661 43.094 69.6301 41.825 65.7821 35.17C64.6901 33.282 64.1151 30.506 62.8051 28.366C62.3531 28.386 63.5471 30.332 59.9981 35.681C54.8401 40.954 50.7411 41.846 43.7521 43.336C39.6191 48.235 40.2791 55.108 40.0951 55.839C40.0881 55.867 39.8131 56.2 39.7551 56.265C39.7481 56.275 39.5641 56.227 39.5851 56.435C39.5951 56.265 39.4481 53.308 39.4141 53.032C38.8841 48.905 36.5021 49.133 35.5021 50.821C35.2601 51.229 35.2571 51.838 34.9911 52.012C34.9131 51.702 34.8861 51.447 34.8211 51.161C37.4751 47.63 38.5571 50.668 39.2441 50.226C40.1461 47.575 40.7281 45.112 42.8171 43.081C42.5921 42.655 34.0861 45.752 33.7161 46.058C33.3521 46.361 33.4841 46.52 33.4601 46.908L30.9091 47.419C26.2341 46.52 26.7381 40.257 29.9731 37.892C31.0211 37.127 32.4331 36.814 33.6311 36.361C33.8521 36.276 34.8551 36.259 35.3321 36.021C36.1521 35.609 36.0561 35.344 36.5231 34.66C41.0611 31.741 46.0931 29.594 51.3221 28.366C52.2141 28.155 53.1391 27.828 54.0441 27.685C54.0581 28.808 52.8471 28.162 52.7681 28.196C52.5061 28.311 50.7241 29.996 50.0471 30.407C48.5561 31.316 41.9561 34.504 42.4771 36.446C42.8171 37.719 49.1111 41.611 56.7661 36.531C58.9231 35.099 60.0901 33.963 61.4441 31.768C61.4541 31.751 61.7201 32.139 61.8701 31.853C62.2341 31.156 62.4211 28.798 62.2101 28.026C62.0801 27.549 62.2681 27.403 62.1251 27.345L59.1481 27.175C60.4511 27.124 62.2911 27.1 63.5711 27.175Z" fill="#141022"/>
<path d="M69.3552 28.196C70.6072 28.451 72.4782 29.196 73.4372 29.216C76.7552 30.877 79.6982 32.905 82.6242 35.17C83.0622 36.001 83.9782 36.089 84.1552 36.191C84.8452 36.589 85.3662 36.701 85.6862 36.872C87.1722 37.664 89.4962 38.423 90.4492 39.934C90.1122 40.451 91.4832 41.846 90.3642 42.145C85.1822 40.26 74.9112 39.396 70.9712 36.361C68.4902 34.453 66.8442 30.486 66.1222 31.768C65.8942 31.265 64.5982 28.23 64.7612 27.941C66.4902 28.233 70.1372 29.666 69.3552 28.196Z" fill="#2E1535"/>
<path d="M90.4491 39.934C91.7991 42.074 90.6531 45.279 88.9181 46.908C88.9111 46.173 87.2811 46.48 85.3451 45.888C83.9711 45.466 80.1231 43.843 78.7111 43.166C74.9451 41.359 70.3241 38.722 67.9941 35.256C67.6131 34.687 66.4561 32.5 66.1221 31.768C66.8441 30.486 68.4901 34.453 70.9711 36.361C74.9111 39.396 85.1821 40.26 90.3641 42.145C91.4831 41.846 90.1121 40.451 90.4491 39.934Z" fill="#2E1535"/>
<path d="M59.1509 27.175L62.1279 27.345C62.2709 27.403 62.0839 27.549 62.2129 28.026C60.1409 26.767 49.3489 35.4941 49.2839 36.2761C49.2369 36.8441 51.3219 37.1811 51.7509 37.2121C54.1499 37.3891 55.4489 36.395 56.7699 36.531C49.1179 41.611 42.8199 37.719 42.4799 36.446C41.9589 34.504 48.5559 31.316 50.0499 30.407C50.7269 29.996 52.5099 28.311 52.7719 28.196C52.8499 28.162 54.0609 28.808 54.0479 27.685C55.7049 27.423 57.4739 27.24 59.1509 27.175Z" fill="#2E1535"/>
<path d="M62.2101 28.0259C62.4211 28.7979 62.2341 31.1559 61.8701 31.8529C61.7201 32.1389 61.4541 31.7509 61.4441 31.7679C60.0901 33.9629 58.9231 35.0989 56.7661 36.5309C55.4461 36.3949 54.1461 37.389 51.7481 37.212C51.3191 37.181 49.2331 36.844 49.2811 36.276C49.3461 35.494 60.1341 26.7669 62.2101 28.0259Z" fill="#2E1535"/>
<path d="M85.3451 45.888C87.0291 47.344 87.7101 47.983 84.7501 47.589C84.2361 47.963 84.7131 47.977 84.6651 48.269C83.9541 48.354 83.7391 49.974 83.4741 50.651C80.3951 49.201 80.5551 51.981 80.2421 53.883C79.8711 56.135 79.9221 56.288 79.2211 58.646C79.1671 58.823 78.2141 59.997 78.2011 61.028C78.1601 61.487 78.3841 62.147 78.3711 63.239C77.9111 63.423 77.9761 61.576 77.7751 61.538C77.0441 63.988 76.0781 64.696 77.8601 66.131V66.301C77.4151 65.91 76.7041 65.094 76.3291 65.281C76.8971 63.767 77.2381 61.78 77.5201 60.177C77.7921 61.361 79.4531 57.462 79.5611 57.03C80.0341 55.115 79.4871 52.893 80.4121 51.076C80.0821 49.902 80.1501 48.317 79.9021 47.164C79.6091 45.813 78.3881 44.057 78.7111 43.166C80.1231 43.843 83.9711 45.466 85.3451 45.888Z" fill="#0D0F19"/>
<path d="M85.6863 36.872C85.3663 36.701 84.8453 36.589 84.1553 36.191C84.1243 36.014 84.2193 35.803 84.3253 35.681C85.3593 34.487 85.5493 34.674 86.1963 32.959C87.6933 28.989 86.6113 24.443 84.3253 20.966C80.4633 16.897 80.1913 13.869 73.1823 13.396C67.6673 9.05499 60.2873 7.17599 54.0443 11.184C50.6933 10.191 47.0493 11.701 44.7733 14.246C41.5723 14.012 37.8603 15.515 37.7133 19.095C31.8923 22.061 31.0043 30.571 34.9913 35.341C35.1453 35.521 35.1963 35.82 35.3323 36.021C34.8553 36.259 33.8523 36.276 33.6313 36.361C29.5553 31.438 27.0713 18.186 36.7783 18.839C37.6793 13.634 44.2123 13.62 48.1753 10.844C52.0103 9.77199 57.3653 8.18699 61.2743 8.29599C66.7143 8.44599 81.8343 12.95 83.8993 19.013C91.7893 18.822 91.1163 32.316 85.6863 36.875V36.872Z" fill="#FAFAFB"/>
<path d="M49.9654 24.623C49.5024 26.345 49.8394 27.444 51.3264 28.366C46.0974 29.594 41.0654 31.741 36.5264 34.66C39.1804 30.775 38.7994 30.676 42.8204 27.685C43.2394 27.376 44.1034 27.032 44.8624 26.495C46.5804 25.892 48.1924 25.093 49.9654 24.623Z" fill="#018CC3"/>
<path d="M61.3593 23.603C58.2533 23.902 60.1513 23.783 59.8283 26.58C61.9893 26.988 64.6193 26.638 63.5713 27.175C62.2913 27.1 60.4513 27.124 59.1483 27.175C57.4703 27.24 55.7013 27.423 54.0443 27.685C53.1393 27.828 52.2143 28.155 51.3223 28.366C49.8363 27.444 49.4993 26.345 49.9623 24.623C53.7183 23.627 57.4943 23.419 61.3593 23.603Z" fill="#14ACDE"/>
<path d="M70.2053 25.134C71.0933 26.576 70.1203 27.757 70.2053 27.941C71.2503 28.448 72.3963 28.696 73.4373 29.216C72.4783 29.196 70.6073 28.451 69.3553 28.196C67.4153 27.798 65.5713 27.294 63.5713 27.175C64.6193 26.638 61.9893 26.988 59.8283 26.58C60.1513 23.783 58.2533 23.902 61.3593 23.603C65.0923 23.78 66.6463 24.042 70.2053 25.134Z" fill="#31BCDE"/>
<path d="M42.8201 25.814C44.3611 26.549 43.4701 26.699 42.8201 27.685C38.7991 30.676 39.1831 30.771 36.5261 34.66C36.0601 35.344 36.1551 35.609 35.3351 36.021C35.1991 35.82 35.1481 35.521 34.9951 35.341C36.2911 30.975 39.0031 28.101 42.8201 25.814Z" fill="#D6AA63"/>
<path d="M54.0486 11.184C56.2156 11.827 59.6076 14.709 61.7886 15.777C68.5966 19.115 72.4066 17.979 78.8846 24.198C80.0556 25.971 85.6146 31.316 86.0296 32.023C86.0396 32.044 85.7716 32.163 85.8596 32.449C84.9446 32.513 83.3696 31.741 83.3076 32.789C81.9266 29.584 79.3206 27.342 76.5036 25.474C68.1096 19.908 57.9436 19.915 48.6046 23.092C46.5566 23.79 44.6816 24.702 42.8206 25.814C39.0036 28.101 36.2916 30.975 34.9956 35.341C31.0076 30.571 31.8956 22.061 37.7176 19.095C37.8636 15.515 41.5756 14.012 44.7766 14.246C47.0536 11.701 50.6966 10.191 54.0486 11.184Z" fill="url(#paint2_linear_79_488)"/>
<path d="M86.1964 32.959C86.2644 32.53 85.8664 32.479 85.8564 32.449C85.7674 32.163 86.0364 32.044 86.0264 32.023C85.6114 31.316 80.0514 25.971 78.8814 24.198C72.4034 17.979 68.5924 19.115 61.7844 15.777C59.6044 14.709 56.2124 11.827 54.0444 11.184C60.2874 7.17599 67.6644 9.05499 73.1824 13.396C80.1914 13.869 80.4634 16.897 84.3254 20.966C86.6114 24.443 87.6934 28.989 86.1964 32.959Z" fill="#00588E"/>
<path d="M76.4992 25.474C79.3162 27.342 81.9232 29.584 83.3042 32.789C83.6032 33.486 83.7532 35.133 84.3252 35.681C84.2192 35.803 84.1242 36.014 84.1552 36.191C83.9782 36.089 83.0622 36.001 82.6242 35.17C81.8752 33.762 80.9942 32.384 80.0722 31.088C80.0112 31.003 79.8572 30.424 79.0512 29.302C77.7582 27.498 74.9242 25.358 76.4992 25.474Z" fill="#F1CF38"/>
<path d="M85.8562 32.449C85.8662 32.479 86.2642 32.53 86.1962 32.959C85.5492 34.674 85.3592 34.487 84.3252 35.681C83.7532 35.133 83.6032 33.486 83.3042 32.789C83.3652 31.741 84.9402 32.513 85.8562 32.449Z" fill="#10304A"/>
<path d="M80.0725 31.088C80.9945 32.384 81.8755 33.762 82.6245 35.17C79.6985 32.905 76.7555 30.877 73.4375 29.216C74.6695 29.244 75.0915 27.893 74.4585 26.835C77.2215 28.26 77.8505 28.852 80.0725 31.088Z" fill="#7D9EBA"/>
<path d="M76.4994 25.474C74.9244 25.358 77.7584 27.498 79.0514 29.302C79.8574 30.424 80.0114 31.003 80.0724 31.088C77.8504 28.852 77.2214 28.26 74.4584 26.835C72.8524 26.008 71.9234 25.661 70.2054 25.134C66.6464 24.042 65.0924 23.78 61.3594 23.603C57.4944 23.419 53.7184 23.627 49.9624 24.623C48.1894 25.093 46.5764 25.892 44.8584 26.495C46.2504 25.511 49.4004 23.405 48.6014 23.092C57.9404 19.915 68.1064 19.908 76.4994 25.474Z" fill="#FAFAFB"/>
<path d="M44.8623 26.495C44.1033 27.032 43.2393 27.376 42.8203 27.685C43.4703 26.699 44.3613 26.549 42.8203 25.814C44.6783 24.702 46.5563 23.79 48.6043 23.092C49.4043 23.405 46.2533 25.511 44.8623 26.495Z" fill="#C8BD9F"/>
<path d="M74.4585 26.835C75.0915 27.893 74.6695 29.244 73.4375 29.216C72.3965 28.696 71.2505 28.448 70.2055 27.941C70.1205 27.757 71.0935 26.576 70.2055 25.134C71.9235 25.661 72.8525 26.008 74.4585 26.835Z" fill="#81B0D1"/>
<path d="M85.5154 58.4759C86.5504 61.6909 89.7004 62.6979 87.3874 70.6389C88.0744 71.7179 88.7884 72.7519 89.2584 73.9569C89.4724 74.5079 89.7004 75.0319 89.9384 75.5729L87.5574 80.6759C89.7444 80.8559 91.9084 82.3019 92.4904 81.6119C92.8474 81.9039 93.2934 82.1629 93.6814 82.4619C94.3924 83.1289 93.0414 84.5479 92.4054 85.3539C86.8154 84.8809 78.2624 83.2919 74.0334 79.3999C73.3014 78.7269 69.7734 74.4399 70.3754 73.6159C72.8524 71.2519 75.1044 68.5469 76.3294 65.2809C76.7044 65.0939 77.4154 65.9099 77.8604 66.3009C78.3334 66.7159 78.6054 67.3659 78.8814 67.2369C78.8474 65.8729 78.8504 64.5999 79.0514 63.2389C79.0274 63.7119 78.9394 68.1929 79.0514 68.4279C79.2284 68.7989 79.6874 67.9309 79.7324 68.3429C79.3274 69.0639 78.5314 70.2509 78.5414 71.0649C78.5484 71.8099 79.0954 72.5339 79.3914 72.9359C81.3414 75.5829 83.2124 73.5519 84.8354 71.6599C84.8694 71.2929 84.0354 70.3909 83.8144 70.0439C83.5014 69.5539 82.1274 67.6619 81.7734 67.4919C81.2524 67.2399 81.2694 67.8319 80.4124 67.8319H80.0724C80.0724 67.8319 79.7724 67.7979 79.9024 67.5769C80.2084 67.0529 81.2184 66.6179 81.4334 66.3009C81.3514 67.7579 82.4064 66.7159 81.7734 65.1109C82.1344 63.9329 82.6034 61.3509 82.1134 60.3469C82.0894 60.2999 81.8924 60.1839 81.4334 59.4969C81.4194 59.4729 81.4704 59.3099 81.2634 59.3269C82.3654 58.3769 83.9714 56.1419 84.3254 54.7339C85.0944 54.2199 84.3794 58.0339 85.5154 58.4759Z" fill="#2E1535"/>
<path d="M78.1154 71.575C78.6974 71.602 78.5654 74.63 81.9434 74.552C81.6234 76.127 79.2284 76.236 78.3714 75.232C77.9254 74.708 77.1294 71.527 78.1154 71.575Z" fill="#141022"/>
<path d="M81.7736 65.1109C81.7566 65.1619 81.7906 65.2299 81.7736 65.2809C81.0866 63.8109 82.4706 62.6539 81.6036 61.1979C81.7156 60.7079 81.9026 60.7179 82.1136 60.3469C82.6036 61.3509 82.1346 63.9329 81.7736 65.1109Z" fill="#DBEAF9"/>
<path d="M81.4333 66.301C81.4633 66.257 81.7013 65.495 81.7733 65.281C81.7903 65.23 81.7563 65.162 81.7733 65.111C82.4063 66.716 81.3513 67.758 81.4333 66.301Z" fill="#2E1535"/>
<path d="M83.8143 70.0439C84.0353 70.3909 84.8693 71.2929 84.8353 71.6599C83.2123 73.5519 81.3413 75.5829 79.3913 72.9359C79.3063 71.5779 80.3203 70.6119 80.9223 69.5339L82.0283 72.0849L83.8143 70.0439Z" fill="#14ACDE"/>
<path d="M83.8139 70.0439L82.0279 72.0849L80.9219 69.5339C81.1949 69.0469 81.6609 68.0469 81.7729 67.4919C82.1269 67.6619 83.5009 69.5539 83.8139 70.0439Z" fill="#C3E3F2"/>
<path d="M81.773 67.4919C81.661 68.0469 81.195 69.0469 80.922 69.5339C80.32 70.6119 79.306 71.5779 79.391 72.9359C79.095 72.5339 78.548 71.8099 78.541 71.0649C79.347 70.6499 80.946 68.8529 80.412 67.8319C81.269 67.8319 81.252 67.2399 81.773 67.4919Z" fill="#B87B46"/>
<path d="M80.4121 67.8319C80.9461 68.8529 79.3471 70.6499 78.5411 71.0649C78.5311 70.2509 79.3271 69.0639 79.7321 68.3429C79.7451 68.3159 79.9251 68.0739 80.0721 67.8319H80.4121Z" fill="#FAFAFB"/>
<path d="M78.3712 63.239C78.3542 64.556 78.5372 66.138 77.8602 66.131C76.0782 64.696 77.0442 63.988 77.7752 61.538C77.9762 61.576 77.9112 63.423 78.3712 63.239Z" fill="#136D9C"/>
<path d="M80.5822 54.0529C80.2592 55.7609 80.1332 56.1079 81.4332 57.2849C80.9672 58.7309 80.4052 57.8569 80.0722 57.9659C79.6572 58.1019 79.6912 58.6189 79.5612 58.9859L79.2212 58.6459C79.9222 56.2879 79.8712 56.1349 80.2422 53.8829L80.5822 54.0529Z" fill="#FAFAFB"/>
<path d="M79.0514 61.538C79.0074 62.096 79.0784 62.678 79.0514 63.239C78.8504 64.6 78.8473 65.873 78.8813 67.237C78.6053 67.366 78.3334 66.716 77.8604 66.301V66.131C78.5374 66.138 78.3544 64.556 78.3714 63.239C78.3844 62.147 78.1603 61.487 78.2013 61.028L79.0514 61.538Z" fill="#61464B"/>
<path d="M79.5612 58.986C79.3952 59.463 79.2992 60.017 79.2212 60.517C79.1702 60.848 79.0722 61.28 79.0512 61.538L78.2012 61.028C78.2142 59.997 79.1672 58.823 79.2212 58.646L79.5612 58.986Z" fill="#8AC6E8"/>
<path d="M81.7732 65.281C81.7012 65.495 81.4632 66.257 81.4332 66.301C81.2182 66.618 80.2082 67.053 79.9022 67.577C79.7722 67.798 80.0792 67.819 80.0722 67.832C79.9252 68.074 79.7452 68.316 79.7322 68.343C79.6872 67.931 79.2282 68.799 79.0512 68.428C78.9392 68.193 79.0272 63.712 79.0512 63.239C79.1432 62.627 79.0652 61.324 79.9022 61.368C80.0042 61.79 81.0552 63.181 81.3482 63.069C81.7222 62.44 81.4432 61.889 81.6032 61.198C82.4702 62.654 81.0862 63.811 81.7732 65.281Z" fill="#00588E"/>
<path d="M81.4331 59.4969C81.8921 60.1839 82.0891 60.2999 82.1131 60.3469C81.9021 60.7179 81.7151 60.7079 81.6031 61.1979C81.4431 61.8889 81.7221 62.4399 81.3481 63.0689C81.0551 63.1809 80.0041 61.7899 79.9021 61.3679C79.6911 60.5109 80.5621 59.6429 81.4331 59.4969Z" fill="#136D9C"/>
<path d="M81.2634 59.3269C81.4704 59.3099 81.4194 59.4729 81.4334 59.4969C80.5624 59.6429 79.6914 60.5109 79.9024 61.3679C79.0654 61.3239 79.1434 62.6269 79.0514 63.2389C79.0784 62.6779 79.0074 62.0959 79.0514 61.5379C79.0724 61.2799 79.1704 60.8479 79.2214 60.5169C79.6194 60.5789 79.5444 60.3579 79.5614 60.3469C79.7764 60.2349 81.1884 59.3909 81.2634 59.3269Z" fill="#21546A"/>
<path d="M79.5612 60.3469C79.5612 60.3469 79.6192 60.5789 79.2212 60.5169C79.2992 60.0169 79.3952 59.4629 79.5612 58.9859C79.6912 58.6189 79.6572 58.1019 80.0722 57.9659L79.5612 60.3469Z" fill="#211212"/>
<path d="M35.1653 54.223C35.4343 56.346 37.0502 58.568 38.7372 59.837C38.7272 59.891 38.7512 59.953 38.7372 60.007C38.7202 60.089 38.2272 60.599 38.0572 61.538C37.9112 62.334 37.7753 63.202 37.8873 64.005C37.9753 64.627 40.8372 71.265 41.1192 70.469C40.8162 70.156 40.9733 69.309 40.9493 68.513C40.8943 66.767 40.5983 64.957 40.2683 63.239C41.1163 63.447 41.9872 63.563 41.7992 62.389C43.9502 68.782 44.3143 70.823 50.6453 76.168C50.5203 78.111 50.3022 80.183 50.3053 82.122C49.9683 82.146 49.7512 82.5371 49.6252 82.632C48.7272 83.296 46.8312 84.687 46.2222 85.524C44.3993 84.874 41.8403 89.342 40.9493 90.968C40.1603 90.512 39.6593 91.278 39.5883 91.308C36.5293 92.679 33.5182 94.135 30.4872 95.561C30.0852 95.799 30.3853 96.15 30.0623 96.412C30.1333 95.343 26.6873 96.987 25.8092 97.262C24.6493 97.626 23.4713 97.711 22.4062 98.283C22.8593 97.058 27.2962 92.6931 27.3403 92.244C27.3983 91.659 25.8842 89.974 25.8092 89.522C25.6562 88.6101 26.4963 86.824 26.3193 85.779C25.9523 83.599 23.0833 85.579 29.5513 78.635C27.6093 72.429 29.9732 72.129 32.6132 66.727C29.5342 61.161 31.5042 57.993 34.9952 53.373C35.0052 53.414 35.2573 53.274 35.1653 54.223Z" fill="url(#paint3_linear_79_488)"/>
<path d="M38.908 58.9861C38.846 59.2621 38.799 59.5511 38.737 59.8371C37.05 58.5681 35.434 56.3461 35.165 54.2231C35.757 53.8181 35.645 54.9381 35.675 54.9891C36.298 56.0161 37.38 56.9081 38.057 57.8811C38.111 57.9591 38.496 59.8881 38.908 58.9861Z" fill="#B35B50"/>
<path d="M39.5883 75.3171C39.5133 76.7061 38.7103 76.6171 41.5443 78.0391C41.6673 78.0291 42.6843 76.2841 42.3103 75.9981C42.8583 75.8241 43.0523 74.6571 43.6713 74.6371C44.1913 75.6071 43.3343 78.0871 42.2253 78.3791C39.5273 79.0911 38.3703 76.1511 39.2483 74.6371C39.6763 74.5521 39.6123 74.8681 39.5883 75.3171Z" fill="#D8C73B"/>
<path d="M42.48 73.9571L41.119 75.8281C40.364 75.6641 40.2 75.3921 39.588 75.3171C39.612 74.8681 39.676 74.5521 39.248 74.6371C39.35 74.4601 40.112 74.5551 41.204 71.7451C41.65 72.8851 41.674 73.1201 42.48 73.9571Z" fill="#B29B51"/>
<path d="M42.4801 73.9572C42.5281 74.0082 43.4331 74.1912 43.6711 74.6372C43.0521 74.6572 42.8581 75.8242 42.3101 75.9982C41.8061 76.1582 41.2691 75.8582 41.1191 75.8282L42.4801 73.9572Z" fill="#C3B167"/>
<path d="M41.1191 75.8281C41.2691 75.8581 41.8061 76.1581 42.3101 75.9981C42.6841 76.2841 41.6671 78.0291 41.5441 78.0391C38.7101 76.6171 39.5131 76.7061 39.5881 75.3171C40.2001 75.3921 40.3641 75.6641 41.1191 75.8281Z" fill="#D7AE2A"/>
<path d="M48.2637 109.847C48.6377 111.041 49.0057 114.883 50.1347 118.013C46.5657 117.975 43.3097 114.066 39.9277 112.739L40.0127 109.507C40.9657 109.612 45.9597 112.8 46.3067 112.739C46.3617 112.729 46.4607 112.559 46.5627 112.484C46.7357 111.443 38.3327 108.656 40.5237 108.486C41.0877 108.442 43.4727 111.014 42.9897 106.955C44.5957 107.602 47.3077 108.636 48.2637 109.847Z" fill="#F1CF38"/>
<path d="M39.9278 112.739C43.3098 114.066 46.5658 117.975 50.1348 118.013C50.4508 118.894 51.2678 120.017 51.4958 120.564C51.0128 120.772 49.4678 119.472 48.3488 118.863C45.4128 117.268 42.2318 116.114 39.2478 114.61C39.1388 112.838 39.2038 110.936 39.4178 109.167C39.4418 110.187 39.7508 111.269 39.5878 112.314L39.9278 112.739Z" fill="#F6E5A4"/>
<path d="M42.9901 106.959C43.4731 111.018 41.0881 108.446 40.5241 108.49C38.3331 108.66 46.7361 111.446 46.5631 112.487C46.4611 112.562 46.3621 112.732 46.3071 112.743C45.9601 112.804 40.9661 109.619 40.0131 109.51L39.9281 112.743L39.5881 112.317C39.7511 111.273 39.4421 110.191 39.4181 109.17C39.4041 108.616 39.2611 105.751 39.6731 105.598C40.7891 106.023 41.8811 106.513 42.9901 106.959Z" fill="#F1CF38"/>
<path d="M51.4959 120.564C51.6149 120.85 51.9789 121.544 51.7509 121.755L51.4959 121.585C47.9239 118.989 42.5339 117.23 39.7579 115.801C38.8259 115.179 39.2849 115.233 39.2479 114.61C42.2319 116.114 45.4089 117.264 48.3489 118.863C49.4679 119.472 51.0129 120.772 51.4959 120.564Z" fill="#902930"/>
<path d="M85.515 113.59C85.029 113.831 78.078 119.731 77.18 120.564C75.938 118.312 74.495 116.111 73.437 113.76C74.489 113.409 75.281 112.538 75.394 112.569C75.659 112.641 77.503 117.475 77.775 117.502L84.155 112.059C84.6 112.579 85.094 113.049 85.515 113.59Z" fill="#FAFAFB"/>
<path d="M80.7518 107.639L76.3288 111.977L77.7748 111.212C80.0958 113.192 78.0268 110.926 78.0298 110.786C78.0298 110.589 80.4898 108.724 81.2628 108.49H81.4328C82.1978 109.776 83.1848 110.936 84.1548 112.062L77.7748 117.506C77.5028 117.479 75.6588 112.644 75.3938 112.572C75.2808 112.542 74.4888 113.413 73.4368 113.763C73.2568 113.362 72.4708 112.579 72.7568 112.062C75.1088 110.361 77.4618 108.66 79.8168 106.959C80.4218 106.639 80.4628 107.18 80.7518 107.639Z" fill="#31BCDE"/>
<path d="M81.0916 107.979C81.1466 108.167 81.3306 108.248 81.2626 108.49C80.4896 108.724 78.0336 110.589 78.0296 110.786C78.0296 110.926 80.0956 113.192 77.7746 111.212L76.3286 111.977L80.7516 107.639C80.7856 107.694 81.0066 107.969 81.0916 107.979Z" fill="#A0D6DC"/>
<path d="M80.3269 112.059C81.0379 112.555 77.9049 114.519 77.6899 114.185C77.8429 113.865 80.1869 111.963 80.3269 112.059Z" fill="#C3E3F2"/>
<path d="M54.5581 89.7769C54.7621 90.0629 55.8271 91.3049 55.7491 91.563C54.3851 92.509 49.6381 96.3809 49.1141 97.3469C48.5531 98.3779 49.4581 98.0989 49.1141 99.1329C48.5531 99.7489 47.4811 100.831 47.5831 101.515C47.5461 101.481 47.1241 101.634 46.9031 101.26C46.8651 97.0649 44.5761 94.5399 46.2221 89.3519C46.5861 88.2019 48.4171 85.0649 49.2841 83.9079L49.6251 82.632C49.7511 82.537 49.9681 82.1459 50.3051 82.1219C50.3051 82.5749 50.0431 82.9389 50.1351 83.5679C51.0811 85.9629 53.0851 87.7119 54.5581 89.7769Z" fill="#E2D1C6"/>
<path d="M54.558 98.6229C55.028 100.406 55.351 102.264 55.749 104.067C56.018 105.285 57.106 109.619 57.11 110.021C57.11 110.293 57.168 110.579 57.025 110.701C53.765 107.772 50.836 104.458 47.583 101.515C47.481 100.831 48.553 99.7489 49.114 99.1329C50.053 98.1059 52.428 95.9079 53.537 95.0509C53.687 96.2889 54.245 97.4319 54.558 98.6229Z" fill="#C3E3F2"/>
<path d="M64.9319 94.71C65.8539 96.122 67.3469 98.844 68.1639 100.409C68.2149 100.505 67.7619 100.457 69.0139 102.025C68.2759 102.713 62.4109 106.921 61.9549 107.129C61.4749 107.347 61.6789 107.248 61.3589 106.959C62.2539 103.209 62.8289 99.45 63.4009 95.646C63.5949 94.159 62.9239 94.517 62.7199 93.009C62.7949 90.968 64.4139 93.921 64.9319 94.71Z" fill="#C3E3F2"/>
<path d="M59.6582 112.739C60.0872 111.44 60.4882 110.147 60.8492 108.827C62.2982 109.085 63.7372 107.313 64.8472 106.615C65.7722 106.033 71.3422 102.427 71.3962 103.978C71.3992 104.087 70.6102 105.928 70.5452 106.02C70.0282 106.751 62.1382 111.759 60.7642 113.25L59.6582 112.739Z" fill="#F2E9E3"/>
<path d="M47.5831 101.515C50.8361 104.458 53.7651 107.772 57.0251 110.701C57.1681 110.579 57.1101 110.293 57.1101 110.021H57.2801L58.6411 115.209H58.9811C59.2261 114.4 59.3961 113.542 59.6611 112.743L60.7671 113.253C62.1421 111.763 70.0321 106.755 70.5491 106.023C70.6131 105.931 71.4031 104.091 71.3991 103.982C71.3451 102.43 65.7751 106.037 64.8501 106.618C63.7411 107.316 62.3021 109.089 60.8521 108.83C61.0221 108.201 61.2101 107.598 61.3631 106.959C61.6821 107.248 61.4781 107.347 61.9581 107.129C62.4141 106.921 68.2791 102.713 69.0181 102.025C69.3551 101.712 69.9061 101.542 70.2091 101.09C68.7291 99.103 67.2281 97.191 65.6151 95.306C65.5751 95.258 65.7141 94.221 64.9351 94.71C64.4181 93.921 62.7981 90.968 62.7241 93.009C62.6931 92.795 62.6931 92.373 62.7241 92.159C62.7611 91.893 62.6721 91.533 62.7241 91.393C62.8771 90.985 67.3171 88.314 69.3581 85.779C67.5001 84.881 68.1881 84.439 68.1671 84.333C68.6371 84.238 70.1811 83.466 70.2941 83.483C70.5931 83.527 72.3761 86.099 72.5901 86.545C73.6241 88.709 73.9341 91.25 73.7811 93.605C73.4271 99.076 68.2081 115.199 66.2961 121.674L66.4661 122.184C65.1491 125.454 63.8091 128.784 62.7241 132.136C61.4171 131.697 59.5561 130.4 58.3011 130.775C58.3181 130.768 58.2391 130.469 58.3861 130.434C59.8761 130.091 62.7541 132.656 62.8941 130.86C62.9751 129.795 60.6011 130.479 59.4061 130.264C58.0861 130.026 56.2251 127.655 55.9191 129.584C53.6971 121.861 51.6701 113.995 48.4341 106.618C48.4581 106.496 48.7161 106.251 48.6041 105.683C48.5431 105.37 47.0491 103.516 46.0521 99.899C44.9331 95.837 43.5991 89.131 46.2221 85.524C46.8311 84.687 48.7271 83.296 49.6251 82.632L49.2841 83.908C48.4171 85.065 46.5861 88.202 46.2221 89.352C44.5721 94.54 46.8651 97.065 46.9031 101.26C47.1241 101.634 47.5461 101.481 47.5831 101.515Z" fill="#FAFAFB"/>
<path d="M59.6579 122.606C59.2329 122.49 59.3379 122.119 59.3179 122.095C59.7839 121.061 59.8349 119.037 59.9129 117.673C61.9849 117.499 69.5829 111.538 68.1639 114.015C67.8639 114.539 60.1379 122.238 59.6579 122.606Z" fill="#F2E9E3"/>
<path d="M59.321 122.095C59.342 122.119 59.236 122.49 59.661 122.606C59.015 123.099 57.841 123.368 57.025 124.137C55.262 122.16 53.752 117.55 52.687 117.758C52.503 116.557 51.516 115.148 52.602 115.631C53.027 115.822 58.995 121.694 59.321 122.095Z" fill="#E2D1C6"/>
<path d="M69.2702 108.827C69.8622 108.411 69.4162 110.514 69.3552 110.613C69.0552 111.106 60.9442 116.033 60.4242 115.971C57.8512 115.665 69.0382 109.201 69.2702 108.827Z" fill="#F2E9E3"/>
<path d="M69.0141 102.025C67.7621 100.457 68.2151 100.505 68.1641 100.409C67.3471 98.8439 65.8541 96.1219 64.9321 94.7099C65.7111 94.2209 65.5711 95.2579 65.6121 95.3059C67.2251 97.1909 68.7251 99.1029 70.2051 101.09C69.9021 101.542 69.3511 101.712 69.0141 102.025Z" fill="#DDE0E3"/>
<path d="M55.9191 97.262C55.3001 97.289 55.6641 94.833 55.4941 93.69C55.2211 93.53 53.8131 94.84 53.5371 95.051C52.4281 95.908 50.0531 98.106 49.1141 99.133C49.4581 98.099 48.5531 98.378 49.1141 97.347C49.6381 96.381 54.3851 92.509 55.7491 91.563C55.8271 91.305 54.7621 90.063 54.5581 89.777C57.8511 92.24 56.5621 93.003 56.5991 96.667C56.5551 96.837 56.0311 97.133 55.9191 97.262Z" fill="#FAFAFB"/>
<path d="M55.9191 97.2619C55.5001 97.7449 54.5581 98.1369 54.5581 98.6229C54.2451 97.4319 53.6871 96.2889 53.5371 95.0509C53.8131 94.8399 55.2211 93.5299 55.4941 93.6899C55.6641 94.8329 55.3001 97.2889 55.9191 97.2619Z" fill="#C0C3C9"/>
<path d="M58.4708 37.8919C55.5548 41.2609 51.0298 43.5669 46.6478 44.1869C46.2258 44.3629 46.5798 44.5199 46.5628 44.5269C45.6408 44.9999 44.4398 45.7889 43.8408 46.6529C42.5918 48.4599 43.1088 48.0989 44.0108 47.5889C44.3308 48.1569 43.6908 48.3099 43.8408 48.6949C44.1468 49.4839 47.5798 47.4429 51.7508 48.9499C52.3468 49.2289 52.4758 49.5999 52.5168 49.6299C50.2748 48.6809 45.3378 49.2389 45.2018 49.8849C45.2428 50.1439 45.8138 49.8919 47.2428 49.7999L47.5828 50.1409C46.9368 50.2899 45.4768 50.8449 44.9468 51.1609C42.4358 52.6619 42.8368 52.8389 45.2018 54.3929C43.0648 56.7679 43.9498 59.8439 45.5418 62.3039C48.4748 66.8359 50.0668 65.7739 53.5368 62.5589C54.2078 63.6339 59.0968 64.6549 60.5118 64.5999C60.3588 64.6779 59.8758 66.0159 58.8958 65.4509C58.6068 66.4819 57.4128 65.9879 57.7898 66.6419C56.6298 66.7849 55.4488 67.5229 54.5578 67.6619C53.5678 67.8189 52.7038 67.7749 51.7508 67.3219L51.4958 67.5769C52.4008 68.7439 53.4388 69.4309 53.5368 69.5339C54.0988 70.1049 54.5888 70.7519 55.2388 71.2349C59.2668 74.2289 61.8658 72.4599 55.6638 73.9569C54.6328 74.6229 57.4258 77.3959 58.0448 77.8689C59.2188 78.7639 60.6858 78.7199 59.8318 79.2299C59.5148 79.2949 59.0968 79.3929 59.2358 79.7399C56.8208 79.8389 54.8738 78.7669 52.5168 78.0389L52.1758 77.5289C51.8288 76.8999 51.1628 76.6039 50.6448 76.1679C44.3138 70.8229 43.9498 68.7819 41.7988 62.3889C41.6698 62.0079 41.6528 61.7829 41.6288 61.7079C41.4218 61.0789 41.2988 61.2289 41.2888 61.1979C41.2618 61.1129 41.3158 60.9429 41.2888 60.8579C40.7788 59.3299 40.1148 57.8569 39.7578 56.2649C39.8158 56.1999 40.0918 55.8669 40.0978 55.8389C40.2818 55.1109 39.6218 48.2349 43.7558 43.3359C50.7438 41.8459 54.8438 40.9539 60.0018 35.6809C59.5048 36.4329 59.0658 37.2049 58.4708 37.8919Z" fill="#B35B50"/>
<path d="M77.3499 47.419C77.8499 52.607 78.7859 52.954 77.5199 60.177C77.2379 61.78 76.897 63.767 76.329 65.281C75.104 68.547 72.852 71.252 70.375 73.616C69.596 74.358 68.6609 74.906 67.8239 75.573C67.6809 75.988 68.011 83.558 68.164 84.333C68.184 84.439 67.497 84.881 69.355 85.779C67.313 88.314 62.873 90.985 62.72 91.393C62.669 91.533 62.758 91.893 62.72 92.159C61.733 91.628 60.999 94.003 60.339 94.881C60.056 94.843 59.4269 94.843 59.1479 94.881C59.6309 91.186 61.526 87.967 63.06 84.674C63.465 83.81 67.48 76.508 66.888 76.168C66.626 76.321 66.388 76.535 66.122 76.678C66.541 75.736 65.7819 75.838 65.7819 75.743C65.7819 75.62 66.983 75.093 67.653 74.212C68.7559 72.766 71.2429 67.764 70.5449 66.046C70.3549 65.58 69.5139 65.24 69.1839 64.94C67.6839 63.583 65.7579 62.484 64.4209 60.773L64.676 60.517C65.493 61.225 66.708 62.059 67.653 62.559C70.311 63.961 74.084 65.628 76.329 62.474C77.551 60.759 79.044 52.873 75.819 53.543C76.101 53.022 73.764 51.052 73.012 50.651C68.661 48.32 64.979 50.865 64.591 55.584C64.523 55.557 64.129 55.503 63.2299 55.074C61.9269 48.688 66.4629 50.94 67.0579 47.759C71.6819 47.31 74.999 49.759 75.734 49.97C76.942 50.314 76.326 49.8 76.329 49.63C76.35 48.725 75.911 48.579 75.649 47.759C75.285 46.626 74.88 46.687 75.819 45.547C76.717 46.636 76.9079 47.5 77.3499 47.419Z" fill="#DD8262"/>
<path d="M65.782 35.17C67.66 40.924 72.696 41.761 75.819 45.547C74.88 46.687 75.285 46.626 75.649 47.759C74.856 46.987 74.121 45.928 73.012 45.547C71.43 45.003 61.955 44.908 64.081 48.099C64.061 48.099 64.193 48.507 63.826 48.439C61.706 46.395 65.537 46.238 61.87 44.612L59.998 40.019C59.638 39.627 57.964 41.955 58.467 37.892C59.063 37.205 59.502 36.433 59.998 35.681C63.547 30.332 62.353 28.386 62.805 28.366C64.115 30.506 64.69 33.282 65.782 35.17Z" fill="#F2A981"/>
<path d="M39.418 53.032C39.452 53.308 39.598 56.265 39.588 56.435C39.574 56.687 39.346 57.578 39.248 58.136C39.214 58.33 38.955 58.772 38.908 58.986C38.496 59.888 38.111 57.959 38.057 57.881C37.38 56.908 36.298 56.016 35.675 54.989C35.645 54.938 35.757 53.818 35.165 54.223C35.257 53.274 35.005 53.414 34.995 53.373C34.906 53.026 35.083 52.362 34.995 52.012C35.26 51.838 35.264 51.229 35.505 50.821C35.937 50.045 38.047 50.916 38.482 51.331C39.139 51.957 38.805 53.073 39.418 53.032Z" fill="#953F3D"/>
<path d="M77.3502 47.4189C76.9082 47.4999 76.7172 46.6359 75.8192 45.5469C72.6962 41.7609 67.6602 40.9239 65.7822 35.1699C69.6302 41.8249 76.9662 43.0909 77.3502 43.7609C77.7652 45.5779 77.3062 46.9559 77.3502 47.4189Z" fill="#953F3D"/>
<path d="M39.4179 53.032C38.8049 53.073 39.1389 51.957 38.4819 51.331C38.0469 50.916 35.9369 50.045 35.5049 50.821C36.5059 49.133 38.8869 48.905 39.4179 53.032Z" fill="#B35B50"/>
<path d="M83.474 50.6509C83.501 50.6639 83.964 50.9669 83.984 50.9909C84.832 51.8929 84.597 53.6549 84.325 54.7339C83.971 56.1419 82.365 58.3769 81.263 59.3269C81.188 59.3909 79.776 60.2349 79.561 60.3469L80.072 57.9659C80.405 57.8569 80.967 58.7309 81.433 57.2849C81.603 56.7579 81.249 53.2639 82.538 53.5429C82.872 53.6139 82.851 56.8599 83.814 54.4779C84.9 51.7969 81.334 50.0789 80.582 54.0529L80.242 53.8829C80.555 51.9809 80.395 49.2009 83.474 50.6509Z" fill="#F2A981"/>
<path d="M52.1758 77.529C52.0638 78.22 52.4828 78.002 52.5168 78.039C55.7658 81.448 56.7798 82.755 57.8748 87.736C59.5418 87.365 61.1618 85.483 61.8728 85.014C62.3048 84.728 62.3998 84.582 63.0638 84.674C61.5288 87.967 59.6338 91.186 59.1508 94.881C58.4028 94.979 57.1058 94.993 58.3858 96.071C58.5248 96.187 61.9748 97.902 61.3628 96.922C61.3628 96.946 61.6078 96.844 61.5328 97.347C60.5258 98.276 59.6338 101.416 59.1508 103.046C57.9398 101.001 57.1168 103.961 55.7488 104.067C55.3508 102.264 55.0278 100.409 54.5578 98.623C54.5578 98.137 55.4998 97.745 55.9188 97.262C56.0308 97.133 56.5548 96.837 56.5988 96.667C56.5618 93.003 57.8508 92.24 54.5578 89.777C53.0848 87.715 51.0808 85.963 50.1348 83.568C50.0428 82.939 50.3048 82.575 50.3048 82.122C50.3018 80.183 50.5198 78.114 50.6448 76.168C51.1628 76.604 51.8288 76.9 52.1758 77.529Z" fill="#B35B50"/>
<path d="M63.2303 55.074C64.1293 55.503 64.5233 55.557 64.5913 55.584C64.6393 55.605 64.7143 55.564 64.7613 55.584C64.9113 55.642 65.4763 55.958 65.3573 56.265C67.7933 56.367 69.2423 56.816 71.9062 56.775C71.9132 57.415 69.6133 59.17 69.5253 59.582C69.0723 61.684 72.1652 63.512 74.6283 59.837C76.2882 60.603 74.3152 62.137 74.0332 63.409C74.0602 62.028 72.0592 62.984 70.6302 62.899C70.4772 62.889 69.2083 62.154 67.6533 62.559C66.7083 62.059 65.4933 61.225 64.6763 60.517L64.4212 60.773C65.7583 62.484 67.6842 63.583 69.1842 64.94C68.6263 66.227 70.1342 65.543 68.5042 66.642C67.2832 67.468 65.2113 67.761 63.7413 67.662C62.1083 66.689 60.1383 66.512 58.2973 66.642C58.1303 66.652 57.9543 66.621 57.7873 66.642C57.4093 65.988 58.6033 66.482 58.8933 65.451C59.8723 66.016 60.3563 64.678 60.5093 64.6C61.9853 63.845 64.9352 63.614 64.5062 62.049C62.2402 62.083 61.5263 63.413 58.9783 63.239L59.9983 62.814C58.8553 62.654 56.5623 61.729 57.2763 60.688C58.2773 63.045 59.3043 57.238 59.3183 54.223C61.6523 53.066 62.3943 54.676 63.2303 55.074Z" fill="#F2A981"/>
<path d="M64.0809 48.099C68.4159 47.528 73.0799 45.5 76.3289 49.63C76.3259 49.8 76.9419 50.314 75.7339 49.97C74.9989 49.759 71.6819 47.31 67.0579 47.759C66.4629 50.94 61.9269 48.688 63.2299 55.074C62.3939 54.676 61.6519 53.066 59.3179 54.223C58.4809 51.804 57.9879 50.212 55.5749 48.865C55.5449 48.514 55.2689 48.555 55.2349 48.099C55.2279 47.994 55.7659 46.799 55.5749 46.313C55.3439 45.728 49.0869 43.411 46.5589 44.527C46.5759 44.52 46.2219 44.363 46.6439 44.187C51.0259 43.567 55.5519 41.261 58.4669 37.892C57.9639 41.955 59.6379 39.627 59.9979 40.019L61.8699 44.612C65.5369 46.238 61.7059 46.395 63.8259 48.439C64.1929 48.507 64.0609 48.103 64.0809 48.099Z" fill="#F2A981"/>
<path d="M56.9399 59.157C55.9289 61.542 54.7379 60.16 53.7069 61.198C53.3199 61.589 53.1899 62.001 53.5369 62.559C50.0669 65.774 48.4749 66.836 45.5419 62.304C43.9499 59.844 43.0649 56.772 45.2019 54.393C48.1239 56.316 50.1929 55.867 48.6039 55.414L48.7739 55.244C50.0809 55.839 50.2509 55.431 51.1559 55.414C52.2819 55.394 53.8669 55.448 54.7279 54.734C55.4459 55.094 54.8399 54.495 54.3879 53.713C55.6709 53.72 56.7179 57.911 56.4289 59.242C56.4019 59.374 54.9119 61.154 56.9399 59.157Z" fill="url(#paint4_linear_79_488)"/>
<path d="M66.1219 76.6779C65.6089 76.9569 65.2109 77.3419 64.7609 77.6989C63.0229 78.6859 61.6889 78.8519 59.8279 79.2299C60.6819 78.7199 59.2159 78.7639 58.0419 77.8689C57.4229 77.3959 54.6289 74.6229 55.6599 73.9569C61.8629 72.4599 59.2629 74.2289 55.2349 71.2349C58.1369 72.6429 59.2599 73.4359 62.2099 71.7449C63.2169 71.1669 64.0329 70.1999 64.2509 70.0439C65.7959 68.9479 68.6469 67.1689 68.5039 66.6419C70.1339 65.5429 68.6259 66.2269 69.1839 64.9399C69.5139 65.2399 70.3549 65.5799 70.5449 66.0459C71.2429 67.7639 68.7559 72.7659 67.6529 74.2119C66.9829 75.0929 65.7819 75.6199 65.7819 75.7429C65.7819 75.8379 66.5409 75.7359 66.1219 76.6779Z" fill="#E7936E"/>
<path d="M55.239 48.0989C55.273 48.5549 55.548 48.5139 55.579 48.8649C57.991 50.2119 58.484 51.8039 59.321 54.2229C59.308 57.2379 58.28 63.0449 57.28 60.6879C58.692 58.8229 58.246 55.8499 57.11 53.9679C55.946 52.0389 58.069 56.4959 56.94 59.1569C54.912 61.1539 56.402 59.3739 56.429 59.2419C56.718 57.9109 55.671 53.7199 54.388 53.7129C52.802 50.9839 50.744 49.4019 47.583 50.1409L47.243 49.7999C48.186 49.7389 49.084 49.5249 50.05 49.6299C50.904 49.7219 56.252 52.3419 52.517 49.6299C52.476 49.5999 52.347 49.2289 51.751 48.9499C47.58 47.4429 44.147 49.4839 43.841 48.6949C43.691 48.3099 44.331 48.1569 44.011 47.5889C48.135 45.2619 51.074 46.6399 55.239 48.0989Z" fill="#DD8262"/>
<path d="M55.2391 48.0989C51.0741 46.6399 48.1352 45.2619 44.0112 47.5889C43.1092 48.0989 42.5922 48.4599 43.8412 46.6529C44.4402 45.7889 45.6412 44.9999 46.5632 44.5269C49.0912 43.4109 55.3471 45.7279 55.5791 46.3129C55.7691 46.7989 55.2321 47.9939 55.2391 48.0989Z" fill="#211212"/>
<path d="M64.7612 77.699C64.7212 77.73 64.8362 78.07 64.1662 78.55C59.2632 82.057 56.0212 80.662 55.7452 81.016C57.9572 83.5 57.9842 87.1 61.8702 85.014C61.1582 85.483 59.5392 87.362 57.8722 87.736C56.7762 82.758 55.7622 81.448 52.5132 78.039C54.8712 78.767 56.8172 79.839 59.2332 79.74C59.0932 79.393 59.5122 79.295 59.8282 79.23C61.6892 78.852 63.0202 78.686 64.7612 77.699Z" fill="#953F3D"/>
<path d="M58.981 63.239C61.529 63.413 62.244 62.083 64.51 62.049C64.938 63.614 61.989 63.845 60.512 64.6C59.097 64.655 54.208 63.634 53.537 62.559C53.19 62.001 53.32 61.589 53.707 61.198C55.191 61.919 57.324 63.127 58.981 63.239Z" fill="#953F3D"/>
<path d="M52.5171 49.63C56.2521 52.342 50.9041 49.722 50.0501 49.63C49.0841 49.525 48.1861 49.739 47.2431 49.8C45.8141 49.892 45.2431 50.144 45.2021 49.885C45.3341 49.239 50.2751 48.681 52.5171 49.63Z" fill="#692C23"/>
<path d="M52.5172 78.0389C52.4832 78.0019 52.0642 78.2199 52.1762 77.5289L52.5172 78.0389Z" fill="#953F3D"/>
<path d="M62.7199 92.1589C62.6899 92.3729 62.6899 92.7949 62.7199 93.0089C62.9239 94.5169 63.5949 94.1589 63.4009 95.6459C62.8289 99.4499 62.2539 103.209 61.3589 106.959C61.2059 107.598 61.0189 108.201 60.8489 108.83C60.4879 110.15 60.0869 111.443 59.6579 112.743C59.3929 113.542 59.2229 114.4 58.9779 115.209H58.6369L57.2759 110.021C57.9599 107.707 58.4599 105.363 59.1479 103.046C59.6309 101.416 60.5219 98.2759 61.5289 97.3469C61.6039 96.8439 61.3559 96.9459 61.3589 96.9219C61.6279 94.3499 61.1409 94.9859 60.3389 94.8809C60.9989 94.0029 61.7329 91.6279 62.7199 92.1589Z" fill="#B35B50"/>
<path d="M63.0601 84.674C62.3971 84.582 62.3021 84.728 61.8701 85.014C57.9841 87.1 57.9571 83.5 55.7451 81.016C56.0211 80.662 59.2631 82.057 64.1661 78.55C64.8361 78.07 64.7211 77.73 64.7611 77.699C65.2111 77.342 65.6091 76.957 66.1221 76.678C66.3881 76.535 66.6261 76.321 66.8881 76.168C67.4801 76.508 63.4651 83.81 63.0601 84.674Z" fill="#B35B50"/>
<path d="M67.653 62.559C69.208 62.154 70.477 62.889 70.63 62.899C72.059 62.984 74.06 62.028 74.033 63.409C74.315 62.137 76.288 60.603 74.628 59.837C75.22 58.956 75.659 58.146 75.138 57.03C74.55 55.761 72.971 56.758 71.906 56.775C69.242 56.816 67.793 56.367 65.357 56.265C65.476 55.958 64.911 55.642 64.761 55.584C64.7 55.186 64.925 55.261 64.932 55.244C65.377 55.999 66.721 55.819 67.483 55.924C74.366 56.884 74.781 53.757 75.819 53.543C79.044 52.873 77.551 60.759 76.329 62.474C74.084 65.628 70.311 63.961 67.653 62.559Z" fill="#F2A981"/>
<path d="M75.6488 47.759C75.9108 48.579 76.3498 48.725 76.3288 49.63C73.0798 45.5 68.4158 47.528 64.0808 48.099C61.9548 44.908 71.4268 45.003 73.0118 45.547C74.1208 45.928 74.8558 46.987 75.6488 47.759Z" fill="#211212"/>
<path d="M59.1509 94.8809C59.4299 94.8429 60.0599 94.8429 60.3419 94.8809C61.1449 94.9859 61.6309 94.3499 61.3629 96.9219C61.9749 97.9019 58.5249 96.1869 58.3859 96.0709C57.1059 94.9929 58.4029 94.9789 59.1509 94.8809Z" fill="#E2D1C6"/>
<path d="M81.4332 57.2849C80.1332 56.1079 80.2592 55.7609 80.5822 54.0529C81.3342 50.0789 84.9002 51.7969 83.8142 54.4779C82.8512 56.8599 82.8722 53.6139 82.5382 53.5429C81.2492 53.2639 81.6032 56.7579 81.4332 57.2849Z" fill="#B8573D"/>
<path d="M59.151 103.046C58.464 105.363 57.964 107.707 57.28 110.021H57.11C57.11 109.619 56.018 105.285 55.749 104.067C57.117 103.961 57.94 101.001 59.151 103.046Z" fill="#DD8262"/>
<path d="M74.628 59.8369C72.165 63.5119 69.072 61.6839 69.525 59.5819C69.613 59.1699 71.913 57.4149 71.906 56.7749C72.971 56.7579 74.546 55.7609 75.138 57.0299C75.659 58.1459 75.22 58.9559 74.628 59.8369Z" fill="#F2A981"/>
<path d="M57.28 60.688C56.565 61.729 58.859 62.654 60.002 62.814L58.981 63.239C57.324 63.127 55.191 61.919 53.707 61.198C54.738 60.16 55.929 61.542 56.94 59.157C58.069 56.496 55.946 52.039 57.11 53.968C58.246 55.85 58.692 58.823 57.28 60.688Z" fill="#B8573D"/>
<path d="M54.388 53.713C54.84 54.495 55.446 55.094 54.728 54.734C53.306 53.444 51.863 52.26 49.88 52.012C49.815 54.519 53.013 51.848 51.156 55.414C50.251 55.431 50.081 55.839 48.774 55.244C46.675 54.288 47.998 52.345 47.668 52.182L45.032 53.798C46.148 54.897 47.298 55.043 48.604 55.414C50.193 55.867 48.124 56.316 45.202 54.393C42.837 52.839 42.436 52.662 44.947 51.161C45.477 50.845 46.937 50.29 47.583 50.141C50.744 49.402 52.802 50.984 54.388 53.713Z" fill="#211212"/>
<path d="M54.7279 54.734C53.8669 55.448 52.2819 55.394 51.1559 55.414C53.0129 51.848 49.8149 54.519 49.8799 52.012C51.8629 52.26 53.3059 53.444 54.7279 54.734Z" fill="#FAFAFB"/>
<path d="M48.7742 55.244L48.6042 55.414C47.2982 55.043 46.1482 54.897 45.0322 53.798L47.6682 52.182C47.9982 52.345 46.6752 54.288 48.7742 55.244Z" fill="#FAFAFB"/>
<path d="M57.7901 66.642C57.9571 66.621 58.1341 66.652 58.3011 66.642L57.1951 67.832C59.2771 67.924 62.1321 68.778 63.7441 67.662C65.2141 67.761 67.2861 67.468 68.5071 66.642C68.6501 67.169 65.7991 68.948 64.2551 70.044C64.8701 69.095 64.0501 69.306 63.2341 69.363C62.7171 69.401 61.6721 69.768 59.6611 69.874C58.4401 69.938 57.2121 69.69 56.0041 69.874C58.5151 71.224 59.0421 72.072 62.2131 71.745C59.2631 73.436 58.1411 72.643 55.2391 71.235C54.5891 70.752 54.0991 70.105 53.5371 69.534C54.6231 69.517 55.1261 68.526 54.5581 67.662C55.4491 67.523 56.6301 66.785 57.7901 66.642Z" fill="#8C1534"/>
<path d="M54.5581 67.662C55.1261 68.526 54.6231 69.517 53.5371 69.534C53.4391 69.431 52.4011 68.744 51.4961 67.577L51.7511 67.322C52.7041 67.775 53.5681 67.819 54.5581 67.662Z" fill="#44171A"/>
<path d="M63.7409 67.662C62.1279 68.778 59.2769 67.924 57.1909 67.832L58.2969 66.642C60.1379 66.512 62.1079 66.689 63.7409 67.662Z" fill="#B32151"/>
<path d="M64.251 70.044C64.033 70.2 63.217 71.167 62.21 71.745C59.039 72.075 58.511 71.224 56.001 69.874C57.208 69.69 58.437 69.938 59.658 69.874C60.107 70.602 62.87 70.667 63.23 69.363C64.047 69.306 64.867 69.095 64.251 70.044Z" fill="#B32151"/>
<path d="M63.2302 69.363C62.8702 70.667 60.1112 70.602 59.6582 69.874C61.6692 69.768 62.7132 69.401 63.2302 69.363Z" fill="#F8CADA"/>
<path d="M75.8188 53.5429C74.7808 53.7569 74.3658 56.884 67.4828 55.924C66.0918 54.427 67.5788 52.794 67.3978 52.692C66.3468 52.696 65.3768 54.3019 64.9318 55.2439C64.9248 55.261 64.6998 55.186 64.7608 55.584C64.7138 55.564 64.6388 55.6049 64.5908 55.584C64.9788 50.865 68.6568 48.32 73.0118 50.651C73.7638 51.052 76.1008 53.0219 75.8188 53.5429Z" fill="#211212"/>
<path d="M67.4826 55.9239C66.7206 55.8189 65.3766 55.9989 64.9316 55.2439C65.3766 54.3019 66.3466 52.6959 67.3976 52.6919C67.5786 52.7939 66.0916 54.4269 67.4826 55.9239Z" fill="#FAFAFB"/>
<path d="M71.0556 54.053C70.7836 52.839 69.7726 53.339 69.3546 53.203C67.7036 52.662 70.0886 51.529 72.5016 53.203C75.3186 55.159 72.5726 55.438 70.6296 55.924C70.4426 55.812 71.2766 55.04 71.0556 54.053Z" fill="#FAFAFB"/>
<path d="M69.3549 53.2029C69.7729 53.3389 70.7839 52.8389 71.0559 54.0529C70.7259 55.6389 68.5989 55.4719 67.4829 54.5629C67.4459 54.4309 67.5069 54.2129 67.4829 54.0529C68.7459 51.6889 68.4629 54.8289 69.3549 53.2029Z" fill="#33140F"/>
<path d="M67.4829 54.053C67.5069 54.213 67.4459 54.431 67.4829 54.563C67.7279 55.424 69.0249 55.448 69.6949 55.839C68.2999 56.088 66.6569 55.598 67.4829 54.053Z" fill="#8F615D"/>
</g>
</g>
<defs>
<linearGradient id="paint0_linear_79_488" x1="98.1858" y1="103.005" x2="69.0181" y2="133.483" gradientUnits="userSpaceOnUse">
<stop stop-color="#5E436F"/>
<stop offset="1" stop-color="#35345C"/>
</linearGradient>
<linearGradient id="paint1_linear_79_488" x1="106.963" y1="113.862" x2="92.9323" y2="123.78" gradientUnits="userSpaceOnUse">
<stop stop-color="#846285"/>
<stop offset="1" stop-color="#47406C"/>
</linearGradient>
<linearGradient id="paint2_linear_79_488" x1="63.0644" y1="15.5393" x2="57.2771" y2="36.7083" gradientUnits="userSpaceOnUse">
<stop stop-color="#0F406C"/>
<stop offset="1" stop-color="#182642"/>
</linearGradient>
<linearGradient id="paint3_linear_79_488" x1="28.9288" y1="75.8822" x2="48.5736" y2="80.7611" gradientUnits="userSpaceOnUse">
<stop stop-color="#120E1E"/>
<stop offset="1" stop-color="#0C0B0F"/>
</linearGradient>
<linearGradient id="paint4_linear_79_488" x1="51.7579" y1="55.4141" x2="47.8963" y2="62.416" gradientUnits="userSpaceOnUse">
<stop stop-color="#E2926C"/>
<stop offset="1" stop-color="#D5795D"/>
</linearGradient>
<clipPath id="clip0_79_488">
<rect width="120" height="120" fill="white"/>
</clipPath>
</defs>
</svg>
