<svg width="120" height="120" viewBox="0 0 120 120" fill="none" xmlns="http://www.w3.org/2000/svg">
<g clip-path="url(#clip0_79_378)">
<mask id="mask0_79_378" style="mask-type:luminance" maskUnits="userSpaceOnUse" x="5" y="14" width="110" height="191">
<path d="M114.385 14.968H5.61621V204.502H114.385V14.968Z" fill="white"/>
</mask>
<g mask="url(#mask0_79_378)">
<path d="M49.9646 19.9191C49.9206 19.9781 49.4196 21.0551 49.4686 21.2781C49.6426 22.0571 59.3556 28.4611 59.9856 28.5751C61.3996 28.8331 63.9496 28.2481 64.8126 27.0921C65.5766 26.0701 65.7696 23.5451 68.8956 23.1331C71.3856 22.8061 75.4726 24.4131 76.4406 26.8441C78.0976 31.0111 78.4746 45.5461 77.4326 50.1051C77.2986 50.6901 76.4556 53.3491 75.7016 52.8281C75.8356 50.1891 76.3706 47.5251 76.4456 44.9111C76.6736 36.4581 76.6536 32.4491 68.1556 28.8281C67.9576 28.8681 66.4296 31.7901 66.0526 32.2911C60.3226 37.1621 56.8556 38.1941 49.5976 35.5051C47.4746 40.7981 47.8166 38.8981 45.7636 38.9681C45.5996 38.9731 45.4306 38.9681 45.2676 38.9681C44.8706 38.9581 43.4566 38.8691 43.2876 39.0921C46.1206 42.3061 45.0586 49.6331 46.2596 57.5261H46.0116C45.7336 55.7751 42.9056 51.5831 40.5696 53.6911C43.7786 47.8031 41.3486 48.4531 37.5976 52.0841C36.9286 49.1271 37.3496 48.0211 39.5776 46.0221C35.7076 44.8861 33.1136 41.2601 35.1226 37.3611C33.7286 34.6321 34.5566 31.1701 36.3576 28.8231C37.9556 26.7451 41.2636 25.0381 43.9026 25.1131C45.9716 22.6271 45.8276 19.2541 49.9646 19.9191Z" fill="#2A131F"/>
<path d="M73.9697 17.6911C82.0507 21.8931 86.3667 32.3111 86.5897 41.0761C81.0837 45.7341 85.7617 49.1171 83.6187 51.5931C83.6337 50.8641 83.7977 49.4201 83.3707 48.8691C82.9197 48.2841 81.4017 48.6161 80.8957 48.1251C83.9017 47.0341 79.6847 46.0621 85.1017 40.3321C84.6507 38.1391 84.1937 35.9421 83.6187 33.7741C82.2937 28.7981 81.3267 26.4121 77.6807 22.6371C74.1387 18.9711 71.8267 17.3691 66.5437 18.6781C62.1987 19.7551 57.8627 24.2591 61.3497 19.7901C62.3917 18.4501 63.8597 17.5721 65.0607 16.4511C65.4527 16.0841 65.2097 15.6131 65.8047 15.4591C68.6767 15.4341 71.4497 16.3771 73.9697 17.6861V17.6911Z" fill="#EFEFF3"/>
<path d="M76.1977 61.2411C77.3137 62.4071 77.3037 62.5961 79.1687 62.4771C78.4447 62.9481 75.0667 63.4041 77.5617 63.9601C79.7687 64.4511 80.6377 61.6831 81.2727 61.7331C81.5597 61.7571 83.0527 63.7071 83.1277 64.0841C84.0007 68.4151 77.7007 72.1101 73.9697 66.4351C74.7237 63.7271 74.8877 59.0841 75.4537 59.6291C75.4437 60.2051 75.8207 60.8451 76.1977 61.2361V61.2411Z" fill="#2D1014"/>
<path d="M65.0606 14.9681C65.2486 15.0821 65.9386 14.6851 65.8046 15.4641C65.2096 15.6131 65.4526 16.0841 65.0606 16.4561C62.1336 15.1121 51.6016 17.7901 49.9646 19.9191C45.8276 19.2541 45.9716 22.6321 43.9026 25.1131C41.2636 25.0381 37.9556 26.7451 36.3576 28.8231C35.0676 29.1651 38.1336 26.3381 38.9576 25.8521C40.3066 25.0531 42.0976 24.6861 43.6596 24.6161C44.1756 21.7441 46.2746 18.4651 49.3496 18.6781L57.5156 15.2211L65.0606 14.9681Z" fill="#CED2D6"/>
<path d="M65.0607 16.4561C63.8597 17.5821 62.3917 18.4601 61.3497 19.7951C57.8677 24.2641 62.2037 19.7601 66.5437 18.6831C65.7597 20.2461 66.8067 21.6151 66.7917 21.7741C66.7577 22.1761 65.8297 22.6621 65.3087 23.8771C64.9867 24.6211 64.2367 26.5061 64.8127 27.0921C63.9497 28.2481 61.4047 28.8381 59.9857 28.5751C59.3557 28.4611 49.6427 22.0571 49.4687 21.2781C49.4197 21.0551 49.9207 19.9731 49.9647 19.9191C51.6017 17.7901 62.1337 15.1121 65.0607 16.4561Z" fill="#4F0D2E"/>
<path d="M83.6184 33.7791C83.2214 37.4451 80.3494 42.1081 79.6594 44.5441C78.4594 48.7801 78.7914 48.8941 80.8954 48.1301C81.4014 48.6211 82.9194 48.2891 83.3704 48.8741C83.4694 50.8741 79.9374 48.7751 77.4324 50.1101C78.4744 45.5511 78.1024 31.0161 76.4404 26.8491C76.7424 26.8791 76.6734 26.6111 76.6884 26.6011C77.8444 25.5591 76.3314 23.6641 77.6804 22.6421C81.3264 26.4171 82.2934 28.8031 83.6184 33.7791Z" fill="#4F0D2E"/>
<path d="M76.6888 26.6011C76.6888 26.6011 76.7428 26.8741 76.4408 26.8491C75.4728 24.4181 71.3858 22.8061 68.8958 23.1381C65.7698 23.5501 65.5768 26.0751 64.8128 27.0971C64.2368 26.5111 64.9868 24.6261 65.3088 23.8821C68.7168 19.5811 75.0368 21.8531 76.6888 26.6061V26.6011Z" fill="#EFEFF3"/>
<path d="M77.6806 22.642C76.3366 23.664 77.8446 25.559 76.6886 26.601C75.0366 21.848 68.7116 19.576 65.3086 23.877C65.8346 22.662 66.7576 22.176 66.7916 21.774C66.8066 21.615 65.7596 20.241 66.5436 18.683C71.8266 17.374 74.1386 18.976 77.6806 22.642Z" fill="#701040"/>
<path d="M80.8954 48.1301C78.7914 48.8941 78.4594 48.7801 79.6594 44.5441C80.3494 42.1081 83.2214 37.4501 83.6184 33.7791C84.1934 35.9471 84.6504 38.1391 85.1014 40.3371C79.6844 46.0671 83.9064 47.0391 80.8954 48.1301Z" fill="#39122A"/>
<path d="M46.5024 58.7661L48.2334 67.1791C41.2444 73.5041 33.5444 63.1611 41.0554 58.5181C42.0124 63.9951 46.6804 61.7521 46.0064 57.5261H46.2544C46.2844 57.7141 46.6364 57.9671 46.5024 58.7611V58.7661Z" fill="#22141A"/>
<path d="M40.3163 64.7041C42.0073 64.5651 40.6933 62.5911 39.8203 61.9811C41.7543 59.7781 43.3573 67.2191 40.3163 64.7041Z" fill="#622935"/>
<path d="M40.3164 64.7041C39.1754 63.7621 39.5724 62.2681 39.8204 61.9811C40.6934 62.5911 42.0074 64.5601 40.3164 64.7041Z" fill="#FAD7DA"/>
<path d="M83.6185 51.593C83.5885 52.932 83.4155 55.343 82.0115 56.048C82.6515 54.063 81.0935 50.626 78.6725 51.593C76.2415 52.57 79.1585 54.267 79.6645 56.048C77.4075 53.731 75.7805 57.65 75.4585 57.531C75.8745 55.973 75.6265 54.401 75.7065 52.828C76.4605 53.349 77.3035 50.695 77.4375 50.105C79.9425 48.765 83.4745 50.869 83.3755 48.869C83.8025 49.42 83.6385 50.864 83.6235 51.593H83.6185Z" fill="#3B0F1C"/>
<path d="M76.3166 53.82C77.3236 53.681 76.2966 55.69 76.0686 55.552C75.8056 55.393 75.8596 53.885 76.3166 53.82Z" fill="#EADEE5"/>
<path d="M52.1924 81.7791C51.7854 83.8721 50.3464 85.7031 49.7164 87.7171C49.1814 87.3991 48.5804 87.1511 48.1094 86.7251L47.7374 87.0971C47.6234 90.0291 47.3354 92.9451 47.2414 95.8821C47.2364 96.0761 47.0034 96.0951 46.9934 96.6261C45.2674 96.0311 44.8004 94.4491 44.6424 94.3991C44.2304 94.2651 36.6154 96.1801 36.2284 96.3781C35.8414 96.5771 35.8124 96.9881 35.8564 97.3701C35.1224 96.8351 34.6664 96.1901 33.6294 96.1351C34.3984 92.9261 34.1794 89.1851 37.0914 85.8661C41.2394 81.1391 46.4974 82.126 52.1874 81.784L52.1924 81.7791Z" fill="#701040"/>
<path d="M83.1226 87.717C79.5456 89.344 74.2326 90.515 71.7426 93.407C72.0996 91.065 72.5616 88.744 72.4866 86.353C72.3976 86.189 69.3266 87.543 69.0246 87.712C68.1906 86.333 69.7186 84.324 67.7886 84.001C68.0026 83.272 68.0366 82.25 68.7806 81.774C74.6846 82.369 79.9676 81.784 83.1326 87.712L83.1226 87.717Z" fill="#8B134D"/>
<path d="M35.8614 97.37C39.8894 100.302 43.4964 103.79 47.4894 106.771C47.4994 107.679 47.4644 108.587 47.4894 109.494C39.7014 107.976 34.7254 101.215 34.0064 100.833C33.2474 100.436 33.1184 100.868 32.3994 100.833C32.8354 99.687 32.9194 98.1 33.1434 97.122C33.1534 97.068 33.3314 97.41 33.6394 96.13C34.6764 96.185 35.1324 96.835 35.8664 97.365L35.8614 97.37Z" fill="#3B0F1C"/>
<path d="M85.1015 96.3781V96.6261C84.2535 97.1621 83.9905 98.6501 83.8665 99.5981C81.1385 103.125 78.3105 106.568 75.4535 109.99C74.0985 111.613 70.0415 115.477 69.2675 116.921C68.1015 117.992 65.5415 120.978 65.8045 122.363C64.1925 125.017 64.1275 128.276 62.8335 128.797C63.6165 126.688 64.4605 124.57 65.3085 122.487C65.2635 120.889 65.0855 119.525 65.3085 117.908C71.9065 110.731 78.5035 103.555 85.1015 96.3781Z" fill="#610F29"/>
<path d="M86.5855 121.618C88.0535 123.439 89.3135 125.448 91.0395 127.06C90.1225 128.315 89.3285 129.422 87.8255 130.032C86.9375 129.139 85.9205 128.241 84.8535 127.556C85.1415 123.91 84.0105 119.976 85.9645 120.378C86.2975 120.448 86.0495 120.949 86.5855 121.613V121.618Z" fill="#701040"/>
<path d="M65.3082 116.42C65.3482 116.067 66.0872 114.668 66.3002 112.709C67.0742 111.156 67.2622 109.39 67.7832 107.758C69.2672 103.105 70.5762 99.905 71.4942 94.89C72.5512 96.165 73.4142 96.145 73.4732 96.249C73.9152 97.033 71.0572 105.308 70.5022 106.642C69.3712 109.37 67.5012 111.876 66.2952 114.559C65.7642 115.74 65.9632 117.055 65.3032 116.415L65.3082 116.42Z" fill="#8B134D"/>
<path d="M83.1223 87.717C84.5613 90.415 84.9623 93.382 85.1013 96.378C78.5033 103.555 71.9063 110.731 65.3083 117.908C65.3683 117.491 65.2533 116.871 65.3083 116.425C65.9683 117.064 65.7693 115.75 66.3003 114.569C67.5063 111.885 69.3763 109.38 70.5073 106.652C71.0573 105.317 73.9203 97.043 73.4783 96.259C73.4193 96.155 72.5563 96.17 71.4993 94.9C71.5933 94.389 71.6683 93.933 71.7473 93.417C74.2423 90.52 79.5503 89.354 83.1273 87.727L83.1223 87.717Z" fill="#A81B62"/>
<path d="M79.4111 100.089C79.7241 98.65 82.7351 95.599 80.1551 95.882C81.5641 95.396 81.8321 95.818 83.1271 96.502L79.4161 100.089H79.4111Z" fill="#DD749A"/>
<path d="M80.1555 95.8821C82.7355 95.5991 79.7245 98.65 79.4115 100.089C78.6975 100.808 79.4115 96.0061 79.7835 95.6341C79.7985 95.6191 79.9875 95.9421 80.1555 95.8821Z" fill="#FAD7DA"/>
<path d="M46.9984 96.626C46.9334 100.014 47.4494 103.388 47.4944 106.771C43.5014 103.79 39.8944 100.302 35.8664 97.37C35.8164 96.993 35.8514 96.577 36.2384 96.378C36.6254 96.18 44.2404 94.265 44.6524 94.399C44.8104 94.449 45.2774 96.031 47.0034 96.626H46.9984Z" fill="#A81B62"/>
<path d="M83.1224 106.523C82.7504 109.703 81.9024 114.53 82.6264 117.288C78.9104 122.546 76.4844 124.322 83.1224 119.887C83.2054 122.609 83.2874 125.331 83.3704 128.052C82.5614 128.509 82.0064 129.367 81.3914 130.032C80.7614 130.716 80.3744 131.198 79.9074 132.011C78.5634 134.358 77.9934 135.538 78.4244 138.445C77.6804 139.333 77.3384 138.802 77.1894 139.928C76.0184 139.695 73.1714 141.407 71.1274 142.156C68.3744 143.168 65.4624 143.833 62.7144 144.879C63.8794 142.126 64.7674 139.269 65.8044 136.466C66.0774 135.727 68.7064 129.977 68.1554 129.784C66.9054 131.555 67.9724 129.283 68.0314 128.792C68.0464 129.114 68.2944 129.149 68.5274 128.916C69.7634 127.67 78.8514 114.425 80.1554 112.089C80.7414 111.042 81.1134 109.817 81.6394 108.75C81.9264 108.17 82.8294 106.538 83.1224 106.523Z" fill="#8B134D"/>
<path d="M83.1221 106.523C82.8241 106.538 81.9261 108.17 81.6391 108.75C79.3821 108.487 77.6011 109.613 75.4531 109.986C78.3101 106.563 81.1331 103.12 83.8661 99.593C83.5541 101.885 83.3951 104.221 83.1221 106.523Z" fill="#BC3A7C"/>
<path d="M81.6393 108.75C81.1083 109.817 80.7363 111.047 80.1553 112.089C78.8513 114.425 69.7583 127.67 68.5273 128.916C68.2993 129.149 68.0512 129.114 68.0312 128.792C68.4633 125.2 68.7803 121.405 68.5273 117.779L69.2723 116.911C70.0453 115.467 74.1033 111.608 75.4583 109.981C77.6063 109.604 79.3872 108.482 81.6442 108.745L81.6393 108.75Z" fill="#CA5E85"/>
<path d="M69.2672 116.916L68.5232 117.784C68.7762 121.41 68.4582 125.2 68.0262 128.797C67.9672 129.288 66.9002 131.56 68.1502 129.789C68.7012 129.977 66.0722 135.732 65.7992 136.471C64.4102 135.905 60.4762 143.441 59.9852 143.401C59.6332 143.371 59.0282 141.407 59.1172 140.802C59.2662 139.849 65.7942 128.539 66.2952 122.988C66.5132 120.542 66.3502 121.465 65.7992 122.367C65.5362 120.983 68.1012 117.997 69.2622 116.926L69.2672 116.916Z" fill="#8C143D"/>
<path d="M29.4273 98.606C25.1663 106.637 25.0963 116.107 23.7373 124.957C23.6183 125.726 23.2963 127.859 22.7453 128.296C22.3083 127.363 21.8723 126.291 21.5103 125.324C21.1383 124.337 21.1183 122.74 20.2753 121.986C18.0823 134.387 13.9103 146.283 9.3863 157.985C7.5553 159.712 7.7833 153.685 7.6543 149.572C7.8233 149.572 8.1063 149.632 8.1513 149.448C8.3943 148.431 10.2193 130.979 10.3783 128.663C10.5863 125.656 10.9983 119.575 10.1303 118.394C10.6013 117.04 10.6413 115.596 12.1093 112.828C13.1163 110.923 16.8813 106.88 16.1923 106.518C15.0513 107.555 12.2083 109.073 11.3653 109.981V106.022C16.8073 101.979 23.1523 100.64 29.4273 98.601V98.606Z" fill="#1F4D81"/>
<path d="M32.3994 100.833C30.7864 106.984 31.1884 113.175 31.1634 119.763C31.7494 121.465 31.8634 123.315 32.1554 125.081C33.7084 134.511 36.6254 140.315 46.7554 142.404C48.9384 143.515 54.6574 149.552 55.1684 149.825C55.2134 151.472 55.1094 153.129 55.1684 154.776H54.9204C44.0564 151.016 33.7634 144.954 26.9624 135.474C25.8804 133.966 23.5444 129.982 22.7554 128.296C23.3014 127.859 23.6284 125.721 23.7474 124.957C25.1064 116.107 25.1764 106.637 29.4374 98.6059C30.6774 98.2039 31.8684 97.4599 33.1484 97.1219C32.9244 98.0999 32.8454 99.6869 32.4044 100.833H32.3994Z" fill="#273B6F"/>
<path d="M11.3654 106.027V109.986C9.64435 111.846 8.65735 114.624 8.89035 117.164C8.03135 116.896 8.00235 120.676 7.89835 123.722C7.61535 132.279 7.38235 141.025 7.64935 149.577C7.77835 153.689 7.55035 159.717 9.38135 157.99V158.238C11.0724 164.544 14.9964 170.109 18.9054 175.313C21.2574 172.674 23.6084 170.035 25.9604 167.396C30.4744 170.387 34.2444 171.196 34.4974 171.603C34.7204 171.965 33.7934 171.742 33.8774 172.595C31.6794 173.671 30.0324 174.574 28.4354 176.305C26.0694 178.87 25.1614 181.613 24.7244 184.967C17.1244 180.924 6.53335 164.385 5.67535 152.673C5.39235 148.813 6.19135 116.291 6.66735 113.329C7.26835 109.579 8.50335 108.16 11.3704 106.032L11.3654 106.027Z" fill="#273B6F"/>
<path d="M106.879 102.812C104.875 103.016 106.879 102.976 106.383 103.804C104.2 102.49 89.1643 99.077 85.8453 97.122C85.8163 97.103 85.7413 96.676 85.3493 96.626C85.2853 95.783 85.3543 95.927 85.9693 95.882C87.2593 95.798 102.727 100.367 106.879 102.812Z" fill="#4CA8D9"/>
<path d="M10.1302 118.399C10.9982 119.58 10.5862 125.661 10.3782 128.668C10.2192 130.979 8.39424 148.436 8.15124 149.453C8.10624 149.637 7.82324 149.577 7.65424 149.577C7.38724 141.02 7.61524 132.279 7.90224 123.722C8.00224 120.681 8.03124 116.896 8.89524 117.164C9.01924 118.508 9.41624 120.458 10.1302 118.399Z" fill="#1B78AF"/>
<path d="M10.1304 118.399C9.41638 120.458 9.01938 118.508 8.89538 117.164C8.66138 114.629 9.64938 111.846 11.3704 109.986C12.2084 109.078 15.0514 107.56 16.1974 106.523C16.8864 106.885 13.1214 110.928 12.1144 112.833C10.6464 115.601 10.6064 117.045 10.1354 118.399H10.1304Z" fill="#EFEFF3"/>
<path d="M97.7214 108.254C97.2604 112.962 95.3954 117.804 93.5154 122.11C93.2124 122.01 93.0684 121.757 92.7714 121.613C92.8204 121.003 91.7494 120.224 91.5354 119.882C88.4004 114.926 86.7934 109.137 87.8254 119.138C87.4334 119.044 86.5944 119.074 86.3414 118.642C86.8574 117.928 86.6144 115.165 85.8454 114.683C85.8114 110 86.1284 103.165 85.8454 99.097C86.6894 99.315 94.8594 102.614 95.1224 103.055C95.4994 103.68 95.0974 106.627 95.2464 107.634C95.5194 108.205 97.1714 108.165 97.7214 108.254Z" fill="#7879B2"/>
<path d="M111.329 156.755C111.09 156.785 110.808 156.706 110.584 156.755C110.917 156.334 110.718 155.361 110.584 154.9C108.655 148.243 102.543 134.814 100.192 126.569C100.455 125.795 102.131 119.599 102.543 119.639C108.451 131.207 109.85 144.056 111.329 156.755Z" fill="#1F4D81"/>
<path d="M106.383 103.799C109.225 105.511 111.314 110.243 110.465 113.448C104.185 107.336 104.651 109.326 97.7214 108.254C97.1714 108.17 95.5194 108.21 95.2464 107.634C95.0974 106.627 95.4994 103.68 95.1224 103.055C94.8544 102.614 86.6844 99.3149 85.8454 99.0969C85.8404 98.9979 85.1564 97.7129 85.8454 97.1169C89.1644 99.0719 104.2 102.485 106.383 103.799Z" fill="#EFEFF3"/>
<path d="M106.879 102.812C110.614 105.01 113.09 107.48 114.057 111.846C112.549 126.028 116.532 146.888 112.574 159.727C111.15 160.406 111.562 158.685 111.339 156.755C109.86 144.056 108.466 131.207 102.553 119.639C102.146 119.599 100.465 125.795 100.202 126.569C98.9572 130.215 98.0692 132.463 96.4912 135.97C96.1592 136.704 95.9502 137.508 95.4992 138.197C95.1672 135.121 94.7352 132.081 95.0032 128.921C94.8242 128.593 92.9342 129.724 92.2792 130.032C91.4512 130.424 90.5032 130.895 89.8042 131.515H89.0602C88.6732 131.034 88.2562 130.463 87.8252 130.032C89.3282 129.422 90.1262 128.315 91.0392 127.06C91.0792 127.006 91.4112 127.308 92.0312 126.192C92.1362 126.004 92.7062 123.965 93.5152 122.11C95.3952 117.804 97.2602 112.962 97.7212 108.254C104.651 109.326 104.185 107.336 110.465 113.448C111.314 110.243 109.225 105.511 106.383 103.799C106.874 102.976 104.875 103.011 106.879 102.807V102.812Z" fill="url(#paint0_linear_79_378)"/>
<path d="M112.445 109.246C112.653 109.524 113.293 110.764 113.313 110.854C113.7 112.813 113.119 127.616 113.189 132.011C113.015 132.15 112.132 131.292 112.078 131.143C111.681 130.121 112.797 112.049 112.45 109.246H112.445Z" fill="#1B78AF"/>
<path d="M47.4941 109.494C47.5781 112.778 47.3061 116.122 47.4941 119.391C48.0001 128.107 50.3021 136.639 55.2871 143.887C56.4481 144.076 62.2121 130.463 62.8331 128.792C64.1271 128.271 64.1921 125.012 65.8041 122.358C66.3551 121.45 66.5181 120.527 66.3001 122.978C65.7991 128.534 59.2711 139.839 59.1221 140.792C59.0281 141.392 59.6381 143.361 59.9901 143.391C60.4811 143.431 64.4151 135.9 65.8041 136.461C64.7671 139.259 63.8791 142.121 62.7141 144.874C65.4621 143.828 68.3741 143.163 71.1271 142.151C73.1761 141.402 76.0181 139.69 77.1891 139.923C76.8911 142.131 79.3421 146.834 84.2431 146.109C85.5581 145.916 89.1101 143.565 87.0911 143.138C87.4481 142.935 87.7801 142.677 88.0831 142.394C89.0351 141.511 90.2751 139.457 90.5581 138.187C91.0741 135.871 91.0591 133.321 89.3231 131.505H89.8191C92.6811 134.7 89.3481 137.458 94.3981 137.691C94.4621 128.191 95.3701 129.263 92.9141 130.27C92.7411 130.339 92.2701 130.334 92.2941 130.022C92.9491 129.714 94.8391 128.578 95.0181 128.911C94.7451 132.076 95.1761 135.112 95.5141 138.187C95.6031 139.016 95.6631 139.819 95.7621 140.663C94.3881 147.915 92.5271 152.37 89.8241 158.973C89.5411 157.767 92.8051 151.785 92.1751 151.303C84.3371 159.002 70.2931 163.978 59.3901 162.931C59.0031 161.25 58.6801 159.563 58.3981 157.856C59.4441 156.621 60.9521 155.614 61.8601 154.27C62.3321 153.57 63.1201 151.948 63.0951 151.055C63.0911 150.812 63.4971 150.673 63.3441 150.435C62.8971 149.746 59.8661 148.039 59.3851 149.815C59.0131 149.656 58.4371 149.537 58.0261 149.567C56.9141 148.972 53.7051 140.97 45.0331 140.41C42.1911 138.138 39.1301 136.014 36.8681 133.112C34.7001 130.329 34.0061 127.824 32.1651 125.071C31.8731 123.305 31.7641 121.455 31.1731 119.753C31.1981 113.165 30.8011 106.974 32.4081 100.823C33.1281 100.858 33.2621 100.426 34.0161 100.823C34.7401 101.2 39.7111 107.967 47.4991 109.484L47.4941 109.494Z" fill="#610F29"/>
<path d="M39.9442 119.391C41.4372 118.731 42.4192 121.4 41.1792 121.866C39.3582 122.556 39.0512 119.788 39.9442 119.391Z" fill="#C7E0EB"/>
<path d="M85.3492 96.6261C85.7412 96.6711 85.8162 97.1031 85.8452 97.1221C85.1562 97.7181 85.8402 99.0021 85.8452 99.1021C86.1282 103.169 85.8112 110.005 85.8452 114.688C85.8552 116.067 85.9792 117.283 86.0932 118.647C86.1082 118.821 85.6822 118.88 86.0932 119.882H83.1222C76.4842 124.317 78.9102 122.546 82.6262 117.283C81.9022 114.525 82.7502 109.698 83.1222 106.518C83.3902 104.216 83.5542 101.885 83.8662 99.5881C83.9952 98.6451 84.2532 97.1571 85.1012 96.6161H85.3492V96.6261Z" fill="#F2DA37"/>
<path d="M86.0932 119.887C86.2922 119.907 86.2122 120.418 87.5772 120.631L86.5852 121.623C86.0492 120.959 86.2972 120.453 85.9642 120.388C84.0052 119.986 85.1412 123.92 84.8532 127.566V128.062C84.6152 127.914 84.4022 127.799 84.2332 127.566C83.4342 127.497 83.7772 127.829 83.3652 128.062C83.2822 125.341 83.2002 122.619 83.1172 119.897H86.0882L86.0932 119.887Z" fill="#FBC992"/>
<path d="M87.8254 119.143C89.0504 119.436 90.2654 119.813 91.5354 119.887C91.7544 120.229 92.8204 121.008 92.7714 121.618C91.5454 121.028 89.0804 120.859 87.5774 120.626C86.2124 120.418 86.2874 119.902 86.0934 119.882C85.6824 118.875 86.1084 118.816 86.0934 118.647H86.3414C86.5944 119.079 87.4334 119.049 87.8254 119.143Z" fill="#FBF7CE"/>
<path d="M86.3412 118.647H86.0932C85.9792 117.283 85.8552 116.067 85.8452 114.688C86.6092 115.169 86.8572 117.933 86.3412 118.647Z" fill="#88456B"/>
<path d="M91.5352 119.887C90.2652 119.813 89.0502 119.436 87.8252 119.143C86.7982 109.142 88.4002 114.931 91.5352 119.887Z" fill="#F2DA37"/>
<path d="M60.6054 93.9032C60.5064 94.1062 60.5754 95.7882 60.6054 95.8822C60.5564 95.3962 60.0104 95.6942 59.8614 96.0062C58.8544 98.1292 57.2774 104.722 55.9024 107.634C55.6104 110.427 58.0414 114.475 58.8744 117.283L59.3704 116.911C60.6354 115.973 62.6144 112.168 62.8334 111.96C63.1854 111.623 65.3184 110.591 66.4194 110.725C66.5434 110.799 66.3254 112.421 66.2954 112.704C66.0874 114.663 65.3484 116.062 65.3034 116.415C65.2484 116.861 65.3634 117.486 65.3034 117.898C65.0804 119.515 65.2584 120.874 65.3034 122.477C64.4554 124.56 63.6164 126.678 62.8284 128.787C62.2034 130.458 56.4434 144.071 55.2824 143.882C50.2974 136.635 47.9954 128.102 47.4894 119.386L59.7374 129.531C60.1844 129.62 60.3274 129.064 60.3574 129.035C61.0814 128.335 62.5894 124.238 64.0684 124.208C65.4124 121.435 64.1974 120.755 64.8124 118.022C64.1474 117.069 61.5824 125.562 59.8614 127.055C58.4424 119.917 52.1074 112.327 47.4894 106.766C47.4444 103.383 46.9284 100.01 46.9934 96.6212C47.0034 96.0912 47.2364 96.0762 47.2414 95.8772L56.8904 92.4152C58.0454 93.0202 59.4494 93.9822 60.6004 93.8982L60.6054 93.9032Z" fill="#EBDCD4"/>
<path d="M71.7427 93.4121C71.6636 93.9281 71.5887 94.3841 71.4947 94.8951C70.5767 99.9101 69.2676 103.11 67.7836 107.763C67.1247 102.807 62.6447 99.3991 61.3497 97.1221C61.1017 96.6811 60.6557 96.0361 60.6057 95.8871C60.5757 95.7931 60.5067 94.1111 60.6057 93.9081C60.8047 93.5111 61.0917 93.7641 61.1017 93.4121C63.3487 92.1911 64.4997 92.2061 65.5567 89.9491C67.2287 89.6121 68.6917 87.9051 69.0197 87.7221C69.3267 87.5531 72.3927 86.1991 72.4817 86.3631C72.5567 88.7491 72.0997 91.0701 71.7377 93.4171L71.7427 93.4121Z" fill="#EFEFF3"/>
<path d="M49.7166 87.7171C52.1926 89.1751 54.2366 91.0311 56.8956 92.4201L47.2466 95.8821C47.3406 92.9451 47.6286 90.0331 47.7426 87.0971L48.1146 86.7251C48.5906 87.1511 49.1866 87.3991 49.7216 87.7171H49.7166Z" fill="#B99D9B"/>
<path d="M59.8616 127.06C59.9856 127.69 60.0696 128.474 60.3576 129.04C60.3276 129.069 60.1846 129.62 59.7376 129.536L47.4896 119.391C47.3016 116.117 47.5736 112.778 47.4896 109.494C47.4646 108.587 47.4996 107.679 47.4896 106.771C52.1076 112.332 58.4426 119.922 59.8616 127.06Z" fill="url(#paint1_linear_79_378)"/>
<path d="M67.7835 107.763C67.2625 109.395 67.0695 111.156 66.3005 112.714C66.3305 112.431 66.5485 110.809 66.4245 110.735C65.3235 110.601 63.1905 111.637 62.8385 111.97C62.8035 111.305 62.6795 110.65 62.5895 109.99C62.0095 105.749 61.5585 101.403 61.3545 97.1221C62.6495 99.3991 67.1245 102.807 67.7885 107.763H67.7835Z" fill="#EBDCD4"/>
<path d="M60.3573 129.04C60.0693 128.474 59.9903 127.69 59.8613 127.06C61.5823 125.572 64.1473 117.079 64.8123 118.027C64.1973 120.76 65.4123 121.44 64.0683 124.213C62.5893 124.238 61.0763 128.34 60.3573 129.04Z" fill="#DDC0B3"/>
<path d="M62.5856 109.986C62.6746 110.645 62.7987 111.3 62.8337 111.965C62.6147 112.173 60.6356 115.973 59.3706 116.916C58.8546 114.916 61.0376 111.112 62.5856 109.986Z" fill="#C2603A"/>
<path d="M46.0063 57.531C46.6803 61.757 42.0173 64 41.0553 58.523C41.0403 58.454 41.4023 57.342 41.5513 57.164C39.7503 56.127 38.0643 54.172 37.5923 52.089C41.3383 48.463 43.7693 47.808 40.5643 53.696C42.9053 51.588 45.7283 55.78 46.0063 57.531Z" fill="#AD442E"/>
<path d="M60.6051 95.882C60.6551 96.036 61.0961 96.681 61.3491 97.117C61.5581 101.394 62.0091 105.744 62.5851 109.986C61.0371 111.112 58.8491 114.916 59.3701 116.916L58.8741 117.288C58.0411 114.48 55.6101 110.427 55.9021 107.639C57.2771 104.727 58.8591 98.129 59.8611 96.011C60.0101 95.699 60.5561 95.401 60.6051 95.887V95.882Z" fill="#D87231"/>
<path d="M49.2256 60.254C49.8406 59.976 50.5456 59.877 51.2056 59.758C52.6886 60.959 50.4266 61.172 50.2126 61.614C49.8806 62.323 50.6996 62.194 50.7096 62.234C50.7586 62.437 50.8776 62.526 50.9576 62.73C51.5676 64.332 52.5046 65.756 54.0476 66.936C56.2506 68.613 59.7476 70.007 62.4616 69.412C63.7066 69.139 68.7066 66.262 68.2746 64.957C68.6966 64.739 70.5666 63.007 70.2546 62.482C69.5846 61.365 68.8406 62.244 67.7786 62.482C67.9226 61.599 72.6206 60.592 72.9726 61.37C72.9926 64.52 71.2466 67.968 72.2286 69.66C71.8166 70.677 70.7156 73.39 70.2496 74.115C69.5306 75.236 67.6256 77.399 66.5386 78.073C62.6446 80.489 57.3516 80.003 53.6706 77.329C53.6016 77.279 52.6336 76.297 52.4356 76.094C50.1136 73.668 49.2256 70.315 48.2286 67.184L46.4976 58.771C46.9246 58.597 47.1866 59.411 47.2416 59.639C47.9906 62.849 49.5976 73.668 52.3166 75.35C54.4996 76.699 51.2546 72.696 50.7096 71.019C50.5506 70.538 51.0366 70.315 50.9576 70.027C49.7966 65.979 49.5536 64.496 49.2256 60.254Z" fill="url(#paint2_linear_79_378)"/>
<path d="M79.6593 56.0481C80.3943 58.6571 79.2583 61.4851 76.1973 61.2411C75.8253 60.8501 75.4483 60.2101 75.4533 59.6341C74.8873 59.0841 74.7183 63.7271 73.9693 66.4401C73.1563 69.3721 71.5733 71.4661 70.5073 74.1101H70.2593C70.7253 73.3851 71.8263 70.6721 72.2383 69.6551C74.1083 65.0411 74.6993 60.9241 74.7143 55.9241H75.2103L75.4583 57.5311C75.7803 57.6501 77.4073 53.7311 79.6643 56.0481H79.6593Z" fill="#FBC992"/>
<path d="M79.1634 62.482C77.2984 62.601 77.3084 62.412 76.1924 61.246C79.2534 61.489 80.3944 58.657 79.6544 56.053C79.1534 54.272 76.2314 52.575 78.6624 51.598C82.9094 52.208 81.2124 61.152 79.1584 62.487L79.1634 62.482Z" fill="#F1A660"/>
<path d="M66.0475 32.291C63.6565 35.485 60.2585 38.417 56.1505 39.221C53.3585 39.766 46.9535 37.792 46.5025 45.531C50.1185 41.875 53.7105 41.974 58.3785 43.428C59.7875 49.862 57.5105 55.909 57.8825 57.035C57.2475 56.985 56.7365 57.218 56.3995 57.779C56.1955 55.199 56.7165 52.714 56.6475 50.11C56.6475 49.995 56.9545 49.837 56.6475 48.626C56.5825 48.368 56.4285 47.679 56.3995 47.634C60.5315 44.082 48.6555 42.197 48.8535 48.378C49.6725 47.49 50.6895 46.587 51.9445 46.399V46.895C50.6795 47.198 49.2405 48.19 48.9725 49.618C48.6905 51.136 49.0525 58.106 49.2205 60.259C49.5485 64.501 49.7915 65.989 50.9525 70.032C51.0315 70.315 50.5455 70.543 50.7045 71.024C51.2545 72.701 54.4945 76.704 52.3115 75.355C49.5975 73.673 47.9905 62.854 47.2365 59.644C47.1815 59.421 46.9195 58.602 46.4925 58.776C46.6265 57.982 46.2745 57.729 46.2445 57.541C45.0435 49.648 46.1055 42.321 43.2725 39.107C43.4415 38.883 44.8555 38.978 45.2525 38.983C42.9255 39.37 44.8805 40.282 45.2525 41.582C46.3235 45.293 44.7515 45.729 46.7355 42.078C47.1375 41.334 48.2685 40.501 48.2185 40.099C48.0745 38.834 45.6935 40.099 45.7435 38.988C47.7975 38.918 47.4595 40.818 49.5785 35.525C56.8355 38.214 60.3035 37.177 66.0325 32.311L66.0475 32.291Z" fill="#D8874E"/>
<path d="M76.4406 44.911C76.3706 47.525 75.8356 50.189 75.6966 52.828C75.6166 54.401 75.8646 55.968 75.4486 57.531L75.2006 55.924H74.7046C74.6946 60.924 74.1036 65.041 72.2286 69.655C71.2466 67.963 72.9926 64.516 72.9726 61.365C72.6156 60.592 67.9176 61.599 67.7786 62.477C64.9616 63.112 60.9136 64.838 60.6006 63.469C62.1986 62.908 62.4516 62.273 63.0766 61.738C64.5096 60.507 66.3256 59.609 65.5516 57.283C65.1346 56.033 63.8946 56.797 63.8206 56.663C63.6716 56.39 63.7266 51.082 63.8206 50.477C63.8796 50.095 64.5496 50.144 64.5646 50.105C66.0776 52.064 70.3136 52.511 71.9856 50.601C73.2506 49.157 72.4176 48.646 70.9936 47.877C70.8396 47.798 70.4626 46.84 67.7786 47.133C67.6256 46.399 68.3596 46.677 69.2626 46.637C71.8166 47.178 73.3546 47.783 75.0766 49.852C75.6016 49.777 75.6466 47.356 75.6966 46.88C75.7856 46.007 75.8596 46.072 75.6966 45.149C75.6816 45.07 75.7166 44.975 75.6966 44.901H76.4406V44.911Z" fill="#FBC992"/>
<path d="M45.7585 38.973C45.7085 40.089 48.0845 38.819 48.2335 40.084C48.2785 40.486 47.1525 41.319 46.7505 42.063C44.7615 45.719 46.3335 45.278 45.2675 41.567C44.8955 40.268 42.9405 39.355 45.2675 38.968C45.4305 38.968 45.5995 38.973 45.7635 38.968L45.7585 38.973Z" fill="#D86634"/>
<path d="M56.6475 50.11C56.7165 52.714 56.1955 55.199 56.3995 57.779C56.3095 57.928 56.1955 58.101 56.1505 58.275C54.2705 59.401 53.2045 59.406 51.2005 59.758C50.5405 59.872 49.8355 59.976 49.2205 60.254C49.0575 58.101 48.6905 51.136 48.9725 49.614H49.2205C51.0165 51.707 54.5335 51.856 56.6425 50.11H56.6475Z" fill="#FBC992"/>
<path d="M57.8825 66.44C62.8335 67.333 62.0745 66.822 65.7995 65.448C66.1315 65.324 67.8935 65.151 68.2745 64.952C68.7065 66.252 63.7065 69.134 62.4615 69.407C59.7475 70.002 56.2505 68.613 54.0475 66.931C52.4995 65.751 51.5675 64.327 50.9575 62.725C53.3385 64.828 54.9805 65.909 57.8875 66.435L57.8825 66.44Z" fill="#F3955A"/>
<path d="M63.0815 61.738C62.4565 62.273 62.2035 62.908 60.6055 63.469C58.4575 64.223 58.1405 63.742 55.9025 63.965C52.7975 63.062 50.4115 61.207 50.7095 62.234C50.6995 62.194 49.8805 62.323 50.2125 61.614C50.4215 61.172 52.6885 60.959 51.2055 59.758C53.2045 59.406 54.2755 59.401 56.1555 58.275C56.0615 58.652 55.8185 62.04 56.2795 62.234C56.7905 62.447 58.2045 61.663 58.0115 60.502C60.1445 62.482 61.5875 61.351 63.0865 61.738H63.0815Z" fill="#D8874E"/>
<path d="M55.9023 63.965C62.6193 65.924 63.8793 64.709 70.2543 62.482C70.5663 63.003 68.6963 64.739 68.2743 64.957C67.8933 65.155 66.1313 65.3291 65.7993 65.4531C65.9583 64.3621 63.1653 66.068 61.9643 66.197C59.7373 66.43 55.1243 65.205 57.8823 66.445C54.9753 65.919 53.3383 64.838 50.9523 62.735C50.8723 62.531 50.7533 62.442 50.7043 62.239C50.4063 61.212 52.7973 63.067 55.8973 63.97L55.9023 63.965Z" fill="#A13029"/>
<path d="M70.2543 62.4819C63.8793 64.7139 62.6193 65.924 55.9023 63.965C58.1403 63.742 58.4573 64.223 60.6053 63.469C60.9133 64.838 64.9663 63.117 67.7833 62.477C68.8453 62.239 69.5893 61.361 70.2593 62.477L70.2543 62.4819Z" fill="#FDEBC5"/>
<path d="M68.5234 80.792C68.5424 80.648 68.2154 78.936 69.0194 77.944L68.6474 77.572C66.1864 81.04 67.7544 80.003 67.7784 80.42C67.8484 81.625 66.0224 81.704 65.9234 81.779C63.7554 83.446 61.8314 85.489 59.6134 87.097C58.9884 88.907 58.1944 94.642 61.0964 93.407C61.0864 93.759 60.7994 93.506 60.6004 93.903C59.4444 93.987 58.0454 93.02 56.8904 92.42C54.2314 91.036 52.1924 89.18 49.7114 87.717C50.3374 85.703 51.7804 83.872 52.1874 81.779C52.5594 79.849 52.4254 78.029 52.4354 76.089C52.6334 76.297 53.6014 77.275 53.6704 77.324C53.3534 80.613 55.8384 86.209 57.0094 89.696C57.7284 89.706 57.0244 88.238 58.3684 87.345C57.4624 85.036 56.5544 82.726 55.6444 80.415C59.0674 83.327 68.4334 81.977 66.5334 78.063C67.6204 77.389 69.5254 75.226 70.2444 74.105H70.4924C69.6094 76.287 69.1824 78.544 68.5134 80.787L68.5234 80.792Z" fill="#AD442E"/>
<path d="M68.5235 80.792C68.4285 81.501 68.8055 81.635 68.7715 81.784C68.0265 82.26 67.9925 83.282 67.7785 84.011C67.7645 84.066 67.2585 84.2 67.0345 84.879C66.5335 86.432 66.1965 88.575 65.5515 89.954C64.4945 92.211 63.3445 92.196 61.0965 93.417C58.1895 94.652 58.9885 88.917 59.6135 87.107C61.8315 85.494 63.7555 83.456 65.9235 81.789C66.0225 81.709 67.8535 81.63 67.7785 80.43C67.7545 80.013 66.1815 81.055 68.6475 77.582L69.0195 77.954C68.2155 78.946 68.5425 80.658 68.5235 80.802V80.792Z" fill="#C2603A"/>
<path d="M66.5435 78.068C68.4435 81.982 59.0825 83.332 55.6545 80.42C56.5615 82.728 57.4685 85.038 58.3785 87.35C57.0295 88.238 57.7385 89.706 57.0195 89.701C55.8485 86.214 53.3635 80.618 53.6805 77.329C57.3615 80.003 62.6545 80.489 66.5485 78.073L66.5435 78.068Z" fill="#A13029"/>
<path d="M69.0196 87.717C68.6866 87.9 67.2286 89.607 65.5566 89.944C66.2016 88.57 66.5386 86.427 67.0396 84.869C67.2586 84.19 67.7646 84.056 67.7836 84.001C69.7136 84.324 68.1906 86.338 69.0196 87.712V87.717Z" fill="#FBC992"/>
<path d="M56.1504 39.2209C57.4254 39.4739 58.1204 42.2469 58.3784 43.4279C53.7104 41.9739 50.1184 41.8749 46.5024 45.5309C46.9534 37.7919 53.3584 39.7659 56.1504 39.2209Z" fill="#2D1014"/>
<path d="M57.8824 57.035C57.9964 57.377 60.0104 58.702 60.4814 58.766C63.6714 59.213 64.0584 56.191 65.5564 57.283C66.3354 59.609 64.5144 60.507 63.0814 61.738C61.5874 61.346 60.1444 62.482 58.0064 60.502C58.1994 61.663 56.7854 62.447 56.2744 62.234C55.8134 62.04 56.0564 58.652 56.1504 58.275C56.1904 58.101 56.3094 57.928 56.3994 57.779C56.7414 57.223 57.2474 56.99 57.8824 57.035Z" fill="#AD442E"/>
<path d="M75.7015 46.89C75.6515 47.366 75.6065 49.787 75.0815 49.862C73.3595 47.788 71.8215 47.188 69.2675 46.647C66.4095 46.042 66.5235 46.682 64.8125 46.647C65.3085 45.397 68.7065 46.473 67.5355 44.172C69.2075 44.32 75.9885 45.412 75.7015 46.895V46.89Z" fill="#D8874E"/>
<path d="M67.7834 47.138C70.4674 46.845 70.8494 47.798 70.9984 47.882C69.9214 47.475 71.7224 52.074 67.9074 51.097C64.8024 50.303 69.1034 45.531 64.8174 49.117C65.6754 47.862 66.2314 47.307 67.7884 47.138H67.7834Z" fill="#2D1014"/>
<path d="M70.9985 47.8821C72.4175 48.6511 73.2505 49.1621 71.9905 50.6061C67.4715 52.7981 64.8425 49.8321 64.5695 50.1101C64.6385 49.8711 64.1125 50.1491 64.8175 49.1171C69.1085 45.5311 64.8075 50.3031 67.9075 51.0971C71.7225 52.0741 69.9215 47.4751 70.9985 47.8821Z" fill="#EFEFF3"/>
<path d="M67.5353 44.167C68.7063 46.468 65.3083 45.387 64.8123 46.642C62.9523 46.602 64.5943 44.36 64.9363 44.167C65.9283 43.616 66.6083 44.082 67.5353 44.167Z" fill="#C2603A"/>
<path d="M76.4406 44.911H75.6966C74.3816 40.158 63.7956 37.931 64.6836 42.931C68.6616 42.43 72.1046 43.715 75.6966 45.159C75.8596 46.081 75.7856 46.017 75.6966 46.89C75.9836 45.407 69.2026 44.32 67.5306 44.167C66.6036 44.082 65.9236 43.616 64.9316 44.167C64.5896 44.355 62.9476 46.602 64.8076 46.642C66.5186 46.677 66.4046 46.037 69.2626 46.642C68.3596 46.682 67.6256 46.404 67.7786 47.138C66.2216 47.307 65.6656 47.862 64.8076 49.117C64.1036 50.149 64.6286 49.871 64.5596 50.11C64.5496 50.149 63.8746 50.1 63.8156 50.482C63.7216 51.087 63.6666 56.395 63.8156 56.668C63.8896 56.802 65.1296 56.038 65.5466 57.288C64.0486 56.201 63.6616 59.222 60.4716 58.771C60.0006 58.707 57.9866 57.382 57.8726 57.04C57.5006 55.914 59.7776 49.867 58.3686 43.432C58.1106 42.252 57.4156 39.484 56.1416 39.226C60.2536 38.427 63.6466 35.49 66.0376 32.296C66.4146 31.795 67.9426 28.873 68.1416 28.833C76.6386 32.454 76.6586 36.468 76.4306 44.916L76.4406 44.911Z" fill="#FBC992"/>
<path d="M75.7016 44.911C75.7216 44.985 75.6866 45.079 75.7016 45.159C72.1096 43.715 68.6666 42.435 64.6886 42.931C63.8006 37.931 74.3816 40.158 75.7016 44.911Z" fill="#4D1C20"/>
<path d="M59.4948 56.5391L63.3298 57.1591C62.1938 58.6971 59.4058 58.6471 59.4948 56.5391Z" fill="#FDEBC5"/>
<path d="M56.3995 47.634C55.5655 46.434 53.2685 46.201 51.9445 46.399C50.6845 46.587 49.6725 47.49 48.8535 48.378C48.6555 42.197 60.5365 44.082 56.3995 47.634Z" fill="#D87231"/>
<path d="M55.6595 47.6341V47.8821C53.5465 47.2621 55.0695 48.5171 54.9155 49.2411C54.5485 50.9831 51.0115 51.7021 51.3295 47.3861C50.6745 48.0361 50.0495 48.3441 49.4735 49.1171C49.4585 49.1371 49.1365 49.0381 49.2255 49.6141H48.9775C49.2455 48.1851 50.6845 47.1931 51.9495 46.8901C53.5765 46.5031 54.2955 46.6271 55.6595 47.6341Z" fill="#311E14"/>
<path d="M56.6475 48.621C56.9545 49.837 56.6475 49.991 56.6475 50.105C54.5335 51.851 51.0215 51.707 49.2255 49.609C49.1365 49.033 49.4585 49.137 49.4735 49.112C50.5005 51.727 58.4525 51.618 55.6595 47.877V47.629C56.2705 48.081 56.1855 48.473 56.6525 48.621H56.6475Z" fill="#BA7F5A"/>
<path d="M56.3993 47.634C56.4283 47.674 56.5823 48.368 56.6473 48.626C56.1803 48.482 56.2703 48.086 55.6543 47.634C54.2903 46.632 53.5663 46.503 51.9443 46.89V46.394C53.2683 46.196 55.5653 46.434 56.3993 47.629V47.634Z" fill="#FBC992"/>
<path d="M71.9903 50.601C70.3183 52.516 66.0773 52.064 64.5693 50.105C64.8473 49.822 67.4763 52.793 71.9903 50.601Z" fill="#FBC992"/>
<path d="M65.8046 65.4479C62.0796 66.8219 62.8386 67.3329 57.8876 66.4399C55.1296 65.1999 59.7426 66.4249 61.9696 66.1919C63.1706 66.0679 65.9636 64.3569 65.8046 65.4479Z" fill="#FEF5F1"/>
<path d="M55.6596 47.882C58.4526 51.623 50.5006 51.732 49.4736 49.117C50.0496 48.344 50.6746 48.036 51.3296 47.386C51.0116 51.702 54.5486 50.983 54.9156 49.241C55.0696 48.517 53.5466 47.262 55.6596 47.882Z" fill="#EFEFF3"/>
</g>
</g>
<defs>
<linearGradient id="paint0_linear_79_378" x1="98.1184" y1="111.231" x2="106.8" y2="140.921" gradientUnits="userSpaceOnUse">
<stop stop-color="#5B93C9"/>
<stop offset="1" stop-color="#1977B2"/>
</linearGradient>
<linearGradient id="paint1_linear_79_378" x1="54.1817" y1="114.668" x2="53.6956" y2="120.834" gradientUnits="userSpaceOnUse">
<stop stop-color="#AA746A"/>
<stop offset="1" stop-color="#B98F7E"/>
</linearGradient>
<linearGradient id="paint2_linear_79_378" x1="60.6455" y1="62.9628" x2="54.4297" y2="72.5023" gradientUnits="userSpaceOnUse">
<stop stop-color="#FBCC9C"/>
<stop offset="1" stop-color="#F5A566"/>
</linearGradient>
<clipPath id="clip0_79_378">
<rect width="120" height="120" fill="white"/>
</clipPath>
</defs>
</svg>
