<svg width="120" height="120" viewBox="0 0 120 120" fill="none" xmlns="http://www.w3.org/2000/svg">
<g clip-path="url(#clip0_79_801)">
<mask id="mask0_79_801" style="mask-type:luminance" maskUnits="userSpaceOnUse" x="1" y="12" width="116" height="195">
<path d="M116.09 12H1.68018V206.75H116.09V12Z" fill="white"/>
</mask>
<g mask="url(#mask0_79_801)">
<path d="M32.4554 123.849C31.9884 127.145 34.4174 133.677 35.4204 137.597C36.8424 143.159 44.9334 171.247 45.0594 173.084C45.4214 178.273 40.0114 191.559 38.0124 197.237C38.3474 198.082 43.9254 198.323 44.3144 198.538C45.6884 199.299 44.7814 200.537 45.0534 200.952C45.2424 201.235 51.3974 204.221 47.8344 205.223C47.4834 205.323 41.4544 203.082 40.9764 204.478C36.3644 203.633 27.6904 202.636 27.2604 200.39C27.6754 200.501 28.2474 200.175 28.3734 199.834C28.7614 198.774 31.8464 179.858 32.0824 177.539C35.0314 148.349 28.9714 140.431 22.8164 113.255C23.0524 111.529 24.6104 111.419 25.7804 110.469C30.4504 115.921 30.1574 117.243 32.4554 123.844V123.849Z" fill="#1F1630"/>
<path d="M71.7562 84.459C79.8842 90.897 89.4602 95.042 98.4492 100.064C93.2122 100.379 102.558 116.524 102.899 121.987C102.93 122.496 102.731 122.936 103.271 123.288C100.48 126.636 98.5012 129.994 95.3012 132.392C94.2462 131.327 93.6582 130.928 92.5202 132.019C92.4622 131.411 92.5622 130.776 92.5202 130.162C93.9992 127.722 96.0722 125.786 97.7092 123.472C97.9982 123.062 99.5402 121.992 98.8212 120.869C98.9262 120.869 98.1242 120.134 100.306 120.313C98.3022 115.496 95.7782 110.952 93.2592 106.376C94.3402 105.059 95.4322 103.621 96.2242 102.105C96.0822 101.454 91.1032 99.429 90.2902 98.946C88.0442 97.608 79.0612 91.889 77.3132 91.516C72.8322 90.561 78.9822 102.21 81.0232 110.28C82.2932 115.312 84.4442 125.975 84.3602 130.902C82.5972 120.092 79.7432 102.399 73.9812 93.741C73.6242 91.348 72.0662 90.073 71.3842 88.168C71.1742 87.591 70.6652 86.956 70.6442 86.683C70.4552 84.285 71.6512 84.543 71.7562 84.453V84.459Z" fill="#1F1630"/>
<path d="M98.4491 100.064C100.616 102.11 107.595 125.455 106.976 127.376C106.871 127.701 106.189 127.533 105.863 127.559C105.438 127.013 105.538 126.274 105.123 125.702C105.092 125.586 105.155 125.445 105.123 125.329C104.551 123.152 104.431 123.566 102.899 121.987C102.558 116.524 93.2121 100.373 98.4491 100.064Z" fill="#203669"/>
<path d="M45.4315 82.2289C45.6315 86.1479 46.4755 90.5559 48.0295 94.1189C49.6555 105.196 53.1455 115.9 55.4435 126.819C58.3035 140.383 61.5725 156.529 62.1175 170.292C53.3025 159.394 44.9225 147.771 40.2425 134.433C39.3715 131.956 37.1095 124.568 36.9045 122.354C37.8915 121.541 45.5055 116.383 45.4315 115.853C42.3425 115.111 39.2535 114.368 36.1655 113.623L42.8395 95.7869C41.1075 94.0519 39.3785 92.3189 37.6505 90.5869C40.2315 87.5599 43.9105 81.1789 45.4365 82.2289H45.4315Z" fill="#69174C"/>
<path d="M36.9041 122.359C35.4411 123.571 34.3021 124.778 33.3841 126.447C32.4341 126.525 32.6021 124.259 32.4551 123.844C30.1571 117.238 30.4501 115.921 25.7801 110.469C23.4191 107.714 20.3861 105.584 17.9941 102.85C23.6151 99.569 29.2381 96.286 34.8631 93.001C35.9181 94.155 38.7201 96.485 38.7571 98.017L33.1951 116.225L37.6441 119.94C37.9801 121.231 36.8211 121.446 36.9041 122.354V122.359Z" fill="#551E53"/>
<path d="M46.1713 79.999C44.4763 81.079 45.4213 82.008 45.4313 82.229C43.9043 81.184 40.2263 87.56 37.6443 90.587C39.3763 92.322 41.1063 94.056 42.8343 95.787L36.1593 113.623C39.2483 114.364 42.3373 115.108 45.4263 115.853C45.4943 116.383 37.8863 121.541 36.8993 122.354C36.8153 121.441 37.9803 121.231 37.6393 119.94L33.1893 116.225L38.7523 98.017C38.7153 96.485 35.9133 94.155 34.8583 93.001C29.2373 96.282 23.6133 99.565 17.9883 102.85C20.3813 105.584 23.4143 107.709 25.7753 110.469C24.6053 111.419 23.0473 111.529 22.8103 113.255C28.9653 140.431 35.0313 148.349 32.0773 177.539C31.8413 179.858 28.7563 198.774 28.3673 199.834C28.2413 200.175 27.6693 200.501 27.2553 200.39C22.5173 199.262 6.40829 196.77 4.63929 195.93C3.94729 195.6 1.87429 193.926 1.67529 193.144V178.651C4.12029 164.001 5.78329 117.479 9.46229 107.678C14.5043 94.234 35.5453 94.643 45.0533 77.396C45.6463 77.947 45.8513 79.301 46.1663 79.999H46.1713Z" fill="#3C1537"/>
<path d="M55.4434 106.009C56.9024 108.669 57.8044 111.665 59.5204 114.184C59.5094 115.081 59.2474 115.344 59.5204 116.598C59.8454 118.088 68.2514 134.664 72.1244 144.282C65.7224 139.832 60.3804 133.053 55.4384 126.819C53.1344 115.905 49.6504 105.196 48.0234 94.119C49.2514 96.937 53.6594 102.761 55.4384 106.009H55.4434Z" fill="#40BBE9"/>
<path d="M84.3607 130.907C86.9847 147.005 88.4017 163.345 89.9227 179.585L89.1827 179.769C87.9817 164.494 85.7567 149.319 84.3607 134.066C83.2697 133.247 83.1067 125.744 82.5087 125.145C80.7347 123.388 81.7317 130.282 81.7687 131.274C80.1107 130.975 81.8057 123.503 80.2837 126.63C79.0827 129.091 76.4897 139.659 76.5737 142.425C75.8917 142.246 75.6817 143.033 75.4617 143.537C75.0887 143.07 74.8317 141.895 74.7217 141.307C76.2327 129.548 75.2837 117.595 74.3497 105.82C70.6287 103.983 74.9997 100.599 73.9767 93.741C79.7377 102.399 82.5927 120.092 84.3557 130.902L84.3607 130.907Z" fill="#0B65A7"/>
<path d="M93.2591 118.272C91.7951 118.329 92.2621 120.25 92.1471 121.247C91.7751 124.437 92.3151 127.045 92.5201 130.167C92.5621 130.781 92.4621 131.416 92.5201 132.025C92.7451 134.454 93.0131 140.069 93.6321 141.874C94.6811 144.917 97.6151 145.127 97.3421 146.334L92.8921 153.396H92.1521C91.4111 147.576 90.6691 141.755 89.9271 135.934C90.9661 126.531 87.9551 118.471 87.7031 113.082C91.4021 107.504 90.0851 115.422 93.2651 118.282L93.2591 118.272Z" fill="#551E53"/>
<path d="M90.2953 98.9509C91.1033 99.4339 96.0883 101.46 96.2293 102.11C95.4323 103.627 94.3403 105.064 93.2653 106.381C92.3523 107.499 88.2963 110.926 88.0753 111.214C85.4733 112.668 83.3113 104.944 81.0283 99.6969C84.1173 99.4479 87.2063 99.1999 90.2953 98.9509Z" fill="#551E53"/>
<path d="M98.8214 120.874C98.2974 120.853 93.6634 118.634 93.2594 118.272C90.0854 115.412 91.3974 107.489 87.6974 113.072C87.6974 113.035 86.9374 113.182 86.9584 112.888C88.2804 111.86 88.0074 111.293 88.0704 111.214C88.2904 110.931 92.3464 107.499 93.2594 106.381C95.7734 110.952 98.3024 115.501 100.306 120.318C98.1244 120.14 98.9264 120.879 98.8214 120.874Z" fill="#3C1537"/>
<path d="M90.2954 98.951C87.2064 99.2 84.1174 99.448 81.0284 99.697C79.8324 96.952 78.6304 94.213 77.3184 91.521C79.0664 91.894 88.0494 97.613 90.2954 98.951Z" fill="#551E53"/>
<path d="M77.3184 91.521C78.6254 94.213 79.8324 96.952 81.0284 99.697C83.3114 104.944 85.4674 112.668 88.0754 111.214C88.0124 111.293 88.2854 111.854 86.9634 112.888C86.9424 113.187 87.7034 113.035 87.7034 113.072C87.9554 118.461 90.9664 126.52 89.9274 135.923C90.6694 141.744 91.4114 147.565 92.1524 153.386H92.8924L97.3424 146.323C97.6154 145.116 94.6814 144.912 93.6324 141.863C93.0134 140.058 92.7454 134.444 92.5204 132.014C93.6584 130.923 94.2414 131.321 95.3014 132.387C98.5014 129.989 100.48 126.63 103.271 123.283C102.731 122.936 102.93 122.496 102.899 121.981C104.431 123.561 104.551 123.146 105.123 125.324C102.358 120.9 100.926 131.316 96.2244 131.825C94.8764 145.662 101.902 136.411 101.414 141.485C101.403 141.606 99.0104 142.204 101.23 142.787C102.143 143.028 104.168 142.55 105.123 142.787C106.54 143.133 106.199 143.568 106.608 144.644C107.39 146.701 113.912 176.762 114.023 179.386C114.248 184.806 113.036 189.927 111.798 195.18C107.973 198.648 106.734 198.947 101.23 198.522C98.2764 199.913 95.3064 201.031 92.1474 201.865C90.9824 194.482 90.6204 187 89.9224 179.569C88.4014 163.329 86.9894 146.99 84.3604 130.891C84.4444 125.964 82.2984 115.302 81.0234 110.27C78.9824 102.199 72.8324 90.551 77.3134 91.506L77.3184 91.521Z" fill="#1F1630"/>
<path d="M93.259 118.272C93.663 118.634 98.297 120.848 98.821 120.874C99.54 121.992 97.998 123.068 97.709 123.477C96.518 121.751 94.12 120.129 92.147 121.247C92.262 120.255 91.795 118.335 93.259 118.272Z" fill="#E1D7C8"/>
<path d="M49.5084 84.459C52.5994 88.814 57.9724 90.934 62.1124 94.119C62.0604 94.197 62.0234 95.525 61.7404 95.976C59.8404 98.993 57.2854 101.9 56.9174 105.636C56.3244 106.072 56.1774 106.098 55.4324 106.009C53.6544 102.761 49.2464 96.937 48.0184 94.119C46.4654 90.556 45.6204 86.148 45.4214 82.229C45.4104 82.008 44.4664 81.079 46.1614 79.999C47.2364 82.391 47.8034 82.79 49.4984 84.459H49.5084Z" fill="#F0EFEE"/>
<path d="M73.9811 93.7461C75.0041 100.599 70.6281 103.983 74.3541 105.825C75.2881 117.6 76.2321 129.553 74.7261 141.312C74.7051 141.191 74.7471 141.06 74.7261 140.94C74.1651 137.324 70.1511 112.982 70.6491 111.587C70.6701 111.529 71.4151 111.744 71.7621 111.03C71.7831 110.989 71.2581 110.679 71.3891 110.474C71.4421 110.39 72.3231 110.663 72.5021 110.291C74.0761 106.959 66.9241 107.809 67.6791 103.789C68.4611 103.097 69.7571 102.394 70.6441 101.748C70.7801 101.229 69.5791 100.431 69.1591 99.7071C68.6341 98.7941 68.3931 97.5611 67.3071 97.1041C68.6681 94.1311 70.0271 91.1581 71.3841 88.1841C72.0661 90.0891 73.6241 91.3641 73.9811 93.7571V93.7461Z" fill="#F0EFEE"/>
<path d="M61.0005 104.524C61.1265 107.693 59.5625 111.125 59.5155 114.184C57.7995 111.665 56.8915 108.669 55.4385 106.009C56.1835 106.098 56.3305 106.077 56.9235 105.636C58.0405 104.807 57.5475 104.062 58.2195 103.779C59.2685 103.333 60.8585 104.498 61.0005 104.524Z" fill="#90B3D5"/>
<path d="M51.733 12C51.681 12.373 51.817 12.903 51.733 13.112C51.203 14.45 49.508 16.497 48.768 17.945C47.903 17.331 45.494 21.004 43.946 22.778C35.346 32.632 37.77 32.884 37.272 45.446C37.219 46.773 34.643 50.121 38.384 58.081L37.272 57.708C36.448 55.541 36.506 52.241 34.307 51.018C32.213 22.169 37.996 28.025 51.733 12Z" fill="#3B4D73"/>
<path d="M37.2721 57.7031C37.4551 58.1911 37.0621 59.8281 38.7571 58.8161C39.4701 60.1541 39.8221 59.8651 39.8691 59.9281C41.0241 61.6121 43.4841 64.5561 45.4311 65.1281C37.9221 75.5121 42.2671 63.3121 32.8271 63.8271C33.6041 58.2381 30.4291 58.4641 30.6031 57.1361C30.6501 56.7741 33.5151 55.0271 34.3121 51.0081C36.5111 52.2251 36.4531 55.5261 37.2771 57.6981L37.2721 57.7031Z" fill="#203669"/>
<path d="M59.5199 12.373C60.7369 13.632 66.2049 13.889 70.2709 14.975C70.3029 16.743 69.7779 18.827 68.0469 19.435C62.4109 17.914 56.9539 15.715 51.7329 13.118C51.8169 12.908 51.6809 12.378 51.7329 12.005C54.3089 12.462 56.9439 12.184 59.5199 12.378V12.373Z" fill="#CAE3F3"/>
<path d="M77.6861 26.12L75.4611 25.008L75.0881 23.523C76.9301 23.691 76.8621 24.467 78.0531 22.038C80.6451 16.764 73.8871 15.946 70.2661 14.975C66.1941 13.889 60.7321 13.632 59.5151 12.373C67.0711 12.934 87.3141 15.075 77.6811 26.12H77.6861Z" fill="#3D5166"/>
<path d="M56.1832 20.92C56.8332 21.198 56.8862 21.277 56.9232 21.293C59.8772 30.486 59.7252 29.799 56.9232 35.04C56.1202 36.546 54.7292 37.995 53.9582 39.501C51.6602 43.955 50.7732 45.997 49.5082 51.018C49.0782 52.724 48.7532 54.497 48.3962 56.218C47.8612 56.79 47.3732 57.441 46.9112 58.076C43.5532 59.209 47.2622 56.334 45.7982 51.013C45.2842 49.145 43.6052 45.703 41.7212 45.068C43.3482 45.745 44.4662 46.374 45.2422 48.043C45.8612 42.051 47.6092 31.436 45.7982 26.304C46.1402 25.748 46.8222 25.727 47.2832 25.375C48.9732 24.084 53.8742 21.907 56.1832 20.915V20.92Z" fill="#CAE3F3"/>
<path d="M48.7682 17.945C47.6562 20.123 44.1772 26.078 47.2832 25.375C46.8272 25.727 46.1402 25.748 45.7982 26.304C47.6092 31.436 45.8612 42.051 45.2422 48.043C44.4662 46.38 43.3482 45.745 41.7212 45.068C41.6272 45.031 41.4382 44.3181 39.8692 44.323C36.8522 27.196 44.3872 24.42 44.6912 23.329C44.7542 23.103 43.8472 23.261 43.9512 22.773C45.4942 21.004 47.9032 17.326 48.7742 17.94L48.7682 17.945Z" fill="#90B3D5"/>
<path d="M68.0471 19.43C71.2161 20.285 75.5131 20.584 78.0581 22.033C76.8621 24.462 76.9301 23.686 75.0941 23.518C70.3871 23.087 54.6561 18.459 52.6621 18.318C50.5631 18.171 55.5741 20.658 56.1831 20.92C53.8741 21.912 48.9731 24.09 47.2831 25.38C44.1721 26.078 47.6511 20.128 48.7681 17.95C49.5081 16.502 51.2031 14.461 51.7331 13.118C56.9541 15.715 62.4111 17.908 68.0471 19.435V19.43Z" fill="#A8CFE9"/>
<path d="M39.869 44.328C38.825 44.333 38.458 45.031 38.384 45.073C38.311 45.11 37.833 45.021 37.272 45.446C37.77 32.884 35.346 32.632 43.946 22.778C43.847 23.266 44.749 23.108 44.686 23.334C44.382 24.425 36.852 27.206 39.864 44.328H39.869Z" fill="#7593B8"/>
<path d="M78.0579 22.033C75.5129 20.584 71.2159 20.291 68.0469 19.43C69.7779 18.821 70.3029 16.738 70.2709 14.97C73.8919 15.935 80.6499 16.759 78.0579 22.033Z" fill="#F0EFEE"/>
<path d="M75.0942 23.518L75.4662 25.003C75.2252 24.976 74.9102 25.055 74.7262 25.003C71.4522 24.037 65.8592 23.806 63.2352 23.145C62.2382 22.893 57.5632 21.534 56.9332 21.288C56.8962 21.272 56.8392 21.193 56.1932 20.915C55.5852 20.653 50.5732 18.165 52.6722 18.312C54.6662 18.454 70.3972 23.082 75.1042 23.512L75.0942 23.518Z" fill="#3C3A48"/>
<path d="M57.2954 56.218C55.0704 56.014 55.4804 66.45 59.8924 67.363C61.1104 73.266 65.7854 77.726 71.2004 79.999C71.5784 79.017 72.7854 78.781 73.6094 78.514C76.6574 77.511 77.8434 77.38 79.9114 74.426C78.8034 77.322 78.6624 78.23 76.5734 80.744C67.9574 83.782 57.7884 78.089 53.5854 70.338C50.7104 59.046 53.0764 50.362 53.9584 39.495C54.7344 37.995 56.1204 36.541 56.9234 35.035C57.1744 35.035 57.5994 34.946 57.6624 35.219C57.8934 36.2 56.3724 49.287 56.5504 54.172C56.5664 54.571 57.1384 53.616 57.6624 54.544C57.1384 54.933 57.2374 55.651 57.2904 56.218H57.2954Z" fill="#B05B3D"/>
<path d="M69.1592 86.6889C67.7692 88.4199 63.6492 91.8679 62.1122 94.1189C57.9722 90.9339 52.5992 88.8139 49.5082 84.4589C50.3692 85.3029 58.2822 91.8049 57.6682 88.7299C57.6052 88.4049 53.1922 85.5029 52.4782 84.6419C51.3082 83.2309 46.7272 74.1009 44.6912 71.4509C44.5442 69.0059 42.9602 68.8689 48.0292 65.8779C49.2562 70.6899 53.2712 77.1699 57.1112 80.3709C65.9532 87.7329 71.9772 83.1779 69.1592 86.6889Z" fill="#B05B3D"/>
<path d="M53.585 70.3379C57.788 78.0889 67.957 83.7769 76.573 80.7439C73.635 84.2799 73.178 83.2729 71.751 84.4589C71.646 84.5479 70.45 84.2849 70.639 86.6889H69.154C71.972 83.1779 65.943 87.7329 57.106 80.3709C53.265 77.1699 49.251 70.6899 48.023 65.8779C48.013 65.8309 48.81 65.5529 48.763 65.3219C48.7 64.9809 47.661 65.1909 47.651 65.1379C47.31 62.7299 48.511 58.7469 48.391 56.2179C48.747 54.4919 49.073 52.7179 49.503 51.0179C53.255 53.7989 48.894 66.1879 53.58 70.3379H53.585Z" fill="#8A3B2C"/>
<path d="M79.9114 74.426C77.8434 77.38 76.6574 77.511 73.6094 78.514C67.8944 78.33 62.3954 70.716 63.2304 65.506C63.2824 65.18 63.5034 65.112 63.6024 64.761C65.1244 62.861 65.5074 66.539 68.2364 68.476C74.0394 72.6 80.6194 69.378 82.5084 62.903C82.4924 63.008 83.1804 63.239 82.8804 64.944C82.4294 67.505 80.8874 71.886 79.9164 74.421L79.9114 74.426Z" fill="#F7B383"/>
<path d="M78.058 48.7879C79.354 49.2549 80.761 50.493 82.135 49.533C83.243 53.1069 83.825 56.7689 83.62 60.4949C83.374 60.7729 82.907 61.523 82.88 61.796L81.028 61.4229C81.448 60.841 81.967 59.041 81.212 58.448C79.501 62.887 70.896 62.053 71.389 56.963C71.436 56.491 73.32 51.1859 74.354 51.3909C74.501 53.6099 74.175 58.915 76.762 59.566C79.701 60.306 80.551 58.4059 80.283 55.6619C79.932 52.0199 74.585 47.5389 78.058 48.7879Z" fill="#E68C5B"/>
<path d="M49.508 84.4589C47.813 82.7899 47.247 82.3909 46.171 79.9989C45.856 79.3009 45.652 77.9469 45.059 77.3959C45.84 75.9629 44.838 73.9219 44.686 71.4509C46.722 74.1009 51.303 83.2309 52.473 84.6419C53.187 85.5029 57.599 88.4049 57.662 88.7299C58.282 91.7989 50.364 85.3029 49.503 84.4589H49.508Z" fill="#8A3B2C"/>
<path d="M75.4612 25.008L77.6862 26.12C78.9082 30.266 83.3472 36.494 82.5082 39.868C82.4192 39.831 80.7502 39.485 80.6562 39.495L74.7212 25.003C74.9052 25.055 75.2202 24.976 75.4612 25.003V25.008Z" fill="#E68C5B"/>
<path d="M47.6562 65.1379C46.1032 64.6399 45.5362 65.1699 45.4312 65.1379C43.4842 64.5659 41.0242 61.6179 39.8692 59.9379C39.4702 58.1959 41.1652 59.0359 41.3542 58.8259C44.5972 59.2199 45.2952 60.3059 46.9162 58.0809C47.3782 57.4459 47.8662 56.7949 48.4012 56.2229C48.5222 58.7529 47.3152 62.7349 47.6612 65.1439L47.6562 65.1379Z" fill="#B05B3D"/>
<path d="M66.934 63.281C67.044 63.36 68.823 65.285 68.047 65.138C62.422 62.788 69.2691 68.119 71.9401 68.481C74.4061 68.817 79.454 68.119 79.543 65.138C79.711 65.039 81.5211 62.121 82.5081 62.536C82.4921 62.657 82.5241 62.788 82.5081 62.908C80.6141 69.383 74.039 72.61 68.236 68.481C65.507 66.545 65.1241 62.866 63.6021 64.766C63.7701 64.157 64.033 63.559 63.975 62.908C64.038 62.872 64.384 62.992 64.347 62.536C64.473 62.588 64.935 61.838 66.945 63.281H66.934Z" fill="#782D2B"/>
<path d="M82.8754 61.791C82.7704 62.814 82.5084 62.494 82.5034 62.536C81.5164 62.121 79.7064 65.039 79.5384 65.138C79.3394 65.259 77.9384 65.674 77.3134 65.884C80.3994 62.51 72.0144 69.221 72.4914 62.541C72.9424 62.536 78.7354 64.582 81.0184 61.429L82.8704 61.801L82.8754 61.791Z" fill="#D67A4F"/>
<path d="M82.1351 46.558C82.0091 47.518 82.2251 48.557 82.1351 49.533C80.7551 50.493 79.3491 49.255 78.0581 48.788C76.3161 45.855 78.3781 45.635 78.4311 45.446C80.3301 44.344 80.7711 45.572 82.1411 46.558H82.1351Z" fill="#261D1D"/>
<path d="M80.65 39.495C80.745 39.485 82.419 39.831 82.503 39.868C84.691 40.76 83.673 41.783 83.243 43.955L78.793 42.471C78.814 42.255 77.402 39.81 80.645 39.495H80.65Z" fill="#33231E"/>
<path d="M83.2483 43.9549C82.9913 45.2669 82.2563 45.6139 82.1353 46.5579C80.7663 45.5659 80.3253 44.3439 78.4263 45.4459C78.6933 44.4379 78.6883 43.4829 78.7983 42.4709L83.2483 43.9549Z" fill="#F7B383"/>
<path d="M63.224 23.145C63.886 32.637 66.939 30.328 66.934 31.137C66.934 31.541 59.667 32.894 68.419 34.479C66.871 35.465 62.311 35.13 65.082 37.638C63.146 37.926 57.306 40.713 61.372 42.471C61.976 44.989 60.422 47.398 60.26 48.416C59.735 51.679 58.502 56.664 59.52 59.561C60.522 62.42 62.558 61.738 64.342 62.536C64.379 62.987 64.038 62.872 63.97 62.908C56.282 67.463 57.851 61.922 57.295 56.218C57.243 55.657 57.143 54.933 57.668 54.544C57.143 53.616 56.571 54.571 56.555 54.172C56.377 49.287 57.899 36.205 57.668 35.219C57.599 34.941 57.174 35.03 56.928 35.035C59.73 29.793 59.882 30.475 56.928 21.288C57.563 21.534 62.238 22.893 63.23 23.145H63.224Z" fill="#D67A4F"/>
<path d="M53.5853 70.338C48.9003 66.188 53.2603 53.799 49.5083 51.018C50.7733 45.997 51.6603 43.955 53.9583 39.501C53.0763 50.368 50.7103 59.046 53.5853 70.344V70.338Z" fill="#8A3B2C"/>
<path d="M73.6091 78.514C72.7851 78.786 71.5731 79.017 71.2001 79.999C65.7851 77.726 61.1101 73.266 59.8921 67.363C61.0051 66.744 62.1171 66.125 63.2301 65.506C62.4011 70.716 67.8941 78.33 73.6091 78.514Z" fill="#D67A4F"/>
<path d="M57.295 56.218C57.851 61.922 56.282 67.463 63.97 62.908C64.027 63.559 63.765 64.157 63.597 64.766C63.503 65.117 63.277 65.18 63.224 65.511C62.112 66.13 61 66.749 59.887 67.369C55.48 66.45 55.065 56.019 57.29 56.223L57.295 56.218Z" fill="#8A3B2C"/>
<path d="M70.6441 86.689C70.6651 86.967 71.1791 87.596 71.3841 88.174C70.0231 91.147 68.6641 94.121 67.3071 97.094C65.4531 96.723 63.5991 96.352 61.7451 95.982C62.0281 95.53 62.0601 94.203 62.1171 94.124C63.6551 91.873 67.7741 88.426 69.1641 86.694H70.6491L70.6441 86.689Z" fill="#D67A4F"/>
<path d="M74.7211 25.0079L80.6561 39.5009C77.4131 39.8149 78.8241 42.2609 78.8031 42.4759C78.6981 43.4829 78.6981 44.4379 78.4311 45.4509C78.3781 45.6449 76.3161 45.8599 78.0581 48.7929C74.5851 47.5449 79.9321 52.0259 80.2831 55.6669C80.5451 58.4119 79.6951 60.3109 76.7621 59.5709C74.1751 58.9209 74.5011 53.6159 74.3541 51.3959C74.0701 47.1089 75.8961 43.6039 71.0171 40.6179C71.0481 39.2639 71.2631 38.4719 70.0881 37.6429C68.5401 37.7949 66.5141 37.4329 65.0821 37.6429C62.3111 35.1349 66.8711 35.4709 68.4191 34.4839C59.6721 32.8939 66.9341 31.5459 66.9341 31.1419C66.9391 30.3339 63.8911 32.6479 63.2241 23.1499C65.8481 23.8109 71.4421 24.0419 74.7161 25.0079H74.7211Z" fill="#F7B383"/>
<path d="M74.3491 51.3859C73.3151 51.1809 71.4261 56.4859 71.3841 56.9579L70.2711 56.2129C70.7541 53.3269 72.4121 49.2809 70.2711 46.5529C69.3901 45.4299 67.5271 44.5429 66.1941 45.4399C66.1471 45.4719 65.7851 45.3559 65.8221 45.8129C65.1921 45.8129 64.5521 45.9809 63.9701 46.1859C62.7521 46.6109 63.3501 46.8679 63.2301 46.9309C62.2481 47.4339 61.2781 48.0059 60.2651 48.4159C60.4281 47.3979 61.9811 44.9889 61.3771 42.4709C64.5921 41.8509 67.8051 41.2319 71.0171 40.6129C75.8961 43.5929 74.0701 47.1039 74.3541 51.3909L74.3491 51.3859Z" fill="#D67A4F"/>
<path d="M71.3842 56.963C70.8962 62.053 79.4962 62.887 81.2072 58.448C81.9622 59.036 81.4432 60.836 81.0232 61.423C78.7402 64.582 72.9482 62.531 72.4962 62.536H72.1242C71.7352 61.644 69.7002 60.217 69.5262 59.561C69.0862 57.876 70.1142 57.142 70.2662 56.218L71.3792 56.963H71.3842Z" fill="#8A3B2C"/>
<path d="M45.7981 51.0179C47.2621 56.3389 43.5531 59.2089 46.9111 58.0809C45.2901 60.3059 44.5921 59.2199 41.3491 58.8259C41.6481 58.4899 45.0641 51.9259 45.7981 51.0229V51.0179Z" fill="#8A3B2C"/>
<path d="M69.5321 59.561C69.7051 60.217 71.7351 61.639 72.1291 62.536C72.0561 62.536 71.4891 63.653 71.2001 63.648C70.9691 63.648 70.0091 61.917 66.9341 63.276C64.9251 61.833 64.4631 62.588 64.3371 62.531C62.5531 61.738 60.5171 62.415 59.5151 59.555C62.7941 59.109 66.6881 61.602 69.5261 59.555L69.5321 59.561Z" fill="#E68C5B"/>
<path d="M68.0469 65.1379C72.0399 66.8069 72.9419 67.3319 77.3129 65.8839C77.9379 65.6789 79.3389 65.2589 79.5379 65.1379C79.4489 68.1189 74.4059 68.8169 71.9349 68.4809C69.2639 68.1189 62.4159 62.7879 68.0409 65.1379H68.0469Z" fill="#F0EFEE"/>
<path d="M72.124 62.5359H72.496C72.019 69.2209 80.404 62.5039 77.318 65.8779C72.948 67.3319 72.045 66.8019 68.052 65.1329C68.828 65.2799 67.05 63.3539 66.939 63.2759C70.014 61.9169 70.969 63.6429 71.205 63.6479C71.494 63.6479 72.061 62.5309 72.134 62.5359H72.124Z" fill="#E68C5B"/>
<path d="M63.9704 105.269C64.1224 105.385 63.9434 107.515 66.5674 107.499C66.8404 107.793 70.2504 109.719 71.3894 110.474C71.2584 110.679 71.7834 110.989 71.7624 111.03C71.4154 111.749 70.6704 111.529 70.6494 111.587C69.8204 110.485 65.2874 110.081 64.5314 110.474C64.2114 110.642 62.0864 116.776 62.1234 117.348C62.2174 118.886 68.7664 130.959 69.9094 133.698C70.7864 135.797 72.5644 147.624 74.7324 140.945C74.7534 141.065 74.7114 141.197 74.7324 141.317C74.8424 141.905 75.0994 143.08 75.4714 143.547C74.5274 145.725 75.0044 147.472 74.1754 149.493C73.7774 147.64 72.8324 146.019 72.1344 144.293C68.2624 134.674 59.8564 118.098 59.5304 116.608C59.2584 115.354 59.5204 115.092 59.5304 114.195C59.5724 111.135 61.1414 107.704 61.0154 104.534C61.1784 104.561 61.8974 103.711 63.9804 105.28L63.9704 105.269Z" fill="#52132F"/>
<path d="M67.3072 97.094C68.3932 97.55 68.6402 98.784 69.1592 99.697L63.9702 105.269C61.8862 103.7 61.1682 104.555 61.0052 104.524C60.8632 104.498 59.2732 103.338 58.2242 103.779C57.5472 104.062 58.0452 104.807 56.9282 105.636C57.2902 101.9 59.8512 98.993 61.7502 95.976C63.6042 96.347 65.4582 96.718 67.3122 97.089L67.3072 97.094Z" fill="#52132F"/>
<path d="M70.6443 111.587C70.1513 112.982 74.1653 137.329 74.7213 140.94C72.5543 147.619 70.7803 135.792 69.8993 133.693C68.7553 130.954 62.2123 118.886 62.1123 117.343C62.0753 116.771 64.2003 110.637 64.5213 110.469C65.2713 110.076 69.8103 110.48 70.6393 111.581L70.6443 111.587Z" fill="#931E37"/>
<path d="M71.3842 110.469C70.2502 109.719 66.8352 107.793 66.5622 107.494C64.2422 104.965 66.0212 105.238 67.6742 103.779C66.9182 107.798 74.0702 106.948 72.4962 110.28C72.3182 110.653 71.4362 110.38 71.3842 110.464V110.469Z" fill="#F3DCA9"/>
<path d="M67.6744 103.784C66.0214 105.248 64.2424 104.97 66.5624 107.499C63.9384 107.515 64.1164 105.385 63.9644 105.269L69.1544 99.6969C69.5744 100.426 70.7754 101.223 70.6394 101.738C69.7524 102.383 68.4564 103.091 67.6744 103.779V103.784Z" fill="#931E37"/>
<path d="M70.2712 56.218C70.1192 57.142 69.0912 57.882 69.5322 59.561C66.6932 61.607 62.7992 59.115 59.5202 59.561C58.5022 56.664 59.7402 51.674 60.2602 48.416C61.2782 48.006 62.2432 47.429 63.2242 46.931C64.6252 49.859 67.6532 49.591 69.5262 47.303C69.5792 47.24 70.4552 47.608 70.2662 46.558C72.4072 49.287 70.7492 53.337 70.2662 56.218H70.2712Z" fill="#F7B383"/>
<path d="M71.0113 40.6129C67.7973 41.2319 64.5833 41.8509 61.3723 42.4709C57.3063 40.7129 63.1463 37.9259 65.0823 37.6379C66.5143 37.4279 68.5353 37.7899 70.0883 37.6379C71.2633 38.4669 71.0483 39.2589 71.0173 40.6129H71.0113Z" fill="#261D1D"/>
<path d="M38.3842 45.0729C39.3762 45.2099 41.1442 44.8789 41.7212 45.0729C43.6052 45.7079 45.2842 49.1499 45.7982 51.0179C45.0642 51.9209 41.6482 58.4849 41.3492 58.8209C41.1602 59.0359 39.4652 58.1909 39.8642 59.9329C39.8222 59.8699 39.4652 60.1589 38.7522 58.8209C38.6202 58.5789 38.5002 58.3279 38.3792 58.0759C34.6382 50.1159 37.2142 46.7679 37.2672 45.4399C37.8282 45.0149 38.3052 45.1049 38.3792 45.0679L38.3842 45.0729Z" fill="#995137"/>
<path d="M38.384 58.076C38.5 58.328 38.626 58.574 38.757 58.821C37.062 59.828 37.461 58.191 37.272 57.708L38.384 58.081V58.076Z" fill="#5F9CD4"/>
<path d="M39.8693 44.328C41.4383 44.318 41.6323 45.031 41.7213 45.073C41.1443 44.879 39.3813 45.21 38.3843 45.073C38.4583 45.036 38.8253 44.339 39.8693 44.328Z" fill="#CAE3F3"/>
<path d="M38.5733 46.558C42.5193 45.189 47.8193 53.647 41.5383 50.273C38.5053 58.097 35.5303 47.618 38.5733 46.558Z" fill="#782D2B"/>
<path d="M69.5323 47.3029C67.6583 49.5909 64.6313 49.8639 63.2303 46.9309C63.3503 46.8679 62.7573 46.6109 63.9703 46.1859C64.0953 47.2029 65.7693 46.5269 66.5673 46.1859C66.9133 46.0389 67.2703 45.8709 67.3073 45.4399C68.5293 45.7239 67.0713 48.3209 69.5323 47.2979V47.3029Z" fill="#0D1924"/>
<path d="M70.2713 46.558C70.4603 47.608 69.5843 47.24 69.5323 47.303C67.0713 48.326 68.5293 45.729 67.3073 45.446C66.9813 45.372 66.5513 45.493 66.1943 45.446C67.5273 44.548 69.3903 45.435 70.2713 46.558Z" fill="#E1D7C8"/>
<path d="M65.8224 45.8129C66.2524 45.8129 66.5934 45.7129 66.5624 46.1859C65.7644 46.5269 64.0904 47.2029 63.9644 46.1859C64.5474 45.9809 65.1874 45.8079 65.8174 45.8129H65.8224Z" fill="#CAE3F3"/>
<path d="M67.3071 45.44C67.2701 45.865 66.9131 46.033 66.5671 46.186C66.5981 45.713 66.2571 45.818 65.8271 45.813C65.7851 45.362 66.1471 45.472 66.2001 45.44C66.5561 45.488 66.9871 45.367 67.3121 45.44H67.3071Z" fill="#63637D"/>
</g>
</g>
<defs>
<clipPath id="clip0_79_801">
<rect width="120" height="120" fill="white"/>
</clipPath>
</defs>
</svg>
