<svg width="120" height="120" viewBox="0 0 120 120" fill="none" xmlns="http://www.w3.org/2000/svg">
<g clip-path="url(#clip0_79_62)">
<mask id="mask0_79_62" style="mask-type:luminance" maskUnits="userSpaceOnUse" x="8" y="13" width="104" height="208">
<path d="M111.454 13.809H8.5459V220.431H111.454V13.809Z" fill="white"/>
</mask>
<g mask="url(#mask0_79_62)">
<path d="M76.4293 64.1039C76.4743 65.8959 76.0963 66.5949 75.2703 68.2729C73.8683 71.1259 70.9863 73.9999 68.3213 75.6849C65.7603 77.3009 61.3733 79.0279 58.3643 78.9289C56.7933 78.8759 52.4063 77.3049 50.9513 76.3799C50.8323 76.3059 49.2283 74.8429 48.8663 74.5259C48.2333 73.9749 46.5393 72.3019 46.0873 71.7469C44.6403 69.9579 43.1643 67.4299 42.3833 65.2629C43.1353 65.2509 43.0413 61.7479 43.7723 60.0539C45.6883 55.6219 48.3943 57.9319 51.1853 59.7089C51.4893 59.9019 52.8593 60.9209 52.8053 61.3279C52.2913 61.9199 53.3353 64.0709 53.7303 64.5719C52.3533 64.6219 53.5663 67.8569 53.9603 68.6259C54.1913 69.0739 54.6353 68.9429 54.6553 68.9719C54.7333 69.0869 54.2233 69.1569 55.5803 70.3609C58.6103 73.0459 63.1253 73.0909 65.0783 69.2019C66.3113 66.7429 65.7313 66.5659 66.0033 64.3379C66.1223 63.3589 66.2823 62.2949 66.4673 61.3279C66.5333 60.9949 66.6813 60.7409 66.6973 60.4029C69.4323 59.6259 72.4583 56.6579 72.8363 56.6989C75.0153 58.9109 76.3433 60.9089 76.4253 64.1119L76.4293 64.1039Z" fill="#35140F"/>
<path d="M36.8279 43.0289C37.2109 43.8999 37.9959 44.6609 38.2179 45.6929C38.4109 46.5809 38.6209 50.8399 38.4479 51.4819C37.9179 53.4589 32.3799 52.0779 36.7129 54.1459C37.6129 54.5729 39.8339 54.8119 40.9969 55.3049C41.0009 55.5349 40.9889 55.7699 40.9969 55.9999C28.7409 56.5839 28.8399 43.3079 36.8279 43.0289Z" fill="#6A1A22"/>
<path d="M57.2079 15.93L56.9779 16.276L57.5579 16.621C61.9279 15.248 68.1859 18.64 68.3259 16.736C68.3499 16.391 67.4289 16.49 67.4009 16.157C68.5109 16.115 70.6609 14.718 75.7379 17.082C76.4039 17.567 77.0829 18.299 77.5929 18.702C75.9929 22.673 78.6249 20.531 81.2969 22.406C78.9369 21.9 81.5769 25.547 83.0319 28.195C83.6119 28.121 82.5349 24.791 81.9919 24.375L82.4559 24.26C82.7319 24.815 83.5869 26.612 83.6159 26.924C83.9899 30.97 78.7849 28.988 83.8459 33.873C79.4959 39.098 83.3939 38.161 83.6159 39.896C83.6859 40.438 82.3449 42.979 81.9959 43.715C81.9839 43.744 81.7569 43.732 81.5309 44.18C81.3129 44.612 80.9389 44.283 80.8369 44.525C80.2609 47.387 80.3759 50.322 80.1419 53.208C80.1049 53.657 79.8169 53.891 79.9109 54.368C78.9329 54.405 78.2049 54.623 78.0569 54.253C77.3539 45.356 78.0529 35.932 73.6579 27.849C67.5809 26.106 61.1509 26.188 54.8979 26.809C49.9269 27.303 48.6109 29.038 45.9799 27.039C40.9349 32.179 40.8609 47.86 41.0009 55.293C39.8379 54.8 37.6179 54.565 36.7169 54.134C32.3839 52.07 37.9259 53.447 38.4519 51.469C38.6249 50.828 38.4109 46.569 38.2219 45.68C37.9999 44.653 37.2149 43.888 36.8319 43.016C36.4659 42.186 35.4589 41.314 35.4429 40.352C35.4299 39.719 36.8449 36.845 36.8319 36.648C36.7299 34.859 32.4699 34.658 38.2219 30.625C34.9119 27.22 36.6309 26.99 37.7569 22.751C38.1769 21.884 38.8299 21.987 38.9169 21.941C39.8249 21.423 42.3579 20.938 42.7359 20.552C43.2999 19.976 43.1469 18.722 43.3159 18.467C44.0599 17.328 45.6919 16.231 47.0199 15.918C51.1649 14.944 51.5959 17.419 53.9689 14.528C54.4579 14.639 55.5139 14.397 57.2119 15.918L57.2079 15.93Z" fill="#0A0909"/>
<path d="M66.241 15.6999C67.026 15.9799 66.184 16.2099 67.401 16.1649C67.429 16.4979 68.354 16.3989 68.326 16.7449C68.186 18.6479 61.924 15.2559 57.558 16.6289L56.978 16.2839L57.208 15.9389C57.377 16.0869 57.706 15.5809 61.608 15.2439C64.239 15.0179 62.405 14.3429 66.241 15.7079V15.6999Z" fill="#0A0909"/>
<path d="M75.7338 17.0899C70.6568 14.7219 68.5058 16.1239 67.3958 16.1649C66.1788 16.2099 67.0218 15.9799 66.2368 15.6999C70.1958 11.2309 74.1468 15.9349 75.7338 17.0899Z" fill="#F8F8FA"/>
<path d="M53.9641 14.5409C51.5921 17.4309 51.1611 14.9559 47.0161 15.9299C47.0741 13.2949 52.2131 14.1379 53.9641 14.5409Z" fill="#F8F8FA"/>
<path d="M81.7571 22.6479C81.7291 22.6199 81.3751 22.4759 81.2931 22.4179C78.6201 20.5429 75.9891 22.6849 77.5891 18.7139C78.2301 19.2279 83.9901 22.0889 81.7571 22.6529V22.6479Z" fill="#D9D7D7"/>
<path d="M43.3118 18.48C43.1428 18.734 43.2948 19.988 42.7318 20.564C42.3538 20.95 39.8208 21.436 38.9128 21.954C38.1438 20.539 41.7738 18.85 43.3118 18.48Z" fill="#D9D7D7"/>
<path d="M81.2927 22.414C81.3747 22.472 81.7247 22.616 81.7567 22.644C82.1067 22.998 82.2387 23.833 82.4517 24.264L81.9877 24.379C82.5347 24.799 83.6117 28.125 83.0277 28.199C81.5717 25.551 78.9287 21.9 81.2927 22.41V22.414Z" fill="#0A0909"/>
<path d="M61.6079 15.2359C57.7059 15.5729 57.3729 16.0779 57.2079 15.9299C55.8599 14.7459 61.5869 12.6449 61.6079 15.2359Z" fill="#F8F8FA"/>
<path d="M82.6833 43.954C83.2173 44.665 84.7143 44.949 85.2323 45.689C87.1523 48.435 85.5853 54.154 79.9033 54.372C79.8133 53.899 80.0963 53.665 80.1333 53.213C84.6933 51.774 86.5923 46.503 81.5233 44.18C81.7493 43.732 81.9713 43.748 81.9883 43.715C81.9753 44.077 82.3293 43.9 82.6833 43.945V43.954Z" fill="#4C1916"/>
<path d="M80.1382 53.217C80.3722 50.326 80.2572 47.391 80.8322 44.533C80.9352 44.291 81.3092 44.616 81.5272 44.188C86.5972 46.511 84.6972 51.778 80.1382 53.221V53.217Z" fill="#6A1A22"/>
<path d="M28.721 132.887C28.412 142.915 26.838 158.238 27.331 167.164C27.36 167.707 27.787 168.701 27.795 168.784C27.948 170.4 27.915 172.139 28.026 173.763L28.605 175.037C31.59 176.197 41.659 180.016 43.312 181.985C44.146 182.98 43.752 184.765 43.657 186.154C42.897 185.961 36.137 180.777 35.899 182.101C37.021 194.735 36.816 207.418 36.824 220.082C38.756 220.028 44.862 220.834 45.857 219.502C45.857 219.662 45.795 219.905 45.972 219.966C46.49 220.147 52.974 220.151 54.54 220.197C55.025 218.268 54.598 216.246 55.35 216.492C55.26 217.175 55.095 220.254 54.77 220.431H32.306C30.789 206.621 30.377 192.728 29.876 178.861C28.663 181.451 28.548 187.306 27.791 189.398C27.52 189.361 26.887 188.535 26.866 188.473C26.809 188.292 26.924 187.967 26.866 187.778C23.746 177.59 20.592 164.064 20.383 153.502C20.214 145.114 21.855 136.592 25.016 128.837C24.798 124.632 24.51 120.43 24.552 116.215C24.63 108.482 24.654 113.634 25.711 118.185C26.616 122.099 27.931 125.992 29.185 129.767C29.358 131.103 28.737 132.373 28.721 132.891V132.887Z" fill="#110F19"/>
<path d="M66.4712 61.3239C66.2862 62.2909 66.1302 63.3549 66.0072 64.3339C63.5652 67.3969 60.3542 68.1989 56.7442 66.6489C56.2552 66.4389 53.9152 64.7939 53.7342 64.5639C53.3352 64.0629 52.2952 61.9159 52.8092 61.3199C56.3162 63.4379 62.8252 63.1289 66.4752 61.3199L66.4712 61.3239Z" fill="#F8F8FA"/>
<path d="M65.0822 69.1979C62.3432 71.7669 58.8902 70.7969 55.5842 70.3569C54.2282 69.1519 54.7372 69.0829 54.6592 68.9669L56.7442 66.6529C60.3582 68.2029 63.5652 67.3969 66.0072 64.3379C65.7312 66.5659 66.3152 66.7389 65.0822 69.2019V69.1979Z" fill="#C7224E"/>
<path d="M55.5879 70.3569C58.8939 70.8009 62.3479 71.7669 65.0859 69.1979C63.1329 73.0829 58.6229 73.0419 55.5879 70.3569Z" fill="#C04456"/>
<path d="M53.7341 64.5679C53.9191 64.7979 56.2551 66.4429 56.7441 66.6529L54.6591 68.9669C54.6391 68.9349 54.1951 69.0699 53.9641 68.6219C53.5701 67.8529 52.3571 64.6179 53.7341 64.5679Z" fill="#7F1433"/>
<path d="M44.702 40.0189C43.472 39.5299 43.522 37.3099 43.776 36.0799C44.952 30.3779 54.174 30.5299 54.894 33.4159C56.094 38.2269 51.062 35.2949 47.6 36.7749C46.852 37.0959 44.878 39.2089 44.706 40.0189H44.702Z" fill="#0A0909"/>
<path d="M52.809 59.24C57.052 60.531 60.115 62.274 66.706 60.399C66.685 60.736 66.537 60.991 66.475 61.324C62.829 63.133 56.32 63.442 52.809 61.324C52.863 60.917 51.494 59.898 51.189 59.704C51.568 59.404 50.988 58.874 51.304 58.779C51.378 58.755 52.55 59.162 52.809 59.244V59.24Z" fill="#9F1D35"/>
<path d="M57.4388 50.9019C54.2518 51.5189 53.8658 54.2489 57.3228 54.8409C61.9318 55.6259 65.1678 52.3119 63.6918 55.5349C61.4598 56.5059 60.4148 57.0939 57.4388 56.6949C57.2858 56.6739 55.5598 56.2759 55.4688 56.2299C52.9608 55.0259 53.7508 50.6099 57.4388 50.9019Z" fill="#6A1A22"/>
<path d="M53.9636 42.1039C49.1336 38.7649 46.1566 43.9079 44.9316 43.7229C45.2236 40.2409 50.6216 38.0499 53.3846 39.5549C54.0706 39.9289 55.4606 41.9879 53.9636 42.1039Z" fill="#35140F"/>
<path d="M56.7437 57.8499C56.7967 57.8089 56.6327 57.5539 57.4387 56.6909C60.4147 57.0939 61.4597 56.5019 63.6917 55.5309C64.0987 55.3549 64.0987 55.7579 64.7317 54.8369C65.7307 55.5269 59.8307 61.5869 56.7437 57.8459V57.8499Z" fill="#943531"/>
<path d="M54.8939 26.8169C53.6809 27.8489 50.4079 28.2979 48.5249 29.1319C45.0219 30.6859 43.1969 31.8049 43.7759 36.0799C43.5219 37.3099 43.4759 39.5299 44.7019 40.0189C44.4749 41.0879 44.6769 42.6459 44.9319 43.7229C46.1569 43.9039 49.1339 38.7649 53.9639 42.1039C54.0299 42.1489 54.3719 43.3529 54.7739 43.4929C55.2759 43.6699 58.4249 39.8219 58.5939 51.0209C57.5369 51.4199 57.4919 50.9099 57.4339 50.9059C53.7469 50.6099 52.9569 55.0299 55.4649 56.2339C55.5559 56.2799 57.2819 56.6779 57.4339 56.6989C56.6289 57.5619 56.7929 57.8169 56.7399 57.8579C56.2259 58.2489 53.7589 58.7749 52.8009 59.2479C52.5419 59.1699 51.3699 58.7629 51.2959 58.7829C50.9799 58.8779 51.5589 59.4129 51.1809 59.7089C48.3889 57.9319 45.6879 55.6219 43.7679 60.0539C43.0359 61.7479 43.1309 65.2549 42.3789 65.2629C41.0749 61.6569 41.0879 59.6429 40.9889 55.9999C40.9809 55.7699 40.9929 55.5349 40.9889 55.3049C40.8489 47.8719 40.9229 32.1909 45.9679 27.0519C48.5949 29.0499 49.9149 27.3109 54.8849 26.8219L54.8939 26.8169Z" fill="#943531"/>
<path d="M49.1007 46.7329C51.1107 47.3169 51.8837 44.8709 51.4147 43.3739C51.1437 42.5059 50.3007 45.2898 50.2557 41.8688C58.2317 41.2808 53.7587 52.3819 49.0967 46.7329H49.1007Z" fill="#F8F8FA"/>
<path d="M50.2598 41.8689C50.3008 45.2939 51.1478 42.5059 51.4198 43.3739C51.8878 44.8709 51.1148 47.3169 49.1048 46.7329C47.4678 44.7509 47.0528 42.1079 50.2638 41.8689H50.2598Z" fill="#0A0909"/>
<path d="M79.9028 54.3759C85.5848 54.1539 87.1518 48.4389 85.2318 45.6929C84.7138 44.9529 83.2208 44.6689 82.6828 43.9579C87.7478 44.6279 87.2908 51.7199 83.7228 54.1499C81.2308 55.8479 78.0778 55.3009 77.8188 55.8849C77.7978 58.2779 77.6338 63.3059 76.4288 64.1079C76.3468 60.9089 75.0188 58.9069 72.8398 56.6949C72.4618 56.6579 69.4358 59.6219 66.7018 60.3989C60.1108 62.2779 57.0478 60.5349 52.8048 59.2399C53.7628 58.7669 56.2298 58.2409 56.7438 57.8499C59.8308 61.5919 65.7308 55.5309 64.7318 54.8409C64.0948 55.7619 64.0948 55.3589 63.6918 55.5349C65.1678 52.3119 61.9278 55.6259 57.3228 54.8409C53.8658 54.2529 54.2558 51.5229 57.4388 50.9019C57.4958 50.9059 57.5408 51.4159 58.5978 51.0169C58.4288 39.8179 55.2798 43.6659 54.7788 43.4889C54.3758 43.3489 54.0338 42.1449 53.9688 42.0989C55.4648 41.9839 54.0748 39.9249 53.3888 39.5499C50.6258 38.0459 45.2278 40.2369 44.9358 43.7189C44.6808 42.6419 44.4798 41.0839 44.7058 40.0149C44.8778 39.2049 46.8518 37.0919 47.5998 36.7709C51.0658 35.2949 56.0938 38.2219 54.8938 33.4119C54.1738 30.5259 44.9518 30.3739 43.7758 36.0759C43.1968 31.7999 45.0218 30.6819 48.5248 29.1279C50.4078 28.2929 53.6848 27.8409 54.8938 26.8129C61.1468 26.1929 67.5768 26.1099 73.6538 27.8539C78.0488 35.9319 77.3498 45.3599 78.0528 54.2569C78.1968 54.6269 78.9288 54.4089 79.9068 54.3719L79.9028 54.3759Z" fill="#CA6141"/>
<path d="M65.8919 31.447C68.8019 30.986 72.7909 32.45 74.1139 35.266C75.2699 41.89 73.2099 34.526 63.8069 36.307C62.8989 36.031 62.3639 32.002 65.8919 31.443V31.447Z" fill="#0A0909"/>
<path d="M67.7458 39.555C69.4688 39.217 72.3468 39.686 73.1888 41.524C72.8068 42.819 69.0078 38.979 65.2008 42.564C64.4318 42.062 66.2898 39.838 67.7498 39.555H67.7458Z" fill="#35140F"/>
<path d="M61.4917 50.437C63.9387 49.607 65.5337 55.042 62.1867 50.902C61.2537 51.083 60.8507 50.655 61.4917 50.437Z" fill="#AA4435"/>
<path d="M68.7853 46.733C69.6693 46.162 70.1293 43.719 69.2503 43.029C69.3283 42.803 69.2003 42.256 69.2503 41.869C73.2953 41.869 73.7433 45.397 72.6093 48.587C71.4783 47.888 70.0973 47.695 68.9043 47.198C68.6953 47.111 68.8183 46.749 68.7893 46.733H68.7853Z" fill="#F8F8FA"/>
<path d="M69.2505 41.869C69.2005 42.256 69.3285 42.803 69.2505 43.029C69.2295 43.094 68.2055 42.926 69.1355 43.954L69.2505 43.029C70.1345 43.723 69.6695 46.162 68.7855 46.733C68.6705 46.68 67.1285 46.795 66.3555 46.038C64.7935 44.517 66.1705 41.865 69.2505 41.869Z" fill="#0A0909"/>
<path d="M69.2508 43.0291L69.1358 43.9541C68.2058 42.9261 69.2298 43.0901 69.2508 43.0291Z" fill="#B1DFF3"/>
<path d="M70.4099 84.2539L63.2319 91.0869C63.5929 91.2999 63.4039 91.6089 63.4619 91.8969C63.2929 92.4109 62.0639 92.9779 61.6079 93.0559C61.5499 93.0639 60.5059 93.0679 60.4479 93.0559C59.0129 92.7809 58.5119 91.6989 57.8989 91.2019C58.0429 91.2139 58.3469 90.9299 58.3639 90.8559C58.6879 89.3889 58.1209 81.7619 58.3639 78.9289C61.3729 79.0279 65.7599 77.3049 68.3209 75.6849C69.6119 78.3619 70.1669 81.3059 70.4059 84.2539H70.4099Z" fill="#B7533B"/>
<path d="M58.364 78.9249C58.121 81.7579 58.688 89.3849 58.364 90.8519C58.347 90.9259 58.047 91.2099 57.899 91.1979C57.854 91.1609 57.714 91.2349 57.669 91.1979C56.76 90.4489 53.615 87.2549 52.11 85.8689C51.921 82.9129 48.463 83.3409 50.026 78.9209C50.355 78.0819 50.597 77.2029 50.951 76.3719C52.402 77.2969 56.789 78.8679 58.364 78.9209V78.9249Z" fill="#6A1A22"/>
<path d="M52.1142 85.873C51.5922 85.392 48.4762 83.172 48.4102 82.749C48.9242 81.466 49.5282 80.212 50.0302 78.929C48.4682 83.349 51.9252 82.921 52.1142 85.878V85.873Z" fill="#6A1A22"/>
<path d="M65.7774 96.76C66.0274 97.328 67.6514 100.148 67.6314 100.35C67.6234 100.44 66.4474 101.632 66.3564 101.624C65.9204 101.579 62.5294 94.898 62.0724 93.981C61.9204 93.673 61.7564 93.364 61.6084 93.056C62.0604 92.978 63.2894 92.411 63.4624 91.897C63.5154 92.16 65.3944 95.889 65.7774 96.76Z" fill="#D48E5E"/>
<path d="M102.602 112.741C103.778 120.742 105.591 131.81 106.307 139.49C106.94 146.27 107.211 164.154 107.466 165.429C107.491 165.552 108.177 165.014 108.391 167.398C108.095 173.499 107.947 179.593 107.696 185.694C106.952 185.562 99.0134 185.969 97.9694 186.158C96.8924 184.789 98.5363 179.63 98.8943 176.316C99.0753 174.638 99.9674 163.542 99.8194 162.884C99.8024 162.81 99.5023 162.526 99.3543 162.539C100.719 149.39 99.6584 140.419 96.1104 127.682C96.9604 121.932 97.8103 116.18 98.6593 110.427C103.355 109.259 99.8154 111.594 102.598 112.741H102.602Z" fill="url(#paint0_linear_79_62)"/>
<path d="M99.358 162.534C98.528 170.506 96.702 178.334 95.654 186.274C94.079 184.403 94.638 187.137 94.264 188.009C94.236 188.074 94.289 188.173 94.264 188.239C94.231 188.333 93.13 189.772 92.875 189.398C91.818 187.454 91.177 182.331 90.326 179.901C90.235 179.021 90.038 178.964 90.326 177.586C90.4 177.233 91.678 174.396 92.41 173.997C92.681 170.786 92.986 167.612 93.105 164.385C93.327 158.452 92.603 139.235 91.715 133.812C91.575 132.957 90.877 132.205 91.02 131.263C92.32 127.736 93.689 124.105 94.725 120.495C95.424 118.07 96.628 113.518 96.579 111.348C96.69 111.323 97.447 110.723 98.664 110.423C97.814 116.173 96.964 121.925 96.114 127.678C99.658 140.415 100.723 149.386 99.358 162.534Z" fill="#110F19"/>
<path d="M110.476 175.502C110.291 171.107 110.225 166.695 110.011 162.3C108.983 140.818 107.61 119.274 103.412 98.146C101.603 96.929 99.6012 96.02 97.7382 94.902C95.9832 93.85 94.1862 92.9 92.4102 91.893C91.1192 91.157 89.8692 90.314 88.5912 89.578C88.2862 89.401 88.2622 89.82 88.2452 89.808C85.3382 88.131 82.7112 86.293 79.9072 84.48C88.7852 87.994 97.6632 91.506 106.541 95.017C107.799 96.785 110.467 129.68 110.71 134.388C111.059 141.143 111.639 161.531 111.405 167.275C111.269 170.617 110.574 174.059 110.48 175.498L110.476 175.502Z" fill="#F8F8FA"/>
<path d="M38.9131 85.1789C37.1411 86.4979 34.3821 88.8909 32.4291 89.5779C32.3021 89.6229 33.0661 88.6819 30.1141 90.0419C24.6541 92.5539 21.0821 94.2689 16.6821 98.4949C14.7341 105.107 14.0021 111.944 13.2081 118.76C13.1671 119.118 13.0361 119.381 12.9781 119.92C11.6501 131.863 11.0501 144.05 10.4291 156.051C10.2111 160.285 9.62311 164.561 9.50411 168.788C9.02711 167.665 8.87511 166.152 8.80911 164.968C7.76111 146.434 9.98111 113.597 14.1371 95.0249C21.7681 91.4939 29.7731 88.3159 37.6461 85.1829C37.8311 85.1089 38.9041 84.7719 38.9211 85.1829L38.9131 85.1789Z" fill="#F8F8FA"/>
<path d="M79.903 84.484C82.707 86.297 85.334 88.135 88.241 89.812C88.551 92.4 88.859 94.986 89.166 97.57L82.218 100C81.86 99.856 81.901 99.647 81.293 99.536C80.853 99.457 77.469 99.49 77.354 99.651C76.589 104.083 77.099 124.331 76.659 125.589C76.598 125.766 76.355 125.705 76.195 125.705C76.285 116.89 76.207 107.878 77.354 99.186C77.157 95.272 76.676 91.379 76.195 87.489C75.965 85.61 76.022 83.497 75.73 81.7C77.091 82.675 78.493 83.571 79.899 84.48L79.903 84.484Z" fill="#0D5E8C"/>
<path d="M75.7343 81.7039C74.6693 82.9259 73.4773 81.9269 70.4063 84.2539C70.1673 81.3059 69.6123 78.3619 68.3213 75.6849C70.9863 74.0039 73.8643 71.1259 75.2703 68.2729C75.7013 70.3689 71.6603 77.1199 71.7963 77.8849C72.9183 79.3569 75.4833 80.1749 75.7343 81.7039Z" fill="#F8F8FA"/>
<path d="M30.3401 98.3799C33.0501 98.7049 35.7431 99.1779 38.4481 99.5399C37.8681 99.7779 32.1291 103.807 30.8051 104.749C31.8121 107.446 32.5151 110.299 33.5841 112.972C33.1811 114.341 34.3981 115.229 34.5091 115.636C34.5591 115.813 34.1971 116.549 34.5091 117.49C35.3971 120.179 36.5121 121.441 36.5941 121.659C36.6931 121.914 36.4951 122.563 36.5941 122.818C36.7011 123.094 37.5761 124.241 37.7531 124.673C39.3441 128.546 40.4091 133.294 43.5421 136.254C43.6821 136.953 44.4141 139.025 44.7021 139.379C44.9071 140.279 45.1091 141.057 45.3961 141.928C42.0951 140.448 38.6911 138.984 35.7841 136.834C33.3791 136.596 37.6831 144.979 37.2891 147.141C35.8831 149.135 30.5621 158.431 30.1101 158.953C29.8351 159.27 29.3781 159.517 28.9511 159.533C29.9831 154.834 31.2981 150.2 32.4251 145.521C31.0481 141.945 30.6491 138.072 29.6461 134.404C29.5671 134.116 29.1521 132.78 28.7211 132.9C28.7371 132.381 29.3581 131.111 29.1851 129.775C27.9311 126.001 26.6161 122.111 25.7111 118.193C24.6581 113.642 24.6341 108.49 24.5521 116.224C23.0961 115.915 19.7211 114.156 18.6481 113.909C15.6011 113.21 12.1481 113.679 15.6381 113.909C13.7721 120.056 15.1691 119.209 13.7841 118.543C13.5291 118.419 13.4261 118.785 13.2041 118.773C13.9981 111.956 14.7291 105.119 16.6781 98.5079C21.0771 94.2809 24.6501 92.5669 30.1101 90.0549C31.1461 90.8729 29.1481 95.1079 28.9511 98.2779C29.1111 98.5159 30.0161 98.3559 30.3401 98.3929V98.3799Z" fill="#3A1028"/>
<path d="M24.5523 116.211C24.5063 120.426 24.7983 124.627 25.0163 128.833C21.8553 136.587 20.2183 145.11 20.3833 153.498C19.5033 153.72 19.7003 152.474 18.6483 152.803C18.1383 152.959 16.1403 156.433 15.8683 156.507C12.1603 157.51 15.3383 141.246 14.3643 136.937C13.7433 134.186 13.1883 139.326 12.2793 138.211C12.5133 135.025 14.1333 121.844 13.8993 120.726C13.8333 120.409 13.3323 120.01 12.9743 119.916C13.0363 119.377 13.1633 119.118 13.2043 118.756C13.4263 118.769 13.5293 118.403 13.7843 118.526C15.1693 119.196 13.7723 120.039 15.6383 113.893C12.1483 113.662 15.6013 113.194 18.6483 113.893C19.7213 114.139 23.0963 115.899 24.5523 116.207V116.211Z" fill="#3D1D3C"/>
<path d="M110.011 162.3C109.74 162.518 108.971 159.5 108.391 161.26C108.296 161.552 108.461 165.922 108.391 167.398C108.177 165.014 107.491 165.552 107.466 165.429C107.211 164.154 106.94 146.27 106.307 139.49C105.591 131.81 103.778 120.742 102.602 112.741C101.805 107.314 101.928 97.4429 97.7383 94.9099C99.6013 96.0239 101.603 96.9369 103.412 98.1539C107.614 119.283 108.983 140.822 110.011 162.308V162.3Z" fill="#714162"/>
<path d="M97.7382 94.9059C101.928 97.4389 101.805 107.31 102.602 112.737C99.8231 111.586 103.363 109.255 98.6642 110.423C97.4472 110.727 96.6902 111.323 96.5792 111.348C96.2912 111.418 96.0451 111.492 95.7691 111.578C93.9401 105.242 92.8342 98.5369 92.4102 91.8929C94.1862 92.8999 95.9832 93.8539 97.7382 94.9019V94.9059Z" fill="#714162"/>
<path d="M92.41 91.8969C92.829 98.5409 93.935 105.246 95.769 111.582C96.045 111.496 96.295 111.418 96.579 111.352C96.632 113.523 95.424 118.074 94.725 120.5C93.685 124.109 92.32 127.74 91.02 131.267C90.872 131.666 89.886 133.031 89.631 133.697C89.022 135.305 84.874 145.768 84.997 146.434C86.099 147.108 88.488 152.848 88.817 153.033C88.846 153.049 89.248 152.556 89.281 152.568C89.84 152.844 90.535 156.861 90.786 157.778C90.84 157.971 91.197 157.815 91.251 158.008C91.259 158.045 90.885 158.201 91.02 158.703C91.07 158.896 91.436 158.744 91.485 158.933C91.563 159.237 91.695 163.246 92.644 162.987C92.727 163.455 92.546 164.056 93.109 164.376C92.99 167.604 92.686 170.774 92.414 173.989C91.682 174.388 90.404 177.224 90.33 177.578L88.94 176.419C89.285 176.188 89.865 175.391 89.405 175.029L89.869 174.914C89.993 174.256 90.141 173.586 90.334 172.944C90.548 172.229 91.625 167.702 91.144 167.616C88.693 168.989 86.198 170.437 83.616 171.555C81.782 172.348 79.85 173.434 77.827 173.639C77.305 162.822 76.404 152.05 76.207 141.217C77.613 138.964 78.041 136.226 78.986 133.804C80.684 129.45 89.997 108.885 89.873 106.126C89.832 105.197 83.328 100.424 82.23 99.9879L89.179 97.5579C88.869 94.9709 88.56 92.3849 88.253 89.7999C87.946 87.2149 88.299 89.3929 88.599 89.5699C89.882 90.3099 91.127 91.1519 92.418 91.8839L92.41 91.8969Z" fill="#570E32"/>
<path d="M12.2793 138.216C12.0823 140.921 11.8933 155.109 11.1203 156.166C10.9433 156.408 10.9103 155.964 10.4253 156.051C11.0463 144.05 11.6423 131.863 12.9743 119.92C13.3323 120.014 13.8333 120.413 13.8993 120.73C14.1333 121.848 12.5093 135.029 12.2793 138.216Z" fill="#5E264C"/>
<path d="M32.4252 89.578C31.7312 92.511 31.0372 95.445 30.3402 98.38C30.0162 98.343 29.1112 98.504 28.9512 98.265C29.1482 95.095 31.1462 90.861 30.1102 90.042C33.0622 88.682 32.2972 89.623 32.4252 89.578Z" fill="#251C2F"/>
<path d="M82.222 99.9999C83.32 100.436 89.824 105.209 89.865 106.138C89.993 108.893 80.676 129.462 78.978 133.816C78.579 133.862 78.283 133.837 78.053 133.471C77.136 132.028 82.025 103.799 81.297 99.5439C81.905 99.6509 81.864 99.8639 82.222 100.008V99.9999Z" fill="#269ECD"/>
<path d="M81.2931 99.5399C82.0211 103.799 77.1361 132.028 78.0491 133.467C78.2831 133.833 78.5751 133.862 78.9741 133.812C78.0281 136.234 77.6011 138.968 76.1951 141.225C76.1001 136.065 76.1411 130.868 76.1951 125.709C76.3551 125.709 76.5981 125.77 76.6591 125.594C77.0991 124.335 76.5891 104.087 77.3541 99.6549C77.4691 99.4939 80.8531 99.4619 81.2931 99.5399Z" fill="#127EB2"/>
<path d="M44.0073 81.474C44.5253 82.042 44.4343 82.362 44.4713 82.399V83.094C44.3153 83.094 44.0483 83.037 44.0073 83.209C43.5713 85.047 45.0063 93.352 40.3023 99.075C39.2003 99.075 39.2623 99.203 38.4483 99.54C35.7433 99.178 33.0503 98.705 30.3403 98.38C31.0343 95.447 31.7293 92.513 32.4253 89.578C34.3783 88.887 37.1413 86.494 38.9093 85.179C39.8253 84.496 43.7813 81.696 44.0033 81.474H44.0073Z" fill="#193358"/>
<path d="M40.3022 99.075C41.0302 99.075 41.7412 98.952 42.3872 99.42C43.4112 112.865 45.1582 126.223 45.3962 139.72C45.1002 140.049 44.9892 139.729 44.7022 139.375C42.4942 129.771 37.1652 121.918 33.5842 112.972C32.5152 110.299 31.8122 107.446 30.8052 104.749C32.1292 103.807 37.8682 99.778 38.4482 99.54C39.2622 99.203 39.1962 99.079 40.3022 99.075Z" fill="#0D5E8C"/>
<path d="M44.4712 83.0941C44.2572 87.3411 44.3812 91.5841 44.4712 95.8311C44.8002 110.998 45.6762 126.042 45.6312 141.225V141.92H45.4002C45.1132 141.048 44.9112 140.271 44.7062 139.371C44.9932 139.724 45.1042 140.049 45.4002 139.716C45.1582 126.223 43.4152 112.861 42.3912 99.4161C41.7452 98.9481 41.0342 99.0671 40.3062 99.0711C45.0102 93.3481 43.5752 85.0471 44.0112 83.2051C44.0522 83.0321 44.3192 83.0861 44.4752 83.0901L44.4712 83.0941Z" fill="#132735"/>
<path d="M44.7022 139.375C44.4142 139.017 43.6822 136.945 43.5422 136.25C40.4052 133.29 39.3442 128.541 37.7532 124.669C37.5762 124.241 36.7012 123.09 36.5942 122.814C36.4952 122.563 36.6932 121.91 36.5942 121.655C36.5122 121.437 35.4022 120.175 34.5092 117.486C34.1972 116.549 34.5592 115.808 34.5092 115.632C34.3982 115.225 33.1772 114.337 33.5842 112.967C37.1612 121.914 42.4902 129.767 44.7022 139.371V139.375Z" fill="#251C2F"/>
<path d="M50.9553 76.3799C50.5973 77.2109 50.3593 78.0909 50.0303 78.9289C49.5283 80.2119 48.9243 81.4699 48.4103 82.7489C48.4763 83.1719 51.5923 85.3919 52.1143 85.8729C53.6193 87.2549 56.7643 90.4539 57.6733 91.2019C56.3783 93.3229 55.0543 95.4489 53.9693 97.6849L54.6633 89.6969C52.5133 87.5629 45.6723 83.5789 44.4713 82.4029C44.4343 82.3659 44.5253 82.0459 44.0073 81.4779C44.4843 80.9969 44.9773 79.9079 45.3963 79.3939C46.6633 77.8439 47.6373 76.1009 48.8703 74.5299C49.2323 74.8469 50.8363 76.3059 50.9553 76.3839V76.3799Z" fill="#F8F8FA"/>
<path d="M75.7344 81.704C76.0264 83.501 75.9694 85.619 76.1994 87.493C75.5254 87.403 75.8004 87.81 75.7344 88.188L65.7774 96.756C65.3944 95.885 63.5114 92.156 63.4624 91.893C63.4044 91.605 63.5934 91.296 63.2324 91.083L70.4104 84.249C73.4774 81.922 74.6744 82.926 75.7384 81.7L75.7344 81.704Z" fill="#F9EFDA"/>
<path d="M53.9644 97.685C53.3564 98.939 52.7604 100.284 52.3454 101.624C49.6684 99.721 47.3044 97.299 44.4714 95.835C44.3814 91.588 44.2574 87.345 44.4714 83.098V82.403C45.6724 83.579 52.5134 87.563 54.6634 89.697L53.9694 97.685H53.9644Z" fill="#F8D7AE"/>
<path d="M60.4483 93.052C58.1543 96.246 55.7043 99.285 53.5003 102.549C53.0643 102.29 52.7563 101.916 52.3403 101.624C52.7603 100.288 53.3523 98.944 53.9603 97.685C55.0463 95.449 56.3703 93.319 57.6653 91.202C57.7103 91.239 57.8503 91.165 57.8953 91.202C58.5083 91.699 59.0093 92.781 60.4443 93.056L60.4483 93.052Z" fill="#D48E5E"/>
<path d="M75.9695 104.634C72.6225 115.586 71.3355 122.202 69.9455 133.467C69.9215 133.652 69.5065 133.516 69.4815 133.697C69.3625 134.709 69.9415 134.774 69.2515 135.202C69.6955 136.875 68.9345 139.35 69.0205 140.76C68.7375 140.662 68.5395 140.518 68.3265 140.296C68.9675 140.152 69.0665 135.588 68.6715 135.432L64.1575 137.052C64.0215 136.974 63.8365 137.299 63.8115 137.282C63.6635 137.204 62.5905 135.65 60.9175 136.123C61.0115 135.617 61.0735 135.025 61.1475 134.503L61.6125 134.388C65.8555 122.239 70.9325 110.377 73.4245 97.6809C74.2675 97.0279 75.7555 95.5189 75.9735 95.3669C76.2365 95.1779 76.1705 95.1529 76.3185 94.9019L76.6635 95.2469C76.8775 98.4169 76.3305 101.488 75.9695 104.625V104.634Z" fill="#F0BE86"/>
<path d="M75.7345 88.1879C75.3405 90.4989 76.2155 93.0109 75.9655 95.3669C75.7475 95.5229 74.2585 97.0279 73.4155 97.6809C71.8535 98.8899 61.0165 107.364 60.0995 107.179C58.5945 105.674 57.0895 104.169 55.5845 102.664L62.0685 93.9809C62.5245 94.8979 65.9165 101.579 66.3525 101.624C66.4435 101.632 67.6145 100.44 67.6275 100.35C67.6475 100.148 66.0235 97.3279 65.7725 96.7599L75.7305 88.1919L75.7345 88.1879Z" fill="#F9EAC1"/>
<path d="M75.0395 137.985C73.0915 136.941 70.8055 134.54 69.2515 135.206C69.9455 134.774 69.3625 134.713 69.4815 133.701C69.5015 133.516 69.9215 133.652 69.9455 133.471C71.3355 122.206 72.6225 115.586 75.9695 104.638C75.8925 115.717 75.8155 126.794 75.7385 137.87C75.6605 138.096 75.0725 137.936 75.0445 137.985H75.0395Z" fill="#F0BE86"/>
<path d="M76.1993 87.4929C76.6763 91.3829 77.1573 95.2719 77.3583 99.1899C76.2113 107.882 76.2893 116.894 76.1993 125.709C76.1453 130.868 76.1043 136.069 76.1993 141.225C76.4003 152.059 77.2973 162.83 77.8193 173.647C77.6673 173.664 77.5103 173.639 77.3543 173.647C76.6433 173.685 73.5473 173.75 73.1853 173.532C71.6803 170.638 70.1763 167.744 68.6713 164.849C65.6823 166.448 61.1273 166.818 60.3333 170.638C59.2113 166.72 55.6543 166.732 52.2253 165.31C50.9123 168.166 49.6003 171.022 48.2873 173.878C47.9823 173.972 45.9643 172.936 44.4673 172.718V172.254C45.6653 172.64 46.8613 173.027 48.0563 173.413L48.4023 173.068C49.6763 170.087 50.8033 167.098 51.8763 164.035C51.9463 163.829 52.3283 163.945 52.3403 163.92C51.7363 164.837 53.6643 165.034 55.0053 165.774C55.5723 165.606 55.0133 165.486 55.8153 164.615C55.1903 165.618 56.7523 166.527 57.6693 166.469C56.7733 166.954 58.9563 167.184 59.2893 167.509C59.5683 167.781 59.8523 169.688 60.3293 169.479C60.5553 167.776 62.2203 167.164 62.2983 166.814C62.6153 165.404 60.1733 164.463 65.1933 163.69C65.1193 166.979 66.3153 164.894 66.4673 164.849C66.5453 164.824 66.6363 165.203 68.0873 164.504C68.5973 163.546 65.2583 154.332 64.6133 152.692C64.5553 152.544 65.2303 152.692 63.6883 149.797C65.0653 149.814 60.6043 144.239 60.3293 144.008C60.3123 143.996 60.1113 144.317 59.9843 144.239C59.6223 144.021 59.3263 143.49 58.8243 143.544C59.2563 142.175 59.8853 140.46 60.2143 139.145C60.4693 138.129 60.7193 137.171 60.9093 136.135C62.5823 135.662 63.6553 137.216 63.8033 137.295C63.8283 137.307 64.0133 136.986 64.1483 137.064C65.3783 137.751 67.3263 139.285 68.3173 140.308C68.5313 140.53 68.7283 140.674 69.0123 140.773C69.1363 142.853 70.7433 143.844 70.9823 143.782C71.3233 143.692 74.6693 138.655 75.0353 137.994C75.0643 137.944 75.6523 138.105 75.7303 137.878C75.8073 126.8 75.8843 115.722 75.9603 104.646C76.3223 101.509 76.8693 98.4379 76.6553 95.2679L76.3103 94.9229C76.1623 95.1729 76.2283 95.1979 75.9653 95.3869C76.2153 93.0269 75.3403 90.5189 75.7343 88.2089C75.8003 87.8299 75.5253 87.4229 76.1993 87.5139V87.4929Z" fill="#F0BE86"/>
<path d="M52.3452 101.624C52.7602 101.92 53.0682 102.29 53.5042 102.549C53.2042 102.997 53.3722 103.409 52.9242 103.709C50.8002 102.744 48.6772 101.779 46.5562 100.814C46.6092 105.287 47.6532 109.728 46.3262 113.786C46.4002 115.003 50.4862 122.617 51.4202 124.208C53.6932 128.065 58.8822 133.652 59.5272 137.989C59.4372 138.392 59.7162 138.824 59.1822 139.149C54.3222 142.191 54.3302 144.485 52.4642 137.529C47.1772 139.379 52.5302 141.998 48.5252 139.383C47.5602 140 46.5952 140.618 45.6312 141.237C45.6762 126.054 44.8002 111.01 44.4712 95.8439C47.3042 97.3109 49.6682 99.7329 52.3452 101.632V101.624Z" fill="#F0BE86"/>
<path d="M61.6084 93.0519C61.7564 93.3639 61.9164 93.6689 62.0724 93.9769L55.5884 102.66C57.0934 104.165 58.5984 105.67 60.1034 107.175C61.0204 107.364 71.8574 98.8899 73.4204 97.6769C70.9324 110.373 65.8514 122.239 61.6084 134.384L61.1434 134.499C61.3814 132.883 62.3974 121.326 62.0684 120.717C61.5794 120.606 59.3594 121.515 59.2894 121.643C58.8944 122.358 60.1934 134.951 59.5194 137.969C58.8784 133.631 53.6854 128.048 51.4114 124.187C50.4744 122.6 46.3874 114.982 46.3174 113.765C47.6454 109.707 46.6054 105.267 46.5484 100.794C48.6724 101.758 50.7954 102.723 52.9164 103.688C53.3604 103.392 53.1964 102.977 53.4964 102.529C55.6994 99.2639 58.1504 96.2259 60.4444 93.0309C60.5024 93.0439 61.5464 93.0399 61.6034 93.0309L61.6084 93.0519Z" fill="#F8D7AE"/>
<path d="M63.5773 108.572C65.6373 120.162 66.3733 113.835 57.5543 116.91C49.8823 112.412 54.5573 115.619 57.7843 114.596C60.0163 113.888 62.0063 110.221 63.5733 108.572H63.5773Z" fill="#F8F8FA"/>
</g>
</g>
<defs>
<linearGradient id="paint0_linear_79_62" x1="89.2694" y1="119.065" x2="111.553" y2="180.703" gradientUnits="userSpaceOnUse">
<stop stop-color="#4E2C4F"/>
<stop offset="1" stop-color="#4C4165"/>
</linearGradient>
<clipPath id="clip0_79_62">
<rect width="120" height="120" fill="white"/>
</clipPath>
</defs>
</svg>
