<svg width="120" height="120" viewBox="0 0 120 120" fill="none" xmlns="http://www.w3.org/2000/svg">
<g clip-path="url(#clip0_79_660)">
<mask id="mask0_79_660" style="mask-type:luminance" maskUnits="userSpaceOnUse" x="0" y="11" width="120" height="159">
<path d="M119.213 11.411H0.788086V169.641H119.213V11.411Z" fill="white"/>
</mask>
<g mask="url(#mask0_79_660)">
<path d="M27.6392 87.9309C27.5722 90.0729 25.0342 92.7089 27.2862 94.2819V94.4589C26.5482 95.9449 27.4382 97.8919 27.4622 98.0759C27.5082 98.3969 27.1912 98.6829 27.2862 99.3109C27.3072 99.4589 27.6352 99.3819 27.6392 99.3989C28.7292 106.499 30.0672 113.19 31.5202 120.219C33.8572 131.515 36.5212 142.765 39.1072 154.008L40.3432 165.653L40.0782 165.918C37.3642 165.209 33.4052 163.056 31.9622 162.566C31.8242 162.52 31.5062 162.516 31.5202 162.742C30.4582 162.241 29.3822 161.708 28.3442 161.154C27.0882 156.92 26.6222 152.371 25.6982 148.009C23.1252 138.538 20.4572 128.978 16.5232 119.955C14.0812 114.355 6.79022 103.002 7.34822 97.6349C13.3862 92.9339 20.5992 90.6229 27.6392 87.9309Z" fill="url(#paint0_linear_79_660)"/>
<path d="M8.7593 91.636C8.4493 93.672 7.5633 95.574 7.3483 97.635C6.7903 103.002 14.0813 114.355 16.5233 119.955C20.4573 128.978 23.1253 138.538 25.6983 148.009C26.6223 152.371 27.0883 156.92 28.3443 161.154C19.6743 156.521 1.8643 143.891 0.819297 133.541C0.654297 131.896 1.1483 114.005 1.3493 111.309C1.7123 106.425 2.7253 101.608 4.7013 97.106C5.7393 94.738 6.4443 92.642 8.7593 91.636Z" fill="#0D1322"/>
<path d="M115.331 97.635C116.922 101.404 117.917 105.289 118.33 109.368C118.535 111.397 119.219 126.451 119.212 128.601C119.205 130.651 119.145 133.516 118.683 135.482C116.993 142.666 106.388 150.935 100.509 155.155C99.1762 154.693 100.118 152.399 100.157 151.362C100.266 148.369 100.259 145.571 100.333 142.539C101.434 130.393 105.464 119.334 110.037 108.133C110.066 107.639 110.122 107.138 109.508 107.163C110.764 104.223 112.13 101.287 112.331 98.164C112.476 95.937 112.26 93.898 111.272 91.812C113.75 93.061 114.293 95.175 115.331 97.635Z" fill="#0D1322"/>
<path d="M100.509 155.155C96.2471 158.215 91.8741 160.904 87.1001 163.095C87.4101 162.266 90.9601 161.168 91.3341 160.537C91.5461 160.18 92.0371 155.938 92.9221 155.067C96.1871 144.459 99.7791 129.444 103.685 119.514C105.358 115.265 107.719 111.348 109.508 107.163C110.122 107.138 110.066 107.639 110.037 108.133C105.464 119.334 101.434 130.393 100.333 142.539C100.259 145.571 100.266 148.369 100.157 151.362C100.118 152.399 99.1761 154.693 100.509 155.155Z" fill="#0D1322"/>
<path d="M32.2263 116.514C36.0693 133.424 38.9953 150.638 44.5773 167.065C45.9253 167.63 46.7163 168.155 46.8713 166.447C46.9133 167.213 47.0613 167.76 46.8713 168.035C41.7193 166.892 36.2953 164.986 31.5203 162.742C31.5063 162.516 31.8243 162.52 31.9623 162.566C33.4053 163.056 37.3643 165.209 40.0783 165.918L40.3433 165.653L39.1073 154.008C36.5213 142.765 33.8573 131.515 31.5203 120.219C33.2533 119.15 29.5873 117.107 32.2263 116.514Z" fill="#151021"/>
<path d="M86.2184 83.167C86.0234 83.505 85.6534 83.258 86.1294 83.696C87.6714 85.111 107.991 93.901 112.331 98.164C112.13 101.287 110.764 104.223 109.508 107.163C107.719 111.348 105.358 115.265 103.685 119.514C100.527 119.733 93.6324 124.013 92.2174 121.543C92.8414 121.462 92.9364 121.144 93.2754 120.749C93.9424 119.969 94.7044 119.362 95.3934 118.632C96.0844 117.894 96.9814 117.329 97.5104 116.426L95.8344 111.927C91.5114 113.543 93.4984 111.817 90.3644 106.986C89.4754 106.708 88.1094 110.536 87.2764 110.603C86.2114 108.472 90.6754 96.361 92.0404 93.665C91.9524 93.467 90.9644 94.021 90.8054 94.106C90.8764 93.855 90.6824 93.771 90.6294 93.577C89.9094 91.011 85.7414 85.82 84.9824 82.637C85.3644 82.828 85.8194 82.976 86.2184 83.167Z" fill="#172437"/>
<path d="M80.5715 79.991C83.9705 83.265 85.2825 85.213 87.2765 89.43C88.3285 91.657 87.3365 92.751 90.6295 93.577C90.6825 93.771 90.8765 93.855 90.8055 94.106C87.9365 95.63 85.2375 97.642 82.3365 99.135L83.6595 101.693L87.1885 100.634C87.3645 100.888 86.6905 101.584 87.8065 101.958C86.7895 104.717 80.4165 120.223 79.8665 121.102C79.6655 121.426 79.7005 121.719 79.4255 121.631C79.3085 121.405 78.6455 120.551 78.6315 120.484C78.1895 118.582 79.2625 102.752 78.9835 97.9C78.6525 96.481 78.2325 90.507 78.1015 90.136C78.0525 89.998 77.8655 90.048 77.7485 90.048C77.7025 88.548 77.7025 86.039 77.5725 84.755C77.3465 82.535 76.7185 79.115 75.2785 77.344C75.2015 76.663 78.9415 79.055 80.5715 79.991Z" fill="#14334E"/>
<path d="M94.3343 86.519C94.5323 86.59 94.8423 86.625 95.0403 86.695C99.1403 88.139 109.321 90.831 111.272 91.812C112.26 93.898 112.476 95.937 112.331 98.164C107.991 93.901 87.6713 85.111 86.1293 83.696C85.6533 83.258 86.0233 83.505 86.2183 83.167C88.7763 84.398 91.6593 85.559 94.3343 86.519Z" fill="#055A83"/>
<path d="M84.9823 82.637C85.7413 85.82 89.9093 91.011 90.6293 93.577C87.3363 92.751 88.3283 91.657 87.2763 89.43C85.2823 85.213 83.9703 83.265 80.5713 79.991C82.0323 80.827 83.4863 81.886 84.9823 82.637Z" fill="#055A83"/>
<path d="M42.8132 81.226C41.7962 81.085 41.4052 86.992 41.2252 89.166L27.6392 93.753C27.6392 93.058 33.2392 84.243 33.9912 82.637C35.6142 81.857 37.0712 80.629 38.6662 79.814C39.2912 79.493 44.7112 76.716 44.7542 77.432C44.1612 78.537 43.0842 80.015 42.8132 81.226Z" fill="#055A83"/>
<path d="M27.6391 87.931C20.5991 90.623 13.3861 92.934 7.34814 97.635C7.56314 95.574 8.44914 93.672 8.75914 91.636C10.6301 90.824 18.8241 88.516 22.8751 87.048C23.8661 86.688 24.8971 86.367 25.8741 85.99C28.2671 85.072 30.6171 84.088 32.9321 82.99C32.9461 83.272 33.4081 83.092 33.1971 83.343C32.9641 83.618 28.3481 86.844 27.6391 87.931Z" fill="#055A83"/>
<path d="M42.8135 81.226C42.6615 81.9 42.6865 82.831 42.6365 83.519C42.4185 86.512 42.7145 89.942 42.8135 92.959C42.2025 94.932 42.2835 97.014 42.2835 99.046C42.2835 101.584 42.3825 104.1 42.4605 106.633C42.3435 109.118 42.8735 111.793 42.9895 114.22C43.3745 122.136 43.8335 129.97 44.5775 137.864C44.0905 137.977 44.1225 137.267 44.0485 137.158L42.6365 114.838C41.3345 114.746 42.4285 117.231 41.5785 117.22C41.1865 111.143 40.5585 102.565 40.6955 96.753C40.7175 95.832 41.1795 94.752 41.2255 93.841C41.2995 92.299 41.0985 90.697 41.2255 89.166C41.4055 86.992 41.7965 81.085 42.8135 81.226Z" fill="#0D1322"/>
<path d="M33.9913 82.637C33.2393 84.243 27.6393 93.058 27.6393 93.753C27.6393 93.923 27.8293 93.947 27.8153 94.106C27.3283 93.997 27.2433 93.81 27.2863 94.282C25.0343 92.709 27.5723 90.073 27.6393 87.931C28.3483 86.844 32.9643 83.618 33.1973 83.343C33.4083 83.092 32.9463 83.272 32.9323 82.99C33.7513 82.602 33.9413 82.662 33.9913 82.637Z" fill="#14334E"/>
<path d="M32.2263 116.514C29.5873 117.107 33.2533 119.15 31.5203 120.219C30.0673 113.19 28.7293 106.499 27.6393 99.399C27.5503 99.103 28.1573 99.636 28.1683 99.664C29.5903 102.773 31.3193 112.534 32.2263 116.514Z" fill="#0D1322"/>
<path d="M79.8663 121.102C81.2523 122.026 81.9903 125.901 83.2183 127.718C82.9823 130.954 82.6393 134.218 82.1593 137.423C81.8383 139.561 79.9823 149.385 79.5133 151.362C78.9833 153.578 75.2713 165.996 74.2193 167.065C73.8143 167.478 72.8113 167.944 72.2793 167.506C72.9673 161.701 73.5383 155.882 73.6903 150.038L74.2193 148.891C75.2323 137.278 76.0193 125.682 76.6903 114.044C76.8313 111.574 77.1063 109.118 77.2193 106.633C77.3043 104.756 77.3283 102.865 77.3953 100.987C77.5303 97.155 77.9353 95.976 77.7483 90.048C77.8653 90.048 78.0523 89.998 78.1013 90.136C78.2323 90.507 78.6523 96.481 78.9833 97.9C79.2623 102.752 78.1893 118.582 78.6313 120.484C78.6453 120.551 79.3083 121.405 79.4253 121.631C79.7003 121.719 79.6653 121.426 79.8663 121.102Z" fill="#261225"/>
<path d="M93.2752 117.22C94.3232 117.139 95.4032 116.98 96.4512 117.22C96.1052 117.703 95.6012 118.046 95.3932 118.632C94.7042 119.362 93.9422 119.969 93.2752 120.749C90.2932 122.319 89.9412 123.138 86.3062 122.16C83.5712 126.536 83.2602 125.862 85.1592 121.366C82.1742 116.094 85.0502 114.549 86.8352 109.633L88.8642 117.485C89.2812 117.774 92.4642 117.28 93.2752 117.22Z" fill="#F2D508"/>
<path d="M96.8041 115.632C96.9741 116.955 91.8111 115.265 91.5991 115.456C90.9001 116.087 92.3011 116.514 90.8051 116.691C90.2161 116.532 89.6051 116.49 89.0411 116.25C87.6611 111.454 86.9941 111.521 90.1881 107.339L92.7461 113.074L95.6571 112.28C96.0281 113.402 96.4551 114.506 96.8041 115.632Z" fill="#F2D508"/>
<path d="M96.8042 115.632C96.8152 115.671 97.2172 116.137 97.3332 116.25C97.0552 116.729 96.4902 117.167 96.4512 117.22C95.4032 116.98 94.3232 117.139 93.2752 117.22C92.5062 116.888 91.6032 116.906 90.8052 116.691C92.3012 116.514 90.9002 116.087 91.5992 115.456C91.8112 115.265 96.9742 116.955 96.8042 115.632Z" fill="#F2D508"/>
<path d="M95.3933 118.632C95.6013 118.046 96.1053 117.703 96.4513 117.22C96.4903 117.167 97.0553 116.729 97.3333 116.25C97.2173 116.137 96.8153 115.671 96.8043 115.632C96.4553 114.506 96.0283 113.402 95.6573 112.28L92.7463 113.074L90.1883 107.339C86.9943 111.521 87.6613 111.454 89.0413 116.25C89.6053 116.49 90.2163 116.532 90.8053 116.691C91.6033 116.906 92.5063 116.888 93.2753 117.22C92.4643 117.28 89.2813 117.774 88.8643 117.485L86.8353 109.633C85.0503 114.549 82.1743 116.094 85.1593 121.366C83.2603 125.862 83.5713 126.536 86.3063 122.16C89.9413 123.138 90.2933 122.319 93.2753 120.749C92.9363 121.144 92.8413 121.462 92.2173 121.543C93.6323 124.013 100.527 119.733 103.685 119.514C99.7793 129.444 96.1873 144.459 92.9223 155.067C92.0373 155.938 91.5463 160.18 91.3343 160.537C90.9603 161.168 87.4103 162.266 87.1003 163.095C81.9583 165.456 77.8153 166.874 72.2793 168.035V167.506C72.8113 167.944 73.8143 167.478 74.2193 167.065C75.2713 165.996 78.9833 153.578 79.5133 151.362C79.9823 149.385 81.8383 139.561 82.1593 137.423C82.6393 134.218 82.9823 130.954 83.2183 127.718C81.9903 125.901 81.2523 122.026 79.8663 121.102C80.4163 120.223 86.7893 104.717 87.8063 101.958C86.6903 101.584 87.3643 100.888 87.1883 100.634L83.6593 101.693L82.3363 99.135C85.2373 97.642 87.9363 95.63 90.8053 94.106C90.9643 94.021 91.9523 93.467 92.0403 93.665C90.6753 96.361 86.2113 108.472 87.2763 110.603C88.1093 110.536 89.4753 106.708 90.3643 106.986C93.4983 111.817 91.5113 113.543 95.8343 111.927L97.5103 116.426C96.9813 117.329 96.0843 117.894 95.3933 118.632Z" fill="#0D1322"/>
<path d="M41.2252 89.166C41.0982 90.697 41.2992 92.299 41.2252 93.841C41.1792 94.752 40.7172 95.832 40.6952 96.753C39.5382 97.176 38.1412 98.485 37.4312 98.87C36.9832 99.113 36.5172 99.015 36.4612 99.046C34.9652 97.949 29.0182 94.381 27.8152 94.106C27.8292 93.947 27.6392 93.923 27.6392 93.753L41.2252 89.166Z" fill="#0D4161"/>
<path d="M44.0481 137.158C43.9881 137.07 43.5541 136.978 43.5191 136.893C43.4591 136.742 42.8691 134.074 42.8131 133.717C42.7991 133.64 43.0531 132.606 42.9891 132.129C42.3191 127.164 41.9021 122.224 41.5781 117.22C42.4281 117.231 41.3341 114.746 42.6361 114.838L44.0481 137.158Z" fill="#261225"/>
<path d="M30.9913 102.575C31.2703 102.501 33.5783 101.474 32.5793 101.164C33.9023 100.525 35.1623 99.727 36.4613 99.046C36.5173 99.015 36.9833 99.113 37.4313 98.87C38.1413 98.485 39.5383 97.176 40.6953 96.753C40.5583 102.565 41.1863 111.143 41.5783 117.22C41.9023 122.224 42.3193 127.164 42.9893 132.129C43.0533 132.606 42.7993 133.64 42.8133 133.717C42.8693 134.074 43.4593 136.742 43.5193 136.893C43.5543 136.978 43.9883 137.07 44.0483 137.158C44.1223 137.267 44.0903 137.977 44.5773 137.864C44.9023 141.308 45.2123 148.327 45.9893 151.097C45.9533 156.231 46.5823 161.334 46.8713 166.447C46.7163 168.155 45.9253 167.63 44.5773 167.065C38.9953 150.638 36.0693 133.424 32.2263 116.514C31.3193 112.534 29.5903 102.773 28.1683 99.664C28.1573 99.636 27.5503 99.103 27.6393 99.399C27.6393 99.382 27.3073 99.459 27.2863 99.311C27.1913 98.683 27.5083 98.397 27.4623 98.076C27.4383 97.892 26.5483 95.945 27.2863 94.459C27.9773 96.693 29.3013 98.729 30.1093 100.899C30.4193 101.732 29.6753 102.928 30.9913 102.575Z" fill="url(#paint1_linear_79_660)"/>
<path d="M39.0194 116.867C40.0464 116.839 39.1074 122.358 39.2844 123.484C38.9064 124.045 36.1154 122.03 36.1084 121.19C36.2884 120.449 38.5254 116.881 39.0194 116.867Z" fill="#0D1322"/>
<path d="M27.8152 94.106C29.0182 94.381 34.9652 97.949 36.4612 99.046C35.1622 99.727 33.9022 100.525 32.5792 101.164C32.0252 101.432 29.3822 101.615 30.9912 102.575C29.6752 102.928 30.4192 101.732 30.1092 100.899C29.3012 98.729 27.9772 96.693 27.2862 94.459V94.282C27.2432 93.81 27.3282 93.997 27.8152 94.106Z" fill="#0D1322"/>
<path d="M32.5791 101.164C33.5781 101.474 31.2701 102.501 30.9911 102.575C29.3821 101.615 32.0251 101.432 32.5791 101.164Z" fill="#FAF6EA"/>
<path d="M46.5183 116.691C46.4513 131.261 47.3723 142.201 52.3413 155.949C52.9023 157.498 54.3383 161.334 54.9873 161.683C55.4353 164.316 56.4483 166.913 56.5753 169.623C56.1453 169.715 56.0183 169.461 55.8693 169.447C52.1963 163.55 48.5653 157.583 45.9893 151.097C45.2123 148.327 44.9023 141.308 44.5773 137.864C43.8333 129.97 43.3743 122.136 42.9893 114.22C44.5353 114.93 46.3353 116.571 46.5183 116.691Z" fill="#EEC7BD"/>
<path d="M55.5172 123.043C55.9472 123.586 55.9722 124.736 56.0462 125.425C56.5362 129.97 56.4692 140.274 56.7522 145.892C57.1402 153.687 57.7822 161.475 58.1632 169.27C58.0402 169.267 58.2132 169.743 56.5752 169.623C56.4482 166.913 55.4352 164.316 54.9872 161.683C52.8772 149.276 51.9452 132.489 50.9292 119.69C52.4152 120.837 53.9852 121.952 55.5172 123.043Z" fill="#EEC7BD"/>
<path d="M75.2783 77.344C76.7183 79.115 77.3463 82.535 77.5723 84.755C76.1823 83.999 76.7183 84.709 76.5133 84.931C76.4923 84.956 76.1893 84.917 75.9843 84.931C76.5273 81.663 75.3283 78.886 74.9253 77.168C75.0033 77.185 75.2643 77.33 75.2783 77.344Z" fill="#DBE4EC"/>
<path d="M44.4013 86.5189C46.8463 91.1069 51.8083 94.7799 55.6933 98.0759C55.4353 98.2349 55.5483 98.4319 55.5173 98.5169C55.3233 99.0289 49.7223 105.956 48.8123 107.163C47.9833 108.26 47.2663 109.471 46.1653 110.339C45.8403 109.986 45.4493 109.64 45.1063 109.28C45.5303 108.221 42.8873 99.5969 42.6363 99.1349C42.5593 98.9899 42.4073 99.0459 42.2833 99.0459C42.2833 97.0139 42.2023 94.9319 42.8133 92.9589C42.7143 89.9419 42.4183 86.5119 42.6363 83.5189C43.2013 83.6219 43.2333 86.2049 44.4013 86.5189Z" fill="#FAF6EA"/>
<path d="M71.2202 111.397C70.5812 112.445 63.4642 114.806 66.3682 116.161C67.3172 116.606 70.2112 114.439 71.2202 115.279C68.8132 117.502 66.4212 119.782 64.1622 122.16C64.0532 119.493 63.5022 116.853 63.1042 114.22C62.9342 113.109 62.6772 111.994 62.2212 110.956C62.8952 109.188 63.7952 107.494 64.5152 105.751C66.9892 106.662 69.4342 109.933 71.2202 111.397Z" fill="#EEC7BD"/>
<path d="M45.1061 109.28C45.4491 109.64 45.8401 109.986 46.1651 110.339C46.5321 110.737 46.7231 111.299 47.2241 111.574C47.1851 111.63 46.7621 112.615 46.6941 112.809C46.6771 112.858 46.1791 113.215 46.3421 113.779C46.5111 114.372 54.7371 120.541 55.6931 121.807C55.6681 122.037 55.7001 122.28 55.6931 122.513C55.6861 122.788 55.7711 123.053 55.5171 123.043C53.9851 121.952 52.4151 120.837 50.9291 119.69C49.3981 118.512 48.0951 117.732 46.5181 116.691C46.3351 116.571 44.5351 114.93 42.9891 114.22C42.8731 111.793 42.3431 109.118 42.4601 106.633C43.2961 107.551 44.2561 108.387 45.1061 109.28Z" fill="#C4607B"/>
<path d="M73.3372 116.338C73.2982 116.366 73.0272 116.662 72.9842 116.691C71.3612 117.816 69.9602 118.833 68.3972 120.043C67.0382 121.095 65.6092 122.051 64.3392 123.219C64.0812 122.877 64.1762 122.541 64.1622 122.16C66.4212 119.782 68.8132 117.502 71.2202 115.279C71.7462 114.792 72.7482 114.242 72.8082 113.691C72.9772 114.573 73.0972 115.473 73.3372 116.338Z" fill="#C4607B"/>
<path d="M50.9294 119.69C51.9454 132.489 52.8774 149.276 54.9874 161.683C54.3384 161.334 52.9024 157.498 52.3414 155.949C47.3724 142.201 46.4514 131.261 46.5184 116.691C48.0954 117.732 49.3984 118.512 50.9294 119.69Z" fill="#F6E5D9"/>
<path d="M73.6904 150.038C71.1184 156.57 67.2754 162.428 63.9864 168.565C63.0794 169.062 64.1454 165.646 64.5154 163.095C65.4614 162.28 67.1444 158.299 67.6914 156.831C71.9584 145.359 72.2824 129.031 72.9844 116.691C73.0274 116.662 73.2984 116.366 73.3374 116.338C74.4524 115.572 75.6634 114.944 76.6904 114.044C76.0194 125.682 75.2324 137.278 74.2194 148.891L73.6904 150.038Z" fill="#EEC7BD"/>
<path d="M64.5151 163.095C66.5201 149.283 67.0521 134.017 68.3971 120.043C69.9601 118.833 71.3611 117.816 72.9841 116.691C72.2821 129.031 71.9581 145.359 67.6911 156.831C67.1441 158.299 65.4611 162.28 64.5151 163.095Z" fill="#F6E5D9"/>
<path d="M77.5725 84.755C77.7025 86.039 77.7025 88.548 77.7485 90.048C77.9355 95.976 77.5305 97.155 77.3955 100.987C75.9595 103.285 74.8865 106.99 73.1615 108.751C72.7375 107.184 68.0265 100.169 66.4565 98.429C66.4635 97.48 76.2175 95.359 76.5135 84.931C76.7185 84.709 76.1825 83.999 77.5725 84.755Z" fill="#BFCDD8"/>
<path d="M76.5135 84.931C76.2175 95.359 66.4635 97.48 66.4565 98.429C68.0265 100.169 72.7375 107.184 73.1615 108.751C73.5075 110.028 72.9995 109.566 72.9845 109.633C72.8365 109.428 72.6355 109.086 72.4555 108.927C70.7155 104.784 67.1975 101.795 64.5155 98.341C64.3145 98.083 64.0995 98.178 64.1625 97.9C67.3035 95.532 75.3495 88.728 75.9845 84.931C76.1895 84.917 76.4925 84.956 76.5135 84.931Z" fill="#FCFCFC"/>
<path d="M72.4554 108.927C70.1864 106.923 67.9034 105.035 65.5744 103.105C64.9324 102.572 62.5144 99.7629 61.6924 99.9289C62.6384 99.3989 63.6614 99.0149 64.5154 98.3409C67.1974 101.795 70.7154 104.784 72.4554 108.927Z" fill="#9EC8D9"/>
<path d="M57.4575 100.458C57.0205 101.241 56.6185 101.125 56.5755 101.164C53.9995 101.584 51.3775 106.7 48.8125 107.163C49.7225 105.956 55.3235 99.029 55.5175 98.517C57.1965 99.562 57.3595 100.363 57.4575 100.458Z" fill="#9EC8D9"/>
<path d="M64.1626 122.16C64.1766 122.541 64.0816 122.877 64.3396 123.219L61.5166 169.447C60.4156 169.5 59.3746 169.648 58.2516 169.623C58.1076 169.623 58.1816 169.27 58.1636 169.27C57.7826 161.475 57.1406 153.687 56.7526 145.892C56.4696 140.274 56.5366 129.97 56.0466 125.425C55.9726 124.736 55.9476 123.586 55.5176 123.043C55.7716 123.053 55.6866 122.788 55.6936 122.513C56.4096 122.609 57.1296 122.22 57.8106 122.16C58.6296 122.09 63.6336 122.316 63.8096 122.072C63.5556 120.156 63.5766 118.159 63.2806 116.25C63.2626 116.14 62.5116 114.559 63.1046 114.22C63.5026 116.853 64.0536 119.493 64.1626 122.16Z" fill="#211018"/>
<path d="M65.5745 103.105C65.0375 103.895 64.8685 104.897 64.5155 105.751C63.7955 107.494 62.8955 109.188 62.2215 110.956C62.6775 111.994 62.9345 113.109 63.1045 114.22C62.5115 114.559 63.2625 116.14 63.2805 116.25C63.5765 118.159 63.5555 120.156 63.8095 122.072C63.6335 122.316 58.6295 122.09 57.8105 122.16L58.8695 112.015C59.0285 111.263 58.4355 111.217 57.8105 110.868V110.692L58.1635 110.251C58.1565 109.227 58.1705 107.989 58.3405 106.986C58.5485 105.772 58.8165 102.805 59.3985 101.869C59.7095 101.372 61.3115 100.564 61.6925 99.9289C62.5145 99.7629 64.9325 102.572 65.5745 103.105Z" fill="#0D1322"/>
<path d="M57.8103 122.16C57.1293 122.22 56.4093 122.609 55.6933 122.513C55.7003 122.28 55.6683 122.037 55.6933 121.807C55.8063 120.714 56.0323 119.542 56.2223 118.455C56.2683 118.201 56.3533 118.003 56.3993 117.749C56.8263 115.441 57.3873 113.172 57.8103 110.868C58.4353 111.217 59.0283 111.263 58.8693 112.015L57.8103 122.16Z" fill="#172437"/>
<path d="M57.8105 100.811C57.6345 100.963 57.1155 101.697 57.1055 101.781C57.0695 102.057 57.7895 106.926 58.3405 106.986C58.1705 107.989 58.1565 109.227 58.1635 110.251L57.8105 110.692C57.0525 108.987 55.9895 107.011 55.5175 105.222C54.9595 103.115 54.6205 102.865 56.5755 101.164C56.6185 101.125 57.0205 101.241 57.4575 100.458C57.5955 100.589 57.6945 100.701 57.8105 100.811Z" fill="#0D1322"/>
<path d="M59.2223 101.693C59.2223 101.693 59.1803 101.887 59.3983 101.869C58.8163 102.805 58.5483 105.772 58.3403 106.986C57.7893 106.926 57.0693 102.057 57.1053 101.781C57.1153 101.697 57.6343 100.963 57.8103 100.811C57.8703 100.867 58.9683 101.562 59.2223 101.693Z" fill="#055A83"/>
<path d="M61.6927 99.929C61.3117 100.564 59.7097 101.372 59.3987 101.869C59.1807 101.887 59.2327 101.7 59.2227 101.693C59.8227 100.779 60.7997 100.43 61.6927 99.929Z" fill="#CF9598"/>
<path d="M56.5755 101.164C54.6205 102.865 54.9595 103.115 55.5175 105.222C55.0515 105.914 55.2065 105.194 55.0755 105.222C53.9895 105.465 49.4585 109.449 48.4595 110.515C48.0395 110.963 47.2985 111.471 47.2245 111.574C46.7235 111.299 46.5325 110.737 46.1655 110.339C47.2665 109.471 47.9835 108.26 48.8125 107.163C51.3775 106.7 53.9995 101.584 56.5755 101.164Z" fill="#F4B9AB"/>
<path d="M45.1062 109.28C44.2562 108.387 43.2962 107.551 42.4602 106.633C42.3822 104.1 42.2832 101.584 42.2832 99.0459C42.4072 99.0459 42.5592 98.9899 42.6362 99.1349C42.8872 99.5969 45.5302 108.221 45.1062 109.28Z" fill="#F6E5D9"/>
<path d="M76.6902 114.044C75.6632 114.944 74.4522 115.572 73.3372 116.338C73.0972 115.473 72.9772 114.573 72.8082 113.691C72.7162 113.218 72.2572 112.213 72.2792 111.927C72.2432 111.574 72.7302 111.228 73.1612 110.692C73.9342 109.725 76.1712 107.65 77.2192 106.633C77.1062 109.118 76.8312 111.574 76.6902 114.044Z" fill="#C4607B"/>
<path d="M77.2192 106.633C76.1712 107.65 73.9342 109.725 73.1612 110.692C72.8152 110.917 72.8572 110.275 72.9842 109.633C72.9992 109.566 73.5072 110.028 73.1612 108.751C74.8862 106.99 75.9592 103.285 77.3952 100.987C77.3282 102.865 77.3042 104.756 77.2192 106.633Z" fill="#B7BACC"/>
<path d="M55.5175 105.222C55.9895 107.011 57.0525 108.987 57.8105 110.692V110.868C57.3875 113.172 56.8265 115.441 56.3995 117.749C53.9045 115.205 51.4135 112.523 48.4595 110.515C49.4585 109.449 53.9895 105.465 55.0755 105.222C55.2065 105.194 55.0515 105.914 55.5175 105.222Z" fill="#EEC7BD"/>
<path d="M72.4551 108.927C72.6351 109.086 72.8361 109.428 72.9841 109.633C72.8571 110.275 72.8151 110.917 73.1611 110.692C72.7301 111.228 72.2431 111.574 72.2791 111.927C72.0991 111.884 71.2661 111.436 71.2201 111.397C69.4341 109.933 66.9891 106.662 64.5151 105.751C64.8681 104.897 65.0371 103.895 65.5741 103.105C67.9031 105.035 70.1861 106.923 72.4551 108.927Z" fill="#F4B9AB"/>
<path d="M72.2792 111.927C72.2572 112.213 72.7162 113.218 72.8082 113.691C72.7482 114.242 71.7462 114.792 71.2202 115.279C70.2112 114.439 67.3172 116.606 66.3682 116.161C63.4642 114.806 70.5812 112.445 71.2202 111.397C71.2662 111.436 72.0992 111.884 72.2792 111.927Z" fill="#F6E5D9"/>
<path d="M56.2223 118.455C56.0323 119.542 55.8063 120.714 55.6933 121.807C54.7373 120.541 46.5113 114.372 46.3423 113.779C46.1793 113.215 46.6773 112.858 46.6943 112.809L56.2223 118.455Z" fill="#EEC7BD"/>
<path d="M56.3993 117.749C56.3533 118.003 56.2683 118.201 56.2223 118.455L46.6943 112.809C46.7623 112.615 47.1853 111.63 47.2243 111.574C47.2983 111.471 48.0393 110.963 48.4593 110.515C51.4133 112.523 53.9043 115.205 56.3993 117.749Z" fill="#F6E5D9"/>
<path d="M46.694 78.7561C46.352 81.9491 46.225 85.6401 47.93 88.4601C49.673 91.3431 58.767 98.2951 60.016 98.1641C69.907 91.8301 74.202 92.1261 72.808 78.7561C73.436 78.0321 74.11 76.8221 74.749 76.6381C74.668 77.2451 74.918 77.1391 74.925 77.1681C75.328 78.8861 76.527 81.6631 75.984 84.9311C75.349 88.7281 67.303 95.5321 64.162 97.9001C64.099 98.1781 64.314 98.0831 64.515 98.3411C63.661 99.0151 62.638 99.3991 61.692 99.9291C60.799 100.43 59.822 100.779 59.222 101.693C58.968 101.562 57.87 100.867 57.81 100.811C57.694 100.701 57.595 100.589 57.457 100.458C57.359 100.363 57.196 99.5621 55.517 98.5171C55.548 98.4321 55.435 98.2351 55.693 98.0761C51.808 94.7801 46.846 91.1071 44.401 86.5191C43.949 85.6691 43.455 84.8961 43.166 83.9611C43.737 81.4551 43.974 78.9071 45.283 76.6381C45.668 77.2311 46.313 78.2581 46.694 78.7561Z" fill="#A2303C"/>
<path d="M47.9302 88.4601C51.5252 90.1221 55.2062 91.6181 58.9572 92.8711C59.1442 92.6841 58.9042 92.4901 59.2222 92.3421C61.8832 91.0991 72.6102 83.0921 72.1022 79.6381C72.3492 79.3771 72.5722 79.0271 72.8082 78.7561C74.2022 92.1261 69.9072 91.8301 60.0162 98.1641C58.7672 98.2951 49.6732 91.3431 47.9302 88.4601Z" fill="#CE6A44"/>
<path d="M49.6942 81.9311C51.8852 85.2061 55.8482 86.5231 59.3982 87.7541C59.0742 88.7851 59.2922 91.0961 59.2222 92.3421C58.9042 92.4901 59.1442 92.6841 58.9572 92.8711C55.2062 91.6181 51.5252 90.1221 47.9302 88.4601C46.2252 85.6401 46.3522 81.9491 46.6942 78.7561C47.5522 79.8741 48.5652 81.0811 49.6942 81.9311Z" fill="#E07F52"/>
<path d="M59.2222 92.3421C59.2922 91.0961 59.0742 88.7851 59.3982 87.7541C59.6632 86.9071 61.1352 85.9191 61.6922 85.1071C65.6132 84.9061 69.4592 82.4181 72.1022 79.6381C72.6102 83.0921 61.8832 91.0991 59.2222 92.3421Z" fill="#AF5039"/>
<path d="M61.6918 85.107C61.1348 85.919 59.6628 86.907 59.3978 87.754C55.8478 86.523 51.8848 85.206 49.6938 81.931C52.7918 84.261 57.9088 85.302 61.6918 85.107Z" fill="#CE6A44"/>
<path d="M83.9242 55.1121C86.0802 56.6011 84.8342 56.4071 84.8062 58.1121C84.1602 59.4171 82.0612 62.5231 80.2192 61.6411C80.1372 61.6021 79.2232 60.3981 79.5132 60.1411C80.8332 56.0691 80.7062 51.7211 81.2772 47.5251C81.6232 47.1511 81.7502 47.8361 81.8072 48.1431C82.7732 53.3131 79.1072 62.4661 82.1592 58.3761C82.4982 57.9211 83.7332 55.6311 83.9242 55.1121Z" fill="#E07F52"/>
<path d="M84.8061 58.1121C84.8341 56.4071 86.0801 56.6011 83.9241 55.1121C84.2131 54.3221 84.7041 52.0991 84.8061 51.2311C84.9791 49.7521 85.3851 45.1751 83.2181 44.8791C82.3991 44.7661 82.0711 45.3161 81.4541 45.5841C81.6371 44.6391 81.7751 43.4671 82.6891 42.9381C88.7721 44.7341 86.9271 53.8241 84.8061 58.1121Z" fill="#EE975F"/>
<path d="M83.2182 44.8791L83.5712 51.4951C84.8662 52.5611 84.1042 51.2591 84.8062 51.2311C84.7042 52.0991 84.2132 54.3221 83.9242 55.1121C83.7332 55.6311 82.4982 57.9211 82.1592 58.3761C79.1072 62.4661 82.7732 53.3131 81.8072 48.1431C81.7502 47.8361 81.6232 47.1511 81.2772 47.5251C81.3582 46.9361 81.3412 46.1701 81.4542 45.5841C82.0712 45.3161 82.3992 44.7661 83.2182 44.8791Z" fill="#67201C"/>
<path d="M84.8063 51.2311C84.1043 51.2591 84.8663 52.5611 83.5713 51.4951L83.2183 44.8792C85.3853 45.1752 84.9793 49.7521 84.8063 51.2311Z" fill="#67201C"/>
<path d="M38.9311 45.5841L38.5781 45.7611C37.7171 44.0631 35.7971 44.8721 35.2261 46.3781C34.1711 49.1631 35.9991 57.2301 38.5781 59.3471C38.2041 62.1061 37.8441 61.0511 35.5791 59.7001C32.9991 56.5731 31.7781 47.7231 34.3441 44.4371C35.0921 43.4811 36.2101 43.2271 36.9901 42.4081C37.4211 43.6401 38.0881 41.4981 38.9311 45.5841Z" fill="#F8B581"/>
<path d="M38.9311 49.466C39.0691 49.674 39.1891 49.925 39.4601 49.995C39.9371 53.609 40.1031 57.297 40.8721 60.847C39.2131 61.602 39.5451 61.803 39.4601 61.817C38.3811 61.986 36.3021 60.578 35.5791 59.7C37.8441 61.051 38.2041 62.106 38.5781 59.347C38.5781 59.326 38.9311 59.209 38.9311 59.082C38.9311 58.511 37.1001 52.12 37.6961 47.79C38.2611 48.178 38.5641 48.916 38.9311 49.466Z" fill="#EE975F"/>
<path d="M38.578 45.7611C38.864 46.3221 39.136 48.7251 38.931 49.4661C38.564 48.9161 38.261 48.1781 37.696 47.7901C37.1 52.1201 38.935 58.5111 38.931 59.0821C38.931 59.2091 38.582 59.3261 38.578 59.3471C35.999 57.2301 34.171 49.1631 35.226 46.3781C35.797 44.8721 37.717 44.0631 38.578 45.7611Z" fill="#67201C"/>
<path d="M78.2781 16.471C77.5791 23.261 68.6471 23.547 63.3681 23.353C56.2221 30.474 54.1301 25.996 47.1361 25.646C41.8211 25.382 42.9751 28.554 41.8421 32.351C39.8131 30.386 36.1541 28.459 35.2261 25.999C35.6071 21.765 40.7341 15.007 45.1951 15.413C46.3591 15.519 49.7961 17.082 51.5471 17.001C61.9001 10.85 60.3761 8.93402 72.5431 15.589C74.5511 15.374 76.3831 15.868 78.2781 16.471Z" fill="#4D273C"/>
<path d="M67.4259 13.295C70.4149 13.341 64.6419 15.06 64.2499 15.236C60.4919 16.916 57.0759 19.312 53.3989 21.147C55.2309 18.91 65.3479 13.264 67.4259 13.295Z" fill="#6A5076"/>
<path d="M44.3131 17.0011C44.5421 16.9831 45.7281 17.6921 45.6361 17.9711C39.7601 20.9921 43.9911 17.0221 44.3131 17.0011Z" fill="#DBDEF1"/>
<path d="M83.7472 22.1181V22.2941C83.7652 22.9331 83.2782 23.8931 83.3942 24.6761C83.5182 25.4981 84.7602 25.5971 84.4532 29.8811C84.1812 33.6431 82.9182 35.6541 82.8652 35.9681C82.6852 37.0691 82.8652 41.1341 82.6892 42.9381C81.7752 43.4671 81.6372 44.6391 81.4542 45.5841C81.3412 46.1701 81.3582 46.9361 81.2772 47.5251C80.7062 51.7211 80.8332 56.0691 79.5132 60.1411C79.2232 60.3981 80.1372 61.6021 80.2192 61.6411C79.3502 66.8071 77.5222 71.8711 74.5722 76.1971L74.7492 76.6381C74.1102 76.8221 73.4362 78.0321 72.8082 78.7561C72.5722 79.0271 72.3492 79.3771 72.1022 79.6381C69.4592 82.4181 65.6132 84.9061 61.6922 85.1071C57.9092 85.3021 52.7922 84.2611 49.6942 81.9311C48.5652 81.0811 47.5522 79.8741 46.6942 78.7561C46.3132 78.2581 45.6682 77.2311 45.2832 76.6381C42.3682 72.1421 40.3142 67.1171 39.4602 61.8171C39.5452 61.8031 39.2132 61.6021 40.8722 60.8471C40.1032 57.2971 39.9372 53.6091 39.4602 49.9951C39.2702 48.5521 39.2242 47.0031 38.9312 45.5841C38.0882 41.4981 37.4212 43.6401 36.9902 42.4081C36.6552 39.9381 36.7822 36.8291 36.4612 34.4681C36.2002 32.5521 35.7662 32.8911 35.7552 32.7921C35.6002 31.5361 35.2892 29.6971 35.2262 28.6461C35.2122 28.4131 35.2332 28.1731 35.2262 27.9401C35.2122 27.3331 35.1732 26.5851 35.2262 25.9991C36.1542 28.4591 39.8132 30.3861 41.8422 32.3511C42.9752 28.5541 41.8212 25.3821 47.1362 25.6461C54.1302 25.9961 56.2222 30.4741 63.3682 23.3531C68.6472 23.5471 77.5792 23.2611 78.2782 16.4711C80.9212 17.3111 83.6632 18.9031 83.7472 22.1181Z" fill="#211018"/>
<path d="M66.9848 63.052C67.5988 63.959 66.0538 63.458 66.1028 64.111C64.6878 64.386 62.2208 64.615 62.0448 65.169C60.6968 64.947 58.4098 64.658 57.2808 64.287C55.5868 63.73 56.0638 63.889 56.5748 63.581C56.9458 63.359 57.0828 63.423 57.1048 63.405C60.6398 64.224 63.5018 64.026 66.9848 63.052Z" fill="#E07F52"/>
<path d="M59.9281 57.759C58.1841 55.994 59.9141 53.757 59.9281 53.524C61.0151 54.625 61.4241 57.032 59.9281 57.759Z" fill="#FCFCFC"/>
<path d="M51.635 62.346C50.947 63.818 49.821 64.03 49.694 64.111C48.053 63.723 50.484 62.279 51.635 62.346Z" fill="#67201C"/>
<path d="M63.4568 65.346C64.2118 65.48 65.0298 65.438 65.7498 65.699C61.7238 67.611 57.7258 67.294 53.5758 66.052C53.2578 65.798 52.9968 65.244 52.6938 64.993C54.5808 64.76 56.4268 65.561 58.2508 65.699C59.6878 65.808 63.5658 65.833 63.4568 65.346Z" fill="#FACAB1"/>
<path d="M53.5762 66.0521C57.7262 67.2941 61.7242 67.6111 65.7502 65.6991C66.4882 66.3381 61.7912 68.3881 60.5452 68.5221C57.4052 68.8611 55.8692 67.8941 53.5762 66.0521Z" fill="#FCFCFC"/>
<path d="M57.2808 64.287C58.4098 64.658 60.6968 64.947 62.0448 65.169C62.5068 65.247 62.9768 65.261 63.4568 65.346C63.5658 65.833 59.6878 65.808 58.2508 65.699C56.4268 65.561 54.5808 64.76 52.6938 64.993C52.3968 64.75 52.3618 64.651 52.3408 64.64C53.4238 63.624 55.7808 64.298 57.2808 64.287Z" fill="#F6E5D9"/>
<path d="M68.9259 63.581C67.8849 64.287 66.8939 65.155 65.7499 65.699C65.0299 65.438 64.2119 65.48 63.4569 65.346C62.9769 65.261 62.5069 65.247 62.0449 65.169C62.2209 64.615 64.6879 64.386 66.1029 64.111C67.3839 63.86 68.6829 63.123 68.9259 63.581Z" fill="#EE975F"/>
<path d="M62.9273 77.168C66.1603 74.447 69.8193 71.973 72.4553 68.61C73.3513 67.467 77.0993 62.339 74.2193 62.523C75.7553 58.034 75.3493 50.941 71.9263 47.349C70.6343 45.994 68.4573 45.129 66.8093 46.643C65.9553 46.505 65.9483 46.036 66.1033 45.231C70.4053 43.072 73.7153 45.56 74.1313 45.584C75.4193 45.666 75.2823 44.215 73.6023 43.114C72.2403 42.221 70.1153 41.999 68.5733 41.879C68.6973 41.163 66.9293 41.756 65.3973 41.438L68.3973 41.262C68.8063 40.891 67.4053 34.105 67.5153 32.969C65.7043 32.316 63.9363 31.712 62.0453 31.293L61.7803 30.763C63.9933 30.58 70.4403 31.01 71.4853 30.763C71.6153 30.731 71.5733 30.53 71.5733 30.41C73.3093 30.516 74.7063 30.213 75.8073 32.087C77.7523 43.213 80.7663 51.742 76.1603 62.964C74.2303 67.668 67.5613 75.149 62.9273 77.168Z" fill="#EE975F"/>
<path d="M62.9272 77.168C60.5452 78.205 58.9682 78.625 56.5752 77.52C56.7232 75.414 57.6552 73.49 58.3402 71.521C59.2292 71.578 60.3232 71.285 61.1632 70.992C66.7382 71.264 72.3462 68.003 74.2192 62.523C77.0992 62.339 73.3512 67.467 72.4552 68.61C69.8192 71.973 66.1602 74.447 62.9272 77.168Z" fill="#E07F52"/>
<path d="M58.3403 71.5211C57.6553 73.4901 56.7233 75.4141 56.5753 77.5201C51.9743 75.3931 45.6923 67.1421 43.6953 62.3461C48.5373 63.6701 49.8813 67.5411 53.6643 69.7571C54.7233 70.3781 57.1863 71.4471 58.3403 71.5211Z" fill="#EE975F"/>
<path d="M39.4601 49.995C39.1891 49.925 39.0691 49.674 38.9311 49.466C39.1361 48.725 38.8641 46.322 38.5781 45.761L38.9311 45.584C39.2241 47.003 39.2701 48.552 39.4601 49.995Z" fill="#B67468"/>
<path d="M62.045 31.293C63.936 31.712 65.704 32.316 67.515 32.969C67.405 34.105 68.806 40.891 68.397 41.262L65.397 41.438C66.929 41.756 68.697 41.163 68.573 41.879C66.431 41.71 63.305 41.082 65.044 44.349C63.234 45.831 61.106 46.759 59.751 48.76C60.072 42.825 60.655 36.773 60.898 30.94C61.434 30.823 61.766 31.229 62.045 31.293Z" fill="#F8B581"/>
<path d="M68.7502 64.6401C68.0622 66.2601 65.0662 68.225 63.6332 69.2281C55.4002 72.34 51.3422 65.1551 50.5762 64.8171C51.2152 64.2381 51.7622 64.3301 52.3412 64.6401C52.3622 64.6511 52.3972 64.75 52.6942 64.993C52.9972 65.244 53.2582 65.7981 53.5762 66.0521C55.8692 67.8941 57.4052 68.8611 60.5452 68.5221C61.7912 68.3881 66.4882 66.3381 65.7502 65.6991C66.8942 65.1551 67.8852 64.2871 68.9262 63.5811C69.1412 63.7971 68.8492 64.4041 68.7502 64.6401Z" fill="#841532"/>
<path d="M56.5751 63.5811C56.0641 63.8891 55.5871 63.7301 57.2811 64.2871C55.7811 64.2981 53.4241 63.6241 52.3411 64.6401C51.7621 64.3301 51.2151 64.2381 50.5761 64.8171C49.3451 64.2731 48.0711 65.1271 49.6941 64.1111C49.8211 64.0301 50.9471 63.8181 51.6351 62.3461C52.1011 62.3751 55.7641 63.1511 56.5751 63.5811Z" fill="#EE975F"/>
<path d="M68.5731 41.8791C70.1151 41.9991 72.2401 42.2211 73.6021 43.1141C75.2821 44.2151 75.4191 45.6661 74.1311 45.5841C73.7151 45.5601 70.4051 43.0721 66.1031 45.2311L65.8381 45.4081C65.4401 45.1041 65.2701 44.7731 65.0441 44.3491C63.3051 41.0821 66.4311 41.7101 68.5731 41.8791Z" fill="#211018"/>
<path d="M71.9262 47.349C69.0112 45.846 65.1402 48.178 66.8092 46.643C68.4572 45.129 70.6342 45.994 71.9262 47.349Z" fill="#6B3119"/>
<path d="M71.5732 30.41C71.5732 30.53 71.6152 30.731 71.4852 30.763C70.4402 31.01 63.9932 30.58 61.7802 30.763L62.0452 31.293C61.7662 31.229 61.4342 30.823 60.8982 30.94C60.6552 36.773 60.0722 42.825 59.7512 48.76C59.6632 50.369 60.0262 52.021 59.9282 53.524C59.9142 53.757 58.1842 55.994 59.9282 57.759C59.9062 57.769 59.9912 58.073 59.8392 58.112C59.4442 58.211 56.5792 58.204 55.7812 58.112L55.5172 58.376C55.6542 58.655 56.0282 59.128 56.0462 59.17C56.2542 59.65 56.5402 60.102 56.7522 60.582C57.2142 61.623 58.2302 62.346 57.1052 63.405C57.0832 63.423 56.9462 63.359 56.5752 63.581C55.7642 63.151 52.1012 62.375 51.6352 62.346C50.4842 62.279 48.0532 63.723 49.6942 64.111C48.0712 65.127 49.3452 64.273 50.5762 64.817C51.3422 65.155 55.4002 72.34 63.6332 69.228C62.9772 69.686 62.8712 69.648 62.4862 70.463C62.0702 70.523 61.4562 70.89 61.1632 70.992C60.3232 71.285 59.2292 71.578 58.3402 71.521C57.1862 71.447 54.7232 70.378 53.6642 69.757C49.8812 67.541 48.5372 63.67 43.6952 62.346C41.5532 57.201 40.7772 52.137 41.2252 46.555C41.3202 45.38 44.1472 31.529 44.5772 30.851C44.6762 30.696 44.9022 30.566 45.0182 30.41C53.3892 31.162 63.4952 29.913 71.5732 30.41Z" fill="#F8B581"/>
<path d="M50.1353 41.879C56.2263 41.254 55.8453 42.017 54.3703 45.408C48.5793 42.931 45.6753 45.74 45.1953 45.761C43.0033 45.86 45.2303 42.384 50.1353 41.879Z" fill="#211018"/>
<path d="M50.0474 47.702C49.5704 47.846 49.4014 48.192 49.1654 48.584C48.1594 50.25 48.8514 51.707 49.6944 51.936C51.4804 52.42 53.1564 50.154 51.8114 52.113C50.8484 52.42 50.4774 52.589 49.5184 52.466C45.2514 51.919 47.9724 47.091 50.0474 47.702Z" fill="#FCFCFC"/>
<path d="M49.9595 45.584C51.1095 45.464 53.0435 46.068 53.5765 47.261C53.4705 47.455 52.0804 46.343 49.2534 46.643C48.9994 46.671 45.8585 48.086 48.1945 46.29C48.3395 46.181 49.8035 45.602 49.9595 45.584Z" fill="#49281A"/>
<path d="M51.8112 52.113H51.9882C51.2262 52.755 50.4032 52.931 49.4292 52.819L49.5182 52.466C50.4772 52.589 50.8482 52.42 51.8112 52.113Z" fill="#794930"/>
<path d="M49.6941 51.936C48.8511 51.707 48.1591 50.25 49.1651 48.584C50.2371 47.984 49.7681 49.695 49.8701 50.437C49.9761 51.199 51.0381 51.4 49.6941 51.936Z" fill="#C08F3A"/>
<path d="M51.9885 52.113H51.8115C53.1565 50.154 51.4805 52.42 49.6945 51.936C51.0385 51.4 49.9765 51.199 49.8705 50.437C49.7685 49.695 50.2375 47.984 49.1655 48.584C49.4015 48.192 49.5705 47.846 50.0475 47.702C52.7465 46.887 53.9435 50.468 51.9885 52.113Z" fill="#0D1322"/>
<path d="M52.0767 48.76C52.4647 48.658 52.9417 49.695 52.4297 49.819C51.9957 49.925 51.5047 48.912 52.0767 48.76Z" fill="#C9E8F4"/>
<path d="M65.0441 44.349C65.2701 44.773 65.4401 45.104 65.8381 45.408L66.1031 45.231C65.9481 46.036 65.9551 46.505 66.8091 46.643C65.1401 48.178 69.0111 45.846 71.9261 47.349C75.3491 50.941 75.7551 58.034 74.2191 62.523C72.3461 68.003 66.7381 71.264 61.1631 70.992C61.4561 70.89 62.0701 70.523 62.4861 70.463C62.8711 69.648 62.9771 69.686 63.6331 69.228C65.0661 68.225 68.0621 66.26 68.7501 64.64C70.9911 63.324 69.0291 62.156 68.4851 62.17C68.3091 62.173 67.3141 62.96 66.9851 63.052C63.5021 64.026 60.6401 64.224 57.1051 63.405C58.2301 62.346 57.2141 61.623 56.7521 60.582C61.2471 64.178 66.1811 57.889 60.7221 60.935C58.9111 61.245 57.4611 60.141 56.0461 59.17C56.0281 59.128 55.6541 58.655 55.5171 58.376L55.7811 58.112C56.5791 58.204 59.4441 58.211 59.8391 58.112C59.9911 58.073 59.9061 57.769 59.9281 57.759C61.4241 57.032 61.0151 54.625 59.9281 53.524C60.0261 52.021 59.6631 50.369 59.7511 48.76C61.1061 46.759 63.2341 45.831 65.0441 44.349Z" fill="#EE975F"/>
<path d="M56.7519 60.5819C56.5399 60.1019 56.2539 59.6499 56.0459 59.1699C57.4609 60.1409 58.9109 61.2449 60.7219 60.9349C66.1809 57.8889 61.2469 64.1779 56.7519 60.5819Z" fill="#CE6A44"/>
<path d="M69.103 47.8779C68.439 47.7329 68.118 48.1819 67.691 48.5839C67.536 48.7289 67.621 48.4739 67.338 48.9369C66.445 50.3979 66.788 51.9719 68.573 52.2889C69.54 52.4619 70.43 51.7029 69.985 52.4659L67.338 52.9949C64.303 52.3839 65.764 47.5849 69.103 47.8779Z" fill="#FCFCFC"/>
<path d="M68.7497 64.6399C68.8487 64.4039 69.1407 63.7969 68.9257 63.5809C68.6827 63.1229 67.3837 63.8599 66.1027 64.1109C66.0537 63.4579 67.5987 63.9589 66.9847 63.0519C67.3137 62.9599 68.3087 62.1729 68.4847 62.1699C69.0287 62.1559 70.9907 63.3239 68.7497 64.6399Z" fill="#8E3426"/>
<path d="M69.9849 52.4659C68.7289 53.1709 69.0179 53.3339 67.3379 52.9949L69.9849 52.4659Z" fill="#151021"/>
<path d="M68.0439 49.2899C68.2349 51.7459 68.9369 51.2379 68.5729 52.2889C66.7879 51.9719 66.4449 50.3979 67.3379 48.9369L67.6909 48.7599C67.6169 49.0359 67.6349 49.3739 68.0439 49.2899Z" fill="#ECC23A"/>
<path d="M69.1029 47.8779C69.5929 47.9199 70.0799 48.0089 70.5139 48.2309C71.4709 49.3919 71.3579 50.3869 70.8669 51.7599C70.4369 52.2079 70.5529 52.1479 69.9849 52.4659C70.4299 51.7029 69.5399 52.4619 68.5729 52.2889C68.9369 51.2379 68.2349 51.7459 68.0439 49.2899C68.0399 49.2299 68.2659 47.7159 67.6909 48.5839C68.1179 48.1819 68.4389 47.7329 69.1029 47.8779Z" fill="#151021"/>
<path d="M70.8667 51.76C71.3577 50.387 71.4707 49.392 70.5137 48.231C72.7057 49.35 72.2357 50.338 70.8667 51.76Z" fill="#FAF6EA"/>
<path d="M70.4256 48.9369C70.8706 48.8309 71.1556 49.9669 70.7786 49.9949C70.2526 50.0379 69.8996 49.0639 70.4256 48.9369Z" fill="#C9E8F4"/>
<path d="M68.0437 49.2899C67.6347 49.3739 67.6167 49.0359 67.6907 48.7599C67.7087 48.6969 67.6697 48.6189 67.6907 48.5839C68.2657 47.7159 68.0397 49.2299 68.0437 49.2899Z" fill="#FCFCFC"/>
<path d="M67.6909 48.584C67.6699 48.619 67.7089 48.697 67.6909 48.76L67.3379 48.937C67.6209 48.474 67.5359 48.729 67.6909 48.584Z" fill="#766A2F"/>
</g>
</g>
<defs>
<linearGradient id="paint0_linear_79_660" x1="26.2132" y1="91.0252" x2="22.0633" y2="162.188" gradientUnits="userSpaceOnUse">
<stop stop-color="#0D3C5D"/>
<stop offset="1" stop-color="#101A29"/>
</linearGradient>
<linearGradient id="paint1_linear_79_660" x1="40.0429" y1="100.271" x2="33.9944" y2="160.134" gradientUnits="userSpaceOnUse">
<stop stop-color="#123650"/>
<stop offset="1" stop-color="#271326"/>
</linearGradient>
<clipPath id="clip0_79_660">
<rect width="120" height="120" fill="white"/>
</clipPath>
</defs>
</svg>
