<svg width="120" height="120" viewBox="0 0 120 120" fill="none" xmlns="http://www.w3.org/2000/svg">
<g clip-path="url(#clip0_79_154)">
<mask id="mask0_79_154" style="mask-type:luminance" maskUnits="userSpaceOnUse" x="0" y="6" width="124" height="228">
<path d="M123.63 6.66699H0.240234V233.332H123.63V6.66699Z" fill="white"/>
</mask>
<g mask="url(#mask0_79_154)">
<path d="M101.472 95.123C99.8302 95.899 99.2542 95.14 99.1392 95.123C99.5402 95.106 100.269 93.958 100.452 93.958C100.636 93.958 101.297 94.918 101.472 95.123Z" fill="#5099CB"/>
<path d="M49.5761 84.338L49.2861 84.923L47.2471 83.758C48.1731 82.56 49.2091 81.438 50.1611 80.26C50.0841 81.732 49.9691 82.922 49.5761 84.343V84.338Z" fill="#FCFCFC"/>
<path d="M65.9024 23.113C59.9644 20.391 61.0604 22.435 58.7614 23.697C58.7224 23.719 58.3134 23.147 57.8864 23.407C57.1104 23.877 55.5444 25.741 54.8234 26.321C45.3664 33.961 39.2824 44.818 32.2314 54.6C29.3174 53.777 37.1964 45.066 36.3134 43.521C34.1854 46.273 32.5594 49.14 31.0664 52.267C29.2794 52.757 24.5524 53.06 24.2154 53.141C22.5264 47.574 20.2304 45.863 21.5914 39.729C22.2784 40.412 22.7994 38.488 23.3404 37.835C26.2034 34.388 39.8884 24.734 40.9804 24.862C41.6634 25.425 41.3174 25.276 40.9804 25.736C40.1914 26.807 19.5734 42.387 22.6154 44.396C26.4554 40.46 30.2924 36.524 34.1294 32.588C32.9644 37.779 24.4544 44.605 24.5094 45.416C24.6374 47.322 31.1904 39.4349 32.5254 38.274C35.2944 35.872 38.6554 34.17 41.2704 31.568C42.4434 31.679 35.2644 38.833 34.2744 39.733C28.4474 45.027 20.4654 48.841 29.0274 46.439C38.0414 43.914 42.7424 33.185 49.7264 26.905C53.4544 23.552 57.9334 21.189 61.6794 17.866C64.0644 16.987 62.3614 19.832 65.9064 23.113H65.9024Z" fill="#152B46"/>
<path d="M87.7704 34.192C88.0554 34.422 88.1244 34.503 88.3544 34.776C87.1884 34.921 86.0224 35.068 84.8564 35.216C87.0664 35.3899 86.5244 46.84 86.6054 51.2509C87.0154 52.0959 94.4504 46.5159 90.9784 51.396C90.3294 51.913 88.2604 52.715 88.0644 53.291C88.8664 54.344 86.8914 61.174 86.4604 61.306C86.3194 61.3489 85.6884 60.0729 85.1464 60.577C84.4214 69.7869 80.6284 64.907 78.4404 66.844C78.1284 66.852 78.1674 66.187 78.1504 65.969C78.1334 65.781 78.1334 65.577 78.1504 65.385C82.0114 58.435 80.7824 50.074 79.0244 42.643C79.4044 42.707 79.3874 41.8659 79.3144 41.1839C81.7164 42.1139 80.1514 47.583 82.8134 47.16C82.1134 41.1919 82.5054 35.233 81.0644 29.3749C80.5994 27.4809 79.3324 25.7919 79.3144 25.5869C78.9314 20.4979 85.6544 30.9449 84.8524 32.8779C85.6884 33.5559 86.9214 33.505 87.7654 34.192H87.7704Z" fill="#0F1525"/>
<path d="M23.0464 36.231C23.3194 33.338 24.3474 30.706 25.3794 28.066C25.6654 31.415 27.1504 26.662 28.0034 25.587C31.8944 20.69 46.5094 12.363 52.6394 11.445C53.7274 11.283 60.3954 10.916 59.2004 12.465C59.0254 12.691 55.4554 12.665 53.5144 13.194C43.5874 15.903 27.9824 27.123 23.0464 36.227V36.231Z" fill="#152B46"/>
<path d="M88.3505 34.776C90.6155 37.438 91.8485 46.508 92.4325 50.373C92.3475 50.62 91.4645 51 90.9735 51.392C94.4465 46.512 87.0105 52.092 86.6015 51.247C86.5205 46.836 87.0615 35.386 84.8525 35.211C86.0185 35.066 87.1845 34.92 88.3505 34.772V34.776Z" fill="#152B46"/>
<path d="M36.1644 91.0399C36.2074 91.3299 36.4674 91.3689 36.4544 91.6249C33.6474 93.6849 32.0304 92.7249 31.7914 92.7889C31.0794 92.2949 30.4224 91.5389 29.7524 91.0399C29.8254 90.8179 30.1534 90.6009 30.3374 90.4559L36.1684 91.0399H36.1644Z" fill="#0F1525"/>
<path d="M87.7703 34.1919C86.9253 33.5089 85.6923 33.5559 84.8563 32.8779C85.6543 30.9449 78.9353 20.4979 79.3193 25.5869C79.3363 25.7959 80.6033 27.4859 81.0683 29.3749C82.5143 35.2329 82.1173 41.1919 82.8173 47.1599C80.1553 47.5829 81.7203 42.1139 79.3193 41.1839C79.1443 39.4689 79.3443 38.8289 79.3193 38.7049C78.5933 35.1169 70.7533 25.3269 65.9063 23.1089C62.3613 19.8279 64.0643 16.9829 61.6793 17.8609C57.9333 21.1799 53.4543 23.5479 49.7263 26.9009C42.7423 33.1809 38.0413 43.9049 29.0273 46.4349C20.4653 48.8369 28.4473 45.0229 34.2743 39.7289C35.2643 38.8289 42.4433 31.6789 41.2703 31.5639C38.6513 34.1659 35.2943 35.8679 32.5253 38.2699C31.1863 39.4299 24.6373 47.3179 24.5093 45.4109C24.4543 44.6009 32.9693 37.7749 34.1293 32.5829C30.2903 36.5189 26.4523 40.4559 22.6153 44.3919C19.5783 42.3819 40.1913 26.8069 40.9803 25.7319C41.3173 25.2709 41.6633 25.4209 40.9803 24.8579C39.8883 24.7339 26.2033 34.3879 23.3403 37.8309C22.7993 38.4829 22.2783 40.4119 21.5913 39.7249C21.8733 38.4619 22.4403 37.3529 23.0503 36.2269C27.9863 27.1229 43.5913 15.9029 53.5183 13.1939C55.4553 12.6649 59.0303 12.6909 59.2053 12.4649C60.4033 10.9159 53.7363 11.2829 52.6433 11.4449C46.5133 12.3629 31.8983 20.6859 28.0073 25.5869C27.1543 26.6619 25.6703 31.4149 25.3843 28.0659C30.1023 16.0099 49.0513 -0.802055 61.3893 10.2809C62.1353 10.4259 65.7323 7.11995 75.0913 12.6139C80.6713 15.8909 81.7383 18.4079 84.8563 22.9639C85.6033 24.0559 87.4283 25.1259 87.4803 25.2969C87.7363 26.1499 85.9993 27.7709 86.0213 27.9209C86.1103 28.5649 88.7383 27.6519 87.7703 34.1869V34.1919Z" fill="#152B46"/>
<path d="M62.5492 15.242C62.6512 15.174 63.1592 15.195 63.2792 15.387C65.1132 18.425 60.9752 16.313 62.5492 15.242Z" fill="#0F1525"/>
<path d="M46.6636 36.525C48.8476 33.671 52.3496 28.795 55.1186 26.611C55.3616 26.419 57.1916 25.037 57.4516 25.591C53.6726 28.676 46.9746 39.921 46.6636 36.525Z" fill="#0F1525"/>
<path d="M65.9023 23.1129C70.7483 25.3349 78.5893 35.1259 79.3143 38.7089C79.3403 38.8289 79.1403 39.4729 79.3143 41.1879C79.3833 41.8699 79.4003 42.7069 79.0243 42.6469C76.7683 33.1209 71.8283 25.6849 62.2593 22.2379C61.3723 22.0849 61.2913 22.7929 61.2393 22.8229C59.1063 23.9489 49.2483 35.3859 47.8273 38.5639C46.0873 40.2839 44.7223 42.9579 44.0393 45.2699C43.4123 47.3819 42.9263 49.3059 43.1643 51.5369C42.6353 52.5099 42.6143 49.2119 40.3963 49.6429C39.3253 49.8519 39.2743 50.8759 39.0823 51.6819C38.3873 54.6129 40.0553 59.8859 44.0393 58.6779C44.0653 59.2499 44.2143 59.8689 44.3293 60.4279C44.5813 61.6559 45.9933 64.9919 46.6633 66.2589C47.6443 68.1109 48.9023 69.9279 50.4513 71.3609C50.6473 74.3429 50.3143 77.2819 50.1613 80.2519C49.2093 81.4289 48.1733 82.5509 47.2473 83.7499C46.7953 84.3339 45.0123 86.2749 44.9133 86.5179C44.5683 87.3799 44.4783 89.8159 44.3293 91.0359C44.2353 86.5569 42.1323 90.2429 36.4583 91.6199C36.4713 91.3649 36.2113 91.3299 36.1683 91.0359C36.1173 90.7029 36.3133 90.0679 36.0233 89.8709C35.7933 89.7179 30.7553 89.8239 30.4863 89.8709C30.2343 89.9139 30.3843 90.4219 30.3413 90.4559C30.1573 90.5969 29.8293 90.8139 29.7563 91.0399C29.1553 90.5919 26.1053 88.7409 25.9683 88.2719C25.8573 86.8979 26.6083 85.6219 26.8433 84.3339C40.9633 89.0439 39.0433 87.4229 27.4273 82.0009C28.1653 81.2159 25.5673 80.5759 23.6393 79.2319C20.6023 71.8479 17.0103 68.4429 26.5533 64.3649C17.7653 64.3989 17.2533 55.0869 23.3453 53.4309C21.8263 55.5049 27.7683 57.6209 29.9063 61.3019C35.8483 60.5299 33.8943 56.3409 37.3413 49.7879C38.2373 48.0819 44.8453 38.9059 46.6713 36.5209C46.9823 39.9209 53.6803 28.6709 57.4603 25.5869C57.2003 25.0369 55.3693 26.4149 55.1263 26.6069L54.8363 26.3169C55.5533 25.7359 57.1183 23.8719 57.8993 23.4029C58.3263 23.1469 58.7353 23.7189 58.7743 23.6929C61.0773 22.4349 59.9813 20.3869 65.9153 23.1089L65.9023 23.1129Z" fill="#0F1525"/>
<path d="M26.8345 84.3379C26.9845 83.5279 27.1845 82.7899 27.4195 82.0049C39.0395 87.4269 40.9555 89.0479 26.8345 84.3379Z" fill="#152B46"/>
<path d="M43.3096 68.5929C44.2396 68.5329 44.0096 72.2959 45.3496 75.2989C35.0726 77.7389 35.7296 75.1539 35.1446 75.0089C35.0766 74.9919 34.0696 75.9259 33.8306 75.4479C33.5706 74.9229 42.8496 69.5779 43.3056 68.5969L43.3096 68.5929Z" fill="#152B46"/>
<path d="M23.7755 58.3879C24.7145 58.1029 27.6285 61.7759 28.5885 62.6159C23.4045 65.0259 22.3385 63.6189 23.7755 58.3879Z" fill="#152B46"/>
<path d="M34.5605 63.9299C34.6625 63.9299 36.1345 65.1409 36.1645 65.2439C36.3815 65.9559 29.3605 71.5319 27.8545 71.5109C28.7165 70.6319 34.0525 63.9379 34.5605 63.9299Z" fill="#152B46"/>
<path d="M32.8117 76.4629C32.9437 76.4679 33.5627 77.3379 33.6857 77.3379C33.9037 77.3379 36.2547 76.7239 38.0587 77.0479C38.4467 77.1159 42.2867 78.7119 42.2867 78.9419C42.2867 80.6529 37.4747 78.3109 36.8937 78.2119C35.2047 77.9219 31.0587 78.6219 31.5017 77.1929C31.5657 76.9799 32.7387 76.4589 32.8157 76.4629H32.8117Z" fill="#152B46"/>
<path d="M36.1642 91.04L30.3322 90.456C30.3752 90.422 30.2262 89.918 30.4772 89.871C30.7502 89.824 35.7892 89.718 36.0152 89.871C36.3052 90.068 36.1132 90.703 36.1602 91.036L36.1642 91.04Z" fill="#083855"/>
<path d="M55.1132 26.611C52.3492 28.795 48.8472 33.667 46.6582 36.525C44.8322 38.91 38.2292 48.082 37.3292 49.792C33.8862 56.3449 35.8402 60.534 29.8932 61.306C27.7602 57.625 21.8132 55.509 23.3322 53.436C23.3742 53.423 23.1872 53.393 24.2062 53.145C24.5432 53.064 29.2702 52.7619 31.0582 52.271C32.5552 49.1439 34.1762 46.273 36.3052 43.526C37.1882 45.07 29.3082 53.781 32.2222 54.604C39.2742 44.823 45.3572 33.966 54.8152 26.325L55.1052 26.615L55.1132 26.611Z" fill="#152B46"/>
<path d="M30.1873 53.4309L30.3323 55.9099C30.1573 56.2719 22.4793 55.8029 25.5203 54.5959C25.8323 54.4719 28.6983 54.5229 30.1833 53.4309H30.1873Z" fill="#152B46"/>
<path d="M20.712 95.417C20.017 95.724 19.616 95.639 19.254 96.437C19.296 106.01 19.578 115.6 20.128 125.155C20.435 130.467 22.223 142.855 21.587 143.521C17.927 140.261 19.19 141.072 19.108 136.524C15.499 139.83 15.913 139.383 11.818 137.109C15.474 144.34 5.05202 145.577 14.151 144.689C17.291 150.798 16.293 145.116 18.379 144.105C18.716 144.907 18.277 146.541 18.089 147.893C15.184 147.56 16.417 151.57 10.363 147.893C9.35602 148.452 13.418 151.233 9.04902 155.329C10.264 155.28 11.478 155.232 12.692 155.184C16.724 162.914 14.459 156.886 16.336 155.039C16.993 154.395 17.786 154.676 18.959 154.309C18.166 156.732 16.937 159.057 15.751 161.305C11.912 162.472 8.07402 163.638 4.23702 164.804C3.63102 164.953 3.78902 164.164 3.79802 163.2C3.82802 160.047 8.53302 131.798 9.62902 127.05C11.084 120.74 18.588 99.423 18.669 97.896C18.669 97.823 18.012 96.97 18.085 96.582C18.311 96.202 19.522 93.668 19.689 93.668C19.791 93.668 20.226 94.931 20.708 95.417H20.712Z" fill="#2A3C60"/>
<path d="M15.7552 161.305C15.6832 161.446 15.9642 162.858 14.4412 164.219C11.6602 165.443 4.48521 168.097 2.77821 169.176C1.42621 170.029 1.0972 173.101 0.300205 168.886C-0.689795 153.469 9.7702 110.51 18.0852 96.5819C18.0122 96.9659 18.6732 97.8229 18.6692 97.8959C18.5922 99.4229 11.0882 120.74 9.6292 127.05C8.53321 131.802 3.83221 160.047 3.79821 163.2C3.78921 164.164 3.6272 164.953 4.23721 164.804C8.0772 163.638 11.9152 162.472 15.7512 161.305H15.7552Z" fill="#152B46"/>
<path d="M80.1894 89.586C79.7544 90.746 77.4294 89.21 79.3144 90.46C77.3784 92.265 80.2744 91.928 80.4794 93.958C80.6884 96.023 79.6474 103.689 79.0204 106.347C79.3064 107.187 82.1474 106.432 84.2674 106.786C82.4704 106.883 80.6724 106.979 78.8754 107.076C78.2054 107.426 77.2544 119.772 76.9814 121.653L76.1064 121.508C76.8154 120.561 75.6164 116.508 75.8164 113.782C76.0304 111.462 76.2904 109.111 76.4014 106.786C76.6104 102.426 77.2284 91.147 75.5264 87.542L75.8164 87.252C77.1734 87.93 79.0294 89.069 80.1894 89.586Z" fill="#381431"/>
<path d="M105.55 102.994C110.085 112.225 113.203 121.994 116.045 131.857C115.213 131.879 116.574 135.94 117.209 136.959L116.919 137.834L117.504 138.124C117.167 139.455 116.813 142.296 116.919 143.516C113.366 130.168 109.752 116.807 104.091 104.158L105.55 102.994Z" fill="#1F1E3A"/>
<path d="M99.139 95.1229C99.254 95.1399 99.83 95.8989 101.472 95.1229C101.604 95.2809 102.223 96.4839 102.637 97.1619C101.519 97.3029 101.429 96.5779 100.888 97.4519C99.864 99.1029 101.306 114.495 101.472 117.571C100.295 117.592 101.758 116.026 99.433 116.406C99.676 110.152 99.203 103.855 99.723 97.6009C93.849 96.2059 84.259 93.7319 79.314 90.4599C77.429 89.2099 79.754 90.7459 80.189 89.5859C85.074 91.7529 93.866 94.3339 99.139 95.1229Z" fill="#291632"/>
<path d="M22.4624 126.61L20.1284 125.151C19.5784 115.595 19.2964 106.005 19.2544 96.4329C19.6164 95.6349 20.0174 95.7199 20.7124 95.4129C21.2804 95.1609 29.0404 93.4339 31.5014 92.7889L32.0864 93.2289C28.8954 95.3229 19.8044 97.2689 19.5484 97.8909C20.5034 107.464 20.9564 117.093 22.4624 126.61Z" fill="#1F1E3A"/>
<path d="M102.637 97.1659C103.75 98.9919 104.608 101.074 105.55 102.998L104.091 104.163C103.076 101.897 102.044 99.6529 100.883 97.4559C101.425 96.5819 101.515 97.3029 102.632 97.1659H102.637Z" fill="#1F1E3A"/>
<path d="M44.3292 91.335C43.8602 95.652 44.2052 98.548 44.3292 102.704C44.6282 112.588 45.4682 122.89 48.1172 132.442C47.4052 132.135 49.2222 138.013 49.5762 139.003C50.4932 141.571 53.6202 145.897 51.6152 146.438C51.5982 146.4 51.0482 145.892 51.0312 145.854C45.5492 134.02 43.2802 121.022 42.5762 108.1C42.3672 107.371 41.7142 106.586 41.7012 106.496C41.3132 103.796 41.7482 101.04 40.2422 99.935L40.8272 93.668C41.9442 92.742 42.9172 91.838 44.3252 91.335H44.3292Z" fill="#381431"/>
<path d="M40.8314 93.668L40.2464 99.935C41.7524 101.04 41.3174 103.796 41.7054 106.496C37.9634 107.079 34.2214 107.662 30.4824 108.245C30.0684 108.002 32.4914 104.081 32.3764 103.433C32.3074 103.058 27.6284 98.723 26.8384 98.186C29.8634 97.444 32.2014 98.928 35.4394 98.915C37.2564 97.183 38.8944 95.272 40.8314 93.668Z" fill="#FCFCFC"/>
<path d="M44.3293 91.0399C44.3163 91.1339 44.3383 91.2369 44.3293 91.3299C42.9213 91.8339 41.9493 92.7379 40.8313 93.6639C38.8903 95.2679 37.2563 97.1829 35.4393 98.9109C32.2013 98.9239 29.8633 97.4389 26.8383 98.1819C27.6283 98.7189 32.3123 103.053 32.3763 103.429C32.4913 104.077 30.0683 107.993 30.4823 108.241C34.2243 107.658 37.9663 107.075 41.7053 106.492C41.7183 106.581 42.3713 107.366 42.5803 108.096C43.2843 121.017 45.5533 134.016 51.0353 145.85C39.0223 147.04 33.1913 145.735 26.5443 135.5C25.1413 133.338 24.5993 130.168 23.0463 130.688C22.7603 129.306 22.6793 127.975 22.4623 126.606C20.9563 117.088 20.5033 107.46 19.5483 97.8869C19.8043 97.2599 28.8903 95.3149 32.0863 93.2239L31.5013 92.7849C31.5913 92.7599 31.7023 92.8109 31.7913 92.7849C32.0343 92.7209 33.6513 93.6809 36.4543 91.6199C42.1283 90.2469 44.2313 86.5569 44.3253 91.0359L44.3293 91.0399Z" fill="#541F41"/>
<path d="M35.5843 126.61C31.9703 123.522 31.6463 124.405 27.7133 126.32C28.3143 121.726 29.3383 121.811 25.6743 118.594C29.3473 117.216 30.2643 120.143 32.5253 114.367C34.5733 119.064 34.2103 117.805 38.7923 118.884C33.8603 122.592 36.8683 126.294 35.5843 126.61Z" fill="#EFAE07"/>
<path d="M104.096 104.163C109.757 116.811 113.37 130.172 116.923 143.521C116.987 144.22 116.736 144.92 117.214 145.56C116.586 145.56 116.151 146.4 115.755 146.724C110.409 151.11 111.638 148.243 108.758 147.599C108.528 146.008 104.983 143.858 103.221 142.352C103.208 142.258 103.234 142.155 103.221 142.062C102.236 135.074 101.873 124.946 101.472 117.571C101.306 114.495 99.8681 99.1069 100.888 97.4519C102.048 99.6489 103.08 101.893 104.096 104.158V104.163Z" fill="#541F41"/>
<path d="M93.307 98.3309C92.693 99.4699 88.875 102.55 88.644 103.143C88.286 104.052 88.857 105.229 88.934 106.206C89.007 107.098 89.463 107.703 89.079 108.245C88.853 108.411 85.044 106.918 84.267 106.786C82.147 106.432 79.306 107.191 79.02 106.347C79.643 103.685 80.688 96.0189 80.479 93.9579C82.276 95.7069 84.074 97.4559 85.871 99.2049C88.341 99.0349 90.845 98.4839 93.307 98.3309Z" fill="#FCFCFC"/>
<path d="M76.9813 121.653C75.5093 131.712 74.5453 138.069 70.5653 147.599C69.0553 151.221 68.3763 153.375 65.9023 156.344V155.18C71.6663 142.646 74.5663 127.438 75.8163 113.782C75.6163 116.508 76.8153 120.561 76.1063 121.508L76.9813 121.653Z" fill="#381431"/>
<path d="M101.472 117.571C101.873 124.946 102.236 135.07 103.221 142.062C101.493 140.88 101.152 141.801 101.033 141.771C100.9 141.733 100.115 139.916 98.9933 141.187C98.4183 141.84 100.764 143.269 99.1393 144.685C98.9683 144.071 98.2303 140.01 97.8253 140.022C94.4503 145.308 89.6213 149.318 84.8523 153.29V163.639C84.7283 164.283 84.6683 163.353 83.3933 163.349C83.0903 162.683 83.7433 158.797 83.5383 158.686C82.8853 158.324 70.2663 159.859 68.6713 160.145C62.9763 161.165 64.5243 162.551 68.8163 165.102C66.7853 165.119 64.6823 165.384 62.6943 165.392C61.6323 165.397 60.5533 165.392 59.4863 165.392C57.9333 165.392 56.3763 165.418 54.8233 165.392V164.808C55.3233 164.71 59.8403 161.566 59.3413 161.02C55.9153 160.393 52.4343 160.06 48.9923 159.561C48.5523 157.125 43.2803 155.508 40.9763 154.314L40.8313 160.435C40.7633 160.623 40.9893 161.037 40.5413 161.02C40.6223 159.693 40.7113 155.363 40.2513 154.459C34.1033 150.803 32.3423 149.062 27.7133 144.109C28.3323 143.585 26.4803 142.893 27.1293 141.196C34.5223 151.165 46.6373 153.554 57.5963 157.812C55.6133 153.994 53.4803 150.329 51.6203 146.443C53.6253 145.905 50.4933 141.575 49.5803 139.007C49.2263 138.017 47.4093 132.143 48.1223 132.446C50.3273 140.385 56.7263 155.431 62.8433 160.725C63.3473 160.61 65.5403 155.977 65.9063 155.188V156.353C65.7273 156.566 65.1943 157.082 65.3223 157.372C75.8683 154.232 86.1493 151.084 93.3113 141.921C97.9613 135.97 98.2043 133.397 98.8483 126.324C99.1173 123.389 99.3183 119.392 99.4333 116.41C101.758 116.035 100.299 117.6 101.472 117.575V117.571Z" fill="#171122"/>
<path d="M74.9423 86.9619C75.2963 87.4649 75.5093 87.5079 75.5263 87.5459C77.2283 91.1509 76.6103 102.431 76.4013 106.79C75.0873 106.099 74.2343 104.862 73.1933 103.877C73.5083 103.783 74.0373 103.292 74.0673 103.002C74.1233 102.439 73.4833 101.483 73.4833 101.398C73.4913 99.7169 73.7433 97.8789 73.7733 96.1509C73.7733 95.9329 74.3573 96.0779 74.3573 95.8609C74.3573 89.2319 74.5413 88.9409 70.8593 86.9709C71.1153 86.0189 70.4803 84.7139 71.1493 83.7629C71.6103 84.4879 74.1233 85.8019 74.9383 86.9709L74.9423 86.9619Z" fill="#82C9DD"/>
<path d="M75.8164 87.252L75.5264 87.542C75.5094 87.504 75.2964 87.461 74.9424 86.958C75.9364 86.821 75.7744 87.227 75.8164 87.248V87.252Z" fill="#3F6671"/>
<path d="M49.2862 84.9189V85.7929C49.0222 86.3349 46.9912 88.6639 46.9532 88.8559C46.8202 89.4959 48.4032 100.391 48.7022 101.829C48.8642 102.614 48.8212 103.783 49.5762 103.578C49.5292 103.608 49.0982 104.401 48.8472 104.453C47.4012 104.755 45.7242 103.126 44.3292 102.704C44.2052 98.5439 43.8602 95.6519 44.3292 91.3349C44.3382 91.2409 44.3162 91.1379 44.3292 91.0449C44.4742 89.8239 44.5682 87.3889 44.9132 86.5269C45.0122 86.2839 46.7952 84.3429 47.2472 83.7579L49.2862 84.9229V84.9189Z" fill="#82C9DD"/>
<path d="M74.0673 102.994C72.1263 101.637 70.7703 99.3459 68.8203 98.0369C68.7733 98.0069 68.3083 97.1789 68.0913 97.1619C67.9463 97.1489 67.7493 97.8869 65.3223 98.0369C67.4853 93.2709 70.7013 87.5549 70.8593 86.9579C74.5413 88.9329 74.3573 89.2229 74.3573 95.8479C74.3573 96.0659 73.7773 95.9209 73.7733 96.1379C73.7393 97.8659 73.4913 99.7049 73.4833 101.385C73.4833 101.471 74.1233 102.426 74.0673 102.989V102.994Z" fill="#FCFCFC"/>
<path d="M59.1963 107.371C59.7723 108.859 59.4013 110.719 59.4863 112.328C59.5463 113.433 58.8893 125.369 61.3803 124.571C62.2423 124.294 64.8663 113.356 65.8983 111.888C65.1733 110.139 63.2533 110.088 63.5643 108.245C64.7763 111.487 67.5963 100.012 70.5613 101.539C71.4183 102.324 72.3443 103.075 73.1843 103.872C74.2253 104.858 75.0743 106.099 76.3923 106.786C76.2813 109.111 76.0213 111.466 75.8083 113.782C74.5623 127.438 71.6613 142.65 65.8943 155.18C65.5313 155.969 63.3383 160.602 62.8313 160.717C56.7133 155.423 50.3103 140.377 48.1093 132.438C45.4603 122.886 44.6193 112.584 44.3213 102.699C45.7153 103.122 47.3963 104.751 48.8383 104.448C49.0903 104.397 49.5213 103.604 49.5683 103.574C51.2103 102.469 52.3023 100.558 54.2303 99.7859C56.2573 102.098 58.2833 104.303 59.1873 107.366L59.1963 107.371Z" fill="url(#paint0_linear_79_154)"/>
<path d="M56.282 95.707C56.299 96.13 55.864 95.989 55.408 95.997C53.151 96.053 53.795 96.624 52.494 97.746C50.933 99.09 50.122 100.447 48.706 101.829C48.407 100.387 46.825 89.496 46.957 88.856C46.995 88.668 49.026 86.339 49.29 85.793C51.935 88.882 54.051 92.324 56.287 95.707H56.282Z" fill="#FCFCFC"/>
<path d="M54.2391 99.79C52.3111 100.566 51.2141 102.477 49.5761 103.578C48.8211 103.783 48.8641 102.614 48.7021 101.829C50.1221 100.447 50.9332 99.09 52.4902 97.746C53.3092 98.207 53.6501 99.116 54.2391 99.786V99.79Z" fill="#60A6C6"/>
<path d="M70.5653 101.539C67.6003 100.012 64.7803 111.483 63.5693 108.245C63.7903 106.948 67.2723 100.908 68.2313 99.4999C69.0593 100.118 69.8013 100.844 70.5653 101.539Z" fill="#FCFCFC"/>
<path d="M55.408 95.9969C57.45 99.4469 59.49 102.897 61.53 106.347C62.391 106.526 62.003 105.229 62.114 105.033C62.715 103.962 63.36 102.955 63.863 101.825C64.396 100.626 64.802 99.1759 65.322 98.0369C67.749 97.8869 67.946 97.1489 68.091 97.1619C68.308 97.1789 68.773 98.0069 68.82 98.0369C68.974 98.6979 68.556 99.0259 68.236 99.4959C67.276 100.908 63.79 106.948 63.573 108.241C63.257 110.084 65.181 110.135 65.906 111.884C64.87 113.351 62.25 124.289 61.389 124.567C58.897 125.364 59.554 113.428 59.495 112.323C60.578 112.554 59.763 110.881 60.224 110.574C60.378 110.472 62.728 111.551 63.867 110.429C61.564 108.693 62.869 104.977 59.205 107.366C58.304 104.303 56.274 102.098 54.247 99.7859C53.659 99.1159 53.317 98.2069 52.498 97.7459C53.804 96.6239 53.155 96.0529 55.412 95.9969H55.408Z" fill="#F4C016"/>
<path d="M74.0668 102.994C74.0368 103.284 73.5078 103.774 73.1928 103.868C72.3518 103.07 71.4268 102.32 70.5688 101.535C69.8098 100.839 69.0628 100.114 68.2358 99.4959C68.5558 99.0259 68.9738 98.6979 68.8198 98.0369C70.7698 99.3459 72.1258 101.637 74.0668 102.994Z" fill="#69ADB4"/>
<path d="M59.4902 112.323C59.4052 110.715 59.7722 108.855 59.2002 107.366C62.8692 104.973 61.5642 108.693 63.8632 110.429C62.7242 111.555 60.3692 110.472 60.2202 110.574C59.7632 110.881 60.5742 112.554 59.4902 112.323Z" fill="#EFAE07"/>
<path d="M62.1142 105.037C62.0032 105.233 62.3912 106.53 61.5302 106.351C59.4882 102.901 57.4472 99.4509 55.4082 96.0019C55.8642 95.9889 56.3042 96.1299 56.2822 95.7119C58.3132 98.7829 60.4592 101.735 62.1142 105.041V105.037Z" fill="#FAEED8"/>
<path d="M99.4294 116.406C99.3134 119.388 99.1134 123.385 98.8444 126.32C93.2984 140.082 86.4904 148.401 70.5654 147.603C74.5454 138.073 75.5094 131.717 76.9814 121.657C77.2584 119.776 78.2054 107.43 78.8754 107.08C80.6724 106.984 82.4704 106.887 84.2674 106.79C85.0444 106.918 88.8534 108.416 89.0794 108.249C89.4634 107.708 89.0034 107.102 88.9344 106.21C90.8114 102.157 96.7374 98.126 93.3074 98.339C90.8454 98.493 88.3414 99.043 85.8714 99.214C84.0744 97.465 82.2764 95.716 80.4794 93.967C80.2744 91.936 77.3784 92.273 79.3144 90.469C84.2544 93.741 93.8494 96.215 99.7234 97.61C99.2034 103.864 99.6764 110.16 99.4334 116.414L99.4294 116.406Z" fill="#541F41"/>
<path d="M88.7894 114.367C90.5724 119.298 90.5894 117.861 95.0564 118.884C91.1064 122.229 92.6974 122.186 93.1624 126.61C91.7034 125.834 90.2454 125.056 88.7894 124.277C80.3984 129.464 89.0844 123.539 81.6484 118.3C87.0444 117.826 86.2514 119.465 88.7894 114.362V114.367Z" fill="#EFAE07"/>
<path d="M88.9343 106.202C88.8573 105.229 88.2863 104.047 88.6443 103.139C88.8753 102.546 92.6933 99.466 93.3073 98.327C96.7373 98.113 90.8113 102.149 88.9343 106.197V106.202Z" fill="#381431"/>
<path d="M51.91 72.6749C51.564 73.6909 52.025 74.6379 52.2 75.5889C52.98 79.8509 54.597 84.7909 58.761 86.9579C63.112 89.2229 67.929 87.7899 69.985 83.1699C70.083 82.9429 70.309 82.4269 70.569 82.2949C70.663 82.8329 70.868 83.3019 71.154 83.7539C70.484 84.7049 71.119 86.0109 70.864 86.9619C70.701 87.5589 67.485 93.2759 65.326 98.0409C64.81 99.1839 64.401 100.63 63.867 101.829C61.175 104.926 60.821 99.6699 59.785 97.8909C58.974 96.5009 51.082 85.0039 50.455 84.4789C50.169 84.2399 49.896 84.3429 49.58 84.3339C49.973 82.9139 50.088 81.7229 50.165 80.2519C50.318 77.2819 50.656 74.3429 50.455 71.3609C48.902 69.9279 47.644 68.1109 46.667 66.2589C48.284 67.3809 50.574 71.5319 51.914 72.6749H51.91Z" fill="#BA7148"/>
<path d="M78.4401 66.844C76.6821 70.444 74.0671 73.716 70.5691 75.734C70.7611 77.624 70.3051 80.798 70.5691 82.295C70.3131 82.427 70.0871 82.943 69.9851 83.17C68.3471 83.302 69.5501 80.09 68.9651 79.671C68.3421 79.228 61.7641 82.201 54.3881 77.048C53.0661 76.126 53.1341 74.757 52.2001 75.589C52.0251 74.633 51.5641 73.686 51.9101 72.675C52.7841 73.422 57.9721 76.178 59.0511 76.463C68.4961 78.972 70.4541 74.156 75.8161 68.298C76.5241 67.526 77.4371 66.763 78.1501 65.965C78.1671 66.182 78.1331 66.848 78.4401 66.839V66.844Z" fill="#662F1F"/>
<path d="M77.565 51.977C78.973 52.284 79.395 51.669 79.899 53.436C78.918 57.783 75.074 59.331 75.236 59.702C80.714 59.37 76.247 65.547 75.821 68.303C70.458 74.16 68.5 78.972 59.055 76.468C57.976 76.182 52.789 73.422 51.914 72.679C50.574 71.536 48.284 67.385 46.667 66.263C45.997 64.996 44.589 61.665 44.333 60.432C46.927 62.428 50.528 63.055 53.808 63.345C54.064 63.2 53.608 63.107 53.663 62.181C55.186 61.038 55.352 63.077 56.287 64.22C57.793 66.063 58.885 67.552 60.949 68.883C61.478 69.224 62.477 70.205 63.138 70.342C66.307 70.99 69.234 68.081 70.864 65.679C71.99 64.02 71.678 63.734 71.738 63.64C73.206 61.247 75.138 58.691 74.946 57.518C77.779 56.959 77.629 53.38 75.531 51.541C76.414 51.03 76.699 51.789 77.57 51.981L77.565 51.977Z" fill="#BA7148"/>
<path d="M62.4041 23.987C58.7521 29.576 63.8251 24.487 64.4431 28.505C64.4942 28.825 62.7111 34.162 62.4041 34.627C61.3591 36.201 58.1381 37.98 56.4271 38.854C52.7891 37.6 48.8551 40.535 48.7021 39.439C50.7661 36.291 50.5491 35.881 47.8271 38.564C49.2431 35.386 59.1061 23.949 61.2391 22.823L62.4041 23.987Z" fill="#E49D50"/>
<path d="M48.7021 39.4389C47.5031 41.2649 45.1101 43.5809 47.2431 45.2699C47.3021 45.3169 47.4561 45.2279 47.5331 45.2699C47.5711 45.2919 47.4221 45.7819 47.6781 45.8549C50.4851 46.6399 51.6281 43.3759 55.8431 44.3959C61.3721 45.7349 56.1371 47.2929 57.7371 48.4779C54.6101 46.9679 50.7921 48.1289 48.4071 50.3729C48.7871 50.9189 49.0511 50.7609 49.2821 50.8119V51.1019C45.8051 49.6729 49.1921 58.0679 51.0311 57.5179C51.1631 57.9829 51.6541 57.7529 51.6151 57.9579C51.5851 58.1069 50.6091 58.1069 50.7411 58.9769C49.8191 58.7769 47.4181 58.3199 46.9531 58.1029C48.5181 55.4449 45.3871 55.8669 44.3291 53.8749C44.4871 49.0459 46.0311 42.3869 44.0391 45.2749C44.7261 42.9629 46.0871 40.2879 47.8271 38.5689C50.5491 35.8849 50.7661 36.2949 48.7021 39.4429V39.4389Z" fill="#CF7E4F"/>
<path d="M46.953 58.098C45.37 57.36 44.798 54.95 44.039 56.784C43.792 57.377 44.346 57.958 44.329 58.098C41.215 59.101 42.981 55.539 40.976 53.436C39.043 54.041 39.828 51.584 39.082 51.687C39.274 50.88 39.325 49.852 40.396 49.647C42.618 49.217 42.635 52.518 43.164 51.541C42.926 49.306 43.412 47.382 44.039 45.275C46.035 42.387 44.487 49.046 44.329 53.875C45.387 55.867 48.518 55.445 46.953 58.103V58.098Z" fill="#BA7148"/>
<path d="M46.9531 58.098C47.4221 58.316 49.8241 58.772 50.7411 58.973C52.2081 59.289 53.6121 59.604 55.1131 59.702C52.4171 60.53 53.6671 61.989 53.6541 62.181C53.6031 63.107 54.0601 63.205 53.8001 63.345C50.5191 63.055 46.9181 62.424 44.3251 60.432C44.2101 59.873 44.0601 59.254 44.0351 58.683C44.0351 58.649 44.2351 58.909 44.3251 58.098C44.3421 57.958 43.7871 57.382 44.0351 56.784C44.7941 54.95 45.3701 57.36 46.9481 58.098H46.9531Z" fill="#B25A3B"/>
<path d="M44.3292 58.098C44.2352 58.909 44.0352 58.649 44.0392 58.683C40.0552 59.89 38.3872 54.617 39.0822 51.687C39.8332 51.584 39.0432 54.041 40.9762 53.436C42.9812 55.543 41.2152 59.101 44.3292 58.098Z" fill="#BA7148"/>
<path d="M78.1461 65.3849C78.1281 65.5719 78.1281 65.7769 78.1461 65.9689C77.4331 66.7629 76.5201 67.5259 75.8121 68.3029C76.2391 65.5469 80.7091 59.3699 75.2281 59.7019C75.0661 59.3309 78.9091 57.7829 79.8901 53.4359C79.7941 55.6229 79.6971 57.8099 79.6001 59.9969C79.1911 61.8179 78.2951 63.5079 78.1411 65.3889L78.1461 65.3849Z" fill="#B25A3B"/>
<path d="M69.9852 83.1699C67.9292 87.7939 63.1122 89.2269 58.7612 86.9579C54.5972 84.7909 52.9852 79.8509 52.2002 75.5889C53.1302 74.7569 53.0662 76.1219 54.3882 77.0479C61.7642 82.2009 68.3422 79.2279 68.9652 79.6709C69.5502 80.0899 68.3472 83.3019 69.9852 83.1699Z" fill="#7A402B"/>
<path d="M63.8631 101.829C63.3601 102.959 62.7151 103.962 62.1141 105.037C60.4591 101.731 58.3131 98.7789 56.2821 95.7069C54.0471 92.3289 51.9271 88.8859 49.2861 85.7929V84.9189L49.5761 84.3339C49.8921 84.3429 50.1651 84.2449 50.4511 84.4789C51.0781 85.0039 58.9701 96.4969 59.7801 97.8909C60.8171 99.6699 61.1711 104.926 63.8631 101.829Z" fill="#B25A3B"/>
<path d="M65.9022 59.557C63.2192 60.022 61.2312 58.661 60.9452 59.412C60.9752 60.743 72.7062 64.331 67.9412 52.561C67.9582 52.378 67.2372 51.392 68.5262 51.977C70.2962 54.344 71.1282 58.265 74.9422 57.514C75.1382 58.687 73.2012 61.242 71.7342 63.636C68.1672 63.938 58.5692 63.226 56.7172 63.636C56.6242 63.657 56.2652 64.037 56.2782 64.22C55.3442 63.077 55.1772 61.038 53.6542 62.181C53.6672 61.989 52.4172 60.534 55.1132 59.702C53.6122 59.604 52.2082 59.289 50.7412 58.973C50.6092 58.103 51.5852 58.098 51.6152 57.953C51.6542 57.748 51.1632 57.979 51.0312 57.514C50.7662 56.58 49.0512 55.112 49.2822 51.098V50.808C50.8092 51.145 56.4832 50.454 59.6312 51.098C60.3142 50.744 58.1592 48.679 57.7372 48.474C56.1332 47.288 61.3722 45.735 55.8432 44.392C51.6282 43.368 50.4892 46.636 47.6782 45.851C47.4222 45.778 47.5712 45.288 47.5332 45.266C51.1032 40.258 59.7512 43.884 60.5062 43.517C65.3732 41.154 47.9942 36.222 47.2382 45.266C45.1012 43.577 47.4992 41.26 48.6972 39.435C48.8512 40.531 52.7842 37.6 56.4232 38.85C58.1342 37.976 61.3552 36.197 62.4002 34.623C62.7112 34.153 64.4902 28.821 64.4392 28.501C63.8162 24.482 58.7482 29.572 62.4002 23.983C73.5132 22.887 64.8312 39.776 65.6082 52.992C65.7232 54.941 67.7752 57.812 65.8982 59.553L65.9022 59.557Z" fill="#E89359"/>
<path d="M77.5654 51.3919V51.9769C76.6954 51.7849 76.4094 51.0299 75.5264 51.5369C77.6254 53.3759 77.7744 56.9549 74.9424 57.5139C71.1284 58.2649 70.3004 54.3439 68.5264 51.9769V51.6869C72.8514 49.1439 76.9944 51.3579 77.5654 51.3959V51.3919Z" fill="#E89359"/>
<path d="M79.0203 42.647C80.7783 50.074 82.0064 58.4399 78.1464 65.389C78.2954 63.5079 79.1954 61.818 79.6054 59.997C79.7014 57.81 79.7983 55.623 79.8953 53.436C79.3953 51.669 78.9693 52.288 77.5613 51.977V51.392C77.7663 51.405 78.2313 51.925 78.4363 51.247C80.0523 45.846 68.1764 47.851 68.5214 51.687V51.977C67.2334 51.392 67.9583 52.373 67.9373 52.561C67.6603 55.402 70.2534 58.806 65.8984 59.5569C67.7714 57.8169 65.7194 54.9459 65.6084 52.996C64.8364 39.78 73.5134 22.891 62.4004 23.987L61.2354 22.823C61.2864 22.797 61.3674 22.085 62.2554 22.238C71.8194 25.685 76.7633 33.121 79.0203 42.647Z" fill="#CF7E4F"/>
<path d="M72.1691 40.313C75.3641 39.985 78.4021 40.676 79.0201 44.251C72.9031 41.457 69.0501 44.123 68.3811 43.812C66.1711 42.8 69.8141 40.557 72.1691 40.313Z" fill="#291E19"/>
<path d="M77.565 51.392C76.994 51.354 72.851 49.144 68.526 51.682C68.18 47.847 80.052 45.846 78.44 51.243C78.235 51.925 77.77 51.401 77.565 51.388V51.392Z" fill="#291E19"/>
<path d="M65.9023 59.5569C70.2583 58.8019 67.6643 55.4019 67.9413 52.5609C72.7063 64.3309 60.9753 60.7429 60.9453 59.4119C61.2313 58.6609 63.2193 60.0219 65.9023 59.5569Z" fill="#662F1F"/>
<path d="M47.5371 45.27C47.4601 45.228 47.3021 45.317 47.2471 45.27C48.0021 36.227 65.3771 41.158 60.5141 43.521C59.7591 43.888 51.1121 40.262 47.5411 45.27H47.5371Z" fill="#291E19"/>
<path d="M57.7372 48.4779C58.1592 48.6829 60.3142 50.7479 59.6312 51.1019C56.4832 50.4579 50.8092 51.1449 49.2822 50.8119C49.0512 50.7609 48.7872 50.9229 48.4072 50.3729C50.7922 48.1289 54.6102 46.9639 57.7372 48.4779Z" fill="#291E19"/>
<path d="M49.286 51.1019C49.056 55.1159 50.771 56.5839 51.035 57.5179C49.197 58.0729 45.809 49.6729 49.286 51.1019Z" fill="#CF7E4F"/>
<path d="M71.7344 63.636C71.6744 63.729 71.9854 64.015 70.8594 65.675C66.6874 64.476 66.5764 65.53 65.9024 65.675C65.3394 65.794 64.6694 66.536 64.5884 66.549C62.9334 66.805 57.9164 64.945 62.4004 67.424C61.3934 67.658 60.6554 67.671 60.9414 68.883C58.8764 67.552 57.7844 66.063 56.2784 64.22C56.2614 64.037 56.6244 63.657 56.7174 63.636C58.5654 63.226 68.1634 63.938 71.7344 63.636Z" fill="#90172B"/>
<path d="M70.8594 65.679C69.2304 68.085 66.3034 70.99 63.1344 70.342C62.4724 70.205 61.4744 69.224 60.9454 68.883C60.6594 67.675 61.3974 67.658 62.4044 67.424C63.4884 67.172 66.7254 67.923 65.9024 65.675C66.5764 65.53 66.6834 64.476 70.8594 65.675V65.679Z" fill="#90172B"/>
<path d="M62.4045 67.428C57.9205 64.949 62.9375 66.809 64.5935 66.554C64.6695 66.541 65.3435 65.798 65.9065 65.679C66.7255 67.927 63.4885 67.176 62.4085 67.428H62.4045Z" fill="#F5AFB2"/>
</g>
</g>
<defs>
<linearGradient id="paint0_linear_79_154" x1="60.3012" y1="103.838" x2="62.6901" y2="153.925" gradientUnits="userSpaceOnUse">
<stop stop-color="#FEFEFD"/>
<stop offset="0.25" stop-color="#FEFEFD"/>
<stop offset="1" stop-color="#77C8D3"/>
</linearGradient>
<clipPath id="clip0_79_154">
<rect width="120" height="120" fill="white"/>
</clipPath>
</defs>
</svg>
