<?xml version="1.0" encoding="UTF-8"?>
<svg id="Calque_2" data-name="Calque 2" xmlns="http://www.w3.org/2000/svg" viewBox="0 0 1876.75 1072.3">
  <defs>
    <style>
      .cls-1 {
        fill: #d0cbb9;
      }

      .cls-1, .cls-2, .cls-3, .cls-4, .cls-5, .cls-6, .cls-7, .cls-8, .cls-9, .cls-10, .cls-11, .cls-12, .cls-13, .cls-14, .cls-15, .cls-16, .cls-17, .cls-18, .cls-19, .cls-20, .cls-21, .cls-22, .cls-23, .cls-24, .cls-25, .cls-26, .cls-27, .cls-28, .cls-29, .cls-30, .cls-31, .cls-32, .cls-33, .cls-34, .cls-35, .cls-36, .cls-37, .cls-38, .cls-39, .cls-40, .cls-41, .cls-42, .cls-43, .cls-44, .cls-45, .cls-46, .cls-47, .cls-48, .cls-49, .cls-50, .cls-51, .cls-52, .cls-53, .cls-54, .cls-55, .cls-56, .cls-57, .cls-58, .cls-59, .cls-60, .cls-61, .cls-62, .cls-63 {
        stroke-width: 0px;
      }

      .cls-2 {
        fill: #361711;
      }

      .cls-3 {
        fill: #c1c6a7;
      }

      .cls-4 {
        fill: #9f8f77;
      }

      .cls-5 {
        fill: #302e30;
      }

      .cls-6 {
        fill: #b1aeaf;
      }

      .cls-7 {
        fill: #422314;
      }

      .cls-8 {
        fill: #cbb799;
      }

      .cls-9 {
        fill: #998270;
      }

      .cls-10 {
        fill: #c6bbab;
      }

      .cls-11 {
        fill: #4b5b5e;
      }

      .cls-12 {
        fill: #d2221e;
      }

      .cls-13 {
        fill: #3e4038;
      }

      .cls-14 {
        fill: #90ad95;
      }

      .cls-15 {
        fill: #a69f82;
      }

      .cls-16 {
        fill: #818675;
      }

      .cls-17 {
        fill: #a88157;
      }

      .cls-18 {
        fill: #ba8f7e;
      }

      .cls-19 {
        fill: #0f3737;
      }

      .cls-20 {
        fill: #704a4e;
      }

      .cls-21 {
        fill: #cbaea8;
      }

      .cls-22 {
        fill: #bcac7c;
      }

      .cls-23 {
        fill: #a2b193;
      }

      .cls-24 {
        fill: #20130d;
      }

      .cls-25 {
        fill: #35251a;
      }

      .cls-26 {
        fill: #5d4439;
      }

      .cls-27 {
        fill: #f1eee4;
      }

      .cls-28 {
        fill: #839587;
      }

      .cls-29 {
        fill: #765641;
      }

      .cls-30 {
        fill: #c2a486;
      }

      .cls-31 {
        fill: #5b4022;
      }

      .cls-32 {
        fill: #582826;
      }

      .cls-33 {
        fill: #886445;
      }

      .cls-34 {
        fill: #d28342;
      }

      .cls-35 {
        fill: #a8cbb4;
      }

      .cls-36 {
        fill: #996f4b;
      }

      .cls-37 {
        fill: #26655e;
      }

      .cls-38 {
        fill: #e5e2be;
      }

      .cls-39 {
        fill: #784b2d;
      }

      .cls-40 {
        fill: #b0a69d;
      }

      .cls-41 {
        fill: #c3936c;
      }

      .cls-42 {
        fill: #141a1e;
      }

      .cls-43 {
        fill: #0e2425;
      }

      .cls-44 {
        fill: #1d9594;
      }

      .cls-45 {
        fill: #121015;
      }

      .cls-46 {
        fill: #b3986b;
      }

      .cls-47 {
        fill: #422927;
      }

      .cls-48 {
        fill: #281d1d;
      }

      .cls-49 {
        fill: #87b5a1;
      }

      .cls-50 {
        fill: #fcede4;
      }

      .cls-51 {
        fill: #5c7f75;
      }

      .cls-52 {
        fill: #756b6a;
      }

      .cls-53 {
        fill: #595957;
      }

      .cls-54 {
        fill: #7f7657;
      }

      .cls-55 {
        fill: #8c866f;
      }

      .cls-56 {
        fill: #e3c28c;
      }

      .cls-57 {
        fill: #708c89;
      }

      .cls-58 {
        fill: #49454c;
      }

      .cls-59 {
        fill: #4da5a0;
      }

      .cls-60 {
        fill: #685349;
      }

      .cls-61 {
        fill: #4c4039;
      }

      .cls-62 {
        fill: #3c3641;
      }

      .cls-63 {
        fill: #191412;
      }
    </style>
  </defs>
  <g id="Calque_1-2" data-name="Calque 1">
    <g>
      <g id="Background">
        <rect class="cls-44" width="1876.75" height="1072.3"/>
        <path class="cls-44" d="m1422.2.09c151.5.14,303-.1,454.51,0,.13,93.47-.17,186.93,0,280.4-9.79.8-31.24-1.73-38.49,1.83,6.68-11.69-7.84-7.13-13.75-3.67-5.44,3.19-15.04,19.26-21.08,25.66-30.93,2.13-70.34-14.41-112.71-18.33-59.45-5.49-209.31,2.88-219.92,0-.35-.09-1.8-3.74-4.58-5.5,3.55-.86,15.58-2.97,16.49-6.41,2.48-9.35-5.38-5.43-7.33-6.41-.22-.11.68-3.26-.92-3.67-2.94-.74-57.86-1.91-57.73,3.67-2.43-.11-4.89.09-7.33,0-.23,0-1.4-3.63-2.75-3.67-50.93-1.36-113.31,2.29-164.03,9.16-6-21.87-34.94-55.68-54.98-65.98,31.53-40.01,77.94-64.44,116.38-97.13,40.81-34.72,78.38-74.08,118.21-109.96Z"/>
        <path class="cls-49" d="m872.4.09v3.67c-8.03.18-13.97.29-21.99,1.83-122.95-5.76-190.15,54.33-221.75,168.61-89.61,22.04-156.74,70.5-203.43,150.28-1.99,3.4-11.68,10.99-10.08,16.49l54.06-13.75c1.55,27.73-.19,55.7,0,83.39-3.38.61-30.63-11.6-67.81-7.33-.41-12.68-.39-27.93-1.83-40.32-1.3-11.15-1.61-17.91-11-23.82,6.6.73,5.53-.76,5.5-6.41-9.1-48.13-43.3-132.93-36.65-175.94C366.91,95.34,479.1,20.49,535.18.09,647.59,0,759.99.13,872.4.09Z"/>
        <path class="cls-52" d="m1422.2.09c-39.83,35.88-77.4,75.25-118.21,109.96-38.43,32.7-84.84,57.12-116.38,97.13-36.53-18.77-72.15-15.62-108.13,0-.51.22-1.33-.23-1.83,0-14.34-32.57-38.36-48.07-69.64-62.31,13.38-16.42,3.04-63.13-18.33-90.72-28.92-37.34-71.26-51.44-117.29-50.4V.09c183.27-.07,366.54-.17,549.8,0Z"/>
        <path class="cls-49" d="m535.18.09c-56.09,20.4-168.28,95.25-177.77,156.69-6.64,43.01,27.56,127.8,36.65,175.94.03,5.66,1.1,7.14-5.5,6.41-15.85-9.99-56.55-3.71-76.97-5.5-26.86-45.51-82.46-61.76-131.95-60.48q-.92-73.31-1.83-146.61C243.1,77.8,311.35,31.85,386.74.09c49.48-.06,98.96.04,148.45,0Z"/>
        <path class="cls-45" d="m1579.81,738.66c19.53.34,39.13,1.99,58.65,2.75l.92,109.04q.46-52.69.92-105.38c1.95-4.16,45.08,1.85,53.15,2.75,61.03,6.79,121.68,18.22,183.27,20.16-.06,37.87.11,75.75,0,113.63-142.81-10.4-283.92-32.43-425.18-54.98,12.98-4.99,7.88-54.97,9.16-81.55.07-1.51,3.64-.73,3.67-.92,38.56-2.38,76.72-6.18,115.46-5.5Z"/>
        <path class="cls-44" d="m386.74.09c-75.39,31.76-143.64,77.71-208.93,126.46l-1.83,1.83Q88.01,176.03.04,223.68C.2,149.15-.08,74.62.04.09,128.94-.03,257.84.25,386.74.09Z"/>
        <path class="cls-3" d="m348.25,549.9c-.22,36.65.92,73.33-.92,109.96-32.1-2.35-102.03,3.16-123.71,0-2.4-.35-7.82.98-9.16-.92q-1.37-38.94-2.75-77.89c-6.25.01.12,71.05-4.58,76.06-2.39,2.54-13.18-.27-15.58.92-1.87.93,1.77,2.66-4.58,7.33-3.46,2.54-8.13-6.58-9.16,11-32.95-.71-66.03.96-98.96,0-15.56-.45-32.11-1.97-47.65-3.67-.26-20.97-13.47-10.13-25.66-18.33-.27-.18-.99-4.43-5.5-3.67,0-5.5,0-11,0-16.49,7.61-2.48,10.48.19,11,0,5-1.88,8.92-10.33,12.83-14.66,16.8-18.61,28.38-41.82,47.65-58.65,20.47,34.19,47.15,53.92,88.89,47.65,25.24-3.79,60.46-37.15,79.72-54.98,33.7-8.06,72.78-1.6,108.13-3.67Z"/>
        <path class="cls-49" d="m175.98,128.38q.92,73.31,1.83,146.61c-49.84,4.46-101.45,57.25-117.29,102.63Q30.28,369.38.04,361.13c.07-45.82-.1-91.63,0-137.45q87.97-47.65,175.94-95.3Z"/>
        <path class="cls-49" d="m1876.71,372.13c.05,34.21-.03,68.42,0,102.63-31.39-6.94-63.34-7.96-95.3-7.33-.7-92.15-1.83-91.41-5.5,0l-38.49,1.83h-3.67c-.09-.6.11-1.25,0-1.83-.48-2.45.32-5.63,0-8.25-54.74-13.38-113.4-7.69-166.77-27.49,8.55-10.28,76.95-28.78,79.72-32.07,3.38-4.02-8.28-9.05,24.74-27.49,6.81.05,19.66-3.44,43.07,0,7.06-6.39-.74-8.61-.92-9.16-.19-.6.23-1.4,0-1.83,20.49-9.42,19.49,11.35,22.91,12.83,6.6,2.85,122.58,8.79,140.2-1.83Z"/>
        <path class="cls-3" d="m1876.71,482.09c.05,58.65.06,117.29,0,175.94l-71.47-1.83c4.38-38.08-14.42-31.61-20.16-32.99-1.73-.41-4.68.45-5.5,0,1.86-42.16,1.81-84.27,1.83-126.46,0-7.33.04-14.66,0-21.99,0-.61,0-1.22,0-1.83q47.65,4.58,95.3,9.16Z"/>
        <path class="cls-59" d="m1876.71,280.49c.06,30.54-.04,61.09,0,91.63-17.62,10.63-133.6,4.68-140.2,1.83-3.41-1.48-2.42-22.25-22.91-12.83-.15-.29-2.23-.5-3.67-5.5,26.3-5.26,55.5,6.55,81.55,1.83,1.55-.28.73-3.62.92-3.67,35.25-9.16,24.66-30.24,38.49-60.48,1.71-1.78,4.16-9.44,7.33-11,7.24-3.57,28.69-1.03,38.49-1.83Z"/>
        <path class="cls-22" d="m1697.11,720.34h175.94c.73,2.83.45,9.17,3.67,11-.02,12.22.02,24.44,0,36.65-61.59-1.94-122.24-13.37-183.27-20.16.37-7.28-.51-14.73,0-21.99.61-8.59,3.65-5.17,3.67-5.5Z"/>
        <path class="cls-49" d="m60.52,377.62c-9.22,26.4-15.2,82.36-12.83,109.96H.04c.03-42.15-.06-84.3,0-126.46q30.24,8.25,60.48,16.49Z"/>
        <path class="cls-3" d="m58.69,535.23c.14.39.99,1.15,3.67,7.33-17.12,22.96-33.63,48.12-43.98,75.14-6.06-.41-12.25.29-18.33,0-.02-27.49-.02-54.98,0-82.47h58.65Z"/>
        <path class="cls-38" d="m47.69,487.58c1.16,13.51,6.42,34.72,11,47.65H.04c.01-15.88-.01-31.77,0-47.65h47.65Z"/>
        <path class="cls-26" d="m1876.71,658.02c0,3.05,0,6.11,0,9.16-2.77,2.09-5.22,1.68-5.5,1.83-11.89.5-79.1-3.31-63.23,7.33,2.09,1.4,11.01-3.63,18.33-1.83,1.66.41,2.52,3.62,2.75,3.67-30.5-4.5-18.16,12.74-28.41,9.16-3.23-1.13.85-14.2-.92-20.16.81-.55,4.42,1.01,5.5-.92.26-3.31-.38-6.8,0-10.08l71.47,1.83Z"/>
        <path class="cls-23" d="m1876.71,474.76c0,2.44,0,4.89,0,7.33q-47.65-4.58-95.3-9.16c-.01-1.83.01-3.67,0-5.5,31.96-.63,63.91.39,95.3,7.33Z"/>
        <path class="cls-9" d="m5.54,681.85c11.95-1.85,12.73,7.56,9.16,16.49-3.5,8.76-5.46,4-14.66,7.33,0-6.72,0-13.44,0-20.16,3.25-1.78.21-2.85,5.5-3.67Z"/>
        <path class="cls-55" d="m18.37,617.71c2.79.19,3.24.63,5.5,1.83-3.91,4.34-7.83,12.78-12.83,14.66L.04,623.2c0-1.83,0-3.67,0-5.5,6.07.29,12.27-.41,18.33,0Z"/>
        <path class="cls-7" d="m11.04,634.2c-.51.19-3.39-2.48-11,0,0-3.67,0-7.33,0-11l11,11Z"/>
        <path class="cls-45" d="m1220.61,696.51c0,6.41,0,12.83,0,19.24,1.47,2.08,8.34.33,11,.92,9,1.98,14.99,1.46,23.82,1.83,1.83.08,3.67-.07,5.5,0,16.99.62,34.36,1.44,51.32,1.83,1.83.04,3.67-.04,5.5,0,5.49.12,11-.03,16.49,0,5.5.03,11-.02,16.49,0l41.24,3.67c-40.27,3.5-98.45-11.01-82.47,16.49,50.9,4.92,101.07-7.16,152.11-5.5,3.37,2.3,3.16,5.66,2.75,9.16-.02.19-3.59-.59-3.67.92-1.28,26.58,3.82,76.57-9.16,81.55-43.43-6.93-233.85-34.6-255.66-43.98-6.07-2.61-17.68-9.97-21.08-15.58-14.15-23.39,5.3-41.46-14.66-46.73,1.34-10.36,14.48,1.34,7.33-20.16l7.33,1.83c-5.27,20.91,10.08,14.44,12.83,14.66,3.23.26,7.83.34,11,0,10.85-1.17,26.04,1.27,14.66-18.33l7.33-1.83Z"/>
        <path class="cls-22" d="m623.15,674.52c13.24,0,27.33-1.52,40.32,1.83-1.74,13.01,7.27,12.89,9.16,10.08.91-1.35-1.35-8.47.92-10.08,7.22-5.11,153.86.79,176.85,0,11.92,15.14,22.88,23.45,42.15,27.49-4.06,11.5-9.04,3.68-3.67,14.66-67.49-1.09-134.95-5.51-202.51-3.67-2.98,1.69,2.24,10.55,2.75,12.83,1.01,4.51,2.75,13.5,3.67,16.49,10.59,34.75,11.56,14.42,16.49,21.08,1.74,2.35-18.72-1.89-12.83,53.15-69.01,21.63-42.01-36.37-32.99-108.13-1.11-3.25-65.89-4.69-68.73-2.75-2.66,1.82,1.92,11.23-4.58,12.83-10.2-32.01-32.74-23.86-34.82-26.57,2.15-4.76,12.37-18.18,12.83-19.24,18.33,0,36.65,0,54.98,0Z"/>
        <path class="cls-36" d="m1167.46,700.18c7.15,21.5-6,9.8-7.33,20.16-4.01-1.06-11.85.33-16.49,0-7.1-.5-15.09-1.55-21.99-1.83,1.05-12.16-1.78-10.44-1.83-11-.55-5.28.67-11.31,0-16.49-1.2-9.34,4.08-11.52-7.33-14.66,1.12-4.89-1.19-16.27,0-19.24,1.61-4.01,13.29-1.43,13.75-.92,2.72,3.09-.45,19.15.92,21.08,2.02,2.85,23.07-.63,26.57.92,5.04,2.23,1.64,12.2,2.75,13.75,3.24,4.53,6.13-6.37,11,8.25Z"/>
        <path class="cls-3" d="m1187.62,207.18c20.04,10.3,48.98,44.11,54.98,65.98,1.94,7.06,5.85,35.82,5.5,40.32-1.8,22.78-21.31,55.47-32.99,75.14-3.92,6.6-62.38,89.9-55.9,93.47,65.01-36.47,207.19-19.44,281.32-3.67,1.7.36,3.73-.22,5.5,0,.01,26.27.16,52.54,0,78.81-6.5,1.39-1.9-7.27-4.58-9.16-4.71-3.33-100.82,1.95-115.46,0l2.75,5.5c-39.18-30.65-150.2-27.4-199.76-25.66-12.54-21.77-29.02-40.21-47.65-56.81-7.6-6.77-15.51-12.5-23.82-18.33.27-4.02-11.52-12.65-14.66-14.66,7.89-3.11,11.31-4.95,11-12.83-.51-12.85-15.89-38.75-21.99-51.32,31.6-53.62,58.84-102.4,47.65-166.77,35.98-15.62,71.6-18.77,108.13,0Z"/>
        <path class="cls-59" d="m1466.19,280.49c2.78,1.75,4.24,5.4,4.58,5.5,10.61,2.88,160.47-5.49,219.92,0,42.37,3.91,81.78,20.46,112.71,18.33-.14.15.75.88-1.83,3.67-40.19,43.25-63.71,11.96-125.54,9.16-45.05-2.04-42.02,11.05-47.65,14.66-.15.09-1.78-2.49-2.75-1.83.83-4.77-.77-5.42-4.58-7.33-24.73-12.37-133.62-5.24-167.69-7.33-.19-11.11-.04-21.97-1.83-32.99,4.95-.46,9.8-.65,14.66-1.83Z"/>
        <path class="cls-59" d="m1409.37,267.66c-18.69,19.66,19.73,14.61,31.16,14.66,8.2-1.75,5.25,15.6,5.5,34.82-8.31-.67.42,21.49-6.41,23.82-42.66-3.1-95.61-26.69-100.8-27.49-17.32-2.67-66.39,1.98-90.72,0,.36-4.5-3.56-33.26-5.5-40.32,50.72-6.88,113.1-10.52,164.03-9.16,1.35.04,2.52,3.66,2.75,3.67Z"/>
        <path class="cls-56" d="m872.4,3.76c46.03-1.04,88.37,13.06,117.29,50.4,21.37,27.59,31.71,74.3,18.33,90.72-12.83,15.74-63.65-4.42-97.13,43.07-25.43,36.07-24.49,79.66-23.82,121.87-19.21-14.06-37.56-28.6-54.06-45.82h-4.58c-8.5-16.99-23.87-30.05-32.99-46.73-44.06-80.57-23.34-196.64,54.98-211.67,8.02-1.54,13.97-1.65,21.99-1.83Z"/>
        <path class="cls-59" d="m870.57,340.97c.07,1.38.3,3.64-.92,3.67-20.7.36-57.93-5.75-97.13-3.67-11.84.63-44.87,4.21-43.07,7.33-38.48-.1-84.42,6.27-119.12,23.82-26.51-50.83-86.6-34.94-134.7-40.32l-.92,76.06c-2.34,3.32-3.8,2.44-5.5,2.75-.19-27.68,1.55-55.65,0-83.39l-54.06,13.75c-1.6-5.5,8.09-13.1,10.08-16.49,135.31-97.84,315.72-82.47,445.34,16.49Z"/>
        <path class="cls-1" d="m850.41,5.59c-78.33,15.04-99.04,131.1-54.98,211.67,9.12,16.68,24.49,29.74,32.99,46.73-64.25-2.81-92.32-27.28-143.87-53.15-20.22-10.15-36.63-4.03-55.9-36.65C660.25,59.92,727.46-.17,850.41,5.59Z"/>
        <path class="cls-38" d="m828.41,264h4.58c16.51,17.22,34.85,31.76,54.06,45.82,4.34,3.18,12.22,11.09,14.66,12.83q-.92,20.16-1.83,40.32c-7.29-8.8-20.31-15.11-29.32-21.99-129.62-98.96-310.03-114.33-445.34-16.49,46.68-79.78,113.82-128.24,203.43-150.28,19.26,32.62,35.68,26.51,55.9,36.65,51.55,25.87,79.62,50.34,143.87,53.15Z"/>
        <path class="cls-23" d="m399.57,362.96c1.44,12.39,1.42,27.64,1.83,40.32.71,21.91-3.56,57.63-3.67,75.14l-43.98,9.16c-.06-14.9,2.93-109.62,0-114.54-.88-1.48-4.61-1.48-5.5,0-4.53,7.6.14,154.29,0,176.85-35.35,2.06-74.43-4.4-108.13,3.67,54.38-50.34,100.09-117.28,82.47-196.1q38.49,2.75,76.97,5.5Z"/>
        <path class="cls-3" d="m469.21,410.61c.07,10.05,1.83,20.75,1.83,31.16.02,34.61-1.39,69.77-1.83,104.46-5.16,9.87-48.83,4.16-69.64,3.67,2.07-23.7-1.98-47.95-1.83-71.47.11-17.51,4.38-53.23,3.67-75.14,37.18-4.27,64.43,7.94,67.81,7.33Z"/>
        <path class="cls-14" d="m388.57,339.14c9.39,5.92,9.7,12.67,11,23.82q-38.49-2.75-76.97-5.5c-.29-1.28-9.8-21.79-11-23.82,20.42,1.79,61.12-4.5,76.97,5.5Z"/>
        <path class="cls-18" d="m1077.66,207.18c-58.74,26.96-87.05,89.11-58.65,149.36,1.44,3.06,12.15,16.02,12.83,17.41,6.1,12.57,21.48,38.46,21.99,51.32-48.49-37.17-102.59-67.21-152.11-102.63-2.44-1.74-10.32-9.65-14.66-12.83-.66-42.21-1.6-85.81,23.82-121.87,33.48-47.49,84.3-27.33,97.13-43.07,31.28,14.24,55.3,29.75,69.64,62.31Z"/>
        <path class="cls-3" d="m1077.66,207.18c.5-.23,1.32.22,1.83,0,11.19,64.37-16.05,113.15-47.65,166.77-.67-1.39-11.39-14.35-12.83-17.41-28.41-60.25-.09-122.4,58.65-149.36Z"/>
        <path class="cls-61" d="m1451.53,678.18c.07.19,1.02-1.43,1.83,3.67.45,2.79-.23,6.2,0,9.16.24,3.02-.21,6.14,0,9.16.25,3.54-.55,7.87,0,11,.59,3.37-1.42,6.58,2.75,9.16l125.54,3.67c-.02.2,2.47-.75,1.83,3.67-.08.57-2.81,8.29-3.67,11-38.74-.68-76.9,3.12-115.46,5.5.41-3.51.62-6.86-2.75-9.16-51.05-1.66-101.21,10.41-152.11,5.5-15.98-27.5,42.2-12.99,82.47-16.49l-41.24-3.67c31.46.14,62.92-.1,94.38,0,2.01-1.43.57-23.09.92-27.49.05-.61-.03-1.22,0-1.83.31-5.63.54-7.4,1.83-12.83h3.67Z"/>
        <path class="cls-48" d="m1612.8,709.34c.11,7.38,1.54,7.78,1.83,9.16.08.36-4.22,3.27-.92,7.33,37.76-3.51,12.44,24.63,35.74,0h43.98c-.51,7.26.37,14.71,0,21.99-8.07-.9-51.2-6.9-53.15-2.75q-.46,52.69-.92,105.38l-.92-109.04c-19.52-.76-39.12-2.41-58.65-2.75.86-2.7,3.58-10.42,3.67-11,20.6,2.18-5.35-32.92,29.32-18.33Z"/>
        <path class="cls-26" d="m177.81,676.35c-.25,4.25.17,8.57,0,12.83-32.98-.34-65.99.46-98.96,0-.61,0-1.22,0-1.83,0l1.83-12.83c32.93.96,66.02-.71,98.96,0Z"/>
        <path class="cls-23" d="m71.52,560.89c-19.27,16.83-30.85,40.04-47.65,58.65-2.26-1.21-2.7-1.64-5.5-1.83,10.35-27.02,26.86-52.18,43.98-75.14,2.39,5.52,6.12,13.24,9.16,18.33Z"/>
        <path class="cls-26" d="m78.85,676.35l-1.83,12.83c-19.95-.32-45.99,4.18-47.65-7.33.72-2.19,1.92-2.42,1.83-9.16,15.54,1.7,32.09,3.21,47.65,3.67Z"/>
        <path class="cls-47" d="m186.97,665.36c-3.64,12.53,18.03,2.78,20.16,8.25,2.15,5.52-1.94,14.8-1.83,15.58h-27.49c.17-4.26-.25-8.58,0-12.83,1.04-17.57,5.7-8.45,9.16-11Z"/>
        <path class="cls-49" d="m134.74,201.69c1.17,21.48,1.58,44.8.92,66.89-1.17,38.83-3.39-27.71-.92-66.89Z"/>
        <path class="cls-35" d="m134.74,185.19c3.68-2.98,5.66,13.55,10.08,2.75,4.71,26.39-17.03,2.87-10.08-2.75Z"/>
        <path class="cls-49" d="m1671.45,372.13c-33.02,18.44-21.36,23.47-24.74,27.49-2.77,3.29-71.17,21.79-79.72,32.07,53.37,19.8,112.04,14.11,166.77,27.49.32,2.61-.48,5.8,0,8.25-46.33-4.64-92.94,6.66-139.28,9.16-21.42-38.31-70.44-15.47-76.97-14.66-21.11,2.62-43.02,3.09-64.14,7.33-.02-29.93.07-59.87,0-89.8,72.26-17.57,145.23-7.91,218.09-7.33Z"/>
        <path class="cls-59" d="m1625.63,329.97c-23.4,15.75,5.27,11.89,20.16,14.66,13.35,2.48,27.23,3.9,40.32,7.33.57.15,1.27-.16,1.83,0-21.17,16.98,15.75,18.18,23.82,12.83.25-.17,2.03.4,1.83-1.83.18.55,7.98,2.78.92,9.16-23.41-3.44-36.26.05-43.07,0-72.86-.58-145.83-10.24-218.09,7.33-.05-21.37.37-42.78,0-64.14,34.07,2.09,142.96-5.04,167.69,7.33,3.81,1.91,5.41,2.57,4.58,7.33Z"/>
        <path class="cls-23" d="m1733.76,467.43c.11.58-.09,1.23,0,1.83.24,1.62-1.96,1.95-1.83,3.67-45.72-2.74-90.35,3.99-135.62,9.16-.11-.29.23-1.8-1.83-5.5,46.34-2.5,92.95-13.8,139.28-9.16Z"/>
        <path class="cls-23" d="m1775.91,467.43l5.5,7.33c.04,7.33,0,14.66,0,21.99h-3.67c-.18-3.54.95-18.84-.92-20.16l-37.57-1.83c0-.29-2.71.86-1.83-5.5l38.49-1.83Z"/>
        <path class="cls-61" d="m1708.1,689.18c19.52-2,120.72,4.68,161.28,0,1.26,10.76-.78,13.91,3.67,31.16h-175.94c.07-1.42-3.63-18.26-1.83-28.41,3.15-4.52,8.21-2.28,12.83-2.75Z"/>
        <path class="cls-17" d="m1775.91,665.36l-7.33,11c-.6.09-1.23-.08-1.83,0,3.19-10.39-10.8-5.42-38.49-5.5-2.72,0-15.41-3.37-30.24-1.83-5.8,20.88,22.5,1.78,22.91,13.75.31,9.09-7.97,1.28-12.83,6.41-4.62.47-9.67-1.77-12.83,2.75-1.8,10.15,1.91,26.99,1.83,28.41-.02.33-3.06-3.09-3.67,5.5h-43.98c2.45-11.96-17.03-5.99-34.82-7.33-.29-1.38-1.72-1.78-1.83-9.16-.08-5.5.06-11,0-16.49,10.76-6.2,3.84-15.52,3.67-16.49q32.53.92,65.06,1.83c3.76-5.96-5.8-9.07-8.25-14.66,33.74.64,69.07,2.42,102.63,1.83Z"/>
        <path class="cls-33" d="m78.85,703.84c32.3.64,64.89.8,97.13,1.83.02,1.24.45,3.34-.92,3.67-12.29,2.92-91.41-2.75-95.3,0-1.93,1.36-.52,6.75-.92,9.16-7.03.04-43.83,1.76-47.65,3.67-1.26.63-2.29,1.57-3.67,1.83-1.63-5.95-5.54-10.73-7.33-16.49.79-5.75,38.73-4.06,58.65-3.67Z"/>
        <path class="cls-36" d="m77.01,689.18c.61,0,1.22,0,1.83,0v14.66c-19.91-.39-57.86-2.09-58.65,3.67-.07-.22-3.53-1.36-3.67-2.75,2.51-1.58,1.53-3.07,1.83-4.58,1.55-7.7,10.66-17.31,11-18.33,1.66,11.52,27.7,7.01,47.65,7.33Z"/>
        <path class="cls-15" d="m1829.06,678.18c.87.18,2.15,5.28,17.41,3.67,1.64-.65.7-3.59.92-3.67,5.56.57,19.92-.82,21.08,0,1.89,1.34.61,8.37.92,11-40.56,4.68-141.76-2-161.28,0,4.86-5.14,13.14,2.68,12.83-6.41-.41-11.96-28.71,7.14-22.91-13.75,14.83-1.54,27.52,1.82,30.24,1.83l.92,3.67c-23.49-.32-1.38,7.17,37.57,1.83.6-.08,1.24.09,1.83,0,7.26-1.11,25.89-5.57,31.16-9.16,1.77,5.96-2.31,19.03.92,20.16,10.24,3.58-2.1-13.66,28.41-9.16Z"/>
        <path class="cls-1" d="m1871.21,669.02c-6.02,3.27-16.72,6.64-23.82,9.16-.22.08.72,3.01-.92,3.67-15.26,1.61-16.54-3.49-17.41-3.67-.22-.05-1.09-3.26-2.75-3.67-7.32-1.8-16.24,3.23-18.33,1.83-15.88-10.64,51.34-6.83,63.23-7.33Z"/>
        <path class="cls-9" d="m1350.73,720.34c-5.5-.02-11,.03-16.49,0v-12.83c12.84.35,104.57-.54,109.04-3.67,2.61-1.82-1.24-10.25,2.75-11-.35,4.4,1.1,26.06-.92,27.49-31.46-.1-62.92.14-94.38,0Z"/>
        <path class="cls-36" d="m1312.24,681.85c.01.61-.02,1.22,0,1.83.34,12.2-.25,24.45,0,36.65-16.96-.4-34.32-1.22-51.32-1.83-5.5-34.04,16.83-14.94,26.57-20.16.91-1.94-3.43-8.17-4.58-9.16,4.54-1.31,3.32-4.12,3.67-7.33h25.66Z"/>
        <path class="cls-17" d="m1240.77,680.02c.44.12-2.72,2.63,7.33,5.5-.88,1.58-3.52,17.9-16.49,31.16-2.66-.58-9.52,1.17-11-.92,0-6.41,0-12.83,0-19.24,0-8.07,2.15-9.61,1.83-16.49,3.39,1.57,17.44-.24,18.33,0Z"/>
        <path class="cls-29" d="m1257.26,681.85c.21,11.53,1.27,25.77-1.83,36.65-8.83-.38-14.82.14-23.82-1.83,12.98-13.25,15.61-29.58,16.49-31.16,1.19-2.14,10.25,10.24,5.5-23.82h1.83c-.07,5.84,1.72,13.7,1.83,20.16Z"/>
        <path class="cls-39" d="m1282.92,689.18c1.15.99,5.49,7.22,4.58,9.16-9.74,5.22-32.07-13.88-26.57,20.16-1.83-.07-3.67.08-5.5,0,3.1-10.88,2.04-25.12,1.83-36.65.85-.18,3.6-3.42,3.67-3.67,3.2,6.48,18.02,7.58,21.99,11Z"/>
        <path class="cls-46" d="m1194.95,680.02c3.19-.07,5.37,10.96,5.5,12.83.08,1.19-3.39,9.89-1.83,23.82-3.16.34-7.77.26-11,0-.94-10.54,3.4-24.33-5.5-23.82.76-2.25-1.9-6.02,5.5-8.25l-1.83-4.58h9.16Z"/>
        <path class="cls-26" d="m1187.62,716.67c-2.75-.22-18.09,6.25-12.83-14.66.79-3.15,3.58,1.91,7.33-9.16,8.9-.5,4.56,13.28,5.5,23.82Z"/>
        <path class="cls-17" d="m1319.57,703.84c0,5.5,1.12,11.5-1.83,16.49-1.83-.04-3.67.04-5.5,0-.25-12.21.34-24.45,0-36.65,9.82-1.66,7.34,8.4,7.33,20.16Z"/>
        <path class="cls-26" d="m1334.23,703.84v16.49c-5.49-.03-11,.12-16.49,0,2.96-5,1.83-11,1.83-16.49,3.04.88,3.82-1.91,5.5-1.83.47.02-1.18,2.84,9.16,1.83Z"/>
        <path class="cls-5" d="m1308.58,755.16c-.94,55.92-.39,63.21-3.67,2.75-.08-1.47-3.37.15-3.67-2.75h7.33Z"/>
        <path class="cls-17" d="m1308.58,755.16h-7.33c-.99-9.6,9.54-10.89,7.33,0Z"/>
        <path class="cls-26" d="m837.58,663.52c-7.13,14.31-25.34,2.92-37.57,9.16,19.9,1.6,52.61-3.78,54.06,3.67-1.22.06-2.45-.04-3.67,0-23,.79-169.64-5.11-176.85,0-2.27,1.61,0,8.73-.92,10.08-1.89,2.81-10.9,2.93-9.16-10.08.04-.29,2.7.82,1.83-5.5,21.93-1.6,21.65-7.26,22.91-7.33,45.84-2.47,101.58.83,149.36,0Z"/>
        <path class="cls-26" d="m623.15,670.85v3.67c-18.33,0-36.65,0-54.98,0,3-6.96,5.97-11.33,3.67-18.33,20.95,18.71,4.86-47.65,13.75-47.65,6.5,9.12.45,41.61,2.75,44.9,1.85,2.64,12.35-1.58,14.66,3.67,5.7,12.95-12.99,12.05,20.16,13.75Z"/>
        <path class="cls-17" d="m879.73,670.85c1.78,5.94,8.15,2.87,12.83,3.67,1.15,3.85,3.68,17.39,3.67,18.33,0,.58-2.92,8.89-3.67,11-19.27-4.04-30.23-12.35-42.15-27.49,1.22-.04,2.45.06,3.67,0,11.85-.57,15.31,2.5,25.66-5.5Z"/>
        <path class="cls-54" d="m665.31,670.85c.87,6.32-1.79,5.21-1.83,5.5-12.99-3.36-27.08-1.83-40.32-1.83v-3.67c11.44.59,31.09.81,42.15,0Z"/>
        <path class="cls-3" d="m601.16,579.22c26.73,7.32,147.41,33.88,175.02,38.49,35.24,5.88,71.64,9.32,107.21,12.83-6.27,7.47-6.81,21.78-5.5,31.16-14.87,1.68-25.26,1.57-40.32,1.83-47.79.83-103.53-2.47-149.36,0-1.26.07-.98,5.73-22.91,7.33-11.06.81-30.71.59-42.15,0-33.15-1.7-14.46-.79-20.16-13.75-2.31-5.25-12.81-1.02-14.66-3.67-2.3-3.3,3.75-35.78-2.75-44.9-8.88,0,7.2,66.36-13.75,47.65-5.34-16.2-33.43-18.32-36.65,3.67q-31.16-1.37-62.31-2.75c.49-22.88-.66-45.85,0-68.73h112.71c4.99-3.22,1.68-8.95,2.75-12.83,4.11,1.76,8.52,2.48,12.83,3.67Z"/>
        <path class="cls-26" d="m472.87,555.39c-.21,7.32.29,14.68,0,21.99-.15,3.66.11,7.34,0,11-.66,22.87.49,45.84,0,68.73q31.16,1.37,62.31,2.75c-.33,2.27-.32,6.86,0,9.16h-57.73c-3.3,12.05,1.03,19.16.92,20.16-.02.19-3.53-.6-3.67.92-.61,6.89-.35,17.57,0,24.74.03.61-.03,1.22,0,1.83-3.34-.69-5.59-1.62-9.16-1.83-.08-8.85-1.37-17.05-1.83-25.66-.05-1.01,4.19-8.32.92-20.16-8.24-1.25-25.58,2.5-32.07-1.83-.41-.27-3.3-8.83-3.67-9.16l40.32-2.75c.24-34.51-.33-69.04,0-103.55l3.67,3.67Z"/>
        <path class="cls-22" d="m478.37,689.18h64.14c.15.39,6.2-1.2,5.5,6.41-16.46,5.04-17.35,11.87-23.82,19.24h-49.48c-.35-7.17-.61-17.85,0-24.74.13-1.52,3.64-.73,3.67-.92Z"/>
        <path class="cls-47" d="m535.18,669.02c.15,1.06,6.14,17.05,7.33,20.16h-64.14c.11-1-4.22-8.11-.92-20.16h57.73Z"/>
        <path class="cls-22" d="m504.03,799.14c.03.36,5,2.91,5.5,4.58,1.82,13.67-1.65,27.79-1.83,41.24h-14.66l3.67-43.98c.38,0-1.09-2.78,7.33-1.83Z"/>
        <path class="cls-32" d="m474.71,716.67c.09,1.64,3.62,8.67,3.67,9.16.85,8.63,3.63,5.15,3.67,5.5.09.95-2.02,17-5.5,18.33-4.46-.72-5.04.17-7.33,3.67-5.68-.93-3.52-15.17-3.67-29.32-.03-3.05.03-6.11,0-9.16,3.57.21,5.83,1.14,9.16,1.83Z"/>
        <path class="cls-17" d="m1101.48,713c-.64-.28-5.5.87-12.83-5.5-.42-4.05-.59-17.02,0-20.16,2.39-12.79,14.05-7.28,14.66-6.41.93,1.31.63,25.73-1.83,32.07Z"/>
        <path class="cls-38" d="m729.45,348.3c61.45.16,120.89,16.73,179.6,32.99,3.23,5.45,3.97,10.57,4.58,11,39.34,10.17,95.12,24.05,129.2,45.82,3.14,2.01,14.93,10.64,14.66,14.66-62.42-43.76-155.16-68.57-230.92-62.31-36.92,3.05-58.79,10.24-91.63,25.66-45.96,21.57-61.59,37.25-95.3,73.31-6.4,6.85-11.82,13.66-12.83,14.66-3.75,3.72-8.59,6.73-11.91,11-5.95-4.51,14.74-61.75-77.89-25.66.89-12.84-4.24-21.65,11-54.98,11.71-25.62,37.26-49.64,62.31-62.31,34.71-17.55,80.65-23.93,119.12-23.82Z"/>
        <path class="cls-49" d="m1081.32,471.09c18.63,16.6,35.11,35.04,47.65,56.81-.74.03-2.68,1.31-14.66,1.83-45.57-3.17-91.85.88-137.45,3.67,2.68-5.65,5.93-6.49-4.58-9.16-6.08-1.55-111.69-13.6-124.62-14.66-73.38-6-147.29-5.43-220.84-5.5,1-1,6.43-7.81,12.83-14.66l107.21,3.67c35.58-35.47-11.24-20.31-4.58-44.9,4.29-15.83,84.43-11.33,92.55-6.41,4.63,2.8,9.63,15.78,12.83,16.49,5.42,1.22,91.94-21.3,109.04-4.58,2.41,2.35,6.68,21.44,10.08,22.91l114.54-5.5Z"/>
        <path class="cls-49" d="m1440.53,478.42c-74.12-15.77-216.3-32.81-281.32,3.67-6.48-3.56,51.98-86.86,55.9-93.47-.16,6.57,32.08-1.01,48.57-1.83,58.87-2.92,117.52,6.96,175.94,12.83l.92,78.81Z"/>
        <path class="cls-44" d="m1057.5,452.76c8.31,5.83,16.23,11.56,23.82,18.33l-114.54,5.5c-3.4-1.47-7.67-20.56-10.08-22.91-17.11-16.72-103.62,5.8-109.04,4.58-3.2-.72-8.2-13.7-12.83-16.49-8.12-4.91-88.26-9.42-92.55,6.41-6.66,24.59,40.16,9.43,4.58,44.9l-107.21-3.67c33.71-36.05,49.34-51.74,95.3-73.31,12.49-4.49,9.82,3.48,21.08,5.5,24.41,4.38,85.27,9.17,70.56-31.16,75.76-6.26,168.5,18.55,230.92,62.31Z"/>
        <path class="cls-3" d="m1446.03,557.23c-.19,30.85,1.92,75.64,0,102.63.6,1.92-1.24,5.12-2.75,5.5-5.02,1.26-85.01-7.19-103.55-3.67-.57-12.29-24.35-24.91-29.32,0h-32.99c.23-11.28-1.03-16.6-15.58-14.66-8.71,1.16-6.29,3.98-6.41,14.66h-1.83c-14.84-2.13-12.99,5.08-12.83,18.33-.88-.24-14.94,1.57-18.33,0-2.06-43.97-16.14-31.95-27.49,0h-9.16c-1.55-4.31-2.59-8.36-3.67-12.83-.72-2.98,2.94-4.81,1.83-8.25-6.22-4.26-6.63-11.57-14.66-13.75-10.07-2.73-14.74,23.06-14.66-7.33,5.91.57,96.84-11.96,118.21-11,12.1-5.19,27.15-.39,37.57-9.16,9.66,10.35,64.91-1.43,67.81-11.91,4.82-17.42-26.76-26.98-28.41-28.41-7.88-6.81-15.58-19.53-21.08-23.82l-2.75-5.5c14.64,1.95,110.75-3.33,115.46,0,2.68,1.89-1.92,10.55,4.58,9.16Z"/>
        <path class="cls-49" d="m1446.03,317.15c.45,34.8-.04,69.66,0,104.46.02,18.94,0,37.88,0,56.81-1.77-.22-3.79.36-5.5,0l-.92-78.81c-58.41-5.87-117.07-15.75-175.94-12.83-16.49.82-48.73,8.4-48.57,1.83,11.68-19.67,31.19-52.36,32.99-75.14,24.33,1.98,73.4-2.67,90.72,0,5.19.8,58.14,24.39,100.8,27.49,6.83-2.33-1.89-24.5,6.41-23.82Z"/>
        <path class="cls-3" d="m1053.83,425.27c.31,7.88-3.11,9.72-11,12.83-34.08-21.76-89.86-35.64-129.2-45.82-.61-.43-1.35-5.55-4.58-11-.52-.88.77-6.35-9.16-18.33q.92-20.16,1.83-40.32c49.52,35.42,103.62,65.46,152.11,102.63Z"/>
        <path class="cls-49" d="m610.32,372.13c-25.05,12.67-50.6,36.7-62.31,62.31-25.18.72-49.3,9.35-73.31,16.49,0-.49-2.28-8.68-3.67-9.16,0-10.41-1.76-21.1-1.83-31.16,1.7-.31,3.16.58,5.5-2.75l.92-76.06c48.1,5.38,108.2-10.51,134.7,40.32Z"/>
        <path class="cls-49" d="m870.57,340.97c9.01,6.88,22.03,13.2,29.32,21.99,9.93,11.98,8.64,17.45,9.16,18.33-58.71-16.26-118.15-32.82-179.6-32.99-1.81-3.12,31.23-6.7,43.07-7.33,39.2-2.08,76.43,4.03,97.13,3.67,1.22-.02.99-2.29.92-3.67Z"/>
        <path class="cls-23" d="m397.73,478.42c-.15,23.53,3.91,47.78,1.83,71.47-15.28-.36-30.55.79-45.82,0,.15-20.76.08-41.55,0-62.31l43.98-9.16Z"/>
        <path class="cls-3" d="m469.21,551.73c-.33,34.51.24,69.04,0,103.55l-40.32,2.75c-4.26-3.85-22.42-20.5-26.57-20.16-5.66.46-22,21.89-22.91,27.49l-25.66-1.83c1.77-5.4-.12-97.17,0-113.63,15.27.79,30.54-.36,45.82,0,20.81.5,64.48,6.2,69.64-3.67-.02,1.83.02,3.67,0,5.5Z"/>
        <path class="cls-15" d="m474.71,450.93c-.06,34.08-5.27,68.51,0,102.63l-1.83,1.83-3.67-3.67c.02-1.83-.02-3.67,0-5.5.44-34.69,1.86-69.85,1.83-104.46,1.39.48,3.67,8.67,3.67,9.16Z"/>
        <path class="cls-30" d="m1411.21,680.02l-8.25,11h43.07c-.03.61.05,1.23,0,1.83-3.99.74-.14,9.18-2.75,11-4.47,3.12-96.21,4.01-109.04,3.67v-3.67c.01-1.22-.02-2.44,0-3.67,39.22-7.06,61.99,7.8,49.48-20.16,9.11-.33,18.41.61,27.49,0Z"/>
        <path class="cls-8" d="m1515.67,709.34c.24,2.28-.89,8.06.92,9.16,2.3,1.09,4.47-6.35,4.58-7.33h60.48c.29,6.05.56,6.13,0,12.83l-125.54-3.67c-4.17-2.59-2.16-5.79-2.75-9.16q31.16-.92,62.31-1.83Z"/>
        <path class="cls-17" d="m1515.67,700.18c.21,3.02-.31,6.17,0,9.16q-31.16.92-62.31,1.83c-.55-3.13.25-7.46,0-11h62.31Z"/>
        <path class="cls-29" d="m1612.8,692.85c.06,5.5-.08,11,0,16.49-34.67-14.59-8.73,20.51-29.32,18.33.63-4.42-1.85-3.46-1.83-3.67.56-6.69.29-6.78,0-12.83-.41-8.43,4.79-12.68-1.83-21.99,30.18-14.69,16.22,13.33,32.99,3.67Z"/>
        <path class="cls-30" d="m1501.01,680.02c2.91,5.4,8.46,5.2,14.66,5.5v14.66h-62.31c-.21-3.03.24-6.14,0-9.16h46.73c1.55-1.93-7.13-6.94-8.25-7.33l9.16-3.67Z"/>
        <path class="cls-16" d="m1491.84,683.68c1.12.39,9.79,5.4,8.25,7.33h-46.73c-.23-2.96.45-6.37,0-9.16,12.38,1.15,26.43-2.37,38.49,1.83Z"/>
        <path class="cls-8" d="m1649.46,725.83c-23.3,24.63,2.02-3.51-35.74,0-3.3-4.06.99-6.97.92-7.33,17.79,1.34,37.27-4.62,34.82,7.33Z"/>
        <path class="cls-33" d="m1597.22,709.34c11.81-5.71,13.01,15.58,7.33,18.33-11.81,5.71-13.01-15.58-7.33-18.33Z"/>
        <path class="cls-47" d="m379.41,665.36c-.15.9,5.17,12.69,0,18.33-1.03-3.39-2.28-10.67-2.75-11-.83-.58-19.34-.58-20.16,0-2.07,1.47-.42,11.54-.92,14.66-1.81,11.34-2.46,21.57-1.83,32.99-1.82.02-3.8-.04-5.5,0q-.46-16.49-.92-32.99h-129.2c-1.65-14.24,2.6-15.66,3.67-18.33,43.14.32,86.14.92,129.2,0,.75-1.87,2.14-3.62,2.75-5.5l25.66,1.83Z"/>
        <path class="cls-22" d="m177.81,689.18h27.49c.02.19,3.51-.61,3.67.92,1.3,12.42-1.83,16.54-1.83,17.41-10.52.66-20.68-1.5-31.16-1.83-32.24-1.03-64.83-1.2-97.13-1.83v-14.66c32.98.46,65.99-.34,98.96,0Z"/>
        <path class="cls-22" d="m218.13,687.35h129.2q.46,16.49.92,32.99c-20.22.48-40.13,1.94-60.48,1.83-7.25-20.37-52.14-13.31-73.31-14.66,0-6.35-7.05-18.57,3.67-20.16Z"/>
        <path class="cls-15" d="m207.13,707.51c0,.56,3.09,1.22,1.83,11-43.09-.34-87.01-.24-130.12,0,.4-2.41-1.01-7.8.92-9.16,3.89-2.75,83.01,2.92,95.3,0,1.36-.32.93-2.43.92-3.67,10.48.33,20.63,2.5,31.16,1.83Z"/>
        <path class="cls-4" d="m287.77,722.17c-25.08-.13-50.17-1.62-75.14-1.83-1.2-12.19,1.83-12.18,1.83-12.83,21.17,1.36,66.06-5.7,73.31,14.66Z"/>
        <path class="cls-56" d="m1594.47,476.59c2.07,3.69,1.72,5.21,1.83,5.5,12.35,32.08,3.58,92.46-24.74,115.46-50.79,41.24-90.83-34.15-76.06-101.71,5.89-6.78,9.56-19.84,14.66-26.57.31-.41,6.02-3.42,7.33-7.33,6.53-.81,55.55-23.64,76.97,14.66Z"/>
        <path class="cls-23" d="m1517.5,461.93c-1.31,3.91-7.02,6.92-7.33,7.33l-4.58-1.83q-26.12,11-52.23,21.99c-.03-6.72,0-13.44,0-20.16,21.12-4.24,43.03-4.71,64.14-7.33Z"/>
        <path class="cls-3" d="m1510.17,469.26c-5.1,6.74-8.77,19.79-14.66,26.57-14.77,67.57,25.27,142.96,76.06,101.71,28.32-23,37.09-83.38,24.74-115.46,45.27-5.18,89.9-11.91,135.62-9.16,3.65,48.26,1.09,96.49,1.83,144.78-20.03-1.5-39.51-2.93-59.56,0-50.14,18.6-103.98,23.43-154.86,38.49-.6.18-4.85-3.44-8.25-1.83-2.11,1,.29,5.75-1.83,7.33-4.21,3.13-5.41-14.3-6.41,11-7.7,2.09-47.45-1.58-49.48-6.41-.19-32.68.25-65.37,0-98.05-.2-26.27.12-52.54,0-78.81q26.12-11,52.23-21.99l4.58,1.83Z"/>
        <path class="cls-3" d="m1777.74,496.75c2.12,41.33-1.58,83.24,0,124.62-13.27.86-27.12-.6-40.32-1.83-1.21-48.31.81-96.5,1.83-144.78l37.57,1.83c1.87,1.32.73,16.62.92,20.16Z"/>
        <path class="cls-45" d="m1609.14,652.53c-.93,6.06,3.52,8.69,3.67,9.16,1.39,4.45,2.87,10.16,3.67,14.66.17.98,7.09,10.29-3.67,16.49-16.76,9.67-2.81-18.36-32.99-3.67-5.46-7.68-48.77-5.16-60.48-5.5-4.74-.14-3.46,1.84-3.67,1.83-6.21-.3-11.75-.1-14.66-5.5,1.97-2.73,1.71-4.22,1.83-7.33,1-25.29,2.2-7.87,6.41-11,2.13-1.58-.28-6.33,1.83-7.33,3.4-1.61,7.64,2.01,8.25,1.83.45,3.75,4.14,5.66,5.5,7.33,4.65,5.72,6.89,10.5,7.33,11,.52.59-.98,4.58.92,5.5,5.53,2.67,35.95-3.9,45.82-1.83,1.93-.92.33-4.2.92-5.5,2.55-5.66,1.88-13.42,5.5-18.33,7.97-10.81,15.82-1.95,23.82-1.83Z"/>
        <path class="cls-46" d="m1673.28,663.52c2.45,5.59,12.01,8.7,8.25,14.66q-32.53-.92-65.06-1.83c-.8-4.5-2.28-10.21-3.67-14.66,20.16-1.68,40.46,1.46,60.48,1.83Z"/>
        <path class="cls-46" d="m1004.35,669.02c.6,3.83,4.13,11.84,7.33,12.83-2.31,5.65-2.88,22.71-1.83,27.49-20.31,1.18-40.29-2.95-60.48-3.67.87-3.08-1.94-4.36-1.83-4.58.27-.58,1.59-.6,3.67-2.75.49-.5,4.27.99,5.5-.92,1.76-2.71,3.78-20.01-7.33-15.58.03-.38-3.44-2.38-1.83-7.33,1.25-3.84,5.28-4.78,7.33-7.33l49.48,1.83Z"/>
        <path class="cls-8" d="m1011.68,637.86c-7.47,10.36-9.48,17.55-7.33,31.16l-49.48-1.83c2.93-3.64,14.9-9.88,9.16-12.83.23-.04,1.15-3.32,2.75-3.67,5.04-1.08,24.77.4,35.74-11,3.56-.22,5.39-2.6,9.16-1.83Z"/>
        <path class="cls-17" d="m1039.17,705.67c-4.3,13.7-18.34,14.39-23.82,1.83-3.65-8.36-1.13-17.06-1.83-25.66,2.21.28,17.11-3.8,21.99-5.5,0,.19,3.66-.57,3.67.92.03,8.51,2.36,20.89,0,28.41Z"/>
        <path class="cls-8" d="m1070.33,665.36c-5.59-.67-13.59.94-18.33,0-6.24-1.25-8.17,1.21-7.33-12.83,8.15-3.54,16.37-1.21,24.74-1.83,2.02,1.43.49,11.56.92,14.66Z"/>
        <path class="cls-33" d="m1070.33,665.36c.24,1.77-.34,3.78,0,5.5-2.78,2.02-4.22,1.68-7.33,1.83-4.26.21-8.56-.14-12.83,0,.25-.35-.85-3.78,1.83-7.33,4.73.94,12.74-.67,18.33,0Z"/>
        <path class="cls-45" d="m1339.73,661.69c.01.29-.53.91-1.83,5.5-.51,1.78-8.28,10.97-9.16,13.75-4.46,14.08,3.61,16.8-3.67,21.08-1.68-.07-2.45,2.72-5.5,1.83.01-11.75,2.49-21.82-7.33-20.16-.02-.61.01-1.22,0-1.83-.14-7.41-1.85-8.7-1.83-9.16.07-2.45-.11-10.46,0-11,4.98-24.91,28.75-12.29,29.32,0Z"/>
        <path class="cls-36" d="m1273.76,670.85c1.55.05,5,1.38,12.83,1.83-.21,3.02.32,6.17,0,9.16-.34,3.21.87,6.02-3.67,7.33-3.97-3.42-18.79-4.52-21.99-11,.69-2.45-1.33-7.73,2.75-9.16.48-.17,3.06,1.59,10.08,1.83Z"/>
        <path class="cls-47" d="m1310.41,672.69c-.01.47,1.69,1.75,1.83,9.16h-25.66c.32-2.99-.21-6.15,0-9.16,7.89.46,15.92-.33,23.82,0Z"/>
        <path class="cls-45" d="m1253.6,661.69c4.75,34.06-4.31,21.69-5.5,23.82-10.05-2.87-6.89-5.38-7.33-5.5-.16-13.24-2.01-20.46,12.83-18.33Z"/>
        <path class="cls-45" d="m1277.42,661.69c-.1,5.23,1.12,5.76-3.67,9.16-7.02-.24-9.6-2-10.08-1.83-4.07,1.44-2.06,6.72-2.75,9.16-.07.25-2.81,3.48-3.67,3.67-.12-6.46-1.9-14.32-1.83-20.16.13-10.68-2.3-13.5,6.41-14.66,14.55-1.93,15.8,3.38,15.58,14.66Z"/>
        <path class="cls-47" d="m1442.36,669.02c-.21.41,2.3,7.76-.92,9.16-10.21-1.45-20.24,1.16-30.24,1.83-9.08.61-18.38-.33-27.49,0-3.66.13-7.34-.13-11,0-12.49.44-25.07-.32-37.57,0-1.81.95-.51,3.89-.92,5.5-.65,2.59.09,9.93,0,14.66-.02,1.22.01,2.44,0,3.67-10.34,1.01-8.7-1.81-9.16-1.83,7.28-4.27-.79-7,3.67-21.08.88-2.78,8.65-11.96,9.16-13.75-.01,1.25-.46,3.28.92,3.67,4.99,1.38,88.21-4.84,103.55-1.83Z"/>
        <path class="cls-26" d="m877.9,661.69c.46,3.27-.86,5.81,1.83,9.16-10.35,8-13.81,4.93-25.66,5.5-1.46-7.44-34.16-2.07-54.06-3.67,12.23-6.24,30.44,5.15,37.57-9.16,15.06-.26,25.45-.15,40.32-1.83Z"/>
        <path class="cls-17" d="m905.39,674.52c1.82.12,3.67-.03,5.5,0,8.5.16,13.07.83,21.99,0,4.81-.45,9.82.31,14.66,0-1.61,4.95,1.86,6.95,1.83,7.33-.32,4.3-5.99,16.85,1.83,16.49-2.08,2.15-3.4,2.17-3.67,2.75-.1.22,2.7,1.5,1.83,4.58-.74-.03-7.62-3.69-14.66-1.83,6.95-27.39-9.65-30.76-3.67,0-2.78-.68-21.34-1.65-25.66,0-2.73-16.02-4.47-9.33-5.5-12.83-.89-3.03.62-10.23,0-14.66,1.41.17,1.67-2.08,5.5-1.83Z"/>
        <path class="cls-49" d="m626.82,504.08c73.55.07,147.46-.5,220.84,5.5,12.93,1.06,118.54,13.11,124.62,14.66,10.51,2.68,7.26,3.51,4.58,9.16-51.2,3.13-361.85,24.41-380.28,29.32-6.45,1.72-4.91,3.09-6.41,5.5-2.61,4.17-1.1,4.67-1.83,7.33-1.07,3.88,2.24,9.61-2.75,12.83h-112.71c.11-3.66-.15-7.34,0-11h61.39c1.85-1.32.76-19.94.92-23.82.86-21.57.33-42.45,1.83-64.14,92.63-36.09,71.94,21.14,77.89,25.66,3.32-4.27,8.16-7.27,11.91-11Z"/>
        <path class="cls-3" d="m535.18,553.56c-.16,3.88.94,22.51-.92,23.82h-61.39c.29-7.31-.21-14.68,0-21.99l1.83-1.83h60.48Z"/>
        <path class="cls-22" d="m414.23,689.18c16.3-1.27,33.12.93,49.48,0,.47,8.61,1.76,16.8,1.83,25.66-12.13-.73-24.49.53-36.65,0-8.93-10.42-25.79-19.87-27.49-20.16,3.2-7.12,7.03-5.05,12.83-5.5Z"/>
        <path class="cls-47" d="m463.71,689.18c-16.36.93-33.18-1.27-49.48,0l18.33-21.99c6.49,4.33,23.83.59,32.07,1.83,3.27,11.84-.97,19.15-.92,20.16Z"/>
        <path class="cls-1" d="m476.54,749.66c7.96.53,17.57,18.83,18.33,24.74,3.25,25.53-24.25,26.28,1.83,26.57l-3.67,43.98h-49.48c-1.48-10.91-.95-20.48-1.83-31.16-.3-3.61.39-7.4,0-11,17.9-2.03,5.81-6.68,16.49-32.99.37-.92,8.81-13.17,11-16.49,2.29-3.49,2.87-4.39,7.33-3.67Z"/>
        <path class="cls-46" d="m1050.17,672.69c4.26-.14,8.57.21,12.83,0q4.58,19.24,9.16,38.49c-18.79-9.43-24.13-.08-27.49,0-1.22-6.98-.89-34.09,0-37.57.46-1.79,5.19-.5,5.5-.92Z"/>
        <path class="cls-3" d="m548.01,434.44c-15.24,33.33-10.11,42.14-11,54.98-1.51,21.7-.97,42.57-1.83,64.14h-60.48c-5.27-34.12-.06-68.55,0-102.63,24.01-7.14,48.13-15.78,73.31-16.49Z"/>
        <path class="cls-59" d="m826.58,390.45c14.71,40.33-46.14,35.54-70.56,31.16-11.25-2.02-8.58-9.98-21.08-5.5,32.84-15.41,54.71-22.61,91.63-25.66Z"/>
        <path class="cls-60" d="m1442.36,669.02c-15.34-3.01-98.56,3.21-103.55,1.83-1.38-.38-.93-2.42-.92-3.67,1.31-4.59,1.85-5.21,1.83-5.5,18.53-3.53,98.52,4.93,103.55,3.67,1.51-.38,3.35-3.58,2.75-5.5-.96,13.49-2.77,7.38-3.67,9.16Z"/>
        <path class="cls-26" d="m1310.41,661.69c-.11.54.07,8.54,0,11-7.91-.33-15.93.46-23.82,0-7.83-.46-11.28-1.78-12.83-1.83,4.79-3.4,3.56-3.93,3.67-9.16h32.99Z"/>
        <path class="cls-23" d="m382.16,588.38c3.45-2.26,78.93-2.11,82.47,0,1.65.98.76,3.06.92,4.58-26.81.17-101.31,7.2-83.39-4.58Z"/>
        <path class="cls-8" d="m1383.72,680.02c12.51,27.95-10.27,13.1-49.48,20.16.09-4.73-.65-12.07,0-14.66,6.27,5.91,38.18,7.6,38.49-5.5,3.66-.13,7.34.13,11,0Z"/>
        <path class="cls-17" d="m1579.81,689.18c6.62,9.32,1.42,13.56,1.83,21.99h-60.48c.16-1.37-3.82-21.01-1.83-27.49,11.71.34,55.02-2.18,60.48,5.5Z"/>
        <path class="cls-26" d="m1519.33,683.68c-1.99,6.48,1.99,26.12,1.83,27.49-.11.98-2.28,8.42-4.58,7.33-1.8-1.1-.68-6.88-.92-9.16-.31-3,.21-6.14,0-9.16v-14.66c.2,0-1.08-1.97,3.67-1.83Z"/>
        <path class="cls-47" d="m379.41,683.68c.27.89-.14,2.47,0,3.67-7.55-.85-16.13.61-23.82,0,.5-3.13-1.15-13.19.92-14.66.82-.58,19.33-.58,20.16,0,.46.32,1.72,7.6,2.75,11Z"/>
        <path class="cls-22" d="m1002.52,639.7c-10.96,11.39-30.7,9.92-35.74,11-1.6.34-2.52,3.62-2.75,3.67-10.75,1.99-20.33,2.33-31.16,1.83-1.43-13.37-8.74-22.03-21.99-12.83-.95.66-2.47,1.53-3.67,1.83-1.23-5.71-4.01-10.04-7.33-14.66,23.86,2.12,86.84,10.14,102.63,9.16Z"/>
        <path class="cls-20" d="m954.87,667.19c-2.05,2.55-6.08,3.49-7.33,7.33-4.84.31-9.85-.45-14.66,0-.45-6.02.64-12.35,0-18.33,10.83.49,20.41.16,31.16-1.83,5.74,2.95-6.23,9.19-9.16,12.83Z"/>
        <path class="cls-24" d="m951.2,698.34c-7.82.35-2.15-12.2-1.83-16.49,11.11-4.44,9.09,12.87,7.33,15.58-1.23,1.9-5.01.41-5.5.92Z"/>
        <path class="cls-9" d="m1372.72,680.02c-.3,13.1-32.21,11.4-38.49,5.5.4-1.61-.89-4.55.92-5.5,12.5-.32,25.08.44,37.57,0Z"/>
      </g>
      <g>
        <path class="cls-42" d="m1876.71,731.33c-3.22-1.83-2.94-8.17-3.67-11-4.44-17.24-2.4-20.39-3.67-31.16-.31-2.63.98-9.65-.92-11-1.16-.82-15.51.57-21.08,0,7.1-2.52,17.81-5.89,23.82-9.16.28-.15,2.73.26,5.5-1.83-.02,21.38.03,42.76,0,64.14Z"/>
        <g>
          <path class="cls-1" d="m634.15,879.78c13.52-.81,26.89.69,40.32,1.83-1.42,14.63-3.71,29.24-3.67,43.98-17.01-.89-34.21-1.08-51.32-1.83q-2.75-20.62-5.5-41.24c3.26-4.7,11.73-2.25,20.16-2.75Z"/>
          <path class="cls-47" d="m672.64,839.46c2.86.14,3.24.68,5.5,1.83-2.3,12.88-2.38,27.16-3.67,40.32-13.43-1.14-26.8-2.64-40.32-1.83-10.93-12.36,27.47-11.37,29.32-15.58,4.17-9.48-8.85-25.59,9.16-24.74Z"/>
        </g>
        <g>
          <path class="cls-43" d="m18.37,700.18c-.3,1.51.68,3.01-1.83,4.58.13,1.39,3.6,2.53,3.67,2.75,1.79,5.77,5.7,10.55,7.33,16.49,1.45,5.28,5.43,17.37,5.5,18.33,1.41,20.56-8.31,40.62-11,53.15q-11,.92-21.99,1.83c-.06-30.54.04-61.09,0-91.63,9.2-3.33,11.17,1.43,14.66-7.33l3.67,1.83Z"/>
          <path class="cls-42" d="m22.03,795.48c-.43,2.01-3.63,5.72-5.5,14.66-1.84,8.79-1.08,13.84-1.83,18.33-.88,5.29-1.26,9.42-1.83,14.66-1.97,18.06-7.04,36.66-1.83,54.98-.55-.06-1.05,3.1-11,1.83-.12-34.21.07-68.42,0-102.63q11-.92,21.99-1.83Z"/>
          <path class="cls-47" d="m5.54,654.36v27.49c-5.29.82-2.24,1.88-5.5,3.67-.01-11.61.01-23.21,0-34.82,4.51-.77,5.22,3.48,5.5,3.67Z"/>
          <path class="cls-63" d="m31.2,672.69c.08,6.75-1.11,6.98-1.83,9.16-.33,1.02-9.45,10.63-11,18.33l-3.67-1.83c3.56-8.93,2.79-18.34-9.16-16.49v-27.49c12.19,8.2,25.4-2.65,25.66,18.33Z"/>
        </g>
        <path class="cls-45" d="m1033.67,639.7c2.31,2.06,4.71,6.86,6.41,7.33,7.4,2.03,39.17,2.25,41.24-9.16,2-.17,9.86-4.85,11.91-7.33,7.09-1.19,13.5,2.88,22.91,3.67,6.77,28.91,16.48,6.73,25.66,1.83.65-.35,3.47-1.76,3.67-1.83,8.69-1.57,6.79,3.44,9.16,3.67-.08,30.39,4.59,4.6,14.66,7.33l12.83,21.99c1.08,4.47,2.12,8.51,3.67,12.83l1.83,4.58c-7.4,2.22-4.73,5.99-5.5,8.25-3.75,11.08-6.54,6.02-7.33,9.16l-7.33-1.83c-4.86-14.62-7.75-3.72-11-8.25-1.11-1.54,2.29-11.52-2.75-13.75-3.5-1.55-24.55,1.93-26.57-.92-1.37-1.93,1.8-17.99-.92-21.08-.46-.52-12.14-3.09-13.75.92-1.19,2.97,1.12,14.36,0,19.24-.17.76-4.43-.1-5.5,14.66-.8,11.08-2.57,26.24,11,16.49q-2.75,4.58-5.5,9.16c-1.45-.37-.05,1.99-5.5,0-5.75-2.1-5.2-3.53-5.5-3.67,2.46-6.34,2.76-30.76,1.83-32.07-.61-.86-12.27-6.38-14.66,6.41h-12.83c-1.37-6.16-3.29-5.45-5.5-16.49-.34-1.72.24-3.73,0-5.5-.43-3.11,1.1-13.23-.92-14.66-8.37.62-16.59-1.7-24.74,1.83-7.29,3.16-9.33,15.8-9.16,23.82-4.88,1.7-19.78,5.78-21.99,5.5-.63-.08-1.33.16-1.83,0-3.2-.99-6.73-9-7.33-12.83-2.15-13.61-.14-20.79,7.33-31.16,14.04-19.47,11.44-7.6,21.99,1.83Z"/>
        <path class="cls-58" d="m1179.37,722.17c17.11,4.66,113.65-1.26,119.12,1.83.9.51-1.07,17.79-1.83,18.33-4.88,3.42-104.82.47-119.12,1.83l1.83-21.99Z"/>
        <g>
          <path class="cls-45" d="m1222.44,680.02c.32,6.88-1.82,8.42-1.83,16.49l-7.33,1.83c-.39-.67-7.64-7.91-12.83-5.5-.13-1.87-2.31-12.9-5.5-12.83,11.35-31.95,25.44-43.97,27.49,0Z"/>
          <path class="cls-29" d="m1213.28,698.34c11.38,19.6-3.81,17.16-14.66,18.33-1.56-13.93,1.91-22.63,1.83-23.82,5.19-2.41,12.44,4.83,12.83,5.5Z"/>
        </g>
        <g>
          <path class="cls-45" d="m571.84,656.19c2.3,7-.66,11.37-3.67,18.33-.46,1.06-10.68,14.48-12.83,19.24,2.08,2.71,24.62-5.44,34.82,26.57,5.65,17.74,4.28,81.97,1.83,102.63-2.88,24.38-16.81,70.13-21.99,97.13-1.06-.04-2.3,2.66-21.08,1.83-1.64-.07-.64-5.49-.92-5.5,17.7-16.24,9.2-31.8,11-54.06-1.54-3.82-41.85-7.93-49.48-8.25,1.05-5.99-1.85-8.11-1.83-9.16.18-13.44,3.65-27.56,1.83-41.24-.5-1.67-5.46-4.23-5.5-4.58-2.05-21.79-1.72-21.46,1.83-42.15,2.41-14.05,11.75-19.5,3.67-23.82-7.73-4.14-19.1-.76-27.49-1.83-.03-.34-2.81,3.13-3.67-5.5,49.12,1.64,36.76-.68,45.82-11,6.47-7.37,7.36-14.2,23.82-19.24.7-7.61-5.35-6.02-5.5-6.41-1.19-3.11-7.18-19.1-7.33-20.16-.32-2.3-.33-6.89,0-9.16,3.23-21.98,31.32-19.87,36.65-3.67Z"/>
          <path class="cls-40" d="m509.53,733.16c8.08,4.33-1.25,9.77-3.67,23.82-3.85-3.7-2.08-24.19,3.67-23.82Z"/>
        </g>
        <path class="cls-36" d="m1075.83,687.35c2.3,10.3,4.27,20.73,9.16,30.24.49,4.15-2.78,2.3-5.5,2.75,1.14-6.31-2.6-6.79-7.33-9.16q-4.58-19.24-9.16-38.49c3.11-.15,4.55.19,7.33-1.83,2.21,11.04,4.12,10.33,5.5,16.49Z"/>
        <g>
          <path class="cls-8" d="m1121.64,718.5c-1.49-.06-1.69,2.03-5.5,1.83-.21-.87-3.41-3.6-3.67-3.67q2.75-4.58,5.5-9.16h1.83c.06.55,2.88-1.16,1.83,11Z"/>
          <path class="cls-40" d="m1112.48,716.67c.25.06,3.45,2.8,3.67,3.67-4.24-.22-8.62.38-12.83,0l3.67-3.67c5.45,1.99,4.05-.37,5.5,0Z"/>
          <path class="cls-20" d="m1119.81,691.01c.67,5.19-.55,11.22,0,16.49h-1.83c-13.57,9.75-11.8-5.42-11-16.49h12.83Z"/>
          <path class="cls-21" d="m1119.81,691.01h-12.83c1.07-14.76,5.32-13.9,5.5-14.66,11.41,3.14,6.13,5.32,7.33,14.66Z"/>
        </g>
        <g>
          <g>
            <path class="cls-47" d="m1416.7,267.66c19.47.91,39.16-.67,58.65,0,1.95.99,9.81-2.93,7.33,6.41-.92,3.45-12.95,5.55-16.49,6.41-4.86,1.18-9.71,1.38-14.66,1.83-1.68.16-8.02.01-11,0-11.43-.05-49.85,5-31.16-14.66,2.44.09,4.9-.11,7.33,0Z"/>
            <path class="cls-59" d="m1475.35,267.66c-19.49-.67-39.18.91-58.65,0-.13-5.58,54.79-4.41,57.73-3.67,1.6.41.69,3.55.92,3.67Z"/>
          </g>
          <path class="cls-26" d="m1453.36,568.22c.25,32.68-.19,65.37,0,98.05,2.03,4.84,41.78,8.51,49.48,6.41-.12,3.11.14,4.6-1.83,7.33l-9.16,3.67c-12.05-4.2-26.11-.68-38.49-1.83-.82-5.1-1.77-3.47-1.83-3.67-.09-.26,3.2-5.74-.92-5.5-9.31.54-2.64,5.03-2.75,5.5-1.29,5.43-1.52,7.19-1.83,12.83h-43.07l8.25-11c9.99-.67,20.03-3.29,30.24-1.83,3.22-1.4.71-8.75.92-9.16.89-1.79,2.71,4.33,3.67-9.16,1.92-26.99-.19-71.78,0-102.63.16-26.26.01-52.54,0-78.81,0-18.94.02-37.88,0-56.81,1.62.17,4.73-.74,5.5.92,3.08,6.65-3.69,125.19,1.83,145.7Z"/>
          <path class="cls-13" d="m1451.53,282.32c1.79,11.02,1.64,21.88,1.83,32.99.37,21.36-.05,42.78,0,64.14.07,29.93-.02,59.87,0,89.8,0,6.72-.03,13.44,0,20.16.12,26.27-.2,52.54,0,78.81-5.52-20.51,1.25-139.05-1.83-145.7-.77-1.66-3.88-.74-5.5-.92-.04-34.81.45-69.66,0-104.46-.25-19.22,2.7-36.57-5.5-34.82,2.98.01,9.31.16,11,0Z"/>
          <path class="cls-50" d="m1451.53,678.18h-3.67c.11-.47-6.56-4.95,2.75-5.5,4.12-.24.83,5.23.92,5.5Z"/>
        </g>
        <g>
          <path class="cls-34" d="m1799.74,667.19c-5.27,3.59-23.9,8.06-31.16,9.16l7.33-11c4.11-.07,6.77-1.51,11-1.83,11.04-.83,8.55-10.75,12.83,3.67Z"/>
          <path class="cls-28" d="m1766.75,676.35c-38.95,5.33-61.06-2.16-37.57-1.83l-.92-3.67c27.69.08,41.68-4.9,38.49,5.5Z"/>
        </g>
        <g>
          <path class="cls-56" d="m311.6,333.64c1.2,2.03,10.71,22.54,11,23.82,17.62,78.82-28.09,145.76-82.47,196.1-19.26,17.83-54.48,51.19-79.72,54.98-41.73,6.27-68.42-13.46-88.89-47.65-3.05-5.09-6.77-12.8-9.16-18.33-2.68-6.18-3.53-6.94-3.67-7.33-4.58-12.93-9.84-34.14-11-47.65-2.37-27.6,3.61-83.56,12.83-109.96,15.84-45.38,67.45-98.17,117.29-102.63l1.83-1.83c49.49-1.28,105.09,14.97,131.95,60.48Z"/>
          <path class="cls-47" d="m353.75,487.58c.08,20.76.15,41.55,0,62.31-.12,16.46,1.77,108.23,0,113.63-.61,1.88-2,3.63-2.75,5.5-43.06.92-86.06.32-129.2,0,1.02-2.57,1.95-6.33,1.83-9.16,21.68,3.16,91.61-2.35,123.71,0,1.84-36.63.69-73.31.92-109.96.14-22.56-4.53-169.26,0-176.85.88-1.48,4.61-1.48,5.5,0,2.93,4.92-.06,99.64,0,114.54Z"/>
          <g>
            <path class="cls-35" d="m179.64,273.16l-1.83,1.83q-.92-73.31-1.83-146.61l1.83-1.83q.92,73.31,1.83,146.61Z"/>
            <path class="cls-26" d="m223.63,659.86c.12,2.83-.81,6.59-1.83,9.16-1.06,2.66-5.32,4.09-3.67,18.33-10.71,1.59-3.67,13.81-3.67,20.16,0,.65-3.03.64-1.83,12.83-1.74-.01-1.92-1.82-3.67-1.83,1.25-9.78-1.83-10.44-1.83-11,0-.88,3.14-4.99,1.83-17.41-.16-1.53-3.64-.73-3.67-.92-.1-.78,3.99-10.06,1.83-15.58-2.13-5.47-23.8,4.29-20.16-8.25,6.35-4.67,2.72-6.4,4.58-7.33,2.39-1.19,13.19,1.63,15.58-.92,4.71-5.01-1.67-76.04,4.58-76.06q1.37,38.94,2.75,77.89c1.34,1.89,6.77.57,9.16.92Z"/>
          </g>
          <g>
            <path class="cls-51" d="m1781.41,467.43c.01,1.83-.01,3.67,0,5.5,0,.61,0,1.22,0,1.83l-5.5-7.33c3.67-91.41,4.8-92.15,5.5,0Z"/>
            <path class="cls-55" d="m1781.41,496.75c-.02,42.19.03,84.29-1.83,126.46-.37-.2-2.02.4-1.83-1.83-1.58-41.38,2.12-83.3,0-124.62h3.67Z"/>
          </g>
          <g>
            <path class="cls-12" d="m1838.22,282.32c-3.17,1.56-5.62,9.22-7.33,11-4.15,4.31-44.82,55.24-49.48,44.9l20.16-30.24c2.59-2.78,1.69-3.52,1.83-3.67,6.04-6.4,15.64-22.46,21.08-25.66,5.91-3.47,20.42-8.03,13.75,3.67Z"/>
            <path class="cls-15" d="m1737.42,469.26c-.88,6.36,1.84,5.21,1.83,5.5-1.03,48.28-3.04,96.47-1.83,144.78-5.04-.47-3.46-1.82-3.67-1.83-.75-48.29,1.82-96.52-1.83-144.78-.13-1.72,2.07-2.05,1.83-3.67h3.67Z"/>
            <path class="cls-11" d="m1709.93,351.97c.13,1.18-.27,2.73,0,3.67,1.44,4.99,3.51,5.21,3.67,5.5.23.44-.19,1.24,0,1.83.2,2.23-1.58,1.67-1.83,1.83-14-9.86-9.59-8.76-23.82-12.83-.56-.16-1.26.15-1.83,0,.21-8.68,18.05-.04,23.82,0Z"/>
            <path class="cls-27" d="m1792.4,353.8c-24.79,1.78-48.87-2.66-73.31-5.5-20.33-2.36-41.21-4.18-61.39-7.33-1.36-.21-19.87-10.16-17.41-.92,1.04,3.92,14.8,2.72,5.5,4.58-14.89-2.77-43.56,1.09-20.16-14.66.97-.65,2.6,1.93,2.75,1.83,5.63-3.61,2.6-16.7,47.65-14.66,61.83,2.8,85.35,34.09,125.54-9.16l-20.16,30.24c4.66,10.34,45.33-40.59,49.48-44.9-13.83,30.24-3.24,51.32-38.49,60.48Z"/>
            <path class="cls-57" d="m1792.4,353.8c-.18.05.63,3.38-.92,3.67-26.06,4.72-55.26-7.09-81.55-1.83-.27-.94.13-2.49,0-3.67.49,0,8.34-2.41,9.16-3.67,24.43,2.84,48.52,7.27,73.31,5.5Z"/>
            <path class="cls-6" d="m1719.1,348.3c-.82,1.25-8.67,3.67-9.16,3.67-5.77-.04-23.61-8.68-23.82,0-13.09-3.43-26.97-4.85-40.32-7.33,9.3-1.87-4.45-.66-5.5-4.58-2.46-9.24,16.06.7,17.41.92,20.19,3.16,41.06,4.97,61.39,7.33Z"/>
            <path class="cls-27" d="m1711.77,364.8c-8.08,5.35-44.99,4.15-23.82-12.83,14.24,4.07,9.82,2.97,23.82,12.83Z"/>
          </g>
          <path class="cls-30" d="m1141.8,636.03c-9.18,4.9-18.89,27.08-25.66-1.83,10.5.88,23.06-1.99,25.66,1.83Z"/>
        </g>
        <path class="cls-26" d="m1182.12,667.19l-12.83-21.99c8.03,2.17,8.44,9.49,14.66,13.75,1.1,3.44-2.55,5.27-1.83,8.25Z"/>
        <g>
          <path class="cls-25" d="m1044.67,652.53c-.84,14.04,1.09,11.58,7.33,12.83-2.68,3.55-1.58,6.98-1.83,7.33-.3.42-5.04-.88-5.5.92-.89,3.48-1.22,30.59,0,37.57-4.5.1-3.29-1.68-5.5-5.5,2.36-7.51.03-19.89,0-28.41,0-1.49-3.66-.73-3.67-.92-.16-8.02,1.88-20.66,9.16-23.82Z"/>
          <path class="cls-31" d="m1015.35,707.51c-1.9,5.87-3.47,11.06-5.5,1.83-1.05-4.79-.48-21.84,1.83-27.49.5.16,1.21-.08,1.83,0,.7,8.59-1.82,17.3,1.83,25.66Z"/>
        </g>
        <g>
          <path class="cls-36" d="m905.39,703.84c.39,2.27,3.87,4.34,3.67,4.58-1.72,2.03-16.7-1.62-18.33,10.08-.61,0-1.22,0-1.83,0-5.38-10.98-.39-3.16,3.67-14.66.74-2.1,3.66-10.42,3.67-11l3.67-1.83c1.03,3.5,2.77-3.19,5.5,12.83Z"/>
          <path class="cls-45" d="m899.89,630.53c3.32,4.62,6.1,8.95,7.33,14.66,2.1,9.73,2.21,20.56-1.83,29.32-3.83-.25-4.09,2-5.5,1.83-.38-.04,1.3-.37-7.33-1.83-4.68-.79-11.04,2.28-12.83-3.67-2.69-3.35-1.37-5.9-1.83-9.16-1.32-9.37-.77-23.69,5.5-31.16,1.67.16,6.83-.86,16.49,0Z"/>
          <path class="cls-25" d="m899.89,676.35c.62,4.43-.89,11.63,0,14.66l-3.67,1.83c.01-.93-2.52-14.48-3.67-18.33,8.63,1.46,6.96,1.79,7.33,1.83Z"/>
        </g>
        <g>
          <g>
            <path class="cls-58" d="m588.33,1072.21c-12.22,0-24.44,0-36.65,0-4.98-13.77-2.46-26.23-11-37.57,17.76-66.3,68.3-42.62,79.72-46.73,28.04-53.92,6.81-9.36,10.08-2.75.64,1.29,22.96,6.15-.92,17.41-18.94,8.94-43.38-3.95-47.65-1.83-7.97,3.96-9.82,24.04-6.41,30.24,2.9,5.27,14.86-7.66,12.83,41.24Z"/>
            <path class="cls-62" d="m412.39,916.43c.61,0,1.22,0,1.83,0-.91,16.29,21.25,35.64,27.49,50.4,24.58,58.18-28.63,11.25-25.66,51.32,1.26,16.98,16.59,18.9,29.32,21.99-10.03,6.22-49.49-1.24-53.15-5.5-2.99-3.49-7.64-33.65,1.83-34.82-33.04-22.52-9.84-53.76-5.5-85.22l5.5-1.83c9.42,10.25,12.33,3.63,18.33,3.67Z"/>
          </g>
          <g>
            <path class="cls-58" d="m692.8,744.16q38.94-1.83,77.89-3.67c4.75-8.08-12.92-8.5-13.75-14.66,128.65-.13,257.16-2.94,385.78,3.67l.92-9.16c4.65.33,12.48-1.06,16.49,0,19.96,5.28.51,23.35,14.66,46.73,3.4,5.61,15,12.96,21.08,15.58,21.81,9.39,212.23,37.05,255.66,43.98,141.26,22.55,282.37,44.58,425.18,54.98-.19,63.53.14,127.07,0,190.6-429.46-.22-858.92.29-1288.38,0,2.03-48.89-9.93-35.96-12.83-41.24-3.41-6.2-1.55-26.28,6.41-30.24,4.27-2.12,28.71,10.77,47.65,1.83,23.88-11.26,1.56-16.12.92-17.41-3.27-6.61,17.96-51.17-10.08,2.75-11.42,4.11-61.97-19.57-79.72,46.73,8.54,11.34,6.02,23.8,11,37.57-183.88-.14-367.76.11-551.64,0-.15-57.42.2-114.85,0-172.27,9.94,1.27,10.44-1.9,11-1.83,1.75.2,9.27,4.31,33.9,5.5,114.36,5.53,229.23,5.38,343.63,11-4.35,31.46-27.55,62.7,5.5,85.22-9.47,1.17-4.82,31.33-1.83,34.82,3.65,4.26,43.12,11.72,53.15,5.5-12.73-3.09-28.06-5.01-29.32-21.99-2.97-40.07,50.24,6.86,25.66-51.32-6.24-14.76-28.4-34.11-27.49-50.4,43.11.08,91.56-1.96,133.79,0,.28.01-.72,5.43.92,5.5,18.77.83,20.02-1.88,21.08-1.83,16.02.66,32.73,2.93,49.48,3.67,17.1.75,34.3.94,51.32,1.83,68.8,3.6,137.66,4.21,206.18,12.83q304.23,43.07,608.45,86.14c95.78,5.47,191.06-10.09,286.81-11.91-212.26-53.42-425.95-100.67-640.52-143.87-150.64-15.23-301.74-27.82-452.67-38.49-2.01,1.42-.44,8.33-.92,11-2.26-1.15-2.64-1.7-5.5-1.83,7.42-16.23-9.27-6.01-10.08-16.49-15.83,10.77-46.73.04-70.56,0,2.44-20.66,3.82-84.89-1.83-102.63,6.5-1.6,1.92-11.01,4.58-12.83,2.84-1.95,67.61-.51,68.73,2.75-9.02,71.76-36.02,129.75,32.99,108.13-5.89-55.04,14.57-50.8,12.83-53.15-4.93-6.65-5.9,13.67-16.49-21.08Z"/>
            <g>
              <path class="cls-5" d="m1088.65,687.35c-.59,3.14-.42,16.1,0,20.16.48,4.58-1.79,9.65,2.75,12.83,3.93.24,8-.35,11.91,0,4.21.38,8.59-.22,12.83,0,3.81.2,4.01-1.89,5.5-1.83,6.9.28,14.9,1.33,21.99,1.83l-.92,9.16c-128.62-6.6-257.13-3.8-385.78-3.67-22.49.02-45.47-1.52-67.81,1.83-.51-2.28-5.73-11.14-2.75-12.83,67.56-1.84,135.02,2.58,202.51,3.67.61,0,1.22,0,1.83,0,36.46.59,170.33,4.87,188.77,1.83,2.72-.45,5.99,1.4,5.5-2.75-4.89-9.51-6.87-19.94-9.16-30.24h12.83Z"/>
              <path class="cls-53" d="m756.94,725.83c.82,6.16,18.5,6.59,13.75,14.66q-38.94,1.83-77.89,3.67c-.91-2.99-2.66-11.98-3.67-16.49,22.34-3.35,45.32-1.81,67.81-1.83Z"/>
            </g>
          </g>
          <g>
            <path class="cls-41" d="m670.8,925.6c-.05-14.75,2.24-29.36,3.67-43.98,1.28-13.16,1.36-27.44,3.67-40.32.48-2.66-1.09-9.57.92-11,150.93,10.66,302.03,23.25,452.67,38.49,214.57,43.19,428.26,90.45,640.52,143.87-95.75,1.82-191.03,17.38-286.81,11.91q-304.23-43.07-608.45-86.14c-68.51-8.62-137.37-9.23-206.18-12.83Z"/>
            <path class="cls-41" d="m672.64,839.46c-18.01-.85-4.99,15.26-9.16,24.74-1.85,4.21-40.26,3.22-29.32,15.58-8.43.5-16.9-1.95-20.16,2.75q2.75,20.62,5.5,41.24c-16.75-.73-33.46-3-49.48-3.67,5.18-27,19.11-72.75,21.99-97.13,23.83.04,54.72,10.77,70.56,0,.81,10.49,17.5.27,10.08,16.49Z"/>
            <g>
              <g>
                <path class="cls-22" d="m375.74,854.12c5.01.6,10.02,0,14.66,2.75.26,10.83,10.23,50.85,3.67,55.9l-5.5,1.83c-114.4-5.61-229.27-5.47-343.63-11-24.64-1.19-32.15-5.3-33.9-5.5-5.21-18.32-.14-36.92,1.83-54.98,94.28,6.35,284.82,1.63,362.87,11Z"/>
                <path class="cls-22" d="m443.55,854.12c22.44,1.25,44.15-.9,65.98,0,7.63.31,47.95,4.43,49.48,8.25-1.8,22.26,6.7,37.82-11,54.06-42.23-1.96-90.68.08-133.79,0-.61,0-1.22,0-1.83,0q4.58-31.16,9.16-62.31c7.24.6,14.72-.4,21.99,0Z"/>
              </g>
              <path class="cls-22" d="m355.58,813.8q7.33,1.37,14.66,2.75c.76,7.66-1.05,17.67,0,24.74q-166.32-4.58-332.63-9.16l-22.91-3.67c.75-4.49,0-9.54,1.83-18.33l339.05,3.67Z"/>
              <g>
                <path class="cls-61" d="m370.24,841.29c.51,3.46,3.77,6.42,5.5,9.16.23.36-.13,2.18,0,3.67-78.05-9.36-268.59-4.65-362.87-11,.57-5.24.95-9.37,1.83-14.66l22.91,3.67q166.32,4.58,332.63,9.16Z"/>
                <path class="cls-61" d="m493.03,844.96h14.66c-.01,1.05,2.88,3.17,1.83,9.16-21.83-.9-43.54,1.25-65.98,0-.27-2.98.4-6.24,0-9.16h49.48Z"/>
              </g>
            </g>
          </g>
          <path class="cls-54" d="m524.19,714.84c-9.06,10.31,3.3,12.64-45.82,11-.05-.49-3.58-7.53-3.67-9.16-.03-.61.03-1.22,0-1.83h49.48Z"/>
          <g>
            <path class="cls-58" d="m509.53,733.16c-5.74-.36-7.51,20.13-3.67,23.82-3.55,20.69-3.89,20.36-1.83,42.15-8.42-.95-6.95,1.84-7.33,1.83-26.09-.29,1.42-1.04-1.83-26.57-.75-5.91-10.37-24.21-18.33-24.74,3.48-1.33,5.59-17.37,5.5-18.33,8.39,1.07,19.76-2.31,27.49,1.83Z"/>
            <g>
              <path class="cls-58" d="m197.97,742.33c53.13.03,106.35-1.1,159.44,1.83-3.08,23.35-1.52,46.26-1.83,69.64l-339.05-3.67c1.87-8.94,5.07-12.66,5.5-14.66,2.68-12.53,12.41-32.58,11-53.15,54.98.02,109.96-.03,164.94,0Z"/>
              <path class="cls-53" d="m201.64,733.16c3.35,9.77.88,5.19-3.67,9.16-54.98-.03-109.96.02-164.94,0-.07-.95-4.05-13.05-5.5-18.33,1.37-.26,2.4-1.2,3.67-1.83.29,2.02-.87,6.36.92,7.33,7.45,4.05,146.67-.68,169.52,3.67Z"/>
              <path class="cls-5" d="m208.97,718.5c1.74.01,1.92,1.82,3.67,1.83,24.97.21,50.06,1.7,75.14,1.83,20.34.11,40.25-1.35,60.48-1.83,1.7-.04,3.68.02,5.5,0,.46,0,3.14,4.52,9.16,0-.5,1.17-3.12,10.41-3.67,12.83h-157.61c-22.85-4.34-162.07.38-169.52-3.67-1.79-.97-.63-5.31-.92-7.33,3.82-1.91,40.62-3.63,47.65-3.67,43.11-.24,87.03-.34,130.12,0Z"/>
              <path class="cls-53" d="m359.25,733.16c-.79,3.5-1.36,7.42-1.83,11-53.09-2.93-106.31-1.81-159.44-1.83,4.55-3.98,7.01.6,3.67-9.16h157.61Z"/>
            </g>
            <path class="cls-58" d="m465.54,724c.15,14.16-2.01,28.4,3.67,29.32-2.18,3.33-10.62,15.58-11,16.49-8.11,8.24-13.92-32.75-20.16-43.98q13.75-.92,27.49-1.83Z"/>
          </g>
        </g>
        <g>
          <path class="cls-8" d="m931.04,703.84c.3.07-1.04,7.37,2.75,5.5,1.8-.89.58-5.41.92-5.5,7.04-1.86,13.92,1.81,14.66,1.83,20.19.71,40.17,4.85,60.48,3.67,2.03,9.23,3.6,4.04,5.5-1.83,5.48,12.56,19.52,11.87,23.82-1.83,2.2,3.82,1,5.6,5.5,5.5,3.36-.08,8.7-9.43,27.49,0,4.73,2.37,8.47,2.85,7.33,9.16-18.44,3.04-152.3-1.24-188.77-1.83,1.62-11.7,16.61-8.05,18.33-10.08.2-.24-3.28-2.31-3.67-4.58,4.32-1.65,22.88-.68,25.66,0Z"/>
          <path class="cls-8" d="m1101.48,713c.3.13-.25,1.57,5.5,3.67l-3.67,3.67c-3.91-.35-7.98.24-11.91,0-4.53-3.18-2.27-8.25-2.75-12.83,7.32,6.37,12.19,5.22,12.83,5.5Z"/>
          <path class="cls-3" d="m1081.32,637.86c-2.07,11.41-33.84,11.19-41.24,9.16-1.71-.47-4.1-5.27-6.41-7.33,15.48-4.34,31.99-.49,47.65-1.83Z"/>
          <path class="cls-55" d="m465.54,714.84c.03,3.05-.03,6.11,0,9.16q-13.75.92-27.49,1.83c-.35-.63-7.72-9.32-9.16-11,12.16.53,24.52-.73,36.65,0Z"/>
          <path class="cls-22" d="m379.41,687.35c4.7.53,7.87-1.38,12.83,7.33-14.93,1.4-23.93,12.87-29.32,25.66-6.03,4.52-8.71,0-9.16,0-.63-11.42.03-21.65,1.83-32.99,7.7.61,16.28-.85,23.82,0Z"/>
        </g>
        <g>
          <path class="cls-45" d="m421.56,854.12q-4.58,31.16-9.16,62.31c-5.99-.04-8.91,6.58-18.33-3.67,6.56-5.05-3.4-45.06-3.67-55.9-4.64-2.75-9.65-2.15-14.66-2.75-.13-1.48.23-3.3,0-3.67,14.7.92,30.33-1.25,44.9,0,1.52.13.73,3.65.92,3.67Z"/>
          <path class="cls-45" d="m428.89,658.02c.37.33,3.25,8.89,3.67,9.16l-18.33,21.99c-5.8.45-9.63-1.62-12.83,5.5-2.25-.38-6.67-.23-9.16,0-4.96-8.71-8.12-6.8-12.83-7.33-.14-1.19.27-2.77,0-3.67,5.17-5.64-.15-17.42,0-18.33.91-5.6,17.25-27.03,22.91-27.49,4.15-.34,22.32,16.31,26.57,20.16Z"/>
          <g>
            <path class="cls-32" d="m401.4,694.68c1.7.29,18.56,9.74,27.49,20.16,1.44,1.68,8.82,10.37,9.16,11,6.24,11.23,12.05,52.23,20.16,43.98-10.68,26.31,1.4,30.96-16.49,32.99-.7-6.43-3.57-14.34-3.67-21.08-3.4-4.17-8.28,34.34,3.67,32.07.89,10.67.35,20.24,1.83,31.16.4,2.93-.27,6.18,0,9.16-7.27-.4-14.76.6-21.99,0-.19-.02.6-3.53-.92-3.67-14.57-1.25-30.2.92-44.9,0-1.73-2.74-4.98-5.71-5.5-9.16-1.05-7.07.76-17.08,0-24.74q-7.33-1.37-14.66-2.75c.31-23.38-1.25-46.3,1.83-69.64.47-3.58,1.04-7.5,1.83-11,.55-2.42,3.17-11.65,3.67-12.83,5.4-12.78,14.39-24.26,29.32-25.66,2.49-.23,6.92-.38,9.16,0Z"/>
            <path class="cls-2" d="m441.72,802.81c.39,3.59-.3,7.38,0,11-11.94,2.27-7.07-36.24-3.67-32.07.1,6.73,2.97,14.65,3.67,21.08Z"/>
            <path class="cls-2" d="m374.82,778.98c3.84-.59,2.66,2.76,2.75,6.41.65,26.08-14.36,45.16-2.75-6.41Z"/>
          </g>
        </g>
        <g>
          <path class="cls-19" d="m1270.09,617.71c-17.38,2.05-118.7,14.38-124.62,16.49-.19.07-3.01,1.48-3.67,1.83-2.59-3.82-15.16-.96-25.66-1.83-9.4-.78-15.82-4.85-22.91-3.67-2.05,2.48-9.91,7.16-11.91,7.33-15.66,1.34-32.17-2.51-47.65,1.83-10.55-9.43-7.95-21.3-21.99-1.83-3.77-.77-5.61,1.61-9.16,1.83-15.79.98-78.77-7.04-102.63-9.16-9.66-.86-14.83.16-16.49,0-35.57-3.51-71.97-6.94-107.21-12.83-27.61-4.61-148.29-31.17-175.02-38.49,220.12,23.89,441.59,11.81,662.51,14.66q3.21,11.91,6.41,23.82Z"/>
          <path class="cls-9" d="m1310.41,617.71c-10.42,8.78-25.47,3.97-37.57,9.16-21.37-.96-112.3,11.57-118.21,11-2.37-.23-.48-5.23-9.16-3.67,5.92-2.11,107.24-14.45,124.62-16.49,3.55-.42,7.87-1.54,11-1.83,8.85-.82,19.27,1.95,27.49-1.83-.67,4.22,1.69,3.52,1.83,3.67Z"/>
          <path class="cls-37" d="m1114.31,529.74c-174.8,7.6-349.1,33.09-524.15,38.49,1.51-2.41-.04-3.78,6.41-5.5,18.43-4.91,329.09-26.19,380.28-29.32,45.6-2.79,91.88-6.83,137.45-3.67Z"/>
          <path class="cls-43" d="m1308.58,614.04c-8.22,3.78-18.64,1.02-27.49,1.83-31.99-25.29,39.37-36.6,27.49-1.83Z"/>
          <g>
            <path class="cls-27" d="m1328.74,553.56c5.49,4.3,13.19,17.01,21.08,23.82,1.65,1.42,33.23,10.99,28.41,28.41-2.9,10.48-58.15,22.26-67.81,11.91-.14-.15-2.51.56-1.83-3.67,11.88-34.76-59.48-23.46-27.49,1.83-3.13.29-7.45,1.41-11,1.83q-3.21-11.91-6.41-23.82c-220.93-2.85-442.4,9.23-662.51-14.66-4.31-1.18-8.72-1.9-12.83-3.67.74-2.66-.78-3.16,1.83-7.33,175.05-5.4,349.35-30.89,524.15-38.49,11.98-.52,13.92-1.81,14.66-1.83,49.56-1.75,160.58-4.99,199.76,25.66Z"/>
            <path class="cls-63" d="m1282,555.39c.66,0,4.03,2.63.92,4.58-3.49,2.18-4.08-4.58-.92-4.58Z"/>
          </g>
        </g>
        <g>
          <path class="cls-45" d="m1805.23,656.19c-.38,3.28.26,6.77,0,10.08-1.08,1.92-4.69.36-5.5.92-4.28-14.41-1.79-4.5-12.83-3.67-1.46-.66-5.12-5.4-5.5-5.5q1.83-17.41,3.67-34.82c5.74,1.38,24.54-5.09,20.16,32.99Z"/>
          <path class="cls-5" d="m1781.41,658.02c.38.1,4.04,4.84,5.5,5.5-4.23.32-6.89,1.76-11,1.83-33.56.58-68.89-1.2-102.63-1.83-20.02-.38-40.32-3.52-60.48-1.83-.15-.47-4.59-3.11-3.67-9.16,28.66.41,159.67,2.24,172.27,5.5Z"/>
          <g>
            <path class="cls-27" d="m1733.76,617.71c.2.02-1.37,1.36,3.67,1.83,13.2,1.23,27.05,2.69,40.32,1.83-.19,2.23,1.47,1.63,1.83,1.83.82.45,3.77-.41,5.5,0q-1.83,17.41-3.67,34.82c-12.6-3.26-143.62-5.08-172.27-5.5-8-.12-15.86-8.98-23.82,1.83l-60.48,9.16c-1.36-1.67-5.05-3.58-5.5-7.33,50.88-15.05,104.72-19.89,154.86-38.49,20.05-2.93,39.53-1.5,59.56,0Z"/>
            <path class="cls-10" d="m1585.31,654.36c-3.62,4.9-2.95,12.66-5.5,18.33l-47.65,1.83c-.44-.5-2.68-5.27-7.33-11l60.48-9.16Z"/>
          </g>
          <path class="cls-46" d="m1579.81,672.69c-.59,1.3,1.01,4.58-.92,5.5-9.87-2.07-40.29,4.5-45.82,1.83-1.9-.92-.39-4.9-.92-5.5l47.65-1.83Z"/>
        </g>
        <g>
          <path class="cls-7" d="m934.71,703.84c-.34.09.88,4.61-.92,5.5-3.78,1.87-2.45-5.42-2.75-5.5-5.98-30.76,10.61-27.39,3.67,0Z"/>
          <path class="cls-5" d="m910.88,674.52c-1.83-.03-3.68.12-5.5,0,4.05-8.76,3.94-19.59,1.83-29.32,1.19-.3,2.71-1.17,3.67-1.83v31.16Z"/>
          <path class="cls-45" d="m932.88,656.19c.64,5.98-.45,12.3,0,18.33-8.92.83-13.49.16-21.99,0v-31.16c13.26-9.2,20.57-.54,21.99,12.83Z"/>
        </g>
      </g>
    </g>
  </g>
</svg>