<?xml version="1.0" encoding="UTF-8"?>
<svg id="Calque_2" data-name="Calque 2" xmlns="http://www.w3.org/2000/svg" xmlns:xlink="http://www.w3.org/1999/xlink" viewBox="0 0 1863.34 1064.16">
  <defs>
    <style>
      .cls-1 {
        fill: #b2a0a3;
      }

      .cls-1, .cls-2, .cls-3, .cls-4, .cls-5, .cls-6, .cls-7, .cls-8, .cls-9, .cls-10, .cls-11, .cls-12, .cls-13, .cls-14, .cls-15, .cls-16, .cls-17, .cls-18, .cls-19, .cls-20, .cls-21, .cls-22, .cls-23, .cls-24, .cls-25, .cls-26, .cls-27, .cls-28, .cls-29, .cls-30, .cls-31 {
        stroke-width: 0px;
      }

      .cls-2 {
        fill: #b99679;
      }

      .cls-3 {
        fill: #113f4a;
      }

      .cls-4 {
        fill: #4c272f;
      }

      .cls-5 {
        fill: #13161e;
      }

      .cls-6 {
        fill: #6f6972;
      }

      .cls-7 {
        fill: #16232e;
      }

      .cls-8 {
        fill: #e4e3e2;
      }

      .cls-9 {
        fill: #655d60;
      }

      .cls-10 {
        fill: #32323f;
      }

      .cls-11 {
        fill: #a3a6aa;
      }

      .cls-12 {
        fill: #52636d;
      }

      .cls-13 {
        fill: #5d616d;
      }

      .cls-14 {
        fill: #cdc8c5;
      }

      .cls-15 {
        fill: #797882;
      }

      .cls-16 {
        fill: #4c4858;
      }

      .cls-17 {
        fill: #1f5e6a;
      }

      .cls-18 {
        fill: #bad0c2;
      }

      .cls-19 {
        fill: #827176;
      }

      .cls-20 {
        fill: #fcfcf0;
      }

      .cls-21 {
        fill: url(#Dégradé_sans_nom_530);
      }

      .cls-22 {
        fill: url(#Dégradé_sans_nom_529);
      }

      .cls-23 {
        fill: #617665;
      }

      .cls-24 {
        fill: #637079;
      }

      .cls-25 {
        fill: #341618;
      }

      .cls-26 {
        fill: #97979d;
      }

      .cls-27 {
        fill: #681d2d;
      }

      .cls-28 {
        fill: #1d1e2c;
      }

      .cls-29 {
        fill: #bfc4c7;
      }

      .cls-30 {
        fill: #849599;
      }

      .cls-31 {
        fill: #301426;
      }
    </style>
    <linearGradient id="Dégradé_sans_nom_529" data-name="Dégradé sans nom 529" x1="503.27" y1="691.28" x2="612.6" y2="815.58" gradientUnits="userSpaceOnUse">
      <stop offset="0" stop-color="#4d272f"/>
      <stop offset="1" stop-color="#382935"/>
    </linearGradient>
    <linearGradient id="Dégradé_sans_nom_530" data-name="Dégradé sans nom 530" x1="767.51" y1="589.16" x2="451.1" y2="597.62" gradientUnits="userSpaceOnUse">
      <stop offset="0" stop-color="#b8cec2"/>
      <stop offset="1" stop-color="#cdc7c5"/>
    </linearGradient>
  </defs>
  <g id="Calque_1-2" data-name="Calque 1">
    <g>
      <g id="Background">
        <rect class="cls-1" width="1863.34" height="1064.16"/>
        <path class="cls-28" d="m231.21,21.83q282.41,123.7,564.83,247.4h445.68q166.9-123.7,333.8-247.4c95.81,0,191.61,0,287.42,0,.78,18.69-.15,37.66,0,56.39-39.99,10.75-79.57,22-120.06,30.92-3.33.73-3.96-2.34-6.37-1.82-1.5.32-.32,3.32-1.82,3.64-47.16,10.12-133.22,20.66-164.63,32.74,3.19-5.18-19.59-1.82-38.2,0-.45.04-3.43-4.29-8.19-3.64-39.32,20.85-77.99,44.71-118.24,63.67-28.26,13.31-117.42,46.53-127.34,52.75-34.06,21.4,23.54,4.38,33.65,5.46-4.44,1.6-18.46,3.1-20.01,6.37q.91,188.73,1.82,377.46c-24.46-1.16-50.06-1.48-74.58-1.82l1.82-339.26h-125.52l1.82,211.92c-11.33-.21-15.55-1.85-16.37-1.82v-210.1h-114.6c3.98,66.79-5.27,303.13,0,339.26-8.35,1.38,3.42,15.14-16.37,5.46,4.44-16.7-2.73-298.88-.91-345.63l-119.15.91,1.82,337.44c-16.85-.41-35.62.03-52.75,0q.91-176,1.82-351.99c-.27-.64-7.34-2.44-9.1-2.73-1.29-3.17-12.47-8.57-18.19-10.91-50.62-20.73-104.07-34.39-155.53-52.75l-4.55,2.73c-.31,11.2.43,22.47,0,33.65-.33,8.44.07,15.53,0,23.65-1.32,151.26.99,302.59,0,453.86-6.35,3.82-14.31,7.16-20.01,11.82l-2.73-36.38c-28.96,10.27-59.23,17.23-88.23,27.29-4.25-1.87-32.26,6.71-38.2,9.1-3.33-55.71-1.82-111.6-1.82-167.36q67.31-13.19,134.61-26.38c-4.48-89.97.59-180.19-1.82-270.13-.14-5.25-1.64-10.22-1.82-14.55-.77-18.43.57-37.03,0-55.48-14.93-6.25-119.55-54.09-126.43-53.66-2.5.15-3.04,1.01-4.55,2.73-.21,2.69.32,5.52,0,8.19-6.63.34-13.4-.48-20.01,0Q211.2,107.33.19,41.84c.15-6.65-.29-13.37,0-20.01,77.01-1.55,154.02-.11,231.02,0Z"/>
        <path class="cls-18" d="m1862.93,145.53c.71,160.06.15,320.17,0,480.24q-132.79-15.46-265.59-30.92c-.07-126.43.05-252.85,0-379.28,86.59-27.45,177.12-47.15,265.59-70.03Z"/>
        <path class="cls-28" d="m1862.93,625.76c-.07,71.55.15,143.1,0,214.65q-131.88-24.56-263.77-49.12c-.45-65.5-1.78-130.93-1.82-196.46q132.79,15.46,265.59,30.92Z"/>
        <path class="cls-25" d="m.19,21.83C.51,14.58-.04,7.26.19,0h1862.74c.22,7.26-.3,14.58,0,21.83-95.81,0-191.61,0-287.42,0-448.1.02-896.21.66-1344.3,0-77-.11-154.01-1.55-231.02,0Z"/>
        <path class="cls-22" d="m422.21,172.81c-4.87.35-19.64,1.78-21.83,6.37,4.84,195.71-.68,394.55,4.55,588.47,30.09-8.22,37.06-17.37,39.11-18.19,5.94-2.39,33.95-10.97,38.2-9.1-6.85,2.38-38.31,10.74-40.02,15.46-.25,29.4.33,58.82,0,88.23-.19,16.97.28,33.97,0,50.93-.31,19.05,2.5,47,1.82,61.85-.02.46-1.12-2.41-1.82,9.1-1.27,20.85-6.58,40.98-7.28,61.85-8.69-8.02-47.13-36.34-49.12-45.48,1.64-40.02-1.4-80.1-1.82-120.06-.31-29.7.07-59.43,0-89.14-.04-15.45,1.84-31.57,1.82-47.3-.26-161.59.19-323.19,0-484.79C295.02,226.68,69,163.91,2.01,156.44c-.13-.01.45-2.01-1.82-1.82.03-8.49-.04-16.98,0-25.47q192.82,46.84,385.65,93.68v-43.66C257.92,139.7,128.46,102.91.19,63.67c.08-7.27-.16-14.56,0-21.83q211.01,65.49,422.03,130.97Z"/>
        <path class="cls-11" d="m384.01,862.25c.42,39.96,3.46,80.04,1.82,120.06q-51.84,30.92-103.69,61.85c-93.99,0-187.97,0-281.96,0-.36-7.24.17-14.58,0-21.83,20.37-18.08,39.56-36.47,53.66-60.03,9.12,1.13,12.43-1.57,13.64-1.82,1.79-.36,22.97-1.27,36.38-3.64-2.9,4.93-69.36,32.55-67.31,37.29,115.66-42,231.8-87.78,347.44-131.88Z"/>
        <path class="cls-25" d="m282.14,1044.15c52.75,0,105.51,0,158.26,0,3.03,0,6.06,0,9.1,0,31.53,0,63.06,0,94.59,0,55.79,0,111.57-.01,167.36,0,47.3.01,94.59,0,141.89,0,56.39,0,112.78,0,169.17,0,50.93,0,101.87,0,152.8,0,24.26,0,48.51,0,72.76,0,37.59,0,75.19,0,112.78,0-.91,1.98,3.72,0,12.73,0,10.91,0,21.83,0,32.74,0,13.34,0,26.68,0,40.02,0,37.59-.02,75.19,0,112.78,0,97.54.02,195.38-2.03,292.87,1.82,2.99.12,7.7-1.77,10.91-1.82-.31,6.64.22,13.36,0,20.01H.19c-.24-6.65.33-13.37,0-20.01,93.99,0,187.97,0,281.96,0Z"/>
        <path class="cls-15" d="m1862.93,840.42c-.1,46.69.31,93.39,0,140.07q-130.97-65.49-261.95-130.97c-8.4-14.44-1.7-40.71-1.82-58.21q131.88,24.56,263.77,49.12Z"/>
        <path class="cls-1" d="m.19,129.15c.09-21.83-.23-43.66,0-65.49,128.27,39.24,257.74,76.03,385.65,115.51v43.66Q193.01,176,.19,129.15Z"/>
        <path class="cls-25" d="m1862.93,78.22c.03,3.64-.03,7.28,0,10.91q-132.79,41.38-265.59,82.77v30.92c88.35-18.53,176.86-44.47,265.59-64.58,0,2.43-.01,4.85,0,7.28-88.47,22.88-178.99,42.58-265.59,70.03.05,126.43-.07,252.85,0,379.28.04,65.53,1.37,130.96,1.82,196.46.12,17.5-6.58,43.77,1.82,58.21.23.4-.13,2.19,0,3.64l-7.28-3.64c-3.09-3.62-8.79-4.76-12.73-7.28,5.81-225.26-4.96-450.51-3.64-675.79q82.77-28.65,165.54-57.3c40.49-8.93,80.06-20.17,120.06-30.92Z"/>
        <path class="cls-1" d="m1862.93,89.14c.14,16.37-.06,32.75,0,49.12-88.73,20.11-177.24,46.05-265.59,64.58v-30.92q132.79-41.38,265.59-82.77Z"/>
        <path class="cls-16" d="m1862.93,980.49c-.14,21.12.99,42.61,0,63.67-3.21.05-7.92,1.94-10.91,1.82-33.87-31.64-72.12-57.88-109.14-85.5-33.04-24.65-66.43-48.91-100.05-72.76-3.79-2.69-25.01-23.1-41.84-34.56-.13-1.45.23-3.24,0-3.64q130.97,65.49,261.95,130.97Z"/>
        <path class="cls-13" d="m43.84,942.29l23.65,18.19c-1.21.24-4.52,2.95-13.64,1.82-14.1,23.56-33.29,41.95-53.66,60.03-.21-9.08.09-18.2,0-27.29,32.31-22.15,19.37-24.48,16.37-47.3l23.65-16.37h1.82c.14.54,2.84-.99,1.82,10.91Z"/>
        <path class="cls-23" d="m2.01,156.44v296.51H.19c.09-99.44-.4-198.89,0-298.33,2.27-.2,1.69,1.8,1.82,1.82Z"/>
        <path class="cls-1" d="m1575.51,21.83q-166.9,123.7-333.8,247.4h-445.68Q513.62,145.53,231.21,21.83c448.1.66,896.2.02,1344.3,0Z"/>
        <path class="cls-18" d="m1531.85,200.1c4.71,188.34-5.49,377.5-1.82,565.73q-79.58-31.83-159.17-63.67-1.36-24.1-2.73-48.21l-3.64-2.73c-23.23-3.81-46.75-.61-70.03-1.82-1.5-.08-.72-3.63-.91-3.64q-.91-188.73-1.82-377.46c1.55-3.27,15.57-4.76,20.01-6.37,55.33-19.99,156.35-38.97,220.11-61.85Z"/>
        <path class="cls-21" d="m771.48,287.42c1.75.29,8.82,2.09,9.1,2.73q-.91,176-1.82,351.99c-54.97-.09-110.54,2.34-165.54,3.64.57,61.23-.77,122.5,0,183.73-9.31,6.97-23.5,72.45-28.2,74.58q-71.4-4.55-142.8-9.1c.28-16.97-.19-33.96,0-50.93,45.92-27.93,89.38-60.55,130.97-94.59,5.7-4.67,13.66-8,20.01-11.82.99-151.27-1.32-302.6,0-453.86,35.03,1.79,164.2,1.34,178.27,3.64Z"/>
        <path class="cls-18" d="m575.02,285.6c2.41,89.95-2.66,180.17,1.82,270.13q-67.31,13.19-134.61,26.38c0-108.24,0-216.47,0-324.71,2.12-2.93,3.23-2.67,6.37-2.73,6.51-.13,106.03,30.06,126.43,30.92Z"/>
        <path class="cls-4" d="m1742.87,109.14q-82.77,28.65-165.54,57.3c-1.32,225.28,9.45,450.53,3.64,675.79-12.71-8.12-28.81-18.19-41.84-25.47-8.88-7.07-8.75-33.04-9.1-50.93-3.67-188.23,6.53-377.4,1.82-565.73.01-3.03-.02-6.06,0-9.1.03-6.67-.06-13.34,0-20.01,0-.89,1.82-8.52,1.82-9.1,13.04-4.02,23.78-13.34,36.38-18.19,31.4-12.09,117.47-22.62,164.63-32.74,1.5-.32.32-3.31,1.82-3.64,2.41-.52,3.03,2.55,6.37,1.82Z"/>
        <path class="cls-18" d="m1080.72,514.8c-90.46,3.86-18.46,45.35-53.66,138.25-5.12.28-10.36-.39-15.46,0-14.69,1.13-29.83-.83-44.57,0-1.88-1.33-.56-6.72-.91-9.1-5.27-36.13,3.98-272.47,0-339.26h114.6v210.1Z"/>
        <path class="cls-18" d="m949.75,649.41c-.32,1.19.78,3.03-2.73,5.46-2.09.18-4.31-.28-6.37,0-12.77,1.72-19.01-1.86-20.01-1.82-24.41-65.2,16.37-166.93-43.66-156.44-32.97,5.76-24.66,59.13-25.47,68.22-.37,4.2-12.91,37,0,80.95-5.18-.03-17.38-3.57-20.01-3.64l-1.82-337.44,119.15-.91c-1.82,46.74,5.35,328.92.91,345.63Z"/>
        <path class="cls-18" d="m1218.97,643.96c-4.94-.07-12.59,2.02-20.01,1.82q5.46-42.29,10.91-84.59-22.74-1.36-45.48-2.73c.73-52.16-26.83-41.07-67.31-41.84l-1.82-211.92h125.52l-1.82,339.26Z"/>
        <path class="cls-25" d="m422.21,172.81c6.61-.48,13.38.34,20.01,0-.92,7.68-1.23,56.43,2.73,60.03l128.25,38.2c.18,4.33,1.68,9.3,1.82,14.55-20.4-.86-119.92-31.05-126.43-30.92-3.14.06-4.25-.21-6.37,2.73,0,108.24,0,216.47,0,324.71,0,55.76-1.51,111.65,1.82,167.36-2.05.82-9.02,9.97-39.11,18.19-5.22-193.92.29-392.76-4.55-588.47,2.19-4.59,16.96-6.01,21.83-6.37Z"/>
        <path class="cls-11" d="m573.2,749.46c-41.59,34.04-85.06,66.66-130.97,94.59.33-29.4-.25-58.82,0-88.23,1.71-4.72,33.17-13.09,40.02-15.46,28.99-10.05,59.27-17.01,88.23-27.29l2.73,36.38Z"/>
        <path class="cls-1" d="m573.2,271.04l-128.25-38.2c-3.96-3.6-3.65-52.35-2.73-60.03.32-2.66-.21-5.5,0-8.19,1.51-1.72,2.05-2.58,4.55-2.73,6.88-.42,111.5,47.41,126.43,53.66.57,18.45-.77,37.05,0,55.48Z"/>
        <path class="cls-4" d="m1531.85,143.71c-.59,5.71,1.82,16.46,1.82,18.19,0,.58-1.81,8.2-1.82,9.1q-81.86,35.02-163.72,70.03c55.59-12.38,109.86-31.38,163.72-50.02-.02,3.03.01,6.06,0,9.1-63.76,22.88-164.78,41.86-220.11,61.85-10.11-1.08-67.71,15.94-33.65-5.46,9.91-6.23,99.08-39.44,127.34-52.75,40.25-18.96,78.92-42.82,118.24-63.67,4.76-.66,7.74,3.68,8.19,3.64Z"/>
        <path class="cls-1" d="m753.29,276.5c-20.26,1.03-150.21-3.94-157.35-7.28-3.49-1.63-2.82-5.97-2.73-9.1.43-11.19-.31-22.46,0-33.65l4.55-2.73c51.46,18.36,104.91,32.02,155.53,52.75Z"/>
        <path class="cls-4" d="m753.29,276.5c5.72,2.34,16.9,7.75,18.19,10.91-14.07-2.3-143.24-1.85-178.27-3.64.07-8.12-.33-15.21,0-23.65-.09,3.12-.76,7.47,2.73,9.1,7.14,3.33,137.09,8.31,157.35,7.28Z"/>
        <path class="cls-25" d="m1570.05,143.71c-12.61,4.85-23.35,14.17-36.38,18.19,0-1.73-2.41-12.48-1.82-18.19,18.61-1.82,41.39-5.18,38.2,0Z"/>
        <path class="cls-18" d="m385.83,725.81q-146.44,32.74-292.87,65.49c.05-1.32-2.61-9.06-1.82-26.38,3.44-75.47,21.05-42.39,27.29-52.75,3.85-6.4-1.84-141.93,3.64-149.16,1.42-1.87,5.03-.44,5.46-.91.29-.32,4.36.5,7.28-4.55.77-1.34,6.41-25.84,7.28-30.01,1.67-8.04,5.98-17.45,5.46-24.56-2.07-28.29-27.84-50.52-56.39-48.21v-1.82c8.22-2.95,10.68-13.32,14.55-21.83,8.16-17.92,10.81-21.68,7.28-43.66,12.62-8.08,2.86-23.58-23.65-21.83-10.71.71-13.84,2.63-21.83,9.1-24.72,20.01-8.39,42.72-21.83,65.49-1.81-1.02-4.23-7.56-10.91,5.46l-3.64-1.82-29.11,9.1V156.44c67,7.47,293.02,70.24,383.83,84.59.19,161.59-.26,323.19,0,484.79Z"/>
        <path class="cls-14" d="m384.01,862.25c-115.64,44.1-231.79,89.88-347.44,131.88-2.06-4.74,64.4-32.37,67.31-37.29,25.03-4.43-17.96-1.78-25.47-16.37,24.24-.14,48.55.86,72.76-.91-5.31-21.25-33.05-12.42-60.03-24.56-2.71-22.02-2.63-45.2-1.82-67.31q147.35-37.29,294.69-74.58c.07,29.71-.31,59.43,0,89.14Z"/>
        <path class="cls-28" d="m385.83,725.81c.02,15.72-1.86,31.84-1.82,47.3q-147.35,37.29-294.69,74.58c.08-2.18,3.62-3.78,3.64-4.55.45-17.25-.68-34.62,0-51.84q146.44-32.74,292.87-65.49Z"/>
        <path class="cls-11" d="m618.67,925.91c6.05,12.71,43.24,58.75,54.57,72.76-75.6-18.01-152.27-31.09-229.2-41.84.68-14.85-2.13-42.8-1.82-61.85q71.4,4.55,142.8,9.1c4.69-2.13,18.88-67.61,28.2-74.58.38,30.01-.28,60.04,0,90.04,1.18,3.59,5.28,5.99,5.46,6.37Z"/>
        <path class="cls-15" d="m673.25,998.68c9.46,11.7,21.24,22.99,30.92,34.56,2.76,3.3,4.65,7.47,7.28,10.91-55.79-.01-111.57,0-167.36,0q-50.93-39.11-101.87-78.22c.7-11.51,1.8-8.63,1.82-9.1,76.93,10.75,153.61,23.83,229.2,41.84Z"/>
        <path class="cls-15" d="m385.83,982.3c1.98,9.14,40.43,37.46,49.12,45.48,1.88,1.73,3.59,5.52,5.46,7.28v9.1c-52.75,0-105.51,0-158.26,0q51.84-30.92,103.69-61.85Z"/>
        <path class="cls-16" d="m544.09,1044.15c-31.53,0-63.06,0-94.59,0-1.76-4.23-6.02-6.2-9.1-9.1-1.87-1.76-3.58-5.54-5.46-7.28.7-20.87,6.01-41,7.28-61.85q50.93,39.11,101.87,78.22Z"/>
        <path class="cls-10" d="m78.41,940.47c7.51,14.6,50.49,11.94,25.47,16.37-13.41,2.37-34.59,3.28-36.38,3.64l-23.65-18.19c8.81-2.65,28.76-4.11,30.01,1.82,1.5-3.16.43-3.61,4.55-3.64Z"/>
        <path class="cls-11" d="m1535.49,814.95c-3.2,8.41-1.77,19.79-1.82,29.11-.15,29.69-.36,59.45,0,89.14.07,6.06-.11,12.13,0,18.19.4,22.12-.29,44.27,0,66.4,5.35,4.28,21.77,23.55,25.47,24.56v1.82c-37.59,0-75.19-.02-112.78,0,6.27-11.03-40.15-23.8-42.75-23.65-7.31.42,12.24,5.46-.91,18.19-6.53-7.94-13.72-15.5-20.01-23.65-.47-.61-1.33-2.94-1.82-3.64,16.34-37.03-.11-32.64-16.37-68.22,2.49-4.74,25.66-28.93,25.47-30.92-.25-2.53-18.31-9.13-21.83-10q.45-85.5.91-170.99c54.1,30.65,112.04,53.66,166.45,83.68Z"/>
        <path class="cls-15" d="m884.26,894.99c26.52,17.01,224.07,138.49,237.39,132.79,1.22-.52,9.95-20.44,11.82-23.65,15.6,11.51,28.92,25.68,41.84,40.02-50.93,0-101.87,0-152.8,0q-22.28-14.55-44.57-29.11c30.64,5.38,61.86,7.38,92.77,9.1v-3.64c-115.15-11.83-153.96-32.02-246.49-98.23.14-4.24-.14-8.5,0-12.73.57-17.64,1.09-35.11,1.82-52.75,18.62,13.98,38.66,25.66,58.21,38.2Z"/>
        <path class="cls-15" d="m1852.01,1045.97c-97.5-3.85-195.33-1.8-292.87-1.82v-1.82c7.87,2.14,19.49.38,23.65-3.64.34-.33,2.7.82,3.64-.91,1.81-16.12,5.94-27.56,5.46-44.57,7.32,2.73,8.2-18.27,16.37-30.92,44.26,3.02,90.26-.74,134.61-1.82,37.03,27.62,75.27,53.86,109.14,85.5Z"/>
        <path class="cls-16" d="m1022.51,1044.15c-56.39,0-112.78,0-169.17,0q-15.46-11.82-30.92-23.65c-2.3-32.73.73-65.55,1.82-98.23,92.53,66.21,131.33,86.4,246.49,98.23v3.64c-30.91-1.72-62.13-3.71-92.77-9.1q22.28,14.55,44.57,29.11Z"/>
        <path class="cls-16" d="m1128.02,936.83c.78,18.52,1.97,36.92,1.82,55.48q24.56,17.74,49.12,35.47c6.64,7.12,20.09-13.5,31.83-7.28,36.04-35.34,87.18-55.04,126.43-87.32,3.12,4.45,15.75-.29,18.19,2.73,1,1.23-9.94,12.17-12.73,15.46-5.53,6.52-30.98,36.4-32.74,38.2-18.77,19.17-43.34,34.82-61.85,54.57-24.26,0-48.51,0-72.76,0-12.92-14.34-26.24-28.51-41.84-40.02-36.12-26.65-65.37-24.88-103.69-44.57l55.48-10c.64-1.84-4.5-2.79-6.37-3.64,25.69-15.11,14.69-9.08,14.55-20.01l34.56,10.91Z"/>
        <path class="cls-10" d="m762.38,1024.14c1.37.73,3.88,4.54,10.91,7.28,25.28,9.82,47.93-1.82,49.12-10.91q15.46,11.82,30.92,23.65c-47.3,0-94.59.01-141.89,0-2.63-3.44-4.51-7.61-7.28-10.91,3.01-11.78-21.35-38.04-25.47-61.85,25.95,18.89,55.35,37.59,83.68,52.75Z"/>
        <path class="cls-16" d="m1380.87,1011.41c.49.69,1.35,3.02,1.82,3.64l-9.1,29.11c-9.02,0-13.64,1.98-12.73,0q-25.47-27.29-50.93-54.57c1.76-1.8,27.22-31.68,32.74-38.2,7.16,11.88,25.42,19.82,18.19,35.47,6.69,7.91,14.05,16.13,20.01,24.56Z"/>
        <path class="cls-15" d="m1309.93,989.58q25.47,27.29,50.93,54.57c-37.59,0-75.19,0-112.78,0,18.5-19.75,43.08-35.4,61.85-54.57Z"/>
        <path class="cls-26" d="m1446.36,1044.15c-13.34,0-26.68,0-40.02,0-.91-1.83-2.37-3.92-3.64-5.46,13.15-12.73-6.41-17.77.91-18.19,2.6-.15,49.02,12.61,42.75,23.65Z"/>
        <path class="cls-15" d="m1402.7,1038.7c1.27,1.54,2.73,3.63,3.64,5.46-10.91,0-21.83,0-32.74,0l9.1-29.11c6.29,8.15,13.48,15.71,20.01,23.65Z"/>
        <path class="cls-14" d="m449.5,1044.15c-3.03,0-6.06,0-9.1,0v-9.1c3.07,2.89,7.34,4.87,9.1,9.1Z"/>
        <path class="cls-11" d="m1600.98,853.15c16.83,11.46,38.05,31.87,41.84,34.56-7.24,10.74-20.11,21.66-27.29,30.92-7.77.26-15.96.9-23.65,1.82.05-11.52-.07-23.04,0-34.56.07-11.67-1.55-25.23,1.82-36.38l7.28,3.64Z"/>
        <path class="cls-15" d="m1539.13,816.77c13.02,7.27,29.13,17.35,41.84,25.47,3.94,2.52,9.64,3.66,12.73,7.28-3.36,11.15-1.75,24.71-1.82,36.38-20.57-6.46-15.38-36.59-58.21-41.84.05-9.32-1.39-20.7,1.82-29.11,1.13.62,2.52,1.19,3.64,1.82Z"/>
        <path class="cls-30" d="m1742.87,960.48c-44.35,1.07-90.35,4.84-134.61,1.82-18.85-1.29-28.14,2.06,7.28-43.66,7.18-9.26,20.05-20.19,27.29-30.92,33.62,23.86,67.01,48.12,100.05,72.76Z"/>
        <path class="cls-19" d="m796.03,147.35c5.39-2.08,19.21,2.13,17.28,6.37-8.82-5-31.21-.98-17.28-6.37Z"/>
        <path class="cls-9" d="m1132.57,152.8c.2-.02,3.68,2.66,1.82,3.64-4.68,2.48-5.25-3.24-1.82-3.64Z"/>
        <path class="cls-1" d="m1531.85,170.99c-.06,6.67.03,13.34,0,20.01-53.85,18.64-108.13,37.65-163.72,50.02q81.86-35.02,163.72-70.03Z"/>
        <path class="cls-16" d="m678.7,971.39c4.12,23.81,28.47,50.07,25.47,61.85-9.69-11.57-21.46-22.86-30.92-34.56-11.33-14.01-48.52-60.06-54.57-72.76,23.52,10.13,40.01,30.91,60.03,45.48Z"/>
        <path class="cls-6" d="m1591.88,885.89c-.07,11.52.05,23.04,0,34.56-19.91,2.37-39.04,7.12-58.21,12.73-.36-29.68-.15-59.45,0-89.14,42.83,5.25,37.64,35.37,58.21,41.84Z"/>
        <path class="cls-12" d="m1591.88,920.46q-24.56,8.64-49.12,17.28,24.56,18.19,49.12,36.38c.13,6.36-.18,12.74,0,19.1.48,17-3.65,28.45-5.46,44.57-.93,1.73-3.3.58-3.64.91-12.88-30.54-27.59-61.82-49.12-87.32-.11-6.06.07-12.13,0-18.19,19.17-5.62,38.3-10.37,58.21-12.73Z"/>
        <path class="cls-13" d="m1380.87,1011.41c-5.96-8.43-13.32-16.64-20.01-24.56,7.23-15.66-11.03-23.59-18.19-35.47,2.79-3.29,13.73-14.23,12.73-15.46-2.44-3.02-15.07,1.72-18.19-2.73,4.11-3.38,30.52-28.35,30.92-30.92,3.52.87,21.58,7.48,21.83,10,.2,1.99-22.98,26.19-25.47,30.92,16.26,35.57,32.71,31.18,16.37,68.22Z"/>
        <path class="cls-24" d="m1582.79,1038.7c-4.16,4.02-15.78,5.78-23.65,3.64-3.7-1-20.12-20.28-25.47-24.56-.29-22.12.4-44.28,0-66.4,21.52,25.49,36.23,56.78,49.12,87.32Z"/>
        <path class="cls-14" d="m929.74,898.63c-2.23-.47-36.17-3.04-45.48-3.64-19.55-12.54-39.59-24.22-58.21-38.2.3-7.12-1.2-51.17.91-52.75,26.65,2.84,53.33,8.77,80.04,10.91,19.23,1.54,136.1,1.35,141.89,5.46,1.5,1.06,1.5,24.4,0,25.47-3.64,2.58-77.46-5.1-89.14-1.82-10.88,18.95-36.81,31.82-30.01,54.57Z"/>
        <path class="cls-11" d="m929.74,898.63c3.71.79,8.28,1.19,10.91,1.82,1.63.39,16.99,9.48,30.92,12.73-5.98,16.04-6.19,33.63,15.46,30.92,10.57-1.32,33.95-35.32,50.02-40.02,11.03-3.23,12.76.74,21.83,5.46-6.57,20.72,3.08,20.74,3.64,21.83.34.67-1.29,6.24,8.19,12.73.35.24,5.35.53,8.19,1.82,1.87.85,7.01,1.79,6.37,3.64l-55.48,10c38.31,19.69,67.57,17.91,103.69,44.57-1.87,3.21-10.61,23.13-11.82,23.65-13.32,5.69-210.87-115.78-237.39-132.79,9.31.6,43.25,3.17,45.48,3.64Z"/>
        <path class="cls-24" d="m1615.53,918.64c-35.42,45.71-26.13,42.37-7.28,43.66-8.17,12.66-9.05,33.66-16.37,30.92-.18-6.36.13-12.74,0-19.1q-24.56-18.19-49.12-36.38,24.56-8.64,49.12-17.28c7.69-.91,15.88-1.56,23.65-1.82Z"/>
        <path class="cls-11" d="m1095.27,882.26c9.98,2.25,27.14,8.39,32.74,16.37.39,12.7-.53,25.51,0,38.2l-34.56-10.91c-.58-47.04-24.77-49.65,1.82-43.66Z"/>
        <path class="cls-14" d="m1108.92,816.77c2.96.02,16.05-.83,17.28.91q-.45,17.74-.91,35.47c-34.8-3.3-71.76,1.62-56.39-32.74,13.16,1.26,27.12-3.73,40.02-3.64Z"/>
        <path class="cls-14" d="m980.67,900.45c-7.11-1.99-22.64-1.99-21.83-9.1l.91-30.92q29.11,4.55,58.21,9.1v3.64c-13.6,5.93-27.97,15.64-37.29,27.29Z"/>
        <path class="cls-16" d="m980.67,900.45c-2.51,3.14-8.06,9.95-9.1,12.73-13.93-3.26-29.3-12.34-30.92-12.73,7.41-4.93,15.36-.53,18.19-9.1-.82,7.1,14.71,7.1,21.83,9.1Z"/>
        <path class="cls-14" d="m1069.81,915c-1.45,7.03-4.38,10.19-7.28,16.37-.56-1.09-10.21-1.11-3.64-21.83,3.53,1.83,7.52,3.26,10.91,5.46Z"/>
      </g>
      <g>
        <g>
          <path class="cls-28" d="m16.56,947.74c3,22.81,15.94,25.14-16.37,47.3-.06-6.67.05-13.34,0-20.01,19.97-3.16,16.29-5.39,0-16.37-.46-78.21.1-156.45,0-234.66,1.97-.58,5.01,1.19,5.46,2.73,4.37,14.97,2.78,159.2,10.91,221.02Z"/>
          <path class="cls-16" d="m.19,975.03c-.04-5.46.03-10.91,0-16.37,16.29,10.98,19.97,13.21,0,16.37Z"/>
        </g>
        <g>
          <path class="cls-27" d="m1097.09,516.62c40.48.76,68.03-10.32,67.31,41.84-.04,2.7-2.61,1.19-3.64,2.73-.94,18.06,1.28,36.56,0,54.57-.21,2.96-4.8,8.91-5.46,20.92-5.63-.09-5.21,22.84-6.37,27.29h-30.01c4.44-11.25-22.67-10.42-24.56-9.1-2.37,1.67.55,9.24-1.82,10.91-3.2,2.25-74.64,1.58-78.22,0-4.23-1.86-2.42-9.04-2.73-12.73,5.1-.39,10.35.28,15.46,0,35.21-92.9-36.79-134.39,53.66-138.25.82-.04,5.04,1.61,16.37,1.82Z"/>
          <path class="cls-25" d="m966.12,643.96c.35,2.38-.97,7.77.91,9.1,14.74-.83,29.88,1.13,44.57,0,.31,3.69-1.5,10.87,2.73,12.73,3.58,1.58,75.02,2.25,78.22,0,2.37-1.67-.55-9.24,1.82-10.91,1.89-1.33,28.99-2.15,24.56,9.1-4.46.16-27.91,20.46-29.11,21.83-55.11-2.43-111.21-2.46-165.54-10q8.19-10.46,16.37-20.92c2.06-.28,4.28.18,6.37,0,3.5-2.42,2.41-4.27,2.73-5.46,19.8,9.68,8.02-4.07,16.37-5.46Z"/>
        </g>
        <g>
          <path class="cls-8" d="m708.72,43.66c22.36-5.53,34.95,27.89,5.46,10.91-6.2,14.03-22.74-6.64-5.46-10.91Z"/>
          <path class="cls-8" d="m1130.75,45.48c16.51-5.26,27.42,11.69,12.73,16.37-16.51,5.26-27.42-11.69-12.73-16.37Z"/>
        </g>
        <g>
          <path class="cls-4" d="m920.64,653.05c-5.84.25-11.9,1.74-18.19,1.82-3.91-4.54-21.44.4-23.65-2.73-4.5-6.36,5.71-121.22-1.82-155.53,60.03-10.49,19.24,91.24,43.66,156.44Z"/>
          <path class="cls-28" d="m902.45,654.87c-15.55.19-30.82,2.47-46.39,1.82-6.5-4.44-3.77-8.26-4.55-10.91-12.91-43.95-.37-76.75,0-80.95.81-9.09-7.51-62.45,25.47-68.22,7.52,34.31-2.68,149.17,1.82,155.53,2.21,3.13,19.74-1.81,23.65,2.73Z"/>
        </g>
        <path class="cls-5" d="m1198.96,645.77c-5.86-.16-37.51,1.13-39.11,0-2.96-2.09,2.47-8.98-4.55-9.1.65-12.01,5.25-17.96,5.46-20.92,1.28-18.01-.94-36.51,0-54.57,1.03-1.54,3.6-.03,3.64-2.73q22.74,1.36,45.48,2.73-5.46,42.29-10.91,84.59Z"/>
        <path class="cls-5" d="m1089.82,685.79c1.19-1.37,24.64-21.67,29.11-21.83h30.01c1.15-4.44.74-27.38,6.37-27.29-.21,3.81-.64,26.18.91,27.29q17.74,1.36,35.47,2.73c-23.02,47.97-63.28,32.39-107.33,29.11-.83-1.08,4.27-8.63,5.46-10Z"/>
        <g>
          <path class="cls-28" d="m91.14,915c26.98,12.14,54.72,3.3,60.03,24.56-24.22,1.77-48.52.76-72.76.91-4.12.02-3.05.47-4.55,3.64-1.26-5.92-21.21-4.47-30.01-1.82,1.02-11.91-1.68-10.38-1.82-10.91-9.07-35.08,2.78-68.28-9.1-65.49-.3-18.32-3.54-37.01-1.82-55.48,2.09-2.86,3.62-2.5,3.64-2.73,6.75-.16,6.75-5.3,0-5.46,7.53-50.2,15.86-100.08,16.37-150.98.99.03,8.73-3.25,10.91-3.64q7.28,70.49,14.55,140.98v116.42l2.73,6.37c3.84.52,8.36,2.08,11.82,3.64Z"/>
          <path class="cls-29" d="m42.02,931.37h-1.82c-15.17-11.92-6.73-32.05-7.28-65.49,11.87-2.79.02,30.41,9.1,65.49Z"/>
          <path class="cls-20" d="m34.75,807.67c.16-1.83-3-1.58,0-5.46,6.75.16,6.75,5.3,0,5.46Z"/>
          <path class="cls-5" d="m105.69,431.12c-3.87,8.51-6.33,18.88-14.55,21.83-1.97.71-20.32-7.75-16.37,21.83l-5.46-5.46c-1.46-9.12-14.8-24.13-23.65-29.11,13.44-22.77-2.89-45.48,21.83-65.49-5.87,54.96,2.34,16.62,22.74,29.11,14.11,8.64,9.51,29.32,15.46,27.29Z"/>
          <path class="cls-4" d="m89.32,365.64c-2.38,18.59,6.9,24.07,23.65,21.83,3.53,21.98.88,25.74-7.28,43.66-5.95,2.03-1.35-18.65-15.46-27.29-20.4-12.49-28.61,25.85-22.74-29.11,7.99-6.47,11.12-8.39,21.83-9.1Z"/>
          <path class="cls-4" d="m153.9,452.95c22.62-2.86,2.17,39-3.64,47.3-8.3-10.06-14.16-45.05,3.64-47.3Z"/>
          <path class="cls-28" d="m112.97,387.46c-16.75,2.24-26.03-3.24-23.65-21.83,26.51-1.75,36.26,13.75,23.65,21.83Z"/>
          <g>
            <path class="cls-14" d="m45.66,440.22c8.84,4.97,22.19,19.98,23.65,29.11,3.76,23.5.78,131.47-1.82,166.45,17.93,16.91,22.07-38.87,23.65-53.66.49,12.4,5.4,24.31,7.28,36.38.76,4.87,4.38,18.16,2.73,20.01-12.86,3.85-25.89,6.74-39.11,9.1-2.19.39-9.93,3.67-10.91,3.64-3-.08-6,.67-7.28-.91,6.49-70.4,14.07-136.2-9.1-204.65,6.68-13.02,9.1-6.48,10.91-5.46Z"/>
            <path class="cls-8" d="m91.14,452.95v1.82c-6.17,9.07,1.39,40.14,1.82,67.31.03,1.82-.02,3.64,0,5.46-2.69-16.25-17.44-47.09-18.19-52.75-3.95-29.58,14.4-21.12,16.37-21.83Z"/>
            <path class="cls-27" d="m74.77,474.78c.76,5.66,15.51,36.5,18.19,52.75.17,18.61.17,35.96-1.82,54.57-1.58,14.79-5.72,70.57-23.65,53.66,2.6-34.97,5.58-142.95,1.82-166.45l5.46,5.46Z"/>
          </g>
          <g>
            <path class="cls-3" d="m34.75,445.68c23.17,68.45,15.59,134.24,9.1,204.65,1.28,1.58,4.28.83,7.28.91-.51,50.9-8.85,100.78-16.37,150.98-3,3.88.16,3.62,0,5.46-.02.23-1.54-.13-3.64,2.73-1.73,18.47,1.52,37.17,1.82,55.48.54,33.44-7.89,53.57,7.28,65.49l-23.65,16.37c-8.13-61.82-6.55-206.05-10.91-221.02-.45-1.54-3.49-3.31-5.46-2.73-.1-78.83-.06-157.65,0-236.48,13.66-21.18,24.87,28.93,47.3,42.75.45-29.92-8.63-57.93-16.37-86.41l3.64,1.82Z"/>
            <path class="cls-3" d="m31.11,443.86c7.75,28.48,16.82,56.49,16.37,86.41-22.43-13.82-33.63-63.93-47.3-42.75,0-11.52-.01-23.04,0-34.56h1.82l29.11-9.1Z"/>
            <path class="cls-3" d="m127.52,562.1c-.43.47-4.04-.97-5.46.91-5.48,7.23.21,142.77-3.64,149.16-6.23,10.37-23.84-22.72-27.29,52.75-.79,17.31,1.87,25.06,1.82,26.38-.68,17.23.45,34.6,0,51.84-.02.77-3.56,2.36-3.64,4.55-.81,22.11-.89,45.29,1.82,67.31-3.46-1.56-7.99-3.12-11.82-3.64l-2.73-6.37v-116.42q-7.28-70.49-14.55-140.98c13.22-2.35,26.25-5.25,39.11-9.1,1.65-1.84-1.97-15.14-2.73-20.01,4.96-21.12,1.7-57.7,1.82-85.5,4.94.62,13.56,32.95,17.28,32.74.66-.04,2.74-10.06,10-3.64Z"/>
            <path class="cls-3" d="m142.07,527.53l.91-18.19c-30.88,1.65-43.25-6.4-44.57,12.73h-5.46c-.43-27.17-7.99-58.23-1.82-67.31,28.55-2.31,54.33,19.92,56.39,48.21.52,7.11-3.78,16.52-5.46,24.56Z"/>
            <path class="cls-17" d="m142.07,527.53c-.87,4.17-6.5,28.68-7.28,30.01-2.92,5.05-6.99,4.23-7.28,4.55-7.27-6.43-9.35,3.6-10,3.64-3.72.21-12.34-32.12-17.28-32.74.01-2.86-2.25-4.61-1.82-10.91,1.32-19.13,13.69-11.08,44.57-12.73l-.91,18.19Z"/>
            <path class="cls-7" d="m98.42,522.08c-.43,6.31,1.83,8.06,1.82,10.91-.12,27.8,3.14,64.38-1.82,85.5-1.87-12.07-6.79-23.98-7.28-36.38,1.99-18.61,1.99-35.96,1.82-54.57-.02-1.82.03-3.64,0-5.46h5.46Z"/>
          </g>
        </g>
        <g>
          <path class="cls-2" d="m1198.96,645.77c7.42.2,15.07-1.89,20.01-1.82,24.53.33,50.12.66,74.58,1.82.19,0-.59,3.56.91,3.64,23.29,1.2,46.8-1.99,70.03,1.82-39.35,11.6-153.66,48.63-180.09,52.75-2.01.31-3.13-4.07-6.37-3.64-90.94,12.23-249.02,9.1-342.9,1.82-23.66-1.83-47.64-1.97-70.94-7.28q-75.49-24.56-150.98-49.12c55-1.3,110.56-3.72,165.54-3.64,17.14.03,35.9-.41,52.75,0,2.63.06,14.83,3.61,20.01,3.64.78,2.65-1.95,6.48,4.55,10.91,15.57.65,30.84-1.63,46.39-1.82,6.29-.08,12.35-1.57,18.19-1.82,1-.04,7.24,3.54,20.01,1.82q-8.19,10.46-16.37,20.92c54.32,7.55,110.43,7.58,165.54,10-1.19,1.37-6.28,8.93-5.46,10,44.04,3.28,84.31,18.87,107.33-29.11q-17.74-1.36-35.47-2.73c-1.55-1.1-1.12-23.47-.91-27.29,7.01.12,1.59,7,4.55,9.1,1.6,1.13,33.25-.16,39.11,0Z"/>
          <path class="cls-28" d="m1530.03,765.83c.35,17.89.22,43.86,9.1,50.93-1.12-.63-2.51-1.2-3.64-1.82-54.4-30.02-112.35-53.03-166.45-83.68q-.45,85.5-.91,170.99c-.4,2.58-26.82,27.55-30.92,30.92-39.25,32.28-90.39,51.97-126.43,87.32-11.74-6.22-25.19,14.39-31.83,7.28,4.26-105.91-.25-213.48,3.64-320.16.19-.08,1.61-2.88,1.82-3.64,26.43-4.12,140.74-41.15,180.09-52.75l3.64,2.73q1.36,24.1,2.73,48.21,79.58,31.83,159.17,63.67Z"/>
          <path class="cls-28" d="m764.2,694.89l-1.82,329.25c-28.33-15.16-57.72-33.87-83.68-52.75-20.02-14.57-36.51-35.35-60.03-45.48-.18-.38-4.28-2.78-5.46-6.37-.28-30.01.38-60.04,0-90.04-.77-61.22.57-122.5,0-183.73q75.49,24.56,150.98,49.12Z"/>
          <path class="cls-31" d="m1184.41,703.99c-.21.76-1.63,3.56-1.82,3.64-8.58,3.82-33.82,11.48-42.75,12.73-37.14,5.21-285.05,2.86-303.79-12.73-1.64-1.36-.76-3.6-.91-5.46,93.88,7.28,251.96,10.41,342.9-1.82,3.23-.44,4.36,3.95,6.37,3.64Z"/>
          <path class="cls-28" d="m824.23,909.54c-.14,4.24.14,8.5,0,12.73-1.09,32.68-4.12,65.5-1.82,98.23-1.19,9.09-23.84,20.74-49.12,10.91,4.67-13.09-.13-98.02,1.82-102.78.39-.95,4.75-5.47,5.46-3.64,32.56,93.34,16.22,35.01,23.65-30.92.77-6.8,11.41-62.6,15.46-62.76q2.27,39.11,4.55,78.22Z"/>
          <g>
            <path class="cls-5" d="m835.15,702.17c.15,1.85-.73,4.09.91,5.46,18.74,15.6,266.65,17.94,303.79,12.73,8.93-1.25,34.17-8.92,42.75-12.73-3.89,106.68.62,214.24-3.64,320.16q-24.56-17.74-49.12-35.47c.15-18.56-1.04-36.96-1.82-55.48-.53-12.69.39-25.5,0-38.2,10.41-21.23-47.62-30.94-47.3-24.56.13,2.45,15.69,2.77,14.55,8.19-26.59-5.99-2.4-3.38-1.82,43.66.14,10.93,11.13,4.9-14.55,20.01-2.84-1.29-7.84-1.58-8.19-1.82-9.48-6.49-7.84-12.06-8.19-12.73,2.9-6.18,5.82-9.34,7.28-16.37,5.18-25.01-24-31.81-32.74-10.91-16.08,4.7-39.46,38.7-50.02,40.02-21.66,2.7-21.45-14.89-15.46-30.92,1.04-2.79,6.58-9.59,9.1-12.73,9.32-11.65,23.69-21.36,37.29-27.29v-3.64q-29.11-4.55-58.21-9.1l-.91,30.92c-2.83,8.57-10.78,4.17-18.19,9.1-2.63-.63-7.21-1.03-10.91-1.82-6.79-22.75,19.14-35.62,30.01-54.57,11.68-3.28,85.5,4.4,89.14,1.82,1.5-1.06,1.5-24.4,0-25.47-5.79-4.11-122.66-3.91-141.89-5.46-26.71-2.14-53.39-8.07-80.04-10.91-2.11,1.59-.61,45.63-.91,52.75-.73,17.64-1.25,35.12-1.82,52.75q-2.27-39.11-4.55-78.22c-4.06.15-14.7,55.96-15.46,62.76-7.43,65.94,8.91,124.26-23.65,30.92-.71-1.83-5.07,2.69-5.46,3.64-1.95,4.75,2.85,89.69-1.82,102.78-7.04-2.73-9.55-6.54-10.91-7.28l1.82-329.25c23.3,5.3,47.28,5.44,70.94,7.28Z"/>
            <g>
              <path class="cls-10" d="m1128.02,898.63c-5.61-7.99-22.77-14.12-32.74-16.37,1.13-5.41-14.43-5.73-14.55-8.19-.33-6.38,57.71,3.33,47.3,24.56Z"/>
              <g>
                <path class="cls-16" d="m1069.81,915c-3.39-2.2-7.39-3.62-10.91-5.46-9.07-4.71-10.8-8.68-21.83-5.46,8.74-20.89,37.92-14.09,32.74,10.91Z"/>
                <path class="cls-11" d="m1030.7,885.89c1.45-.15,3.97-.46,4.55.91-20.6,9.86-36.66,29.7-39.11,30.01-22.5,2.85,24.77-29.88,34.56-30.92Z"/>
                <path class="cls-6" d="m1077.99,929.55c-.51,15.35-12.52,17.24-.91.91l.91-.91Z"/>
                <path class="cls-15" d="m977.94,936.83q4.09.45,8.19.91c-3.45,4.93-9.46,2.66-8.19-.91Z"/>
              </g>
            </g>
          </g>
        </g>
      </g>
    </g>
  </g>
</svg>