<?xml version="1.0" encoding="UTF-8"?>
<svg id="Calque_2" data-name="Calque 2" xmlns="http://www.w3.org/2000/svg" xmlns:xlink="http://www.w3.org/1999/xlink" viewBox="0 0 1495.14 1496.31">
  <defs>
    <style>
      .cls-1 {
        fill: #6e7c8d;
      }

      .cls-1, .cls-2, .cls-3, .cls-4, .cls-5, .cls-6, .cls-7, .cls-8, .cls-9, .cls-10, .cls-11, .cls-12, .cls-13, .cls-14, .cls-15, .cls-16, .cls-17, .cls-18, .cls-19, .cls-20, .cls-21, .cls-22, .cls-23, .cls-24, .cls-25, .cls-26, .cls-27, .cls-28, .cls-29, .cls-30, .cls-31, .cls-32, .cls-33, .cls-34, .cls-35, .cls-36, .cls-37, .cls-38, .cls-39, .cls-40, .cls-41, .cls-42, .cls-43, .cls-44, .cls-45, .cls-46, .cls-47, .cls-48, .cls-49, .cls-50, .cls-51, .cls-52, .cls-53, .cls-54, .cls-55, .cls-56, .cls-57, .cls-58, .cls-59, .cls-60, .cls-61, .cls-62, .cls-63, .cls-64, .cls-65, .cls-66, .cls-67, .cls-68, .cls-69, .cls-70, .cls-71, .cls-72, .cls-73, .cls-74, .cls-75, .cls-76, .cls-77, .cls-78, .cls-79, .cls-80, .cls-81, .cls-82, .cls-83, .cls-84, .cls-85, .cls-86, .cls-87, .cls-88 {
        stroke-width: 0px;
      }

      .cls-2 {
        fill: #d1c694;
      }

      .cls-3 {
        fill: #c17064;
      }

      .cls-4 {
        fill: url(#Dégradé_sans_nom_43-2);
      }

      .cls-5 {
        fill: #7e4d37;
      }

      .cls-6 {
        fill: #7c5c57;
      }

      .cls-7 {
        fill: url(#Dégradé_sans_nom_49);
      }

      .cls-8 {
        fill: #605b65;
      }

      .cls-9 {
        fill: #c1b8c1;
      }

      .cls-10 {
        fill: #aebac6;
      }

      .cls-11 {
        fill: #9a3a35;
      }

      .cls-12 {
        fill: #111d2f;
      }

      .cls-13 {
        fill: #b8d9d5;
      }

      .cls-14 {
        fill: #362a18;
      }

      .cls-15 {
        fill: #435d7e;
      }

      .cls-16 {
        fill: #462529;
      }

      .cls-17 {
        fill: #230d14;
      }

      .cls-18 {
        fill: #83322d;
      }

      .cls-19 {
        fill: #024555;
      }

      .cls-20 {
        fill: #e8e0ce;
      }

      .cls-21 {
        fill: #004950;
      }

      .cls-22 {
        fill: #2c2428;
      }

      .cls-23 {
        fill: #49878b;
      }

      .cls-24 {
        fill: #94836b;
      }

      .cls-25 {
        fill: url(#Dégradé_sans_nom_48);
      }

      .cls-26 {
        fill: #1a3a58;
      }

      .cls-27 {
        fill: #8b665c;
      }

      .cls-28 {
        fill: #42151a;
      }

      .cls-29 {
        fill: url(#Dégradé_sans_nom_58);
      }

      .cls-30 {
        fill: #052633;
      }

      .cls-31 {
        fill: #595f73;
      }

      .cls-32 {
        fill: #9f7351;
      }

      .cls-33 {
        fill: #e2b67e;
      }

      .cls-34 {
        fill: #333340;
      }

      .cls-35 {
        fill: #9fb595;
      }

      .cls-36 {
        fill: #1b7476;
      }

      .cls-37 {
        fill: #ba9250;
      }

      .cls-38 {
        fill: #8f938f;
      }

      .cls-39 {
        fill: #c8cf93;
      }

      .cls-40 {
        fill: #562419;
      }

      .cls-41 {
        fill: #37938e;
      }

      .cls-42 {
        fill: #1c2228;
      }

      .cls-43 {
        fill: url(#Dégradé_sans_nom_51);
      }

      .cls-44 {
        fill: #8aa1b5;
      }

      .cls-45 {
        fill: #034e46;
      }

      .cls-46 {
        fill: #bdad73;
      }

      .cls-47 {
        fill: url(#Dégradé_sans_nom_52);
      }

      .cls-48 {
        fill: #3e455a;
      }

      .cls-49 {
        fill: #ba4e42;
      }

      .cls-50 {
        fill: #98ccc5;
      }

      .cls-51 {
        fill: #c87144;
      }

      .cls-52 {
        fill: #77889f;
      }

      .cls-53 {
        fill: #b8aea4;
      }

      .cls-54 {
        fill: url(#Dégradé_sans_nom_54);
      }

      .cls-55 {
        fill: #bb824d;
      }

      .cls-56 {
        fill: #e5e3c4;
      }

      .cls-57 {
        fill: url(#Dégradé_sans_nom_56);
      }

      .cls-58 {
        fill: #7b222f;
      }

      .cls-59 {
        fill: #6d5639;
      }

      .cls-60 {
        fill: url(#Dégradé_sans_nom_43);
      }

      .cls-61 {
        fill: url(#Dégradé_sans_nom_57);
      }

      .cls-62 {
        fill: #162a45;
      }

      .cls-63 {
        fill: #268482;
      }

      .cls-64 {
        fill: #2a1918;
      }

      .cls-65 {
        fill: #dcc287;
      }

      .cls-66 {
        fill: #233543;
      }

      .cls-67 {
        fill: #3a3536;
      }

      .cls-68 {
        fill: #b39d98;
      }

      .cls-69 {
        fill: #d0dcb5;
      }

      .cls-70 {
        fill: #071822;
      }

      .cls-71 {
        fill: #632325;
      }

      .cls-72 {
        fill: #023a40;
      }

      .cls-73 {
        fill: #026168;
      }

      .cls-74 {
        fill: #3d2921;
      }

      .cls-75 {
        fill: #312939;
      }

      .cls-76 {
        fill: #7baa91;
      }

      .cls-77 {
        fill: #cfd2d9;
      }

      .cls-78 {
        fill: #52afa7;
      }

      .cls-79 {
        fill: #281a21;
      }

      .cls-80 {
        fill: #463c4c;
      }

      .cls-81 {
        fill: #0c0d15;
      }

      .cls-82 {
        fill: #927444;
      }

      .cls-83 {
        fill: #c8c4c4;
      }

      .cls-84 {
        fill: #6b997c;
      }

      .cls-85 {
        fill: url(#Dégradé_sans_nom_53);
      }

      .cls-86 {
        fill: #544235;
      }

      .cls-87 {
        fill: #ae303d;
      }

      .cls-88 {
        fill: #77c0b4;
      }
    </style>
    <linearGradient id="Dégradé_sans_nom_43" data-name="Dégradé sans nom 43" x1="738.82" y1="-916.98" x2="709.65" y2="-538.53" gradientTransform="translate(-59.89 3227.74) scale(1.12 3.67)" gradientUnits="userSpaceOnUse">
      <stop offset="0" stop-color="#57453f"/>
      <stop offset=".61" stop-color="#87705e"/>
      <stop offset="1" stop-color="#c4b2a8"/>
    </linearGradient>
    <linearGradient id="Dégradé_sans_nom_43-2" data-name="Dégradé sans nom 43" x1="684.84" y1="-37.65" x2="655.67" y2="340.8" gradientTransform="matrix(1,0,0,1,0,0)" xlink:href="#Dégradé_sans_nom_43"/>
    <linearGradient id="Dégradé_sans_nom_48" data-name="Dégradé sans nom 48" x1="1485.75" y1="696.92" x2="1348.53" y2="698.81" gradientUnits="userSpaceOnUse">
      <stop offset="0" stop-color="#c3bfbd"/>
      <stop offset="1" stop-color="#766b6d"/>
    </linearGradient>
    <linearGradient id="Dégradé_sans_nom_49" data-name="Dégradé sans nom 49" x1="1415.39" y1="9.36" x2="1418.42" y2="384.54" gradientUnits="userSpaceOnUse">
      <stop offset="0" stop-color="#56443f"/>
      <stop offset=".52" stop-color="#766051"/>
      <stop offset=".64" stop-color="#826c5a"/>
      <stop offset="1" stop-color="#b6a39c"/>
    </linearGradient>
    <linearGradient id="Dégradé_sans_nom_56" data-name="Dégradé sans nom 56" x1="1395.69" y1="1006.96" x2="1460.63" y2="1036.96" gradientUnits="userSpaceOnUse">
      <stop offset="0" stop-color="#9d3e3f"/>
      <stop offset="1" stop-color="#70282d"/>
    </linearGradient>
    <linearGradient id="Dégradé_sans_nom_54" data-name="Dégradé sans nom 54" x1="1163.49" y1="972.83" x2="1230.64" y2="973.65" gradientUnits="userSpaceOnUse">
      <stop offset="0" stop-color="#bb895a"/>
      <stop offset="1" stop-color="#885e44"/>
    </linearGradient>
    <linearGradient id="Dégradé_sans_nom_51" data-name="Dégradé sans nom 51" x1="361.3" y1="1109.94" x2="544.65" y2="1522.11" gradientUnits="userSpaceOnUse">
      <stop offset="0" stop-color="#a7cfc5"/>
      <stop offset="1" stop-color="#2fa09c"/>
    </linearGradient>
    <linearGradient id="Dégradé_sans_nom_52" data-name="Dégradé sans nom 52" x1="1171.11" y1="1447.59" x2="1192.83" y2="1545.95" gradientUnits="userSpaceOnUse">
      <stop offset="0" stop-color="#0a0c13"/>
      <stop offset="1" stop-color="#200c15"/>
    </linearGradient>
    <linearGradient id="Dégradé_sans_nom_53" data-name="Dégradé sans nom 53" x1="-55.87" y1="1256.14" x2="66.25" y2="1321.88" gradientUnits="userSpaceOnUse">
      <stop offset="0" stop-color="#c69353"/>
      <stop offset="1" stop-color="#9b612b"/>
    </linearGradient>
    <linearGradient id="Dégradé_sans_nom_57" data-name="Dégradé sans nom 57" x1="911.33" y1="1260.52" x2="936.88" y2="1433.83" gradientUnits="userSpaceOnUse">
      <stop offset="0" stop-color="#71bcb0"/>
      <stop offset="1" stop-color="#42a6a1"/>
    </linearGradient>
    <linearGradient id="Dégradé_sans_nom_58" data-name="Dégradé sans nom 58" x1="747.17" y1="1189.22" x2="756.34" y2="1463.53" gradientUnits="userSpaceOnUse">
      <stop offset="0" stop-color="#3b928b"/>
      <stop offset="1" stop-color="#227372"/>
    </linearGradient>
  </defs>
  <g id="Calque_1-2" data-name="Calque 1">
    <g>
      <g id="Background">
        <rect class="cls-60" x="0" y="0" width="1495.14" height="1496.31"/>
        <path class="cls-4" d="m1331.52.35c.39,79.33,1.54,158.62,1.46,237.96-.03,24.54,1.53,151.32,0,159.13-.4,2.06.87,3.87-2.19,5.84q-7.66,2.19-15.33,4.38C877.31,367.72,438.62,335.2.1,299.63.23,199.87,0,100.11.1.35,443.9,1.18,887.72-.76,1331.52.35Z"/>
        <path class="cls-80" d="m1315.46,407.66q.73,262.05,1.46,524.1c-25.92,2.09-35.78,19.58-39.42,21.9-3.51,2.24-9.33,1.78-13.14,4.38-.25-1.15-8.81-19.01-10.22-21.17-11.24-17.19-36.22-32.05-56.94-32.85.01-.49-.01-.97,0-1.46,3.45-148.51-2.58-297.45,0-446-23.12-7.18-20.7,1.88-21.9,2.19-1.93.5-1.17-2.92-2.19-2.92-1.02,0-.26,3.42-2.19,2.92-.24-.06.18-3.86-2.19-4.38-13.29-2.93-169.47-11.67-207.3-14.6-50.61-3.91-101.38-8.86-151.83-14.6l-2.19,2.19c-3.88,121.46,5.17,272.57,0,389.79-.03.59-2.89,2.33-2.92,2.92-.74,14.77.55,29.74,0,44.53-16.91-3.69-41.43,13.65-30.66,29.2-10.1,16.27-12.45,30.62-2.92,46.72-12.5,1.55-13.72,12.01-16.06,21.9-2.54.22-6.12-.36-6.57,0-3.56,2.83-14.33,78.06-16.79,89.05-7.14,1.44-11.78.92-14.6,1.46-2.86.54-5.84.89-8.76,1.46.2-29.48,43.93-149.88-4.38-144.53.74-31.35-8.35-30.43-8.76-32.12-5.94-24.37,6.16-395.99-2.19-458.4l-16.79.73v447.46c-.23-.03-1.77.83-4.38,1.46q-.73-224.46-1.46-448.92-193.8-14.23-387.6-28.47l-.73,605.85c-8.76-.08-17.52,0-26.28,0-30.07-.02-60.41-4.22-90.51,0q-.73-305.48-1.46-610.96-10.58-1.09-21.17-2.19-1.09,312.42-2.19,624.83c-.97.05-1.95-.04-2.92,0q-.73-311.32-1.46-622.64-67.88-5.47-135.77-10.95c.02-25.3-.03-50.61,0-75.91,438.52,35.57,877.2,68.09,1315.36,108.03Z"/>
        <path class="cls-25" d="m1495.03,420.8c.15,182.97.1,365.95,0,548.92-17.97-23.24-35.9-33.49-64.24-20.44-9.65,4.45-23.49,16.75-30.66,24.82-6.27-7.05-9.95-12.76-17.52-18.98-9.47-7.79-30.77-19.39-42.34-21.9-.16-162.53.22-325.07,0-487.6,50.52-13.74,102.84-19.34,154.75-24.82Z"/>
        <path class="cls-77" d="m137.33,1009.13c-22.91.9-47.76-2.35-43.8,5.84-7.6-15.67,3.93-35.31-17.52-59.86,15.95,2.15-1.39-13.92,2.92-19.71,2.7-3.62,19.64,6.83,14.6-14.6-.41-1.74-4.16-5.77-5.84-6.57,12.05-51.1-67.55-46.41-54.02,10.95-5.75-.07-7.39,1.71-11.68,3.65-7.7,3.49-15.95,4.45-21.9,11.68C0,752.2-.06,563.87.1,375.54q67.88,5.47,135.77,10.95.73,311.32,1.46,622.64Z"/>
        <path class="cls-7" d="m1340.28.35c51.58.15,103.17-.11,154.75,0,.09,109-.12,218.01,0,327.02-45.48,1.11-45.63,19.91,0,16.06.01,14.6-.01,29.2,0,43.8l-154.75,16.06c0-.3-1.45,1.6-1.46-5.84-.07-53.04-.13-106.09,0-159.13.19-79.33,1.37-158.63,1.46-237.96Z"/>
        <path class="cls-80" d="m1495.03,387.22c0,11.19,0,22.38,0,33.58-51.91,5.48-104.23,11.08-154.75,24.82-.02-14.11.02-28.23,0-42.34l154.75-16.06Z"/>
        <path class="cls-22" d="m1340.28.35c-.09,79.33-1.27,158.63-1.46,237.96h-5.84c.08-79.34-1.07-158.63-1.46-237.96,2.92,0,5.84,0,8.76,0Z"/>
        <path class="cls-22" d="m1338.82,397.44c.01,7.44,1.46,5.54,1.46,5.84.02,14.1-.02,28.22,0,42.34.22,162.53-.16,325.07,0,487.6-3.11-.67-19.45-1.77-23.36-1.46q-.73-262.05-1.46-524.1,7.66-2.19,15.33-4.38c3.06-1.97,1.79-3.78,2.19-5.84h5.84Z"/>
        <path class="cls-67" d="m1338.82,238.31c-.13,53.04-.07,106.09,0,159.13h-5.84c1.53-7.81-.03-134.59,0-159.13h5.84Z"/>
        <path class="cls-77" d="m671.65,868.99c-9.1,2.18-8.11,4.95-11.68,11.68-2.93,5.51-6.6,14.53-7.3,20.44-3.28,27.83,11.24-4.17,11.68,29.2-1.1.57-3.93,2.43-4.38,2.92h-18.98c-.27-17.72-23.84-28.46-39.42-29.2,3.15-18.6,10.84-42.6-14.6-49.64-.44-.12-.99.06-1.46,0-11.45-1.42-5.64,1.37-10.22,7.3-11.31,14.65-28.88,22.95-2.92,35.04-.31,2.57-1.49,13.87-1.46,14.6-38.23-7.59-48.61,63.77-55.48,67.88-14.12,8.46,8.75-30.82-10.22-70.07-7.4-15.33-27.03-28.17-43.8-27.01-3.36-22.62,15.27-5.85,5.84-37.96,12.01-20.91-31.98-29.57-35.04,10.22-.58,7.62-.99,19.82,5.84,24.82-.08.2.02,3.3,0,4.38-18.9-14.5-62.81,56.06-71.53,71.53-.49.87-9.44,6.06-7.3,17.52.46,2.49,3.86,7.84,7.3,7.3,9.72-2.7,17.11,9.9,24.82,13.14q-6.57,2.19-13.14,4.38c-32.01-4.45-64.38.28-96.35,0l.73-605.85q193.8,14.23,387.6,28.47.73,224.46,1.46,448.92Z"/>
        <path class="cls-77" d="m1170.93,458.76q-.73,231.76-1.46,463.51l2.92.73c-6.84,11.72-23.22,11.64-20.44,51.1-7.99-9.58-14.6-8.44-26.28-8.76,4.12-36.92-31.94-75.86-65.69-55.48-4.36,2.63-8.61,5.11-10.22,10.22-7.69-.62-28.44,29.58-37.96,42.34-.55-.36-2.98,4.85-8.76-4.38-5.65-4.46-6.26,5.57-13.14,4.38-.62-5.48-1.58-15.88-2.92-20.44,7.52-.3,6.46,3.67,3.65,8.76,10.73-4.86,5.67-21.2,5.11-35.04-.16-3.92,6.25-38.05-27.01-42.34-13.91-1.79-27.11,3.56-22.63,18.98-11.65,3.02-13.5,22.4-14.6,32.12-3.18,2.4-6.64,4.13-10.22,5.84-4.61,2.2-16.16-6.86-16.06,34.31,1.61,2.77,5.96,3.33,11.68,8.03-17.66,13.89-25.97,40.93-51.1,40.88,3.13-3.5,2.76-5.49,2.92-5.84,10.97-24.15,21.42-27.36,18.98-59.13-2.14-27.92-16.27-40.81-30.66-62.05,29.81-28.05-20.96-51.27-32.12-33.58-1.57,2.48-.97,2.08-1.46,4.38-3.08,14.57,2.53,29.52,2.92,43.8.03.97-.01,1.95,0,2.92-4.52-11.28-6.43-36.04-21.9-39.42.55-14.79-.74-29.76,0-44.53.03-.59,2.89-2.33,2.92-2.92,5.17-117.22-3.88-268.33,0-389.79l2.19-2.19c50.45,5.74,101.22,10.68,151.83,14.6,37.83,2.93,194.02,11.67,207.3,14.6,2.37.52,1.95,4.32,2.19,4.38Z"/>
        <path class="cls-77" d="m165.07,997.46c1.93,15.81-5.04,6.04-7.3,14.6-8.38-7.71-10.74-3.25-17.52-2.92q1.09-312.42,2.19-624.83,10.58,1.09,21.17,2.19.73,305.48,1.46,610.96Z"/>
        <path class="cls-77" d="m1197.21,902.56c-5.82,1.25-17.44,5.43-18.98,11.68h-2.92v-455.49c1.2-.31-1.23-9.37,21.9-2.19-2.58,148.55,3.45,297.49,0,446Z"/>
        <path class="cls-77" d="m695.01,877.74l-4.38,1.46c-3.46-5.39-13.67-11.57-14.6-11.68v-447.46l16.79-.73c8.35,62.41-3.75,434.04,2.19,458.4Z"/>
        <path class="cls-8" d="m1175.31,458.76v455.49c1.22,11.4-2.64,8.28-2.92,8.76l-2.92-.73q.73-231.76,1.46-463.51c1.93.5,1.17-2.92,2.19-2.92,1.02,0,.26,3.42,2.19,2.92Z"/>
        <path class="cls-31" d="m754.86,962.42c-4.56,19.29-7.61,63.34-11.68,86.86-2.3,3.91-8.27,1.5-11.68,2.19,2.46-10.99,13.23-86.22,16.79-89.05.45-.36,4.03.22,6.57,0Z"/>
        <path class="cls-53" d="m995.75,915.7c-3.05-2.86-7.68,4.26-16.06,7.3h-1.46c-2.16-7.7-1.57-11.37-5.84-18.98-5.24-9.33-12.87-12.65-23.36-11.68-.95.09-2.14-.2-2.92,0-4.48-15.42,8.72-20.77,22.63-18.98,33.26,4.29,26.85,38.41,27.01,42.34Z"/>
        <path class="cls-11" d="m949.03,892.34c1.2,11.78,5.7,36.67-5.84,40.88-1.32-1.98-9.13-6.2-11.68-8.76,1.1-9.71,2.95-29.1,14.6-32.12.78-.2,1.97.09,2.92,0Z"/>
        <path class="cls-81" d="m995.75,915.7c.56,13.84,5.62,30.18-5.11,35.04,2.81-5.09,3.87-9.06-3.65-8.76-3.61-12.3-8.86-9.23-7.3-18.98,8.38-3.04,13.01-10.16,16.06-7.3Z"/>
      </g>
      <g>
        <g>
          <path class="cls-67" d="m981.88,252.91c2.53.46,13.48,18.48,2.92,27.74-3.57,3.13-82.86,36.2-87.59,36.5-10.91.7-13.26-12.63-10.95-21.17,1.38-5.1,90.42-44.02,95.62-43.07Z"/>
          <path class="cls-81" d="m1224.22,58.75c11.24-.06,11.91,14.04,9.49,22.63-6.8,24.1-83.29,51.32-74.45,13.14,3.03-13.1,61.2-35.75,64.97-35.77Z"/>
          <path class="cls-42" d="m1126.41,128.82c20.06,5.48-31.71,48.76-38.69,31.39-6.03-15.01,35.46-32.27,38.69-31.39Z"/>
          <path class="cls-42" d="m1016.91,223.71c17.76,23.9-41.18,42.9-32.85,19.71.65-1.8,29.3-15.52,32.85-19.71Z"/>
        </g>
        <path class="cls-48" d="m708.15,1054.39c-15.92,3.12-27.67,12.35-48.18,4.38,2.75-3.41,5.8-10.65,4.38-14.6,5.5,1.13,10.26-6.37,11.68-7.3,1.92-1.26,12.89-3.71,13.14-10.22,2.78-3.02,2.24-11.01,2.92-14.6,3.27-17.28,7.34-55.93,8.76-74.45.61-7.92-.31-16.18,0-24.09.05-1.22,2.81.85,2.92-3.65,48.31-5.35,4.58,115.05,4.38,144.53Z"/>
        <g>
          <path class="cls-58" d="m814.72,918.62c-.67,1.62-2.58,18.19-10.22,33.58-1.22,2.46-6.77,14.23-8.03,14.6-.87.26-10.77-3.95-13.87-1.46-.27-3.4-1.59-10.02-2.92-13.14-2.67-6.26-5.95-6.93-8.76-11.68-9.53-16.09-7.18-30.44,2.92-46.72.43-.7-.79-3.7.73-4.38,17.45,2.57,24.78,21.07,40.15,29.2Z"/>
          <path class="cls-12" d="m804.5,864.61c15.47,3.37,17.38,28.14,21.9,39.42v1.46c-6.32.28-7.87,4-11.68,13.14-15.37-8.13-22.7-26.62-40.15-29.2-1.52.68-.3,3.68-.73,4.38-10.77-15.54,13.74-32.89,30.66-29.2Z"/>
        </g>
        <g>
          <path class="cls-28" d="m1316.92,931.76c3.91-.31,20.25.79,23.36,1.46,11.57,2.51,32.86,14.11,42.34,21.9-.96,17.94-7.41,36.09-2.92,54.02-2.32,18.81-9.39,32.61,1.46,50.37,1.76,2.87,12.51,12.25,16.06,15.33-3.24-.25-5.89,1.69-8.76,2.92-9.6,4.1-38.78,14.25-41.61,16.06-17.28,11.06-13.76,61.36-28.47,75.91.61-13.82-.45-27.78,0-41.61q-22.63-6.93-45.26-13.87c-.16-2.29-2.82-1.01-2.92-2.19-1.68-20.65.76-36.56-8.76-56.21-.18-.37,1.13-2.4-2.92-7.3,4.1-6.7-11.36-28.79-17.52-29.2,2.39-2.88,16.85-22.06,17.52-23.36l32.12-6.57q-6.57-17.88-13.14-35.77c3.64-2.32,13.5-19.81,39.42-21.9Z"/>
          <path class="cls-31" d="m1258.53,996c6.07-11.85,8.71-24.5,5.84-37.96,3.81-2.6,9.63-2.14,13.14-4.38q6.57,17.88,13.14,35.77l-32.12,6.57Z"/>
          <path class="cls-66" d="m1400.13,974.1c-10.28,11.57-15.93,19.81-20.44,35.04-4.49-17.92,1.96-36.08,2.92-54.02,7.56,6.22,11.25,11.93,17.52,18.98Z"/>
        </g>
        <g>
          <path class="cls-42" d="m1495.03,327.37c0,5.35,0,10.71,0,16.06-45.63,3.85-45.48-14.95,0-16.06Z"/>
          <path class="cls-42" d="m1380.43,340.51c1.67-.74,35.01-1.06,36.5,0,1.01.72,1.13,13.3.73,13.87-1.08,1.52-35.53,1.48-37.23.73-3.3-1.46-3.3-13.14,0-14.6Z"/>
        </g>
        <g>
          <path class="cls-81" d="m87.69,914.24c-3.73-1.78-28.43,3.11-32.12,6.57,3.76,20.06-.1,19.3,0,20.44.42,4.58,1.43,7.04,4.38,8.03.54,3.4-1.38,2.78-1.46,2.92-17.02-14.03-12.16,4.94-1.46,2.92.6,8.16,12.58,63.94,16.06,76.64.5,1.83.5,7.28-1.46,8.76,14.31,11.81,30.55,36.88,45.99,38.69,2.45,2.3,2.42,4.81,6.57,8.76,11.28,10.75,20.94,22.88,32.12,33.58,32.18,30.82,64.68,61.39,97.08,91.97.45.43,3.26-.37,3.65,0,93.99,88.71,186.83,178.69,281.76,266.43,2.24,4.84-.43,10.61-2.92,15.33-26.76-.02-53.53.02-80.29,0q-14.23-18.98-28.47-37.96-.36,18.98-.73,37.96c-24.33-.02-48.66.02-72.99,0-12-34.56-28.21-68.01-36.5-103.65q18.25-2.55,36.5-5.11c-27.65-30.53-54.03-62.89-83.21-91.97-10.3-10.26-22.06-23.94-20.44-16.79-6.34,1.37-1.41-3.28-6.57-7.3-8.37-6.51-10.89-6.39-21.17-16.06,18.02,4.28-27.93-38.31-31.39-40.88-6.45-4.8-35.87-22.94-34.31-8.76-11.81-10.78-12.27-47.97-16.06-64.97-13.82-9.57-25.92-33.1-33.58-48.91-1.24-2.55,2.33-5.51,1.46-8.03-13.32-13.92-28-26.56-40.15-41.61-3.14-.3-10.22-.75-12.41-1.46-6.56-2.13-13.2-3.07-18.98-7.3,2.93-4.24,1.01-12.69,1.46-16.06,2.1-15.8,2.74-31.8,5.84-47.45,1.17-7.86-2.85-7.61-2.92-8.03-1.13-6.37-5.87-12.53-4.38-19.71q-7.3-6.2-14.6-12.41c4.29-1.94,5.93-3.72,11.68-3.65-13.53-57.36,66.07-62.05,54.02-10.95Z"/>
          <g>
            <path class="cls-17" d="m36.6,1032.49c5.78,4.23,12.42,5.17,18.98,7.3.31,1.12-1.54,1.89-1.46,2.19.85,3.35,45.96,47.1,48.91,48.91.51.31,2.26-.16,3.65,0,7.65,15.81,19.76,39.33,33.58,48.91,3.78,17,4.25,54.19,16.06,64.97.39.36-.78,3.58.73,4.38,30.42.23,45.25,26.7,64.97,45.26,10.27,9.67,12.8,9.55,21.17,16.06,5.16,4.02.23,8.67,6.57,7.3,1.62,9.19,4.78,18.48,5.84,27.74,1.24,10.82.68,23.32,1.46,34.31,1.58,2.32,5.61,4.8,5.84,5.11,5.67,7.51,6.96,5.52,7.3,5.84,5.66,5.34,43.65,40.39,46.72,40.88,8.28,35.64,24.49,69.09,36.5,103.65-53.53-.05-107.06.13-160.59,0-.3-46.99-35.83-71.69-40.88-85.4q-5.11-29.2-10.22-58.4c-1.4-1.25-27.78,17.5-30.66,19.71l-5.84-2.92c9.26-7.52,18.5-15.08,27.74-22.63-15.31-18.98-13.91-29.31-36.5-12.41l-4.38-4.38c13.38-13.74,2.41-2.52-2.92-9.49-2.09-2.73-5.12-39.19-4.38-46.72-.94-1.71-1.4.87-2.92.73-4.01-.38-3.11,3.72-10.22,0,3.93-3.52,7.83-7.31,11.68-10.95q-19.71-27.01-39.42-54.02c.56-84.22-10.41-67.49-18.98-86.13-3.37-7.34-5.1-27.39-13.14-37.23.26-10.41,13.69,4.46,26.28-3.65-3.44-16.68-17.33-49.41-1.46-48.91Z"/>
            <path class="cls-28" d="m106.67,1090.89c-1.39-.16-3.14.31-3.65,0-2.95-1.81-48.06-45.55-48.91-48.91-.08-.3,1.77-1.07,1.46-2.19,2.19.71,9.27,1.16,12.41,1.46,12.15,15.04,26.82,27.69,40.15,41.61.87,2.52-2.7,5.48-1.46,8.03Z"/>
          </g>
          <g>
            <path class="cls-58" d="m316.9,1391.63c-3.07-.48-41.06-35.54-46.72-40.88.46-24.65,6.38-35.71-8.76-36.5-.56-2.47-3.88-6.71-5.84-8.76-1.06-9.26-4.22-18.55-5.84-27.74-1.63-7.15,10.14,6.53,20.44,16.79,29.19,29.08,55.56,61.44,83.21,91.97q-18.25,2.55-36.5,5.11Z"/>
            <path class="cls-58" d="m222,1254.4c-19.72-18.55-34.55-45.03-64.97-45.26-1.51-.8-.34-4.02-.73-4.38-1.57-14.18,27.85,3.96,34.31,8.76,3.46,2.57,49.4,45.16,31.39,40.88Z"/>
            <path class="cls-37" d="m270.18,1350.75c-.34-.32-1.63,1.67-7.3-5.84-2.4-9.84.76-20.93-1.46-30.66,15.14.79,9.22,11.85,8.76,36.5Z"/>
            <path class="cls-65" d="m261.42,1314.25c2.22,9.73-.94,20.82,1.46,30.66-.23-.31-4.26-2.79-5.84-5.11-.78-10.99-.22-23.49-1.46-34.31,1.96,2.05,5.28,6.29,5.84,8.76Z"/>
          </g>
        </g>
        <g>
          <path class="cls-11" d="m87.69,914.24c1.68.8,5.43,4.83,5.84,6.57,5.04,21.43-11.9,10.98-14.6,14.6-4.31,5.79,13.03,21.86-2.92,19.71-7.58-1.02-6.75-4.67-9.49-5.84-1.33-.57-4.93.55-6.57,0-2.95-.98-3.96-3.45-4.38-8.03-.1-1.14,3.76-.38,0-20.44,3.69-3.46,28.38-8.35,32.12-6.57Z"/>
          <g>
            <path class="cls-12" d="m22,928.84q7.3,6.2,14.6,12.41c-1.49,7.18,3.25,13.34,4.38,19.71l-8.76-5.11q2.92,30.29,5.84,60.59c-.45,3.37,1.47,11.82-1.46,16.06-15.87-.5-1.98,32.23,1.46,48.91-12.59,8.11-26.02-6.76-26.28,3.65-1.51-1.85-8.7-6.87-11.68-7.3-.04-45.74.03-91.49,0-137.23,5.95-7.23,14.2-8.19,21.9-11.68Z"/>
            <path class="cls-12" d="m76.02,955.12c21.45,24.55,9.91,44.19,17.52,59.86,26.2,27.92,28.06,16.99,29.2,49.64.27,7.81-1.05,15.7,1.46,23.36-4.15-3.95-4.12-6.46-6.57-8.76-15.43-1.81-31.68-26.88-45.99-38.69,1.96-1.47,1.96-6.93,1.46-8.76-3.48-12.7-15.46-68.48-16.06-76.64-.05-.71.97-2.12,1.46-2.92.08-.14,2,.48,1.46-2.92,1.64.55,5.24-.57,6.57,0,2.74,1.17,1.91,4.82,9.49,5.84Z"/>
            <path class="cls-38" d="m40.98,960.96c.07.42,4.09.17,2.92,8.03-3.1,15.65-3.74,31.65-5.84,47.45q-2.92-30.29-5.84-60.59l8.76,5.11Z"/>
          </g>
          <path class="cls-53" d="m58.5,952.2c-.49.8-1.51,2.21-1.46,2.92-10.7,2.02-15.56-16.95,1.46-2.92Z"/>
        </g>
        <g>
          <path class="cls-19" d="m1495.03,1063.15c-.02,21.41.02,42.82,0,64.24-9.75,20.17-44.35,138.36-49.64,145.26-1.5,1.96-3.78,2.57-5.84,3.65h-1.46c1.09-6.86-13.39.02-14.6-2.19,3.33-33.59,2.78-67.93,5.84-101.46,4.17-2.44,5.45-22.72,10.22-35.77,4.06-11.09,11.68-20.47,16.06-31.39,10.12-12.1,21.48-22.39,29.2-36.5q5.11-2.92,10.22-5.84Z"/>
          <path class="cls-10" d="m1495.03,1063.15q-5.11,2.92-10.22,5.84c.3-.55.3-2.91,4.38-11.68,1.54-3.32,3.3-7.66,5.84-10.22,0,5.35,0,10.71,0,16.06Z"/>
          <path class="cls-13" d="m1429.33,1172.64c2.43-26.67.5-40.32,18.98-62.78,1.5-1.83,6.46-3.37,7.3-4.38-4.38,10.92-12,20.29-16.06,31.39-4.77,13.05-6.05,33.32-10.22,35.77Z"/>
        </g>
        <path class="cls-17" d="m927.13,984.32c-2.49,1.57-4.9,1.88-7.3,5.11-3.77,5.06-36.82,97.32-52.56,114.6-4.44-2.09-9.74-4.94-14.6-5.84q10.22-18.61,20.44-37.23c-1.57-1.79-2.86-4.13-2.92-6.57-.26-10.75-.44-22.98-5.84-32.85q.73-4.01,1.46-8.03c25.12.05,33.44-26.99,51.1-40.88,3.09,2.54,9.86,7.98,10.22,11.68Z"/>
        <g>
          <path class="cls-17" d="m857.06,886.5c14.38,21.23,28.52,34.13,30.66,62.05,2.44,31.76-8.01,34.97-18.98,59.13-1.96.18-3.16,3.78-5.11,2.92-6.85-3.01-31.78-88.89-25.55-102.19,2.51.2,12.16,3.38,14.6-3.65,4.97-14.31-5.53-16.51-5.84-17.52-.59-1.9,2.07-2.5,1.46-4.38-.1-.29-3.93-1.6-4.38-4.38-.84-5.19,8.26-16.03-7.3-21.17-3.94-1.3-9.09-.63-13.14,0,.49-2.3-.11-1.9,1.46-4.38,27.57-2.53,29.65,7.62,27.74,32.85,2.3,3.77,3.97.13,4.38.73Z"/>
          <path class="cls-81" d="m857.06,886.5c-.41-.6-2.07,3.04-4.38-.73,1.91-25.23-.17-35.38-27.74-32.85,11.16-17.7,61.92,5.52,32.12,33.58Z"/>
          <g>
            <path class="cls-58" d="m838.08,908.4c-3.78-.3-7.31-3.11-11.68-2.92v-1.46c-.01-.97.03-1.95,0-2.92,8.56-4.85,3.46-30.04,10.22-43.8,15.56,5.14,6.46,15.98,7.3,21.17.45,2.78,4.28,4.09,4.38,4.38.61,1.88-2.05,2.47-1.46,4.38.31,1.01,10.81,3.21,5.84,17.52-2.44,7.03-12.08,3.85-14.6,3.65Z"/>
            <path class="cls-49" d="m836.62,857.31c-6.76,13.76-1.66,38.95-10.22,43.8-.39-14.28-6-29.23-2.92-43.8,4.05-.63,9.2-1.3,13.14,0Z"/>
          </g>
        </g>
        <g>
          <path class="cls-11" d="m921.29,930.3c21.37,35.84,3.79,34.44,2.92,37.23-1.19,3.79,4.14,9.13,8.03,8.03,1.37-.39,8.35-14.61,13.14-14.6.99,0,3.42,4.22,3.65,4.38-4.44,2.56-6.05,11.21-9.49,14.6-6.38,6.3-11.85,4.03-12.41,4.38-.36-3.7-7.13-9.14-10.22-11.68-5.72-4.7-10.07-5.26-11.68-8.03-.1-41.16,11.45-32.11,16.06-34.31Z"/>
          <path class="cls-17" d="m1003.04,958.04c-2.17,2.67-1.07,4.75-1.46,7.3-13.53.32-7.11,10.65-8.76,14.6-.17.41.16,1.03,0,1.46-3.58-5.5-2.27-13.22-2.92-18.98,6.88,1.19,7.49-8.84,13.14-4.38Z"/>
        </g>
        <g>
          <path class="cls-26" d="m782.6,968.26c24.91,1.17,9.46,4.56,17.52,40.88-.16,4.79.89,27.84-2.19,13.14-4.53,12.88-.58-12.99-2.19-16.79-.36-.86-8.69-3.27-14.6-11.68-7.89-11.23-5.89-18.33-4.38-27.01,2.22,1.61,3.36,1.34,5.84,1.46Z"/>
          <path class="cls-44" d="m800.12,1009.13c-8.06-36.31,7.39-39.71-17.52-40.88-.04-.97.08-1.96,0-2.92,3.1-2.49,13,1.72,13.87,1.46,1.26-.37,6.81-12.14,8.03-14.6-2.93,18.92-3.76,37.83-4.38,56.94Z"/>
        </g>
        <g>
          <path class="cls-58" d="m1438.09,1276.29h1.46c5.52,19.28-4.99,48.05-21.17,61.32-7.67-5.57-34.08-11.88-37.23-18.98-3.77-8.52,11.65-29.91,18.98-35.04,11.33-7.92,24.71-7.89,37.96-7.3Z"/>
          <g>
            <path class="cls-28" d="m1495.03,969.72c-.01,25.79.02,51.58,0,77.37-2.54,2.56-4.3,6.9-5.84,10.22-3.96-.57-9.63-13.11-10.95-13.14-3.13-.06-1.34,1.77-3.65,5.84-1.95-14.9,12.04-25.58,2.92-51.83-7.5-21.58-33.5-32.07-46.72-48.91,28.34-13.05,46.26-2.8,64.24,20.44Z"/>
            <path class="cls-57" d="m1474.59,1050.01c-4.5,7.91-8.31,21.53-14.6,32.12-6.7-2.6-7.21,9.62-15.33,11.68-3.21.81-20.61-.25-24.09-1.46-1.38-.48-21.14-15.59-23.36-17.52-3.55-3.08-14.3-12.46-16.06-15.33-10.85-17.75-3.78-31.56-1.46-50.37,4.51-15.23,10.16-23.47,20.44-35.04,7.17-8.07,21.01-20.37,30.66-24.82,13.22,16.83,39.22,27.33,46.72,48.91,9.12,26.24-4.87,36.92-2.92,51.83Z"/>
            <g>
              <path class="cls-11" d="m1489.19,1057.31c-4.08,8.77-4.08,11.13-4.38,11.68-7.71,14.11-19.08,24.4-29.2,36.5-.84,1.01-5.8,2.55-7.3,4.38-8.16-.87-15.16.53-21.9-5.84.58-18.71,13.51,11.9,33.58-21.9,6.29-10.59,10.1-24.2,14.6-32.12,2.31-4.07.52-5.9,3.65-5.84,1.32.02,6.99,12.57,10.95,13.14Z"/>
              <path class="cls-28" d="m1459.99,1082.13c-20.07,33.8-33,3.19-33.58,21.9h-1.46c-.04-4.56,1.49-10.39-4.38-10.22v-1.46c3.48,1.21,20.88,2.27,24.09,1.46,8.12-2.06,8.63-14.28,15.33-11.68Z"/>
            </g>
          </g>
          <path class="cls-46" d="m1400.13,1197.46c-2.47,10.92-9.76,74.48-12.41,77.37-.09.1-1.11-1.72-2.19-1.46-.35-.13-2.56.33-7.3-1.46.75-9.65,6.12-75.04,10.95-75.91.59-.11,3.34,4.8,10.95,1.46Z"/>
          <g>
            <path class="cls-19" d="m1378.24,1271.91c4.74,1.79,6.95,1.33,7.3,1.46.18.07-.58,2.42.73,2.92,2.08.79,7.89-2.97,13.87,7.3-7.33,5.12-22.75,26.52-18.98,35.04-10.4.05-71.7-27.85-75.18-30.66-9.84-7.93-2.07-11.45-6.57-21.9,4.96-32.54,17.55-64,18.98-96.35,14.7-14.55,11.19-64.86,28.47-75.91,2.82-1.81,32.01-11.96,41.61-16.06,5.86,11.22,20.03,17.58,18.98,31.39-.41,5.4-27.87,90.46-35.04,102.19.97,7.95-13.57,53.43-10.95,56.21,5.17,1.35,11.88,2.52,16.79,4.38Z"/>
            <path class="cls-12" d="m1426.41,1104.03c6.73,6.37,13.74,4.97,21.9,5.84-18.48,22.46-16.55,36.11-18.98,62.78-3.06,33.53-2.51,67.87-5.84,101.46,1.21,2.21,15.69-4.67,14.6,2.19-13.24-.59-26.63-.62-37.96,7.3-5.98-10.27-11.79-6.5-13.87-7.3-1.31-.5-.55-2.85-.73-2.92,1.08-.26,2.1,1.56,2.19,1.46,2.65-2.9,9.94-66.46,12.41-77.37.04-.16,2,.52,1.46-2.92,1.09-.27,2.93.38,3.65,0,4.78-2.48,19.79-80.11,19.71-90.51h1.46Z"/>
            <path class="cls-30" d="m1397.21,1074.83c2.22,1.93,21.98,17.04,23.36,17.52v1.46c-3.86,1.91-4.15,17.75-7.3,29.93-2.11,8.15-22.97,70.09-19.71,72.26.34.23,7.33-1.28,8.03-1.46.55,3.44-1.42,2.76-1.46,2.92-7.61,3.35-10.36-1.57-10.95-1.46-4.83.88-10.2,66.26-10.95,75.91-4.91-1.86-11.62-3.03-16.79-4.38-2.62-2.78,11.92-48.26,10.95-56.21,7.17-11.73,34.63-96.79,35.04-102.19,1.05-13.8-13.12-20.17-18.98-31.39,2.87-1.23,5.52-3.16,8.76-2.92Z"/>
            <path class="cls-26" d="m1424.95,1104.03c.08,10.4-14.93,88.03-19.71,90.51-.72.38-2.56-.27-3.65,0-.7.18-7.69,1.69-8.03,1.46-3.26-2.17,17.6-64.11,19.71-72.26,3.15-12.17,3.44-28.02,7.3-29.93,5.87-.17,4.34,5.66,4.38,10.22Z"/>
          </g>
        </g>
        <g>
          <path class="cls-16" d="m690.63,879.2c4.24,6.61,5.2,15.73,5.84,23.36-3.35-5.2-.57,1.65-13.14,0-.65-8.62-10.38-26.64-12.41-26.28-1.34.24-.51,4.33-.73,4.38-2.79.58-7.06-.4-10.22,0,3.57-6.73,2.58-9.5,11.68-11.68,2.61-.63,4.15-1.49,4.38-1.46.93.11,11.14,6.29,14.6,11.68Z"/>
          <path class="cls-68" d="m703.77,909.86c-.11,4.5-2.87,2.43-2.92,3.65-.31,7.9.61,16.17,0,24.09q-1.46-.73-2.92-1.46c1.04-3.8,3.13-14.08-2.92-11.68-.4-6.67,2.21-12.87,1.46-21.9-.63-7.63-1.6-16.75-5.84-23.36l4.38-1.46c.41,1.68,9.5.77,8.76,32.12Z"/>
          <path class="cls-11" d="m683.33,902.56c2.13,28.12-14.76,43.36,11.68,21.9,6.05-2.41,3.96,7.87,2.92,11.68-.1.37-3.63.19-4.38,4.38-16.69-4.3-19.03,30.37-23.36,45.26-5.28,18.16-11.31,36.05-14.6,54.75,4.98,4.95,5.04-6.71,8.76,3.65,1.42,3.95-1.63,11.19-4.38,14.6-14.26,17.73-29.52,6.9-40.88-7.3.28-.37-1.6-.39,5.84-7.3.8-.74,4.58-2.06,7.3-4.38.19-.16,2.4.75,4.38-2.19-3.39-12.45,9.91-36.41,17.52-54.75,10.69-25.77,26.75-40.1,10.22-52.56-.44-33.37-14.96-1.36-11.68-29.2q13.14-.36,26.28-.73-4.38-9.85-8.76-19.71c.22-.05-.61-4.14.73-4.38,2.02-.36,11.76,17.66,12.41,26.28Z"/>
          <path class="cls-26" d="m654.13,982.86c-6.36,3.33-11.15,19.88-20.44,35.77-.5.86,1.41,11.91-11.68,9.49-3.8-.7-3.55-1.97-5.84-2.92.06-23.12,20.41-38.02,18.98-54.75,5.45-8.88,6.1-1.11,10.22-5.84,1.03-1.18,19.47-29.24,11.68-25.55.2-.27-1.43-1.18,2.92-5.84.45-.48,3.27-2.35,4.38-2.92,16.53,12.46.47,26.79-10.22,52.56Z"/>
          <path class="cls-11" d="m670.19,880.66q4.38,9.85,8.76,19.71-13.14.36-26.28.73c.7-5.91,4.37-14.93,7.3-20.44,3.16-.4,7.43.58,10.22,0Z"/>
          <path class="cls-15" d="m659.97,933.22c-4.35,4.66-2.72,5.57-2.92,5.84-9.26,12.44-7.97,7.36-11.68,10.95-.68.66,1.89,11.21-11.68,5.11,1.86-5.31,7.35-18.52,7.3-21.9h18.98Z"/>
          <path class="cls-26" d="m693.55,940.52c-3.18,17.87-1.65,50.97-2.92,71.53-.05.73-2.51,4.88-1.46,14.6-.25,6.51-11.22,8.96-13.14,10.22-4.07-3.31,0-17.63-5.84-25.55v-25.55c4.33-14.89,6.67-49.55,23.36-45.26Z"/>
          <path class="cls-62" d="m676.03,1036.87c-1.41.93-6.18,8.43-11.68,7.3-3.72-10.36-3.78,1.3-8.76-3.65,3.29-18.69,9.31-36.59,14.6-54.75v25.55c5.85,7.92,1.77,22.24,5.84,25.55Z"/>
          <path class="cls-77" d="m700.85,937.6c-1.42,18.52-5.49,57.17-8.76,74.45h-1.46c1.27-20.56-.26-53.66,2.92-71.53.75-4.19,4.28-4.01,4.38-4.38q1.46.73,2.92,1.46Z"/>
          <path class="cls-15" d="m689.17,1026.65c-1.05-9.72,1.41-13.87,1.46-14.6h1.46c-.68,3.59-.14,11.57-2.92,14.6Z"/>
          <path class="cls-84" d="m624.93,1044.17c-7.44,6.91-5.56,6.93-5.84,7.3-2.68,3.58-6.58,5.33-7.3,11.68h-1.46c1.62-6.44,1.83-13.18,5.84-18.98,2.12-.5,3.12-9.43,8.76,0Z"/>
          <path class="cls-22" d="m696.47,902.56c.75,9.03-1.86,15.23-1.46,21.9-26.44,21.46-9.55,6.22-11.68-21.9,12.57,1.65,9.79-5.2,13.14,0Z"/>
          <path class="cls-15" d="m616.17,1025.19c-2.46-1.02-4.84-1.69-7.3-2.92q7.3-15.69,14.6-31.39,4.38-16.42,8.76-32.85c1.28-3.52,1.41-2.77,1.46-2.92,13.57,6.1,10.99-4.45,11.68-5.11,3.71-3.59,2.42,1.49,11.68-10.95,7.79-3.69-10.65,24.37-11.68,25.55-4.12,4.73-4.77-3.04-10.22,5.84,1.43,16.73-18.92,31.63-18.98,54.75Z"/>
          <path class="cls-49" d="m608.87,1022.27c2.46,1.23,4.84,1.9,7.3,2.92,2.29.95,2.04,2.21,5.84,2.92l10.22,11.68c-2.72,2.32-6.5,3.64-7.3,4.38-5.64-9.43-6.64-.5-8.76,0-4.01.95-12.31,5.82-16.06-8.03-3.04-11.23,4.21-11.33,5.84-15.33,1.1.21,1.91.96,2.92,1.46Z"/>
          <path class="cls-1" d="m608.87,1022.27c-1.01-.5-1.82-1.25-2.92-1.46,8.17-20.05,19.23-43.4,26.28-62.78q-4.38,16.42-8.76,32.85-7.3,15.69-14.6,31.39Z"/>
          <path class="cls-12" d="m632.23,1039.79l-10.22-11.68c13.09,2.43,11.18-8.63,11.68-9.49,9.28-15.88,14.08-32.44,20.44-35.77-7.61,18.34-20.91,42.3-17.52,54.75-1.98,2.94-4.19,2.03-4.38,2.19Z"/>
        </g>
        <g>
          <path class="cls-12" d="m438.07,883.58c-.02,1.4,1.59,1.6,1.46,2.92-4.93,6.25.6,5.77,0,10.22-.46,3.4-.96,6.83-1.46,10.22-3.91,26.53-12.48,79.76-5.84,51.83,3.46-5.22,10.27,8.83,9.49,21.17,3.55-24.24,6.79-48.64,9.49-72.99,1.3-11.78,5.07-16.17,2.92-20.44.61-1.27,6.87-4.35,7.3-4.38,16.76-1.16,36.39,11.68,43.8,27.01,18.97,39.26-3.9,78.54,10.22,70.07,6.87-4.12,17.25-75.47,55.48-67.88.19,4.77-.14,7.29,2.92,11.68-2.97,13.67-9.91,87.69-11.68,91.97-.23.55.73,2.39-2.19,4.38-2.83.62-3.82-1.62-6.57-1.46-9.87.57-33.12,1.34-18.98,10.22-.16.03.52,2.01-2.92,1.46-.07-.32-2.06,1.28-2.92-5.84-.11-.95.02-1.96,0-2.92,5.67-3.92,9.93-23.13,11.68-31.39,8.62-40.61-.14-15.77-5.84,5.11-3.9.41-5.69-4.86-10.22-7.3-13.56-7.31-25.05-3.96-36.5,5.84.74-3.28-.81-4.83-3.65-5.84-12.1-4.29-68.67-7.45-86.13-5.84-1.55-.68,1.72-2.06.73-5.84-4.12-15.73-5.07-12.94-20.44-17.52-3.83-1.14-7.81-1.87-11.68-2.92,8.73-15.47,52.63-86.04,71.53-71.53Z"/>
          <path class="cls-11" d="m398.65,975.56c-9.11,7.09-21.9-.86-32.12,4.38-3.44.54-6.83-4.81-7.3-7.3,12.03,6.42,20.75,1.03,18.98-14.6,15.37,4.58,16.32,1.79,20.44,17.52Z"/>
          <path class="cls-49" d="m378.21,958.04c1.77,15.63-6.95,21.02-18.98,14.6-2.14-11.46,6.81-16.65,7.3-17.52,3.87,1.05,7.84,1.78,11.68,2.92Z"/>
          <g>
            <path class="cls-28" d="m467.27,844.17c-.47-1.6.31-4.54,0-6.57-22.79-13.69-25.11.7-35.04,16.79,3.05-39.79,47.05-31.13,35.04-10.22Z"/>
            <g>
              <path class="cls-5" d="m449.75,906.94h1.46c-2.7,24.35-5.94,48.75-9.49,72.99.78-12.34-6.03-26.39-9.49-21.17-6.64,27.93,1.93-25.3,5.84-51.83,5.62.07,11.08,25.64,11.68,0Z"/>
              <path class="cls-51" d="m449.75,882.12c.3.08,4.24,4.1,4.38,4.38,2.15,4.27-1.62,8.66-2.92,20.44h-1.46c.23-9.9.58-10.92-10.22-10.22.6-4.45-4.93-3.97,0-10.22,2.96-3.75,4.72-5.85,10.22-4.38Z"/>
              <path class="cls-5" d="m449.75,906.94c-.6,25.64-6.06.07-11.68,0,.5-3.39,1-6.82,1.46-10.22,10.8-.7,10.45.32,10.22,10.22Z"/>
            </g>
            <g>
              <path class="cls-11" d="m467.27,844.17c9.43,32.11-9.2,15.33-5.84,37.96-.42.03-6.69,3.11-7.3,4.38-.14-.28-4.08-4.3-4.38-4.38,7.02-13.88-7.79-12.69-11.68-2.92-6.83-5-6.42-17.2-5.84-24.82,9.92-16.08,12.25-30.48,35.04-16.79.31,2.03-.47,4.97,0,6.57Z"/>
              <path class="cls-40" d="m449.75,882.12c-5.5-1.47-7.26.63-10.22,4.38.13-1.32-1.48-1.52-1.46-2.92.02-1.08-.08-4.18,0-4.38,3.89-9.77,18.7-10.96,11.68,2.92Z"/>
              <path class="cls-49" d="m450.48,839.79c8.95-1.2,3.31,19.4-2.92,18.98-8.7-.59-7.53-17.58,2.92-18.98Z"/>
            </g>
          </g>
        </g>
        <g>
          <path class="cls-12" d="m640.99,933.22c.05,3.38-5.44,16.59-7.3,21.9-.05.15-.18-.6-1.46,2.92-7.05,19.37-18.11,42.72-26.28,62.78-1.63,4-8.88,4.1-5.84,15.33,3.75,13.85,12.04,8.98,16.06,8.03-4.01,5.8-4.22,12.54-5.84,18.98-.03.1-1.62-.35-1.46,1.46-.12-.32-1.92-1.11-3.65-5.84-12.4-5.37-23.79-6.52-24.82-7.3-2.83-2.14-4.94-13.6-12.41-12.41q.73-1.82,1.46-3.65c4.08-11.08,10.06-12.16,5.84-23.36-1.96-5.21-4.09,3.33-1.46-11.68,4.89-27.83,19.18-55.71,20.44-83.21,3.07-2.86,5.8-.46,7.3-2.19.25-2.1-.36-4.57,0-6.57.25-1.39-.24-2.98,0-4.38,15.57.74,39.15,11.48,39.42,29.2Z"/>
          <path class="cls-11" d="m585.52,854.39c-4.62,22.46,1.87,27.5-5.84,51.1-.11.35-4.21,1.65-4.38,2.19-4.35,13.66,15.22,10.27,5.84,32.12-4.14,5.94,2.07-21.59-7.3-16.79-3.06-4.39-2.73-6.91-2.92-11.68-.03-.73,1.15-12.03,1.46-14.6,1.03-8.61,11.33-34.89,2.92-35.04,4.58-5.93-1.24-8.72,10.22-7.3Z"/>
          <path class="cls-18" d="m591.36,905.48c-3.03.67-4.48-1.37-7.3-1.46-1.35-.05-1.96,2.16-4.38,1.46,7.71-23.59,1.22-28.64,5.84-51.1.47.06,1.02-.12,1.46,0,3.21,5.57,8.41,5.57,2.92,9.49,10.63,9.94,5.96,29.39,1.46,41.61Z"/>
          <path class="cls-71" d="m601.58,904.02c-.24,1.4.25,2.99,0,4.38-2.65,5.77-5.96,6.68-10.22,2.92.52-1-.51-4.45,0-5.84,4.5-12.21,9.17-31.67-1.46-41.61,5.49-3.92.29-3.92-2.92-9.49,25.44,7.04,17.75,31.04,14.6,49.64Z"/>
          <path class="cls-18" d="m572.38,896.72c-25.96-12.09-8.39-20.39,2.92-35.04,8.41.15-1.89,26.42-2.92,35.04Z"/>
          <path class="cls-11" d="m591.36,911.32c4.26,3.76,7.56,2.85,10.22-2.92-.36,2,.25,4.47,0,6.57-1.5,1.73-4.23-.67-7.3,2.19-9.85,9.18-9.54,14.1-13.14,27.01-2.85,10.22-11.4,52.21-7.3,56.21-2.63,15.01-.5,6.47,1.46,11.68-8.76,3.42-6.4-9.15-8.76,2.19-.13.61,6.26,8.47-4.38.73,1.77-4.29,8.71-78.31,11.68-91.97,9.37-4.8,3.16,22.73,7.3,16.79,9.38-21.85-10.19-18.46-5.84-32.12.17-.53,4.27-1.84,4.38-2.19,2.42.7,3.03-1.5,4.38-1.46-7.58,11.3,1.57,18.34,7.3,7.3Z"/>
          <path class="cls-71" d="m534.42,994.54c-.98,3.6-2.09,5.89-2.92,10.22-8.13,1.94-21.47,10.9-29.93,11.68-6.35.58-7.6-2.88-8.03-2.92,8.95-5.36,19.61-17.57,30.66-26.28,4.52,2.44,6.32,7.71,10.22,7.3Z"/>
          <path class="cls-49" d="m575.3,1012.05c4.22,11.2-1.76,12.28-5.84,23.36-3.43.54-2.77-1.41-2.92-1.46-1.88-10.5-8.23-8.32-8.76-8.76-.33-.27-4.18-5.92-4.38-7.3,2.75-.16,3.74,2.08,6.57,1.46,2.92-1.99,1.96-3.83,2.19-4.38,10.64,7.74,4.25-.12,4.38-.73,2.36-11.34,0,1.23,8.76-2.19Z"/>
          <path class="cls-28" d="m553.4,1017.89c.2,1.38,4.05,7.03,4.38,7.3l-5.84,4.38c-4.02-.81-8.85-3.27-17.52-1.46-14.14-8.88,9.11-9.65,18.98-10.22Z"/>
          <path class="cls-24" d="m528.58,1020.81c-.15-6.37,1.82-10.32,2.92-16.06.83-4.32,1.94-6.62,2.92-10.22,5.7-20.88,14.46-45.72,5.84-5.11-1.75,8.25-6.01,27.46-11.68,31.39Z"/>
          <path class="cls-33" d="m573.84,1000.38c-4.1-4,4.45-45.99,7.3-56.21,3.59-12.91,3.29-17.83,13.14-27.01-1.26,27.51-15.55,55.38-20.44,83.21Z"/>
          <path class="cls-64" d="m591.36,905.48c-.51,1.39.52,4.84,0,5.84-5.73,11.04-14.88,4-7.3-7.3,2.82.09,4.27,2.13,7.3,1.46Z"/>
        </g>
        <g>
          <path class="cls-32" d="m1197.21,904.02c-.15,5.23-.94,9.55-1.46,14.6q-6.57,2.19-13.14,4.38c-.69-.07-7.72,4.79-4.38-8.76,1.54-6.25,13.16-10.43,18.98-11.68-.01.49.01.97,0,1.46Z"/>
          <path class="cls-66" d="m1258.53,1048.55c-5.08-6.13-22.96-12.39-26.28-20.44,2.53-2.75,7.47-7.2,8.76-8.76,6.16.41,21.62,22.5,17.52,29.2Z"/>
          <g>
            <path class="cls-54" d="m1264.36,958.04c2.87,13.46.23,26.11-5.84,37.96-.67,1.3-15.13,20.48-17.52,23.36-1.29,1.56-6.23,6.01-8.76,8.76-2.6,2.82-10.01,15-13.87,14.6-24.64-28.63-45.52-34.53-50.37-37.96-.28-.2-2.49.81-5.84-3.65-1.48-7.13-6.07-22.03-10.22-27.01-2.78-39.46,13.6-39.37,20.44-51.1.28-.48,4.14,2.64,2.92-8.76h2.92c-3.34,13.55,3.69,8.69,4.38,8.76,24.19,2.44,13.04-3.37,13.14-4.38.52-5.05,1.31-9.37,1.46-14.6,20.71.79,45.69,15.66,56.94,32.85,1.41,2.16,9.97,20.02,10.22,21.17Z"/>
            <path class="cls-74" d="m1238.82,969.72c11.52-5.23,18.32,15.08,8.76,23.36-1.16-34.8-8.84-13.95-10.22-14.6-1.32-.62-1.54-7.4,1.46-8.76Z"/>
            <path class="cls-5" d="m1182.61,923q6.57-2.19,13.14-4.38c-.1,1.01,11.05,6.82-13.14,4.38Z"/>
          </g>
          <path class="cls-81" d="m1229.33,1251.48c15.12-11.33,40.74-29.3,45.26-46.72.13,17.76-.1,35.53,0,53.29-2.53,3.6-39.06-5.8-45.26-6.57Z"/>
          <path class="cls-17" d="m1179.69,1068.99c-1.75,35.9-8.78,71.68-13.14,107.3l-3.65,5.11c-9.42,1.71-10.43-.18-10.95,0-.91-6.86,1.35-9.44,1.46-10.22.81-5.64.82-11.84,1.46-17.52.88-7.77,2.02-15.58,2.92-23.36,2.6-22.4,4.19-45.02,8.76-67.15,3.79,2.38,8.52,5.59,13.14,5.84Z"/>
          <g>
            <path class="cls-75" d="m1273.12,1114.25c1.89,27.11,1.25,62.48,1.46,90.51-4.51,17.42-30.14,35.38-45.26,46.72-11.25-1.41-23.97-.85-35.04-2.92-5.68-1.06-11.25-1.37-16.79-2.92-13.33-14.2-28.47-26.47-41.61-40.88,120.05,1.01,82.44,7.77,115.33-82.48.52-19.73,1.1-49.75,10.22-66.42,9.52,19.65,7.08,35.56,8.76,56.21.1,1.18,2.76-.1,2.92,2.19Z"/>
            <g>
              <path class="cls-80" d="m1232.25,1028.11c3.31,8.05,21.2,14.3,26.28,20.44,4.05,4.9,2.74,6.92,2.92,7.3-9.12,16.67-9.7,46.69-10.22,66.42-32.89,90.26,4.72,83.49-115.33,82.48-3.05-3.34-6.87-5.74-8.76-10.22-.16-2.41.11-4.88,0-7.3,26.75.72,23.54-5.4,24.82-5.84.52-.18,1.53,1.71,10.95,0l3.65-5.11c4.36-35.62,11.38-71.4,13.14-107.3.09-1.78,4.21-.26,2.92-8.03-7.41-20.48,3.16-45.98-17.52-47.45.12-.45-3.02-3.98,2.92-8.76,4.84,3.43,25.73,9.32,50.37,37.96,3.86.4,11.27-11.78,13.87-14.6Z"/>
              <path class="cls-75" d="m1210.35,1163.88c0,.97.41,2.5-.73,2.92-8.35,3.08-2.45-10.8-8.03,8.76-7.95.7-16.07,2.52-24.09,2.92-5.56-3.5,45.64-87.3,44.53-95.62,4.37-3.19,24.97-33.25,26.28-18.98.71,7.7-38.85,83.31-37.96,100Z"/>
              <path class="cls-20" d="m1201.59,1175.56c5.58-19.56-.32-5.68,8.03-8.76,1.14-.42.73-1.95.73-2.92,3.96-4.81,3.57,9.47,2.92,10.95-2.22,5.01-11.1.68-11.68.73Z"/>
            </g>
          </g>
        </g>
        <g>
          <path class="cls-43" d="m258.5,1125.93c46.29,31.67,88.98,69.86,131.39,106.57,20.58,17.81,40.8,36.1,61.32,54.02,4.91,4.29,9.6,8.78,14.6,13.14,50.7,44.25,100.74,88.95,151.83,132.85,10.64,9.14,56.6,48.81,61.32,54.02.16.18,1.22,2.12,1.46,2.92-9.23,1.47-19.01,2.18-27.74,5.84-38.93-.02-77.86.02-116.79,0,2.49-4.72,5.16-10.49,2.92-15.33-94.92-87.74-187.76-177.72-281.76-266.43-2.68-29.55-1.45-59.43-1.46-89.05.96.24,2.15.93,2.92,1.46Z"/>
          <path class="cls-47" d="m1495.03,1378.49c-.14,38.93.1,77.86,0,116.79-54.99.1-109.98-.14-164.97,0,2.45-3.71.3-31.13-2.19-32.12-45.01,10.36-91.16,18.54-135.04,32.12-116.79.15-233.58-.05-350.37,0,47.08-10.46,95.95-13.55,143.8-20.44,65.09-9.37,130.12-20.74,194.9-32.12,24.29-4.27,52.52-4.38,74.45-13.14,5.49-.07,10.74-1.88,16.06-2.92,74.7-14.61,148.94-32.21,223.36-48.18Z"/>
          <path class="cls-30" d="m1495.03,1378.49c-74.42,15.97-148.66,33.57-223.36,48.18q.73-69.34,1.46-138.69c7.99,2.51,15.94,5.33,24.09,7.3,1.66-9.7.7-19.45,2.19-29.2,4.5,10.45-3.27,13.97,6.57,21.9,3.49,2.81,64.78,30.7,75.18,30.66,3.14,7.1,29.56,13.41,37.23,18.98,16.18-13.27,26.69-42.04,21.17-61.32,2.06-1.08,4.34-1.69,5.84-3.65,5.28-6.9,39.89-125.09,49.64-145.26-.07,83.7.29,167.4,0,251.1Z"/>
          <path class="cls-21" d="m1181.15,1442.72c-64.78,11.38-129.8,22.75-194.9,32.12-47.85,6.89-96.72,9.98-143.8,20.44-15.09,0-30.17,0-45.26,0,.25-8.25-.35-16.57,0-24.82.02-.49-.02-.97,0-1.46,77.83-11.6,205.54-24.4,276.65-39.42,1.74-.37,7.63-1.61,6.57-4.38,2.37,2.04,3.18,4.16,5.11,4.38,13.81-3.79,28.28-4.81,42.34-7.3,1.22-.22-.19-2.46,2.19-2.92,11.4-2.2,37.01-2.52,42.34-8.76,4.55,10.02,5.43,21.7,8.76,32.12Z"/>
          <path class="cls-75" d="m1330.06,1495.28c-45.74.11-91.49-.06-137.23,0,43.88-13.58,90.03-21.76,135.04-32.12,2.49.99,4.64,28.41,2.19,32.12Z"/>
          <path class="cls-72" d="m797.2,1470.46c-.35,8.24.25,16.56,0,24.82-36.98.01-73.97.01-110.95,0v-7.3c6.79-1.09,13.57-1.76,20.44-2.92,30.13-5.09,60.15-10.95,90.51-14.6Z"/>
          <path class="cls-58" d="m455.59,1495.28c-9.73,0-19.47,0-29.2,0q.36-18.98.73-37.96,14.23,18.98,28.47,37.96Z"/>
          <path class="cls-45" d="m686.25,1487.98v7.3c-11.19,0-22.38,0-33.58,0,8.73-3.66,18.51-4.37,27.74-5.84,2.19-.35,3.65-1.11,5.84-1.46Z"/>
          <path class="cls-73" d="m255.58,997.46c.01,42.34-.02,84.67,0,127.01.01,29.62-1.22,59.5,1.46,89.05-.39-.37-3.19.43-3.65,0-32.41-30.59-64.9-61.15-97.08-91.97,2.67-12.35,1.46-25.44,1.46-37.96,0-12.81-.94-67.97,0-71.53,2.26-8.55,9.23,1.22,7.3-14.6,30.1-4.22,60.44-.02,90.51,0Z"/>
          <path class="cls-30" d="m659.97,1058.77c20.5,7.97,32.25-1.26,48.18-4.38,2.92-.57,5.9-.92,8.76-1.46v7.3c-1.78.21-28.3,13.29-32.12,16.06-11.46-1.9-15.97-4.93-13.14,13.14-18.36-10.68-37.1-25.22-59.86-18.98-.31-1.05-.2-5.58,0-7.3.72-6.35,4.62-8.1,7.3-11.68,11.36,14.2,26.62,25.03,40.88,7.3Z"/>
          <g>
            <path class="cls-40" d="m105.21,1368.27c-5.82,4.73-41.04,29.09-42.34,31.39-4.37,7.72-.68,36.93,10.95,34.31,2.07-.47,28.48-29.27,28.47-31.39-.01-2.44-16.08-8.5-16.06-11.68.01-1.58,21.54-17.19,24.82-19.71,2.88-2.21,29.26-20.96,30.66-19.71q5.11,29.2,10.22,58.4c5.04,13.71,40.57,38.41,40.88,85.4-51.74-.12-133.63,2.39-178.11,0,4.34-25.31-1.88-81.85,2.92-98.54,6.22-21.62,30.71-23.75,48.18-25.55,2.1-.22,1.15,3.04,2.19,2.92.76-.09,13.54-5.88,13.87-6.57,2.43-5.06-12.98-13.66,14.6-34.31,22.58-16.9,21.19-6.57,36.5,12.41-9.24,7.55-18.48,15.11-27.74,22.63Z"/>
            <path class="cls-85" d="m11.78,1085.05c8.04,9.83,9.77,29.89,13.14,37.23,8.57,18.65,19.54,1.91,18.98,86.13q19.71,27.01,39.42,54.02c-3.85,3.64-7.74,7.43-11.68,10.95-20.43,18.29-43.46,20.33-35.77,46.72,2.37,1.98,15.14-10.48,17.52-10.22,1.29.14,11.7,14.13,17.52,13.14-.26-29.79-14.48-26.93,10.95-49.64,1.52.14,1.98-2.44,2.92-.73-.74,7.53,2.29,43.99,4.38,46.72,5.33,6.97,16.3-4.25,2.92,9.49-18.31,18.79-32.18,17.41-26.28,42.34-17.47,1.79-41.96,3.93-48.18,25.55-4.8,16.69,1.42,73.23-2.92,98.54-4.84-.26-9.75.18-14.6,0-.08-139.18.11-278.35,0-417.53,2.98.43,10.17,5.45,11.68,7.3Z"/>
            <path class="cls-81" d="m111.05,1371.19c-3.28,2.52-24.81,18.12-24.82,19.71-.03,3.18,16.05,9.24,16.06,11.68.01,2.12-26.4,30.92-28.47,31.39-11.63,2.62-15.32-26.59-10.95-34.31,1.3-2.29,36.51-26.66,42.34-31.39l5.84,2.92Z"/>
            <path class="cls-81" d="m81.86,1273.37c-25.43,22.71-11.21,19.85-10.95,49.64-5.82.99-16.23-13-17.52-13.14-2.37-.26-15.15,12.19-17.52,10.22-7.69-26.39,15.33-28.42,35.77-46.72,7.1,3.72,6.21-.38,10.22,0Z"/>
            <path class="cls-81" d="m96.45,1333.23c-27.58,20.64-12.17,29.25-14.6,34.31-.33.69-13.11,6.48-13.87,6.57-1.04.12-.09-3.14-2.19-2.92-5.9-24.92,7.97-23.55,26.28-42.34l4.38,4.38Z"/>
          </g>
          <g>
            <path class="cls-69" d="m157.77,1012.05c-.94,3.56,0,58.73,0,71.53-14.75-.76-21.51-14.67-35.04-18.98-1.14-32.65-3-21.71-29.2-49.64-3.96-8.19,20.89-4.94,43.8-5.84.97-.04,1.95.05,2.92,0,6.78-.33,9.14-4.79,17.52,2.92Z"/>
            <path class="cls-50" d="m157.77,1083.59c0,12.52,1.21,25.61-1.46,37.96-11.17-10.7-20.84-22.82-32.12-33.58-2.51-7.65-1.19-15.55-1.46-23.36,13.53,4.31,20.28,18.22,35.04,18.98Z"/>
          </g>
          <path class="cls-69" d="m476.03,1016.43c17.28,19.34-5.49,66.97,22.63,71.53,3.75.61,10.1-.7,13.14-2.92,10.28-7.51,2.27-53.09,21.9-36.5,2.59,2.19,14.99,56.94,19.71,64.97-55.93,5.35-26.08,4.47,6.57,6.57,5.26,2.19,2.3,25.45,15.33,33.58,7.08,9.14-14.81,11.51-21.9,44.53,20.98,20.88,19.08,21.18-1.46,22.63v-2.92c6.39,3.11,13.46.17,13.14-3.65-.35-4.23-55.03-53.18-62.05-57.67-37.87-24.17-77.96-22.03-16.79,5.84-2.78,2.23-10.65,8.45-13.14,8.76-.86.11-2.16.18-2.92,0-2.21-.52-3.86-5.48-14.6-8.76-6.18.78.08-8.8-5.11-13.14-7.43,8.6-19.07,2.2-22.63,5.11-1.63,2.56-2.84,52.98-2.92,60.59-13.74,2-30.58-4.34-32.12,5.84-.77,5.12,6.93-.65-2.92,11.68-42.41-36.71-85.1-74.9-131.39-106.57,12.31-10.88,73.4-6.45,93.43-1.46-2.73.24-18.69,1.7-18.98,3.65,18.46,22.44,61.31,8.63,88.32,12.41l-3.65-14.6c3.16.05,6.33-.03,9.49,0,5.13-2.56-20.1-9.86-22.63-10.22-.94-7.67,3.92-2.33,4.38-3.65,1.25-3.63-1.19-18.35,0-24.09.64-3.11,8.09-16.45,14.6-14.6.23.34.88,6.01,3.65,7.3,3.8,1.77,7.62-1.43,8.03-1.46,6.65-.56,12.8.45,14.6-6.57,1.05-18.91,5.19-37.22,5.84-56.21h20.44Z"/>
          <path class="cls-50" d="m645.37,1160.96c18.72,45.93,38.84,24.73,39.42,13.14,5.96,3.03,8.98-5.23,14.6-7.3,1.39,3.27,6.7,9.15,7.3,10.22,1.62,2.87,7.67,14.48,7.3,17.52-2.18-.08-4.38.05-6.57,0-1.18,2.9-1.97,5.6-2.19,8.76-8.73,2.47-17.04,6.71-18.98,16.79-.63,3.26-1.11,63.29,0,66.42-.45,4.48-19.69,8.05-24.82,8.76-17.94-22.05-45.64-34.98-67.88-52.56h-113.87c2.85,9.39-3.06,2.77-3.65,5.11v35.04q-12.41,1.82-24.82,3.65c-20.52-17.91-40.74-36.2-61.32-54.02,9.85-12.33,2.15-6.56,2.92-11.68,10.32,2.44,22.91,1.7,33.58,1.46,15.07-.33,16.6-2.83,17.52-2.92.49-.05-1.75,6.17,7.3.73l.73-53.29c4.64,36.29-10.07,64.25,18.25,51.83v-47.45c.76.18,2.06.11,2.92,0v48.91c1.34,3.87,19.75.7,23.36.73,16.67.13,40.09,1.09,55.48,0,20.54-1.45,22.44-1.74,1.46-22.63,7.09-33.02,28.98-35.38,21.9-44.53,7.02,4.38,15.99,7.15,20.44-1.46,12.43,2.57,24.54,8.03,37.23,7.3,4.28,4.96,13.98,9.94,12.41,1.46Z"/>
          <g>
            <path class="cls-88" d="m703.77,1296.73c-.1,9.73.05,19.47,0,29.2-2.84,3.61-15.77-.29-17.52,2.19-1.92,2.71.08,57.71,0,66.42-.3,31.14.22,62.29,0,93.43-2.19.35-3.65,1.11-5.84,1.46-.24-.8-1.3-2.74-1.46-2.92,8.23,1.38,3.47-44.19,3.65-64.24-25.87-10.58-45.31,12.09-64.97,10.22-51.08-43.9-101.13-88.6-151.83-132.85,49.83-1.98,154.79,1.28,195.63-4.38,5.13-.71,24.37-4.28,24.82-8.76.57,1.6,14.17,9.29,17.52,10.22Z"/>
            <path class="cls-78" d="m678.95,1486.52c-4.71-5.21-50.68-44.87-61.32-54.02,19.65,1.87,39.09-20.8,64.97-10.22-.17,20.05,4.58,65.62-3.65,64.24Z"/>
          </g>
          <path class="cls-30" d="m1043.92,1125.93c-1.62,14.08-6.72,28.26-8.76,42.34-16.04,3.53-36.87,4.47-30.66,19.71,2.29,5.61,35.96,9.34,41.61,15.33,4.82-.43,4.71-10.33,5.11-13.14,6.95-.59,15.19.81,21.9,0,1.28,6.31,3.94,23.18,9.49,26.28,30.49,2.77,47.35,21.16,44.53-21.9,1.89,4.48,5.71,6.88,8.76,10.22,13.14,14.4,28.27,26.67,41.61,40.88,5.54,1.54,11.11,1.86,16.79,2.92v149.64q30.66,15.69,61.32,31.39c-21.93,8.76-50.16,8.87-74.45,13.14-3.33-10.42-4.21-22.1-8.76-32.12-1.28-2.81-2.02-6.44-2.92-7.3,10.38-3.26,1.28-22.69-4.38-37.23-1.8-4.62-46.97-99.35-48.18-71.53-.41,9.51,12.6,77.79,14.6,97.81l2.92.73q-2.19,13.14-4.38,26.28c-2.38.46-.97,2.7-2.19,2.92-14.06,2.49-28.53,3.51-42.34,7.3-1.93-.22-2.74-2.34-5.11-4.38-15.54-13.35-44.18-114.34-43.8-135.77.21-11.88,7.64-28.02,11.68-40.15-.55-2.34-33.36-15.16-35.77-18.25-.24,19.61-20.2,80.3,16.79,68.61-6.11,12.86-14.33,47.13-51.83,39.42-12.58-2.59-38.45-46.09-44.53-58.4-7.78-15.77-17.88-44.14-23.36-61.32-6.29-19.75-9.37-40.56-14.6-60.59-1.42-1.98-8.99-4.26-11.68-5.11h4.38q29.56,8.03,59.13,16.06c6.57-1.67,7.48-24.69,8.03-30.66,4.8,2.43,19.24,2.74,26.28,4.38,36.23,8.45,35.53,16.5,62.78-17.52Z"/>
          <g>
            <path class="cls-83" d="m1273.12,1287.97q-.73,69.34-1.46,138.69c-5.32,1.04-10.57,2.85-16.06,2.92q-30.66-15.69-61.32-31.39v-136.5c26.66,7.42,52.51,17.99,78.83,26.28Z"/>
            <path class="cls-37" d="m1318.38,1169.72c-1.43,32.35-14.02,63.81-18.98,96.35-1.49,9.74-.53,19.5-2.19,29.2-8.15-1.97-16.1-4.78-24.09-7.3-26.33-8.29-52.18-18.86-78.83-26.28v-13.14c11.07,2.07,23.78,1.51,35.04,2.92,6.19.77,42.72,10.17,45.26,6.57-.1-17.76.13-35.53,0-53.29-.21-28.03.43-63.4-1.46-90.51q22.63,6.93,45.26,13.87c-.45,13.83.61,27.79,0,41.61Z"/>
          </g>
          <path class="cls-61" d="m811.8,1244.18c3.19,9.68,4.06,33.72,16.79,36.5,22.55,4.92,23.18-17.88,25.55-33.58q39.42,16.79,78.83,33.58c6.07,12.3,31.94,55.81,44.53,58.4,37.5,7.72,45.72-26.56,51.83-39.42.27-.57,5.95-8.63,7.3-10.22-.38,21.43,28.25,122.42,43.8,135.77,1.06,2.77-4.83,4.01-6.57,4.38-71.11,15.02-198.82,27.82-276.65,39.42,3.43-86.1.48-172.28,1.46-258.4,5.43,1.18,11.26,27.89,13.14,33.58Z"/>
          <path class="cls-78" d="m1169.47,1403.3c.9.86,1.64,4.49,2.92,7.3-5.33,6.24-30.94,6.56-42.34,8.76q2.19-13.14,4.38-26.28c7.71.72,30.61,6,35.04,10.22Z"/>
          <path class="cls-21" d="m487.7,993.08c-.82.7-7.03,6.86-7.3,7.3-5.86-3.51-17.73-4.05-24.82-4.38-16.54-.78-47.73,1.52-56.94,0-3.18-.53-4.65-1.81-7.3-2.92-7.71-3.24-15.09-15.84-24.82-13.14,10.21-5.24,23,2.71,32.12-4.38.99,3.78-2.28,5.16-.73,5.84,17.46-1.61,74.04,1.55,86.13,5.84,2.84,1.01,4.39,2.56,3.65,5.84Z"/>
          <path class="cls-15" d="m1011.8,962.42c4.07,2.65,14.49,14.97,20.44,18.98-9.19,9.92-18.65,43.2-21.9,48.91-1.57,2.75-23.11,31.38-26.28,25.55,1.98-19.57,3.05-39.49,4.38-59.13,7.34-6.9,9.32-16.05,11.68-25.55.34-1.37.89-2.14,1.46-5.84.39-2.55-.71-4.63,1.46-7.3,5.78,9.23,8.21,4.02,8.76,4.38Z"/>
          <path class="cls-58" d="m986.99,941.98c1.34,4.56,2.3,14.96,2.92,20.44.65,5.75-.66,13.48,2.92,18.98-.37.96-13.48,11.41-14.6,14.6.11-2.81-5.91-6.17-10.22-11.68-.33-.42-1.19-2.63-1.46-2.92,24.67-1.85,11.52-21.51,8.76-48.18-.06-.62,2.69,3.59,2.92-10.22h1.46c-1.57,9.74,3.69,6.68,7.3,18.98Z"/>
          <path class="cls-36" d="m883.33,1153.66c2.68.85,10.26,3.13,11.68,5.11,5.23,20.03,8.3,40.84,14.6,60.59q-25.18-9.49-50.37-18.98c-2.73,2.1-4.02,39.48-5.11,46.72-2.37,15.69-2.99,38.5-25.55,33.58-12.73-2.78-13.59-26.81-16.79-36.5,7.86-12.71,3.38-67.71,9.49-75.91.87-1.17,2.62,1.7,3.65,1.46,1.5,1.61,22.54,13.48,24.09,13.14q11.31-14.6,22.63-29.2c.55.19,3.62-2.56,11.68,0Z"/>
          <path class="cls-48" d="m966.55,981.4c.27.29,1.13,2.5,1.46,2.92-1.04.51-4.22,2.71-4.38,2.92-5.95,7.5-11.16,32.37-14.6,43.07-8.41,17.81-16.56,35.7-21.9,54.75-10.38-6.41-9.98,12.35-18.25,29.2-7.43-2.16-16.38-5.74-22.63,0-6.71-2.44-12.64-7.24-18.98-10.22,15.73-17.28,48.79-109.54,52.56-114.6,2.4-3.23,4.81-3.54,7.3-5.11.56-.35,6.03,1.92,12.41-4.38,3.43-3.39,5.05-12.04,9.49-14.6,5.09,3.57,8.58,8.9,15.33,10.22,3.22,1.9,1.89,5.51,2.19,5.84Z"/>
          <path class="cls-30" d="m824.94,1134.69c.81,11.85-8.02,26.44,0,35.04-1.03.24-2.78-2.63-3.65-1.46-6.11,8.21-1.63,63.2-9.49,75.91-1.87-5.68-7.71-32.4-13.14-33.58-6.12-.45-12.3,2.04-16.06-3.65-10.15-26.45-16.56-54.02-24.82-81.02-.86-2.81-1.48-9.1-2.92-11.68,4.02.76,4.84-1.47,5.11-1.46,3.42.14,55.29,18.68,64.97,21.9Z"/>
          <path class="cls-26" d="m978.23,996c-3.06,8.75-3.51,97.05-5.84,118.25-7.51,1.33-12.19,6.2-18.98,8.76-2.99,1.13-7.21,4.17-8.76,4.38-7.81,1.05-6.93-1.42-7.3-1.46-.63-1.6-2.96-2.42-4.38-2.92q15.33-67.88,30.66-135.77c.16-.21,3.34-2.41,4.38-2.92,4.31,5.51,10.33,8.87,10.22,11.68Z"/>
          <path class="cls-73" d="m684.79,1076.29c14.04,2.32,27.82,11.58,42.34,10.22,2.39,7.06,15.33,5.73,23.36,11.68-.39,1.09.4,3.5,0,4.38-.23.51-.52,2.12-1.46,4.38-10.28,24.77-6.09,12.84-15.33,10.22-4.04-1.15-8.33-1.8-12.41-2.92-26.16-13.29-45.83-14.14-47.45-16.06-.29-.35-2.02-7.67-2.19-8.76-2.83-18.07,1.67-15.04,13.14-13.14Z"/>
          <path class="cls-21" d="m871.65,1153.66q-11.31,14.6-22.63,29.2c-1.54.34-22.59-11.53-24.09-13.14-8.02-8.59.81-23.18,0-35.04,25.25,8.39,40.22,16.69,46.72,18.98Z"/>
          <path class="cls-26" d="m932.97,1123.01c-4.78-1.67-9.84-1.89-13.14-6.57,1.18-10.76,4.39-21.03,7.3-31.39,5.34-19.04,13.49-36.94,21.9-54.75,3.44-10.69,8.65-35.56,14.6-43.07q-15.33,67.88-30.66,135.77Z"/>
          <g>
            <path class="cls-11" d="m937.35,1125.93c.37.04-.51,2.51,7.3,1.46,2.92,2.97,7.79,10.45,10.22,11.68-.55,5.97-1.46,28.99-8.03,30.66q-29.56-8.03-59.13-16.06c-17.64-1.6-7.72-15.58-6.57-16.06,2.7-1.13,20.32,6.99,21.17,2.19-18.45-41.09,4.21-17.08,35.04-13.87Z"/>
            <path class="cls-11" d="m852.68,1098.19c4.86.9,10.16,3.75,14.6,5.84,6.34,2.98,12.27,7.78,18.98,10.22-15.15,21.11-21.72,27.25-46.72,16.06-10.61-9.44,2.17-21.15,5.84-31.39.04-1.68,6.57-.86,7.3-.73Z"/>
          </g>
          <path class="cls-81" d="m852.68,1098.19c-.72-.13-7.26-.95-7.3.73-3.67,10.23-16.45,21.94-5.84,31.39-.81-.36-4.62-.15-6.57-1.46.36-9.01-14.92-9.21-5.11-35.77,4.03-10.9,31.95-30.53,42.34-38.69.06,2.44,1.35,4.78,2.92,6.57q-10.22,18.61-20.44,37.23Z"/>
          <path class="cls-11" d="m727.13,1086.51c-14.52,1.36-28.3-7.9-42.34-10.22,3.81-2.77,30.33-15.85,32.12-16.06,3.74-.44,5.65,4.38,6.57,4.38,1.72,0,4.33-9.18,10.95-3.65-18.29,12.53,6.48,4.19-7.3,25.55Z"/>
          <path class="cls-21" d="m754.86,1114.25c1.44,2.58,2.06,8.87,2.92,11.68-3.79.16-6.17,1.57-10.22,1.46-2.81-.07-4.26-2.14-7.3-1.46l-1.46-1.46c-1.01-1.58-14.43-8.65-17.52-10.22,4.08,1.12,8.37,1.77,12.41,2.92,9.24,2.62,5.05,14.55,15.33-10.22-.62,10.29,2.11.61,5.84,7.3Z"/>
          <g>
            <path class="cls-30" d="m826.4,905.48c4.37-.19,7.9,2.62,11.68,2.92-6.23,13.3,18.7,99.19,25.55,102.19,1.95.86,3.15-2.74,5.11-2.92-.16.35.21,2.34-2.92,5.84q-.73,4.01-1.46,8.03c5.4,9.87,5.58,22.1,5.84,32.85-10.39,8.16-38.31,27.79-42.34,38.69-9.81,26.56,5.47,26.75,5.11,35.77,1.95,1.31,5.76,1.1,6.57,1.46,24.99,11.19,31.57,5.05,46.72-16.06,6.25-5.74,15.2-2.16,22.63,0,8.27-16.84,7.87-35.6,18.25-29.2-2.9,10.36-6.12,20.63-7.3,31.39,3.3,4.68,8.36,4.9,13.14,6.57,1.42.5,3.75,1.32,4.38,2.92-30.83-3.21-53.48-27.22-35.04,13.87-.85,4.8-18.47-3.32-21.17-2.19-1.15.48-11.07,14.46,6.57,16.06h-4.38c-8.05-2.56-11.13.19-11.68,0-6.5-2.29-21.47-10.59-46.72-18.98-9.67-3.21-61.54-21.75-64.97-21.9-.27-.01-1.09,2.22-5.11,1.46-3.73-6.69-6.46,3-5.84-7.3.94-2.26,1.23-3.87,1.46-4.38,5.3-.93,14.53,4.38,15.33,4.38,17.29-.05-11.69-18.85-15.33-8.76-8.03-5.95-20.97-4.61-23.36-11.68,13.78-21.36-10.99-13.01,7.3-25.55-6.62-5.53-9.23,3.66-10.95,3.65-.92,0-2.83-4.82-6.57-4.38v-7.3c2.82-.54,7.46-.02,14.6-1.46,3.41-.69,9.38,1.72,11.68-2.19,4.06-23.53,7.12-67.57,11.68-86.86,2.34-9.89,3.55-20.35,16.06-21.9,2.81,4.75,6.09,5.42,8.76,11.68-1.71,3.99-2.08,9.76-2.92,14.6-1.51,8.68-3.51,15.78,4.38,27.01,5.91,8.41,14.23,10.82,14.6,11.68,1.61,3.8-2.34,29.67,2.19,16.79,3.08,14.7,2.03-8.35,2.19-13.14.62-19.1,1.45-38.02,4.38-56.94,7.64-15.39,9.54-31.96,10.22-33.58,3.81-9.14,5.36-12.86,11.68-13.14Z"/>
            <path class="cls-87" d="m750.48,1102.57c.4-.88-.39-3.29,0-4.38,3.64-10.09,32.62,8.71,15.33,8.76-.8,0-10.03-5.31-15.33-4.38Z"/>
            <path class="cls-27" d="m768.73,1028.11c1.06.03,1.21,19.96.73,21.17-3.26,8.22-8.4.15-.73-21.17Z"/>
            <path class="cls-9" d="m782.6,965.34c.08.96-.04,1.95,0,2.92-2.48-.12-3.62.15-5.84-1.46.84-4.84,1.21-10.61,2.92-14.6,1.33,3.12,2.65,9.74,2.92,13.14Z"/>
          </g>
          <g>
            <path class="cls-69" d="m378.21,997.46c28.87,21.13,35.41,61.23,45.26,75.91-6.51-1.85-13.95,11.49-14.6,14.6-21.66-31.02-22.47,9.58-25.55,26.28-17.83,2.79,12.6.23,21.17,1.46,2.53.36,27.76,7.66,22.63,10.22-3.16-.03-6.33.05-9.49,0-21.72-.35-43.93-3.36-65.69-1.46-20.03-4.99-81.13-9.42-93.43,1.46-.77-.53-1.96-1.22-2.92-1.46-.02-42.34.01-84.67,0-127.01,8.76,0,17.52-.08,26.28,0,31.97.28,64.34-4.45,96.35,0Z"/>
            <path class="cls-35" d="m342.45,1074.83c36.09-6.55,30.98,14.43,29.2,42.34q-22.26-.36-44.53-.73c1.18-16.03-6.18-37.7,15.33-41.61Z"/>
          </g>
          <g>
            <path class="cls-39" d="m417.63,1125.93l3.65,14.6c-27.01-3.78-69.86,10.03-88.32-12.41.29-1.95,16.25-3.41,18.98-3.65,21.76-1.9,43.98,1.11,65.69,1.46Z"/>
            <path class="cls-39" d="m408.87,1087.97c-1.19,5.73,1.25,20.46,0,24.09-.46,1.32-5.32-4.02-4.38,3.65-8.57-1.23-39,1.33-21.17-1.46,3.08-16.7,3.89-57.29,25.55-26.28Z"/>
          </g>
          <g>
            <path class="cls-35" d="m398.65,996c25.9,21.03,24.63,54.79,36.5,83.21-.41.03-4.23,3.23-8.03,1.46-2.77-1.29-3.42-6.96-3.65-7.3-9.85-14.68-16.38-54.78-45.26-75.91q6.57-2.19,13.14-4.38c2.65,1.11,4.12,2.39,7.3,2.92Z"/>
            <path class="cls-6" d="m455.59,996c-.17,6.8.23,13.64,0,20.44-.64,18.98-4.79,37.3-5.84,56.21-1.8,7.02-7.95,6.01-14.6,6.57-11.87-28.42-10.6-62.19-36.5-83.21,9.21,1.52,40.4-.78,56.94,0Z"/>
          </g>
          <path class="cls-63" d="m480.4,1000.38c-1.99,3.25-2.38,6.48-2.92,10.22-.04.3-2.21-.82-1.46,5.84h-20.44c.23-6.8-.17-13.64,0-20.44,7.09.33,18.96.87,24.82,4.38Z"/>
          <g>
            <g>
              <path class="cls-39" d="m551.94,1217.9v2.92c-15.39,1.09-38.81.13-55.48,0-12.8-2.21-6.96-5.17-7.3-21.9,11.12,9.32,1.62-15.97,13.14-18.25-8.31-37.97,43.48,34.23,49.64,37.23Z"/>
              <path class="cls-39" d="m551.94,1217.9c-6.16-2.99-57.95-75.2-49.64-37.23-11.52,2.28-2.02,27.57-13.14,18.25-.22-10.94.16-21.9,0-32.85l-2.92-3.65c-61.17-27.87-21.09-30.01,16.79-5.84,7.02,4.48,61.69,53.44,62.05,57.67.32,3.82-6.75,6.76-13.14,3.65Z"/>
            </g>
            <path class="cls-39" d="m455.59,1162.42c10.74,3.28,12.39,8.24,14.6,8.76v47.45c-28.32,12.42-13.61-15.54-18.25-51.83l-.73,53.29c-9.05,5.44-6.8-.78-7.3-.73-1.1-17.8,1.04-35.55,1.46-53.29.11-4.7-8.16-14.92,6.57-.73,2.91.45,3.43-2.99,3.65-2.92Z"/>
            <path class="cls-50" d="m489.16,1198.92c.34,16.73-5.5,19.69,7.3,21.9-3.61-.03-22.02,3.14-23.36-.73v-48.91c2.49-.31,10.35-6.52,13.14-8.76l2.92,3.65c.16,10.94-.22,21.91,0,32.85Z"/>
            <g>
              <path class="cls-39" d="m455.59,1162.42c-.22-.07-.74,3.37-3.65,2.92-14.73-14.19-6.46-3.97-6.57.73-.42,17.74-2.56,35.49-1.46,53.29-.92.09-2.45,2.59-17.52,2.92.83-4.77-1.47-6.46-1.46-7.3.08-7.6,1.29-58.03,2.92-60.59,3.56-2.91,15.19,3.49,22.63-5.11,5.19,4.34-1.07,13.92,5.11,13.14Z"/>
              <path class="cls-69" d="m424.93,1214.98c0,.84,2.29,2.53,1.46,7.3-10.67.24-23.26.98-33.58-1.46,1.54-10.18,18.38-3.84,32.12-5.84Z"/>
            </g>
          </g>
          <g>
            <path class="cls-29" d="m757.78,1125.93c8.26,27,14.67,54.57,24.82,81.02,3.76,5.69,9.94,3.2,16.06,3.65-.98,86.12,1.97,172.3-1.46,258.4-.02.49.02.97,0,1.46-30.36,3.65-60.39,9.51-90.51,14.6-2.36-32.08-1.22-64.24-1.46-96.35-.15-20.82-1.56-42.09-1.46-62.78.05-9.73-.1-19.47,0-29.2.22-22.01.54-80,1.46-93.43.22-3.16,1.01-5.86,2.19-8.76,2.19.05,4.38-.08,6.57,0,.89.03,6.09,3.9,16.06,2.92,6.55-.65,13.71-4.1,16.06-10.95.97-2.82,5.65-53.65,1.46-59.13,4.05.11,6.43-1.3,10.22-1.46Z"/>
            <path class="cls-63" d="m706.69,1485.06c-6.86,1.16-13.64,1.83-20.44,2.92.22-31.14-.3-62.29,0-93.43,15.21,1.81,16.06,18.29,18.98-5.84.24,32.11-.9,64.27,1.46,96.35Z"/>
            <path class="cls-78" d="m703.77,1296.73c-3.35-.93-16.95-8.62-17.52-10.22-1.11-3.13-.63-63.16,0-66.42,1.94-10.08,10.25-14.31,18.98-16.79-.92,13.43-1.24,71.43-1.46,93.43Z"/>
            <path class="cls-41" d="m705.23,1388.71c-2.92,24.13-3.77,7.65-18.98,5.84.08-8.72-1.92-63.71,0-66.42,1.75-2.48,14.68,1.42,17.52-2.19-.1,20.69,1.31,41.96,1.46,62.78Z"/>
          </g>
          <g>
            <path class="cls-69" d="m645.37,1160.96c1.57,8.48-8.12,3.5-12.41-1.46-12.69.73-24.8-4.73-37.23-7.3,12.35-23.92-8.02-39.91-7.3-44.53.17-1.1,10.05-9.12,10.22-10.22.32-2.08-4.39-8.27-4.38-8.76.17-7.99,12.55-.14,29.2,2.92,6.82,20.52,14.08,50.17,21.9,69.34Z"/>
            <path class="cls-2" d="m721.29,1114.25c3.09,1.57,16.51,8.64,17.52,10.22-10.95,10.17-24.05,17.6-35.04,27.74-.4.37-2.77-.73-8.76,6.57,2.16,2.37,3.15,5.13,4.38,8.03-5.62,2.07-8.64,10.33-14.6,7.3.27-5.35-11.22-55.4-10.22-73.72,15.47,5.27,30.96,9.54,46.72,13.87Z"/>
          </g>
          <g>
            <path class="cls-39" d="m661.43,1295.27c-40.83,5.66-145.8,2.4-195.63,4.38-5-4.36-9.69-8.85-14.6-13.14q12.41-1.82,24.82-3.65v-35.04c.59-2.34,6.5,4.28,3.65-5.11h113.87c22.25,17.58,49.95,30.5,67.88,52.56Z"/>
            <path class="cls-76" d="m488.43,1245.64c.85-.4,5.88-.25,6.57.73,1.03,1.46.73,34.73-.73,35.77-12.55,8.92-8.53-35.25-5.84-36.5Z"/>
          </g>
          <path class="cls-66" d="m1045.38,1106.95c-.61,6.26-.73,12.68-1.46,18.98-27.24,34.02-26.55,25.97-62.78,17.52,41.24-32.04,50.42-85.17,70.07-130.66,1.14-2.65-2.34-4.44-.73-5.11,1.47-.79,3.62,3.39,3.65,3.65.47,4.02-8.91,67.07-10.22,80.29-.41,4.14,1.77,12.12,1.46,15.33Z"/>
          <path class="cls-69" d="m909.61,1219.36c5.48,17.18,15.57,45.54,23.36,61.32q-39.42-16.79-78.83-33.58c1.09-7.23,2.38-44.62,5.11-46.72q25.18,9.49,50.37,18.98Z"/>
          <path class="cls-21" d="m1169.47,1403.3c-4.42-4.22-27.33-9.5-35.04-10.22l-2.92-.73c-2-20.03-15.01-88.31-14.6-97.81,1.21-27.82,46.38,66.92,48.18,71.53,5.66,14.53,14.76,33.97,4.38,37.23Z"/>
          <path class="cls-21" d="m1036.62,1289.43c-1.35,1.59-7.03,9.65-7.3,10.22-36.99,11.69-17.03-49.01-16.79-68.61,2.41,3.09,35.22,15.91,35.77,18.25-4.04,12.12-11.47,28.26-11.68,40.15Z"/>
          <path class="cls-53" d="m1058.52,1112.79c5.52,3.39,8.42,4.03,8.76,4.38,1.06,1.08,1.36,1.61,2.92,2.19.78,14.45-2.93,28.58-2.92,43.07-6.38.62-20.07,5.92-27.01,7.3-5.49,1.09-4.85-1.52-5.11-1.46,2.04-14.08,7.14-28.26,8.76-42.34.73-6.3.85-12.71,1.46-18.98,1.8-2.21,6.3,1.64,13.14,5.84Z"/>
          <g>
            <path class="cls-11" d="m1108.16,1169.72c1.24.75,12.18,9.29,13.14,10.22,2.24,2.16,4.08,1.02,5.84,3.65v3.65c.11,2.42-.16,4.88,0,7.3,2.82,43.05-14.04,24.67-44.53,21.9-5.55-3.1-8.21-19.97-9.49-26.28,7.31-.88,13.61-4.23,20.44-6.57-19-27.62-45.23,1.56-45.26,4.38-.01,1.06,2.95,2.01,2.92,2.19-.4,2.81-.29,12.71-5.11,13.14-5.65-5.98-39.32-9.72-41.61-15.33-6.21-15.24,14.62-16.17,30.66-19.71.26-.06-.38,2.55,5.11,1.46,6.94-1.38,20.63-6.68,27.01-7.3,23.48-2.29,28.6-.1,40.88,7.3Z"/>
            <path class="cls-65" d="m1073.12,1190.16c-6.71.81-14.94-.59-21.9,0,.03-.18-2.93-1.13-2.92-2.19.03-2.82,26.25-32,45.26-4.38-6.82,2.34-13.13,5.69-20.44,6.57Z"/>
          </g>
          <path class="cls-11" d="m524.2,987.24c-11.05,8.7-21.7,20.92-30.66,26.28-.85-.07-4.66,3.16-16.06-2.92.54-3.74.93-6.97,2.92-10.22.27-.44,6.48-6.6,7.3-7.3,11.45-9.79,22.94-13.15,36.5-5.84Z"/>
          <g>
            <path class="cls-81" d="m1125.68,965.34c-.06.53-2.84,7.43-2.92,10.22-5.7,1.15-15.01,13.44-18.98,18.25,4.76,13.62,2.25,22.26,0,35.77-6.71,4.03-.01-9.96,0-12.41.09-19.48-13.17-59.74-23.36-57.67,5.79-15.7-3-43.65-20.44-49.64,33.75-20.38,69.82,18.56,65.69,55.48Z"/>
            <path class="cls-11" d="m1059.98,909.86c17.44,5.99,26.23,33.94,20.44,49.64-2.85,7.73-25.82,21.21-29.2,30.66-7.78-1.84-6.04-2.51-7.3-2.92,3.34-14.58,3.1-58.49,5.84-67.15,1.61-5.11,5.86-7.59,10.22-10.22Z"/>
            <path class="cls-34" d="m1049.76,920.08c-2.74,8.66-2.5,52.57-5.84,67.15-4.3-1.39-8-3.36-11.68-5.84-5.94-4.01-16.37-16.33-20.44-18.98,9.52-12.76,30.27-42.96,37.96-42.34Z"/>
            <path class="cls-30" d="m1103.78,1029.57c.19,1.44,3.05,2.34,4.38,2.92-21.06,37.93-37.31,32.13-40.88,84.67-.34-.35-3.24-.99-8.76-4.38,7.23-34.69,24.12-99.67-3.65-125.55-1.02.72-2.44,3.21-3.65,2.92,3.38-9.44,26.35-22.93,29.2-30.66,10.19-2.08,23.45,38.18,23.36,57.67-.01,2.45-6.71,16.44,0,12.41Z"/>
          </g>
          <path class="cls-77" d="m984.07,1055.85c-2.06,20.41-3.16,41.81-6.57,61.32-2.78.17-4.82-2.97-5.11-2.92,2.32-21.2,2.77-109.5,5.84-118.25,1.12-3.19,14.23-13.63,14.6-14.6.16-.43-.17-1.05,0-1.46q3.65-4.38,7.3-8.76c-2.36,9.5-4.34,18.65-11.68,25.55-1.33,19.64-2.4,39.56-4.38,59.13Z"/>
          <path class="cls-87" d="m1001.58,965.34c-.57,3.7-1.12,4.47-1.46,5.84q-3.65,4.38-7.3,8.76c1.65-3.94-4.77-14.28,8.76-14.6Z"/>
          <g>
            <path class="cls-79" d="m943.19,933.22c6.43,9.66,6.11,38.28,19.71,35.04,7.78-1.86,3.39-16.57,3.65-36.5q4.38.73,8.76,1.46c2.77,26.67,15.91,46.33-8.76,48.18-.3-.33,1.03-3.94-2.19-5.84-6.75-1.32-10.24-6.65-15.33-10.22-.23-.16-2.66-4.38-3.65-4.38-4.79,0-11.77,14.21-13.14,14.6-3.89,1.1-9.21-4.24-8.03-8.03.87-2.79,18.45-1.39-2.92-37.23,3.58-1.71,7.04-3.43,10.22-5.84,2.55,2.56,10.36,6.78,11.68,8.76Z"/>
            <path class="cls-58" d="m972.39,904.02c-9.36,8.84-5.7,16.85-5.84,27.74-.26,19.92,4.13,34.64-3.65,36.5-13.6,3.25-13.28-25.38-19.71-35.04,11.54-4.2,7.04-29.1,5.84-40.88,10.48-.97,18.12,2.35,23.36,11.68Z"/>
            <path class="cls-28" d="m978.23,923c-.23,13.81-2.98,9.6-2.92,10.22q-4.38-.73-8.76-1.46c.14-10.89-3.52-18.9,5.84-27.74,4.27,7.6,3.68,11.27,5.84,18.98Z"/>
          </g>
          <path class="cls-52" d="m954.87,1139.06c-2.43-1.23-7.3-8.71-10.22-11.68,1.55-.21,5.77-3.25,8.76-4.38,6.25.41,1.86,11.7,1.46,16.06Z"/>
          <g>
            <path class="cls-21" d="m531.5,1004.76c-1.1,5.74-3.07,9.69-2.92,16.06.02.96-.11,1.97,0,2.92-1.64-.43-3.89.85-4.38,2.19-7.7,21.02,8.95,20.5,10.22,17.52,1.75-4.1-2.09-9.85-2.92-13.87,3.44.55,2.76-1.43,2.92-1.46,8.67-1.81,13.5.65,17.52,1.46,4.16.84,10.45,2.94,14.6,4.38.15.05-.51,2,2.92,1.46q-.73,1.82-1.46,3.65c7.46-1.19,9.57,10.27,12.41,12.41,1.03.78,12.42,1.93,24.82,7.3,1.73,4.73,3.53,5.52,3.65,5.84.44,1.13,1.97,30.42,8.76,15.33,2.42-5.38-5.38-7.93-5.84-9.49,22.75-6.25,41.49,8.3,59.86,18.98.17,1.09,1.9,8.41,2.19,8.76,1.62,1.91,21.28,2.77,47.45,16.06-15.76-4.33-31.24-8.6-46.72-13.87-1,18.33,10.48,68.37,10.22,73.72-.57,11.59-20.69,32.79-39.42-13.14-7.82-19.18-15.08-48.82-21.9-69.34-16.65-3.06-29.02-10.91-29.2-2.92-.01.49,4.7,6.68,4.38,8.76-.17,1.1-10.05,9.12-10.22,10.22-.72,4.62,19.65,20.61,7.3,44.53-4.45,8.61-13.42,5.84-20.44,1.46-13.02-8.13-10.07-31.39-15.33-33.58-32.65-2.1-62.5-1.22-6.57-6.57-4.72-8.02-17.12-62.77-19.71-64.97-19.63-16.59-11.62,28.99-21.9,36.5-3.04,2.22-9.39,3.53-13.14,2.92-28.12-4.56-5.34-52.2-22.63-71.53-.75-6.66,1.42-5.54,1.46-5.84,11.4,6.08,15.21,2.85,16.06,2.92.43.04,1.68,3.5,8.03,2.92,8.46-.78,21.79-9.74,29.93-11.68Z"/>
            <path class="cls-63" d="m611.79,1063.15c-.2,1.72-.31,6.25,0,7.3.46,1.55,8.26,4.11,5.84,9.49-6.79,15.09-8.32-14.2-8.76-15.33-.16-1.81,1.43-1.36,1.46-1.46h1.46Z"/>
            <path class="cls-73" d="m528.58,1023.73c.86,7.12,2.85,5.52,2.92,5.84.83,4.02,4.67,9.77,2.92,13.87-1.27,2.98-17.92,3.51-10.22-17.52.49-1.34,2.74-2.62,4.38-2.19Z"/>
            <path class="cls-3" d="m566.54,1033.95c-4.15-1.44-10.44-3.54-14.6-4.38l5.84-4.38c.53.44,6.88-1.74,8.76,8.76Z"/>
            <path class="cls-23" d="m593.55,1068.99c6.68.97,14.65,12.24,11.68,13.14q-5.84-6.57-11.68-13.14Z"/>
          </g>
          <g>
            <path class="cls-48" d="m1043.92,987.24c1.26.41-.48,1.08,7.3,2.92,1.21.29,2.63-2.2,3.65-2.92,27.77,25.88,10.88,90.87,3.65,125.55-6.84-4.2-11.34-8.05-13.14-5.84.31-3.21-1.87-11.19-1.46-15.33,1.31-13.23,10.69-76.27,10.22-80.29-.03-.26-2.18-4.44-3.65-3.65-1.61.67,1.87,2.46.73,5.11-19.65,45.49-28.83,98.62-70.07,130.66-7.04-1.64-21.48-1.95-26.28-4.38.4-4.36,4.79-15.65-1.46-16.06,6.79-2.56,11.47-7.43,18.98-8.76.29-.05,2.33,3.09,5.11,2.92,3.41-19.51,4.51-40.91,6.57-61.32,3.17,5.84,24.71-22.8,26.28-25.55,3.25-5.7,12.71-38.98,21.9-48.91,3.68,2.48,7.38,4.45,11.68,5.84Z"/>
            <path class="cls-66" d="m1003.77,1071.91c8.41-.74-1.1,31.42-2.19,32.85-2.33,3.04-12.4,1.56-13.87.73-8.64-4.85,13.65-33.36,16.06-33.58Z"/>
          </g>
          <g>
            <path class="cls-80" d="m1119.84,1074.83c2.41,14.06,3.12,28.57,7.3,42.34-.27,1.65-2.68,4.24-2.92,5.84-5.41-3.03-5.98-21.75-8.76-27.01-2.84,24.53.43,49.84-7.3,73.72-12.28-7.4-17.4-9.59-40.88-7.3,0-14.49,3.7-28.62,2.92-43.07-1.55-.58-1.86-1.11-2.92-2.19,3.56-52.55,19.82-46.74,40.88-84.67.2.09-.03-3.12,4.38-.73.16,14.71,4.84,28.77,7.3,43.07Z"/>
            <path class="cls-12" d="m1124.22,1123.01c-1.29,8.76-.98,20.05-1.46,29.2-.3,5.8.4,11.73,0,17.52-.26,3.65-1.88,6.52-1.46,10.22-.96-.93-11.9-9.47-13.14-10.22,7.73-23.89,4.46-49.2,7.3-73.72,2.78,5.26,3.35,23.98,8.76,27.01Z"/>
          </g>
          <g>
            <path class="cls-70" d="m740.26,1125.93c-4.51,8.63-1.27,12.51-1.46,13.14-.2.66-5.11,9.5-7.3,11.68-7.25,7.22-12.42,9.06-21.9,4.38-.29-.14-2.37-3.22-5.84-2.92,10.99-10.14,24.09-17.56,35.04-27.74l1.46,1.46Z"/>
            <g>
              <path class="cls-32" d="m727.13,1188.7c.38,3.5-2.49,2.33,0,5.84.4.57-.59,1.54,2.92,1.46v1.46c-9.97.98-15.17-2.89-16.06-2.92.37-3.04-5.68-14.65-7.3-17.52,3.76-6.76,2.12-14.11,2.92-21.9,9.48,4.68,14.65,2.84,21.9-4.38-3.18,14.95-6.06,22.65-4.38,37.96Z"/>
              <path class="cls-55" d="m703.77,1152.2c3.47-.3,5.55,2.78,5.84,2.92-.8,7.79.84,15.14-2.92,21.9-.6-1.07-5.91-6.95-7.3-10.22-1.23-2.9-2.22-5.66-4.38-8.03,5.99-7.3,8.36-6.2,8.76-6.57Z"/>
              <path class="cls-56" d="m747.56,1127.39c4.19,5.48-.49,56.3-1.46,59.13-2.35,6.85-9.51,10.3-16.06,10.95v-1.46c17.39-.38,15.7-48.03,14.6-51.1-1.13-3.17-1.53-5.98-5.84-5.84.19-.63-3.05-4.51,1.46-13.14,3.04-.68,4.48,1.39,7.3,1.46Z"/>
              <path class="cls-32" d="m744.64,1144.9c1.1,3.07,2.79,50.71-14.6,51.1-3.51.08-2.52-.89-2.92-1.46,3.85-1.4,4.03-4.33,0-5.84-1.68-15.31,1.2-23.01,4.38-37.96,2.19-2.18,7.1-11.02,7.3-11.68l5.84,5.84Z"/>
              <path class="cls-32" d="m727.13,1194.54c-2.49-3.51.38-2.34,0-5.84,4.03,1.51,3.85,4.44,0,5.84Z"/>
              <path class="cls-14" d="m744.64,1144.9l-5.84-5.84c4.31-.14,4.71,2.67,5.84,5.84Z"/>
            </g>
          </g>
          <g>
            <path class="cls-12" d="m1151.95,974.1c4.15,4.98,8.74,19.87,10.22,27.01,3.35,4.46,5.56,3.45,5.84,3.65-5.94,4.78-2.8,8.31-2.92,8.76-.05.18-2.63.91-2.92,2.19-2.6,11.41-3.92,29.15-7.3,41.61l-1.46,4.38q2.19-25.91,4.38-51.83c-34.54,27.95,4.48-26.24-25.55-34.31-1.15-.31-8.05-.29-9.49,0,.08-2.79,2.86-9.69,2.92-10.22,11.68.31,18.28-.82,26.28,8.76Z"/>
            <path class="cls-11" d="m1153.41,1061.69c-7.66-.07-13.15,3.22-16.06,10.22-3.82-7-8.08,4.3-17.52,2.92-2.46-14.3-7.14-28.36-7.3-43.07-4.41-2.39-4.18.82-4.38.73-1.33-.57-4.19-1.48-4.38-2.92,2.25-13.51,4.76-22.15,0-35.77,3.97-4.81,13.28-17.1,18.98-18.25,1.44-.29,8.33-.31,9.49,0,30.03,8.07-8.99,62.25,25.55,34.31q-2.19,25.91-4.38,51.83Z"/>
            <path class="cls-58" d="m1179.69,1068.99c-4.62-.25-9.35-3.46-13.14-5.84-2.62-1.64-2.4-7.4-11.68-5.84,3.38-12.46,4.7-30.2,7.3-41.61.29-1.28,2.87-2.01,2.92-2.19,20.68,1.47,10.11,26.97,17.52,47.45,1.29,7.77-2.83,6.25-2.92,8.03Z"/>
            <path class="cls-58" d="m1137.35,1071.91c-.89,2.14-9.36,40.1-10.22,45.26-4.18-13.76-4.89-28.28-7.3-42.34,9.44,1.38,13.7-9.92,17.52-2.92Z"/>
          </g>
          <g>
            <path class="cls-37" d="m1166.55,1063.15c-4.57,22.13-6.16,44.76-8.76,67.15-15.27-6.67-32.05-6.45-33.58-7.3.24-1.6,2.65-4.19,2.92-5.84.86-5.16,9.33-43.11,10.22-45.26,2.91-7,8.4-10.29,16.06-10.22l1.46-4.38c9.28-1.56,9.06,4.2,11.68,5.84Z"/>
            <path class="cls-86" d="m1153.41,1171.18c-.11.78-2.37,3.36-1.46,10.22-1.27.43,1.93,6.56-24.82,5.84v-3.65c-1.76-2.63-3.6-1.49-5.84-3.65-.42-3.7,1.2-6.57,1.46-10.22q15.33.73,30.66,1.46Z"/>
            <path class="cls-82" d="m1157.79,1130.31c-.9,7.77-2.04,15.58-2.92,23.36-10.22-5.1-21.25-1.75-32.12-1.46.48-9.14.17-20.44,1.46-29.2,1.52.85,18.3.63,33.58,7.3Z"/>
            <path class="cls-59" d="m1154.87,1153.66c-.64,5.68-.64,11.88-1.46,17.52q-15.33-.73-30.66-1.46c.4-5.79-.3-11.72,0-17.52,10.86-.29,21.9-3.64,32.12,1.46Z"/>
          </g>
        </g>
      </g>
    </g>
  </g>
</svg>