<?xml version="1.0" encoding="UTF-8"?>
<svg id="Calque_2" data-name="Calque 2" xmlns="http://www.w3.org/2000/svg" xmlns:xlink="http://www.w3.org/1999/xlink" viewBox="0 0 510.26 510.61">
  <defs>
    <style>
      .cls-1 {
        fill: #664f40;
      }

      .cls-1, .cls-2, .cls-3, .cls-4, .cls-5, .cls-6, .cls-7, .cls-8, .cls-9, .cls-10, .cls-11, .cls-12, .cls-13, .cls-14, .cls-15, .cls-16, .cls-17, .cls-18, .cls-19, .cls-20, .cls-21, .cls-22, .cls-23, .cls-24, .cls-25, .cls-26, .cls-27, .cls-28, .cls-29, .cls-30, .cls-31, .cls-32, .cls-33, .cls-34, .cls-35, .cls-36, .cls-37, .cls-38, .cls-39, .cls-40, .cls-41, .cls-42, .cls-43, .cls-44, .cls-45, .cls-46, .cls-47, .cls-48, .cls-49, .cls-50, .cls-51, .cls-52, .cls-53, .cls-54, .cls-55, .cls-56, .cls-57, .cls-58, .cls-59, .cls-60, .cls-61, .cls-62, .cls-63, .cls-64, .cls-65, .cls-66, .cls-67, .cls-68, .cls-69, .cls-70, .cls-71, .cls-72, .cls-73, .cls-74, .cls-75, .cls-76, .cls-77, .cls-78, .cls-79, .cls-80, .cls-81, .cls-82, .cls-83, .cls-84, .cls-85, .cls-86, .cls-87, .cls-88, .cls-89 {
        stroke-width: 0px;
      }

      .cls-2 {
        fill: #c9c4be;
      }

      .cls-3 {
        fill: #76432c;
      }

      .cls-4 {
        fill: #646b69;
      }

      .cls-5 {
        fill: #97a09c;
      }

      .cls-6 {
        fill: #b0cdcb;
      }

      .cls-7 {
        fill: #8f8d90;
      }

      .cls-8 {
        fill: #76624c;
      }

      .cls-9 {
        fill: #291e14;
      }

      .cls-10 {
        fill: #381f11;
      }

      .cls-11 {
        fill: #613e1d;
      }

      .cls-12 {
        fill: #534d47;
      }

      .cls-13 {
        fill: #8196a0;
      }

      .cls-14 {
        fill: #0e1c29;
      }

      .cls-15 {
        fill: #050505;
      }

      .cls-16 {
        fill: #6da1bb;
      }

      .cls-17 {
        fill: #ded0c1;
      }

      .cls-18 {
        fill: #7ca4a1;
      }

      .cls-19 {
        fill: #a58c74;
      }

      .cls-20 {
        fill: #d38f48;
      }

      .cls-21 {
        fill: #edeeed;
      }

      .cls-22 {
        fill: #738f8e;
      }

      .cls-23 {
        fill: #0d2e45;
      }

      .cls-24 {
        fill: #c5d1d5;
      }

      .cls-25 {
        fill: #393f45;
      }

      .cls-26 {
        fill: #1a1d1d;
      }

      .cls-27 {
        fill: #9cb0b8;
      }

      .cls-28 {
        fill: #9cbfc5;
      }

      .cls-29 {
        fill: #c7dad2;
      }

      .cls-30 {
        fill: #51312e;
      }

      .cls-31 {
        fill: #a19478;
      }

      .cls-32 {
        fill: #2d2b2d;
      }

      .cls-33 {
        fill: #1e1c2b;
      }

      .cls-34 {
        fill: #816d69;
      }

      .cls-35 {
        fill: #6f6655;
      }

      .cls-36 {
        fill: #86aeb8;
      }

      .cls-37 {
        fill: #6a3122;
      }

      .cls-38 {
        fill: #8c7c79;
      }

      .cls-39 {
        fill: #464a55;
      }

      .cls-40 {
        fill: #2b202e;
      }

      .cls-41 {
        fill: #898775;
      }

      .cls-42 {
        fill: #2f110d;
      }

      .cls-43 {
        fill: #1f293a;
      }

      .cls-44 {
        fill: #a2a09a;
      }

      .cls-45 {
        fill: #423e3e;
      }

      .cls-46 {
        fill: #19a0a1;
      }

      .cls-47 {
        fill: #5a595b;
      }

      .cls-48 {
        fill: #85817c;
      }

      .cls-49 {
        fill: #787b7e;
      }

      .cls-50 {
        fill: #214c55;
      }

      .cls-51 {
        fill: #8f7e63;
      }

      .cls-52 {
        fill: #311f1e;
      }

      .cls-53 {
        fill: #3f333e;
      }

      .cls-54 {
        fill: #6b3939;
      }

      .cls-55 {
        fill: #016275;
      }

      .cls-56 {
        fill: #541919;
      }

      .cls-57 {
        fill: #b69d7e;
      }

      .cls-58 {
        fill: #090e15;
      }

      .cls-59 {
        fill: #b5baad;
      }

      .cls-60 {
        fill: #293f4e;
      }

      .cls-61 {
        fill: #5d6f76;
      }

      .cls-62 {
        fill: #bb856e;
      }

      .cls-63 {
        fill: #614033;
      }

      .cls-64 {
        fill: #73726a;
      }

      .cls-65 {
        fill: #200a07;
      }

      .cls-66 {
        fill: url(#Dégradé_sans_nom_248);
      }

      .cls-67 {
        fill: #070f0c;
      }

      .cls-68 {
        fill: #481f16;
      }

      .cls-69 {
        fill: #63584d;
      }

      .cls-70 {
        fill: #76807b;
      }

      .cls-71 {
        fill: #2c322d;
      }

      .cls-72 {
        fill: #1b1610;
      }

      .cls-73 {
        fill: #856e5a;
      }

      .cls-74 {
        fill: #35b2aa;
      }

      .cls-75 {
        fill: #2c8fa7;
      }

      .cls-76 {
        fill: #86786e;
      }

      .cls-77 {
        fill: #497084;
      }

      .cls-78 {
        fill: #cabdab;
      }

      .cls-79 {
        fill: #7f735c;
      }

      .cls-80 {
        fill: #170b09;
      }

      .cls-81 {
        fill: #a4d1e1;
      }

      .cls-82 {
        fill: #53494d;
      }

      .cls-83 {
        fill: #26271d;
      }

      .cls-84 {
        fill: #857075;
      }

      .cls-85 {
        fill: #392a24;
      }

      .cls-86 {
        fill: #ced1c6;
      }

      .cls-87 {
        fill: #9e8c8c;
      }

      .cls-88 {
        fill: #c5d6bb;
      }

      .cls-89 {
        fill: #af9c8b;
      }
    </style>
    <linearGradient id="Dégradé_sans_nom_248" data-name="Dégradé sans nom 248" x1="144.8" y1="398.61" x2="64.14" y2="459.63" gradientUnits="userSpaceOnUse">
      <stop offset="0" stop-color="#6e5a46"/>
      <stop offset="1" stop-color="#87755e"/>
    </linearGradient>
  </defs>
  <g id="Calque_1-2" data-name="Calque 1">
    <g>
      <g id="Background">
        <rect class="cls-57" width="510.26" height="510.61"/>
        <path class="cls-57" d="m510.23,26.9c.09,11.96-.02,23.92,0,35.87-2.69,1.2-3.46,2.24,0,2.49.02,8.3-.01,16.61,0,24.91-5.53,1.82-43.05-1.05-44.34.75-.11.15-.31,3.27.75,3.74,1.99.88,37.74-.67,43.6,0,.01,8.47,0,16.94,0,25.41-12.45.06-24.91-.06-37.37,0-1.83,0-3.65,0-5.48,0-26.74.04-53.48-.01-80.22,0-2.49,0-4.98,0-7.47,0-13.79,0-27.57,0-41.35,0-1.83,0-3.65,0-5.48,0h-66.76c-1.83,0-3.65,0-5.48,0-25.58.02-51.15-.02-76.73,0-3.43,0-3.79.5-3.99.5-16.28.01-32.55-.02-48.83,0-1.33,0-2.66,0-3.99,0-27.57.03-55.14-.46-82.71-.5-2.49,0-5.11.5-7.47.5-12.29-.01-24.58-.16-36.87,0C.05,103.47,0,86.36.03,69.26l304.42,2.24-.25-1.25c-101.38-1.53-202.76-4.61-304.17-4.98C.07,52.32-.06,39.36.03,26.41c65.85,1.43,131.71-.17,197.55,0,.19,0,.81,1,1,1,68.59.18,137.23-.88,205.77,1q52.94-.75,105.88-1.49Z"/>
        <path class="cls-3" d="m.03,13.45C.12,8.97-.02,4.48.03,0h510.2c.05,8.97-.06,17.94,0,26.9q-52.94.75-105.88,1.49c-68.55-1.88-137.19-.81-205.77-1-.19,0-.81-1-1-1-65.84-.17-131.7,1.43-197.55,0,0-1.33,0-2.66,0-3.99,6.67,2.17,10.53-2.63,9.22-8.97H.03Z"/>
        <path class="cls-6" d="m306.45,344.28c.85,3.42,1.25,5.6-1,7.97-1.4,1.47-9.84,4.37-8.97,6.48.43,13.63-3.69,25.88,12.95,28.9-.29,6.97-1.03,13.94-1,20.93-6.02,3.34,2.18,12.27,8.97,11.71.79,9.28,7,16.34,13.45,22.42l-.5,67.51c-15.45,0-30.89,0-46.34,0,3.27-4.86,15.98-13.28,14.95-19.18-.33-1.89-15.21-19.98-17.44-23.92.22-1.22,9.86,1.68,12.71,1.74,17.05.41,25.09-12.84,5.23-27.9-1.43-1.09-2.82-2.25-4.48-2.99.54-6.56-2.72-6.67-2.99-6.98-4.49-4.99-20.07-13.55-20.93-15.69-.16-.39.03-.8.5-.75,7.16,4.71,15.04,8.41,21.67,13.95,5.15,1.05,5.64-5.9,2.24-10.96-2.98-4.44-7.43-4.33-6.48-5.98,4.31-.22,4.45-6.56,1.25-7.47-3.96-1.13-21.84,1.71-28.15,1-.06-4.23.5-4.73.5-4.98,4.73.64,5.14-8.11,0-6.98-.02-2.01.01-3.99,0-5.98,35.99,3.33,18.78-19.76,21.42-29.65.27-1.01,3.91-3.78,4.48-5.73,1.32,1.14,2.32.86,2.99,1.74.82,6.33.34-4.8,1.49-8.22,2.91.94,1.66,6.74,3.24,4.48.7-1,0-5.39.25-6.98,3.29.1,7.1,1.7,9.96,1.49Z"/>
        <path class="cls-88" d="m510.23,168.4c.02,40.69.02,81.38,0,122.07-6.62,4.19.79-7.58-8.22-4.98-1.64-7.99-6.08-.96-8.47-3.49-2.62,3.15-3.44-.31-6.48,1.99-1.28.98-1.76,3.86-1.99,3.99-.66.35-6.23-9.08-3.24,7.47-.13.17-.36.76-.5,1-.17.29-2.23.37-1.99,5.98.04,1.01.32,1.56.5,2.49v.5c-1.91-2.15-3.92-3.27-6.48-4.48-.96-40.18-.42-80.38-.5-120.57q18.68-5.98,37.37-11.96Z"/>
        <path class="cls-51" d="m299.48,440.94c-1.73,10.04-23.31,21.15-32.14,29.89-15.84,1.21-17.93,14.47-30.39,22.42-2.48-1.73-6.5,1.62-10.96,4.48-2.69,1.73-17.57,11.81-14.7,12.46-16.28,0-32.55.01-48.83,0l-12.21-5.48,5.23,5.48c-9.96,0-19.93,0-29.89,0,.18-.9,1.53-2.62,1.99-2.99.77-.63,6.09-.59,3.99-11.71-1.78-9.41-5.01-6.31-7.47-5.23-5.38,2.36-2.58,4.99-4.73,5.48-1.04.24-2.64-.93-3.24-1.74-3.86-5.2,4.58-14.58-5.23-23.17-.71-.62-2.69-.01-2.99-.5-.14-.23,1.43-4.27-2.74,0-2.42-2.85,9.4-6.38,12.95-10.96,1.01,1.73,1.38-.94,1.49-1,.2-.1.79.1,1,0l8.97,7.47c-3.76,2.03-8.35,4.16-7.47,5.73.72,1.28,1.38.06,1.49.25,1.98,3.28-1.23,4.07-.5,8.72,1.11,7.05,13.58,9.52,12.95-1.25,6.43,2.82,13.76,2.62,20.68,3.49,3.13.39,7.47,2.93,13.45,1,9.44,2.35,19.99,3.69,29.65,2.49-.26.75-2.2,13.41,1.25,14.95,8.86,3.96,9.88-12.88,6.73-17.44,3.11-4.77,8.7-3.3,9.22-3.49,10.86-3.95,11.37-10.83,15.94-13.95,3.31-.77,20.12-10.09,20.93-10.96.48-.52.18-1.34.25-1.99h.5c-1.4,11,9.76,11.51,9.96,1.49,8.9-2.23,16.87-5.36,24.41-10.46.1-.06,1.59.03,2.24-.5,1.11-.89.55-1.57,1-1.99.21-.2,2.3,1.33,2.74-3.99,1.66.74,3.05,1.9,4.48,2.99Z"/>
        <path class="cls-88" d="m36.9,272.04c.11,10.95-.13,36.07.5,43.84-3.93-3.26-4.38-5.68-8.47-.5-1.6-2.47-13.18-22.09-11.21-23.42,1.61-.01,6.78-.72,7.47-1,3.46-1.38,5.79-10.89,2.24-12.71.19-8.84,1.82-5.41,2.49-6.98,2.91-6.82-14.55-16.38-29.89-5.23-.01-30.06-.02-60.12,0-90.18,4.47,1.53,34.95,7.75,35.87,10.21.75,13.41-.99,81.53,0,85.7.09.37.66.25,1,.25Z"/>
        <path class="cls-31" d="m58.83,429.48c-4.16,3.42-8.61,15.94.5,15.45,1.36,2.37,6.29,8.36,7.47,5.98.05.78.97.35,1,.75.36,5.37,1.52,18.97,2.49,23.17-1.81-2.51-23.7-9.34-24.41-8.22v43.6c-1.49,0-2.99,0-4.48,0l-.75-43.84c-30.74,7-8.06,5.71-5.73,19.68,1.47,8.82-2.44,16.62-6.48,24.16-9.47-.06-18.93.05-28.4,0-.04-16.28.05-32.55,0-48.83,5.88,8.46,13.3-.16,10.96-7.97,7.76-3,12.64-9.96,18.93-14.95-.08,12.78,18.23,6.54,11.46-4.73-1.88-3.13-5.03-4.06-8.47-2.74,1.5-1.64,3.84-2.03,3.99-2.24.63-.96-.52-1.66-.5-1.74.48-1.99-.06-1.7,0-1.99.07-.33.38-1.42.75-1.49,4.97,1.85,19.84,3.93,21.42,4.48.44.15.21,1.08.25,1.49Z"/>
        <path class="cls-31" d="m284.03,510.2c-24.25.01-48.5.01-72.74,0-2.87-.65,12.01-10.73,14.7-12.46,4.46-2.86,8.48-6.22,10.96-4.48,12.46-7.95,14.55-21.21,30.39-22.42,8.82-8.75,30.4-19.85,32.14-29.89,19.86,15.06,11.82,28.31-5.23,27.9-2.84-.07-12.48-2.96-12.71-1.74,2.22,3.94,17.11,22.03,17.44,23.92,1.04,5.9-11.68,14.32-14.95,19.18Z"/>
        <path class="cls-6" d="m374.71,443.93q-.25,33.13-.5,66.27c-13.12.01-26.24,0-39.36,0v-65.52c.72-1.82,18.56,5.94,21.67,5.73-.14-2.21-7.54-8.02-7.72-9.22-.04-.25,1.74-3.97,2.74-4.24,1.41-.38,19.78,6.04,23.17,6.98Z"/>
        <path class="cls-6" d="m117.62,449.91l.5,9.47c-3.56,4.58-15.37,8.11-12.95,10.96,7.67,11.87-16.43-1.3-15.45,17.69.18,3.52,3.86,16.56,4.48,22.17-16.11-.02-32.22.06-48.33,0v-43.6c.71-1.12,22.6,5.71,24.41,8.22,2.3,10,10.58,10.32,13.2,7.97,2.02-1.81,4.41-21.14,12.95-26.41,2.1-1.29,17.89-5.85,21.18-6.48Z"/>
        <path class="cls-29" d="m36.9,132.53c.34,46.5-.46,93.01,0,139.51-.34,0-.91.12-1-.25-.99-4.17.75-72.29,0-85.7-.92-2.46-31.4-8.69-35.87-10.21,0-14.61-.01-29.23,0-43.84l36.87.5Z"/>
        <path class="cls-29" d="m510.23,132.03c0,12.12,0,24.25,0,36.37q-18.68,5.98-37.37,11.96c-.03-15.59.33-31.25,0-46.83-.17-.52.35-1.4.75-1.49,3.36-.78,28.89.59,36.62,0Z"/>
        <path class="cls-6" d="m378.7,444.43c10.23,2.98,20.42,6.19,30.39,9.96,0,3.54,1.03,7.35.5,10.96-.49.17-5.91,4.85-7.47,7.22-5.74,8.73-7.8,27.7-4.48,37.62-7.14,0-14.28,0-21.42,0q.25-32.88.5-65.77c.1.03-.27-.66,1.99,0Z"/>
        <path class="cls-31" d="m124.1,490.27c-4.12,5.46-3.79,14.45,3.49,16.94-.46.37-1.81,2.09-1.99,2.99-10.46,0-20.93.01-31.39,0-.63-5.61-4.3-18.65-4.48-22.17-.99-18.99,23.11-5.82,15.45-17.69,4.17-4.27,2.6-.23,2.74,0,.3.48,2.27-.13,2.99.5,9.82,8.58,1.37,17.97,5.23,23.17.6.81,2.2,1.98,3.24,1.74,2.15-.49-.64-3.12,4.73-5.48Z"/>
        <path class="cls-57" d="m.03,69.26c0-1.33,0-2.66,0-3.99,101.41.37,202.79,3.45,304.17,4.98l.25,1.25L.03,69.26Z"/>
        <path class="cls-51" d="m481.83,459.87c7.16,4.48,16.48,8.12,24.41,12.46.21,8.71.04,12.38,3.99,11.46-.06,8.8.04,17.6,0,26.41-.98.07-2.01-.1-2.99,0-4.46-7.39-18.64-31.74-22.92-35.87-1.29-5.6-11.54-12.04-16.94-14.45,4.9.41,9.53.41,14.45,0Z"/>
        <path class="cls-53" d="m510.23,120.08c0,3.99,0,7.97,0,11.96-7.73.59-33.26-.78-36.62,0-.4.09-.91.98-.75,1.49-.09-4.46-1.33-8.98,0-13.45,12.45-.06,24.91.06,37.37,0Z"/>
        <path class="cls-53" d="m36.9,120.57v11.96L.03,132.03c0-3.82,0-7.64,0-11.46,12.29-.16,24.58-.01,36.87,0Z"/>
        <path class="cls-6" d="m41.39,510.2c-4.32-.02-8.64.03-12.95,0,4.04-7.55,7.95-15.35,6.48-24.16-2.33-13.97-25.01-12.68,5.73-19.68l.75,43.84Z"/>
        <path class="cls-78" d="m510.23,90.18c0,1.49,0,2.99,0,4.48-5.86-.67-41.6.88-43.6,0-1.06-.47-.86-3.58-.75-3.74,1.29-1.8,38.81,1.08,44.34-.75Z"/>
        <path class="cls-6" d="m162.46,510.2c-2.33,0-4.65,0-6.98,0l-5.23-5.48,12.21,5.48Z"/>
        <path class="cls-78" d="m510.23,65.27c-3.46-.25-2.69-1.29,0-2.49,0,.83,0,1.66,0,2.49Z"/>
        <path class="cls-33" d="m44.38,120.08v10.71c26.97,1.46,54.34-.25,81.46.75.81-.58-.41-7.43.75-9.96.01,3.82,0,7.64,0,11.46.03-.31-.61-.97-.75-1-7.21-1.22-65.64.92-81.21,0-1.4,18.71-.71,37.56-.75,56.3-.08,41.52.85,83.04.5,124.56-.02,2.32.05,4.65,0,6.98-1.52-.18-6.38.25-6.73,0-.51-.36-.18-3.17-.25-3.99-.63-7.78-.39-32.9-.5-43.84-.46-46.49.34-93.01,0-139.51v-11.96c2.37,0,4.99-.5,7.47-.5Z"/>
        <path class="cls-33" d="m387.17,120.08l-.25,10.96,80.47.5v1l-80.71.25v129.79c-1.19-.57-5.52-1.11-6.98-1V120.08c2.49,0,4.98,0,7.47,0Z"/>
        <path class="cls-43" d="m338.34,120.08c-.26,3.79-1.09,8.49-1,12.21.03,1.19,1,.69,1,.75,1.3,56.99-.97,114.14,0,171.14l1,.25c-2.21,3.14-3.64,5.68-6.48,8.47V120.08c1.83,0,3.65,0,5.48,0Z"/>
        <path class="cls-78" d="m50.61,88.19q125.06,1,250.12,1.99c2.05,1.03,2.53-.28,2.24,3.24-84.13.95-168.24-.12-252.36-1.25v-3.99Z"/>
        <path class="cls-43" d="m472.86,120.08c-1.33,4.47-.09,8.99,0,13.45.33,15.59-.03,31.24,0,46.83.08,40.19-.46,80.39.5,120.57-1.46-.69-2.95-1.48-4.48-1.99-.08-3.32,2.12-27.76,1-28.65-1.97-1.57-1.7,1.47-2.99,1.25.06-46.34.37-92.67.5-139.01v-12.46c1.83,0,3.65,0,5.48,0Z"/>
        <path class="cls-53" d="m467.38,120.08v11.46l-80.47-.5.25-10.96c26.74-.01,53.48.04,80.22,0Z"/>
        <path class="cls-53" d="m127.09,120.57c.18,1.17-.48.95-.5,1-1.16,2.54.07,9.39-.75,9.96-27.12-1-54.49.71-81.46-.75v-10.71c27.56.04,55.14.52,82.71.5Z"/>
        <path class="cls-53" d="m260.61,120.08c.61,1.66.15,3.3,0,4.98-.19,2.11-.68,4.33-.75,6.48h-73.24l-2.74-.75v-10.71c25.58-.02,51.15.02,76.73,0Z"/>
        <path class="cls-33" d="m131.07,120.57l.25,10.46,47.83.5.75-10.96c.2,0,.56-.5,3.99-.5v10.71l2.74.75h73.24c.06-2.15.56-4.37.75-6.48.05,2.49,0,4.98,0,7.47l-77.23.25c0,29.15,0,58.29,0,87.44l-1,10.21h-1l-1-5.73c-.14-30.88-.17-61.8-1.25-92.67l-48.58.75v154.2c-2.33-11.68,1.05-65.46-.5-70.5-3.34-.82-1-3.34-2.99-3.24-.05-26.74-.52-53.48-.5-80.22,0-3.82.01-7.64,0-11.46.02-.05.68.17.5-1,1.33,0,2.66,0,3.99,0Z"/>
        <path class="cls-40" d="m266.09,120.08l-.5,10.71,2.74.75c9.8-.74,60.23.85,63.28,0,.66-.19.56-1.38,1.25-1.49v2.49l-67.26.25c-.08,27.32.1,54.64,0,81.96-.06,17.42.87,51.17,0,64.27-.01.2-.4,3.24-.5,3.99-.61-1.14-3.41,2.14-3.99,2.99l-1-1.49c.06-.06.29-.76,1-1.25.61-50.23-.65-100.49-.5-150.72,0-2.49.05-4.98,0-7.47.15-1.68.61-3.32,0-4.98,1.83,0,3.65,0,5.48,0Z"/>
        <path class="cls-53" d="m332.86,120.08v9.96c-.68.12-.58,1.31-1.25,1.49-3.05.85-53.48-.74-63.28,0l-2.74-.75.5-10.71h66.76Z"/>
        <path class="cls-53" d="m179.9,120.57l-.75,10.96-47.83-.5-.25-10.46c16.28-.02,32.55.01,48.83,0Z"/>
        <path class="cls-53" d="m379.69,120.08v12.46c-8.25-.17-35.05-1.44-40.61-.5-.14.02-.78.69-.75,1,0-.06-.97.44-1-.75-.1-3.71.73-8.42,1-12.21,13.78,0,27.57,0,41.35,0Z"/>
        <path class="cls-15" d="m288.51,351.76c-.58,1.95-4.22,4.72-4.48,5.73-2.64,9.88,14.56,32.97-21.42,29.65-.04-6.34.24-45.56-.5-47.83-3.05-9.39-2.66,19.68-2.49,27.65-12.98-.4-32.37,2.83-35.37-13.95-.49-2.76-.63-11.3-.5-14.7,8.91-.33,71.98-4.04,75.48-5.48.65-.27.88-1.44,1.25-1.99-.05,2.76-12.21,13.81-13.45,19.18-.1,1.71.45.84,1.49,1.74Z"/>
        <path class="cls-79" d="m262.11,394.11c.02,2,.47,4.11.5,5.98,0,.25-.56.76-.5,4.98,0,.16-.83.24-.5,3.24l1,.75c-1.4-.74-1.22,5.46-1,6.23.44,1.53,19.66,18.92,23.42,20.18-.71,3.64.37,7.28,3.99,8.97-7.54,5.1-15.51,8.23-24.41,10.46.06-2.91-.76-7.03-4.48-6.98-1.72-5.29,1.04-28.37-1.49-30.89,1.19-7.74,1.24-15.61,1.49-23.42l1.99.5Z"/>
        <path class="cls-41" d="m306.45,353.25c1.06.85,2.41,1.38,2.49,1.49.04.06.39,1.18.5,1.49.23,4.35-.7,8.6-.5,12.95.07,1.49-.04,2.99,0,4.48-2.9-.72-1.87,2.82,1.49,5.48-.06,2.71-.88,5.7-1,8.47-16.64-3.01-12.52-15.26-12.95-28.9,3.01-2.37,6.22-4.47,9.96-5.48Z"/>
        <path class="cls-79" d="m262.61,409.05c3.37,1.25,6.03,3.55,8.97,5.48-.46-.06-.65.36-.5.75.86,2.15,16.44,10.7,20.93,15.69-3.07-.71-6.36,1.35-6.98,4.48-3.76-1.26-22.97-18.65-23.42-20.18-.22-.77-.4-6.97,1-6.23Z"/>
        <path class="cls-41" d="m276.56,406.06c2.86,1.07,5.62,2.39,8.47,3.49,1.17.45,1.66,2.11,3.99,1.99-.96,1.65,3.5,1.54,6.48,5.98-2.39.11-4.68,1.72-5.48,3.99l-9.47-2.99c-5.53-3.67-10.93-7.52-16.44-11.21.38-.62,10.77-1.15,12.46-1.25Z"/>
        <path class="cls-15" d="m289.01,411.54c-2.33.12-2.82-1.54-3.99-1.99-1.37-2.95.82-3.78.25-3.99-1.6-.57-6.71.38-8.72.5-1.68.1-12.07.62-12.46,1.25,5.52,3.69,10.91,7.54,16.44,11.21,3.11,2.07,6.16,4.32,9.22,6.48,1.64.17-.36-1.78.25-3.49.8-2.26,3.09-3.88,5.48-3.99,3.39,5.06,2.91,12.01-2.24,10.96-6.64-5.54-14.51-9.24-21.67-13.95-2.94-1.93-5.6-4.23-8.97-5.48l-1-.75c-.33-3,.5-3.07.5-3.24,6.31.71,24.19-2.13,28.15-1,3.21.92,3.06,7.26-1.25,7.47Z"/>
        <path class="cls-15" d="m292,430.98c.27.3,3.53.42,2.99,6.98-.44,5.31-2.53,3.79-2.74,3.99-.44.43.11,1.1-1,1.99-.65.52-2.15.43-2.24.5-3.62-1.69-4.7-5.33-3.99-8.97.61-3.13,3.9-5.19,6.98-4.48Z"/>
        <path class="cls-15" d="m262.61,400.08c-.03-1.87-.48-3.98-.5-5.98-.01-1.3.5-.94.5-1,5.14-1.14,4.73,7.62,0,6.98Z"/>
        <path class="cls-83" d="m306.45,353.25c-3.74,1.01-6.95,3.11-9.96,5.48-.88-2.11,7.57-5,8.97-6.48.12.39.67.74,1,1Z"/>
        <path class="cls-28" d="m467.38,459.87c5.41,2.4,15.65,8.85,16.94,14.45-5.82-5.63-19.65-5.82-27.65-6.48l-.75-11.96c3.86,2.3,7.94,2.42,11.46,3.99Z"/>
        <path class="cls-6" d="m450.94,466.85c-2.26,0-4.3-.37-6.48-.5l-2.99-17.44c1.29.67,9.2,3.61,9.47,4.24v13.7Z"/>
        <path class="cls-79" d="m254.14,453.4c-.07.65.23,1.48-.25,1.99-.8.87-17.62,10.19-20.93,10.96-4.58,3.12-5.08,10-15.94,13.95-.51.19-6.11-1.28-9.22,3.49-1.85-2.67-7.12.03-7.97,2.49-9.65,1.2-20.21-.14-29.65-2.49-5.98,1.94-10.32-.6-13.45-1-6.91-.87-14.25-.67-20.68-3.49-.02-.35-.42-2.26-.5-2.49,13.46-1.22,28.38,3.17,41.6,3.99,7.13.44,17.74-1.41,25.91.5.43-.23-.64-2.33-.75-2.49l1.49.5c1.16.79,1.77,1.86,2.74,1.99,18.17-5.55,27.09-27.59,47.58-27.9Z"/>
        <path class="cls-8" d="m255.13,450.91c-.06.11-.45,2.09-.5,2.49h-.5c-20.5.31-29.42,22.35-47.58,27.9-.97-.13-1.58-1.2-2.74-1.99-.25-.17-1.92-2.02-2.49-2.49l3.49-2.74c-3.56-.39,3.32-5.64,3.74-5.73,2.7-.57,4.07,2.42,3.74-.5,5.13,2.63,9.04-2.16,8.47-6.98,6.18.04,12.25-5.49,23.17-8.47,2.84-.77,9.2-2.44,11.21-1.49Z"/>
        <path class="cls-28" d="m120.61,458.38c-.2.1-.8-.1-1,0v-8.97c6.43-.85,17.66-1.34,23.42,1.25-6.26,2.12-16.94,5.1-22.42,7.72Z"/>
        <path class="cls-11" d="m119.61,449.41v8.97c-.12.06-.48,2.73-1.49,1l-.5-9.47c.77-.15.31-.63.75-1,1.47-.21,1.18.51,1.25.5Z"/>
        <path class="cls-25" d="m37.4,315.88c.07.82-.26,3.62.25,3.99.35.25,5.2-.18,6.73,0-.03,1.55.51,1.69.5,1.99-.12,3.04-1.09,2.1-1.49,4.48-.05.32.01.67,0,1-4.03-1.54-2.11,1.85-9.47.5,1.35-.43-.02-1.42,0-1.49.05-.23,1.91-1.5,1-4.24-.14-.43-2.32-1.06-5.98-6.73,4.09-5.19,4.54-2.76,8.47.5Z"/>
        <path class="cls-6" d="m73.77,354.75c.94,20.51-.7,41.25,0,61.78-2.21.79-5.95,3.42-6.48,5.73-.32,1.4-.67,25.86-.5,28.65-1.18,2.38-6.11-3.61-7.47-5.98,3.27-4.59,3.93-11.59,2.49-16.94-.74-2.76-1.58-2.17-3.99-2.99l-4.48-2.99v-.5c2.16-2.77.6-8.31-2.49-9.96.02-.94-.56-2.93-1-3.74-2.7-5.01-5.11-2.71-5.48-2.74-7.66-.73-15.81.19-16.44-1.99,6.92-2.15,4.83-1.43,12.46-1.25q.25-11.58.5-23.17c2.33-.75,5.08-.94,6.98-2.49.83-.68,2.3-2.98,2.49-3.74,2.27-8.91-5.23-7.92-2.49-11.96.82-1.2,14.92,1.12,19.43-3.99.9-2,2.2-5.08,3.49-6.73.48-.61,2.27-1.86,2.99-2.49.08,2.48-.11,4.99,0,7.47Z"/>
        <path class="cls-79" d="m13.49,417.52c5.16,3.34,17.94,9.63,22.92,9.47-.02.09,1.13.79.5,1.74-.14.22-2.49.6-3.99,2.24-1.99,2.18-2.97,4.52-2.99,7.47-6.29,4.98-11.17,11.95-18.93,14.95-1.55-5.18-5.36-3.98-8.97-1.49.76-2.78.1-12.29,0-16.44,4.56-.37,1.31-14.69,3.99-19.93,2.51.5,5,1.37,7.47,1.99Z"/>
        <path class="cls-6" d="m506.74,454.89c-.22.84-.55,15.47-.5,17.44-7.93-4.34-17.25-7.98-24.41-12.46,8.49-.7,16.63-3.2,24.91-4.98Z"/>
        <path class="cls-21" d="m476.85,376.67c1.02,1.33-1.69,3.38-2.99,5.48-3.31-.18-7.52-2.72-9.96-3.49,1.11-1.34,2.25-3.76,2.49-3.99.19-.18.47-.48.5-.5,2.45-1.69,6.85,1.75,9.96,2.49Z"/>
        <path class="cls-6" d="m322.39,387.13c0,.19,1.32.58,0,3.74-.36.86-9.26,12.82-10.96,15.2.54-2.48-.34-13.59.5-18.19l10.46-.75Z"/>
        <path class="cls-6" d="m38.9,379.16c-.27,2.36.37,13.59,0,14.2-.13.22-4.47,2.22-4.73,2.24-1.22.13-20.96-6.61-22.67-7.97,9.12-2.72,18.36-5.52,27.4-8.47Z"/>
        <path class="cls-41" d="m10,388.63q11.83,3.99,23.67,7.97c-.01,1.39-3.11,2.13-3.74,2.49-3.48-5.3-16.24,5.65-21.92,8.47-.03-6.15-.08-12.29,0-18.43.69-.19,1.36-.32,1.99-.5Z"/>
        <path class="cls-88" d="m126.59,133.03c-.03,26.74.44,53.47.5,80.22.05,26.85.66,53.89,0,80.71-.02.68.02,1.38,0,1.99-.12,3.78-.94,7.63-.5,11.46-.27-.03-1.74.89-5.48.5l-1.99-8.72-10.46-11.46,4.98-7.47c-.02-1.01-1.72-2.39-2.99-5.23-.85-1.91-.74-1.97-1.99-3.99-2.88-4.65-4.56-6.27-10.46-2.99.63-4.24,8.48-.95,8.97-2.24v-59.29l-13.2-3.74-.25,67.51c1.61.72,3.19-4.55,3.49-1.74-5.31,4.41-.88,11.13-2.99,19.68-.68,1.63-11.56-3.63-13.95,5.98-2.37,9.52,2.81,18.96,2.49,19.93-1.76,5.37-2.73-8.48-7.47-15.2-.75-1.06-2.93-4.24-3.99-4.48.25-.47.65-1.11,1-1.49,2.58-2.85,1.25-4.83,0-8.47.3-1.54-1.54-7.39-1.99-7.97l1.49-1.25q-.25-39.61-.5-79.22l-27.4-7.72c.04-18.74-.65-37.59.75-56.3,15.57.92,74-1.22,81.21,0,.14.02.78.69.75,1Z"/>
        <path class="cls-88" d="m70.29,276.52c-4.84-6.22-18.05,4.09-11.96,16.69-9.99.72-6.05,16.39-5.48,22.67l-8.47-2.99c.35-41.52-.58-83.04-.5-124.56l27.4,7.72q.25,39.61.5,79.22l-1.49,1.25Z"/>
        <path class="cls-18" d="m52.85,315.88c.08.93.67,4.03.25,4.48l-8.22,1.49c.01-.3-.53-.44-.5-1.99.05-2.32-.02-4.65,0-6.98l8.47,2.99Z"/>
        <path class="cls-88" d="m379.69,132.53v129.04c-8.3.66-9.81,6.92-4.98,12.95-.39,4.01,1.38,9.83,3.99,12.95-.94.04-.32,2.21-.5,4.48-.77,9.95-2.4,10.5-2.99,12.46.09-4.12-6.41-12.5-9.22-13.45-5.49-1.86-3.58,6.52-7.22,16.69-2.05,5.72-6.72,10.61-7.47,15.69-.64,0-1.39-.02-1.99,0-3.54-4.1-.17-19.48,1.99-24.41,1.98-4.51,3.35-5.5,7.97-7.22.44-3.04-.73-5.78-1-8.72-.01-.16.85-1.12.5-3.24-3.41-20.33-24.7-10.4-15.45.75l.5,1v.5c-.68-.03-.66,2.31-.5,2.99,1.51,6.26,3.55,6.93,8.47,10.71.13.46-.71,1.45-1,2.24-2.81,7.83-10.86,18.05-8.97,23.42-2.31-1.58-.89-2.76-2.99-2.49.53-1.52,1.13-7.5,2.49-12.46,2.32-8.45,6.35-13.84-1.99-1.99l-1-.25c-.97-57,1.3-114.16,0-171.14-.03-.31.61-.97.75-1,5.56-.94,32.35.33,40.61.5Z"/>
        <path class="cls-88" d="m467.38,132.53c-.12,46.34-.44,92.67-.5,139.01,0,1.66,0,3.32,0,4.98-1.71.08-1.39-1.27-1.49-1.49l1,.25-.25-81.96c-20.01,9.03-40.34,17.71-59.79,27.9-6.28,3.29-12.96,8.53-19.68,10.46v-98.9l80.71-.25Z"/>
        <path class="cls-88" d="m465.39,275.03c-5.45-11.47-6.29-7.97-8.22-9.47-1.08-.84-1.86-5.69-1.99-1-13.38-4.87-20.91,8.57-13.2,7.97-.92.38-1.45,1.22-1.99,1.99-2.76,3.98-2.72,6.98-2.99,11.71,2.75,4.74,3.01,8.35,6.48,12.71-1.73,1.8-2.98,4.02-4.48,5.98-6.57,8.55-5.65,9.82-9.96,17.94,1.9-10.76,2.92-21.78-9.96-24.41.01-10.11,1.51-8.45-5.73-17.44-2.08-1.11-3.39-.11-5.23,0l-8.97-1.49c-.36-11.1-7.61-10.02-8.22-10.46-1.07-.77-.43-4.67-4.24-6.48v-30.89c6.72-1.93,13.4-7.17,19.68-10.46,19.45-10.19,39.78-18.87,59.79-27.9l.25,81.96-1-.25Z"/>
        <path class="cls-29" d="m332.86,132.53v180.36c-.63.62-3.75,3.84-3.99,3.99-1.66,1.02-4.5,1.94-6.48,1.99-.64-4.26,3.9-2.57,4.73-2.99.87-.44,1.49-1.89,2.24-2.49.13-.1.58,1.24,2.49-1.25v-107.12l-21.92,3.24c-.06-1.55-.98-.83-1-1.25-.08-1.87.31-13.31-.25-13.7h-18.43c-3.63,3.04,2.08,17.55-3.49,18.43-1.06.17-10.54-.86-21.18,2.99.1-27.32-.08-54.64,0-81.96l67.26-.25Z"/>
        <path class="cls-60" d="m468.88,298.94c-.65-.22-1.88-.21-2.99-.5,1.75-4.55.98-15.01,1-21.92,0-1.66,0-3.32,0-4.98,1.29.22,1.02-2.81,2.99-1.25,1.12.89-1.08,25.32-1,28.65Z"/>
        <path class="cls-29" d="m260.61,132.53c-.16,50.23,1.11,100.48.5,150.72-.7.49-.94,1.19-1,1.25-2.45,2.38-4.5-.47-6.48-1.99v-.5c1.25,1.01,5.19,4.22,5.98,1.74,1.07-3.4-.97-60.08.5-70.75-14.62-.45-29.02,1.99-43.6,2.74-2.27,11.67.75,70.87-.75,76.48-.23.87-1.49,1.82-2.49,1.74l-1.99-5.48v-71c-.65-1.92-10.38.96-11.96,1.49.64,9.31-.86,44.15,0,47.83.03.12.67.57,1,1.25-5.32-2.3-10.54-2.2-14.95,1.99,1.37-5.46,8.97-3.53,9.47-4.24-.2-15.5.38-31.26-.25-46.59l-11.21,3.99c0-1,0-1.99,0-2.99,0-29.15,0-58.29,0-87.44l77.23-.25Z"/>
        <path class="cls-29" d="m180.4,224.71c.1,21.42-.07,42.85,0,64.27-1.53,1.36-2.6,3.44-4.48,4.48.02-.04-.82-.04-.5-.75.17-.37,3.12-2.75,3.99-3.99v-64.27c-14.75,2.03-10.75.19-18.68-2.24-10.14-3.11-20.16-6.39-30.14-9.96v-79.47l48.58-.75c1.08,30.87,1.11,61.79,1.25,92.67Z"/>
        <path class="cls-88" d="m175.91,293.46c-2.69,6.09-3.04,9.24-3.99,11.46-.06.13-1.59-.76-.5,1.99-.22-.09-2.48-.23-3.49-.5-.7-3.22-4.1-4.76-6.98-5.48,1.03-4.41-7.46-15.37-12.46-15.94,1.31-2.7.73-4.51,2.99-6.23-.51-18.59-22.36-10.24-9.96,5.73-1.85.6-3.6.43-5.48,1-2.13.65-3.42,1.38-4.98,2.99-.82.01-.36-.82-.5-1.49v-74.74c9.99,3.57,20,6.85,30.14,9.96,7.93,2.43,3.93,4.27,18.68,2.24v64.27c-.87,1.23-3.82,3.61-3.99,3.99-.32.71.52.71.5.75Z"/>
        <path class="cls-43" d="m130.57,286.98c.13.67-.32,1.51.5,1.49-.24.24-1.71,4.21-3.99,5.48.66-26.83.05-53.87,0-80.71,1.99-.1-.35,2.42,2.99,3.24,1.55,5.05-1.83,58.82.5,70.5Z"/>
        <path class="cls-43" d="m183.39,223.21c0,20.92-.41,41.87.5,62.78-.21.16-2.95,2.51-3.49,2.99-.07-21.42.1-42.85,0-64.27l1,5.73h1l1-10.21c0,1,0,1.99,0,2.99Z"/>
        <path class="cls-88" d="m309.94,208.26c.37,10.23-1.31,20.85-.5,31.14q-9.47.5-18.93,1c.47,7.18-.72,55.17.5,57.8.21.45,1.05.2,1.49.25-2.31,3.25-3.31,9.62-9.47,10.46-1.19-4.34-2.3-12.67-5.98-15.94,3.01-9.04-5.28-18.19-10.96-13.45,0-.04-.55.12-.5-.5.87-13.1-.06-46.85,0-64.27,10.64-3.85,20.11-2.82,21.18-2.99,5.56-.88-.14-15.4,3.49-18.43h18.43c.56.4.17,11.83.25,13.7.02.42.94-.3,1,1.25Z"/>
        <path class="cls-87" d="m271.82,337.31c1.44.35-.43,4.34-.5,5.48-.73-1.69-2.88-6.31.5-5.48Z"/>
        <path class="cls-88" d="m329.37,313.39c.09-6.06-1.2,3.51-2.24-1.99-6.44,7.68.54-6.87-1.74-16.19-1.22-4.99-3.96-5.65-5.98-6.73-1.75-.93-3.02-1.43-4.98-1.74,14.6-8.57,6.46-26.4-9.22-18.68-6.05,2.97-6.83,11.45-4.73,8.47l.5.5c-.03,3.39.17,6.69,2.99,8.97-.89,1.33-1.67-.09-3.99,2.24-2.83,2.85-5.14,6.94-7.47,10.21-.44-.05-1.29.2-1.49-.25-1.22-2.62-.03-50.61-.5-57.8q9.47-.5,18.93-1c-.81-10.29.86-20.91.5-31.14l21.92-3.24v107.12c-1.91,2.49-2.36,1.14-2.49,1.25Z"/>
        <path class="cls-36" d="m316.42,351.26c.28,2.65,1.85,6.18,2.24,8.97-.85.45-5.01-4.47-5.73-7.97l3.49-1Z"/>
        <path class="cls-36" d="m318.41,366.2l-5.48,2.99c.02-1.12-.45-5.55.75-5.98.31-.11,5.54.62,4.73,2.99Z"/>
        <path class="cls-15" d="m260.11,391.61c-.02.6.02,1.3,0,1.99-.25,7.81-.31,15.67-1.49,23.42-.04-.04-.74-.43-1-.5.09-1.6.75-2.83.5-3.24-8.73,4.53-16.72,10.86-24.91,16.44,6.96,1.67,5.6,11.07,2.24,12.71-4.93,2.4-10.34-4.26-7.72-10.21.69-1.57,23.87-17.86,27.4-20.68.48-.38,1.11-.61,1.74-.5v-1c-5.46-.67-15.03-6.03-16.94-6.48-4.28-1.01,1.47,2.79,2.74,3.49-2.44,10.23-12.32,4.3-10.46-5.73.08-.42.98-.2,1-.25,1.08.15,2.78-.22,3.49,0,.69.21,8.11,5.49,9.96,2.99,1.76.73,11.13,3.62,11.96,1.74-.39-3.92.53-11.52,0-14.2h1.49Z"/>
        <path class="cls-24" d="m258.62,417.02c2.53,2.52-.22,25.6,1.49,30.89-.16,0-2.85.92-2.99,1-1.28-10.78-.13-21.63.5-32.39.26.07.96.46,1,.5Z"/>
        <path class="cls-24" d="m290.01,421.51c-.61,1.71,1.39,3.66-.25,3.49-3.06-2.16-6.1-4.41-9.22-6.48l9.47,2.99Z"/>
        <path class="cls-24" d="m285.03,409.55c-2.85-1.1-5.61-2.41-8.47-3.49,2.01-.12,7.12-1.07,8.72-.5.57.2-1.62,1.04-.25,3.99Z"/>
        <path class="cls-70" d="m466.88,276.52c-.01,6.91.76,17.37-1,21.92-1.37-.35-.94-.48-1-.5l.5-22.92c.11.23-.21,1.57,1.49,1.49Z"/>
        <path class="cls-6" d="m90.71,401.58c-.68,1.92-1.29,4.15-1.99,5.98-.26.68-.72,1.31-1,1.99-.17.4-3.88,4.49-4.48,7.47-2.61-1.36-3.42-1.7-6.48-1.49-.91-6.74-.49-13.65-.5-20.43-.01-15.27-.4-30.58.5-45.84,2.77,4,5.5,8.01,7.97,12.21-1.24,4.36-2.39,15.32,3.24,16.69,9.17,2.23,32.54-10.62,9.22,7.22.81,4.85-2.5,3.86-3.99,5.98-1.85,2.63-1.66,7.89-2.49,10.21Z"/>
        <path class="cls-10" d="m76.27,395.1c0,6.78-.41,13.68.5,20.43-.16.01-2.4.78-2.99,1-.7-20.53.94-41.27,0-61.78.44.05,1.29-.2,1.49.25,1.36,2.93-.41,33.5,1,40.11Z"/>
        <path class="cls-28" d="m93.7,409.55c.05,1.95.34,11.16-.75,11.96-1.7.38-2.13-.51-2.24-.5-.53-5.15,1.89-9.07-2.99-11.46.28-.68.73-1.31,1-1.99,1.71-1.06,2.44-2.63,3.99-3.99,1.54,1.6.94,3.86,1,5.98Z"/>
        <path class="cls-8" d="m148.01,462.36c2.53,3.28-5.48,3.98-1.99,7.22.9.84,1.84-.59,2.74-.25,5.69,2.17,19.71,4.72,24.41,1,5.23,1.56,9.7-.02,10.46,0,4.89.12,10.37,4.13,7.22-1,.96-.51,11.04,8.82,11.46,9.47.11.16,1.18,2.26.75,2.49-8.17-1.91-18.78-.06-25.91-.5-13.22-.81-28.14-5.2-41.6-3.99-2.43-6.78-10.29-3.86-7.97-6.48,6.75-2.81,13.63-5.31,20.43-7.97Z"/>
        <path class="cls-8" d="m229.22,381.65c2.4,5.01,3.31,11.29,6.98,15.45.1,2.17-1.79-.61-2.99,1.25-.12.85.18,2.1,0,2.74-.01.05-.92-.17-1,.25-1.86,10.03,8.03,15.96,10.46,5.73,3.72,2.04,8.46,3.05,12.46,4.48-3.53,2.81-26.71,19.11-27.4,20.68-2.62,5.95,2.79,12.62,7.72,10.21,3.36-1.64,4.71-11.04-2.24-12.71,8.19-5.58,16.19-11.91,24.91-16.44.25.41-.4,1.64-.5,3.24-.63,10.76-1.78,21.61-.5,32.39-.12.07-1.93,1.87-1.99,1.99-2.01-.94-8.37.72-11.21,1.49-10.92,2.98-16.99,8.51-23.17,8.47-.14-1.18-2.62-5.56-3.74-5.98l-43.84-6.48c12.71,4.15,26.17,5.17,39.36,6.98-3.11,2.43-3.84,10.61-.25,12.46.33,2.91-1.04-.07-3.74.5-.41.09-7.3,5.34-3.74,5.73l-3.49,2.74c-8.82-7.38-16.66-15.95-25.41-23.42-2.55-2.18-5.07-4.62-7.47-6.98l.25-28.9c10.67-1.21,31.75-1.19,40.86-2.99.42-.08.69-.98.75-1,.22-.06,1.67,1.42,2.99-.25.24-10.74-.1-21.41-.5-32.14,5.01-1.52,10.7-.01,16.44.5Z"/>
        <path class="cls-51" d="m381.19,394.11s-.01.13-.5.5l-17.69,13.95c-1.2-.9.66-10.67.75-12.46,2.74,1.59,8-4.79,8.47-4.98,2.89-1.21,12.5-1.09,8.97,2.99Z"/>
        <path class="cls-45" d="m66.3,339.8c.2.11,2.36,2.88,2.99,3.49-2.69,1.36-6.58.05-8.97,0,.41-4.61,1.13-6.18,5.98-3.49Z"/>
        <path class="cls-88" d="m98.19,268.05c-.26.14-.88.4-1,.5-.29-2.81-1.88,2.46-3.49,1.74l.25-67.51,13.2,3.74v59.29c-.49,1.29-8.33-2-8.97,2.24Z"/>
        <path class="cls-88" d="m253.64,282c-.06-.05-.82.26-1.49-.75.1-1.08,5.67-4.36,3.99-10.96-.51-2-4.64-3.31-7.22-7.22-10.73-3.48-20.72,5.68-14.2,6.98-1.87,5.69.59,9.46,2.49,14.45-6.15,3.08-13.68,19.07-19.93,20.43-1.04.23-2.99.1-3.99-.5.49-3.58.93-6.89,0-10.46,1,.08,2.26-.87,2.49-1.74,1.49-5.61-1.53-64.81.75-76.48,14.57-.75,28.98-3.19,43.6-2.74-1.47,10.67.58,67.35-.5,70.75-.78,2.48-4.73-.73-5.98-1.74Z"/>
        <path class="cls-88" d="m211.29,288.48c-1.72-1.66-2.41-2.02-4.48-2.99-.03-.01.2-.24-.5-.5-2.94-1.08-4.26-.86-4.98-1-1.41-.27-3.17.6-2.99-.75,9.72-11.59,4.2-10.54,1.99-15.2-.32-.68-.97-1.12-1-1.25-.86-3.68.64-38.52,0-47.83,1.58-.53,11.3-3.42,11.96-1.49v71Z"/>
        <path class="cls-88" d="m185.38,270.04c-1.96,7.82,2.67,9.96,2.99,10.46.57.91.97.93,1,1,1.42,2.87-2.7,3.11-3.99,3.99-.79.54-1.43.45-1.49.5-.91-20.91-.5-41.86-.5-62.78l11.21-3.99c.63,15.32.05,31.09.25,46.59-.5.7-8.1-1.23-9.47,4.24Z"/>
        <path class="cls-6" d="m255.63,387.63c1.33,1.01,2.65,2.28,2.99,3.99.53,2.68-.39,10.28,0,14.2-.82,1.88-10.19-1.01-11.96-1.74-.73-.3-3.24-.73-3.49-1.25v-18.93c3.74.12,9.53,1.53,12.46,3.74Z"/>
        <path class="cls-42" d="m255.63,387.63c-2.92-2.21-8.72-3.62-12.46-3.74v18.93c.25.51,2.76.94,3.49,1.25-1.86,2.5-9.27-2.78-9.96-2.99v-17.94c1,.13,13.93-1.61,18.93,4.48Z"/>
        <path class="cls-6" d="m236.7,383.14v13.95h-.5c-3.66-4.15-4.57-10.44-6.98-15.45,4.17.37,6.95,1.43,7.47,1.49Z"/>
        <path class="cls-5" d="m255.13,411.54c-3.99-1.43-8.73-2.44-12.46-4.48-1.27-.7-7.03-4.5-2.74-3.49,1.91.45,11.48,5.8,16.94,6.48v1c-.64-.12-1.27.12-1.74.5Z"/>
        <path class="cls-22" d="m236.7,401.08c-.71-.22-2.41.15-3.49,0,.18-.64-.12-1.89,0-2.74,1.2-1.86,3.09.93,2.99-1.25h.5v3.99Z"/>
        <path class="cls-8" d="m189.86,467.85c1.11,1.3.9,1.34,1,1.49,3.15,5.13-2.33,1.12-7.22,1-.76-.02-5.23,1.56-10.46,0-4.7,3.72-18.72,1.17-24.41-1-.9-.34-1.84,1.09-2.74.25-3.48-3.24,4.52-3.95,1.99-7.22,6.88-2.7,13.59-5.78,20.68-7.97l21.18,13.45Z"/>
        <path class="cls-15" d="m191.61,417.02c5.91-2.03,9.83,13.86,1,11.46-3.52-.96-3.67-10.54-1-11.46Z"/>
        <path class="cls-28" d="m379.69,371.69c3.48,1.99,7.55,3.63,11.46,4.48,4.54,1,5.26,1.03,9.96.5.45-.05.55.56,1,.5-.17.35-1.86,2.41-1.99,2.49-2.69,1.58-6.69,1.55-9.96,1.49-7.97-.13-14.48-1.82-21.42-5.48-.12-2.48.17-5,0-7.47-.15-2.21-.68-4.52-1-6.73,1.46-2.16,2.78,4.97,11.96,10.21Z"/>
      </g>
      <g>
        <g>
          <path class="cls-21" d="m.03,22.42c.02-2.99-.05-5.98,0-8.97h9.22c1.31,6.34-2.54,11.14-9.22,8.97Z"/>
          <g>
            <path class="cls-21" d="m199.58,13.45q32.01.37,64.02.75c-1.71,2.12-3.08,8.03-5.73,8.72h-58.29v-9.47Z"/>
            <path class="cls-21" d="m393.39,14.45l40.61.75c-3.26,3.13-6.06,6.75-10.21,8.72h-37.37l-.75-.75,7.72-8.72Z"/>
          </g>
        </g>
        <path class="cls-15" d="m264.6,454.89c-.2,10.02-11.36,9.51-9.96-1.49.05-.4.44-2.38.5-2.49.06-.13,1.87-1.92,1.99-1.99.14-.08,2.83-.99,2.99-1,3.73-.06,4.54,4.07,4.48,6.98Z"/>
        <g>
          <path class="cls-33" d="m455.92,455.89l.75,11.96c8,.66,21.83.85,27.65,6.48,4.28,4.14,18.46,28.48,22.92,35.87-9.06.94-89.65-.02-109.61,0-3.32-9.91-1.25-28.89,4.48-37.62,1.56-2.38,6.98-7.05,7.47-7.22.26-.09,4.34-.42,5.48-.5,6.08-.4,21.74,1.04,29.4,1.49,2.18.13,4.22.5,6.48.5.22,0,.22,0,.5,0,.19,0,1.53,1.09,3.49.25.11-3.9-.15-7.82,0-11.71,1.16-.18.95.47,1,.5Z"/>
          <path class="cls-48" d="m455.42,441.94c-.44,4.48-.33,8.97-.5,13.45-.15,3.89.11,7.81,0,11.71-1.96.84-3.3-.26-3.49-.25q.25-11.71.5-23.42c.21-.04-.67.02,3.49-1.49Z"/>
          <g>
            <g>
              <path class="cls-68" d="m510.23,319.87c0,13.62.01,27.24,0,40.86-28.03,25.3-24.9,21-31.89,58.29-5,12.03-10.14,18.28-22.92,22.92-4.16,1.51-3.28,1.45-3.49,1.49-7.68,1.45-15.46-1.46-22.92-1-2.8-1.37-5.68-2.57-8.47-3.99-1.86-.95-3.79-1.73-5.48-2.99-.12-2.08-.94-4.31-.5-6.48,14.6-3.28,38.24-19.37,48.33-30.64,4.46-4.98,7.48-10.58,10.96-16.19,1.3-2.1,4.01-4.15,2.99-5.48l1.25.5c1.73-2.09,3.5-5.03,5.23-6.98,2.61-2.94,5.31-5.83,7.97-8.72.45-1.55.68-3.15,1-4.73,2.49.19,4.37-5,5.48-7.47,4.89-10.88,4.35-18.27,5.98-22.67.83-2.24,4.34-7.78,6.48-6.73Z"/>
              <path class="cls-57" d="m510.23,364.71c-32.42,24.67-20.16,26.1-31.89,54.31,6.99-37.29,3.86-33,31.89-58.29,0,1.33,0,2.66,0,3.99Z"/>
            </g>
            <path class="cls-50" d="m437.99,374.18c.82.06,1.67-.07,2.49,0,.1,0,1.61.46,1.99.5,7.35.81,14.32,1.75,21.42,3.99,2.45.77,6.66,3.3,9.96,3.49-3.48,5.61-6.51,11.21-10.96,16.19-10.09,11.27-33.73,27.36-48.33,30.64-1.51.34-3.5.81-4.98,1-8.12,1.02-22.02.76-23.92-9.47-1.91-10.28,9.11-18.41,10.46-22.92,1.05-3.49-4.47-6.62-5.98-3.99-.04-.07-1.05-.06-.25-1.49,1.24-.05,2.5.08,3.74,0,.7.42,2.57,1.96,2.74,1.99,1.49.27,1.67-.93,1.74-1,1.49-1.34.39-1.84.5-1.99.05-.07.76.3,1.49-.75.03-.04-.66-.46-.5-.75.17-.31.33-.68.5-1,.09-.17,1.12.78,1.99-2.49.09-.35-1.04-1.69,1.49-5.48.14-.21-.27-1.14.25-1.49,1.17-.43,4.5-2.02,5.23-2.49,1.13-.73,2.54-2,3.49-2.99,8.49-.15,16.93-.14,25.41.5Z"/>
          </g>
        </g>
        <g>
          <path class="cls-68" d="m306.45,344.28c-2.86.21-6.68-1.4-9.96-1.49-.74-.02-.32-.71-.75-1l-1,.5c-.33,2.24-1.6,2.55-1.74,2.99-1.15,3.42-.67,14.55-1.49,8.22-.67-.88-1.67-.61-2.99-1.74-1.05-.91-1.59-.03-1.49-1.74,1.25-5.38,13.41-16.42,13.45-19.18,0-.16.02-.34,0-.5,8.76,4.57,6.62,7.04,7.47,13.7-.2.44-1.03.21-1.49.25Z"/>
          <g>
            <path class="cls-15" d="m291.75,356.74c3.34.63.36,14.86-2.74,6.23-1.75-4.87,2.29-6.31,2.74-6.23Z"/>
            <path class="cls-15" d="m296.49,342.79c-.25,1.59.45,5.98-.25,6.98-1.58,2.25-.32-3.55-3.24-4.48.15-.44,1.41-.75,1.74-2.99l1-.5c.42.29,0,.97.75,1Z"/>
          </g>
          <g>
            <path class="cls-85" d="m312.93,288.48c3.27-.22,5.85,1.29,6.48,0,2.02,1.07,4.76,1.74,5.98,6.73,2.28,9.33-4.7,23.87,1.74,16.19,1.04,5.51,2.33-4.06,2.24,1.99-.75.6-1.37,2.05-2.24,2.49-.83.42-5.37-1.27-4.73,2.99-2.96,1.7-11.36,21.63-11.96,24.16-.2.85.16,2.26,0,3.24-.47,2.84-.39,5.75-1.49,8.47-.08-.12-1.44-.65-2.49-1.49-.32-.26-.87-.6-1-1,2.25-2.37,1.85-4.55,1-7.97.47-.03,1.3.19,1.49-.25-.86-6.66,1.28-9.13-7.47-13.7-.8-5.4-3.13-3.2-6.48-5.98.35,0,.77.16,1-.25.98-1.79,12.17-31.77,10.46-35.37,3.06,2.33,2.05.12,7.47-.25Z"/>
            <path class="cls-49" d="m324.64,314.39c.33-.11,1.68-.08,1.74.25.14.77-3.8.42-1.74-.25Z"/>
          </g>
        </g>
        <g>
          <path class="cls-12" d="m8.01,389.12c-.08,6.15-.03,12.29,0,18.43,0,.18-.82,1.13-.5,3.49-2.13.98-3.94,2.6-6.48,1.99l-1-11.96c0-3.32,0-6.64,0-9.96,5.39-2.54,7.56-1.88,7.97-1.99Z"/>
          <path class="cls-72" d="m17.47,407.56c-1.39.74-7.36,2.81-4.73,4.48,2.49,1.59,33.79,6.83,40.61,9.47v.5c-8.97-1.31-17.7-4.57-26.66-5.98-1.11-.18-14.78-2.16-13.45-.5,10.45,1.82,21.06,3.91,31.64,6.48-5.44,1.12-17.15-4.06-21.18-3.99-3.07.06,2.91,2.57,4.73,3.49-4.96-1.47-9.93-2.73-14.95-3.99-2.48-.62-4.96-1.49-7.47-1.99-1.54-.31-3.54-.21-4.98-.5-.49-.1-.57-.51-1-.5,0-.5,0-1,0-1.49.32.03.71-.07,1,0,2.53.6,4.34-1.02,6.48-1.99,2.24-1.02,4.29-2.36,6.48-3.49h3.49Z"/>
          <path class="cls-15" d="m11,453.4c2.34,7.81-5.09,16.44-10.96,7.97,0-2.16,0-4.32,0-6.48.82-.27,1.79-2.26,1.99-2.99,3.61-2.48,7.42-3.68,8.97,1.49Z"/>
          <path class="cls-5" d="m1.03,415.03c.17,6.84.83,13.58,1,20.43.1,4.15.76,13.66,0,16.44-.2.73-1.17,2.72-1.99,2.99-.04-13.45.02-26.9,0-40.36.43,0,.5.4,1,.5Z"/>
          <path class="cls-59" d="m1.03,413.04c-.29-.07-.68.03-1,0,0-3.99,0-7.97,0-11.96l1,11.96Z"/>
          <path class="cls-15" d="m29.93,438.45c.02-2.95,1-5.29,2.99-7.47,3.44-1.32,6.59-.39,8.47,2.74,6.77,11.27-11.54,17.51-11.46,4.73Z"/>
          <path class="cls-79" d="m44.88,422.01c3.9.95,9.52,1.83,12.95,2.99,2.4.81,3.25.23,3.99,2.99-.86.58-2.31.94-2.99,1.49-.04-.42.19-1.34-.25-1.49-1.59-.55-16.46-2.63-21.42-4.48-.37.08-.68,1.16-.75,1.49-2.7-1.13-5.35-2.17-7.97-3.49-1.82-.92-7.8-3.43-4.73-3.49,4.03-.08,15.73,5.1,21.18,3.99Z"/>
          <path class="cls-15" d="m59.33,444.93c-9.11.49-4.66-12.03-.5-15.45.68-.56,2.13-.92,2.99-1.49,1.43,5.35.78,12.35-2.49,16.94Z"/>
          <path class="cls-27" d="m28.43,421.51c2.62,1.32,5.27,2.36,7.97,3.49-.06.29.48,0,0,1.99-4.98.16-17.76-6.12-22.92-9.47,5.01,1.26,9.99,2.51,14.95,3.99Z"/>
          <path class="cls-67" d="m40.89,378.66q-.25,11.58-.5,23.17c-7.63-.19-5.53-.9-12.46,1.25-2.8.87-7.85,3.09-10.46,4.48h-3.49c5.28-2.72,10.8-5.52,15.94-8.47.62-.36,3.72-1.1,3.74-2.49q-11.83-3.99-23.67-7.97c.09-.02-.33-.45,1.49-1,1.71,1.36,21.45,8.1,22.67,7.97.26-.03,4.6-2.02,4.73-2.24.37-.61-.27-11.84,0-14.2.6-.2,1.39-.3,1.99-.5Z"/>
          <path class="cls-36" d="m29.93,399.09c-5.14,2.95-10.67,5.75-15.94,8.47-2.18,1.13-4.24,2.46-6.48,3.49-.32-2.36.5-3.31.5-3.49,5.68-2.82,18.44-13.77,21.92-8.47Z"/>
          <path class="cls-5" d="m53.35,422.01l4.48,2.99c-3.43-1.16-9.06-2.04-12.95-2.99-10.58-2.57-21.19-4.66-31.64-6.48-1.32-1.66,12.34.32,13.45.5,8.95,1.41,17.68,4.66,26.66,5.98Z"/>
          <path class="cls-69" d="m6.01,415.53c-2.68,5.24.57,19.56-3.99,19.93-.16-6.85-.82-13.59-1-20.43,1.44.29,3.44.19,4.98.5Z"/>
          <g>
            <path class="cls-41" d="m44.38,405.07c-7.23,10.25,6.32,14.29,6.48,6.48,3.09,1.66,4.65,7.19,2.49,9.96-6.82-2.63-38.11-7.88-40.61-9.47-2.63-1.67,3.35-3.74,4.73-4.48,2.61-1.4,7.66-3.61,10.46-4.48.63,2.19,8.78,1.26,16.44,1.99Z"/>
            <path class="cls-15" d="m50.86,411.54c-.16,7.81-13.71,3.77-6.48-6.48.37.04,2.78-2.27,5.48,2.74.44.81,1.02,2.8,1,3.74Z"/>
          </g>
        </g>
        <path class="cls-42" d="m76.76,349.26c-.9,15.26-.51,30.57-.5,45.84-1.41-6.6.36-37.18-1-40.11-.21-.45-1.05-.2-1.49-.25-.11-2.48.08-4.99,0-7.47-1.35-1.9-3.63-3.15-4.48-3.99-.63-.61-2.79-3.37-2.99-3.49-.11-4.55,8.06,4.52,8.97,5.73,1.93,2.59,1.38,3.57,1.49,3.74Z"/>
        <g>
          <path class="cls-15" d="m485.32,355.24c-.8,4.94-2.22,9.88-1.99,14.95-1.73,1.94-3.51,4.88-5.23,6.98l-1.25-.5c-3.12-.74-7.51-4.19-9.96-2.49-2.8.2,4.26-4.3,6.98-8.72,7.84-12.78,5.81-40.61,8.97-55.55.04.09,1.26.67,1.49,1.25.79,1.93-.17,4.8,0,4.98.95,1.04,3.53-.84,3.99,0,.87,1.61-2.02,32.03-3.99,36.37l1,2.74Z"/>
          <path class="cls-15" d="m495.28,314.39c-2.05,3.12-.8,3.29,1.99,2.99-.05.82.08,1.67,0,2.49-4.01.94-3.7,6.01-4.48,10.46,0,.05-.94-.17-1,.25.08,5.33-1.47,8.17,1.49,13.2-.49,3.2-.36,9.78-1,12.95-.32,1.58-.55,3.18-1,4.73-2.67,2.89-5.36,5.78-7.97,8.72-.23-5.06,1.19-10.01,1.99-14.95,1.97-12.14,4.2-24.31,4.48-36.62,3.51-3.82.35-5.65,5.48-4.24Z"/>
          <path class="cls-52" d="m493.29,343.78c-2.97-5.04-1.41-7.87-1.49-13.2.06-.42.99-.2,1-.25,2.66.91,1.41.24,2.49-1-.64,4.88-1.28,9.79-1.99,14.45Z"/>
        </g>
        <g>
          <g>
            <path class="cls-15" d="m510.23,452.4c-1.73.89-2.92.37-3.49,2.49-8.28,1.78-16.42,4.28-24.91,4.98-4.92.41-9.55.41-14.45,0-3.52-1.57-7.6-1.68-11.46-3.99-.05-.03.16-.68-1-.5.17-4.48.06-8.97.5-13.45,12.78-4.64,17.92-10.89,22.92-22.92,11.73-28.21-.53-29.63,31.89-54.31-.02,29.23.07,58.46,0,87.69Z"/>
            <path class="cls-65" d="m510.23,483.79c-3.95.92-3.77-2.75-3.99-11.46-.05-1.97.27-16.6.5-17.44.57-2.12,1.76-1.6,3.49-2.49-.02,10.46.07,20.93,0,31.39Z"/>
            <path class="cls-15" d="m451.94,443.43q-.25,11.71-.5,23.42c-.28,0-.28,0-.5,0v-13.7c-.27-.62-8.18-3.56-9.47-4.24-4.16-2.17-8.23-4.42-12.46-6.48,7.46-.47,15.24,2.45,22.92,1Z"/>
          </g>
          <g>
            <path class="cls-42" d="m510.23,307.91c0,3.99,0,7.97,0,11.96-2.13-1.05-5.65,4.48-6.48,6.73-1.63,4.4-1.08,11.79-5.98,22.67-.9-2.1,3.12-8.71,3.49-11.21.64-4.36-.33-19.84,0-27.65.06-1.5,2.61-2.33-.5-5.48,3.74-3,6.47-.17,9.47,2.99Z"/>
            <g>
              <path class="cls-15" d="m510.23,290.47c0,2.49,0,4.98,0,7.47-.79.6-1.45.43-1.49.5-1.47,2.19.17,4.28,1.49,5.98,0,1.16,0,2.33,0,3.49-3-3.16-5.73-5.99-9.47-2.99-.38.31-.96.59-1.49.5.57-14.69-11.2-18.01-17.44-9.96-2.99-16.55,2.58-7.13,3.24-7.47.23-.12.71-3.01,1.99-3.99,3.03-2.31,3.85,1.15,6.48-1.99,2.39,2.53,6.83-4.5,8.47,3.49,9.01-2.6,1.61,9.17,8.22,4.98Z"/>
              <path class="cls-29" d="m510.23,302.43c0,.66,0,1.33,0,1.99-1.33-1.7-2.96-3.79-1.49-5.98l1.49,3.99Z"/>
              <path class="cls-67" d="m510.23,302.43l-1.49-3.99c.04-.07.7.11,1.49-.5,0,1.49,0,2.99,0,4.48Z"/>
            </g>
            <path class="cls-14" d="m501.26,310.4c-.33,7.81.64,23.29,0,27.65-.37,2.5-4.39,9.11-3.49,11.21-1.11,2.47-2.99,7.67-5.48,7.47.64-3.18.51-9.75,1-12.95.71-4.66,1.36-9.56,1.99-14.45.13-.99,1.65-5.99,1.99-9.47.08-.82-.05-1.67,0-2.49.04-.66-.01-1.33,0-1.99,1.36.39,1.03-1.2,1-3.49,1.3-.47,1.73-2.56,2.99-1.49Z"/>
            <path class="cls-62" d="m497.28,315.38c-.01.66.04,1.33,0,1.99-2.79.31-4.04.13-1.99-2.99.08-.13,1.77-1.24,2.24-1.99.78,1.07-.23,1.98-.25,2.99Z"/>
            <g>
              <path class="cls-42" d="m499.27,305.42c-2.52,3.97-1,6.13-1,6.48.04,2.28.36,3.88-1,3.49.02-1.01,1.03-1.91.25-2.99-.48.75-2.16,1.87-2.24,1.99-5.13-1.42-1.97.42-5.48,4.24-.28,12.31-2.52,24.48-4.48,36.62l-1-2.74c1.96-4.34,4.86-34.76,3.99-36.37-.45-.84-3.04,1.04-3.99,0-.17-.18.79-3.05,0-4.98-.23-.58-1.45-1.16-1.49-1.25-.38-.84-.48-1.14-1-1.99-.34-.56-.82-2.65-1.99-2.99-.18-.93-.45-1.48-.5-2.49,6.4,2.76,5.98-3.68,10.71-1,7.92-3.83,1.08-7.71-3.49-6.48-2.38.64-2.09,5.03-5.23,1.49.14-.23.37-.83.5-1,6.24-8.05,18-4.73,17.44,9.96Z"/>
              <path class="cls-49" d="m481.83,307.91c-1.28-.32-1.43-1.86-1.99-2.49v-.5c1.17.34,1.65,2.43,1.99,2.99Z"/>
              <path class="cls-15" d="m501.26,310.4c-1.26-1.06-1.69,1.03-2.99,1.49,0-.34-1.53-2.51,1-6.48.54.09,1.11-.19,1.49-.5,3.11,3.15.56,3.98.5,5.48Z"/>
              <g>
                <path class="cls-65" d="m479.34,302.43c-.24-5.61,1.82-5.69,1.99-5.98,3.14,3.54,2.85-.85,5.23-1.49,4.56-1.24,11.41,2.65,3.49,6.48-4.74-2.69-4.31,3.75-10.71,1Z"/>
                <path class="cls-77" d="m487.06,297.95c.39-.11,1.5-.1,1.74.25-7.79,7.47-3.19.15-1.74-.25Z"/>
              </g>
            </g>
            <path class="cls-65" d="m497.28,319.87c-.34,3.48-1.86,8.48-1.99,9.47-1.08,1.24.16,1.91-2.49,1,.79-4.45.47-9.52,4.48-10.46Z"/>
          </g>
        </g>
        <path class="cls-30" d="m237.69,313.89v.5c-.08,0-.15,1.03-1.25,1-3.22-.09-12.14-2.37-16.19-2.99,1.58-.5,8.02-3.43,8.47-3.49,3.87-.49,9.57.37,8.97,4.98Z"/>
        <g>
          <g>
            <path class="cls-42" d="m9.5,291.97c.38.81.72,1.49,1.49,1.99-.9,4.66,1.85,6.65,3.49,10.46,1.1,7.16,4.38,16.4,10.96,20.43,1.88,1.15,3.86,1.87,5.98,2.49.57.17,1.8.37,2.49.5,7.36,1.35,5.44-2.04,9.47-.5-.24,5.57.28,4.12,4.98,4.98l.25,1c-2.62.67-6.71.12-8.22,2.49-3.6-.32-22.69-1.8-24.16-1-3.99,2.19,13.96,3.13,14.95,2.99.31-.05,5.18-4.44,1.49.5,2.62-.29,6.26-.24,8.72.5-.72,2.7,5,3.86,7.97,8.72-1.28,9.53-3.34,18.96-5.98,28.15-5.97,7.22,6.11-25.26,1.74-27.4-1.23.15-3.44.24-4.48.5-2.16.54-34.52,15.77-40.61,18.43-.02-25.91.01-51.82,0-77.73,8.7-11.6,10.21-13.36,9.96-.75-2.86.54-1.22,1.72-.5,3.24Z"/>
            <path class="cls-65" d="m43.38,375.67c.87,2.29,2.65.48,4.48.5-1.89,1.55-4.65,1.74-6.98,2.49-.6.2-1.39.3-1.99.5-9.05,2.95-18.28,5.75-27.4,8.47-1.83.54-1.41.97-1.49,1-.63.18-1.31.31-1.99.5-.41.11-2.58-.55-7.97,1.99,0-7.97,0-15.94,0-23.92,6.08-2.67,38.44-17.89,40.61-18.43,1.04-.26,3.26-.35,4.48-.5,4.37,2.15-7.71,34.62-1.74,27.4Z"/>
          </g>
          <g>
            <path class="cls-15" d="m70.78,349.76c-1.29,1.65-2.59,4.73-3.49,6.73-4.51,5.1-18.62,2.78-19.43,3.99-2.74,4.04,4.76,3.05,2.49,11.96-.19.75-1.66,3.06-2.49,3.74-1.84-.01-3.62,1.79-4.48-.5,2.64-9.19,4.7-18.62,5.98-28.15-2.97-4.86-8.69-6.02-7.97-8.72,7.89,2.37,7.73,11.38,17.19,11.96,5.41.33,12.17-3.22,12.21-1Z"/>
            <path class="cls-14" d="m40.39,335.81c.29.03,3.08,1.16,5.73,1.49,2.08.26,4.08-.24,6.23,0-2.36.6-2.38,5.18,0,5.98.71.24,4.08.39,5.48.5,2.38.18,2.36-.5,2.49-.5,2.39.05,6.28,1.36,8.97,0,.85.83,3.13,2.09,4.48,3.99-.72.64-2.51,1.88-2.99,2.49-.04-2.23-6.8,1.33-12.21,1-9.46-.58-9.3-9.59-17.19-11.96-2.46-.74-6.1-.79-8.72-.5,3.68-4.94-1.18-.54-1.49-.5-.99.14-18.94-.8-14.95-2.99,1.47-.81,20.57.67,24.16,1Z"/>
            <g>
              <path class="cls-15" d="m28.93,315.38c3.66,5.67,5.84,6.3,5.98,6.73.91,2.74-.94,4-1,4.24l-2.49,1c-2.12-.62-4.1-1.34-5.98-2.49-5-5.94-7.91-13.34-10.96-20.43-1.64-3.81-4.39-5.81-3.49-10.46l1,.25c.38-2.03-.65-1.75-2.49-2.24-.72-1.52-2.36-2.7.5-3.24.25-12.61-1.27-10.85-9.96.75,0-7.81,0-15.61,0-23.42,15.34-11.15,32.8-1.59,29.89,5.23-.67,1.56-2.3-1.86-2.49,6.98,3.54,1.81,1.22,11.33-2.24,12.71-.7.28-5.86.99-7.47,1-1.97,1.33,9.61,20.94,11.21,23.42Z"/>
              <g>
                <g>
                  <path class="cls-42" d="m26.44,274.53c.19.69-.31.95-.5,1.49-8.1,3.49,3.35,18.07-9.96,14.7-1.48-9.41.86-15.65,10.21-18.68-.41,1.86.24,2.37.25,2.49Z"/>
                  <path class="cls-38" d="m28.19,279.51c.36.36.35,1.3.25,1.74-.57,2.44-3.9,4.66-.25-1.74Z"/>
                  <path class="cls-76" d="m25.94,276.02c.19-.55.68-.8.5-1.49.34,3.35-1.63,4.85-.5,1.49Z"/>
                </g>
                <g>
                  <g>
                    <path class="cls-30" d="m25.45,324.85c-6.58-4.03-9.86-13.27-10.96-20.43,3.05,7.09,5.96,14.49,10.96,20.43Z"/>
                    <path class="cls-34" d="m11,293.96c-.78-.5-1.11-1.18-1.49-1.99,1.84.5,2.87.21,2.49,2.24l-1-.25Z"/>
                    <path class="cls-5" d="m33.92,326.35c-.02.07,1.35,1.07,0,1.49-.7-.13-1.92-.33-2.49-.5l2.49-1Z"/>
                  </g>
                  <path class="cls-48" d="m25.69,265.56c1.01-.26,1.76,1.68,1,1.99-.15.06-1.34-1.54-1-1.99Z"/>
                </g>
              </g>
            </g>
            <path class="cls-52" d="m57.83,343.78c-1.4-.11-4.77-.26-5.48-.5l.5-5.48c2.92.45,5.87-2.91,4.98,5.98Z"/>
            <path class="cls-2" d="m52.35,337.31s-.18.39.5.5l-.5,5.48c-2.38-.8-2.36-5.38,0-5.98Z"/>
          </g>
        </g>
        <path class="cls-68" d="m375.21,304.42c-2.09,6.95-4.28,14.75-10.46,19.43-4.45.54-9.07-.51-13.45-.5.76-5.09,5.42-9.97,7.47-15.69,3.65-10.17,1.73-18.55,7.22-16.69,2.81.95,9.31,9.33,9.22,13.45Z"/>
        <g>
          <path class="cls-42" d="m266.09,279.51c-.02,2.1.73.46,1.25,1,3.16,3.28,2.36,7.79,4.24,11.71.81,5.16-5.21,4.63-5.48,7.22-.89.4-1.38.69-2.49.5.03-.33-.02-.67,0-1,4.71-4.43,1.13-3.34,0-4.98-1.26-1.84-3.12-3.44-1.49-5.98,1.92,1.5,1.57,5.62,2.99-4.98.1-.75.48-3.79.5-3.99-.05.62.5.46.5.5Z"/>
          <path class="cls-39" d="m265.1,283c-1.42,10.6-1.07,6.48-2.99,4.98-1.16-.9-1.05.53-1.99-.75-.06-.94.47-.46,1-1.25.57-.85,3.37-4.13,3.99-2.99Z"/>
          <g>
            <g>
              <path class="cls-86" d="m276.06,292.47c-6.34,12.49-4.56,18.87-4.98,20.68-.05.21-1.52,1.12-1.99,2.74-.64,2.2-.53,3.35,0,5.48-.82-.17-1.67-.28-2.49-.5,2.2-3.44-2.48-2.8-6.48-1.99-.9-.9-1.71-2.82-1-3.99.94-.19,3.68-.37,3.99-1.25-2.37-5.61.02-8.91.5-13.7,1.11.19,1.6-.09,2.49-.5,9.06-4.1,5.27-7.7,9.96-6.98Z"/>
              <path class="cls-83" d="m266.59,320.86c-2.51-.67-4.47,0-6.48-1.99,4-.8,8.68-1.45,6.48,1.99Z"/>
            </g>
            <g>
              <path class="cls-63" d="m277.06,292.96c3.68,3.27,4.79,11.6,5.98,15.94.23.84-.35,2.2.25,2.99,2.06,1.15,9.24,4.04,10.21,4.98.77,1.57-5.62-.6-9.72-1.99-1.89,10.33-3.3,8.67-13.7,6.98,1.74-1.72,1.06-4.82-1-5.98.47-1.62,1.94-2.53,1.99-2.74.42-1.81-1.35-8.18,4.98-20.68.26.07.92.43,1,.5Z"/>
              <path class="cls-10" d="m270.08,321.86c-.46-.07-.52-.4-1-.5-.53-2.13-.64-3.28,0-5.48,2.05,1.16,2.74,4.26,1,5.98Z"/>
            </g>
          </g>
          <path class="cls-15" d="m277.06,292.96c-.08-.07-.74-.43-1-.5-4.7-.72-.91,2.88-9.96,6.98.27-2.59,6.29-2.06,5.48-7.22-1.88-3.92-1.07-8.43-4.24-11.71-.51-.53-1.26,1.11-1.25-1,5.68-4.74,13.97,4.42,10.96,13.45Z"/>
          <path class="cls-21" d="m263.6,298.94c.1-1.65-.07-3.33,0-4.98,1.13,1.64,4.71.55,0,4.98Z"/>
        </g>
        <g>
          <path class="cls-79" d="m262.11,339.3c.74,2.27.46,41.49.5,47.83.01,1.99-.02,3.97,0,5.98,0,.06-.51-.31-.5,1l-1.99-.5c.02-.69-.02-1.39,0-1.99.24-7.99-.26-50.05.5-52.56.2-.66.95,0,1.49.25Z"/>
          <path class="cls-66" d="m110.15,373.68c.21.46-.32,1.52.25,1.99.3.23,4.31-3.91,6.73-1.49-1.4,11.5-1.66,23.06-1.49,34.63l1,1.25c4.03,5.91,42.21,7.34,50.57,7.47l.25,28.4c-.08-.06-.95.19-1.99-.5-5.94-3.96-10.53-7.86-11.21-7.97-.38-.07-7.24,2.34-7.22,2.74,4.56,2.53,13.58,5.34,17.44,7.72.95.59,2.28.85,1.74,1.49-10.84,5.13-26.61,11.04-36.62,16.44l-8.97-7.47c5.48-2.62,16.16-5.6,22.42-7.72-5.75-2.59-16.99-2.09-23.42-1.25-.07,0,.23-.71-1.25-.5-.44.36.02.85-.75,1-3.29.63-19.07,5.18-21.18,6.48-8.54,5.26-10.93,24.6-12.95,26.41-2.63,2.35-10.9,2.02-13.2-7.97-.97-4.2-2.13-17.79-2.49-23.17-.03-.4-.95.03-1-.75-.17-2.79.18-27.25.5-28.65.53-2.31,4.26-4.94,6.48-5.73.59-.21,2.83-.99,2.99-1,3.06-.21,3.86.13,6.48,1.49-1.1,5.43,3.65,4.51,7.47,3.99.11-.02.54.88,2.24.5,1.09-.8.8-10,.75-11.96,5.92,4.28,6.07-10.24,5.48-10.96.04-.67-.86-.58-1.49-.5,1.03-10.4.81-12.56,9.96-18.68.07-6.56-.09-13.12,0-19.68,3.18-.92.57,9.78,1.49,13.7.1.43.97.19,1,.25Z"/>
          <path class="cls-15" d="m223.74,338.3c-.14,3.4,0,11.94.5,14.7,3.01,16.78,22.39,13.55,35.37,13.95-.17-7.98-.56-37.04,2.49-27.65-.54-.24-1.3-.9-1.49-.25-.76,2.52-.26,44.57-.5,52.56h-1.49c-.34-1.71-1.66-2.98-2.99-3.99-5-6.09-17.93-4.35-18.93-4.48-.52-.07-3.3-1.12-7.47-1.49-5.74-.51-11.43-2.01-16.44-.5-.02-.66.03-1.33,0-1.99,4.77,3.33,4.84-17.68,4.48-18.68-.25-.72-4.39-2.67-5.48-3.24-.11-.75-1.59-6.56-1.99-7.47-.47-1.07-1.79-2.98-2.74-3.49-3.32-1.79-68.93-2.58-75.23-1.49-2.31.4-4.07,1.91-5.73,3.49-5.32,5.06-4.09,10.22-5.48,16.44-.82,3.66-1.23,10.47-3.49,9.47-2.42-2.42-6.42,1.72-6.73,1.49-.57-.47-.04-1.53-.25-1.99v-30.64c.24-.43,7.11,1.21,9.47-1.74,1.32-1.66,1.05-2.53,1-4.48,34.32,1.49,68.78,2.76,103.14,1.49Z"/>
          <path class="cls-69" d="m119.61,341.29c-2.36,2.95-9.23,1.31-9.47,1.74v30.64c-.03-.06-.89.18-1-.25-.93-3.92,1.69-14.62-1.49-13.7.08-6.13.09-12.3,0-18.43.67-3.82,7.73.69,11.96,0Z"/>
          <g>
            <path class="cls-78" d="m259.12,314.89c-.71,1.17.1,3.09,1,3.99,2,2,3.97,1.32,6.48,1.99.83.22,1.67.32,2.49.5.47.1.54.42,1,.5,10.4,1.69,11.81,3.36,13.7-6.98,4.1,1.39,10.49,3.57,9.72,1.99,3.05,2.96-2.85,4.69.5,7.47,3.34,2.78,5.68.58,6.48,5.98.02.16,0,.34,0,.5-.36.56-.6,1.73-1.25,1.99-3.5,1.44-66.57,5.15-75.48,5.48-34.35,1.26-68.81,0-103.14-1.49-4.31-.19-8.65-.28-12.95-.5-13.86-.7-48.98-2.1-59.29-3.99-4.7-.86-5.22.58-4.98-4.98.01-.33-.05-.68,0-1,9.45-1.71,19.81-5.91,28.9-7.97,2.2-.5,4.78-1.12,6.98-1.49,1.08-.18,2.4-.38,3.49-.5,1.05,1.56,3.06.74,3.99,1-9.07-.08-6.7,4.98-5.73,5.48,1.04.54,9.38-1.22,11.21-1.49,2.44-.36,1.89-.48,1.99-.5,2.91-.6,6.34-.48,9.22-1.49.3-.1.32-1.82.75-1.99,3.77-1.53,7.61-.73,11.46-1,18.33-1.26,19.49,2.38,18.43-7.47.64.02.46-.5.5-.5,1.99.06,3.99-.05,5.98,0,1.34.03,3.48.49,4.48.5,7.72.05,15.45-.04,23.17,0,.78-1.21-.14-1.99-.25-2.49,1.01.27,3.27.4,3.49.5,4.29,1.84.89,4,17.19,1.99.62-8.08,2.87-12.66,3.74-20.43l2.49-1c-.52,3.88-.49,5.97-1.49,10.46-.75,3.33-3.27,4.82-2.49,8.97.69,3.69,2.49,1.52,5.48,1.99-3.01,8.37-27.06,8.66-34.88,9.72,9.57,8.26,29.86,8.41,40.36,1.49l-8.47-2.99,6.48-7.22c2.86.31,7.12.7,9.96.5.99,1.2,3.72,1.21,5.48,1.49,1.9.31,3.66.29,4.98.5,4.05.62,12.97,2.89,16.19,2.99,1.09.03,1.17-.99,1.25-1,.57-.06.08.62,1.49,0,.35-.15.91,1.07,1.49.25,1.71-8.5,4.9-22.52,11.46-28.15-2.72,7.1-9.04,16.46-9.96,28.15.73,1.43,14.66.72,16.94.25Z"/>
            <path class="cls-19" d="m198.33,309.41c1.06.14,1.17.46,1.49.5l-6.48,7.22,8.47,2.99c-10.5,6.91-30.79,6.77-40.36-1.49,7.81-1.05,31.87-1.35,34.88-9.72.21.03.53.3,1.99.5Z"/>
            <path class="cls-57" d="m134.06,308.91c1.05,9.85-.1,6.21-18.43,7.47-.1-.62.15-1.58,0-1.99,1.48-1.03,3.8-1.65,4.98-2.99.74,1.08,2.8.6,3.99-.5,3.02,1.26,3.8,1.5,3.49-2.49,2.05.18,3.89.44,5.98.5Z"/>
            <path class="cls-72" d="m120.61,336.81c.05,1.95.33,2.82-1,4.48-4.23.69-11.29-3.82-11.96,0-.02-1.65-.43-3.31,0-4.98,4.31.22,8.64.31,12.95.5Z"/>
            <path class="cls-28" d="m88.72,318.37c.8.37,2.97,2.1,3.49,2.99-1.83.27-10.17,2.03-11.21,1.49-.97-.5-3.34-5.57,5.73-5.48,1.24.34,1.21.64,1.99,1Z"/>
            <path class="cls-16" d="m102.67,316.38c.41.23.82-.11,1.49,1-.43.17-.45,1.89-.75,1.99-2.88,1.01-6.3.9-9.22,1.49l-.75-3.49c8.35,2.06,3.64-4.11,9.22-1Z"/>
          </g>
          <path class="cls-42" d="m212.78,379.16c-.26-5.71-.43-18.02-1-21.92,1.09.57,5.23,2.52,5.48,3.24.35,1,.29,22.01-4.48,18.68Z"/>
        </g>
        <g>
          <path class="cls-15" d="m207.8,483.79c3.16,4.56,2.14,21.4-6.73,17.44-3.44-1.54-1.5-14.2-1.25-14.95.85-2.46,6.12-5.16,7.97-2.49Z"/>
          <g>
            <path class="cls-15" d="m127.58,470.34c-2.31,2.62,5.54-.3,7.97,6.48.08.23.48,2.14.5,2.49.62,10.77-11.85,8.29-12.95,1.25-.73-4.65,2.47-5.44.5-8.72,1.17-1.14,2.65-1.3,3.99-1.99v.5Z"/>
            <path class="cls-15" d="m127.58,507.21c-7.28-2.49-7.61-11.48-3.49-16.94,2.46-1.08,5.7-4.17,7.47,5.23,2.1,11.12-3.21,11.08-3.99,11.71Z"/>
          </g>
          <path class="cls-5" d="m167.44,445.92s-.16.68,1,.5c2.41,2.35,4.92,4.8,7.47,6.98h-1.99c-1.93-1.4-4.41-3.64-6.23-3.49-13.57,6.25-26.87,13-40.11,19.93-1.33.7-2.82.85-3.99,1.99-.11-.19-.78,1.03-1.49-.25-.88-1.57,3.71-3.7,7.47-5.73,10.01-5.4,25.79-11.31,36.62-16.44.54-.64-.79-.91-1.74-1.49l1-2.49c1.04.69,1.91.44,1.99.5Z"/>
          <path class="cls-42" d="m208.3,350.76c1.77,3.5,2.07,54.01,1.99,62.78-.06.02-.32.91-.75,1-9.1,1.8-30.19,1.78-40.86,2.99l-.25,28.9c-1.16.18-.95-.47-1-.5l-.25-28.4c-8.36-.13-46.54-1.56-50.57-7.47,1.07-15.77,2.22-31.43,5.98-46.83,1.17-4.78.93-10.1,5.98-12.95.71-.4,2.04-1.37,2.74-1.49,3.55-.66,68.66-.97,72.24-.5.96.13,4.3,1.63,4.73,2.49Z"/>
          <path class="cls-51" d="m122.6,363.22c-3.75,15.41-4.91,31.07-5.98,46.83l-1-1.25c-.16-11.57.09-23.12,1.49-34.63,2.26,1,2.67-5.81,3.49-9.47l1.99-1.49Z"/>
          <path class="cls-28" d="m165.45,445.42l-1,2.49c-3.86-2.38-12.88-5.2-17.44-7.72-.02-.4,6.84-2.81,7.22-2.74.68.12,5.27,4.01,11.21,7.97Z"/>
          <g>
            <path class="cls-48" d="m175.91,453.4c8.75,7.47,16.59,16.03,25.41,23.42.57.48,2.24,2.32,2.49,2.49l-1.49-.5c-.42-.65-10.5-9.98-11.46-9.47-.1-.16.12-.19-1-1.49-1.11-1.3-14.51-13.41-15.94-14.45h1.99Z"/>
            <path class="cls-15" d="m220.75,460.87c.57,4.82-3.34,9.61-8.47,6.98-3.59-1.84-2.86-10.02.25-12.46-13.19-1.8-26.65-2.83-39.36-6.98l43.84,6.48c1.12.42,3.6,4.79,3.74,5.98Z"/>
          </g>
          <path class="cls-26" d="m173.92,453.4c1.43,1.04,14.83,13.15,15.94,14.45l-21.18-13.45c-7.08,2.19-13.8,5.28-20.68,7.97-6.8,2.67-13.68,5.16-20.43,7.97v-.5c13.24-6.93,26.53-13.68,40.11-19.93,1.81-.15,4.29,2.09,6.23,3.49Z"/>
          <path class="cls-1" d="m209.79,349.76l-1.49,1c-.44-.86-3.77-2.37-4.73-2.49-3.58-.47-68.69-.16-72.24.5-.7.13-2.03,1.09-2.74,1.49-.77-1.02-1.02-2.39-2.49-1.99,1.66-1.57,3.42-3.09,5.73-3.49,6.31-1.08,71.91-.29,75.23,1.49.95.51,2.27,2.42,2.74,3.49Z"/>
          <path class="cls-48" d="m209.79,349.76c.41.91,1.88,6.72,1.99,7.47.57,3.91.74,16.21,1,21.92.03.66-.02,1.33,0,1.99.4,10.73.74,21.4.5,32.14-1.32,1.67-2.77.19-2.99.25.08-8.77-.22-59.28-1.99-62.78l1.49-1Z"/>
          <path class="cls-73" d="m128.58,350.26c-5.04,2.86-4.81,8.17-5.98,12.95l-1.99,1.49c1.39-6.22.16-11.39,5.48-16.44,1.47-.4,1.73.98,2.49,1.99Z"/>
        </g>
        <g>
          <path class="cls-15" d="m312.43,286.49c.12.82.49,1.22.5,1.99-5.42.37-4.42,2.58-7.47.25,1.71,3.6-9.49,33.59-10.46,35.37-.22.41-.65.25-1,.25-3.35-2.79,2.56-4.51-.5-7.47-.97-.94-8.15-3.83-10.21-4.98-.6-.79-.02-2.15-.25-2.99,6.16-.84,7.16-7.22,9.47-10.46,2.33-3.27,4.64-7.37,7.47-10.21,2.32-2.34,3.09-.91,3.99-2.24.06-.09-.09-.79,1-1.99,1.22,1.72,5.19,3.37,7.47,2.49Z"/>
          <path class="cls-42" d="m312.43,286.49c-2.28.87-6.25-.77-7.47-2.49-5.75-8.11,5.03-13.9,7.47,2.49Z"/>
          <g>
            <path class="cls-15" d="m319.41,288.48c-.62,1.29-3.21-.22-6.48,0,0-.77-.38-1.17-.5-1.99-2.45-16.39-13.23-10.6-7.47-2.49-1.09,1.21-.93,1.9-1,1.99-2.82-2.27-3.02-5.58-2.99-8.97,0-.1,1.08-.01.25-1.99l-.75,1.49c-2.1,2.98-1.31-5.5,4.73-8.47,15.68-7.71,23.82,10.12,9.22,18.68,1.96.31,3.23.82,4.98,1.74Z"/>
            <path class="cls-64" d="m300.97,277.02l-.5-.5.75-1.49c.83,1.98-.25,1.89-.25,1.99Z"/>
            <path class="cls-2" d="m319.16,271.04c1.01,1.7,1.77,3.48,1,5.48l-1-5.48Z"/>
          </g>
        </g>
        <g>
          <path class="cls-15" d="m107.65,336.31c-.43,1.67-.02,3.33,0,4.98.09,6.13.08,12.3,0,18.43-.09,6.56.07,13.12,0,19.68-9.16,6.13-8.94,8.28-9.96,18.68-1.14.14-3.49,2.91-6.98,3.49.83-2.32.64-7.58,2.49-10.21,1.49-2.12,4.79-1.13,3.99-5.98,23.32-17.84-.05-5-9.22-7.22-5.63-1.37-4.48-12.33-3.24-16.69-2.47-4.2-5.2-8.21-7.97-12.21-.11-.17.44-1.15-1.49-3.74-.9-1.21-9.08-10.28-8.97-5.73-4.85-2.69-5.57-1.12-5.98,3.49-.13,0-.11.68-2.49.5.89-8.89-2.06-5.53-4.98-5.98-.68-.1-.46-.49-.5-.5-2.14-.24-4.15.26-6.23,0-2.65-.34-5.43-1.47-5.73-1.49,1.51-2.37,5.6-1.82,8.22-2.49l-.25-1c10.31,1.89,45.43,3.28,59.29,3.99Z"/>
          <path class="cls-15" d="m90.71,421.01c-3.82.53-8.58,1.44-7.47-3.99.61-2.99,4.32-7.07,4.48-7.47,4.88,2.39,2.46,6.31,2.99,11.46Z"/>
          <path class="cls-15" d="m93.7,409.55c-.06-2.11.54-4.37-1-5.98,2.03-1.78,4.51-3.1,6.48-4.98.59.72.44,15.24-5.48,10.96Z"/>
          <path class="cls-8" d="m99.18,398.59c-1.96,1.88-4.45,3.2-6.48,4.98-1.54,1.35-2.28,2.93-3.99,3.99.7-1.83,1.31-4.06,1.99-5.98,3.48-.58,5.84-3.35,6.98-3.49.64-.08,1.53-.17,1.49.5Z"/>
          <g>
            <path class="cls-15" d="m70.29,276.52c.46.58,2.3,6.43,1.99,7.97-.15-.45-.41-1.3-.5-1.49-.77-1.66-1.76-3.97-1-1-.67-.24-3.09.15-4.24-1.49-2.49.53-.96,16.45,5.73,12.46-.34.38-.75,1.02-1,1.49-.37-.09-3.11-.09-3.24,0-1.55,1.1,4.37,20.59,4.24,23.92-9.09,2.06-19.44,6.26-28.9,7.97.41-2.38,1.37-1.45,1.49-4.48l8.22-1.49c.42-.46-.16-3.55-.25-4.48-.57-6.27-4.51-21.95,5.48-22.67-6.09-12.6,7.11-22.91,11.96-16.69Z"/>
            <path class="cls-55" d="m71.28,294.46c1.06.24,3.24,3.43,3.99,4.48.08,5.72,5.24,11.56,3.99,17.94-2.19.38-4.77.99-6.98,1.49.14-3.33-5.79-22.81-4.24-23.92.13-.09,2.86-.09,3.24,0Z"/>
            <path class="cls-68" d="m70.78,282c.07.02.44,1.14,1,1,.09.2.34,1.04.5,1.49,1.25,3.64,2.58,5.62,0,8.47-6.69,3.99-8.22-11.92-5.73-12.46,1.15,1.64,3.56,1.25,4.24,1.49Z"/>
            <path class="cls-5" d="m71.78,283c-.56.15-.93-.97-1-1-.77-2.98.23-.67,1,1Z"/>
          </g>
        </g>
        <g>
          <path class="cls-11" d="m376.7,444.43q-.25,32.88-.5,65.77c-.66,0-1.33,0-1.99,0q.25-33.13.5-66.27c.06.02-.05-.86,1.25-.5.42.12-.08.76.75,1Z"/>
          <path class="cls-51" d="m429.02,442.43c4.22,2.06,8.3,4.31,12.46,6.48l2.99,17.44c-7.66-.45-23.32-1.89-29.4-1.49-.12-7.8.16-15.62,0-23.42,2.67-2.1,5.83-1.65,5.48-2.99,2.79,1.42,5.67,2.62,8.47,3.99Z"/>
          <path class="cls-65" d="m414.57,428.98c-.44,2.17.38,4.39.5,6.48.11,1.98-.04,3.99,0,5.98.16,7.8-.12,15.62,0,23.42-1.14.07-5.22.41-5.48.5.53-3.61-.5-7.42-.5-10.96,0-8.08,1.03-16.3.5-24.41,1.48-.19,3.47-.66,4.98-1Z"/>
          <path class="cls-81" d="m420.55,438.45c.35,1.34-2.81.89-5.48,2.99-.04-1.98.11-4,0-5.98,1.69,1.26,3.62,2.04,5.48,2.99Z"/>
          <path class="cls-5" d="m363.75,396.1c-.09,1.79-1.95,11.56-.75,12.46l17.69-13.95c-5.53,4.14-19.44,18.66-23.92,20.93-.1.05-.74-.07-1.49.5,1.27-2.22,1.54-2.21,2.99-3.99.1-.12.86.32,2.49-1.74,1-6.55-.18-24.65,3.49-28.65-.79,4.8-.26,9.64-.5,14.45Z"/>
          <path class="cls-13" d="m357.77,375.17c-9.15,2.91-18.58,5.69-27.4,9.47-1.65.71-3.51,1.44-4.98,2.49-.06-.23-.46-.96-.5-1,6.43-3.47,13.3-5.61,20.18-7.97.44-.15.19-.98.25-1,.54-.18,1.01.51,1.99-1l10.46-1Z"/>
          <path class="cls-72" d="m364.25,373.18c1.61,1.04,2.82,1.61,4.48,2.49,6.95,3.66,13.46,5.35,21.42,5.48h-10.21c6.5,4.18,15.38,1.03,22.17,4.98-.87,3.27-1.9,2.32-1.99,2.49-1.33-2.38-4.47-2.43-6.73-3.49-8.23.36-12.05-2.92-10.21.5-2.68,1.09-2.36-1.86-2.49-1.99-2.01-2.03-6.72-2.96-9.96-3.99-.58-.18-4.06-2.19-6.73-2.99-11.58.33-22.91,5.79-33.63,7.97,8.82-3.78,18.26-6.56,27.4-9.47,1.16-.37,2.81-.5,2.99-.75-2.37-3.39,2.2-.97-1.49-4.24-2.35-2.08-5.03-3.91-7.47-5.98,4.85,2.18,9.83,7.27,12.46,8.97Z"/>
          <path class="cls-28" d="m383.18,385.64c-1.84-3.41,1.99-.14,10.21-.5,2.26,1.05,5.39,1.11,6.73,3.49-.17.32-.33.68-.5,1-6.78-4.18-12.97.47-18.43,4.48,3.53-4.08-6.08-4.2-8.97-2.99.17-2.71-1.49-5.67-1.49-5.98-.02-.64,1.43-.23,1-1.99,3.75,2.52,16.31,11.5,11.46,2.49Z"/>
          <path class="cls-83" d="m399.62,389.62c-.16.29.53.71.5.75-.73,1.05-1.45.68-1.49.75-9.91-7.32-30.96,17.9-40.36,24.91-.23-.16-.89,1.18-1.49-.5,4.48-2.27,18.38-16.78,23.92-20.93.49-.37.47-.48.5-.5,5.47-4.02,11.65-8.66,18.43-4.48Z"/>
          <path class="cls-4" d="m403.61,380.65c-2.54,3.79-1.4,5.13-1.49,5.48-6.79-3.95-15.67-.8-22.17-4.98h10.21c3.27.05,7.27.09,9.96-1.49-.15,2.12,1.55-.44,3.49,1Z"/>
          <path class="cls-25" d="m407.1,373.68c.47.64.9,1.84,1.99,2.99-.73.47-4.06,2.06-5.23,2.49-.52.36-.11,1.28-.25,1.49-1.94-1.44-3.63,1.13-3.49-1,.14-.08,1.82-2.14,1.99-2.49,1.82-3.76.3-5.08,1.49-8.97,1.09,2.48,1.99,3.43,3.49,5.48Z"/>
          <g>
            <path class="cls-79" d="m398.62,391.12c-.11.15.99.65-.5,1.99-1.57-1.65-2.84-1.1-4.48-1-1.24.08-2.5-.05-3.74,0-.8,1.44.21,1.43.25,1.49.19.33,4.75,4.36,5.98,3.99-1.35,4.51-12.37,12.64-10.46,22.92-1.09,1.82-.17,3.11-2.99,3.24,1.23.9.92,1.53,1,1.74-1.98-2.05-3.33-1.39-3.49-1.49-.16-.1.48-.97-2.74-2.49-2.37-1.12-17.77-7.15-18.19-4.48-.02-.07-.94-.96-1-1,9.4-7.01,30.45-32.23,40.36-24.91Z"/>
            <path class="cls-51" d="m409.59,429.98c.54,8.12-.5,16.33-.5,24.41-9.97-3.78-20.16-6.99-30.39-9.96l2.99-5.98c8.15-.28,2.96-10.24,1.99-12.95-.08-.22.24-.85-1-1.74,2.82-.13,1.9-1.41,2.99-3.24,1.9,10.23,15.8,10.49,23.92,9.47Z"/>
            <path class="cls-15" d="m383.68,425.49c.96,2.72,6.16,12.68-1.99,12.95-5.82.2-10.22-10.7-1.49-14.45.16.1,1.51-.55,3.49,1.49Z"/>
            <path class="cls-15" d="m356.77,415.53c.6,1.68,1.27.34,1.49.5.06.04.97.93,1,1,.33.92,2.33,12.46-2.74,11.46-3.19-.63-3.33-9.48-2.74-11.71.22-.82,1.45-.67,1.49-.75.75-.57,1.4-.45,1.49-.5Z"/>
            <g>
              <path class="cls-51" d="m324.89,386.13s.44.76.5,1c-1.47,1.05-1.28.51,1,1-1.61-.34-1.83,3.6-1.49,4.73,1.4,4.65,7.04.81,7.47.75,1.42-.2,2.32-.16,3.74,0,3.4,1.96,6.6,3.43,9.22,6.48-2.94,5.25,2.08,11.54,4.48,7.97,2.38-.49,3.51,2.39,3.74,2.49,2.12,1,4-.69,4.73,1.49-1.45,1.78-1.72,1.76-2.99,3.99-.04.07-1.28-.07-1.49.75-.59,2.23-.45,11.08,2.74,11.71,5.07,1,3.07-10.54,2.74-11.46.42-2.67,15.81,3.36,18.19,4.48,3.22,1.53,2.58,2.39,2.74,2.49-8.72,3.75-4.32,14.65,1.49,14.45l-2.99,5.98c-2.27-.66-1.9.03-1.99,0-.82-.23-.32-.88-.75-1-1.3-.36-1.18.52-1.25.5-3.39-.94-21.76-7.35-23.17-6.98-1,.27-2.78,3.99-2.74,4.24.18,1.2,7.58,7.01,7.72,9.22-3.11.21-20.95-7.55-21.67-5.73v65.52c-1.49,0-2.99,0-4.48,0l.5-67.51c-6.46-6.08-12.66-13.14-13.45-22.42-6.79.56-14.99-8.37-8.97-11.71,1.81-1,2.1,1.57,2.99-2.49,1.7-2.37,10.6-14.33,10.96-15.2,1.32-3.15,0-3.55,0-3.74,0-1.56,2.19-1.47-1-1.99.09-.06.75-1.46,1.49-1.49.54,2.05,1.62,2.15,1.99,2.49Z"/>
              <path class="cls-51" d="m370.72,379.66c-1.24-.26-1.62.5-1.99.5-2.91,0-1.6-1.64-4.48,1.49-3.67,3.99-2.48,22.1-3.49,28.65-1.64,2.06-2.39,1.63-2.49,1.74-.73-2.18-2.62-.49-4.73-1.49-.22-.11-1.35-2.98-3.74-2.49,2.24-3.33-1.67-12.99-4.48-7.97-2.62-3.05-5.82-4.51-9.22-6.48-1.42-.16-2.32-.2-3.74,0,.66-6.22-3.49-4.95-5.98-5.48-2.28-.48-2.47.06-1-1,1.47-1.05,3.34-1.79,4.98-2.49,10.72-2.18,22.05-7.64,33.63-7.97,2.67.8,6.15,2.81,6.73,2.99Z"/>
              <path class="cls-15" d="m349.8,408.06c-2.4,3.57-7.43-2.72-4.48-7.97,2.81-5.02,6.72,4.64,4.48,7.97Z"/>
              <path class="cls-15" d="m326.38,388.13c2.49.53,6.64-.73,5.98,5.48-.44.06-6.08,3.9-7.47-.75-.34-1.13-.12-5.07,1.49-4.73Z"/>
            </g>
            <path class="cls-28" d="m396.13,397.59c-1.23.38-5.79-3.65-5.98-3.99,1.51-2.63,7.03.49,5.98,3.99Z"/>
          </g>
          <path class="cls-21" d="m398.13,393.11c-.07.07-.25,1.27-1.74,1-.17-.03-2.04-1.57-2.74-1.99,1.65-.1,2.92-.66,4.48,1Z"/>
          <path class="cls-70" d="m370.72,379.66c3.24,1.03,7.96,1.95,9.96,3.99.58,7.91-8.13-3.19-11.46-2.49-.18-.28-.42-.66-.5-1,.38,0,.76-.76,1.99-.5Z"/>
          <path class="cls-79" d="m359.26,370.19c3.7,3.27-.88.85,1.49,4.24-.18.24-1.83.38-2.99.75l-10.46,1c.15-3.58,1.77-6.71,2.99-9.96-.08,1.82,7.93,4.69,8.97,3.99Z"/>
          <path class="cls-76" d="m352.79,360.23c1.29.85,3.24,4.16,4.48,1.99.84,2.78,2.35.56,3.49,2.24.29.43-1.19,2.71,2.99,3.74.11,1.56.94,3.31.5,4.98-2.62-1.7-7.61-6.79-12.46-8.97-.03-.02-.15-.19-.5-.5-.4-.35-1.66-.74-2.49-1.49.51-1.32,1.64-2.43,1.49-3.99.95.43,1.59,1.4,2.49,1.99Z"/>
          <path class="cls-13" d="m351.79,364.21c2.45,2.07,5.12,3.9,7.47,5.98-1.04.71-9.05-2.17-8.97-3.99.15-.41-.24-1.26,1-2.49.35.31.47.48.5.5Z"/>
          <path class="cls-73" d="m380.69,383.64c.14.14-.19,3.09,2.49,1.99,4.85,9.01-7.71.03-11.46-2.49-.89-.6-1.89-1.05-2.49-1.99,3.33-.7,12.04,10.41,11.46,2.49Z"/>
        </g>
        <g>
          <path class="cls-75" d="m128.08,308.41c.31,3.99-.47,3.75-3.49,2.49-.17-.07-2.88-1.85-2.99-1.99-.03-.04-.68.16-.5-1,3.74.39,5.21-.53,5.48-.5.09.01-.12.85,1.49,1Z"/>
          <path class="cls-28" d="m124.59,310.9c-1.19,1.1-3.25,1.58-3.99.5.6-.68.42-1.75,1-2.49.11.14,2.82,1.92,2.99,1.99Z"/>
        </g>
        <g>
          <path class="cls-76" d="m114.13,308.41c.64,3.62.22,2.59,1.49,5.98.15.41-.1,1.38,0,1.99-3.85.26-7.69-.53-11.46,1-.68-1.1-1.08-.77-1.49-1,.74-1.09.5-2.28.5-3.49,1.12.92,2.47.25,3.49.5.29.07,1.37,2.44,5.48.25-.43-1.72-.32-3.5-.5-5.23h2.49Z"/>
          <path class="cls-68" d="m106.66,274.03c-.05.62.5.46.5.5-.13,2.61,3.56,4.86,2.49,7.72-.25.66-4.29,3.7-4.73,3.74-4.82.39-4.69-15.71-1.49-15.45,3.35.28-.2,7.04,3.24,3.49Z"/>
          <g>
            <path class="cls-72" d="m108.65,271.04c-1.66-.35-1.26,2.23-1.99,2.99-3.44,3.55.11-3.21-3.24-3.49-3.19-.27-3.33,15.84,1.49,15.45.44-.04,4.48-3.07,4.73-3.74,1.07-2.86-2.62-5.12-2.49-7.72,1.15-2.43,1.84.54,3.49.5,1.27,2.85,2.97,4.23,2.99,5.23l-4.98,7.47,10.46,11.46,1.99,8.72c-.18,1.15.46.95.5,1-.57.74-.4,1.81-1,2.49-1.18,1.34-3.51,1.96-4.98,2.99-1.27-3.39-.86-2.36-1.49-5.98-1.46-8.29-2.99-11.85-6.48-19.68-.89-.85-2.15,1.57-2.49,2.24-.56,1.12-2.75.28,2.99,4.48,1.32,3.05,3.16,9.82,3.49,12.95.18,1.73.06,3.51.5,5.23-4.12,2.2-5.19-.18-5.48-.25-1.32-4.06.81-9.23-3.24-11.96-1.63.22-.25,9.94-.25,11.46,0,1.2.25,2.4-.5,3.49-5.58-3.11-.86,3.06-9.22,1l.75,3.49c-.1.02.44.13-1.99.5-.52-.89-2.68-2.62-3.49-2.99,3.95-3.65-3.65-2.25-5.98-1.99-1.09.12-2.41.31-3.49.5,1.26-6.38-3.91-12.22-3.99-17.94,4.74,6.72,5.72,20.57,7.47,15.2.32-.97-4.86-10.41-2.49-19.93,2.4-9.61,13.27-4.35,13.95-5.98,2.1-8.55-2.32-15.27,2.99-19.68.12-.1.74-.35,1-.5,5.9-3.28,7.58-1.66,10.46,2.99Z"/>
            <g>
              <path class="cls-54" d="m88.72,318.37c-.78-.36-.76-.66-1.99-1-.92-.25-2.94.57-3.99-1,2.33-.25,9.93-1.65,5.98,1.99Z"/>
              <g>
                <path class="cls-81" d="m108.65,271.04c1.25,2.02,1.14,2.07,1.99,3.99-1.64.05-2.34-2.93-3.49-.5,0-.04-.55.12-.5-.5.73-.75.34-3.34,1.99-2.99Z"/>
                <path class="cls-59" d="m96.44,287.48c.21-.06,3.65,2.04,3.74,2.24.47,1.09,1.65,22.9.75,23.67-2.5,2.11-1.55-7.22-1.74-8.22-.44-2.23-6.55-16.63-2.74-17.69Z"/>
                <path class="cls-68" d="m114.13,308.41h-2.49c-.33-3.13-2.16-9.91-3.49-12.95-.75-1.72-1.39-3.34-2.99-4.48.34-.67,1.6-3.09,2.49-2.24,3.49,7.83,5.01,11.39,6.48,19.68Z"/>
                <path class="cls-44" d="m106.66,313.39c-1.02-.25-2.36.43-3.49-.5,0-1.52-1.38-11.24.25-11.46,4.05,2.72,1.92,7.9,3.24,11.96Z"/>
                <path class="cls-86" d="m108.15,295.45c-5.74-4.21-3.55-3.37-2.99-4.48,1.59,1.15,2.24,2.76,2.99,4.48Z"/>
              </g>
            </g>
          </g>
        </g>
        <g>
          <g>
            <path class="cls-15" d="m200.33,268.05c2.21,4.66,7.73,3.61-1.99,15.2-.18,1.35,1.58.48,2.99.75-3.01,2.41-.85,2.26-1.99,4.24-.75,1.3-2.96,2.02-3.49,2.99-.44.8-1.14,7.01-2.49,6.73,1-4.49.97-6.58,1.49-10.46.93-6.9,2.63-10.8-3.49-.25.64,1.22,1.01,1.17,1,1.25-.86,7.77-3.12,12.35-3.74,20.43-16.3,2.01-12.9-.15-17.19-1.99-1.09-2.75.44-1.86.5-1.99-.29,2.94,5.57,5.03,8.22,4.48.43-.09.69-.98.75-1,.56-.16.97-.69,1.49-1,.09-.05.87,1.16,1.99.25.41-.72-.37-9.28,0-11.46.26-1.57,3.96-6.86,2.49-7.72-.16-.09-.92.05-1.49,0,.93-1.21,1.38-2.22,0-2.99,1.28-.88,5.41-1.11,3.99-3.99,12.84-2.2,1.31-2.16-1.74-6.48-.98,2.38,1.85,2.32.75,5.48-.32-.5-4.95-2.64-2.99-10.46,4.41-4.2,9.63-4.3,14.95-1.99Z"/>
            <path class="cls-42" d="m211.29,288.48l1.99,5.48c.93,3.57.49,6.88,0,10.46-.2,1.48-1.29,3.61-.5,4.98-.65.17-1.12.87-2.99,1-2.84.2-7.1-.18-9.96-.5-.33-.04-.43-.36-1.49-.5,2.91-7.93,7.01-15.56,8.47-23.92,2.07.97,2.77,1.33,4.48,2.99Z"/>
            <path class="cls-68" d="m206.31,284.99c-.83,4.71-3.39,4.33-3.99,5.23-2.12,3.19-6.15,16.68-11.46,16.69-.77-4.14,1.75-5.63,2.49-8.97,1.35.28,2.05-5.93,2.49-6.73.53-.97,2.74-1.69,3.49-2.99,1.15-1.98-1.01-1.83,1.99-4.24.73.14,2.04-.08,4.98,1Z"/>
            <path class="cls-65" d="m206.8,285.49c-1.46,8.35-5.56,15.98-8.47,23.92-1.47-.19-1.78-.46-1.99-.5-3-.47-4.79,1.69-5.48-1.99,5.31,0,9.34-13.5,11.46-16.69.6-.9,3.16-.52,3.99-5.23.7.26.47.48.5.5Z"/>
            <path class="cls-43" d="m194.85,287.48l-2.49,1c0-.08-.36-.02-1-1.25,6.12-10.55,4.41-6.65,3.49.25Z"/>
            <path class="cls-68" d="m185.38,288.48c-1.18,1.53-5.3,2.55-5.98,6.73.95,8.69-2.86,13.27,1.49,13.2-.06.02-.32.91-.75,1-2.65.55-8.51-1.54-8.22-4.48.94-2.22,1.29-5.37,3.99-11.46,1.88-1.04,2.95-3.12,4.48-4.48.54-.48,3.28-2.83,3.49-2.99.06-.05.7.04,1.49-.5,1.38.77.93,1.78,0,2.99Z"/>
            <path class="cls-65" d="m186.87,288.48c-5.32,5.32-6.58,11.71-4.48,18.93-.52.31-.93.84-1.49,1-4.36.07-.55-4.51-1.49-13.2.68-4.17,4.8-5.2,5.98-6.73.58.05,1.34-.09,1.49,0Z"/>
            <path class="cls-32" d="m182.39,307.41c-2.09-7.22-.83-13.61,4.48-18.93,1.47.86-2.23,6.15-2.49,7.72-.37,2.18.41,10.74,0,11.46-1.13.91-1.91-.3-1.99-.25Z"/>
          </g>
          <path class="cls-56" d="m189.37,281.5c-.03-.06-.42-.09-1-1,1.1-3.16-1.72-3.1-.75-5.48,3.06,4.32,14.59,4.28,1.74,6.48Z"/>
        </g>
        <g>
          <path class="cls-68" d="m148.01,285.49c.61,4.43,1.31,3.76,1.49,4.98-3.31.72-2.6-5.06-3.49-6.73v23.42c6.26,2.41,7.78-.88,8.47-1.25,1.1-.59,6.25-4.02,6.48-4.98,2.88.72,6.27,2.26,6.98,5.48.11.5,1.03,1.28.25,2.49-7.72-.04-15.45.05-23.17,0-2.16-7.17,1.98-17.2-2.49-23.92-1.28-5.21,1.44-3.93,2.24-7.97,2.68,3.5,2.41.16,3.74,1.74-1.74,2.16-.84,4.27-.5,6.73Z"/>
          <path class="cls-15" d="m160.97,300.94c-.22.96-5.37,4.39-6.48,4.98-5.06,1.14-3.52-5.63-4.98-15.45-.18-1.22-.88-.55-1.49-4.98.6.05.44-.38.5-.5,4.99.58,13.48,11.54,12.46,15.94Z"/>
          <g>
            <path class="cls-42" d="m141.53,284.49c.05.06-.15.68,1,.5,4.47,6.71.33,16.74,2.49,23.92-1.01,0-3.15-.47-4.48-.5v-9.47c2.24-2.22,2.43-4.12.5-6.98,3.14-4.12.88-1.58-.25-1-3.58,1.84-10.5,2.55-7.22,7.47,1.63,2.45.51-.19,5.48,1.49-3.92,2.11-4.88-2.31-4.48,8.47-.04,0,.14.52-.5.5-2.09-.06-3.93-.32-5.98-.5-1.61-.14-1.41-.99-1.49-1-.44-3.83.37-7.68.5-11.46,4.06-5.17,10.5-3.06,8.97-10.46,1.88-.57,3.63-.4,5.48-1Z"/>
            <path class="cls-3" d="m140.54,308.41c-1.99-.05-3.99.06-5.98,0-.39-10.78.56-6.36,4.48-8.47.4-.21,1.23-.73,1.49-1v9.47Z"/>
            <path class="cls-68" d="m136.05,285.49c1.53,7.4-4.91,5.29-8.97,10.46.02-.61-.02-1.31,0-1.99,2.27-1.27,3.75-5.24,3.99-5.48,1.56-1.61,2.85-2.34,4.98-2.99Z"/>
            <path class="cls-65" d="m140.54,298.94c-.26.26-1.1.78-1.49,1-4.97-1.69-3.85.95-5.48-1.49,4.15-2.05-1.93-4.51,7.47-6.48,1.93,2.86,1.74,4.75-.5,6.98Z"/>
            <path class="cls-37" d="m141.04,291.97c-9.4,1.97-3.33,4.42-7.47,6.48-3.28-4.93,3.64-5.63,7.22-7.47,1.13-.58,3.39-3.13.25,1Z"/>
          </g>
          <g>
            <path class="cls-20" d="m148.51,284.99c-.06.12.1.55-.5.5-.34-2.46-1.24-4.57.5-6.73-1.33-1.59-1.06,1.76-3.74-1.74-.8,4.04-3.52,2.76-2.24,7.97-1.14.18-.95-.44-1-.5-12.4-15.97,9.45-24.32,9.96-5.73-2.26,1.72-1.68,3.53-2.99,6.23Z"/>
            <path class="cls-68" d="m149.51,290.47c1.46,9.82-.07,16.58,4.98,15.45-.69.37-2.21,3.66-8.47,1.25v-23.42c.89,1.66.18,7.45,3.49,6.73Z"/>
          </g>
        </g>
        <g>
          <path class="cls-58" d="m387.17,292.47c1.46,12.47-.47,25.33-5.48,36.87-.55.1-.77.74-1.49.5-.88-.61.24-1.65-2.99-2.49,3.74-7.11-.14-1.78-3.49,0-7.91-.44-10.78,2.34-10.96-1.99h1.25c1.02-.69.68-1.44.75-1.49,6.19-4.68,8.37-12.48,10.46-19.43.59-1.95,2.22-2.51,2.99-12.46,1.28,1.03,1.34-.56,2.49-1.99.28.2,5.85,2.3,6.48,2.49Z"/>
          <path class="cls-42" d="m394.14,294.46l-3.99-.5c-.17-.52.3-1.65-.25-1.99-2.41-.36-2.61.54-2.74.5-.63-.19-6.19-2.29-6.48-2.49-.13-.09-1.61-2.03-1.99-2.49-2.6-3.12-4.38-8.94-3.99-12.95.17-1.79,2.98-8.68,3.99-6.73-1.04,6.93,3.38,4.85,1.99,8.97,9.58,4.21,3.6,9.07,4.98,11.46.46.8,7.38.22,8.47,6.23Z"/>
          <path class="cls-43" d="m380.69,289.97c-1.15,1.43-1.21,3.02-2.49,1.99.18-2.28-.44-4.45.5-4.48.38.46,1.86,2.4,1.99,2.49Z"/>
          <path class="cls-25" d="m390.15,293.96c1.45,4.48.45,10.99,3.49,10.46-.72,4.94-7.02,24.02-11.96,24.91,5.01-11.54,6.94-24.4,5.48-36.87.13.04.33-.86,2.74-.5.55.34.08,1.47.25,1.99Z"/>
          <path class="cls-61" d="m394.14,294.46c.39,2.13-.14,7.5-.5,9.96-3.03.52-2.04-5.98-3.49-10.46l3.99.5Z"/>
          <path class="cls-84" d="m377.2,327.34c-1.16-.04-2.33.06-3.49,0,3.35-1.78,7.23-7.11,3.49,0Z"/>
        </g>
        <g>
          <path class="cls-65" d="m341.33,306.42c-1.54-.67-4.06,8.39-7.97,12.71l4.98,1.25c-1.74,1.33-5.47-.3-7.47,1,.04-.41-1.27-3.6-1.99-4.48.24-.15,3.35-3.36,3.99-3.99,2.83-2.79,4.27-5.33,6.48-8.47,8.34-11.85,4.32-6.46,1.99,1.99Z"/>
          <path class="cls-15" d="m330.86,321.36c-.08.77-1.86,3.45-2.49,4.48-4.91,1.24-3.64,3.65-4.48,8.47-1.05,5.98-1.15,11.89-1,17.94-6.56-4.35-6.84-4.4-6.48-1l-3.49,1c-.26-1.29-.03-.73,0-1.49,2.55.07,2.93-2.54,1.25-3.99-.43-.36-.9.64-1.25.5-.7-.29-.3-1.4-2.49-1,.16-.98-.2-2.39,0-3.24.6-2.53,9-22.47,11.96-24.16,1.98-.06,4.82-.97,6.48-1.99.72.88,2.04,4.08,1.99,4.48Z"/>
          <path class="cls-13" d="m312.93,350.76c.04-1.16-.03-2.33,0-3.49.35.14.82-.86,1.25-.5,1.69,1.44,1.31,4.06-1.25,3.99Z"/>
          <path class="cls-72" d="m358.27,283c.27,2.94,1.44,5.68,1,8.72-4.62,1.72-5.99,2.71-7.97,7.22l-.5-1c.29-.8,1.12-1.78,1-2.24-4.92-3.78-6.96-4.45-8.47-10.71,2.74.72,3.87.1,1.99-2.49.37.09,1.4.87,3.49.5.73-.13,1.63.39,1.49-.75-.23-.47-1.04-.17-1.49-.25-1.41-.23-3.13.33-4.98-.5l-.5-1c4.95-15.8,5.53-6.59,6.23-6.48.43.07-.3-2.74,2.49-2.49,4.07.37,3.37,10.01,6.23,11.46Z"/>
          <path class="cls-20" d="m358.27,283c-2.86-1.45-2.16-11.09-6.23-11.46-2.79-.25-2.06,2.56-2.49,2.49-.7-.12-1.28-9.33-6.23,6.48-9.26-11.15,12.04-21.08,15.45-.75.35,2.12-.51,3.08-.5,3.24Z"/>
          <g>
            <path class="cls-68" d="m351.29,298.94c-2.17,4.93-5.54,20.32-1.99,24.41-.13,0,.66.37-2.49.5-1.36-1.44-3.42-1.43-4.98-2.49-1.9-5.37,6.16-15.59,8.97-23.42l.5,1Z"/>
            <path class="cls-59" d="m341.83,321.36c1.56,1.07,3.62,1.05,4.98,2.49-2.42.1-2.89.99-6.73-.5.24,3.47-7.72,1.48-11.71,2.49.64-1.03,2.41-3.72,2.49-4.48,2-1.3,5.73.33,7.47-1,.87-.66.29-.89.5-1.49,2.1-.26.68.92,2.99,2.49Z"/>
          </g>
          <path class="cls-68" d="m341.33,306.42c-1.36,4.96-1.96,10.94-2.49,12.46-.21.6.37.83-.5,1.49l-4.98-1.25c3.91-4.31,6.44-13.37,7.97-12.71Z"/>
          <path class="cls-85" d="m345.31,282.5c1.88,2.59.75,3.21-1.99,2.49-.16-.68-.18-3.02.5-2.99,0,.84.87.35,1.49.5Z"/>
          <path class="cls-82" d="m348.8,282v1c-2.08.37-3.12-.41-3.49-.5-.63-.15-1.5.34-1.49-.5v-.5c1.86.82,3.57.27,4.98.5Z"/>
          <path class="cls-87" d="m348.8,283v-1c.45.07,1.26-.22,1.49.25.13,1.13-.77.62-1.49.75Z"/>
        </g>
        <g>
          <path class="cls-15" d="m465.39,275.03l-.5,22.92c-.63-.17-1.34-.32-1.99-.5v-.5c-.29-3.77-1.5-7.03-2.99-10.46-.19-.44-3.19-5.24-3.99-6.48-.17-.27.18-1.46,0-1.74-5.72-9.04-11.99-5.88-13.95-5.73-7.7.6-.18-12.84,13.2-7.97.13-4.69.91.16,1.99,1,1.93,1.5,2.78-2,8.22,9.47Z"/>
          <path class="cls-65" d="m447.45,366.7c.55.3.24.34,1.99,1,1.89.7,3.58.35,3.99.5,1,.36,3.98,1.56,4.98,1.99,5.86,2.52,6.06,4.91,7.97,4.48-.24.23-1.38,2.64-2.49,3.99-7.11-2.24-14.07-3.17-21.42-3.99-.78-2.89,2.32-6.14,2.49-9.72.97-.94.57.7,2.49,1.74Z"/>
          <path class="cls-42" d="m435.99,348.27l-1,8.22c.94,1.45,1.44.2,1.49.25.83.74.19.91,1.49,1,.54.04.85.99,1.49.25-.29-1.44.44-2.29.5-3.24l1,.5c-1.29,3.72-2.08,14.01-2.99,18.93-8.48-.64-16.92-.65-25.41-.5-.58-21.25,0-15.87,8.97-22.92l11.71,5.98,1.25-15.45c.76,7.9,1.02,5.12,1.49,6.98Z"/>
          <g>
            <path class="cls-14" d="m462.9,297.45c.65.17,1.36.33,1.99.5.05.01-.37.14,1,.5,1.11.29,2.33.28,2.99.5,1.53.51,3.03,1.3,4.48,1.99,2.56,1.22,4.57,2.33,6.48,4.48.56.63.71,2.18,1.99,2.49.52.85.62,1.15,1,1.99-3.16,14.94-1.12,42.77-8.97,55.55-2.71,4.42-9.78,8.92-6.98,8.72-.03.02-.31.32-.5.5-1.92.42-2.11-1.97-7.97-4.48,1.6-3.41,5.41-5.27,7.47-8.22,5.63-8.06,9.42-27.93,6.23-26.66-2.76,12.52-7.62,25.36-18.68,32.88-.4-.15-2.1.21-3.99-.5,6.58-13.96,4.64-29.89,5.98-44.84.49-.05,1.09.1,1.25,0,1.07-.7,4.69-23.64,4.73-24.91.6.06.47-.47.5-.5.81.77.95-.01,1,0Z"/>
            <path class="cls-58" d="m458.41,370.19c-1-.43-3.98-1.63-4.98-1.99,11.06-7.52,15.92-20.36,18.68-32.88,3.2-1.28-.6,18.6-6.23,26.66-2.06,2.95-5.87,4.81-7.47,8.22Z"/>
            <path class="cls-14" d="m461.4,297.95c-.05,1.27-3.67,24.22-4.73,24.91-.16.1-.76-.05-1.25,0,.38-4.25.43-8.75,1-12.95.61-4.54,2.34-8.94,2.99-13.45,1.67-3.01,2.1-1.25,1.99,1.49Z"/>
            <path class="cls-89" d="m462.9,296.95v.5s-.18.77-1,0c.04-.04-.15-.68,1-.5Z"/>
            <path class="cls-14" d="m443.47,308.41c-2.27,6.15-3.4,18.82-5.48,24.16-1.36,3.5-3.02,4.57-4.98,7.22-1.49,2.01-2.93,4.6-4.73,6.48-2.06,1.01-4.91,3.06-6.73,4.48-8.98,7.05-9.55,1.67-8.97,22.92-.94.99-2.36,2.26-3.49,2.99-1.09-1.15-1.53-2.35-1.99-2.99.3-6.81-1.49-15.88-3.49-22.42-.16-.54.11-1.56,0-2.24l-1-.25c-1.32-1.2-10.49-1.62-10.96-.25l1.49,26.9-1.99.75c-3.91-.86-7.98-2.5-11.46-4.48.62-2.29.65-4.82,1-6.98.2-1.25.39-2.2.5-3.49,2.22-25.37-2.74-13.43,22.42-16.44-.42,2.85,2.71,2.03,2.49-.5,4.5-1.14,7.85-4.68,8.97-5.48,8.11-5.76,9.26-7.13,13.95-15.94,4.32-8.12,3.4-9.39,9.96-17.94-.36,1.48,3.31,3.5,4.48,3.49Z"/>
            <path class="cls-23" d="m448.45,303.43c-1.58.5-.79,1.95-1,2.99-.87-.73-2.14,1.97-3.99,1.99-1.17.01-4.85-2.01-4.48-3.49,1.5-1.96,2.76-4.17,4.48-5.98,1.17,1.47,3.39,3.51,4.98,4.48Z"/>
            <path class="cls-14" d="m447.45,306.42c-.86,4.32-2.66,10.24-1.49,14.45-.05.32.05.68,0,1-.83,5.01-1.53,9.89-1.99,14.95-.47,5.12-.75,10.3-1,15.45-.61.45-1.75,2.3-1.99,2.99l-1-.5c.35-6.13-4.42-7.39-1.99,2.99-1.31-.09-.67-.26-1.49-1-.09-2.29,1.1-5.51.5-7.72-.13-.46-.98-.69-1-.75-.48-1.86-.74.93-1.49-6.98-.06-.67.21-1.39-.25-1.99-.04-.05-.39.73-1.25.5,1.96-2.65,3.62-3.73,4.98-7.22,2.08-5.35,3.21-18.02,5.48-24.16,1.85-.02,3.11-2.72,3.99-1.99Z"/>
          </g>
          <path class="cls-42" d="m434.5,341.29l-1.25,15.45-11.71-5.98c1.82-1.43,4.67-3.47,6.73-4.48,1.8-1.88,3.24-4.46,4.73-6.48.86.23,1.2-.55,1.25-.5.46.6.18,1.32.25,1.99Z"/>
          <path class="cls-15" d="m407.1,373.68c-1.5-2.05-2.4-3-3.49-5.48-1.4-3.19-1.83-6.05-1.99-6.48-.56-1.41-.92-3.88-1.49-4.48.63-1.16,1.86-1.42,2.49-2.49.21-.35.67-2.45,1-3.49,1.99,6.54,3.79,15.62,3.49,22.42Z"/>
          <path class="cls-21" d="m439.98,354.75c-.05.95-.79,1.79-.5,3.24-.64.74-.96-.21-1.49-.25-2.42-10.38,2.34-9.12,1.99-2.99Z"/>
          <path class="cls-21" d="m436.49,356.74c-.06-.05-.56,1.2-1.49-.25l1-8.22c.02.06.87.29,1,.75.6,2.21-.59,5.43-.5,7.72Z"/>
          <g>
            <path class="cls-23" d="m440.48,374.18c-.82-.07-1.67.06-2.49,0,.91-4.92,1.7-15.22,2.99-18.93.24-.69,1.38-2.54,1.99-2.99.08-.06,1.38-.28,1.99-.5l-4.48,22.42Z"/>
            <path class="cls-15" d="m447.45,351.26c-.59,5.16-3.18,10.62,0,15.45-1.92-1.04-1.52-2.69-2.49-1.74-.17,3.58-3.28,6.82-2.49,9.72-.38-.04-1.89-.49-1.99-.5l4.48-22.42c.6-.22,1.06-.74,2.49-.5Z"/>
            <path class="cls-46" d="m453.43,307.41c0,.17,0,.33,0,.5-.09,4.31-2.24,15.99-2.99,21.42-2.82,1.73.79,8.26-6.48,7.47.46-5.05,1.16-9.94,1.99-14.95,1.8-1.99,2.62-9.93,2.99-10.71.77-1.61,2.5-.07,2.74-.25.74-.56-.67-3.62,1.74-3.49Z"/>
            <path class="cls-55" d="m450.44,329.34c-1.01,7.33-2.15,14.56-2.99,21.92-1.43-.24-1.89.28-2.49.5-.61.22-1.91.44-1.99.5.25-5.14.53-10.32,1-15.45,7.27.79,3.66-5.74,6.48-7.47Z"/>
            <g>
              <path class="cls-78" d="m456.42,309.9c-.56,4.2-.62,8.71-1,12.95-1.34,14.95.6,30.88-5.98,44.84-1.76-.65-1.44-.7-1.99-1-3.18-4.83-.59-10.29,0-15.45.84-7.36,1.98-14.59,2.99-21.92.75-5.44,2.9-17.11,2.99-21.42,1.55.34,2.36.79,2.99,1.99Z"/>
              <path class="cls-59" d="m459.41,296.45c-.65,4.51-2.38,8.92-2.99,13.45-.63-1.21-1.44-1.65-2.99-1.99,0-.17,0-.33,0-.5,0-.29-.78-.86-.5-2.49,4.31-.78,5.38-8.21,5.98-11.96,1.49-.37.84,1.14.5,3.49Z"/>
              <path class="cls-74" d="m452.93,304.92c-.28,1.63.5,2.2.5,2.49-2.41-.14-1.01,2.93-1.74,3.49-.24.18-1.97-1.36-2.74.25-.37.78-1.19,8.72-2.99,10.71.05-.32-.05-.68,0-1,.95-5.47,3.12-10.81,3.49-16.44.13.06.34-.05.5,0,.54.17,1.28.81,2.99.5Z"/>
            </g>
            <path class="cls-84" d="m449.45,304.42c-.37,5.63-2.54,10.97-3.49,16.44-1.17-4.21.63-10.13,1.49-14.45.21-1.04-.59-2.49,1-2.99.89.54.93.97,1,1Z"/>
          </g>
          <g>
            <path class="cls-52" d="m462.9,296.95c-1.14-.18-.96.46-1,.5-.02.03.1.56-.5.5.1-2.75-.32-4.5-1.99-1.49.34-2.35.99-3.86-.5-3.49.52-3.22.34-6.03,1-6.48,1.49,3.44,2.7,6.7,2.99,10.46Z"/>
            <path class="cls-42" d="m455.92,280.01c-4.42-.23-1.04,2.53-3.99,1.49-.69-9.35-9.96-5.99-10.71-5.98-.31,0-.03-1.37-1.25-1,.54-.78,1.07-1.61,1.99-1.99,1.96-.15,8.23-3.31,13.95,5.73.18.28-.17,1.48,0,1.74Z"/>
            <path class="cls-80" d="m455.92,280.01c.79,1.24,3.79,6.04,3.99,6.48-.66.45-.48,3.25-1,6.48-.6,3.75-1.67,11.18-5.98,11.96-1.71.31-2.45-.32-2.99-.5,2.82-4.98,1.35-15.42,1-21.67-.01-.24,1-1.17,1-1.25,2.94,1.03-.44-1.73,3.99-1.49Z"/>
            <g>
              <path class="cls-65" d="m451.94,281.5c0,.08-1.01,1.01-1,1.25.35,6.26,1.82,16.69-1,21.67-.16-.05-.36.06-.5,0-.06-.03-.11-.45-1-1-1.59-.97-3.82-3.02-4.98-4.48-3.47-4.36-3.73-7.97-6.48-12.71.27-4.73.23-7.72,2.99-11.71,1.22-.37.94,1,1.25,1,.75-.01,10.02-3.37,10.71,5.98Z"/>
              <path class="cls-38" d="m440.23,277.52c.89,8.54-3.02-1.72-.5,1.99l.5-1.99Z"/>
            </g>
          </g>
        </g>
        <g>
          <path class="cls-15" d="m322.89,383.64c-.74.04-1.41,1.44-1.49,1.49-8.35,5.66-11.73-11.02-2.24-9.47,4.59.75,3.05,5.33,3.74,7.97Z"/>
          <path class="cls-71" d="m330.37,353.75c3.12.42,6.28,2.76,9.47,3.49,1.24,2.66,6.31,3.76,8.97,5.48-.15.41-.37.59-.5,1-3.27-1.05-6.86-5.35-9.96-1.99-.07-.03.12.72-1.49,0-.21-.1-.78.1-1,0,6.56-1.81-1.69-5.1-8.97-7.47.81.01,2.93-.57,3.49-.5Z"/>
          <path class="cls-15" d="m351.29,363.71c-1.23,1.24-.84,2.09-1,2.49-1.22,3.25-2.84,6.39-2.99,9.96-.99,1.5-1.45.81-1.99,1,.46-3.73,1.5-7.35,2.49-10.96.11-.4.07-1.09.5-2.49.13-.41.35-.59.5-1,.05-.15-.06-.35,0-.5.83.75,2.09,1.14,2.49,1.49Z"/>
          <g>
            <path class="cls-79" d="m312.93,347.27c-.03,1.16.04,2.33,0,3.49-.03.77-.26.2,0,1.49.72,3.5,4.88,8.42,5.73,7.97-.39-2.79-1.96-6.32-2.24-8.97-.36-3.4-.08-3.35,6.48,1,.66.44,1.34,1.03,1.99,1.49,2.54,1.83,5.02,5.51,10.46,7.97-1.41,1.16-12.14,4.15-12.46,4.73-2.59,4.82,5.2,7.71,6.48,4.48,1.58-4.01-4.31-5.03,7.47-9.22,1.61.72,1.43-.03,1.49,0,3.21,1.26,6.32,3.07,9.47,4.48-.99,3.61-2.03,7.23-2.49,10.96-.06.02.19.85-.25,1-6.88,2.36-13.75,4.5-20.18,7.97-.37-.34-1.46-.44-1.99-2.49-.69-2.64.85-7.22-3.74-7.97-9.49-1.55-6.11,15.12,2.24,9.47,3.19.53.99.43,1,1.99l-10.46.75c-.84,4.59.04,15.71-.5,18.19-.89,4.07-1.18,1.49-2.99,2.49-.03-6.99.71-13.96,1-20.93.12-2.77.93-5.76,1-8.47,0-.09.66.37.5-1.74-.15-.94-1.99-3.53-1.99-3.74-.04-1.49.07-3,0-4.48,1.55.27,1.34-10.43.5-12.95-.11-.32-.45-1.43-.5-1.49,1.11-2.72,1.03-5.63,1.49-8.47,2.19-.4,1.79.71,2.49,1Z"/>
            <g>
              <path class="cls-35" d="m308.94,369.19c-.2-4.36.73-8.6.5-12.95.84,2.52,1.05,13.22-.5,12.95Z"/>
              <g>
                <path class="cls-15" d="m335.85,361.72c.21.1.78-.1,1,0-11.79,4.19-5.89,5.21-7.47,9.22-1.27,3.23-9.07.34-6.48-4.48.32-.59,11.05-3.58,12.46-4.73.15.04.36-.06.5,0Z"/>
                <path class="cls-36" d="m326.88,354.25c7.28,2.38,15.53,5.66,8.97,7.47-.14-.06-.35.04-.5,0-5.44-2.47-7.92-6.14-10.46-7.97.65.09,1.38.3,1.99.5Z"/>
                <path class="cls-13" d="m348.3,363.71c-.43,1.4-.39,2.09-.5,2.49-3.15-1.42-6.26-3.23-9.47-4.48,3.11-3.36,6.69.94,9.96,1.99Z"/>
                <path class="cls-15" d="m308.94,373.68c0,.21,1.84,2.8,1.99,3.74.17,2.11-.5,1.65-.5,1.74-3.37-2.66-4.4-6.2-1.49-5.48Z"/>
                <path class="cls-9" d="m318.41,366.2c-.6,1.77-4.53,3.11-5.73,4.98-.83-1.98.25-1.89.25-1.99l5.48-2.99Z"/>
              </g>
            </g>
          </g>
          <path class="cls-64" d="m349.8,358.23c.15.05.36-.06.5,0,.14,1.55-.99,2.67-1.49,3.99-.06.14.05.35,0,.5-2.66-1.72-7.73-2.82-8.97-5.48,1.97.45,5.07-.77,9.96,1Z"/>
          <g>
            <path class="cls-32" d="m330.37,353.75c-.56-.08-2.68.51-3.49.5-.61-.2-1.35-.41-1.99-.5-.65-.47-1.33-1.06-1.99-1.49-.16-6.05-.05-11.95,1-17.94l1.99.5c-.22,1.35-.89,8.01,0,8.72,2.95-4.84,4.97-2.55,5.23-2.74.5-.36.91-9.84,2.74-11.96.04-.04.78-.38,1-.5.68,8.49-2.38,17.23-4.48,25.41Z"/>
            <path class="cls-32" d="m346.81,323.85c3.16-.13,2.36-.49,2.49-.5.6-.02,1.36,0,1.99,0,4.38-.01,9.01,1.04,13.45.5-.07.05.27.81-.75,1.49h-1.74c-5.46-.31-23.74.95-27.4,2.99-.22.12-.96.46-1,.5.09-1.87-6.33.64-6.73,1-1.52,1.37-.99,3.38-1.25,4.98l-1.99-.5c.85-4.82-.43-7.23,4.48-8.47,3.99-1.01,11.95.98,11.71-2.49,3.83,1.49,4.3.6,6.73.5Z"/>
            <path class="cls-15" d="m362.25,325.35c.14,6.24-14.38-4.96-8.72,9.47l8.47-1c.89,1.12-.69.77-.75,1.49l-8.47,1h-.5c-.02-.3-1.85-4.48-1.99-5.73-1.4-1.12-.57,16.2-.5,17.69.23,4.77,2.21,8.57,0,9.96-4.9-1.77-7.99-.55-9.96-1-3.18-.72-6.35-3.06-9.47-3.49,2.11-8.18,5.17-16.92,4.48-25.41,3.66-2.04,21.95-3.3,27.4-2.99Z"/>
            <path class="cls-15" d="m333.85,328.84c-1.83,2.12-2.24,11.6-2.74,11.96-.26.19-2.28-2.1-5.23,2.74-.89-.71-.22-7.37,0-8.72.26-1.61-.28-3.61,1.25-4.98.4-.36,6.81-2.87,6.73-1Z"/>
            <path class="cls-85" d="m352.29,336.31c.05.57-1.81,2.23-.5,2.49-1.65,4.1-.31,6.21-1.99,9.47-.07-1.48-.91-18.81.5-17.69.14,1.25,1.97,5.43,1.99,5.73Z"/>
          </g>
        </g>
        <g>
          <path class="cls-85" d="m429.02,322.86c-4.69,8.81-5.84,10.19-13.95,15.94,0-.31-1.17-1-1.25-1-7.64.05-15.33,1-22.67-1.99,4.94-10.87,12.69-20.72,14.95-32.63,5.49,1.92,7.72-1.27,12.71-2.24,1.41-1.02.25-1.31.25-2.49,12.89,2.64,11.87,13.66,9.96,24.41Z"/>
          <path class="cls-42" d="m373.71,327.34c1.16.06,2.33-.04,3.49,0,3.23.84,2.11,1.88,2.99,2.49,3.27,2.28,6.55,6.38,10.96,5.98,7.34,2.99,15.03,2.05,22.67,1.99.08,0,1.24.69,1.25,1-1.12.8-4.47,4.34-8.97,5.48-.78.2-1.11-.68-2.24-.5-.42.07-.2.99-.25,1-25.16,3.01-20.2-8.92-22.42,16.44.27-1.86-1.34-3.26-2.49-4.73-1.9-2.43-16.14-18.76-17.44-19.18.11-.17-.05-1.36,0-1.99.06-.72,1.64-.37.75-1.49l-8.47,1c-5.66-14.43,8.86-3.23,8.72-9.47h.5c.19,4.33,3.05,1.56,10.96,1.99Z"/>
          <g>
            <path class="cls-15" d="m379.69,261.57c1.46-.12,5.79.43,6.98,1,3.8,1.81,3.17,5.71,4.24,6.48.61.44,7.86-.63,8.22,10.46-5.93,9.46-3.37,2.22,8.97,1.49,1.84-.11,3.15-1.11,5.23,0,7.24,8.99,5.74,7.33,5.73,17.44,0,1.18,1.16,1.48-.25,2.49-4.98.97-7.21,4.16-12.71,2.24-2.25,11.91-10.01,21.76-14.95,32.63-4.41.4-7.69-3.7-10.96-5.98.72.24.95-.4,1.49-.5,4.94-.89,11.24-19.97,11.96-24.91.36-2.47.89-7.83.5-9.96-1.09-6.01-8.01-5.43-8.47-6.23-1.38-2.39,4.6-7.25-4.98-11.46,1.39-4.12-3.04-2.04-1.99-8.97-1-1.95-3.81,4.94-3.99,6.73-4.82-6.03-3.32-12.29,4.98-12.95Z"/>
            <path class="cls-37" d="m408.09,281.01c-12.34.72-14.9,7.96-8.97-1.49l8.97,1.49Z"/>
            <path class="cls-30" d="m405.35,294.46c2.4.23,3.71,6.15,2.49,6.48-1.67.44-3.41-6.29-2.49-6.48Z"/>
            <path class="cls-25" d="m395.88,289.97c.31.07,1.25,2.64.5,2.99-.16.08-1.75-3.27-.5-2.99Z"/>
          </g>
          <path class="cls-68" d="m360.76,338.3c5.92,8.8,16.44,16.81,19.93,26.41-.34,2.16-.37,4.69-1,6.98-9.17-5.24-10.49-12.37-11.96-10.21.31,2.2.85,4.51,1,6.73-1.75.47-.82-5.82-1.49-6.73-.9-1.2-3.32-.21-3.49-.25-1.43-.35-5.11-1.28-5.98-1.99-3.41-2.78-3.51-16.51-1.49-19.18.76-1.01,4.31-1.58,4.48-1.74Z"/>
          <path class="cls-65" d="m402.61,348.77v5.98c-.63,1.07-1.86,1.33-2.49,2.49-5.31-5.67-5.08,7.89-4.98,10.21.32,8.06-.18,10.82,5.98,7.72v1.49c-4.7.54-5.42.5-9.96-.5l1.99-.75-1.49-26.9c.47-1.37,9.64-.95,10.96.25Z"/>
          <path class="cls-63" d="m381.19,361.22c-.11,1.28-.3,2.24-.5,3.49-3.49-9.6-14.01-17.61-19.93-26.41.04-.04.37-.8.5-1,1.3.43,15.54,16.76,17.44,19.18,1.15,1.47,2.76,2.87,2.49,4.73Z"/>
          <path class="cls-17" d="m403.61,351.26c-.33,1.04-.79,3.14-1,3.49v-5.98l1,.25c.11.68-.16,1.7,0,2.24Z"/>
          <path class="cls-15" d="m406.1,344.28c.22,2.53-2.92,3.35-2.49.5.05,0-.17-.93.25-1,1.14-.18,1.46.7,2.24.5Z"/>
          <g>
            <path class="cls-8" d="m368.73,368.2c.17,2.47-.12,5,0,7.47-1.66-.88-2.87-1.45-4.48-2.49.45-1.68-.39-3.42-.5-4.98-.15-2.18.18-4.76,0-6.98.17.04,2.59-.95,3.49.25.68.91-.25,7.2,1.49,6.73Z"/>
            <g>
              <path class="cls-15" d="m368.73,380.16c.08.34.32.71.5,1-2.36.5-3.02,3.89,1.49,3.99,0,.31,1.67,3.27,1.49,5.98-.47.2-5.73,6.57-8.47,4.98.24-4.81-.3-9.65.5-14.45,2.89-3.14,1.57-1.49,4.48-1.49Z"/>
              <path class="cls-16" d="m369.23,381.15c.6.94,1.6,1.4,2.49,1.99.43,1.77-1.02,1.35-1,1.99-4.51-.1-3.86-3.49-1.49-3.99Z"/>
            </g>
          </g>
          <path class="cls-47" d="m403.61,368.2c-1.19,3.89.32,5.21-1.49,8.97-.45.06-.54-.55-1-.5v-1.49l.5-13.45c.17.42.59,3.28,1.99,6.48Z"/>
          <path class="cls-14" d="m361.26,335.31c-.05.63.11,1.83,0,1.99-1.18-.39-5.25.71-6.23,1.49-5.41,4.31.54,16.39-2.24,21.42-.9-.59-1.54-1.57-2.49-1.99-.13-.06-.35.05-.5,0,2.21-1.4.23-5.2,0-9.96,1.68-3.26.35-5.37,1.99-9.47.33-.82,1.02-1.54,1-2.49l8.47-1Z"/>
          <path class="cls-7" d="m351.79,338.8c-1.31-.26.55-1.92.5-2.49h.5c.02.95-.67,1.67-1,2.49Z"/>
          <path class="cls-14" d="m361.26,337.31c-.13.2-.45.95-.5,1-.18.16-3.72.73-4.48,1.74-2.02,2.68-1.92,16.41,1.49,19.18-.1.55-.54,2.84-.5,2.99-1.24,2.16-3.2-1.14-4.48-1.99,2.78-5.04-3.16-17.11,2.24-21.42.98-.78,5.05-1.88,6.23-1.49Z"/>
          <path class="cls-16" d="m363.75,361.22c.18,2.22-.15,4.8,0,6.98-4.18-1.02-2.7-3.31-2.99-3.74-1.14-1.68-2.64.54-3.49-2.24-.04-.15.39-2.44.5-2.99.87.71,4.55,1.64,5.98,1.99Z"/>
          <path class="cls-68" d="m400.12,357.24c.57.61.94,3.08,1.49,4.48l-.5,13.45c-6.16,3.09-5.66.33-5.98-7.72-.09-2.32-.33-15.88,4.98-10.21Z"/>
        </g>
        <g>
          <path class="cls-68" d="m253.64,282.5c1.98,1.53,4.03,4.37,6.48,1.99l1,1.49c-.53.78-1.06.31-1,1.25.94,1.27.84-.15,1.99.75-1.62,2.54.23,4.14,1.49,5.98-.07,1.65.1,3.33,0,4.98-.02.33.03.67,0,1-.48,4.79-2.87,8.09-.5,13.7-.31.87-3.05,1.05-3.99,1.25-2.28.47-16.21,1.18-16.94-.25.93-11.69,7.25-21.05,9.96-28.15,1.03-2.7-.24-3.64,1.49-3.99Z"/>
          <path class="cls-15" d="m253.64,282v.5c-1.74.35-.46,1.29-1.49,3.99-6.56,5.64-9.75,19.65-11.46,28.15-.58.82-1.14-.4-1.49-.25.23-8.54,1.69-19.55,7.72-25.91.53-.56,6.89-3.71,4.48-4.98-.44,1.26-1.68,1.9-2.74,2.49.89-10.97-2.49-16.41-13.95-15.94-6.52-1.3,3.47-10.45,14.2-6.98,2.58,3.91,6.71,5.23,7.22,7.22,1.69,6.6-3.88,9.89-3.99,10.96.68,1,1.43.69,1.49.75Z"/>
          <path class="cls-15" d="m240.68,286.49c-1.93,3.21-5.73,14.57-4.98,17.94-2.07,1.09-6.98,1.77-6.98,4.48-.45.06-6.89,2.99-8.47,3.49-1.32-.2-3.08-.18-4.98-.5,1.4-2.87,1.78-.71,1.99-3.99,0-.15-.85.08,0-2.99,6.24-1.36,13.78-17.35,19.93-20.43.36.39,3.3,1.93,3.49,1.99Z"/>
          <path class="cls-86" d="m239.19,314.39c-1.42.62-.92-.06-1.49,0v-.5c-.31-3.07,1.1-7.53-1.99-9.47-.75-3.37,3.05-14.73,4.98-17.94,7.35,2.57,7.59-.28,7.97-.5,1.06-.59,2.3-1.23,2.74-2.49,2.4,1.27-3.95,4.42-4.48,4.98-6.03,6.36-7.49,17.37-7.72,25.91Z"/>
          <path class="cls-49" d="m215.27,311.9c-1.76-.29-4.49-.3-5.48-1.49,1.87-.13,2.34-.83,2.99-1,1.46-.38,3.51-.61,4.48-1.49-.22,3.28-.59,1.12-1.99,3.99Z"/>
          <path class="cls-15" d="m235.7,304.42c3.1,1.94,1.69,6.39,1.99,9.47.6-4.61-5.1-5.47-8.97-4.98,0-2.71,4.9-3.4,6.98-4.48Z"/>
          <path class="cls-30" d="m217.27,304.92c-.85,3.07,0,2.84,0,2.99-.97.89-3.03,1.12-4.48,1.49-.79-1.37.3-3.5.5-4.98,1,.6,2.95.72,3.99.5Z"/>
          <g>
            <path class="cls-42" d="m248.66,285.99c-.38.21-.63,3.07-7.97.5-.19-.07-3.13-1.6-3.49-1.99-1.9-4.98-4.36-8.76-2.49-14.45,11.47-.47,14.84,4.97,13.95,15.94Z"/>
            <path class="cls-87" d="m237.45,275.03c.1.71,1.27,3.54,1.25,3.74-.42,3.09-3.54-.33-1.25-3.74Z"/>
          </g>
        </g>
      </g>
    </g>
  </g>
</svg>