<?xml version="1.0" encoding="UTF-8"?>
<svg id="Calque_2" data-name="Calque 2" xmlns="http://www.w3.org/2000/svg" xmlns:xlink="http://www.w3.org/1999/xlink" viewBox="0 0 1889.42 1079.03">
  <defs>
    <style>
      .cls-1 {
        fill: #b4aebe;
      }

      .cls-1, .cls-2, .cls-3, .cls-4, .cls-5, .cls-6, .cls-7, .cls-8, .cls-9, .cls-10, .cls-11, .cls-12, .cls-13, .cls-14, .cls-15, .cls-16, .cls-17, .cls-18, .cls-19, .cls-20, .cls-21, .cls-22, .cls-23, .cls-24, .cls-25, .cls-26, .cls-27, .cls-28, .cls-29, .cls-30, .cls-31, .cls-32, .cls-33, .cls-34, .cls-35, .cls-36, .cls-37, .cls-38, .cls-39, .cls-40, .cls-41, .cls-42, .cls-43, .cls-44, .cls-45, .cls-46, .cls-47, .cls-48, .cls-49, .cls-50, .cls-51, .cls-52, .cls-53, .cls-54, .cls-55, .cls-56, .cls-57, .cls-58, .cls-59, .cls-60, .cls-61, .cls-62, .cls-63, .cls-64, .cls-65, .cls-66, .cls-67, .cls-68, .cls-69, .cls-70, .cls-71, .cls-72, .cls-73, .cls-74, .cls-75, .cls-76 {
        stroke-width: 0px;
      }

      .cls-2 {
        fill: url(#Dégradé_sans_nom_159);
      }

      .cls-3 {
        fill: #988389;
      }

      .cls-4 {
        fill: #a6686c;
      }

      .cls-5 {
        fill: #b0b4be;
      }

      .cls-6 {
        fill: url(#Dégradé_sans_nom_155);
      }

      .cls-7 {
        fill: #7b666f;
      }

      .cls-8 {
        fill: #411b17;
      }

      .cls-9 {
        fill: url(#Dégradé_sans_nom_151);
      }

      .cls-10 {
        fill: #6e7687;
      }

      .cls-11 {
        fill: url(#Dégradé_sans_nom_156);
      }

      .cls-12 {
        fill: #ab778d;
      }

      .cls-13 {
        fill: #2c2026;
      }

      .cls-14 {
        fill: #1f1f23;
      }

      .cls-15 {
        fill: url(#Dégradé_sans_nom_152);
      }

      .cls-16 {
        fill: #dcc8be;
      }

      .cls-17 {
        fill: #8f5456;
      }

      .cls-18 {
        fill: url(#Dégradé_sans_nom_153);
      }

      .cls-19 {
        fill: url(#Dégradé_sans_nom_150);
      }

      .cls-20 {
        fill: #904c3e;
      }

      .cls-21 {
        fill: #463136;
      }

      .cls-22 {
        fill: #787c96;
      }

      .cls-23 {
        fill: #d9c29e;
      }

      .cls-24 {
        fill: #525566;
      }

      .cls-25 {
        fill: #170b0a;
      }

      .cls-26 {
        fill: #d7c4d1;
      }

      .cls-27 {
        fill: #716c74;
      }

      .cls-28 {
        fill: url(#Dégradé_sans_nom_148);
      }

      .cls-29 {
        fill: #272638;
      }

      .cls-30 {
        fill: #dbd7d6;
      }

      .cls-31 {
        fill: #b17955;
      }

      .cls-32 {
        fill: #eedcc9;
      }

      .cls-33 {
        fill: #dab79d;
      }

      .cls-34 {
        fill: #5c4046;
      }

      .cls-35 {
        fill: #251d1c;
      }

      .cls-36 {
        fill: #561f33;
      }

      .cls-37 {
        fill: #dedfea;
      }

      .cls-38 {
        fill: #9c3d41;
      }

      .cls-39 {
        fill: #ddc7c6;
      }

      .cls-40 {
        fill: #56231b;
      }

      .cls-41 {
        fill: #be858a;
      }

      .cls-42 {
        fill: #34323d;
      }

      .cls-43 {
        fill: #c6cad5;
      }

      .cls-44 {
        fill: #848ba7;
      }

      .cls-45 {
        fill: #d6a684;
      }

      .cls-46 {
        fill: #4c2a2f;
      }

      .cls-47 {
        fill: #a49591;
      }

      .cls-48 {
        fill: #9b5a43;
      }

      .cls-49 {
        fill: #3b5a57;
      }

      .cls-50 {
        fill: #746564;
      }

      .cls-51 {
        fill: #7f2f42;
      }

      .cls-52 {
        fill: #81818e;
      }

      .cls-53 {
        fill: #727083;
      }

      .cls-54 {
        fill: url(#Dégradé_sans_nom_157);
      }

      .cls-55 {
        fill: #eebdb9;
      }

      .cls-56 {
        fill: #5e4d55;
      }

      .cls-57 {
        fill: #616b8b;
      }

      .cls-58 {
        fill: #86444c;
      }

      .cls-59 {
        fill: #160b14;
      }

      .cls-60 {
        fill: #ab585c;
      }

      .cls-61 {
        fill: #c2b8b9;
      }

      .cls-62 {
        fill: #c1aeb6;
      }

      .cls-63 {
        fill: url(#Dégradé_sans_nom_158);
      }

      .cls-64 {
        fill: #eca59d;
      }

      .cls-65 {
        fill: #a5929a;
      }

      .cls-66 {
        fill: url(#Dégradé_sans_nom_154);
      }

      .cls-67 {
        fill: #606375;
      }

      .cls-68 {
        fill: #918895;
      }

      .cls-69 {
        fill: #2d324e;
      }

      .cls-70 {
        fill: #d38b83;
      }

      .cls-71 {
        fill: #c5946a;
      }

      .cls-72 {
        fill: #9ea0b0;
      }

      .cls-73 {
        fill: #b09e8a;
      }

      .cls-74 {
        fill: #bb706c;
      }

      .cls-75 {
        fill: #3e4355;
      }

      .cls-76 {
        fill: #68302e;
      }
    </style>
    <linearGradient id="Dégradé_sans_nom_150" data-name="Dégradé sans nom 150" x1="1717.36" y1="254.94" x2="1728.6" y2="546.14" gradientUnits="userSpaceOnUse">
      <stop offset="0" stop-color="#d6c7d1"/>
      <stop offset="1" stop-color="#e4bbc5"/>
    </linearGradient>
    <linearGradient id="Dégradé_sans_nom_153" data-name="Dégradé sans nom 153" x1="797.11" y1="259.21" x2="797.41" y2="543.25" gradientUnits="userSpaceOnUse">
      <stop offset="0" stop-color="#d6c7d1"/>
      <stop offset="1" stop-color="#e4bbc5"/>
    </linearGradient>
    <linearGradient id="Dégradé_sans_nom_154" data-name="Dégradé sans nom 154" x1="440.98" y1="250.89" x2="421.3" y2="549.04" gradientUnits="userSpaceOnUse">
      <stop offset="0" stop-color="#d6c6d1"/>
      <stop offset="1" stop-color="#e3bac4"/>
    </linearGradient>
    <linearGradient id="Dégradé_sans_nom_155" data-name="Dégradé sans nom 155" x1="1446.08" y1="248.1" x2="1409.92" y2="552.13" gradientUnits="userSpaceOnUse">
      <stop offset="0" stop-color="#d5c6d1"/>
      <stop offset="1" stop-color="#e4bbc5"/>
    </linearGradient>
    <linearGradient id="Dégradé_sans_nom_156" data-name="Dégradé sans nom 156" x1="1172.43" y1="252.15" x2="1139.63" y2="552.85" gradientUnits="userSpaceOnUse">
      <stop offset="0" stop-color="#d5c7d1"/>
      <stop offset="1" stop-color="#e3bbc5"/>
    </linearGradient>
    <linearGradient id="Dégradé_sans_nom_157" data-name="Dégradé sans nom 157" x1="212.66" y1="257.64" x2="139" y2="547.21" gradientUnits="userSpaceOnUse">
      <stop offset="0" stop-color="#d5c6d1"/>
      <stop offset="1" stop-color="#e3bbc5"/>
    </linearGradient>
    <linearGradient id="Dégradé_sans_nom_151" data-name="Dégradé sans nom 151" x1="1817.84" y1="791.88" x2="1789.29" y2="1003.92" gradientUnits="userSpaceOnUse">
      <stop offset="0" stop-color="#b4aab6"/>
      <stop offset="1" stop-color="#837c8b"/>
    </linearGradient>
    <linearGradient id="Dégradé_sans_nom_152" data-name="Dégradé sans nom 152" x1="1680.68" y1="980.98" x2="1754.03" y2="1015.71" gradientUnits="userSpaceOnUse">
      <stop offset="0" stop-color="#9d94a2"/>
      <stop offset="1" stop-color="#776f7e"/>
    </linearGradient>
    <linearGradient id="Dégradé_sans_nom_158" data-name="Dégradé sans nom 158" x1="1658.85" y1="774.09" x2="1425.86" y2="1045.65" gradientUnits="userSpaceOnUse">
      <stop offset="0" stop-color="#e0e0ec"/>
      <stop offset="1" stop-color="#e0c6b3"/>
    </linearGradient>
    <linearGradient id="Dégradé_sans_nom_159" data-name="Dégradé sans nom 159" x1="167" y1="585.83" x2="146.31" y2="668.11" gradientUnits="userSpaceOnUse">
      <stop offset="0" stop-color="#9fa7c1"/>
      <stop offset="1" stop-color="#737d9a"/>
    </linearGradient>
    <linearGradient id="Dégradé_sans_nom_148" data-name="Dégradé sans nom 148" x1="593.13" y1="858.47" x2="268.64" y2="1255.48" gradientUnits="userSpaceOnUse">
      <stop offset="0" stop-color="#313453"/>
      <stop offset="1" stop-color="#232333"/>
    </linearGradient>
  </defs>
  <g id="Calque_1-2" data-name="Calque 1">
    <g>
      <g id="Background">
        <rect class="cls-12" width="1889.42" height="1079.03"/>
        <path class="cls-12" d="m.36,108.82C.59,72.55.2,36.27.36,0h1888.67c.17,35.66-.23,71.32,0,106.98L.36,108.82Z"/>
        <path class="cls-48" d="m1889.04,580.99c0,8.61,0,17.21,0,25.82q-14.76.92-29.51,1.84c0-17.48-3.29-24.88-3.69-29.51q16.6.92,33.2,1.84Z"/>
        <path class="cls-31" d="m1889.04,560.7c0,6.76,0,13.53,0,20.29q-16.6-.92-33.2-1.84c-.1-1.21.09-2.47,0-3.69-.2-2.79-2.87-13.55-.92-14.76h34.12Z"/>
        <path class="cls-20" d="m1889.04,606.81c0,4.92,0,9.84,0,14.76-9.95-3.68-18.59-6.59-29.51-5.53v-7.38q14.76-.92,29.51-1.84Z"/>
        <path class="cls-71" d="m1802.35,571.77c4.37,20.16-.85,57.01,1.84,73.78-39.1,17.14-10.56-50.63-41.5-75.62-2.08-1.68-11.37-4.57-17.52-9.22h54.41c.27,3.75,2.04,7.71,2.77,11.07Z"/>
        <path class="cls-45" d="m1671.4,558.86c-3.28,13.31-19.48,9.68-25.82,22.13-29.11-2.87-59.68,3.05-88.53,1.84-.96-.04,4.29-3.72-5.53-1.84-.09.02-1.43-4.19-1.84,0-.08-1.54-15.18-15.02,7.38-20.29,22.26-2.35,90.19,3.13,98.68,1.84.9-.14-.6-7.41,15.68-3.69Z"/>
        <path class="cls-67" d="m1118.07,724.85c3.67,11.75,13.73,22.68,16.6,35.04-1.69,8-1.69,16.01-3.69,23.98-.69,2.75-4.17,9.74-5.53,12.91-3.37,7.83-14.19,26.02-20.29,31.35-26.82-3.37-54.21-1.84-81.15-1.84v-98.68q47.03-1.38,94.06-2.77Z"/>
        <path class="cls-24" d="m96.27,564.39q-9.22,26.74-18.44,53.49c-3.73-.83-14.34-1.9-18.44-1.84-2.28-11.6-3.72-42.8,0-51.64,12.27-.33,24.62.45,36.89,0Z"/>
        <path class="cls-23" d="m878.3,533.03c-36.84,6.37-20.08,5.57-29.51,28.59-2.32,5.65-5.39,6.06-5.53,6.46l-46.11.92q-.92,39.19-1.84,78.39c-3.74-.01-7.23.05-11.07,0-22-.3-44.37-5.11-66.4,0l-1.84-1.84c8.19-17.52,4.97-78.67,7.38-82.08,2.14-3.03,15.46,1.71,18.44-2.77,20.29-.28,58.36-1.48,74.7,0,.71.06,1.65,5.26,3.69,5.53,49.7,6.71,6.79-40.64,58.1-33.2Z"/>
        <path class="cls-29" d="m714.15,564.39c3.47,26.27-3.93,54.68-1.84,81.15-.35.19.83,5.18-.92,5.53-14.85,2.99-39.25,1-50.72-9.22,6.39-2.12,30.18,4.14,20.29-5.53-5.42-5.3-7.12-2.97-12.91-6.46-.85-5.57,5.99,1.04,6.46.92,2.95-.77-1.19-4.64-.92-5.53,7.38,2.99,19.04,22.01,23.98,8.3,4.13-11.46-20.23-20.89-23.98-8.3-5.43-2.2-7.53-1.73-12.91,0-.36-3.32-15.41-68.12-25.82-55.33,1.26-12.83,5.43-21.53,1.84-35.04-.16-.6.2-1.34,0-1.84l11.07-5.53c10.26,13.08,60.91-4.74,66.4,36.89Z"/>
        <path class="cls-70" d="m644.06,494.3c-5.85-4.65-6.64,1.45-7.38,1.84-3.11,1.65-5.08-1.18-5.53.92-.7,3.27,1.44,17.63,12.91,11.99l1.84,1.84c-.82,3.23-.42,13.71,1.84,16.6l-11.07,5.53c-5.14-13.19-6.76-4.98-18.44-9.22,17.13-7.44,25.64-9.93,4.61-5.53-4.64-3.52-18.33-6.17-21.21-9.22-.95-1.01-11.45-24.08-4.61-25.82,29.45,18.32,12.68,7.8,34.12-3.69.04,2.22-.8,7.94.92,9.22.87.65,21.32-6.4,11.99,5.53Z"/>
        <path class="cls-70" d="m651.44,468.48c-.31,8.39,1.06,22.21,1.84,31.35-3.33.57-8.64,8.93-9.22,9.22-11.47,5.64-13.61-8.72-12.91-11.99.45-2.1,2.42.73,5.53-.92,4.93,3.39,4.57,1.74,7.38-1.84,9.34-11.93-11.12-4.89-11.99-5.53-1.72-1.28-.89-7.01-.92-9.22-.32-19.3,2.75-22.2,20.29-11.07Z"/>
        <path class="cls-32" d="m741.82,560.7c-2.99,4.48-16.3-.27-18.44,2.77-2.41,3.41.81,64.56-7.38,82.08-1.41.14-3.21-.25-3.69,0-2.08-26.47,5.31-54.88,1.84-81.15,3.41-5.88,14.74-3.51,27.67-3.69Z"/>
        <path class="cls-29" d="m596.11,523.81c25.35,37.75,1.25,58.79,8.3,95.91,3.68-2.51,2.48-4.83,2.77-5.53-.15,6.75,16.37,7.08,19.37,5.53,1.94-1,3.74-20.97,4.61-25.82,1.26-7.06,3.01-17.06,3.69-23.98,10.41-12.79,25.47,52.01,25.82,55.33.05.46.05,8.24,0,9.22-.02.38-.33-1.16-1.84,7.38-.2,1.14.27,2.7,0,3.69-7.25-6.28-43-5.74-56.25-5.53-22.21.34-66.21.91-61.79,7.38-5.63-6.29-9.72-17.83-12.91-25.82,38.19-4.77,45.06,6.33,20.29-32.28,6.89,23.14-6.32,18.87-22.13,30.43-2.35-6.27-5.44-12.05-7.38-18.44,0-3.39,5.17-11.84,7.38-18.44,1.61-4.82,6.62-14.83,9.22-20.29.78-1.64.38-14.93,13.83-25.82,17.5,1.26,30.77-8.06,47.03-12.91Z"/>
        <path class="cls-71" d="m243.83,560.7h166c.13.39,2.88,6.03,3.69,7.38q-113.43.92-226.86,1.84c.02-.47,1.27-5.61,1.84-9.22h55.33Z"/>
        <path class="cls-31" d="m535.24,562.54c-2.6,5.45-7.61,15.47-9.22,20.29h-57.18c3.09-2.87,14.17-17.5,14.76-20.29h51.64Z"/>
        <path class="cls-37" d="m620.08,538.57c-12.66,11.95-1.89,8.88-3.69,26.74-.66,6.49-7.59,44.87-9.22,48.88-.29.71.91,3.02-2.77,5.53-7.05-37.12,17.05-58.15-8.3-95.91,1.74-.52,2.16-1.79,3.69-1.84,7.34,11.61,16.24,13.75,20.29,16.6Z"/>
        <path class="cls-74" d="m618.24,523.81c-10.42,3.71,11.64,7.27,12.91,12.91-1.82.72-4.73,1.6-5.53,3.69-2.77-2.11-5.29-1.68-5.53-1.84-4.05-2.85-12.95-4.99-20.29-16.6-4.92-9.65-1.64-8.8-1.84-9.22l3.69-3.69c2.88,3.05,16.57,5.71,21.21,9.22,21.03-4.39,12.52-1.91-4.61,5.53Z"/>
        <path class="cls-45" d="m1263.78,560.7c29.13-.27,76.68,1.98,99.6,0-9.92,7.04-21.88,10.78-33.2,14.76-5.76,2.02-4.91,3.09-8.3,7.38-24.64-1.3-55.93-4.21-78.39,1.84-2.87-6.67-7.71-13.76-11.07-20.29.9-5.73,16.22-3.55,31.35-3.69Z"/>
        <path class="cls-10" d="m1075.65,566.23c-10.2,16.53-6.34,24.12-27.67,35.97-11.63,33.46-19.69,43.9,9.22,53.49-1.25,5.78-25.76-7.71-25.82,8.3,0,1.6-4.23,5.59-.92,7.38,4.41,2.39,63.93-3.16,82.08,1.84-7.94,19.94,2.04,12.33,1.84,25.82h-90.38c-1.6-18.69,3.64-34,3.69-43.34.15-30.19-3.94-60.97-1.84-91.3q24.9.92,49.8,1.84Z"/>
        <path class="cls-68" d="m1025.85,564.39c-2.09,30.33,2,61.1,1.84,91.3-.05,9.35-5.29,24.66-3.69,43.34.48,5.63-1.84,11.58,2.77,14.76q43.8-.92,87.61-1.84c1.01,4.18,2.4,8.78,3.69,12.91q-47.03,1.38-94.06,2.77v98.68c-1.23,0-2.46,0-3.69,0,1.52-37.49-3.76-75.11-3.69-112.51.02-12.29-.23-24.61,0-36.89.04-2.17,3.67-3.82,3.69-4.61.88-35.94-.54-71.96,1.84-107.9h3.69Z"/>
        <path class="cls-67" d="m1022.17,564.39c-2.38,35.94-.96,71.96-1.84,107.9-.02.79-3.65,2.44-3.69,4.61-5.07-7.56-6.01-10.52-14.76-14.76.92-3.97-10.39-10-12.91-11.07,32.22-29.08,16.82-53.15,9.22-86.69h23.98Z"/>
        <path class="cls-67" d="m843.26,568.08c-.88,2.39-6.7,22.63-7.38,25.82-3.8,17.92-4.44,33.41-3.69,51.64-1.02,0-3.52,1.89-20.29,1.84-5.53-.02-11.07.02-16.6,0q.92-39.19,1.84-78.39l46.11-.92Z"/>
        <path class="cls-68" d="m1584.71,667.68c6.48,1.01,18.37,2.87,23.98,0,.47,2.6-.96,4.26,3.69,3.69-.19,0,.59,3.65-.92,3.69-16.59.44-30.13-1.37-47.03,1.84-3.87.74-12.66-1.98-14.76,2.77,1.13,35.44-8.11,38.03,23.98,35.97.16.21,3.46,3.5,3.69,3.69-16.16,3.01-36.85,3.25-51.64-1.84.33-.3,1.77-1.74,1.84-1.84,3.64-.65,16.87,1.3,18.44-.92.61-.87.15-18.09,0-21.21-.86-17.29,4.54-19.34-20.29-18.44-.39-.49-4.83-2.97-5.53-3.69-17.43-18.01-2.88-2.93,4.61-1.84,13.85,2.01,44.76-.05,59.94-1.84Z"/>
        <path class="cls-67" d="m715.99,724.85c.04,25.21-.03,50.41,0,75.62-85.15-1.82-51.98,11.45-59.02,24.9-13.4,25.61-2.86-82.92-5.53-86.69-21.32-3.77-38.53,4.84-35.04-8.3.19,0-.58-3.65.92-3.69,32.89-.74,65.78-1.91,98.68-1.84Z"/>
        <path class="cls-68" d="m715.99,715.63c0,3.07,0,6.15,0,9.22-32.9-.07-65.79,1.1-98.68,1.84-1.51.03-.73,3.68-.92,3.69-4.94.11-13.51.1-18.44,0-8.78-.18-17.18-2.55-25.82-3.69.94-5.64-1.3-7.37-1.84-9.22l145.71-1.84Z"/>
        <path class="cls-10" d="m1466.67,699.03c2.97,10.64-1.02,36.07,45.19,25.82,3.07-.68,11.24-5.02,13.83-7.38,14.79,5.09,35.49,4.85,51.64,1.84,19.46,15.94,37.41-1.16,55.33,5.53,2.75,1.03,6.21,1.98,9.22,1.84-4.66,6.97-10.86,42.08-5.53,51.64-2.47,17.6,6.44,19.37-16.6,44.27-41.18.18-82.4.25-123.58,0-14.03-33.27-29.37-126.93-36.89-145.71h1.84c2.24,7.44,3.47,14.74,5.53,22.13Z"/>
        <path class="cls-71" d="m1645.57,580.99c-5.5,10.8-2.03,30.46-3.69,40.58-41.82-1.58-49.66,22.25-84.84,7.38,1.76-10.83-1.29-32.73,0-46.11,28.85,1.2,59.42-4.72,88.53-1.84Z"/>
        <path class="cls-10" d="m1280.38,723.01c-5.49,26.43-12.63,52.57-16.6,79.31-7.36-.27-14.78.28-22.13,0-1.26-12.19,1.72-51.8,0-56.25-1.48-3.85-3.5.97-3.69.92-3.93-.93-8.91.3-12.91-1.84,5.44-5.33,15.77-17.22,18.44-23.98q18.44.92,36.89,1.84Z"/>
        <path class="cls-68" d="m1241.65,802.32c-11.65-.45-23.39.33-35.04,0-3.32-6.93-13.17-7.44-20.29-9.22,3.35-6.14,2.62-19.36,3.69-22.13,3.89-10.12,9.14-6.93,16.6-11.07,2.96-1.64,12.22-7.09,12.91-7.38,5.61-2.33,13.46-2.71,18.44-5.53.18.04,2.21-4.77,3.69-.92,1.72,4.46-1.26,44.07,0,56.25Z"/>
        <path class="cls-71" d="m413.51,568.08c3.74,6.28,2.1,5,9.22,7.38-7.13,2.9-7.46,8.25-11.07,14.76-23.81,8.39-70.08,14.11-62.71,49.8-18.6-10.6-28.5-19.98-51.64-18.44-7.73-14.77-39.18,3.27-49.8,11.07-13.57-4.18-28.27-2.26-42.42-1.84-11.43-35.44-14.05-31.49-14.76-33.2-2.12-5.15-5.44-9.57-5.53-10.14-.3-1.83,1.43-8.77,1.84-17.52q113.43-.92,226.86-1.84Z"/>
        <path class="cls-43" d="m712.3,645.54c.48-.25,2.27.14,3.69,0l1.84,1.84c.21,6.13-.29,12.32,0,18.44l-159.54,1.84c-1.6,1.3-.84,4.34-.92,7.38-.04,1.59,5.84,18.74,7.38,23.98,1.81,6.16,3.72,12.29,5.53,18.44.55,1.85,2.79,3.59,1.84,9.22q-14.76-36.89-29.51-73.78c1.84-.01,3.69.01,5.53,0,35.96-.27,71.93.5,107.9,0,4-2.52,2.19-5.23,2.77-7.38.27-.99-.2-2.55,0-3.69h1.84c11.47,10.22,35.88,12.21,50.72,9.22,1.75-.35.57-5.35.92-5.53Z"/>
        <path class="cls-42" d="m784.24,647.39c-13.8-1.78-14.76,7.18-15.68,7.38-15.34,3.39-43.61-8.75-35.97,12.91h-14.76c-.03-.61.03-1.23,0-1.84-.29-6.12.21-12.31,0-18.44,22.03-5.11,44.4-.3,66.4,0Z"/>
        <path class="cls-37" d="m634.84,569.92c-.68,6.92-2.43,16.92-3.69,23.98-7.52-11.41,3.15-50.12-5.53-53.49.8-2.08,3.72-2.97,5.53-3.69,1.34-.53,3.57-.15,5.53-1.84,3.58,13.51-.58,22.22-1.84,35.04Z"/>
        <path class="cls-70" d="m673.57,625.25c3.75-12.59,28.1-3.16,23.98,8.3-4.93,13.71-16.6-5.31-23.98-8.3Z"/>
        <path class="cls-8" d="m618.24,523.81c11.68,4.24,13.3-3.97,18.44,9.22.2.5-.16,1.24,0,1.84-1.97,1.69-4.2,1.32-5.53,1.84-1.27-5.65-23.33-9.2-12.91-12.91Z"/>
        <path class="cls-4" d="m680.95,636.32c9.89,9.67-13.9,3.41-20.29,5.53h-1.84c1.51-8.53,1.83-7,1.84-7.38,6.98,1.86,12.95,6.66,20.29,1.84Z"/>
        <path class="cls-74" d="m621.01,501.68c4.68-1.02,7.99,8.94,7.38,9.22-6.46,3.02-13.97-7.78-7.38-9.22Z"/>
        <path class="cls-59" d="m644.06,494.3c-2.8,3.58-2.45,5.24-7.38,1.84.74-.39,1.53-6.49,7.38-1.84Z"/>
        <path class="cls-36" d="m625.62,540.41c8.69,3.36-1.99,42.08,5.53,53.49-.87,4.85-2.67,24.82-4.61,25.82-2.99,1.54-19.51,1.22-19.37-5.53,1.63-4,8.57-42.38,9.22-48.88,1.8-17.87-8.97-14.8,3.69-26.74.24.17,2.76-.26,5.53,1.84Z"/>
        <path class="cls-31" d="m526.02,582.83c-2.21,6.6-7.38,15.06-7.38,18.44-13.06,4.15-28.97-.34-42.42-1.84-14.86-3.72-13.92-12.27-14.76-12.91,2.69.31,5.64-2.08,7.38-3.69h57.18Z"/>
        <path class="cls-71" d="m1330.18,575.46c-10.74,19.66-7.56,43.25-12.91,64.55-7.44,1.19-14.95,4.87-20.29,5.53-11.2,1.39-22.62.22-33.2,1.84-1.37-22.4-11.45-42.19-20.29-62.71,22.45-6.05,53.75-3.14,78.39-1.84,3.39-4.29,2.54-5.35,8.3-7.38Z"/>
        <path class="cls-16" d="m1118.07,663.99c-2.02,3.01-4.17,5.8-5.53,9.22-18.15-5.01-77.66.54-82.08-1.84-3.31-1.79.92-5.78.92-7.38h86.69Z"/>
        <path class="cls-67" d="m1114.39,699.03c.59,4.02-.77,9.75,0,12.91q-43.8.92-87.61,1.84c-4.6-3.18-2.28-9.12-2.77-14.76h90.38Z"/>
        <path class="cls-30" d="m1296.98,652.92c-.64,1.71-7.14,12-7.38,12.91h-49.8c-2.45-15.06,4.18-11.75,11.07-14.76,4.07-1.78,8.45-3,12.91-3.69,10.58-1.63,22-.45,33.2-1.84,1.78,2.36.87,5.06,0,7.38Z"/>
        <path class="cls-67" d="m1564.42,676.9c-1.17,11.39,2.08,29.44,9.22,38.73-32.08,2.06-22.84-.52-23.98-35.97,2.1-4.75,10.88-2.03,14.76-2.77Z"/>
        <path class="cls-67" d="m1545.98,693.5c.15,3.12.61,20.35,0,21.21-1.57,2.22-14.81.27-18.44.92,4.56-6.07,5.78-12.79,5.53-20.29q6.46-.92,12.91-1.84Z"/>
        <path class="cls-67" d="m1545.98,693.5q-6.46.92-12.91,1.84c-.27-8.23-2-13.51-7.38-20.29,24.83-.9,19.43,1.16,20.29,18.44Z"/>
        <path class="cls-67" d="m714.15,671.36c3.23,7.94,1.79,18.79,1.84,27.67h-151.24c-1.54-5.24-7.42-22.39-7.38-23.98q78.39-1.84,156.77-3.69Z"/>
        <path class="cls-27" d="m732.59,667.68c.36,1.01-.76,2.8.92,3.69,4.12,2.16,78.92-1.2,93.14,0,2.75.23,3.26.58,5.53,1.84-4.24,5.94-8.27,18.74-9.22,25.82h-103.29c-.2-8.85-1.52-18.56-1.84-27.67-.04-1.23.05-2.46,0-3.69h14.76Z"/>
        <path class="cls-67" d="m715.99,699.03c.03,5.53-.01,11.07,0,16.6l-145.71,1.84c-1.81-6.15-3.73-12.28-5.53-18.44h151.24Z"/>
        <path class="cls-67" d="m822.97,699.03c-.64,4.76.45,9.94,0,14.76h-103.29c-.11-5.08.11-9.97,0-14.76h103.29Z"/>
        <path class="cls-52" d="m822.97,713.79v12.91c-19.91.18-39.13-.81-59.02,1.84,3.04-10.47-24.37-4.15-44.27-3.69-.11-3.89.08-7.47,0-11.07h103.29Z"/>
        <path class="cls-47" d="m717.84,665.83c.03.61-.03,1.23,0,1.84.05,1.23-.04,2.46,0,3.69h-3.69q-78.39,1.84-156.77,3.69c.09-3.04-.68-6.08.92-7.38l159.54-1.84Z"/>
        <path class="cls-67" d="m763.95,728.54c-24.3,3.24-27.2,3.63-45.19,22.13-3.77-3.06.96-24.53.92-25.82,19.89-.47,47.31-6.78,44.27,3.69Z"/>
        <path class="cls-68" d="m1548.74,723.01c1.49,0,.96,24.84.92,28.59-.44,45.39-3.57,20.53-.92-28.59Z"/>
        <path class="cls-10" d="m1289.6,671.36c-2.22,9.59-3.47,19.78-5.53,29.51h-38.73c2.54-10.47,14.53,1.14,0-29.51h44.27Z"/>
        <path class="cls-67" d="m1284.07,700.87c-1.18,5.58-2.52,11.07-3.69,16.6h-36.89c3.17-7.89.77-12.18,1.84-16.6h38.73Z"/>
        <path class="cls-73" d="m1289.6,665.83c-.15.56,1.21.32,0,5.53h-44.27c-.17-.35-4.3,2.06-5.53-5.53h49.8Z"/>
        <path class="cls-65" d="m1280.38,717.47c-.36,1.69.35,3.83,0,5.53q-18.44-.92-36.89-1.84c.34-.85-.34-2.84,0-3.69h36.89Z"/>
        <path class="cls-31" d="m247.51,632.63c-.57.42-5.36,5.54-7.38,7.38-2.73,2.48-9.14,6.79-11.07,9.22-29.15-1.03-20.47-7.57-23.98-18.44,14.15-.42,28.85-2.34,42.42,1.84Z"/>
      </g>
      <g>
        <path class="cls-10" d="m11.43,735.92c2.71,35.37,13.34,56.91,12.91,59.94-.22,1.58-12.63,10.95-14.76,15.68H.36c-.05-24.59.03-49.18,0-73.78l11.07-1.84Z"/>
        <path class="cls-27" d="m1516.47,1078.98c-37.5.05-75.01-.03-112.51,0-4.16-13.01,50.21-10.52,71.01-9.22,8.96.56,43.09,4.84,41.5,9.22Z"/>
        <g>
          <path class="cls-19" d="m1889.04,243.46c.25,105.74.09,211.5,0,317.24h-34.12c-1.94,1.2.72,11.97.92,14.76-9.74-14.96-42.29-18.93-53.49-3.69-.73-3.35-2.49-7.32-2.77-11.07h-54.41c-29.36-22.23-20.43-29.83-36.89-33.2-4.21-17.93,7.4-35.43-11.07-47.95-6.21-4.21-9.66-4.25-16.6-5.53-.45-.08.83-3.93-8.3-3.69-1.58.04-26.97,7.44-28.59,11.99-1.42,8.66,3.66,6.09,3.69,6.46,2.89,32.05-4.56,25.28-3.69,32.28,7.45,5,3.91,15.49,9.22,21.21,4.16,4.48,15.72,3.96,16.6,3.69.81,4.2,2.94,8.45,1.84,12.91-16.28-3.72-14.78,3.55-15.68,3.69-8.49,1.29-76.42-4.2-98.68-1.84,6-1.4,16.29-.45,16.6-5.53,9.45-.3,18.95,1.81,22.13-2.77l.92-308.94h292.34Z"/>
          <path class="cls-43" d="m1889.04,236.08h-292.34q-1.38-43.8-2.77-87.61,147.55-1.38,295.11-2.77c.11,30.12-.06,60.25,0,90.38Z"/>
          <path class="cls-18" d="m963.14,365.19c.28,55.64-.21,111.28,0,166.92l-2.77,2.77c-40.43-20.56-18.57-22.92-17.52-30.43,1.24-8.88-1.9-9.63-1.84-10.14.72-6.71,2.24-12.83,3.69-19.37-2.45-30.49-75.79-27.93-49.8-10.14-5.94,4.92-3.4,19.25-3.69,20.29-6.51,23.06-7.15,17.41-7.38,18.44-3.08,14.11,4.27,15.84,11.07,25.82-5.21,2.32-11.06,2.73-16.6,3.69-51.31-7.44-8.39,39.91-58.1,33.2-2.04-.28-2.98-5.47-3.69-5.53-16.34-1.48-54.41-.28-74.7,0-12.92.18-24.26-2.19-27.67,3.69-5.49-41.63-56.14-23.81-66.4-36.89-2.27-2.89-2.66-13.37-1.84-16.6,1.66-6.53,10.32-3.95,11.07-6.46,1.18-6.37-3.66-4.32-3.69-4.61-.78-9.15-2.16-22.96-1.84-31.35.27-7.19,19.09-26.79-20.29-29.51q1.38-97.75,2.77-195.51h328.3c1.84,40.55.72,81.16.92,121.73Z"/>
          <path class="cls-66" d="m596.11,448.19c-23.79,17.08-8.44,42.98,1.84,64.55.2.42-3.08-.43,1.84,9.22-1.53.06-1.95,1.32-3.69,1.84-16.26,4.85-29.53,14.17-47.03,12.91-13.45,10.89-13.05,24.18-13.83,25.82h-51.64c1-4.74-3.76-14.2-3.69-16.6.55-17.85,16.97-21.4,14.76-35.97-.2-1.3-11.93-19.14-15.68-21.21-27.49-15.17-89.55,8.54-69.17,71.93h-166c4.73-5.31,18.71,2.54,18.44-5.53,3.4,0,19.06.81,20.29-.92q.46-155.39.92-310.78h309.86q1.38,102.36,2.77,204.73Z"/>
          <path class="cls-6" d="m1557.04,555.17c-12.43-.04-74.31-4.6-80.23-1.84-3.4,2.31-3.18,5.69-2.77,9.22h-12.91c-11.11,0-15.84-1.84-24.9,5.53-.86-.47.65-13.85.92-14.76.42-1.38,11.08-22.46,12.91-25.82,17.94-3.6,13.81-21.2,14.76-23.06,5.54-10.85,18.23-19.46,14.76-33.2-3.03-12-48.88-26.24-71.01-6.46-23.54,21.05-3.93,46.84-2.77,71.93-21.94-3.33-17.78,9.74-28.59,23.98-4.57.27-9.28-.39-13.83,0-22.92,1.98-70.47-.27-99.6,0,4.73-5.31,18.71,2.54,18.44-5.53,3.29-.07,17.18.86,18.44-.92q-.92-154.01-1.84-308.02,127.73-1.38,255.45-2.77l2.77,311.7Z"/>
          <path class="cls-11" d="m1282.23,555.17c.27,8.07-13.71.23-18.44,5.53-15.13.14-30.45-2.04-31.35,3.69-2.68-5.21.21-11.15-9.22-20.29-12.61-12.22-29.85-10.8-44.27-19.37-3.47-8.14,20.31-33.28,9.22-35.97,1.85-6.71,5.87-13.82,3.69-21.21-5.05-17.12-51.34-30.64-55.33-18.44-1.94,5.91,3.96,8.45,3.69,10.14-1.46,9.08-6.32,18.97-9.22,27.67-4.14,12.4.35,3.97,1.84,7.38,5.92,13.46,2.09,16.75,5.53,23.98.19,2.23-1.39,1.63-1.84,1.84-12.5,6.05-29.81,10.44-43.34,14.76-6.62,10.08-11.17,21.07-17.52,31.35q-24.9-.92-49.8-1.84h-27.67c-.28-1.23-1.13-2.03-1.84-5.53l33.2-.92.92-314.47q115.74,1.38,231.47,2.77v306.17c2.91,4.17,12.4,2.95,20.29,2.77Z"/>
          <path class="cls-54" d="m262.27,555.17c.27,8.07-13.71.23-18.44,5.53h-55.33c.28-1.74-.37-3.89,0-5.53,10.86-3.42,18.98-6.1,22.13-18.44,4.17-16.34-3.23-9.33-3.69-11.99-1.37-7.95,1.49-9-3.69-23.06-18.92-51.32-59.85-22.4-62.71-4.61-3.91,24.37,12.4,15.72-3.69,50.72-2.16,4.71,4.08,9.1-.92,11.07-15.06.19-30.13-.26-45.19,0V243.46q75.62,1.38,151.24,2.77v308.02c1.23,1.73,16.89.92,20.29.92Z"/>
          <path class="cls-26" d="m990.81,243.46c7.96,12.75-.94,264.59,0,300.64l-20.29-8.3,1.84-291.42,18.44-.92Z"/>
          <g>
            <g>
              <path class="cls-75" d="m1889.04,106.98c.08,12.91-.05,25.82,0,38.73q-147.55,1.38-295.11,2.77,1.38,43.8,2.77,87.61h292.34c0,2.46,0,4.92,0,7.38h-292.34l-.92,308.94c-3.18,4.57-12.69,2.47-22.13,2.77-5.51.17-11.08.02-16.6,0l-2.77-311.7q-127.73,1.38-255.45,2.77.92,154.01,1.84,308.02c-1.27,1.79-15.16.85-18.44.92-7.89.18-17.38,1.41-20.29-2.77V246.23q-115.74-1.38-231.47-2.77l-.92,314.47-33.2.92c-1.04-5.11-3.87-9.82-5.53-14.76-.94-36.05,7.96-287.89,0-300.64-1.85-2.96-20.3-3.2-22.13.92-1.75,18.02,2.31,116.1,0,121.73-.87,2.12-2.05-1.69-5.53-.92-.21-40.57.92-81.18-.92-121.73h-328.3q-1.38,97.75-2.77,195.51c-11.71-.81-25.48,2.36-35.04,9.22q-1.38-102.36-2.77-204.73h-309.86q-.46,155.39-.92,310.78c-1.23,1.73-16.89.92-20.29.92s-19.06.81-20.29-.92V246.23q-75.62-1.38-151.24-2.77h-1.84c-.24-31.55-3.64-63.34-1.84-94.99l-86.69-.92c.04-12.91-.08-25.82,0-38.73l1888.67-1.84Z"/>
              <g>
                <path class="cls-43" d="m632.07,147.55h330.15l.92,85.76-329.23,2.77q-.92-44.27-1.84-88.53Z"/>
                <path class="cls-43" d="m281.64,147.55h311.7q1.38,42.88,2.77,85.76l-312.63,2.77q-.92-44.27-1.84-88.53Z"/>
                <path class="cls-43" d="m1299.75,147.55h254.53l.92,87.61q-126.8.46-253.61.92l-1.84-88.53Z"/>
                <path class="cls-43" d="m1028.62,147.55h232.4l.92,85.76-231.47,2.77-1.84-88.53Z"/>
                <path class="cls-43" d="m91.66,147.55h147.55l.92,87.61q-74.24.46-148.47.92v-88.53Z"/>
                <path class="cls-43" d="m973.29,147.55c.79-.56,18.49-.31,19.37.92,2.53,3.57,2.65,85.07-.92,87.61-.79.56-18.49.31-19.37-.92-2.53-3.57-2.65-85.07.92-87.61Z"/>
              </g>
            </g>
            <g>
              <path class="cls-75" d="m88.89,243.46c.21,27.39-6.5,115.99-1.84,135.56.33,1.37,2.45.94,3.69.92v178.91c-10.6.18-20.06-1.93-30.43,0-1.92,1.25-.36,4.2-.92,5.53-3.72,8.84-2.28,40.05,0,51.64-52.16.67-52.72,57.59-47.95,119.89l-11.07,1.84C.13,541.04-.32,344.27.36,147.55l86.69.92c-1.79,31.64,1.6,63.44,1.84,94.99Z"/>
              <path class="cls-75" d="m90.74,243.46v136.49c-1.24.02-3.36.45-3.69-.92-4.65-19.58,2.06-108.17,1.84-135.56h1.84Z"/>
            </g>
          </g>
        </g>
        <g>
          <path class="cls-37" d="m1405.8,822.61c4.2,28.5-12.91,13.67-16.6,21.21-1.09,2.24,4.45,42.3,1.84,49.8q-25.82,1.38-51.64,2.77c-.65-1.86-3.58-6.33-4.61-9.22-21.6-10.18-44.58-17.84-65.48-29.51,1.93-13.4-1.79-27.44-1.84-40.58,0-.74,3.09-4.61,1.84-14.76,33.6,1.19,114.11-1.6,118.96,1.84,2.53,1.8-.24,15.88.92,17.52,1.34,1.89,13.38.7,16.6.92Z"/>
          <path class="cls-37" d="m1356,988.6c-9.43-2.21-8.93-35.96-12.91-60.87,6.5-8.23,23.31,1.16,41.5-9.22l2.77,2.77c-4.37,10.85-30.77,63.65-31.35,67.32Z"/>
          <path class="cls-43" d="m1267.47,817.07c.05,13.14,3.77,27.18,1.84,40.58-21.57-12.05-30.3-19.6-47.95-36.89l-.92-3.69h47.03Z"/>
          <path class="cls-1" d="m1241.65,802.32c7.36.28,14.77-.27,22.13,0,1.84.07,3.69-.07,5.53,0,1.24,10.14-1.85,14.01-1.84,14.76h-47.03l.92,3.69c-6.04-5.91-12.52-10.61-16.6-18.44.61.03,1.23-.03,1.84,0,11.66.33,23.4-.45,35.04,0Z"/>
        </g>
        <path class="cls-29" d="m59.38,616.03c4.1-.05,14.71,1.01,18.44,1.84,31.76,7.06,34.14,39.36,42.42,66.4,1.29,4.21,2.41,8.62,3.69,12.91,4.42,14.82,24.48,90.2,25.82,99.6,1.63,11.47-.62,18.6,0,29.51.26,2.75-4.19,1.81-9.22,1.84-30.12.22-60.25-.17-90.38,0l-4.61-7.38c-1.87-.18-4.19.28-4.61,0-11.33-7.54-17.36-10.97-31.35-9.22,2.12-4.73,14.53-14.1,14.76-15.68.43-3.04-10.2-24.58-12.91-59.94-4.77-62.3-4.21-119.21,47.95-119.89Z"/>
        <g>
          <path class="cls-57" d="m1855.84,575.46c.09,1.22-.1,2.47,0,3.69.4,4.63,3.69,12.03,3.69,29.51v7.38c-.41.04.31,1.86-7.38,3.69-14.38-36.49-4.25-55.62-49.8-47.95,11.2-15.24,43.75-11.28,53.49,3.69Z"/>
          <path class="cls-75" d="m1852.15,619.72c-4.33,1.03-8.84,1.86-12.91,3.69-8.07,3.62-29.85,20.03-33.2,25.82.69-4.36-1.81-3.49-1.84-3.69-2.69-16.77,2.53-53.61-1.84-73.78,45.54-7.67,35.42,11.46,49.8,47.95Z"/>
        </g>
        <g>
          <g>
            <path class="cls-75" d="m1889.04,1031.02c-.3,15.97.22,31.98,0,47.95-43.65.15-87.3-.2-130.95,0,10.64-67.98,79.18-43.33,130.95-47.95Z"/>
            <path class="cls-43" d="m1889.04,1018.11c-.05,4.3.08,8.61,0,12.91-51.77,4.63-120.31-20.02-130.95,47.95-2.46.01-4.92,0-7.38,0,4.89-11.22,10.41-33.77,18.44-42.42,21.86-23.54,89.36-17.6,119.89-18.44Z"/>
          </g>
          <g>
            <path class="cls-9" d="m1874.28,785.72h14.76c-.13,77.44.91,154.97,0,232.4-30.53.85-98.02-5.09-119.89,18.44-7.11-7.93-2.23-21.47-3.69-32.28-3.78-27.92-17.45-59.3-31.35-83.92-2.04-3.62-3.16-4.67-3.69-5.53-1.45-2.39-2.45-3.62-3.69-5.53-2.57-9.22-9.14-21.61-16.6-27.67-2.71-2.2-1.59-4.48-5.53-3.69,7.97-9.12,77.07-29.2,102.36-49.8,3.29-2.68,2.75-2.3.92-5.53,9.19-1.11,25.22-30.45,25.82-36.89h40.58Z"/>
            <g>
              <path class="cls-15" d="m1710.13,881.63c4.02,10.2,10.73,18.59,16.6,27.67,1.24,1.91,2.24,3.15,3.69,5.53l3.69,5.53c13.91,24.62,27.58,56,31.35,83.92,1.46,10.81-3.42,24.34,3.69,32.28-8.04,8.65-13.56,31.21-18.44,42.42-35.66.14-71.32-.08-106.98,0,6.07-13.15,10.11-26.92,14.76-40.58,3.59-10.55,5.19-19.29,5.53-20.29,4.66-13.69,10.75-26.45,14.76-40.58,3.64-12.85,10.66-27.07,11.07-28.59.45-1.69-3.03-4.85,3.69-34.12,2.88-12.53,3.15-26.5,11.07-36.89,3.94-.79,2.82,1.49,5.53,3.69Z"/>
              <path class="cls-68" d="m1726.73,909.29c-5.87-9.08-12.58-17.46-16.6-27.67,7.46,6.05,14.03,18.45,16.6,27.67Z"/>
              <path class="cls-68" d="m1734.11,920.36l-3.69-5.53c.52.86,1.64,1.91,3.69,5.53Z"/>
            </g>
          </g>
          <g>
            <path class="cls-13" d="m1889.04,647.39c-.04,35.66.05,71.32,0,106.98h-1.84c-6.44-9.35-13.67,4.13-23.98,5.53-13.88,1.89-27.08-3.34-36.89-12.91-6.26-6.11-9.65-13.28-12.91-21.21l-1.84-47.95-5.53,4.61c0-1.03-4.71-6.96-3.69-20.29l1.84-9.22c2.91.15,1.39-2.91,1.84-3.69,3.35-5.79,25.13-22.2,33.2-25.82,18.99,14.99,37.59-10.05,49.8,23.98Z"/>
            <path class="cls-46" d="m1889.04,621.57c0,8.61,0,17.21,0,25.82-12.21-34.02-30.8-8.99-49.8-23.98,4.07-1.83,8.58-2.66,12.91-3.69,7.69-1.82,6.97-3.65,7.38-3.69,10.92-1.05,19.56,1.86,29.51,5.53Z"/>
            <g>
              <path class="cls-38" d="m1889.04,785.72h-14.76c1.69-6.8-12.61-.57-9.22-8.3.71-1.63,5.12,9.75,22.13-23.06h1.84c-.01,10.45.02,20.9,0,31.35Z"/>
              <path class="cls-76" d="m1887.19,754.36c-17.01,32.81-21.42,21.42-22.13,23.06-3.38,7.73,10.91,1.5,9.22,8.3h-40.58c.33-3.53-4.68-12.43-3.69-18.44,16.27,14.46,27.42,17.39,33.2-7.38,10.31-1.4,17.53-14.88,23.98-5.53Z"/>
              <path class="cls-76" d="m1863.21,759.9c-5.78,24.76-16.93,21.84-33.2,7.38-9.16-8.14-8.8-12.24-9.22-12.91l5.53-7.38c9.81,9.57,23.01,14.8,36.89,12.91Z"/>
              <path class="cls-17" d="m1826.33,746.98l-5.53,7.38c-7.47-12.05-14.4-24.33-16.6-38.73-.25-1.64,3.89-2.39,0-7.38-1.43-13.72,1.86-23.84,1.84-25.82l5.53-4.61,1.84,47.95c3.27,7.93,6.65,15.1,12.91,21.21Z"/>
            </g>
          </g>
        </g>
        <g>
          <path class="cls-29" d="m26.19,822.61q-1.84,48.88-3.69,97.75c-2.95.78-4.58,1.66-5.53,1.84-5.28,1.03-11.19,1.72-16.6,1.84-.14-33.81.07-67.63,0-101.44,8.6-.1,17.22.14,25.82,0Z"/>
          <path class="cls-5" d="m9.59,811.54c13.99-1.74,20.03,1.68,31.35,9.22-4.06,1.19-10.56,1.78-14.76,1.84-8.6.14-17.22-.1-25.82,0,0-3.69,0-7.38,0-11.07h9.22Z"/>
          <path class="cls-24" d="m40.94,820.76c.42.28,2.74-.18,4.61,0l4.61,7.38c-1.1-.21-3.69,2.42-3.69,2.77.17,27.16-2.26,54.08-3.69,81.15-1.21,3.18-9.93,5.16-12.91,6.46-4.6,1.99-5.98,1.47-7.38,1.84q1.84-48.88,3.69-97.75c4.2-.07,10.69-.66,14.76-1.84Z"/>
        </g>
        <g>
          <path class="cls-37" d="m988.97,651.08c2.52,1.07,13.83,7.09,12.91,11.07-16-7.74-93.84-6.8-116.2-5.53l3.69-9.22c31.28.16,70.29-8.75,99.6,3.69Z"/>
          <path class="cls-52" d="m834.04,645.54c18.51-.04,36.93,1.75,55.33,1.84l-3.69,9.22c-3.66.21-7.43-.32-11.07,0-25.07-17.75-43.52,21.61-62.71-9.22,16.77.05,19.27-1.84,20.29-1.84.61,0,1.23,0,1.84,0Z"/>
        </g>
        <g>
          <path class="cls-30" d="m1557.04,555.17c5.52.02,11.09.17,16.6,0-.31,5.09-10.6,4.13-16.6,5.53-22.56,5.27-7.46,18.75-7.38,20.29.96,18.22-1.54,39.79,0,57.18,2.13,24.03,4.38,8.35,11.99,11.07,2.6.93,2.73,5.29,3.69,5.53,34.56,8.91,39.85-6.29,43.34,12.91-5.61,2.87-17.5,1.01-23.98,0-33.43-5.23-45.08-4.16-47.03-5.53-5.11-3.6,8.63-14.17-14.76-9.22-1.14.24-4.49,5.38-5.53,5.53-15.12,2.29-16.96-56.48-35.97-71.93-.2-.16-.71-1.58-3.69-3.69,1.81-25.7-3.55-19.14-3.69-20.29-.41-3.53-.63-6.91,2.77-9.22,5.92-2.76,67.8,1.8,80.23,1.84Z"/>
          <path class="cls-50" d="m1551.51,580.99q.92,26.74,1.84,53.49c-.88,1.23-1.45,3.76-3.69,3.69-1.54-17.39.96-38.95,0-57.18.42-4.19,1.75.02,1.84,0Z"/>
        </g>
        <path class="cls-16" d="m590.57,850.27c24.99,17.34-59.98,11.38-62.71,19.37-.18.53,4.48,2.48,3.69,6.46-8.41-5.62-18.45-7.29-27.67-11.07-14.36-5.89-48.23-17.18-42.42-29.51,16.81-1.22,42.4,16.4,45.19,16.6,3.33.24,15.48-7.12,20.29-5.53.71.23.1,13.45,1.84,14.76,2.51,1.88,59.15-9.37,61.79-11.07Z"/>
        <g>
          <g>
            <path class="cls-45" d="m46.47,927.74c-10.77,16.48-10.24,38.24-14.76,57.18l-31.35-1.84c-.06-8.61.04-17.21,0-25.82q8.3-17.52,16.6-35.04c.95-.19,2.59-1.06,5.53-1.84,1.4-.37,2.78.15,7.38-1.84,5.81,4.04,8.81-1.79,16.6,9.22Z"/>
            <path class="cls-33" d="m31.72,984.91c-3.24,13.59-6.42,26.87-9.22,40.58-4.25-6.61-13.45-2.75-22.13-3.69-.17-12.91.09-25.82,0-38.73l31.35,1.84Z"/>
            <path class="cls-45" d="m16.96,922.2q-8.3,17.52-16.6,35.04c-.06-11.07.05-22.13,0-33.2,5.41-.12,11.32-.82,16.6-1.84Z"/>
            <g>
              <path class="cls-76" d="m11.43,1078.98H.36c-.2-10.44.28-20.92,0-31.35l18.44-11.07c-2.69,13.82-1.52,29.01-7.38,42.42Z"/>
              <path class="cls-48" d="m20.65,1029.18c-.5,2.49-1.42,5.22-1.84,7.38l-18.44,11.07c-.17-6.14.11-12.3,0-18.44h20.29Z"/>
              <path class="cls-30" d="m22.5,1025.49c-.35,1.7-1.5,1.99-1.84,3.69H.36c-.04-2.46.03-4.92,0-7.38,8.68.94,17.89-2.92,22.13,3.69Z"/>
            </g>
          </g>
          <path class="cls-37" d="m616.4,730.39c-3.49,13.14,13.73,4.53,35.04,8.3,2.67,3.77-7.86,112.3,5.53,86.69,7.04-13.45-26.12-26.72,59.02-24.9.69.01,1.44-.01,1.84,0,12.38.36,25.21,3.54,37.81,1.84,4.88,6.86,1.89,14.77,2.77,22.13.42,3.54-.52,7.6,0,11.07.36,2.39-.54,5.87,0,7.38-8.71,7.68-19.03,1.23-28.59,3.69-10.45,2.69-18.72,23.58-30.43,28.59-4.05,7.31-3.64,11.52-3.69,19.37-13.63,4.18-25.52.27-38.73,0l1.84-61.79c-18.79.68-38.6-3-57.18-2.77l-.92-7.38c-50.04-1.11-69.89,12.34-6.46,11.07-.02,4.88,1.19,13.46-3.69,16.6-2.64,1.7-59.28,12.95-61.79,11.07-1.74-1.31-1.14-14.52-1.84-14.76-4.81-1.58-16.96,5.78-20.29,5.53-2.79-.2-28.38-17.82-45.19-16.6-3.13.23-26.93,9.43-27.67,11.99,5.87,9.71,3.4,11.99,3.69,13.83,4.69,29.92,3.53,20.27,14.76,23.98-15.96,1.09-8.55,16.55-2.77,18.44,4.87,1.59,71.22-.37,102.36,1.84,36.34,2.59,5.15,9.55-34.12,40.58-20.3,16.04-38.25,35.46-59.94,49.8-10.5-28.25-18.83-58.88-20.29-61.79-12.86-25.62-60.48-15.82-102.36-41.5-51.89-31.81,4.98-71.33-123.58-62.71-26.39,26.48-23.39,43.85-59.94,59.02,1.04-21.1-.65-41.7-1.84-62.71-.62-10.92,1.63-18.05,0-29.51l6.46-27.67,47.03-1.84c.56,1.29,13.69,20.07,14.76,23.98,1.5,5.5,1.81,5.24,1.84,5.53.75,5.87-1.47,17.15-3.69,23.06l2.77,2.77c25.39-4.49,51.96-1.6,76.54,5.53.99,4.59,4.62-3,5.53-3.69,67.01-.25,134.03.33,201.04,0,19.4-.1,73.93,2.46,36.89-4.61-1.09-6.69,1.86-9.25,1.84-10.14-.51-24.26.38-48.58,0-72.85,23.47-4.12,60.05,4.76,57.18-6.46,4.94.1,13.51.11,18.44,0Z"/>
          <path class="cls-33" d="m656.97,894.54c13.21.27,25.1,4.18,38.73,0-.08,12.51,5.89,38.2,16.6,45.19,1.11,12.74,6.43,24.3,11.07,35.97.79,1.98,2.46,3.03,1.84,5.53-7.35,4.01-11.29,14.77-14.76,22.13-4.54.42-9.27-.29-13.83,0-1.71.61-10,11.96-11.99,14.76q-108.82.92-217.64,1.84c-3.28-8-6.21-15.89-9.22-23.98,21.69-14.34,39.65-33.76,59.94-49.8,39.27-31.03,70.46-37.99,34.12-40.58-2.16-12.22,7.8-3.72,7.38-11.07,32.57.42,65.2-.67,97.75,0Z"/>
          <path class="cls-37" d="m920.72,1014.42c-19.99-.82-44.07,2.61-62.71,0-23.08-3.23-81.83-31.51-68.24-7.38-.23-.03-1.57,3.85-2.77,3.69-14.73-1.92-35.63-11.15-76.54-7.38,3.46-7.36,7.41-18.12,14.76-22.13,12.17-6.65,36.26-4.71,48.88,1.84,6.25-4.38,4.32-8.8,4.61-9.22,6.9-9.87,9.82-19.05,12.91-22.13.53-.53,12.19-7.18,12.91-7.38,4.69-1.31,23.44,11.39,16.6-15.68,3.03-10.9,54.52-9.44,65.48-17.52,69.73,8.91,46.98,19.48,2.77,47.03q32.28-1.84,64.55-3.69-16.6,29.97-33.2,59.94Z"/>
          <g>
            <g>
              <path class="cls-48" d="m675.42,1034.71c-15.29,17.47-51.9,26.53-74.7,36.89-18.99-10.13-40.66-2.89-60.87-5.53-13.31-1.74-40-15.73-47.95-16.6-12.21-1.34-4.23,20.41-19.37-14.76h202.88Z"/>
              <path class="cls-31" d="m684.64,1018.11c-1.23,1.72-1.78,8.1-9.22,16.6h-202.88c-2.13-4.94-3.55-9.91-5.53-14.76q108.82-.92,217.64-1.84Z"/>
            </g>
            <g>
              <path class="cls-48" d="m953.92,1034.71c.53,15.24,3.03,26.19,7.38,40.58-18.77-4.7-38.35-6.89-57.18-11.07-23.51-5.22-69.74-14.6-84.84-35.04,12.51-3.93,24.63,7.16,37.81,9.22,4.79.75,81.96-1.41,96.83-3.69Z"/>
              <path class="cls-31" d="m920.72,1014.42c10.69.44,22.45,2.4,33.2,3.69-.26,5.44-.19,11.15,0,16.6-14.88,2.28-92.04,4.44-96.83,3.69-13.18-2.06-25.3-13.15-37.81-9.22-3.86-5.23-2.14-8.01-3.69-11.07,14.23-.74,29.13,2.39,42.42-3.69,18.64,2.61,42.72-.82,62.71,0Z"/>
            </g>
          </g>
          <g>
            <path class="cls-37" d="m140.54,828.14q.92,32.28,1.84,64.55c-18.54,6.52-79.66,19.78-87.61,23.98-8.01,3.46-5.48,6.76-8.3,11.07-7.79-11.02-10.79-5.19-16.6-9.22,2.98-1.29,11.7-3.28,12.91-6.46,1.43-27.08,3.86-54,3.69-81.15,0-.35,2.59-2.98,3.69-2.77,30.12-.17,60.25.22,90.38,0Z"/>
            <path class="cls-16" d="m151.6,889c-3.23,1.34-5.89,2.52-9.22,3.69q-.92-32.28-1.84-64.55c5.03-.04,9.48.91,9.22-1.84,1.2,21.01,2.88,41.61,1.84,62.71Z"/>
          </g>
          <path class="cls-33" d="m858.01,1014.42c-13.3,6.08-28.19,2.95-42.42,3.69-6.36-12.52-12.37-9.38-25.82-11.07-13.59-24.13,45.16,4.15,68.24,7.38Z"/>
          <path class="cls-16" d="m977.9,890.85c-.33.83.32,2.77,0,3.69-4.3,1.49-26.9,5.19-27.67,6.46-1,1.66-2.95,37.14-1.84,38.73.54.78,15.31,2.78,18.44,4.61-4.93,23.75-11.75,49.57-12.91,73.78-10.74-1.29-22.51-3.25-33.2-3.69q16.6-29.97,33.2-59.94-32.28,1.84-64.55,3.69c44.22-27.55,66.96-38.13-2.77-47.03-10.96,8.08-62.44,6.62-65.48,17.52,6.84,27.07-11.91,14.37-16.6,15.68v-1.84c8.69-10.23,9.08-24.4,5.53-36.89,1.12-2.37,1.31-8.01,1.84-9.22,56.57,6.03,111.06.13,166-5.53Z"/>
          <path class="cls-37" d="m977.9,894.54c-5.27,15.04-7.77,33.94-11.07,49.8-3.14-1.83-17.9-3.83-18.44-4.61-1.11-1.59.85-37.07,1.84-38.73.76-1.27,23.37-4.97,27.67-6.46Z"/>
          <g>
            <path class="cls-63" d="m1496.18,822.61c41.18.25,82.4.18,123.58,0,62.71-.28,125.42.21,188.13,0,1.83,3.24,2.37,2.85-.92,5.53-25.29,20.6-94.4,40.68-102.36,49.8-7.92,10.38-8.19,24.36-11.07,36.89l-61.79-7.38-87.61,8.3c20.31,7.82,78.94,55.41,83.92,56.25,14.11,2.41,32.46-17.31,50.72,5.53-4.01,14.13-10.1,26.89-14.76,40.58q-149.4.92-298.79,1.84c-.95-1.5-13.63-3.83-9.22-31.35.59-3.67,26.99-56.47,31.35-67.32l-2.77-2.77c-18.19,10.38-35,.99-41.5,9.22-1.43-8.97-2.56-28.16-3.69-31.35q25.82-1.38,51.64-2.77c2.61-7.5-2.94-47.56-1.84-49.8,3.69-7.54,20.8,7.29,16.6-21.21,29.61,2.03,60.6-.18,90.38,0Z"/>
            <g>
              <path class="cls-48" d="m1658.49,1038.4c-4.64,13.66-8.69,27.43-14.76,40.58-42.42.1-84.84-.06-127.26,0,1.59-4.38-32.54-8.66-41.5-9.22-20.8-1.3-75.17-3.79-71.01,9.22-5.53,0-11.07,0-16.6,0-7.75-15.65-10.22-38.32-11.07-40.58h282.19Z"/>
              <path class="cls-31" d="m1664.02,1018.11c-.34,1-1.95,9.74-5.53,20.29h-282.19c-3.2-8.55-6.59-11.4-11.07-18.44q149.4-.92,298.79-1.84Z"/>
            </g>
            <path class="cls-37" d="m1693.53,914.83c-6.72,29.27-3.24,32.43-3.69,34.12-.4,1.52-7.42,15.73-11.07,28.59-18.26-22.84-36.61-3.13-50.72-5.53-4.98-.85-63.61-48.44-83.92-56.25l87.61-8.3,61.79,7.38Z"/>
          </g>
          <path class="cls-16" d="m656.97,894.54c-32.56-.67-65.19.42-97.75,0-25.3-.33-51.33,3.7-51.64-7.38,5.8-1.69,22.69-4.62,23.98-11.07.79-3.98-3.87-5.93-3.69-6.46,2.73-7.98,87.7-2.02,62.71-19.37,4.88-3.14,3.67-11.72,3.69-16.6,11.19-.22,6.86-3.68,7.38-3.69,18.58-.24,38.39,3.44,57.18,2.77l-1.84,61.79Z"/>
          <path class="cls-16" d="m457.78,887.16c27.16,8.28,28.97,6.07,49.8,0,.32,11.08,26.34,7.05,51.64,7.38.43,7.35-9.54-1.15-7.38,11.07-31.14-2.22-97.5-.25-102.36-1.84-5.79-1.89-13.19-17.35,2.77-18.44,1.89.63,3.57,1.25,5.53,1.84Z"/>
        </g>
        <g>
          <path class="cls-29" d="m542.62,652.92q14.76,36.89,29.51,73.78c8.64,1.14,17.04,3.51,25.82,3.69,2.88,11.21-33.71,2.34-57.18,6.46.38,24.27-.51,48.59,0,72.85-8.6,1.03-26.44-1.44-31.35,0-1.66-2.05-1.3-3.87-1.84-5.53,13.07-88.13-56.29-85.13-123.58-79.31,1.91-15.47-13.46-66.81,6.46-71.93,7.37-1.9,129.54.15,152.16,0Z"/>
          <path class="cls-24" d="m540.77,809.69c.02.89-2.94,3.46-1.84,10.14,37.05,7.07-17.49,4.51-36.89,4.61-1.33-5.58,1.54-13.05,7.38-14.76,4.91-1.44,22.75,1.03,31.35,0Z"/>
        </g>
        <path class="cls-67" d="m601.64,829.98c-.51,0,3.81,3.46-7.38,3.69-63.44,1.27-43.59-12.17,6.46-11.07l.92,7.38Z"/>
        <g>
          <path class="cls-69" d="m979.74,787.56c1.58,10.2,3.5,7.61,3.69,9.22.11.92-8.38,3.75-3.69,15.68,2.34,5.95,31.89,8.75,25.82,13.83-28.58-.27-57.18.2-85.76,0q-1.84-30.43-3.69-60.87l-118.04-1.84-2.77,71.93h-3.69c3.5-16.98-7.93-9.65-33.2-11.07-.88-7.36,2.12-15.27-2.77-22.13-12.6,1.7-25.43-1.48-37.81-1.84-1.18-26.66-2.61-57.66,30.43-62.71,10.03-1.53,192.91-.03,202.88,1.84,23.4,4.39,25.67,29.05,28.59,47.95Z"/>
          <path class="cls-72" d="m717.84,671.36c.33,9.11,1.65,18.82,1.84,27.67.11,4.79-.11,9.68,0,14.76.08,3.6-.11,7.18,0,11.07.04,1.29-4.69,22.76-.92,25.82,17.99-18.5,20.89-18.89,45.19-22.13,19.89-2.65,39.12-1.66,59.02-1.84,85.04-.77,168.66-9.11,156.77,60.87-2.92-18.91-5.19-43.56-28.59-47.95-9.97-1.87-192.86-3.38-202.88-1.84-33.04,5.05-31.62,36.05-30.43,62.71-.4-.01-1.15.01-1.84,0-.03-25.21.04-50.41,0-75.62,0-3.07,0-6.15,0-9.22-.01-5.53.03-11.07,0-16.6-.06-8.88,1.39-19.73-1.84-27.67h3.69Z"/>
          <path class="cls-67" d="m791.61,835.52h3.69v18.44c-11.08-6.1-32.84.22-36.89-11.07-.54-1.51.36-4.99,0-7.38h33.2Z"/>
          <path class="cls-75" d="m791.61,835.52h-33.2c-.52-3.47.42-7.53,0-11.07,25.27,1.41,36.7-5.91,33.2,11.07Z"/>
        </g>
        <g>
          <path class="cls-14" d="m1623.44,673.21c-4.39.51-6.27-2.09-11.07-1.84-4.65.57-3.22-1.09-3.69-3.69-3.5-19.2-8.78-4-43.34-12.91-.96-.25-1.09-4.61-3.69-5.53-7.61-2.71-9.86,12.97-11.99-11.07,2.24.07,2.81-2.46,3.69-3.69,1.09-1.52,3.46-4.09,3.69-5.53,35.18,14.87,43.02-8.95,84.84-7.38-4.9,29.92-15.78,39.03-18.44,51.64Z"/>
          <path class="cls-29" d="m1623.44,673.21c-.38,1.79,4.56,2.42,3.69,10.14-1.01,8.96-13.51,18.38,5.53,41.5-17.92-6.69-35.87,10.41-55.33-5.53-.23-.19-3.53-3.48-3.69-3.69-7.14-9.3-10.39-27.34-9.22-38.73,16.9-3.22,30.44-1.4,47.03-1.84,1.51-.04.73-3.68.92-3.69,4.79-.24,6.68,2.36,11.07,1.84Z"/>
        </g>
        <g>
          <path class="cls-52" d="m1474.04,562.54c.13,1.15,5.5-5.41,3.69,20.29-5.64-4-20.22,1.12-16.6-20.29h12.91Z"/>
          <path class="cls-30" d="m1557.04,582.83c-1.29,13.38,1.76,35.28,0,46.11-.23,1.44-2.6,4.01-3.69,5.53q-.92-26.74-1.84-53.49c9.82-1.88,4.57,1.8,5.53,1.84Z"/>
        </g>
        <g>
          <path class="cls-14" d="m1708.28,527.5c16.46,3.37,7.52,10.97,36.89,33.2,6.15,4.66,15.44,7.54,17.52,9.22,30.94,24.99,2.4,92.76,41.5,75.62.03.2,2.53-.67,1.84,3.69-.45.78,1.07,3.84-1.84,3.69-21.67-.48-102.63-4.58-113.43-1.84-18.24,4.62-24.2,43.83-23.06,59.94-1.52,4.17-20.49,7.71-25.82,15.68-3.01.13-6.48-.82-9.22-1.84-19.05-23.12-6.55-32.54-5.53-41.5.87-7.73-4.07-8.35-3.69-10.14,2.67-12.61,13.55-21.72,18.44-51.64,1.66-10.12-1.82-29.77,3.69-40.58,6.34-12.45,22.54-8.83,25.82-22.13,1.1-4.46-1.03-8.71-1.84-12.91.57-.17,1.32.2,1.84,0,7.24,20.48,7.37-1.17,12.91-9.22.83-1.2,5.14-7.14,5.53-7.38,5.13-3.18,12.61-3.04,18.44-1.84Z"/>
          <g>
            <path class="cls-4" d="m1654.8,496.15c3.19,9.43,4.63,7.65,5.53,9.22,3.7,6.44,5.32,6.97,5.53,7.38,8.53,16.66,9.43,29.28-12.91,29.51-5.31-5.72-1.77-16.21-9.22-21.21-.87-7,6.58-.22,3.69-32.28,4.23.68,3.55-1.69,3.69-1.84,2.16,2.34,2.69,6.28,3.69,9.22Z"/>
            <path class="cls-58" d="m1689.84,529.34c-.39.24-4.71,6.18-5.53,7.38-6.85-3.68-12.05,8.9-12.91,9.22-.53.2-1.28-.17-1.84,0-.88.27-12.44.8-16.6-3.69,22.35-.23,21.44-12.85,12.91-29.51,11.56.18,14.35,11.77,23.98,16.6Z"/>
            <path class="cls-37" d="m1684.31,536.72c-5.54,8.05-5.67,29.7-12.91,9.22.86-.32,6.06-12.9,12.91-9.22Z"/>
          </g>
          <g>
            <path class="cls-13" d="m1708.28,527.5c-5.84-1.19-13.31-1.33-18.44,1.84-9.62-4.83-12.41-16.42-23.98-16.6-.21-.41-1.83-.94-5.53-7.38,23.08-1.51,60.73,12.37,35.04-23.98.11-1.41.28-2.04,1.84-1.84,18.47,12.53,6.85,30.03,11.07,47.95Z"/>
            <path class="cls-34" d="m1697.22,479.55c-1.56-.19-1.73.44-1.84,1.84-1.49,18.7-25.25,21.74-40.58,14.76-1-2.94-1.53-6.88-3.69-9.22,6.2-6.89,22.42-5.94,29.51-12.91,6.94,1.28,10.39,1.32,16.6,5.53Z"/>
            <path class="cls-13" d="m1680.62,474.01c-7.09,6.97-23.31,6.02-29.51,12.91-.14.15.54,2.52-3.69,1.84-.03-.37-5.1,2.2-3.69-6.46,1.62-4.55,27.01-11.95,28.59-11.99,9.13-.25,7.85,3.61,8.3,3.69Z"/>
            <path class="cls-21" d="m1660.33,505.37c-.9-1.57-2.34.21-5.53-9.22,15.33,6.98,39.09,3.95,40.58-14.76,25.68,36.35-11.96,22.47-35.04,23.98Z"/>
          </g>
        </g>
        <g>
          <path class="cls-37" d="m1005.57,826.29c4.92.05,9.84,0,14.76,0,1.23,0,2.46,0,3.69,0,26.94,0,54.33-1.53,81.15,1.84-17.1,14.94-92.18,41.29-118.96,47.95-5.02,3.74-6.17,9.39-8.3,14.76-54.94,5.66-109.43,11.56-166,5.53,2.32-5.29,1.47-9.59,4.61-11.07,28.87-2.68,73.62,5.08,98.68,3.69,26.78-1.49,25.31-28.59,23.98-30.43-.81-1.11-23.88-1.64-24.9-.92-.91.64-2.88,21.02-2.77,22.13h-96.83c-2.32-4.37-17.95-25.04-19.37-25.82v-18.44l2.77-71.93,118.04,1.84q1.84,30.43,3.69,60.87c28.58.2,57.18-.27,85.76,0Z"/>
          <path class="cls-10" d="m915.19,889c1.32-9.1-3.64-8.73-3.69-9.22-.12-1.11,1.86-21.49,2.77-22.13,1.02-.72,24.09-.19,24.9.92,1.33,1.84,2.8,28.95-23.98,30.43Z"/>
        </g>
        <g>
          <path class="cls-14" d="m961.3,1075.29c.06.2,2.53-.65,1.84,3.69-19.06,0-38.12,0-57.18,0l-1.84-14.76c18.82,4.18,38.4,6.37,57.18,11.07Z"/>
          <g>
            <path class="cls-14" d="m795.3,853.96c1.41.78,17.05,21.45,19.37,25.82h96.83c.05.49,5.01.12,3.69,9.22-25.06,1.39-69.81-6.37-98.68-3.69-3.15,1.48-2.29,5.78-4.61,11.07-.53,1.21-.73,6.85-1.84,9.22-12.97,27.55-23.38,32.52-22.13,34.12,1.37,1.75,12.99.72,16.6,2.77v1.84c-.72.2-12.38,6.85-12.91,7.38-12.85-12.87-21.93,3.98-33.2,7.38-14.89,4.49-28.63-7.58-35.04,16.6-4.64-11.67-9.96-23.23-11.07-35.97-10.71-6.99-16.68-32.68-16.6-45.19.05-7.85-.36-12.05,3.69-19.37,11.71-5.01,19.98-25.9,30.43-28.59,9.56-2.46,19.88,4,28.59-3.69,4.05,11.28,25.81,4.96,36.89,11.07Z"/>
            <g>
              <path class="cls-46" d="m758.41,959.09c.76,6.43,14.26,10.77,20.29,14.76-.3.42,1.64,4.84-4.61,9.22-12.62-6.56-36.7-8.49-48.88-1.84.62-2.51-1.06-3.55-1.84-5.53,6.42-24.18,20.16-12.11,35.04-16.6Z"/>
              <path class="cls-76" d="m791.61,951.71c-3.09,3.08-6.01,12.26-12.91,22.13-6.03-3.98-19.53-8.33-20.29-14.76,11.27-3.4,20.35-20.25,33.2-7.38Z"/>
            </g>
            <path class="cls-58" d="m804.53,942.49c-3.61-2.04-15.23-1.01-16.6-2.77-1.25-1.6,9.16-6.57,22.13-34.12,3.54,12.48,3.16,26.66-5.53,36.89Z"/>
          </g>
        </g>
        <g>
          <path class="cls-37" d="m147.92,551.48c31.98,19.16,13.51,5.62,23.06,3.69,4.8-.97,14.04,1.1,17.52,0-.37,1.64.28,3.79,0,5.53-.58,3.61-1.82,8.75-1.84,9.22-.42,8.75-2.15,15.69-1.84,17.52.09.57,3.42,4.99,5.53,10.14q-21.67-17.52-43.34-35.04c-16.97-1.52-33.89,1.23-50.72,1.84-12.26.45-24.61-.33-36.89,0,.56-1.34-1-4.28.92-5.53,10.38-1.93,19.83.18,30.43,0,15.05-.26,30.13.19,45.19,0,5-1.96-1.24-6.36.92-11.07,3.7.85,7.79,1.73,11.07,3.69Z"/>
          <g>
            <path class="cls-13" d="m203.25,501.68c-11.82,19.2-14.17,14.67-14.76,15.68-3.88,6.7,4.05,28.07-40.58,34.12-3.28-1.96-7.37-2.84-11.07-3.69,16.09-35-.23-26.35,3.69-50.72,2.86-17.79,43.79-46.71,62.71,4.61Z"/>
            <path class="cls-70" d="m210.63,536.72l-11.07-.92c10.28-15.06-5.19-6.59-11.07,19.37-3.48,1.1-12.72-.97-17.52,0-9.55,1.93,8.93,15.47-23.06-3.69,44.63-6.05,36.69-27.43,40.58-34.12.58-1.01,2.93,3.53,14.76-15.68,5.18,14.05,2.32,15.11,3.69,23.06.46,2.66,7.86-4.35,3.69,11.99Z"/>
            <path class="cls-4" d="m210.63,536.72c-3.15,12.35-11.27,15.02-22.13,18.44,5.88-25.96,21.35-34.43,11.07-19.37l11.07.92Z"/>
          </g>
          <g>
            <path class="cls-44" d="m219.85,686.12c-.3.36.29,1.41,0,1.84-.69,1.04-6.64-6.18-5.53,20.29-.58,9.78-2.42-6.58-6.46-3.69-2.69,1.93-2.73,21.25-7.38-5.53-9.15,42.85-10.93.13-15.68,13.83-5.42,15.62,10.42,28.86,11.07,30.43,6.47,15.74,5.16,17.56,5.53,18.44,1.39,3.26,1.73,5.27,1.84,5.53l-47.03,1.84-6.46,27.67c-1.34-9.4-21.4-84.77-25.82-99.6,7.3-11.52,61.74,11.65,57.18-12.91,15.64-.4,14.89,1.94,15.68,1.84,1.95-.23,3.84-7.52,5.53-7.38.43.04,2.39,7.14,5.53,5.53,1.59-.81-1.17-2.89,4.61-7.38-3.03,8.1.66,3.36,7.38,9.22Z"/>
            <g>
              <path class="cls-2" d="m190.34,597.59c.7,1.71,3.32-2.24,14.76,33.2,3.51,10.87-5.17,17.41,23.98,18.44-.76.96,3.05,2.85,1.84,4.61-2.5,3.66-18.95,8.69-5.53,11.99-.73.44-8.54,7.67-12.91,11.07-5.78,4.49-3.02,6.56-4.61,7.38-3.14,1.61-5.1-5.5-5.53-5.53-1.7-.14-3.58,7.15-5.53,7.38-.78.09-.03-2.24-15.68-1.84-20.24.51-40.6-1.42-60.87,0-8.28-27.04-10.66-59.33-42.42-66.4q9.22-26.74,18.44-53.49c16.83-.62,33.75-3.36,50.72-1.84q21.67,17.52,43.34,35.04Z"/>
              <path class="cls-57" d="m181.12,684.28c4.57,24.57-49.88,1.39-57.18,12.91-1.28-4.29-2.4-8.7-3.69-12.91,20.26-1.42,40.62.51,60.87,0Z"/>
            </g>
          </g>
        </g>
        <g>
          <path class="cls-29" d="m1804.19,715.63c2.2,14.4,9.13,26.69,16.6,38.73.42.67.06,4.77,9.22,12.91-1,6.02,4.02,14.91,3.69,18.44-.6,6.44-16.63,35.78-25.82,36.89-62.71.21-125.42-.28-188.13,0,23.04-24.89,14.13-26.66,16.6-44.27,1.6-11.44,1.28-29.52,5.53-39.65,16.53-39.42,126.58-17.17,162.31-23.06Z"/>
          <g>
            <path class="cls-53" d="m1802.35,662.14c-1.02,13.32,3.68,19.26,3.69,20.29.01,1.98-3.28,12.1-1.84,25.82-3.24-1.55-15.04,3.04-16.6-.92-.85-2.14-1.33-44.23,0-46.11,2.12-2.99,11.64.28,14.76.92Z"/>
            <g>
              <path class="cls-5" d="m1804.19,652.92l-1.84,9.22c-3.12-.65-12.63-3.92-14.76-.92-1.33,1.88-.85,43.97,0,46.11,1.56,3.96,13.36-.63,16.6.92,3.89,4.98-.25,5.74,0,7.38-35.73,5.88-145.78-16.37-162.31,23.06-4.25,10.13-3.93,28.21-5.53,39.65-5.33-9.57.87-44.67,5.53-51.64,5.33-7.97,24.3-11.51,25.82-15.68-1.14-16.11,4.81-55.32,23.06-59.94,10.8-2.74,91.76,1.36,113.43,1.84Z"/>
              <path class="cls-22" d="m1688.92,660.3c4.57-1.1,79.65,4.57,94.06,1.84l.92,43.34q-55.79,3.23-111.59,6.46c-4.55-1.99-1.15-47.36,16.6-51.64Z"/>
            </g>
          </g>
        </g>
        <g>
          <path class="cls-13" d="m631.15,438.97c39.38,2.72,20.56,22.32,20.29,29.51-17.53-11.13-20.61-8.24-20.29,11.07-21.44,11.49-4.67,22.01-34.12,3.69-6.84,1.74,3.66,24.81,4.61,25.82l-3.69,3.69c-10.28-21.57-25.63-47.47-1.84-64.55,9.56-6.87,23.34-10.03,35.04-9.22Z"/>
          <g>
            <path class="cls-46" d="m645.91,510.9l-1.84-1.84c.59-.29,5.89-8.66,9.22-9.22.03.29,4.86-1.76,3.69,4.61-.75,2.51-9.41-.07-11.07,6.46Z"/>
            <path class="cls-64" d="m673.57,625.25c-.27.9,3.87,4.76.92,5.53-.46.12-7.31-6.49-6.46-.92,5.79,3.48,7.49,1.15,12.91,6.46-7.33,4.82-13.31.02-20.29-1.84.05-.99.05-8.76,0-9.22,5.38-1.73,7.48-2.2,12.91,0Z"/>
          </g>
        </g>
        <g>
          <path class="cls-14" d="m941.01,494.3h-1.84c-30.47,6.83-11.32-6.57-25.82-7.38,2.85-2.71,5.15-1.32,7.38-4.61-9.44-6.6-15.84-25.79-25.82-17.52-25.99-17.79,47.35-20.35,49.8,10.14-1.45,6.53-2.97,12.66-3.69,19.37Z"/>
          <g>
            <path class="cls-29" d="m929.94,612.34c-1.17-24.74,1.58-49.21,3.69-73.78,12.9-5.01,8.16,50.77,12.91,74.7-9.94,3.22-15.77-.99-16.6-.92Z"/>
            <g>
              <path class="cls-29" d="m990.81,243.46l-18.44.92-1.84,291.42,20.29,8.3c1.66,4.93,4.49,9.64,5.53,14.76.71,3.51,1.57,4.3,1.84,5.53,7.59,33.54,23,57.61-9.22,86.69-29.3-12.43-68.32-3.53-99.6-3.69-18.41-.09-36.82-1.88-55.33-1.84-.26-14.09,14.52-34.89,14.76-36.89,10.59,5.99,65.5,8.1,27.67-6.46q-6.92-26.28-13.83-52.57c-8.53-5.92,1.42,51.07-13.83,57.18-.14-.97-9.69-15.88-12.91-12.91.68-3.19,6.5-23.44,7.38-25.82.15-.4,3.22-.8,5.53-6.46,9.43-23.02-7.33-22.21,29.51-28.59,5.54-.96,11.39-1.37,16.6-3.69.51.75,1.35,3.04,1.84,3.69l-3.69,78.39c2.99,5.17,5.26.85,5.53.92,16.31,4.39,23.7.09,25.82,0,.28-.01,1.27.34,5.53,0,.83-.07,6.66,4.15,16.6.92-4.75-23.93-.01-79.71-12.91-74.7,1.04-12.13-.07-14.02,0-14.76,1.72-17.82,4.2-17.69,5.53-29.51h1.84c-.06.51,3.09,1.27,1.84,10.14-1.05,7.51-22.91,9.88,17.52,30.43l2.77-2.77c-.21-55.64.28-111.28,0-166.92,3.48-.77,4.67,3.04,5.53.92,2.31-5.63-1.75-103.71,0-121.73,1.83-4.12,20.29-3.88,22.13-.92Z"/>
              <path class="cls-29" d="m976.98,544.1c9.9-.57.14,13.66.92,23.06.3,3.63,19.64,46.51,10.14,71.01q-11.53-20.75-23.06-41.5c-5.19-7.25-3.26,6.87-9.22,3.69-6.47-29.76,17.45-56.04,21.21-56.25Z"/>
              <path class="cls-29" d="m848.79,608.65c.07-.55.08-1.3,0-1.84,15.25-6.1,5.3-63.1,13.83-57.18q6.92,26.28,13.83,52.57c37.84,14.56-17.08,12.45-27.67,6.46Z"/>
            </g>
          </g>
          <path class="cls-37" d="m933.63,538.57c-2.11,24.57-4.86,49.04-3.69,73.78-4.26.34-5.26-.01-5.53,0,.1-6.83-1.18-13.51-1.84-20.29-1.32-13.38-6.24-31.98,0-42.42-1.05-5.22-11.23-3.17-12.91-9.22,12.32.21,16.29-9,23.98-16.6-.07.73,1.04,2.62,0,14.76Z"/>
          <path class="cls-37" d="m904.12,547.79c2.86,20.85-2.02,36.72-3.69,57.18-.25,3.04.27,4.57-1.84,7.38-.27-.07-2.54,4.25-5.53-.92l3.69-78.39c1.61,2.11,8.61,4.4,9.22,6.46.16,6.28-2.71,2.01-1.84,8.3Z"/>
          <g>
            <path class="cls-70" d="m894.9,490.61c-.34,2.01-3.03,3.16-1.84,4.61,1.49,1.82,3.77.48,5.53.92,5.14,1.27,7.77-2.59,14.76-9.22,14.5.81-4.65,14.21,25.82,7.38-1.33,11.83-3.81,11.69-5.53,29.51-7.68,7.6-11.65,16.81-23.98,16.6-2.92-10.48,7.31-11.03,9.22-13.83,19.89-29.22-24.35,24.44-35.04-23.06.23-1.03.87,4.62,7.38-18.44l11.07.92c-.98,6.08-5.79-4.81-7.38,4.61Z"/>
            <path class="cls-70" d="m913.35,486.92c-6.98,6.63-9.61,10.5-14.76,9.22l-3.69-5.53c1.59-9.42,6.39,1.47,7.38-4.61l-11.07-.92c.29-1.04-2.25-15.37,3.69-20.29,9.99-8.27,16.38,10.92,25.82,17.52-2.22,3.3-4.53,1.9-7.38,4.61Z"/>
            <path class="cls-46" d="m909.66,540.41c1.69,6.05,11.86,4,12.91,9.22l-18.44-1.84c-.86-6.29,2.01-2.02,1.84-8.3-.61-2.06-7.61-4.34-9.22-6.46-.49-.65-1.33-2.94-1.84-3.69-6.8-9.98-14.15-11.71-11.07-25.82,10.69,47.49,54.93-6.17,35.04,23.06-1.91,2.81-12.14,3.36-9.22,13.83Z"/>
            <path class="cls-70" d="m848.79,606.81c.08.55.07,1.29,0,1.84-.24,2-15.02,22.79-14.76,36.89-.61,0-1.23,0-1.84,0-.75-18.23-.11-33.72,3.69-51.64,3.23-2.97,12.77,11.94,12.91,12.91Z"/>
            <path class="cls-25" d="m898.59,496.15c-1.77-.44-4.04.9-5.53-.92-1.19-1.45,1.51-2.6,1.84-4.61l3.69,5.53Z"/>
          </g>
          <g>
            <path class="cls-36" d="m924.41,612.34c-2.12.09-9.51,4.39-25.82,0,2.11-2.81,1.6-4.34,1.84-7.38q11.07-6.46,22.13-12.91c.67,6.78,1.94,13.46,1.84,20.29Z"/>
            <path class="cls-51" d="m922.57,549.63c-6.24,10.44-1.32,29.04,0,42.42q-11.07,6.46-22.13,12.91c1.67-20.46,6.55-36.33,3.69-57.18l18.44,1.84Z"/>
          </g>
        </g>
        <g>
          <path class="cls-29" d="m658.82,645.54c-.58,2.15,1.24,4.85-2.77,7.38-35.97.5-71.93-.27-107.9,0-8.48-2.26-6.1-4.11-7.38-5.53-4.43-6.47,39.58-7.04,61.79-7.38,13.25-.2,49-.74,56.25,5.53Z"/>
          <path class="cls-29" d="m527.86,621.57c-.05-.12-.87.75-1.84-1.84,15.82-11.56,29.02-7.3,22.13-30.43,24.77,38.61,17.9,27.51-20.29,32.28Z"/>
        </g>
        <g>
          <path class="cls-14" d="m479.91,545.94c-4.75,3.73-13.3-26.49-12.91,8.3,0,.64,5.32,3.37,3.69,7.38-1.08,2.65-3.55-4.34-8.3-2.77-5.86,1.95.33,26.3-37.81,16.6-.58-.15-1.3.18-1.84,0-7.12-2.38-5.48-1.1-9.22-7.38-.8-1.35-3.56-6.99-3.69-7.38-20.38-63.4,41.68-87.11,69.17-71.93,3.75,2.07,15.48,19.91,15.68,21.21,2.21,14.56-14.2,18.12-14.76,35.97Z"/>
          <g>
            <path class="cls-70" d="m479.91,545.94c-.07,2.4,4.69,11.86,3.69,16.6-.59,2.79-11.67,17.42-14.76,20.29-1.73,1.61-4.69,4-7.38,3.69-20.34-15.54-31.85-1.02-36.89-11.07,38.14,9.7,31.95-14.65,37.81-16.6,4.75-1.58,7.22,5.42,8.3,2.77,1.63-4.01-3.68-6.74-3.69-7.38-.38-34.79,8.16-4.57,12.91-8.3Z"/>
            <path class="cls-24" d="m411.67,590.21c21.19,5.04,42.98,6.81,64.55,9.22,13.45,1.5,29.36,6,42.42,1.84,1.93,6.39,5.03,12.18,7.38,18.44.98,2.6,1.8,1.72,1.84,1.84,3.19,7.99,7.28,19.53,12.91,25.82,1.28,1.43-1.1,3.27,7.38,5.53-1.84.01-3.69-.01-5.53,0-22.62.15-144.8-1.9-152.16,0-19.92,5.13-4.54,56.46-6.46,71.93-4.68.4-10.61-.72-14.76,0l7.38-52.57c-4.81-10.01-25.91-23.78-27.67-32.28-7.37-35.69,38.9-41.41,62.71-49.8Z"/>
            <path class="cls-37" d="m461.47,586.52c.84.64-.1,9.19,14.76,12.91-21.58-2.41-43.37-4.18-64.55-9.22,3.6-6.51,3.94-11.85,11.07-14.76.54.18,1.26-.15,1.84,0,5.04,10.04,16.54-4.48,36.89,11.07Z"/>
          </g>
        </g>
        <g>
          <path class="cls-29" d="m1459.29,676.9c7.52,18.78,22.86,112.44,36.89,145.71-29.77-.18-60.77,2.03-90.38,0-3.22-.22-15.26.97-16.6-.92-1.16-1.64,1.61-15.73-.92-17.52-4.85-3.44-85.37-.65-118.96-1.84-1.84-.07-3.69.07-5.53,0,3.97-26.74,11.11-52.88,16.6-79.31.35-1.7-.36-3.84,0-5.53,1.17-5.53,2.51-11.02,3.69-16.6,2.06-9.73,3.31-19.92,5.53-29.51,1.21-5.22-.15-4.97,0-5.53.24-.91,6.73-11.2,7.38-12.91,38.73,7.17,145.18-18.79,162.31,23.98Z"/>
          <path class="cls-43" d="m1450.07,652.92c5.33,4.12,6.68,6.9,9.22,12.91,1.54,3.65,1.03,8.37,1.84,11.07h-1.84c-17.12-42.76-123.58-16.8-162.31-23.98.87-2.31,1.78-5.02,0-7.38,5.33-.66,12.85-4.35,20.29-5.53,30.78,2.46,110.7-4.17,132.8,12.91Z"/>
        </g>
        <g>
          <path class="cls-14" d="m1450.07,527.5c2.73-4.99,11.92-8.88,12.91-15.68,4.1-28.19-26.54,19.67-27.67,25.82-4.49,4.96-8.78,4.58-14.76,4.61-17.85.09-13.88-5.4-14.76-5.53-1.16-25.09-20.77-50.88,2.77-71.93,22.13-19.79,67.98-5.55,71.01,6.46,3.47,13.74-9.21,22.35-14.76,33.2-.95,1.85,3.18,19.46-14.76,23.06Z"/>
          <path class="cls-41" d="m1450.07,527.5c-1.83,3.36-12.49,24.44-12.91,25.82q-8.3-5.53-16.6-11.07c5.97-.03,10.27.35,14.76-4.61,1.13-6.16,31.76-54.01,27.67-25.82-.99,6.8-10.19,10.68-12.91,15.68Z"/>
          <g>
            <path class="cls-75" d="m1405.8,536.72c.88.13-3.1,5.62,14.76,5.53q8.3,5.53,16.6,11.07c-.28.9-1.78,14.29-.92,14.76,9.06-7.37,13.79-5.53,24.9-5.53-3.62,21.41,10.96,16.29,16.6,20.29,2.98,2.11,3.49,3.52,3.69,3.69-9.32,19.73-8.07,38.14-9.22,59.02-.97,17.56,4.54,37.82-5.53,53.49-2.07-7.39-3.29-14.7-5.53-22.13-.81-2.7-.3-7.42-1.84-11.07,10.49-5.13-.87-15.9,1.84-32.28-4.25-7.13-10.97,15.63-11.07,19.37-22.09-17.08-102.02-10.45-132.8-12.91,5.35-21.3,2.17-44.89,12.91-64.55,11.32-3.98,23.28-7.71,33.2-14.76,4.55-.39,9.26.27,13.83,0,10.81-14.24,6.65-27.31,28.59-23.98Z"/>
            <path class="cls-29" d="m1584.71,667.68c-15.18,1.79-46.09,3.86-59.94,1.84-7.49-1.09-22.04-16.17-4.61,1.84-64.15,53-23.6-23.93-41.5-29.51-.43-.14-3.5,5.08-6.46,3.69,1.16-20.88-.1-39.29,9.22-59.02,19.01,15.45,20.84,74.22,35.97,71.93,1.04-.16,4.39-5.29,5.53-5.53,23.39-4.95,9.64,5.62,14.76,9.22,1.95,1.37,13.6.3,47.03,5.53Z"/>
            <path class="cls-29" d="m1520.16,671.36c.7.72,5.15,3.2,5.53,3.69,5.38,6.78,7.11,12.06,7.38,20.29.25,7.5-.98,14.22-5.53,20.29-.08.1-1.52,1.55-1.84,1.84-2.59,2.36-10.77,6.7-13.83,7.38-46.21,10.25-42.21-15.18-45.19-25.82,10.08-15.67,4.56-35.93,5.53-53.49,2.96,1.4,6.02-3.82,6.46-3.69,17.9,5.58-22.65,82.51,41.5,29.51Z"/>
            <path class="cls-29" d="m1459.29,665.83c-2.54-6.01-3.89-8.79-9.22-12.91.1-3.74,6.82-26.49,11.07-19.37-2.72,16.38,8.64,27.15-1.84,32.28Z"/>
          </g>
        </g>
        <g>
          <path class="cls-67" d="m1016.63,713.79c-.08,37.4,5.21,75.02,3.69,112.51-4.92,0-9.84.05-14.76,0,6.06-5.08-23.48-7.88-25.82-13.83-4.69-11.92,3.8-14.76,3.69-15.68,49.35,13.82,18.71-55.96,27.67-82.08.56-1.63,3.99-.76,5.53-.92Z"/>
          <path class="cls-29" d="m874.61,656.61c3.64-.32,7.41.21,11.07,0,22.35-1.27,100.2-2.2,116.2,5.53,8.75,4.23,9.69,7.19,14.76,14.76-.23,12.28.02,24.6,0,36.89-1.54.16-4.98-.7-5.53.92-8.96,26.12,21.69,95.89-27.67,82.08-.19-1.61-2.11.98-3.69-9.22,11.89-69.98-71.74-61.64-156.77-60.87v-12.91c.45-4.82-.64-9.99,0-14.76.95-7.08,4.98-19.88,9.22-25.82,9.99-14,26.53-15.18,42.42-16.6Z"/>
        </g>
        <g>
          <path class="cls-13" d="m1188.16,488.77c-2.9,10.56-8.26,18.88-14.76,27.67-4.99.86-3.67-2.7-3.69-7.38,3.11-4.04,1.24-6.3,1.84-7.38,1.34-2.41,1-5.91,1.84-9.22.38-1.48,15.64-5.48-9.22-13.83,14.89-15.6-3.44-23.76-22.13-19.37h-1.84c.27-1.69-5.62-4.24-3.69-10.14,4-12.2,50.28,1.33,55.33,18.44,2.18,7.39-1.84,14.5-3.69,21.21Z"/>
          <g>
            <path class="cls-43" d="m1232.43,564.39c3.35,6.53,8.19,13.61,11.07,20.29,8.84,20.52,18.92,40.31,20.29,62.71-4.46.69-8.84,1.91-12.91,3.69v-1.84c-1.35-29.8-37.22-77.55-27.67-105.13,9.43,9.13,6.54,15.07,9.22,20.29Z"/>
            <g>
              <path class="cls-43" d="m1223.21,544.1c-9.55,27.58,26.32,75.33,27.67,105.13-16.64.12-34.89-14.61-52.57-16.6-15.05-1.69-52.61,1.09-60.87,12.91-62.37-7.61-92.47,6.5-9.22,3.69l2.77,2.77c-2.45,3.77-11.84,10.4-12.91,11.99h-86.69c.06-16.01,24.57-2.52,25.82-8.3-28.91-9.59-20.85-20.03-9.22-53.49,21.32-11.85,17.46-19.44,27.67-35.97,6.35-10.28,10.9-21.27,17.52-31.35,13.53-4.32,30.85-8.7,43.34-14.76,2.15,11.88,11.93,10.38,12.91,13.83,3.77,13.25-9.96,69.73-18.44,83.92-.72,1.21-22.29,15.5-4.61,20.29,5.45,1.48,16.81-5.29,10.14-16.6,2.6.88,14.84,1.81,16.6-.92,2.1-3.27,1.69-66.83,5.53-77.47-4.03-2.69-3.41-6.3-5.53-10.14,10.33.47,15.03-9.48,20.29-16.6,6.49-8.78,11.85-17.11,14.76-27.67,11.09,2.69-12.69,27.83-9.22,35.97,14.42,8.57,31.65,7.15,44.27,19.37Z"/>
              <g>
                <path class="cls-51" d="m1153.12,533.03c2.12,3.84,1.5,7.46,5.53,10.14-3.84,10.63-3.43,74.2-5.53,77.47-1.76,2.74-14,1.8-16.6.92-.32-.11-.84-2.19-5.53-3.69,8.48-14.19,22.22-70.67,18.44-83.92-.98-3.45-10.76-1.95-12.91-13.83.45-.22,2.03.39,1.84-1.84.69,1.45,10.59,7.21,14.76,14.76Z"/>
                <path class="cls-70" d="m1136.52,621.57c6.67,11.31-4.7,18.08-10.14,16.6-17.67-4.79,3.89-19.08,4.61-20.29,4.69,1.49,5.22,3.58,5.53,3.69Z"/>
                <g>
                  <path class="cls-72" d="m1196.46,590.21c1.57,15.15,3.34,34.9-5.53,29.51-3.37-2.05,6.48-13.44,5.53-29.51Z"/>
                  <path class="cls-68" d="m1091.33,593.9q2.31,14.29,4.61,28.59c-24.79,2.83-6.04-3.73-5.53-5.53,1.28-4.55-1.61-23.03.92-23.06Z"/>
                  <path class="cls-49" d="m1155.88,628.94c.66,0,4.06,2.65.92,4.61-3.51,2.2-4.11-4.61-.92-4.61Z"/>
                </g>
              </g>
            </g>
          </g>
          <g>
            <path class="cls-74" d="m1147.58,485.08c-9.11-5.33-9.11,7.17,0,1.84.48,2.4,1.1,5.07,1.84,7.38.16.49-5.94,4.9,2.77,7.38,13.26,3.77,8.2-6.64,8.3-7.38,2.45-17.72-1.01-12.42,3.69-9.22,1.41.96,2.73,7.59,7.38,3.69.1.18,2.53-.62,1.84,3.69-.84,3.31-.5,6.81-1.84,9.22-9.83,7.83-11.22,14.34-25.82,10.14-2.37,4.97,14.72,9.25,23.98-2.77.02,4.68-1.3,8.24,3.69,7.38-5.26,7.12-9.96,17.07-20.29,16.6-4.16-7.55-14.06-13.3-14.76-14.76-3.44-7.23.39-10.51-5.53-23.98l-1.84-7.38c2.9-8.7,7.76-18.59,9.22-27.67h1.84c-9.29,24.48,5.61,14.49,7.38,21.21.06.24-2.45,1.07-1.84,4.61Z"/>
            <path class="cls-34" d="m1132.83,494.3c-1.5-3.41-5.98,5.02-1.84-7.38l1.84,7.38Z"/>
            <path class="cls-70" d="m1173.41,492.46c.68-4.31-1.75-3.51-1.84-3.69-.87-1.64-.02-8.46-7.38-3.69-4.7-3.2-1.24-8.5-3.69,9.22-6.78,6.15-4.31.74-11.07,0-.74-2.3-1.37-4.97-1.84-7.38-.12-.59.1-1.25,0-1.84-.61-3.54,1.91-4.37,1.84-4.61-1.76-6.72-16.67,3.27-7.38-21.21,18.69-4.4,37.03,3.77,22.13,19.37,24.86,8.35,9.6,12.36,9.22,13.83Z"/>
            <path class="cls-40" d="m1169.72,509.06c-9.25,12.02-26.35,7.73-23.98,2.77,14.6,4.19,15.99-2.32,25.82-10.14-.6,1.08,1.27,3.34-1.84,7.38Z"/>
            <path class="cls-4" d="m1160.5,494.3c-.1.73,4.96,11.15-8.3,7.38-8.7-2.47-2.61-6.89-2.77-7.38,6.76.74,4.28,6.15,11.07,0Z"/>
            <path class="cls-35" d="m1171.56,488.77c-4.65,3.9-5.96-2.73-7.38-3.69,7.36-4.77,6.5,2.05,7.38,3.69Z"/>
            <path class="cls-25" d="m1147.58,485.08c.1.6-.12,1.25,0,1.84-9.11,5.33-9.11-7.17,0-1.84Z"/>
          </g>
        </g>
        <g>
          <path class="cls-75" d="m507.58,804.16c.54,1.67.19,3.48,1.84,5.53-5.84,1.71-8.71,9.18-7.38,14.76-67.01.33-134.03-.25-201.04,0,1.14-.85,12-13.06,12.91-14.76.44-.82,6.47-2.15,1.84-16.6,2.1-5.44,3.59-11.05,5.53-16.6,1.71-4.88,10.61-30.2,12.91-31.35,4.19,18.13,21.73,13.38,31.35,0,3.61-5.02.56-9.53,2.77-11.07,167.45-5.66,120.14,11.04,139.25,70.09Z"/>
          <path class="cls-43" d="m384,724.85c67.28-5.82,136.64-8.82,123.58,79.31-19.11-59.05,28.19-75.75-139.25-70.09-2.2,1.54.84,6.05-2.77,11.07-8.09.95-21.42-1.31-27.67,0-22.3-1.21,28.94-19.87,31.35-20.29,4.15-.72,10.08.4,14.76,0Z"/>
          <path class="cls-52" d="m337.89,745.14c6.25-1.31,19.57.95,27.67,0-9.63,13.38-27.17,18.13-31.35,0,.58-.29,2.42.27,3.69,0Z"/>
        </g>
        <g>
          <path class="cls-5" d="m503.89,865.03c-1.02,4.63,2.12,6.35,1.84,7.38-30.82,1.84-40.71.19-68.24-11.07-.29-1.84,2.18-4.12-3.69-13.83.73-2.56,24.54-11.76,27.67-11.99-5.81,12.33,28.06,23.62,42.42,29.51Z"/>
          <g>
            <path class="cls-43" d="m505.73,872.4c-1.87,7-20.83,10.17-28.59,11.07-18.61,2.16-25.29-9.29-19.37,3.69-1.96-.6-3.64-1.22-5.53-1.84-11.22-3.71-10.07,5.94-14.76-23.98,27.54,11.26,37.43,12.91,68.24,11.07Z"/>
            <path class="cls-75" d="m531.55,876.09c-1.29,6.45-18.18,9.37-23.98,11.07-20.82,6.07-22.64,8.28-49.8,0-5.92-12.98.76-1.53,19.37-3.69,7.75-.9,26.72-4.07,28.59-11.07.28-1.03-2.86-2.75-1.84-7.38,9.21,3.78,19.26,5.45,27.67,11.07Z"/>
          </g>
        </g>
        <g>
          <g>
            <path class="cls-29" d="m1309.89,1078.98c-95.91.07-191.82-.04-287.73,0-5.44-9.14.79-14.67,3.69-22.13,4.42-11.37,8.21-22.97,23.06-25.82,10.51-2.02,203.28-2.64,213.95-1.84,28.64,2.13,50.5,19.08,47.03,49.8Z"/>
            <path class="cls-43" d="m1313.58,1078.98c-1.23,0-2.46,0-3.69,0,3.46-30.72-18.39-47.67-47.03-49.8-10.67-.79-203.45-.18-213.95,1.84-14.84,2.86-18.63,14.45-23.06,25.82-4.51-2.14,1.36-15.23,3.69-18.44,4.58-6.33,24.62-17.22,32.28-18.44,10.11-1.62,194.59-1.42,204.73,0,33.28,4.67,47.42,26.79,47.03,59.02Z"/>
          </g>
          <g>
            <path class="cls-29" d="m1204.76,802.32c4.08,7.83,10.56,12.53,16.6,18.44,17.66,17.29,26.38,24.84,47.95,36.89,20.9,11.67,43.87,19.33,65.48,29.51,1.03,2.89,3.96,7.36,4.61,9.22,1.13,3.2,2.26,22.39,3.69,31.35,3.98,24.9,3.48,58.66,12.91,60.87-4.41,27.52,8.27,29.86,9.22,31.35,4.48,7.05,7.87,9.9,11.07,18.44.84,2.25,3.32,24.93,11.07,40.58-24.59.02-49.18-.02-73.78,0,.39-32.23-13.75-54.36-47.03-59.02-10.14-1.42-194.62-1.62-204.73,0-7.66,1.22-27.69,12.12-32.28,18.44-10.31,2.87-3.89-38.41-5.53-59.94-.77-10.05-11.55-80.25-14.76-83-10.86-9.32-1.99,15.49-1.84,16.6,7.26,55.43,6.84,111.07,3.69,166.92-15.98,0-31.97,0-47.95,0,.69-4.34-1.78-3.49-1.84-3.69-4.34-14.39-6.85-25.33-7.38-40.58-.19-5.45-.26-11.16,0-16.6,1.16-24.21,7.98-50.02,12.91-73.78,3.29-15.85,5.8-34.75,11.07-49.8.32-.92-.33-2.86,0-3.69,2.13-5.37,3.28-11.02,8.3-14.76,26.79-6.66,101.86-33.01,118.96-47.95,6.1-5.33,16.92-23.52,20.29-31.35,34.92-4.01,68.57,4.99,79.31,5.53Z"/>
            <path class="cls-29" d="m1029.54,1038.4c-2.33,3.21-8.2,16.3-3.69,18.44-2.9,7.46-9.13,12.99-3.69,22.13-3.69,0-7.38,0-11.07,0,3.16-55.85,3.57-111.49-3.69-166.92-.14-1.11-9.01-25.92,1.84-16.6,3.2,2.75,13.99,72.95,14.76,83,1.65,21.53-4.78,62.81,5.53,59.94Z"/>
          </g>
          <path class="cls-43" d="m1147.58,785.72c12.84,2,26.13,4.21,38.73,7.38,7.12,1.79,16.96,2.3,20.29,9.22-.61-.03-1.23.03-1.84,0-10.74-.54-44.39-9.55-79.31-5.53,1.36-3.17,4.84-10.16,5.53-12.91,5.48,1.07,11.11.99,16.6,1.84Z"/>
          <path class="cls-14" d="m1250.87,649.23v1.84c-6.89,3.01-13.52-.3-11.07,14.76,1.24,7.59,5.37,5.18,5.53,5.53,14.53,30.65,2.54,19.04,0,29.51-1.07,4.42,1.32,8.71-1.84,16.6-.34.85.34,2.83,0,3.69-2.67,6.75-13,18.65-18.44,23.98-.15.14-2.71,1.56-3.69,1.84-4.51-20.34-17.22,1.16-14.76,12.91-7.46,4.13-12.71.95-16.6,11.07-6.48.08-18.23,1.87-23.98,3.69-12.56-7.98-31.59-8.2-10.14-9.22-7.8-14.23-14.62,1.65-21.21-5.53-2.87-12.36-12.93-23.29-16.6-35.04-1.29-4.13-2.68-8.73-3.69-12.91-.77-3.16.59-8.89,0-12.91.19-13.49-9.78-5.88-1.84-25.82,1.36-3.42,3.52-6.21,5.53-9.22,1.07-1.59,10.46-8.22,12.91-11.99l-2.77-2.77c-83.25,2.81-53.15-11.3,9.22-3.69,8.26-11.82,45.81-14.61,60.87-12.91,17.67,1.99,35.93,16.72,52.57,16.6Z"/>
          <g>
            <path class="cls-46" d="m1166.03,774.65c-1.86.59-19.55,7.85-18.44,11.07-5.49-.86-11.11-.77-16.6-1.84,2-7.97,2-15.97,3.69-23.98,6.59,7.18,13.41-8.7,21.21,5.53-21.45,1.02-2.42,1.25,10.14,9.22Z"/>
            <path class="cls-51" d="m1190.01,770.96c-1.07,2.77-.33,15.99-3.69,22.13-12.6-3.16-25.89-5.38-38.73-7.38-1.1-3.21,16.59-10.48,18.44-11.07,5.74-1.82,17.5-3.61,23.98-3.69Z"/>
          </g>
          <path class="cls-4" d="m1221.36,746.98c.69,3.13-1.51,3.55-1.84,5.53-.69.29-9.95,5.74-12.91,7.38-2.46-11.75,10.25-33.25,14.76-12.91Z"/>
        </g>
        <path class="cls-39" d="m1237.96,746.98c-4.98,2.82-12.83,3.2-18.44,5.53.33-1.99,2.54-2.4,1.84-5.53.97-.29,3.54-1.7,3.69-1.84,4,2.15,8.98.91,12.91,1.84Z"/>
        <g>
          <path class="cls-43" d="m784.24,647.39c3.83.05,7.32-.01,11.07,0,5.53.02,11.07-.02,16.6,0,19.19,30.83,37.64-8.53,62.71,9.22-15.9,1.42-32.43,2.6-42.42,16.6-2.27-1.26-2.78-1.61-5.53-1.84-.13-1.34.65-5.21-.92-5.53-4.56-.93-77.36,4.5-93.14,1.84-7.64-21.67,20.62-9.52,35.97-12.91.91-.2,1.88-9.16,15.68-7.38Z"/>
          <path class="cls-61" d="m826.66,671.36c-14.22-1.2-89.02,2.16-93.14,0-1.68-.88-.56-2.67-.92-3.69,15.78,2.65,88.58-2.77,93.14-1.84,1.57.32.79,4.19.92,5.53Z"/>
        </g>
        <g>
          <g>
            <path class="cls-28" d="m457.78,995.98c3.01,8.09,5.95,15.98,9.22,23.98,1.99,4.85,3.41,9.81,5.53,14.76,15.14,35.16,7.16,13.41,19.37,14.76,7.95.87,34.65,14.86,47.95,16.6,20.21,2.64,41.88-4.59,60.87,5.53,22.79-10.36,59.41-19.42,74.7-36.89,7.44-8.5,8-14.88,9.22-16.6,1.99-2.79,10.28-14.15,11.99-14.76,4.56-.29,9.29.42,13.83,0,40.91-3.78,61.81,5.45,76.54,7.38,1.2.16,2.54-3.72,2.77-3.69,13.45,1.69,19.46-1.46,25.82,11.07,1.55,3.05-.17,5.84,3.69,11.07,15.1,20.45,61.33,29.82,84.84,35.04l1.84,14.76c-298.18-.13-596.36.1-894.54,0,5.86-13.41,4.69-28.6,7.38-42.42.42-2.16,1.34-4.88,1.84-7.38.34-1.7,1.5-1.99,1.84-3.69,2.81-13.7,5.98-26.98,9.22-40.58,4.52-18.93,3.98-40.7,14.76-57.18,2.82-4.31.29-7.6,8.3-11.07,7.95-4.2,69.07-17.46,87.61-23.98,3.34-1.17,5.99-2.35,9.22-3.69,36.55-15.17,33.55-32.54,59.94-59.02,128.56-8.62,71.69,30.9,123.58,62.71,41.89,25.68,89.5,15.88,102.36,41.5,1.46,2.91,9.79,33.54,20.29,61.79Z"/>
            <path class="cls-37" d="m115.64,1023.65c8.29-1.33,159.6-1.56,167.84,0,20.98,3.97-16.38,12.02-23.98,12.91-36.34,4.26-114.08-3.95-156.77-1.84-43.33,25.79-8.97-7.57,12.91-11.07Z"/>
          </g>
          <g>
            <path class="cls-38" d="m280.71,785.72c2.55,7.22.62,16.61,3.69,23.06,4.95,10.39,15.28,2.45,11.07,19.37-24.58-7.13-51.15-10.03-76.54-5.53l-2.77-2.77c2.22-5.9,4.44-17.19,3.69-23.06,33.26-20.21,46.49,3.2,52.57,0,3.15-1.66-6.05-5.6,4.61-14.76.1.24,2.43.12,3.69,3.69Z"/>
            <path class="cls-46" d="m286.25,785.72c13.79,4.56,11.4,22.37,27.67,23.98-.91,1.69-11.77,13.91-12.91,14.76-.92.68-4.54,8.27-5.53,3.69,4.22-16.92-6.12-8.98-11.07-19.37-3.07-6.45-1.13-15.84-3.69-23.06,1.77.25,4.25-.43,5.53,0Z"/>
            <path class="cls-46" d="m312.07,745.14c-17.1,41.44.97,39.45,3.69,47.95,4.62,14.45-1.4,15.78-1.84,16.6-16.26-1.61-13.88-19.41-27.67-23.98,4.98-7.59,2.69-7.98,1.84-12.91,13.07,7.31,6.7-14.94,7.38-23.98,2.13-.91,6.4-2.13,5.53-5.53,4.45,1.63,5.82,2.23,11.07,1.84Z"/>
            <path class="cls-74" d="m319.45,743.3l1.84,33.2c-1.94,5.55-3.44,11.16-5.53,16.6-2.72-8.5-20.79-6.51-3.69-47.95,1.55-.11,6.42-1.37,7.38-1.84Z"/>
            <path class="cls-60" d="m301,743.3c.87,3.4-3.41,4.63-5.53,5.53-1.28.54-12.42-2.07-11.07,19.37.05.74,3.27,2.16,3.69,4.61.85,4.93,3.14,5.32-1.84,12.91-1.29-.43-3.76.25-5.53,0-1.26-3.57-3.58-3.45-3.69-3.69-.14-.33-4.95-2.73-5.53-4.61-7.11-22.74,7.94-.85,11.07-5.53.02-4.89-3.23-9.06-3.69-13.83-.2-2.07-4.38-7.73,0-18.44.22-.55,6.9-8.87,7.38-9.22,16.89-12.34.45,7.67,14.76,12.91Z"/>
            <path class="cls-55" d="m295.47,748.83c-.68,9.04,5.7,31.29-7.38,23.98-.42-2.45-3.64-3.87-3.69-4.61-1.35-21.43,9.79-18.82,11.07-19.37Z"/>
          </g>
          <g>
            <path class="cls-13" d="m218,791.25c-1.06-3.9-14.19-22.69-14.76-23.98-.12-.27-.45-2.28-1.84-5.53,22.62.29,31.55,12.25,16.6,29.51Z"/>
            <path class="cls-26" d="m348.96,640.01c1.75,8.49,22.86,22.27,27.67,32.28l-7.38,52.57c-2.42.42-53.65,19.08-31.35,20.29-1.27.27-3.11-.29-3.69,0-2.3,1.15-11.2,26.47-12.91,31.35l-1.84-33.2c1.79-.9,5.36-1.82,5.53-3.69-5.58-19.11,1.58-35.65,1.84-42.42,4.63-1.48,5.23-3.56,5.53-3.69,6.62-2.86,15.03-4.17,22.13-5.53-3.51,18.69-7.21,14.95-23.98,23.06,39.55,14.23,49.27-27.09,23.98-30.43-2.55-.34-8.74-.41-11.07,0,.15-2.44-.24-4.96,0-7.38,2.25-22.86-75.47-41.83-42.42-18.44-14.37,1.53-30.02-1.74-44.27,0-3.83.47-4.16,1.6-5.53,1.84-2.34-19.39,29.51-33.94,46.11-35.04,23.15-1.54,33.04,7.84,51.64,18.44Z"/>
            <path class="cls-62" d="m297.31,621.57c-16.6,1.1-48.45,15.65-46.11,35.04-1.72.3-3.96-.4-5.53,0-2.76-6.85,2.43-14.45-5.53-16.6,2.02-1.84,6.8-6.96,7.38-7.38,10.62-7.8,42.07-25.83,49.8-11.07Z"/>
            <path class="cls-62" d="m354.49,687.96c.1-.55,7.85,1.83,0-7.38,25.3,3.35,15.58,44.66-23.98,30.43,16.77-8.1,20.46-4.36,23.98-23.06Z"/>
            <g>
              <path class="cls-21" d="m256.74,761.74c1.31-.08,6.36,6.91,22.13-3.69.46,4.77,3.7,8.95,3.69,13.83-3.12,4.68-18.17-17.21-11.07,5.53.59,1.88,5.39,4.28,5.53,4.61-10.66,9.16-1.46,13.1-4.61,14.76-6.07,3.2-19.3-20.21-52.57,0-.04-.29-.35-.03-1.84-5.53,14.95-17.26,6.02-29.22-16.6-29.51-.38-.89.94-2.7-5.53-18.44,6.58-3.21-.81-11.16,4.61-9.22,2.45.88,8.67,20.47,11.99,10.14,2.61-8.14-10.84-44.95,13.83,19.37,10.16-.31,20.29-1.2,30.43-1.84Z"/>
              <path class="cls-65" d="m280.71,665.83c9.71,1.9,33.53,2.27,40.58,7.38,6.96,5.04,5.84,16.29,5.53,23.98-.27,6.77-7.43,23.31-1.84,42.42-23.93.1-5.75-42.5-12.91-46.11-3.7-4.06-17.56-1.94-19.37,3.69-54.49,1.37-5.53-28.63-35.97-12.91-12.03,6.21-16.28,15.63-29.51,14.76-1.31-2.72,3.54-12.21-7.38-11.07.29-.43-.3-1.49,0-1.84,15.11-18.03,39.54-18.15,60.87-20.29Z"/>
              <path class="cls-56" d="m214.31,708.25c12.69,1.63,13.82,25.95,17.52,27.67,12.73,5.91-3.61-20.11,2.77-23.98,19.9,1.53,8.98,9.35,16.6,23.98-4.03,2.34,2.36,16.83,5.53,25.82-10.14.65-20.27,1.53-30.43,1.84-24.68-64.32-11.22-27.5-13.83-19.37-3.32,10.32-9.54-9.27-11.99-10.14-5.42-1.94,1.97,6.02-4.61,9.22-.65-1.57-16.48-14.81-11.07-30.43,4.75-13.7,6.53,29.01,15.68-13.83,4.65,26.78,4.68,7.46,7.38,5.53,4.04-2.89,5.87,13.47,6.46,3.69Z"/>
              <path class="cls-7" d="m256.74,654.76c6.92,12.42,9.55,8.24,23.98,11.07-21.33,2.14-45.75,2.26-60.87,20.29-6.72-5.86-10.4-1.12-7.38-9.22,4.37-3.4,12.18-10.63,12.91-11.07,4.31-2.57,15.61-8.04,20.29-9.22,1.57-.4,3.81.3,5.53,0,1.38-.24,1.7-1.38,5.53-1.84Z"/>
              <path class="cls-7" d="m219.85,687.96c10.92-1.14,6.07,8.35,7.38,11.07,4.21,8.78,8.57,7.3,7.38,12.91-6.38,3.87,9.96,29.88-2.77,23.98-3.7-1.72-4.83-26.03-17.52-27.67-1.1-26.47,4.84-19.25,5.53-20.29Z"/>
              <path class="cls-21" d="m264.11,708.25v43.34c3.38-9.81.33-18.6,14.76-11.99-4.38,10.72-.2,16.37,0,18.44-15.77,10.59-20.82,3.61-22.13,3.69-3.18-8.99-9.56-23.48-5.53-25.82,11.19,21.47,9.94,7.91,9.22-27.67h3.69Z"/>
              <path class="cls-65" d="m245.67,656.61c-4.67,1.18-15.98,6.65-20.29,9.22-13.41-3.3,3.03-8.33,5.53-11.99,1.2-1.76-2.61-3.65-1.84-4.61,1.93-2.44,8.34-6.74,11.07-9.22,7.96,2.15,2.77,9.75,5.53,16.6Z"/>
              <path class="cls-7" d="m324.98,739.61c-.17,1.87-3.74,2.79-5.53,3.69-.95.48-5.83,1.73-7.38,1.84-5.24.38-6.61-.21-11.07-1.84-14.31-5.24,2.13-25.25-14.76-12.91-2.25.13-2.9-2.66-3.69-3.69.34-6.3,9.2-14.79,14.76-20.29,4.54-4.5,10.08-8.5,14.76-12.91,7.16,3.61-11.02,46.21,12.91,46.11Z"/>
              <path class="cls-65" d="m301,654.76c3.68,2.6,17,5.87,25.82,9.22l-5.53,9.22c-7.04-5.11-30.87-5.47-40.58-7.38-14.43-2.83-17.05,1.35-23.98-11.07,14.24-1.74,29.89,1.53,44.27,0Z"/>
              <path class="cls-62" d="m343.42,673.21c-15.17-14.06-15.62-8.85-16.6-9.22-8.83-3.35-22.14-6.62-25.82-9.22-33.05-23.39,44.67-4.41,42.42,18.44Z"/>
              <path class="cls-3" d="m343.42,673.21c-.24,2.42.15,4.94,0,7.38-11.73,2.09-20.4,12.29-11.07,12.91-.31.13-.9,2.21-5.53,3.69.3-7.69,1.42-18.93-5.53-23.98l5.53-9.22c.98.37,1.43-4.84,16.6,9.22Z"/>
              <path class="cls-34" d="m343.42,680.59c2.32-.41,8.52-.34,11.07,0,7.85,9.21.1,6.83,0,7.38-7.1,1.36-15.52,2.67-22.13,5.53-9.33-.62-.66-10.82,11.07-12.91Z"/>
              <path class="cls-7" d="m256.74,684.28c11.03,4.28-1.84,9.34-1.84,10.14,0,.74,5.27.57,5.53,13.83.72,35.58,1.97,49.14-9.22,27.67-7.62-14.63,3.3-22.44-16.6-23.98,1.19-5.61-3.16-4.13-7.38-12.91,13.23.88,17.48-8.54,29.51-14.76Z"/>
              <path class="cls-3" d="m312.07,693.5c-4.67,4.41-10.21,8.41-14.76,12.91-9.91-8.66-39.92-13.72-35.04,1.84h-1.84c-.27-13.27-5.53-13.09-5.53-13.83,0-.8,12.87-5.87,1.84-10.14,30.44-15.72-18.52,14.28,35.97,12.91,1.8-5.62,15.67-7.75,19.37-3.69Z"/>
              <path class="cls-7" d="m282.56,726.7c.79,1.03,1.44,3.82,3.69,3.69-.48.35-7.15,8.68-7.38,9.22-14.43-6.61-11.37,2.18-14.76,11.99v-43.34c23.76-2.37,9.63,5.69,11.07,10.14.17.53,5.61,5.99,7.38,8.3Z"/>
              <path class="cls-7" d="m297.31,706.41c-5.55,5.5-14.41,13.99-14.76,20.29-1.77-2.31-7.21-7.77-7.38-8.3-1.43-4.46,12.69-12.51-11.07-10.14h-1.84c-4.87-15.57,25.13-10.51,35.04-1.84Z"/>
            </g>
          </g>
        </g>
      </g>
    </g>
  </g>
</svg>