<?xml version="1.0" encoding="UTF-8"?>
<svg id="Calque_2" data-name="Calque 2" xmlns="http://www.w3.org/2000/svg" viewBox="0 0 1866.78 1066.34">
  <defs>
    <style>
      .cls-1 {
        fill: #8b674b;
      }

      .cls-1, .cls-2, .cls-3, .cls-4, .cls-5, .cls-6, .cls-7, .cls-8, .cls-9, .cls-10, .cls-11, .cls-12, .cls-13, .cls-14, .cls-15, .cls-16, .cls-17, .cls-18, .cls-19, .cls-20, .cls-21, .cls-22, .cls-23, .cls-24, .cls-25, .cls-26, .cls-27, .cls-28, .cls-29, .cls-30, .cls-31, .cls-32, .cls-33, .cls-34, .cls-35, .cls-36, .cls-37, .cls-38, .cls-39, .cls-40, .cls-41, .cls-42, .cls-43, .cls-44, .cls-45, .cls-46, .cls-47, .cls-48, .cls-49, .cls-50, .cls-51, .cls-52, .cls-53, .cls-54, .cls-55, .cls-56, .cls-57, .cls-58, .cls-59, .cls-60, .cls-61, .cls-62, .cls-63 {
        stroke-width: 0px;
      }

      .cls-2 {
        fill: #5f7e54;
      }

      .cls-3 {
        fill: #cbc6b3;
      }

      .cls-4 {
        fill: #c1b296;
      }

      .cls-5 {
        fill: #9b615a;
      }

      .cls-6 {
        fill: #0d0d0e;
      }

      .cls-7 {
        fill: #9e705b;
      }

      .cls-8 {
        fill: #92755c;
      }

      .cls-9 {
        fill: #192023;
      }

      .cls-10 {
        fill: #7b5d51;
      }

      .cls-11 {
        fill: #55342c;
      }

      .cls-12 {
        fill: #678887;
      }

      .cls-13 {
        fill: #6d505c;
      }

      .cls-14 {
        fill: #d18366;
      }

      .cls-15 {
        fill: #d2cfcc;
      }

      .cls-16 {
        fill: #7ea19b;
      }

      .cls-17 {
        fill: #b8a185;
      }

      .cls-18 {
        fill: #ab9d60;
      }

      .cls-19 {
        fill: #422e24;
      }

      .cls-20 {
        fill: #b2a57a;
      }

      .cls-21 {
        fill: #172c32;
      }

      .cls-22 {
        fill: #b5baaf;
      }

      .cls-23 {
        fill: #2f444b;
      }

      .cls-24 {
        fill: #897a66;
      }

      .cls-25 {
        fill: #3c3144;
      }

      .cls-26 {
        fill: #4f5b52;
      }

      .cls-27 {
        fill: #c88e88;
      }

      .cls-28 {
        fill: #cec59c;
      }

      .cls-29 {
        fill: #a58b72;
      }

      .cls-30 {
        fill: #201b13;
      }

      .cls-31 {
        fill: #e1cebb;
      }

      .cls-32 {
        fill: #2d312a;
      }

      .cls-33 {
        fill: #e1e5ce;
      }

      .cls-34 {
        fill: #5c7b74;
      }

      .cls-35 {
        fill: #2c2928;
      }

      .cls-36 {
        fill: #6d665e;
      }

      .cls-37 {
        fill: #716051;
      }

      .cls-38 {
        fill: #bc715d;
      }

      .cls-39 {
        fill: #b6b38c;
      }

      .cls-40 {
        fill: #192e3d;
      }

      .cls-41 {
        fill: #716b5a;
      }

      .cls-42 {
        fill: #351d17;
      }

      .cls-43 {
        fill: #9ea28f;
      }

      .cls-44 {
        fill: #140e1d;
      }

      .cls-45 {
        fill: #d3a489;
      }

      .cls-46 {
        fill: #564a60;
      }

      .cls-47 {
        fill: #3d6868;
      }

      .cls-48 {
        fill: #ceb297;
      }

      .cls-49 {
        fill: #ab865a;
      }

      .cls-50 {
        fill: #2a1e28;
      }

      .cls-51 {
        fill: #28575a;
      }

      .cls-52 {
        fill: #dbe0d7;
      }

      .cls-53 {
        fill: #734437;
      }

      .cls-54 {
        fill: #6b4d42;
      }

      .cls-55 {
        fill: #261a16;
      }

      .cls-56 {
        fill: #494336;
      }

      .cls-57 {
        fill: #431a1e;
      }

      .cls-58 {
        fill: #56423c;
      }

      .cls-59 {
        fill: #1a474a;
      }

      .cls-60 {
        fill: #85564b;
      }

      .cls-61 {
        fill: #565550;
      }

      .cls-62 {
        fill: #6b3130;
      }

      .cls-63 {
        fill: #143638;
      }
    </style>
  </defs>
  <g id="Calque_1-2" data-name="Calque 1">
    <g>
      <g id="Background">
        <rect class="cls-17" width="1866.78" height="1066.34"/>
        <path class="cls-17" d="m647.33.07c17.72,34.74,46.33,110.45,65.61,136.69,3.41,4.64,5.79,9.41,8.2,14.58q206.41.91,412.81,1.82c-8.13,27.97-16.92,55.99-25.52,83.84h-341.73c-1.54.82,3.74,15.55,4.56,18.23,8.34,45.39,32.91,85.9,49.21,128.49,20.71,54.09,30.77,108.06,63.79,155.83.31.45,3.26,3.12,3.65,3.65.19.26.06.87,3.65,5.47.86,1.1,4.55,13.96,10.02,18.23h83.84c.98-.42,6.65-14.04,8.2-16.4,2.04-3.11,3.62-5.93,5.47-9.11,2.04-3.51,3.43-7.43,5.47-10.94,4.24-7.31,7.13-14.44,10.94-21.87,1.79-3.51,3.53-3.41,3.65-3.65.72-1.45,7.13-10.1,12.76-22.78,6.92-22.48,15.48-44.5,23.69-66.52,7.85-21.05,14.56-42.55,21.87-63.79,39.83-115.78,74.4-233.38,105.71-351.76,108.14.06,216.28-.15,324.42,0-69.09,96.05-140.48,190.86-218.71,279.77-.24,2.67.36,5.58,0,8.2-7.34,1.51-19.57,22.12-21.87,29.16-16.78,18.43-121.47,141.54-125.76,150.36-4.91,10.09.98,12.4,1.82,33.72l-10.94-7.29c-.09-4.38.9-25.94-.91-27.34-32.46,37.8-64.22,76.19-95.69,114.82-3.33,4.09-20.26,19.78-34.63,40.1-9.58-1.29-20.7-1.75-29.16,1.82-2.87-8.95-13.03,6.33,4.56-38.27-65.3,3.11-77.87-13.73-53.77,30.07-19.66,3.41-17.16,6.34-18.23,6.38-1.23.05-.22-5.71-22.78-3.65-79.78-63.69-140.97-147.62-215.06-216.89-15.44-14.43-25.08-24.35-24.6-14.58-3.12-7.2-13.08-17.68-18.23-23.69-2.28-2.67-5.05-4.85-7.29-7.29-48.6-53.02-90.68-87.39-151.27-160.39-3.78-4.55-22.74-34.17-49.21-65.61-2.28-2.71-1.61-6.13-1.82-6.38C377.99,80.84,333.12,44.72,299.22.07c116.04-.18,232.07.06,348.11,0Z"/>
        <path class="cls-51" d="m177.11.07c53.24,66.99,115.28,126.54,173.14,189.55,3.3,242.31-2.18,484.87,0,727.21l-58.32,3.65c-.05-.37-2.75,1.02-1.82-7.29,31.15-12.55,21.78-13.09-1.82-16.4-14.73-2.07-123.05-4.3-141.25-3.65-1.43.05,6.65,1.66-26.43,3.65-23.44,1.41-46.16,2.57-69.26,7.29-2.86-4.02-6.53-7.47-10.02-10.94-3.1,1.43,1.86,9.18,2.73,10.94q-21.87,5.47-43.74,10.94c-.22-52.24.08-104.5,0-156.74,31.74-1.33,226.66,5.85,237.85,1.82,2.62-.94,3.16-4.76,2.73-7.29,1.99-.24,10.03-2.64,10.94-4.56.31-6.34-.43-12.81,0-19.14.6-8.74-1.84-8.65-1.82-9.11.32-9.06,1.86-17.98,1.82-27.34-.04-9.71-1.78-19.83-1.82-29.16-.04-7.89-1.79-16.28-1.82-23.69,0-1.1,1.86-7.12,1.82-21.87,0-1.22,0-2.43,0-3.65-.03-10.91-1.8-22.25-1.82-32.81,0-.38,1.84,1.98,1.82-7.29,0-1.82,0-3.65,0-5.47,0-3.65,0-7.29,0-10.94-.01-13.36.08-26.74,0-40.1-.02-3.04.02-6.08,0-9.11-.07-12.15.05-24.3,0-36.45,0-1.82,0-3.65,0-5.47-.25-62.88.19-125.76,0-188.64C218.02,259.99,19.08,101.69,3.97,100.31c-1.2-.11-2.44.05-3.65,0C.55,66.9.15,33.48.32.07,59.25-.07,118.18.27,177.11.07Z"/>
        <path class="cls-52" d="m1697.14,102.14c-.56,58.91.09,117.87,0,176.79-.13,91.13.1,182.26,0,273.39v513.97c-34.02.12-68.04-.07-102.06,0-2.2-114.1,2.94-228.58,0-342.64-.22-8.65,2.63-15.62-5.47-20.05v-5.47c13.28-11.75,3.66-20.69,3.65-23.69-.47-140.16-3.76-291.21,0-430.13l100.24-2.73V103.96c.16-.13-.57-2.5,3.65-1.82Z"/>
        <path class="cls-51" d="m1513.06,1066.28c-32.2.05-64.4-.03-96.6,0l-107.53-51.03v-236.93c16.6.94,32.67-.45,49.21-1.82.6-.05,7.51,3.02,11.85,1.82l2.73-4.56-1.82-95.69c34.08-5.87,68.45-10.81,102.06-19.14-1.77-29.44,1.57-59.06,1.82-88.39l38.27-1.82c-.76,165.85.57,331.71,0,497.56Z"/>
        <path class="cls-51" d="m1655.22.07c-44.34,62.33-91.61,122.43-140.34,181.35-3.87,7.3.12,8.67,0,10.02-.52,5.97.21,12.21,0,18.23-3.8,110.48-1.3,245.58-1.82,359.05l-38.27,1.82c.87-102.22-4.44-204.82-1.82-307.1-5.92-3.06-10.19,1.02-10.94.91-8.01-1.13-10.64-13.17-12.76,16.4q-50.12,58.78-100.24,117.56c-2.16,4.33.65,7.1,0,11.85-4.97,36.32-2.04,170.1,0,215.06.6,13.31-1.19,26.84.91,40.1,1.8,1.49,38.94-9.6,44.65-10.94l-1.82,9.11c-10.85,3.15-22.63,4.97-33.72,7.29-3.25,6.24.98,8.66.91,9.11-4.8,31.76-.21,64.68-1.82,96.6-16.53,1.37-32.61,2.76-49.21,1.82,1.13-135.45-1.51-270.99,0-406.43,19.99-16.99,33.32-43.36,49.21-64.7C1435.27,203.53,1521.15,106.2,1595.07.07c20.05.04,40.1-.05,60.14,0Z"/>
        <path class="cls-27" d="m1598.72,202.38c-.19.24-2.96-.99-5.47,2.73-.26,13.05.35,26.14,0,39.19-3.76,138.92-.47,289.97,0,430.13-19.6-3.7-22.37,20.7-3.65,23.69v5.47c-21.4.89-11.91,31.57,5.47,20.05,2.94,114.06-2.2,228.54,0,342.64-17.62.03-35.24-.02-52.85,0V207.85l1.82-10.02c3.18-3.96,11.44-11.78,12.76-13.67,12.08,4.36,38.62,7.06,41.92,18.23Z"/>
        <path class="cls-8" d="m299.22.07c33.9,44.65,78.76,80.76,114.82,123.02.22.25-.46,3.67,1.82,6.38-2.31,21.03-.25,42.64,0,63.79,3.14,270.88-2.35,541.97,0,812.87v60.14c-10.94-.01-21.87.01-32.81,0V126.74c-4.97-10.46-19.24-5.19-30.98-6.38L239.08.07c20.05-.05,40.1.03,60.14,0Z"/>
        <path class="cls-62" d="m1866.64,603.35l-120.29,1.82c0-91.13-.27-182.26,0-273.39q60.14-40.1,120.29-80.19c.26,117.25.1,234.51,0,351.76Z"/>
        <path class="cls-59" d="m1744.52,278.93c-.07,17.32,1.87,35.28,1.82,52.85-.27,91.13,0,182.26,0,273.39,0,65.61,0,131.23,0,196.84v264.27c-16.4.08-32.81-.06-49.21,0v-468.4l34.63-2.73v-49.21c-3.03-7.15-28.24,6.01-34.63,6.38.1-91.13-.13-182.26,0-273.39h47.39Z"/>
        <path class="cls-5" d="m1786.44.07c26.73.2,53.46-.15,80.19,0,.14,83.84-.18,167.68,0,251.52q-60.14,40.1-120.29,80.19c.05-17.57-1.89-35.53-1.82-52.85.31-78.02,3.56-156.14,1.82-234.2L1786.44.07Z"/>
        <path class="cls-21" d="m383.06,1066.28c-10.33-.01-20.66.01-30.98,0,1.63-49.82-1.38-99.68-1.82-149.45-2.18-242.34,3.3-484.9,0-727.21-.31-22.91-1.28-46.48,1.82-69.26,11.75,1.19,26.01-4.08,30.98,6.38v939.54Z"/>
        <path class="cls-62" d="m1866.64,831.17c-.15,78.37.11,156.74,0,235.11-40.1.15-80.2-.2-120.29,0v-264.27q60.14,14.58,120.29,29.16Z"/>
        <path class="cls-57" d="m1866.64,603.35c-.07,75.94.15,151.88,0,227.82q-60.14-14.58-120.29-29.16c0-65.61,0-131.23,0-196.84l120.29-1.82Z"/>
        <path class="cls-17" d="m1175.88.07c-5.86,15.99-8.61,32.79-12.76,49.21l-486.63,1.82c-7.27-16.99-15.68-33.57-21.87-51.03C828.38-.02,1002.13-.03,1175.88.07Z"/>
        <path class="cls-51" d="m1595.07.07c-73.92,106.13-159.8,203.46-236.93,307.1-15.89,21.34-29.22,47.71-49.21,64.7.13-11.54-.23-23.1,0-34.63.42-20.94-.31-41.93,0-62.88Q1412.82,137.22,1516.7.07c26.12.04,52.25-.05,78.37,0Z"/>
        <path class="cls-52" d="m1542.22,1066.28c-9.72.01-19.44-.01-29.16,0,.57-165.85-.76-331.72,0-497.56.52-113.47-1.98-248.56,1.82-359.05l27.34-1.82v858.43Z"/>
        <path class="cls-51" d="m1786.44.07l-40.1,44.65c1.74,78.06-1.52,156.18-1.82,234.2h-47.39c.09-58.92-.56-117.88,0-176.79.19-20.25-1.56-77.13,0-85.66,1.8-9.82,8.68-10.15,9.11-16.4,26.73.11,53.47-.2,80.19,0Z"/>
        <path class="cls-55" d="m494.24,470.3c4.6,5.29-.02,19.77,1.82,24.6,1.37,3.6,59.74,31.5,68.35,35.54,5.98,4.82,1.04,9.3.91,10.94q-35.54-18.68-71.08-37.36-.91,263.36-1.82,526.72l2.73,2.73c22.47-17.09,47.89-29.38,71.99-43.74,4.03.8.24,8.06-.91,9.11-3.13,2.87-70.62,39.47-72.9,43.74-3.02,5.65-1.31,13.64,4.56,16.4-3.1,1.86-6.21,5.03-9.11,7.29-4.25,0-8.51,0-12.76,0l1.82-595.98c1.5-.49,12.69-.25,16.4,0Z"/>
        <path class="cls-51" d="m239.08.07l113,120.29c-3.1,22.78-2.13,46.35-1.82,69.26C292.38,126.61,230.35,67.06,177.11.07c20.66-.07,41.31.05,61.97,0Z"/>
        <path class="cls-59" d="m350.25,916.83c.45,49.77,3.45,99.63,1.82,149.45-13.97-.02-27.95.02-41.92,0-8.47-48.22-11.39-97.43-18.23-145.81l58.32-3.65Z"/>
        <path class="cls-51" d="m476.01,1066.28c-3.65,0-7.29,0-10.94,0v-82.02c-.06-168.28.08-336.57,0-504.85,8.78-.31,8.76-7.8,12.76-9.11l-1.82,595.98Z"/>
        <path class="cls-52" d="m1706.25.07c-.44,6.25-7.32,6.59-9.11,16.4-43.84,50.02-102.98,114.23-140.34,167.68-1.32,1.89-9.58,9.71-12.76,13.67l-1.82,10.02-27.34,1.82c.21-6.02-.52-12.26,0-18.23,53.94-60.86,102.89-126.07,151.27-191.37,13.37.04,26.73-.05,40.1,0Z"/>
        <path class="cls-59" d="m251.84,929.59v136.69c-17.01-.04-34.02.04-51.03,0-.54-12.49-4.57-24.39-7.29-36.45,2.16-1.38,5.15-1.98,5.47-2.73,4.31-10.28,14.01-67.29,25.52-90.22,9.97-2.97,24.95-6.47,27.34-7.29Z"/>
        <path class="cls-59" d="m281,915.01l20.05,151.27c-12.76-.02-25.52.03-38.27,0q-.91-71.08-1.82-142.16c5.21-1.99,11.13-6.91,16.4-9.11.81-.34,2.81.34,3.65,0Z"/>
        <path class="cls-63" d="m189.87,1066.28c-13.37-.04-26.73.06-40.1,0-.28-13.3-12.28-105.73-9.11-110.27.32-.46,9.69-2.57,10.94-2.73,2.78-.37,13-.54,14.58.91,4.23,3.86,20.25,98.76,23.69,112.09Z"/>
        <path class="cls-28" d="m457.79,980.62c1.87,1.6,4.51,3.95,7.29,3.65v82.02c-16.4-.01-32.81.02-49.21,0v-60.14l41.92-25.52Z"/>
        <path class="cls-21" d="m138.84,1066.28c-12.15-.05-24.3.08-36.45,0,2.62-36.42,1.82-72.89,1.82-109.35,12.95,1.18,26.24-3.56,29.16,4.56q2.73,52.4,5.47,104.8Z"/>
        <path class="cls-29" d="m1516.7.07q-103.89,137.15-207.77,274.3c-.31,20.95.42,41.94,0,62.88-19.74-14.82-23.58-23.67-20.05-49.21.36-2.62-.24-5.53,0-8.2C1367.11,190.93,1438.5,96.12,1507.59.07c3.04,0,6.08,0,9.11,0Z"/>
        <path class="cls-21" d="m1416.46,1066.28c-24.3.02-48.6-.02-72.9,0-10.56-9.66-22.75-17.62-34.63-25.52v-25.52l107.53,51.03Z"/>
        <path class="cls-56" d="m1183.17.07c-31.31,118.37-65.88,235.97-105.71,351.76l-3.65-3.65c.31-.93-.31-2.72,0-3.65,4.82-14.6,9.85-29.1,14.58-43.74,6.87-21.28,13.46-42.43,20.05-63.79,8.59-27.85,17.39-55.87,25.52-83.84,10.07-34.66,20.32-68.86,29.16-103.89,4.15-16.42,6.9-33.22,12.76-49.21,2.43,0,4.86,0,7.29,0Z"/>
        <path class="cls-10" d="m1666.15.07c-48.38,65.3-97.34,130.51-151.27,191.37.12-1.35-3.87-2.72,0-10.02,48.73-58.91,96-119.02,140.34-181.35,3.65,0,7.29,0,10.94,0Z"/>
        <path class="cls-6" d="m25.84,1066.28c-8.49-.3-17.02.21-25.52,0-.17-11.54.24-23.1,0-34.63,4.35.36,6.93-3.46,7.29-3.65,4.56-2.34,11.16-2.61,12.76-7.29,11.02,6.24,1.26,32.05,5.47,45.56Z"/>
        <path class="cls-41" d="m654.62.07c6.19,17.46,14.6,34.04,21.87,51.03,12.21,28.52,24.65,56.97,36.45,85.66-19.28-26.24-47.89-101.95-65.61-136.69,2.43,0,4.86,0,7.29,0Z"/>
        <path class="cls-53" d="m9.43,951.46c.69,5.28-4.21,58.94-1.82,76.55-.36.19-2.94,4-7.29,3.65-.61-29.73.14-59.56,0-89.31,6.99-1.78,8.28,2.7,9.11,9.11Z"/>
        <path class="cls-17" d="m1288.88,288.04c-3.53,25.54.3,34.39,20.05,49.21-.23,11.53.13,23.09,0,34.63-1.51,135.44,1.13,270.98,0,406.43v262.45c-1.42-.94-6.87-1.55-7.29-1.82-6.18-4.08-14.8-27.9-9.11,14.58-.2.16-.52,3.04-3.65,3.65-2.96-2.68-17.56-2.48-21.87-1.82q-16.4-22.78-32.81-45.56c6.29-2.13,12.13-4.73,18.23-7.29,1.22,3.95-2.8,8.59,12.76,7.29.11,11.32-2.1,24.09,13.67,12.76,2.62-1.89-3.17-7.79,8.2-8.2-.75-217.62,6.49-435.82,1.82-653.39-1.41-65.83,3.42-34.84-25.52-9.11.29-5.38-.56-11.11,0-16.4.53-4.99,2.07-13.4,3.65-18.23,2.3-7.04,14.53-27.65,21.87-29.16Z"/>
        <path class="cls-17" d="m904.32,621.57v25.52c-.64,0-4.13,2.99-12.76,1.82-13.3-29.76-10.57-8.51-12.76,2.73-.3,1.55-3.62.72-3.65.91-16.96-3.2-4.5,21.92-10.94,38.27-.16-64.57-6.93-54.43-7.29-57.41-1.49-12.26,6.42-6.68,7.29-10.94.23-1.15-11.31-10.09-12.76-11.85-5.03-6.07-9.36-10.66-14.58-16.4-5.49-6.04-10.72-12.35-16.4-18.23-9.38-9.69-19.66-17.91-29.16-27.34-15.06-14.94-30.4-29.05-45.56-43.74-6.54-6.34-11.24-17.34-18.23-18.23-.38-3.26.26-6.73,0-10.02-9.91-8.44-20.02-17.18-29.16-26.43-8.99-9.1-47.28-47.54-52.85-51.03-.43-.27-1.37.26-1.82,0,.44-5.04.27-7.94-1.82-12.76-.47-9.77,9.16.15,24.6,14.58,74.1,69.26,135.29,153.2,215.06,216.89,22.56-2.06,21.55,3.69,22.78,3.65Z"/>
        <path class="cls-47" d="m1132.14,493.99c.26,12.74-.08,25.53,0,38.27-1.5.12-3.33-.22-3.65,0,5.67-31.29-66.3,57.95-89.31,74.73l-1.82,1.82q-3.65-3.65-7.29-7.29c3.72-7.45,7.06-9.24,5.47-20.05,31.46-38.63,63.22-77.02,95.69-114.82,1.82,1.4.82,22.96.91,27.34Z"/>
        <path class="cls-29" d="m1267.01,317.2c-1.58,4.83-3.12,13.24-3.65,18.23-38.97,42.56-71.59,90.47-109.35,133.96-.31,9.39.43,18.87,0,28.25-.33,7.26.31,14.61,0,21.87-2.22,51.7-4.06,105.06-1.82,156.74.07,1.72,1.67,1.87,1.82,3.65-2.2,2.33-5.25,8.41-7.29,2.73-3.07-8.53-1.81-135.01-3.65-181.35-.85-21.32-6.74-23.62-1.82-33.72,4.29-8.82,108.98-131.93,125.76-150.36Z"/>
        <path class="cls-29" d="m616.35,355.48q-8.2,4.56-16.4,9.11-67.44-71.99-134.87-143.98c-.3-8.9-4.19-17.37,0-25.52,60.59,73,102.68,107.36,151.27,160.39Z"/>
        <path class="cls-3" d="m971.75,623.39c1.89,5.9,2.14,12.48,0,18.23-18.08-6.55-46.92-3.64-67.44-1.82v-18.23c1.06-.04-1.44-2.96,18.23-6.38-24.1-43.8-11.54-26.96,53.77-30.07-17.59,44.61-7.42,29.32-4.56,38.27Z"/>
        <path class="cls-52" d="m1022.78,488.52c-1.14,2.92-2.72,12.13-3.65,16.4-.11.23-1.85.14-3.65,3.65h-145.81c-2.63-6.08-4.88-12.08-7.29-18.23q80.19-.91,160.39-1.82Z"/>
        <path class="cls-17" d="m1015.49,508.57c-3.8,7.43-6.69,14.57-10.94,21.87h-123.94c-3.68-7.36-7.65-14.28-10.94-21.87h145.81Z"/>
        <path class="cls-33" d="m1143.07,501.28c1.84,46.34.58,172.81,3.65,181.35,2.04,5.68,5.09-.4,7.29-2.73.05.54,4.28-4.01,3.65.91-6.11,6.24-12.63,16.21-14.58,24.6l-10.94-3.65c-.14-56.5.36-113.01,0-169.5-.08-12.75.26-25.53,0-38.27l10.94,7.29Z"/>
        <path class="cls-3" d="m465.08,195.09c-4.19,8.14-.3,16.61,0,25.52.12,3.64-.07,7.29,0,10.94-29.39-13.71-32.38-71.43-35.54-20.05q-6.83-9.11-13.67-18.23c-.25-21.15-2.31-42.76,0-63.79,26.47,31.44,45.43,61.06,49.21,65.61Z"/>
        <path class="cls-4" d="m1000.91,621.57c-2.41,3.41-1.6,6.97-1.82,7.29-2.46,3.52-15.7,11.53-16.4,13.67-2.48,27.63,6.39,75.49-7.29,73.81-.72-17.87.53-35.88,0-53.77-1.32-1.87-16.52-.72-20.05-.91-5.43-.3-10.95.16-16.4,0-16.81-.51-15.58,1.86-16.4,1.82-1.28-.05-12.29-3.36-25.52-1.82l-5.47-2.73c-.44-3.22.66-8.55,0-10.02,8.63,1.16,12.11-1.83,12.76-1.82,21.96.12,44.41,3.68,66.52,1.82,2.01-.92.25-5.52.91-7.29,2.14-5.75,1.89-12.32,0-18.23,8.46-3.58,19.58-3.11,29.16-1.82Z"/>
        <path class="cls-3" d="m993.62,550.49c-1.55,2.36-7.22,15.98-8.2,16.4h-83.84c-5.48-4.27-9.16-17.12-10.02-18.23l102.06,1.82Z"/>
        <path class="cls-52" d="m1004.56,530.44c-2.04,3.51-3.43,7.43-5.47,10.94l-111.18,1.82c-.39-.53-3.34-3.2-3.65-3.65-.69-2.95-2.32-6.45-3.65-9.11h123.94Z"/>
        <path class="cls-24" d="m791.32,300.8c6.02,15.19,12.32,30.35,18.23,45.56,7.3,18.81,14.6,37.68,21.87,56.5,4.61,11.93,8.2,24.47,12.76,36.45,2.08,5.47,3.4,10.98,5.47,16.4,4.39,11.51,8.27,23.19,12.76,34.63,2.41,6.15,4.66,12.15,7.29,18.23,3.29,7.59,7.26,14.51,10.94,21.87,1.33,2.66,2.96,6.16,3.65,9.11-33.02-47.77-43.08-101.74-63.79-155.83-16.3-42.59-40.87-83.1-49.21-128.49,4.91,16.1,13.99,30.27,20.05,45.56Z"/>
        <path class="cls-3" d="m905.23,568.72c42.49,3.19,94.71-9.95,71.08,14.58-34.94-2.54-81.55,8.75-71.08-14.58Z"/>
        <path class="cls-17" d="m1035.54,581.47c1.59,10.81-1.75,12.6-5.47,20.05-1.19,2.38-8.8,10.44-9.11,11.85-1.23,5.56.44,27.76,0,39.19-.15,3.93-1.79,4.09-1.82,5.47-3.37-1.38-5.32-4.45-7.29-7.29-4.81-6.94-8.35-14.68-12.76-21.87.22-.32-.59-3.88,1.82-7.29,14.37-20.32,31.3-36.01,34.63-40.1Z"/>
        <path class="cls-4" d="m999.09,541.38c-1.85,3.18-3.43,6-5.47,9.11l-102.06-1.82c-3.59-4.6-3.45-5.2-3.65-5.47l111.18-1.82Z"/>
        <path class="cls-29" d="m616.35,355.48c2.24,2.44,5.01,4.62,7.29,7.29,0,9.11,0,18.23,0,27.34,0,1.21.01,2.43,0,3.65l-23.69-7.29c-.45-7.24.32-14.62,0-21.87q8.2-4.56,16.4-9.11Z"/>
        <path class="cls-24" d="m1055.59,415.62c-8.22,22.02-16.77,44.04-23.69,66.52-5.63,12.68-12.04,21.33-12.76,22.78.93-4.27,2.51-13.48,3.65-16.4,4.5-11.56,7.04-21.47,10.94-32.81.32-.93,1.85-2.55,7.29-18.23,2.96-8.51,6.15-16.97,9.11-25.52l5.47,3.65Z"/>
        <path class="cls-3" d="m641.87,386.46c2.09,4.82,2.26,7.72,1.82,12.76-.95-.55-8.02-.2-20.05-9.11,0-9.11,0-18.23,0-27.34,5.15,6.01,15.1,16.5,18.23,23.69Z"/>
        <path class="cls-41" d="m1077.46,351.83c-7.31,21.24-14.02,42.74-21.87,63.79l-5.47-3.65c3.48-10.04,1.67-8.67,1.82-9.11,6.25-18.13,15.75-36.2,21.87-54.68l3.65,3.65Z"/>
        <path class="cls-59" d="m19.46,789.25c8.07-5.47,13.68,11.33,0,3.65-1.55-.87-1.51-2.62,0-3.65Z"/>
        <path class="cls-27" d="m1697.14,102.14c-4.21-.67-3.49,1.7-3.65,1.82-10.35,8.16-85.75,86.96-94.77,98.42-3.3-11.17-29.84-13.87-41.92-18.23,37.36-53.45,96.5-117.66,140.34-167.68-1.56,8.53.19,65.41,0,85.66Z"/>
        <path class="cls-52" d="m1593.25,244.3c.35-13.04-.26-26.14,0-39.19,2.51-3.72,5.28-2.49,5.47-2.73,9.02-11.46,84.42-90.26,94.77-98.42v137.6l-100.24,2.73Z"/>
        <path class="cls-51" d="m1697.14,597.88v-45.56c6.39-.37,31.6-13.53,34.63-6.38v49.21l-34.63,2.73Z"/>
        <path class="cls-6" d="m1593.25,674.43c.01,3,9.64,11.94-3.65,23.69-18.73-2.99-15.96-27.39,3.65-23.69Z"/>
        <path class="cls-6" d="m1589.6,703.59c8.1,4.43,5.24,11.4,5.47,20.05-17.37,11.53-26.87-19.16-5.47-20.05Z"/>
        <path class="cls-21" d="m1474.78,570.54c-.25,29.34-3.6,58.96-1.82,88.39-33.61,8.33-67.98,13.27-102.06,19.14-3.66.63-7.23,1.58-10.94,1.82.07-.45-4.16-2.87-.91-9.11,11.08-2.32,22.87-4.14,33.72-7.29,8.56-2.49,67.87-17.62,69.26-20.96v-378.18c.75.11,5.01-3.97,10.94-.91-2.62,102.28,2.69,204.88,1.82,307.1Z"/>
        <path class="cls-51" d="m1370.9,678.07l1.82,95.69-2.73,4.56c-4.34,1.2-11.25-1.87-11.85-1.82,1.61-31.92-2.98-64.84,1.82-96.6,3.7-.24,7.27-1.19,10.94-1.82Z"/>
        <path class="cls-52" d="m1451.09,535.91c-7.4,1.45-2.06,33.98-3.65,53.77-4.32,3.19-8.43-1.69-10.94-.91v-32.81c0-4.25.01-8.51,0-12.76-.02-8.46-1.81-17.52-1.82-25.52,0-6.13.05-12.04,0-18.23-.1-11.73,1.98-24.32,1.82-36.45-.53-40.99-3.21-81.99-1.82-123.02-15.77,12.39-28.89,27.55-43.74,41.01-2.56,2.32-4.9,5.21-7.29,7.29-5.12,4.45-11.42,10.97-16.4,14.58-4.72,3.42-5.13,5.29-5.47,5.47-.96.51-9.66,1.81-12.76,1.82.65-4.74-2.16-7.51,0-11.85q50.12-58.78,100.24-117.56c-2.63,36.67,3.04,187.55,1.82,255.16Z"/>
        <path class="cls-52" d="m1451.09,535.91c-.62,34.34-2.32,68.62-1.82,102.98-1.89,4.55-47.2,13.74-54.68,15.49-5.71,1.34-42.85,12.42-44.65,10.94-2.1-13.26-.31-26.79-.91-40.1,4.24.77,6.41-4.65,7.29-7.29.31,8.79,14.93-2.4,18.23-3.65,6.31-2.4,12.02-4.78,18.23-7.29,11.23-4.54,41.48-17.52,43.74-18.23,2.51-.78,6.62,4.1,10.94.91,1.59-19.79-3.75-52.32,3.65-53.77Z"/>
        <path class="cls-54" d="m1462.02,264.35v378.18c-1.39,3.34-60.7,18.47-69.26,20.96l1.82-9.11c7.48-1.75,52.79-10.94,54.68-15.49-.5-34.35,1.21-68.64,1.82-102.98,1.21-67.61-4.45-218.49-1.82-255.16,2.12-29.57,4.75-17.53,12.76-16.4Z"/>
        <path class="cls-22" d="m1361.78,408.33c-.6,15.13.82,30.46,0,45.56-4.06,9.7-6.47,20.54-7.29,30.98-.56,7.17.14,14.65,0,21.87-.49,25.36,3.22,48.61,3.65,72.9.16,9.08.94,26.22,0,32.81-.04.29-1.41,4.23-1.82,5.47-.88,2.64-3.05,8.06-7.29,7.29-2.04-44.96-4.97-178.74,0-215.06,3.1-.01,11.8-1.31,12.76-1.82Z"/>
        <path class="cls-3" d="m465.08,231.54c.16,8.5-.07,17.01,0,25.52-19.75-3.53-19.99-30.17-34.63-41.01v763.66c22.68-26.64,10.53-2.8,15.49.91,2.21,1.65-.07-10.23,11.85,0l-41.92,25.52c-2.35-270.9,3.14-541.98,0-812.87q6.83,9.11,13.67,18.23c3.16-51.38,6.15,6.33,35.54,20.05Z"/>
        <path class="cls-34" d="m1155.83,882.2c2.98,4.82,1.51,12.28,9.11,7.29-1.27,19.46-5.1,32.59-5.47,36.45-1.41-4.02-7.02-11.41-7.29-12.76-.42-2.1.24-4.93,0-7.29-.8-7.87.22-17.31,0-25.52.78.2,3.54,1.65,3.65,1.82Z"/>
        <path class="cls-33" d="m643.69,399.22c.46.26,1.39-.27,1.82,0-.34,26.11.45,52.26,0,78.37-.03,1.82.03,3.65,0,5.47-1.15,72.19-3.84,144.7-1.82,216.89.23,8.27.66,13.7,1.82,21.87.54,3.79-1.12,7.28,1.82,10.94-2.26,2.37-6.73,7.14-7.29,10.02-.96,4.98,6.88,52.26,7.29,83.84.56,43.2-4.19,87-1.82,130.31-3.75,2.89-4.83,7.71-7.29,10.94-6.21,8.13-13.18,12.06-12.76,16.4l-3.65-1.82c-.61-196.25.19-392.45,1.82-588.69.01-1.21,0-2.43,0-3.65,12.03,8.91,19.1,8.56,20.05,9.11Z"/>
        <path class="cls-34" d="m585.37,490.35c-.19,68.55-3.17,137.39-3.65,205.95-4.85.9-7.96.6-12.76,0,.14-62.24-.79-124.79,3.65-184.99-18.76-9.18-61.6-39.89-78.37-41.01-3.72-.25-14.9-.49-16.4,0-3.99,1.31-3.98,8.8-12.76,9.11-.03-58.32.16-116.65,0-174.97q60.14,59.69,120.29,119.38c-.05,22.17.06,44.35,0,66.52Z"/>
        <path class="cls-11" d="m565.32,541.38c-.67,8.55-3.64,5.14-3.65,5.47q-26.88-11.85-53.77-23.69c-1.95,1.5-.81,42.64-.91,49.21-.23,15.79.09,31.6,0,47.39-.54,94.16.37,188.34,0,282.5-.08,20.1-3.72,40.78-1.82,61.06q27.79,1.37,55.59,2.73c6.71-2.98.96-73.07.91-83.84-.01-3.04.01-6.08,0-9.11,9.28-1.63,2.81,5.99,7.29,9.11.19,32.42.31,64.17,1.82,96.6.1,2.22-.12,5.43,0,7.29-2.88.34-3.42,3.51-3.65,3.65-24.1,14.37-49.52,26.65-71.99,43.74l-2.73-2.73q.91-263.36,1.82-526.72,35.54,18.68,71.08,37.36Z"/>
        <path class="cls-10" d="m568.96,696.3c-3.11-.39.65-6.25-9.11,0,0-1.22,0-2.43,0-3.65.09-26.09-.58-52.29,0-78.37,0-.23,3.61-1.39,3.65-2.73.6-21.48-2.18-43.51-1.82-64.7,0-.33,2.98,3.08,3.65-5.47.13-1.63,5.07-6.12-.91-10.94-8.61-4.04-66.97-31.94-68.35-35.54-1.84-4.84,2.78-19.32-1.82-24.6,16.77,1.12,59.61,31.83,78.37,41.01-4.43,60.2-3.5,122.75-3.65,184.99Z"/>
        <path class="cls-11" d="m572.61,1013.42c-28.24,19.04-47.06,28.97-74.73,45.56-5.86-2.77-7.57-10.75-4.56-16.4,2.28-4.27,69.77-40.87,72.9-43.74,1.15-1.06,4.94-8.31.91-9.11.22-.13.76-3.3,3.65-3.65.57,9.15-.88,18.29,1.82,27.34Z"/>
        <path class="cls-59" d="m224.5,936.88c-11.51,22.92-21.21,79.93-25.52,90.22-.32.76-3.31,1.35-5.47,2.73-6.04-26.74-12.67-53.34-18.23-80.19,8.18-1.12,38.15-9.46,49.21-12.76Z"/>
        <path class="cls-33" d="m465.08,257.06c.09,10.93-.04,21.87,0,32.81.02,4.86-.01,9.72,0,14.58.16,58.32-.03,116.65,0,174.97.08,168.28-.06,336.57,0,504.85-2.78.31-5.42-2.04-7.29-3.65-11.92-10.23-9.64,1.65-11.85,0-4.97-3.71,7.19-27.55-15.49-.91V216.05c14.64,10.83,14.88,37.48,34.63,41.01Z"/>
        <path class="cls-29" d="m623.64,393.75c-1.63,196.24-2.44,392.44-1.82,588.69-2.04,5.93-18.54,7.79-23.69,10.94.25-170.71-.33-341.43,0-512.14.06-28.48,2.91-57.01,1.82-85.66-.12-3.03.19-6.1,0-9.11l23.69,7.29Z"/>
        <path class="cls-59" d="m598.12,993.38c-5.74,3.51-9.29,7.28-14.58,10.94q-2.73-15.49-5.47-30.98c5.21-92.29,3-184.68,3.65-277.03.48-68.56,3.45-137.4,3.65-205.95l12.76-9.11c-.33,170.71.25,341.43,0,512.14Z"/>
        <path class="cls-51" d="m583.54,1004.31c-3.92,2.71-6.94,6.42-10.94,9.11-2.7-9.04-1.25-18.19-1.82-27.34-.12-1.86.1-5.07,0-7.29l7.29-5.47q2.73,15.49,5.47,30.98Z"/>
        <path class="cls-21" d="m65.93,964.21c.7,16.91-.91,34.16,0,51.03-37.43,19.9-21.98-5.74-14.58-51.94,12.96-3.2,13.85.91,14.58.91Z"/>
        <path class="cls-51" d="m22.19,955.1l-1.82,65.61c-1.6,4.68-8.2,4.95-12.76,7.29-2.39-17.61,2.51-71.27,1.82-76.55,9.11-1.71,11.09,3.69,12.76,3.65Z"/>
        <path class="cls-52" d="m1073.82,344.54c-.31.93.31,2.72,0,3.65-6.12,18.48-15.62,36.55-21.87,54.68h-220.53c-7.27-18.82-14.57-37.69-21.87-56.5l264.27-1.82Z"/>
        <path class="cls-17" d="m1088.4,300.8c-4.73,14.65-9.76,29.14-14.58,43.74l-264.27,1.82c-5.9-15.22-12.21-30.37-18.23-45.56h297.08Z"/>
        <path class="cls-33" d="m1288.88,360.94c4.67,217.58-2.57,435.77-1.82,653.39-11.37.41-5.58,6.32-8.2,8.2-15.77,11.33-13.56-1.43-13.67-12.76-.01-1.31,8.31-6.82-7.29-20.05h1.82c3.68-61.91,1.37-123.95,1.82-185.9.07-9.72-.06-19.44,0-29.16.76-120.83.02-241.92,1.82-362.69.12-7.89-.18-15.8,0-23.69,10.56-2.88,12.03-26.45,25.52-27.34Z"/>
        <path class="cls-51" d="m1263.36,351.83c-.64,12.07.28,24.35,0,36.45-.18,7.89.12,15.8,0,23.69-9.88,8.57-15.14,20.97-25.52,29.16-2.02,1.59-34.17,18.06-44.65,25.52-12.43,8.84-28.1,27.78-39.19,30.98.43-9.38-.31-18.86,0-28.25,37.77-43.49,70.39-91.4,109.35-133.96-.56,5.29.29,11.03,0,16.4Z"/>
        <path class="cls-3" d="m1288.88,360.94c-13.49.89-14.96,24.46-25.52,27.34.28-12.1-.64-24.38,0-36.45,28.93-25.72,24.1-56.72,25.52,9.11Z"/>
        <path class="cls-47" d="m698.37,450.25c9.14,9.25,19.25,17.99,29.16,26.43.26,3.29-.38,6.76,0,10.02.89,7.67,1.58,17.81,1.82,25.52.53,16.94-1.99,35.51-1.82,52.85q-41.01-41.01-82.02-82.02c.03-1.82-.03-3.65,0-5.47,17.47-3.72,37.43-38.07,52.85-27.34Z"/>
        <path class="cls-34" d="m791.32,548.67c9.5,9.43,19.79,17.65,29.16,27.34l-1.82,151.27c-.26.27-.97,4.34-5.47,3.65.23-21.09,1.56-137.82,0-144.89-.56-2.57-8.43-14.8-12.76-14.58.19,48.9-.26,97.81,0,146.72q-10.02,2.73-20.05,5.47c0-38.82,2.27-134.07,0-156.74-.56-5.59,1.06-8.38-1.82-14.58q6.38-1.82,12.76-3.65Z"/>
        <path class="cls-22" d="m836.88,594.23c-5.3,32.13-4.96,65.7,0,96.6,1.91,11.87,3.58,8.63,3.65,9.11.07.55-2.94,3.75-1.82,10.94-3.15.39-6.55,1.9-9.11,3.65-1.85,1.26-6.65,8.3-10.94,12.76l1.82-151.27c5.68,5.87,10.91,12.19,16.4,18.23Z"/>
        <path class="cls-51" d="m698.37,450.25c-15.43-10.73-35.39,23.62-52.85,27.34.45-26.11-.34-52.26,0-78.37,5.58,3.49,43.86,41.94,52.85,51.03Z"/>
        <path class="cls-28" d="m875.16,652.55c-.48,4.03.7,77.21,1.82,81.1.64,2.2,2.13-1.1,3.65-.91-2.2,10.68,4.84,20.13-3.65,35.54,2.64,2.13,4.3,5.1,5.47,8.2l-1.82,1.82c-2.99-9.98-13.56-8.28-16.4,5.47l-7.29-12.76c1.77-12.32.96-23.97,1.82-30.07.1-.71,5.24-1.65,5.47-3.65,1.29-11.12-1.88-14.71-1.82-15.49.79-10.63,1.85-20.22,1.82-30.98,6.43-16.36-6.02-41.47,10.94-38.27Z"/>
        <path class="cls-22" d="m851.46,610.64c1.45,1.75,12.99,10.69,12.76,11.85-.87,4.26-8.78-1.33-7.29,10.94.36,2.98,7.13-7.16,7.29,57.41.03,10.77-1.04,20.35-1.82,30.98-3.73-6.71-10.73-10.1-18.23-10.94-3.02-4.44.71-9.57,1.82-14.58.14-.63,7.55-4.67-1.82-9.11,5.03-8.43-4.04-79.91,7.29-76.55Z"/>
        <path class="cls-33" d="m891.56,648.91c.66,1.47-.44,6.8,0,10.02l5.47,2.73c-1.19,8.79.22,18.91,0,27.34-.18,6.95.8,22.27,0,24.6-.99,2.88-14.32,9.02-16.4,19.14-1.52-.19-3.01,3.11-3.65.91-1.13-3.9-2.3-77.08-1.82-81.1.02-.19,3.34.64,3.65-.91,2.18-11.25-.54-32.5,12.76-2.73Z"/>
        <path class="cls-22" d="m851.46,610.64c-11.33-3.36-2.26,68.11-7.29,76.55-.21.35-2.75-.5-7.29,3.65-4.96-30.89-5.3-64.47,0-96.6,5.22,5.75,9.55,10.33,14.58,16.4Z"/>
        <path class="cls-47" d="m791.32,548.67q-6.38,1.82-12.76,3.65c-.3-.65-9.17-7.56-10.94-9.11-4.65-4.1-15.86-12.06-21.87-12.76v-25.52c15.16,14.7,30.51,28.8,45.56,43.74Z"/>
        <path class="cls-33" d="m971.75,641.62c-.66,1.77,1.1,6.37-.91,7.29-22.11,1.86-44.56-1.7-66.52-1.82v-7.29c20.51-1.82,49.35-4.73,67.44,1.82Z"/>
        <path class="cls-28" d="m745.75,504.93v20.05l-16.4-12.76c-.24-7.71-.93-17.84-1.82-25.52,6.98.88,11.69,11.89,18.23,18.23Z"/>
        <path class="cls-34" d="m1132.14,532.26c.36,56.49-.14,113,0,169.5.04,18.23-.02,36.45,0,54.68h-41.01l-3.65-38.27h-42.83c.28-22.71,1.61-83.41,0-96.6,18.86-11.1,78.82-85.79,83.84-89.31.31-.22,2.15.12,3.65,0Z"/>
        <path class="cls-47" d="m1128.49,532.26c-5.02,3.52-64.98,78.21-83.84,89.31-.29-2.4-4.19-10.44-5.47-14.58,23.01-16.77,94.98-106.02,89.31-74.73Z"/>
        <path class="cls-3" d="m1039.19,606.99c1.28,4.14,5.17,12.19,5.47,14.58,1.61,13.18.28,73.89,0,96.6-.08,6.68.14,13.37,0,20.05-3.31-3.62-5.64-8.15-7.29-12.76-1.95-5.44-5.01-14.81-5.47-20.05-.27-3.18-.26-58.97,0-63.79.58-10.67,5.45-21.91,5.47-32.81l1.82-1.82Z"/>
        <path class="cls-47" d="m1037.36,608.81c-.01,10.9-4.89,22.14-5.47,32.81l-10.94,10.94c.44-11.43-1.23-33.62,0-39.19.31-1.4,7.92-9.46,9.11-11.85q3.65,3.65,7.29,7.29Z"/>
        <path class="cls-34" d="m1261.54,774.67c-3.35-16.51-9.54-32.73-12.76-49.21-6.16-31.6-3.25-37.02-3.65-39.19-5.85-32.32-21.61-72.19-41.92-28.25-2.91,6.29-5.2,13.02-5.47,20.05q-10.48-11.85-20.96-23.69l-24.6,21.87c-2.23-51.68-.4-105.04,1.82-156.74,11.19-6.9,22.08-20.32,35.54-16.4l48.3-61.97c10.38-8.19,15.64-20.59,25.52-29.16-1.81,120.77-1.06,241.87-1.82,362.69Z"/>
        <path class="cls-47" d="m1237.85,441.14l-48.3,61.97c-13.46-3.91-24.35,9.5-35.54,16.4.31-7.26-.33-14.61,0-21.87,11.08-3.21,26.75-22.14,39.19-30.98,10.48-7.46,42.63-23.92,44.65-25.52Z"/>
        <path class="cls-51" d="m599.95,364.59c.32,7.25-.45,14.63,0,21.87.19,3.02-.12,6.09,0,9.11-6.05-1.06-1.37,5.49-6.38,5.47-4.38-.02-53.08-53.97-61.97-61.97-14.92-13.43-52.35-45.58-66.52-49.21-.04-10.93.09-21.87,0-32.81-.07-8.5.16-17.02,0-25.52-.07-3.64.12-7.3,0-10.94q67.44,71.99,134.87,143.98Z"/>
        <path class="cls-17" d="m1033.72,455.72c-3.9,11.33-6.44,21.25-10.94,32.81q-80.19.91-160.39,1.82c-4.48-11.44-8.37-23.12-12.76-34.63h184.08Z"/>
        <path class="cls-3" d="m1143.07,705.41c-5.18,22.32.69,32.42,3.65,51.03.29,1.85,3.87,1.93,5.47,14.58,2.24,17.72-.81,78.62,0,109.35.22,8.21-.8,17.65,0,25.52-9.22-.02-12.17,8.41-21.87,3.65.2-2.4-.17-4.88,0-7.29.2-2.85,3.56-1.28,3.65-2.73,2.16-37.25-1.79-74.91-1.82-112.09,0-10.33.01-20.66,0-30.98-.02-18.23.04-36.45,0-54.68l10.94,3.65Z"/>
        <path class="cls-28" d="m1011.85,650.73c-4.37,22.19-.42,45.13-1.82,67.44-.48,7.69-3.39,16.37-1.82,24.6-18.1-13.33-25.89,13.44-10.94,1.82-2.07,10.13-1.7,19.83-1.82,30.07-18.78,5.02-17.23-1.66-18.23-1.82,1.01-18.85-1.07-37.68-1.82-56.5,13.68,1.68,4.81-46.19,7.29-73.81.71-2.14,13.94-10.15,16.4-13.67,4.41,7.19,7.95,14.93,12.76,21.87Z"/>
        <path class="cls-28" d="m975.4,716.34c.76,18.81,2.83,37.65,1.82,56.5-8.2-1.3-12.54,4.1-12.76,0,3.11-7.96,2.84-25.04,0-32.81-1.41-3.86-8.46-7.86-9.11-10.02-1.34-4.44,1.19-53.78,0-68.35,3.53.19,18.73-.95,20.05.91.53,17.88-.72,35.9,0,53.77Z"/>
        <path class="cls-28" d="m955.35,661.67c1.19,14.57-1.34,63.91,0,68.35.66,2.17,7.7,6.16,9.11,10.02-8.99-2.54-16.64-15.02-19.14-23.69-1.56-.79-7.74,13.15-8.2,14.58-1.48-.14-2.06-1.25-3.65-1.82,10.52-12.61,3.4-46.13,5.47-67.44,5.45.16,10.97-.3,16.4,0Z"/>
        <path class="cls-28" d="m922.54,663.49c-1.17,17.48,1.22,35.41,0,52.85l-12.76,1.82c-2.62-15.41,2.64-37.92-12.76-29.16.22-8.43-1.19-18.55,0-27.34,13.22-1.54,24.24,1.77,25.52,1.82Z"/>
        <path class="cls-33" d="m938.95,661.67c-2.06,21.31,5.05,54.83-5.47,67.44-2.75-.99-6.11-1.97-9.11-1.82.04-.55-2.41-2.46-1.82-10.94,1.22-17.45-1.17-35.37,0-52.85.82.03-.41-2.33,16.4-1.82Z"/>
        <path class="cls-17" d="m1051.95,402.86c-.15.44,1.65-.92-1.82,9.11-2.96,8.55-6.16,17.01-9.11,25.52q-98.42.91-196.84,1.82c-4.55-11.99-8.15-24.52-12.76-36.45h220.53Z"/>
        <path class="cls-52" d="m1033.72,455.72h-184.08c-2.07-5.42-3.39-10.94-5.47-16.4q98.42-.91,196.84-1.82c-5.44,15.67-6.97,17.3-7.29,18.23Z"/>
        <path class="cls-3" d="m1019.14,658.02c-.32,14.61.9,32.63,1.82,47.39.55,8.77-.69,12.78,5.47,21.87-2.21.48-6.51,2.7-9.11,3.65.58-7.24,2.1-9.6,1.82-10.02-1.16-1.79-5.33.22-9.11-2.73,1.4-22.31-2.55-45.24,1.82-67.44,1.97,2.84,3.92,5.91,7.29,7.29Z"/>
        <path class="cls-12" d="m1031.9,705.41h-10.94c-.93-14.76-2.14-32.78-1.82-47.39.03-1.37,1.67-1.54,1.82-5.47l10.94-10.94c-.26,4.82-.27,60.61,0,63.79Z"/>
        <path class="cls-41" d="m1436.51,463.01c-16.74,2.22-36.3-5.67-43.74-21.87-15.42-35.47,14.8,32.01,18.23-3.65,21.46,9.03,6.53-38.47-20.05-56.5,14.85-13.46,27.97-28.62,43.74-41.01-1.38,41.04,1.29,82.03,1.82,123.02Z"/>
        <path class="cls-8" d="m1392.77,441.14c7.44,16.2,27.01,24.09,43.74,21.87.16,12.13-1.92,24.72-1.82,36.45-12.36,22.14-33.83,12.57-44.65-5.47-1.9,1.19-.52,6.81-.91,9.11q-7.29-1.82-14.58-3.65c1.28-6.4,1.02-21.34,1.82-29.16,2.64-2.83,4.04-1.81,7.29-1.82.71,4.02-.89,11.13,0,13.67,7.19,20.47,2.66-37.02,9.11-41.01Z"/>
        <path class="cls-61" d="m1434.69,499.46c.05,6.19,0,12.1,0,18.23-6.81-13.17-35.41,39.92-34.63,42.83,1.1,4.09,11.31,1.53,13.67.91,9.58-2.52,16.28-11.74,22.78-18.23.01,4.25,0,8.51,0,12.76-29.92,20.42-42.18-1.26-56.5,21.87-1.57-1.02-6.92-1.42-9.11-1.82.72-4.7-3.61-5.14-3.65-5.47-.42-3.61,17.6-42.54,21.87-67.44.4-2.31-.99-7.92.91-9.11,10.82,18.04,32.29,27.61,44.65,5.47Z"/>
        <path class="cls-37" d="m1436.51,555.96v32.81c-2.26.71-32.51,13.69-43.74,18.23-2.27-9.46-3.34-23.08-12.76-29.16,14.32-23.13,26.58-1.45,56.5-21.87Z"/>
        <path class="cls-36" d="m1410.99,437.49c-3.43,35.66-33.65-31.83-18.23,3.65-6.45,3.99-1.93,61.48-9.11,41.01-.89-2.54.71-9.65,0-13.67-3.97-22.46-11.31-43.49-16.4-65.61,4.98-3.61,11.28-10.13,16.4-14.58,7.7,12.24,12.71,43.05,27.34,49.21Z"/>
        <path class="cls-29" d="m1383.65,468.47c-3.25.02-4.65-1.01-7.29,1.82-6.88,7.37-8.06,36.12-21.87,36.45.14-7.22-.56-14.7,0-21.87,6.48-9.71,6.75-21.14,7.29-30.98.82-15.1-.6-30.44,0-45.56.34-.18.74-2.04,5.47-5.47,5.09,22.12,12.44,43.15,16.4,65.61Z"/>
        <path class="cls-17" d="m1410.99,437.49c-14.63-6.16-19.64-36.97-27.34-49.21,2.39-2.08,4.73-4.97,7.29-7.29,26.58,18.03,41.5,65.53,20.05,56.5Z"/>
        <path class="cls-49" d="m1434.69,517.68c.01,8,1.8,17.05,1.82,25.52-6.5,6.48-13.2,15.71-22.78,18.23-2.36.62-12.56,3.18-13.67-.91-.79-2.91,27.82-56,34.63-42.83Z"/>
        <path class="cls-20" d="m1370.9,576.01c2.2.41,7.54.81,9.11,1.82,9.42,6.09,10.49,19.7,12.76,29.16-6.21,2.51-11.92,4.89-18.23,7.29.9-3.66-.38-20.27-4.56-20.05-6.79.36,4.24,22.85-11.85,18.23.94-6.58.16-23.73,0-32.81,3.67-4.25,7.44-4.63,12.76-3.65Z"/>
        <path class="cls-32" d="m1374.54,614.28c-3.29,1.25-17.92,12.43-18.23,3.65.41-1.24,1.78-5.18,1.82-5.47,16.09,4.62,5.06-17.87,11.85-18.23,4.18-.22,5.46,16.39,4.56,20.05Z"/>
        <path class="cls-61" d="m1374.54,499.46c-2.63,13.16-32.44,77.92-7.29,71.08.04.33,4.36.77,3.65,5.47-5.31-.98-9.09-.61-12.76,3.65-.42-24.3-4.13-47.54-3.65-72.9,13.81-.33,14.99-29.08,21.87-36.45-.8,7.82-.54,22.76-1.82,29.16Z"/>
        <path class="cls-41" d="m1354.49,484.88c.82-10.44,3.24-21.29,7.29-30.98-.54,9.84-.81,21.27-7.29,30.98Z"/>
        <path class="cls-47" d="m1248.78,796.54c-.09,2.85-7.49,6.54,12.76,7.29-.46,61.95,1.85,123.99-1.82,185.9q-15.49-15.49-30.98-30.98c.4-59.9,17.52-134.29,18.23-164.03-.2,2.28,1.83,1.69,1.82,1.82Z"/>
        <path class="cls-23" d="m1168.59,778.31c-1.68,32.59,2.26,69.12,0,101.15-.05.7-3.61,9.49-3.65,10.02-7.6,4.98-6.13-2.47-9.11-7.29,1.14.03,3.6-4.27,3.65-4.56,3.12-18.27-4.89-80.76-5.47-106.62,5.33,1.24,9.43,5.43,14.58,7.29Z"/>
        <path class="cls-39" d="m1259.72,989.73h-1.82c-14.1-11.96-29.38-6-30.98-8.2,4.21-11.04,1.77-14.62,1.82-22.78q15.49,15.49,30.98,30.98Z"/>
        <path class="cls-56" d="m1155.83,882.2c-.11-.17-2.87-1.63-3.65-1.82-.81-30.73,2.24-91.63,0-109.35h1.82c.58,25.86,8.59,88.35,5.47,106.62-.05.29-2.51,4.59-3.65,4.56Z"/>
        <path class="cls-34" d="m727.53,565.07c.54,54.75-1.57,109.36-1.82,164.03q-14.58,4.56-29.16,9.11c-2.06-1.58-5.06-2.22-7.29-3.65l1.82-51.94-2.73-2.73c-9.59,5.23-20.04,8.52-30.07,12.76-5.15,2.17-10.27,3.26-14.58,7.29-2.02-72.19.67-144.7,1.82-216.89q41.01,41.01,82.02,82.02Z"/>
        <path class="cls-33" d="m745.75,524.97v5.47c.09,65.61-.12,131.23,0,196.84.03,16.4-.06,32.81,0,49.21.15,38.24-2.71,77.47,3.65,114.82-3.3,1.91-3.42,3.51-3.65,3.65-5.68,3.34-12.19,6.39-18.23,9.11,2.16-40.61-2.08-81.61-1.82-122.11.11-17.69-.08-35.2,0-52.85.25-54.68,2.36-109.29,1.82-164.03-.17-17.35,2.36-35.92,1.82-52.85l16.4,12.76Z"/>
        <path class="cls-47" d="m689.25,734.57c-2.65-1.69-17.54-5.23-18.23-6.38-4.82-8.11,16.68-15.21-12.76-35.54,10.03-4.24,20.48-7.53,30.07-12.76l2.73,2.73-1.82,51.94Z"/>
        <path class="cls-47" d="m725.7,729.1c-.08,17.66.11,35.16,0,52.85-28.23,5.26-1.13-22.32-29.16-43.74q14.58-4.56,29.16-9.11Z"/>
        <path class="cls-47" d="m599.95,395.57c1.09,28.65-1.77,57.18-1.82,85.66l-12.76,9.11c.06-22.17-.05-44.35,0-66.52q-60.14-59.69-120.29-119.38c-.01-4.86.02-9.72,0-14.58,14.17,3.63,51.6,35.78,66.52,49.21,8.89,8,57.59,61.95,61.97,61.97,5.01.02.33-6.53,6.38-5.47Z"/>
        <path class="cls-47" d="m581.72,696.3c-.64,92.35,1.56,184.74-3.65,277.03l-7.29,5.47c-1.51-32.43-1.64-64.18-1.82-96.6-.36-61.95-.14-123.95,0-185.9,4.79.6,7.91.9,12.76,0Z"/>
        <path class="cls-18" d="m559.85,692.65c0,1.22,0,2.43,0,3.65-.16,58.78,1.53,117.94,1.82,176.79.01,3.04-.01,6.08,0,9.11q-27.34,10.02-54.68,20.05c.37-94.16-.54-188.34,0-282.5l40.1,6.38c2.77,25.52-8.59,66.04,12.76,66.52Z"/>
        <path class="cls-1" d="m507,902.25q27.34-10.02,54.68-20.05c.05,10.76,5.8,80.86-.91,83.84q-27.79-1.37-55.59-2.73c-1.89-20.27,1.74-40.95,1.82-61.06Z"/>
        <path class="cls-52" d="m561.67,546.85c-.35,21.19,2.42,43.22,1.82,64.7-.04,1.34-3.64,2.51-3.65,2.73-17.37-11.83-34.84-35.32-52.85-41.92.1-6.57-1.04-47.71.91-49.21q26.88,11.85,53.77,23.69Z"/>
        <path class="cls-4" d="m559.85,614.28c-.58,26.08.09,52.28,0,78.37-21.35-.48-9.99-41.01-12.76-66.52l-40.1-6.38c.09-15.79-.23-31.6,0-47.39,18.02,6.6,35.48,30.09,52.85,41.92Z"/>
        <path class="cls-10" d="m568.96,696.3c-.14,61.96-.36,123.95,0,185.9-4.48-3.12,1.99-10.74-7.29-9.11-.29-58.85-1.99-118.01-1.82-176.79,9.76-6.25,6.01-.39,9.11,0Z"/>
        <path class="cls-59" d="m765.8,774.67c-.34,35.84.25,71.69,0,107.53-2.55.65-1.7,1.78-1.82,1.82-4.59,1.77-10.31,4.82-14.58,7.29-6.35-37.35-3.5-76.58-3.65-114.82q10.02-.91,20.05-1.82Z"/>
        <path class="cls-3" d="m780.38,566.89c2.27,22.67,0,117.92,0,156.74v147.63c-2.04,1.53-5.67,6.28-5.47,9.11-3.29-.22-6.04,1.04-9.11,1.82.25-35.84-.34-71.69,0-107.53.17-17.62-.15-35.24,0-52.85.46-53.78,4.7-108.46,1.82-162.21q6.38,3.65,12.76,7.29Z"/>
        <path class="cls-47" d="m800.43,718.17c.09,18.08,1.83,36.41,1.82,54.68,0,20.73,1.57,57.01,0,72.9-.38,3.88.27,7.94,0,11.85-6.33,7.63-20.84,12.89-21.87,13.67v-147.63q10.02-2.73,20.05-5.47Z"/>
        <path class="cls-3" d="m813.19,730.93c-.14,13.23-1.62,26.69-1.82,40.1,0,.61,0,1.22,0,1.82h-9.11c0-18.27-1.73-36.59-1.82-54.68-.26-48.9.19-97.81,0-146.72,4.33-.22,12.19,12.01,12.76,14.58,1.56,7.08.23,123.8,0,144.89Z"/>
        <path class="cls-43" d="m778.56,552.31c2.88,6.2,1.26,8.99,1.82,14.58q-6.38-3.65-12.76-7.29c-.04-.82-4.92-6.03,0-16.4,1.76,1.55,10.64,8.47,10.94,9.11Z"/>
        <path class="cls-34" d="m880.62,778.31c3.04,10.15,2.8,43.38-16.4,36.45.09-9.12-.96-26.36,0-30.98,2.84-13.75,13.41-15.44,16.4-5.47Z"/>
        <path class="cls-7" d="m864.22,783.78c-.96,4.63.09,21.86,0,30.98-.05,5.33,4.28,10.22-3.65,14.58-9.84-11.04-6.43-24.75-10.94-38.27.74-4.85,6.53-14.74,7.29-20.05l7.29,12.76Z"/>
        <path class="cls-34" d="m767.62,543.2c-4.92,10.38-.04,15.58,0,16.4,2.87,53.75-1.37,108.43-1.82,162.21l-20.05,5.47c-.12-65.61.09-131.23,0-196.84,6.01.7,17.22,8.66,21.87,12.76Z"/>
        <path class="cls-47" d="m1132.14,756.44c.01,10.33,0,20.66,0,30.98l-3.65,1.82c-.84-2.53-9.86-7.62-12.76-9.11-4.98-2.56-17.1-4.23-20.05-5.47-16.7-7-32.94-15.17-51.03-18.23.23-6.06-.13-12.16,0-18.23.14-6.68-.08-13.37,0-20.05h42.83l3.65,38.27h41.01Z"/>
        <path class="cls-16" d="m1130.32,902.25c-3.68-2.72-6.49-7.24-9.11-10.94,3.89-1.05,6.23,5.25,7.29,2.73,2.03-4.83-1.53-88.37,0-104.8l3.65-1.82c.03,37.18,3.98,74.83,1.82,112.09-.08,1.46-3.44-.12-3.65,2.73Z"/>
        <path class="cls-49" d="m1389.12,503.1c-4.27,24.89-22.29,63.83-21.87,67.44-25.15,6.84,4.66-57.92,7.29-71.08q7.29,1.82,14.58,3.65Z"/>
        <path class="cls-47" d="m822.3,785.6c3.55,15.81,4.38,11.8,7.29-.91,2.74,12.23,2.96,25.14,5.47,37.36.4,6.98-18.85,29.03-22.78,29.16-1.46.05-.73-3.59-.91-3.65.27-24.9-.36-49.83,0-74.73,0-.61,0-1.22,0-1.82l10.94,14.58Z"/>
        <path class="cls-43" d="m811.37,772.84c-.36,24.9.27,49.82,0,74.73-1.92-.57-6.17-.67-9.11-1.82,1.57-15.89,0-52.18,0-72.9h9.11Z"/>
        <path class="cls-47" d="m765.8,774.67q-10.02.91-20.05,1.82c-.06-16.4.03-32.81,0-49.21l20.05-5.47c-.15,17.62.17,35.24,0,52.85Z"/>
      </g>
      <g>
        <g>
          <path class="cls-52" d="m1163.12,49.28c-8.84,35.02-19.09,69.23-29.16,103.89q-206.41-.91-412.81-1.82c-2.41-5.17-4.79-9.94-8.2-14.58-11.8-28.69-24.24-57.14-36.45-85.66l486.63-1.82Z"/>
          <path class="cls-52" d="m1108.45,237.01c-6.59,21.36-13.18,42.51-20.05,63.79h-297.08c-6.06-15.3-15.14-29.47-20.05-45.56-.82-2.68-6.1-17.41-4.56-18.23h341.73Z"/>
        </g>
        <g>
          <path class="cls-6" d="m104.21,953.28v3.65c0,36.47.8,72.93-1.82,109.35-7.29-.05-14.58.05-21.87,0v-102.98c-8.42-3.11-13.85.92-14.58.91s-1.62-4.11-14.58-.91c-7.4,46.2-22.85,71.85,14.58,51.94.01.23,1.54-.14,3.65,2.73v48.3c-10.32-.1-20.66.19-30.98,0l-1.82-114.82c22.31-.32,45.46,2.37,67.44,1.82Z"/>
          <path class="cls-55" d="m36.77,951.46l1.82,114.82c-4.25-.08-8.52.15-12.76,0-4.2-13.52,5.55-39.33-5.47-45.56l1.82-65.61c.87-.03-6.14-3.34,14.58-3.65Z"/>
          <path class="cls-6" d="m260.95,924.12q.91,71.08,1.82,142.16c-3.65,0-7.29,0-10.94,0v-136.69c.5-.17-3.39-.7,9.11-5.47Z"/>
          <path class="cls-42" d="m80.51,1066.28c-3.64-.03-7.29.04-10.94,0v-48.3c-2.1-2.87-3.63-2.51-3.65-2.73-.91-16.87.7-34.12,0-51.03.73,0,6.16-4.02,14.58-.91v102.98Z"/>
          <path class="cls-6" d="m175.29,949.63c5.55,26.85,12.19,53.45,18.23,80.19,2.72,12.06,6.75,23.96,7.29,36.45-3.65,0-7.29.01-10.94,0-3.44-13.33-19.46-108.23-23.69-112.09-1.58-1.45-11.8-1.28-14.58-.91v-1.82c4.85-3.97,18.11-1.06,23.69-1.82Z"/>
          <path class="cls-42" d="m290.11,913.18c-.93,8.31,1.77,6.92,1.82,7.29,6.83,48.38,9.75,97.59,18.23,145.81-3.04,0-6.08,0-9.11,0l-20.05-151.27c10.8-4.38,8.68-1.65,9.11-1.82Z"/>
          <path class="cls-55" d="m127.9,951.46c7.87-.34,15.81.24,23.69,0v1.82c-1.25.17-10.61,2.27-10.94,2.73-3.17,4.53,8.83,96.96,9.11,110.27-3.65-.02-7.29.01-10.94,0q-2.73-52.4-5.47-104.8c-2.92-8.11-16.21-3.38-29.16-4.56v-3.65c7.46-.19,15.94-1.49,23.69-1.82Z"/>
          <g>
            <path class="cls-11" d="m288.29,896.78c-13.42,13.18-33.77,4.44-10.94,18.23-5.28,2.2-11.19,7.12-16.4,9.11-12.5,4.77-8.61,5.29-9.11,5.47-2.39.83-17.37,4.32-27.34,7.29-11.06,3.29-41.03,11.64-49.21,12.76-5.59.76-18.84-2.14-23.69,1.82-7.88.24-15.82-.34-23.69,0l-37.36-1.82v-3.65c15.22-.92,15.46-7.07,16.4-7.29,8.58-2,91.91,3.67,147.63-25.52,30.63-16.04-28.38,2.53-45.56,5.47-69.03,11.8-138.86,11.81-208.68,10.94-.01-3.04.01-6.08,0-9.11l51.03-5.47c3.55,5.73,3.3-1.75,3.65-1.82,17.99-3.73,44.22-13.68,65.61-16.4,33.08-1.99,24.99-3.59,26.43-3.65,18.2-.65,126.52,1.58,141.25,3.65Z"/>
            <path class="cls-42" d="m127.9,951.46c-7.76.34-16.23,1.64-23.69,1.82-21.97.55-45.13-2.15-67.44-1.82-20.72.3-13.71,3.62-14.58,3.65-1.67.05-3.65-5.35-12.76-3.65-.83-6.41-2.12-10.89-9.11-9.11-.02-4.25.02-8.51,0-12.76,69.83.88,139.65.87,208.68-10.94,17.19-2.94,76.19-21.51,45.56-5.47-55.72,29.19-139.05,23.52-147.63,25.52-.95.22-1.18,6.37-16.4,7.29v3.65l37.36,1.82Z"/>
            <path class="cls-54" d="m51.35,915.01l-51.03,5.47c0-1.82,0-3.65,0-5.47q21.87-5.47,43.74-10.94c1.1,2.21,6.02,6.24,7.29,10.94Z"/>
            <path class="cls-53" d="m290.11,913.18c-.43.17,1.69-2.55-9.11,1.82-.83.34-2.83-.34-3.65,0-22.84-13.79-2.48-5.05,10.94-18.23,23.6,3.31,32.97,3.85,1.82,16.4Z"/>
            <path class="cls-10" d="m120.61,896.78c-21.39,2.72-47.62,12.67-65.61,16.4.92-4.08-1.61-6.25-3.65-9.11,23.1-4.72,45.82-5.88,69.26-7.29Z"/>
          </g>
        </g>
        <path class="cls-3" d="m51.35,904.07c2.04,2.86,4.57,5.04,3.65,9.11-.34.07-.09,7.55-3.65,1.82-1.27-4.69-6.19-8.73-7.29-10.94-.88-1.75-5.83-9.51-2.73-10.94,3.5,3.46,7.16,6.91,10.02,10.94Z"/>
        <g>
          <path class="cls-21" d="m5.79,747.33c44.82-3.72,220.94,7.2,235.11,5.47.42,2.53-.11,6.35-2.73,7.29-11.19,4.03-206.11-3.15-237.85-1.82,0-3.65,0-7.29,0-10.94h5.47Z"/>
          <path class="cls-19" d="m3.97,100.31c-.67,68.06,1.16,136.08,1.82,204.13.11,11.43,1.82,8.65,1.82,9.11.05,4.8-.05,9.67,0,14.58.28,30.11-1.95,60.83-1.82,91.13-5.15,4.3,2.38,16.81-5.47,16.4.11-111.77-.77-223.59,0-335.35,1.21.05,2.45-.11,3.65,0Z"/>
          <path class="cls-52" d="m250.01,466.65c-7.06-5.73-13.58-15.72-20.05-23.69-8.6-10.59-17.66-23.34-29.16-30.98-1.88-1.25-10.29-7.2-10.94-7.29.01-12.51-30.15-34.83-40.1-14.58-4.07-18.28-17.93-29.69-34.63-36.45-27.29-11.05-63.78-7.57-27.34-16.4,16.84-4.08,20.01,2.12,34.63,3.65,21.46,2.24,42.54,4.3,63.79,8.2,5.12-6.68-48.81-29.66-54.68-31.9-55.42-21.09-57.95-4.02-72.9-7.29-8.7-1.9-21.99-20.84-52.85-5.47-.66-68.05-2.49-136.07-1.82-204.13,15.11,1.37,214.06,159.67,246.05,177.7.19,62.88-.25,125.76,0,188.64Z"/>
          <g>
            <g>
              <path class="cls-26" d="m3.97,668.96v30.98H.32c-.01-10.33.01-20.66,0-30.98h3.65Z"/>
              <path class="cls-52" d="m162.53,665.31c7.83,3.06,15.62,3.34,16.4,3.65,13.88,5.4,27.89,11.52,41.92,16.4,21.49,7.49-2.32-3.06,16.4-1.82,4.5,5.09,8.89,6.15,14.58,9.11.04,9.36-1.5,18.28-1.82,27.34q-123.02-10.02-246.05-20.05v-30.98c.6-.08,1.24.1,1.82,0,16.7-2.95,33.9-3.56,50.12-9.11,8.44-2.05,1.48,10.67,7.29,12.76,1.44.52,21.04-11.05,29.16-1.82,13.24-14.91,30.17.37,45.56,1.82-16.99-21.12,10.71,10.63,24.6-7.29Z"/>
            </g>
            <g>
              <path class="cls-11" d="m3.97,699.94q123.02,10.02,246.05,20.05c-.02.46,2.42.37,1.82,9.11q-122.57-9.11-245.14-18.23l-.91,36.45H.32c-.02-15.8.02-31.59,0-47.39h3.65Z"/>
              <path class="cls-5" d="m251.84,729.1c-.43,6.32.31,12.8,0,19.14-.9,1.92-8.94,4.31-10.94,4.56-14.17,1.74-190.29-9.18-235.11-5.47l.91-36.45q122.57,9.11,245.14,18.23Z"/>
            </g>
          </g>
          <g>
            <path class="cls-52" d="m250.01,517.68c.08,13.36-.01,26.74,0,40.1-74.1-34.79-55.22-13.58,0,10.94,0,1.82,0,3.65,0,5.47-42.63-14.63-71.4-51.94-91.13-90.22,24.62-1.32,40.78-.02,57.41,20.96v-16.4c11.03,9.01,23.39,28.1,33.72,29.16Z"/>
            <path class="cls-52" d="m248.19,581.47c.02,10.55,1.8,21.9,1.82,32.81-10.57-5.77-22.18-27.88-34.63-21.87-37.23-53.83,3.28-19.4,32.81-10.94Z"/>
            <g>
              <path class="cls-48" d="m131.55,317.2c-1.78,11.7-13.68-6.92-40.1-.91,41.66,15.45,50.94,11.68,33.72,19.14-1.78.77-3.24,3.35-2.73,5.47-14.62-1.53-17.79-7.73-34.63-3.65-8.59-15.01-43.44-7.06-29.16-27.34,14.96,3.27,17.48-13.8,72.9,7.29Z"/>
              <path class="cls-52" d="m131.55,317.2c5.87,2.23,59.8,25.22,54.68,31.9-21.25-3.9-42.33-5.96-63.79-8.2-.51-2.12.95-4.7,2.73-5.47,17.23-7.45,7.94-3.69-33.72-19.14,26.42-6.01,38.32,12.62,40.1.91Z"/>
            </g>
            <g>
              <path class="cls-52" d="m250.01,472.12c.05,12.15-.07,24.3,0,36.45q-23.69-17.77-47.39-35.54c-6.69-25.48-25.43-41.61-29.16-48.3,28.09,20.08,47.72,22.25,50.12,23.69,3,1.81,17.08,24.72,26.43,23.69Z"/>
              <path class="cls-48" d="m250.01,557.78c0,3.65,0,7.29,0,10.94-55.22-24.52-74.1-45.73,0-10.94Z"/>
              <g>
                <path class="cls-45" d="m189.87,404.68c.65.1,9.06,6.04,10.94,7.29-9.47,5.95,20.68,34.75,29.16,30.98,6.47,7.97,12.99,17.96,20.05,23.69,0,1.82,0,3.65,0,5.47-9.35,1.03-23.43-21.89-26.43-23.69-2.4-1.45-22.03-3.62-50.12-23.69-7.72-13.81-5.04-20.57,12.76-20.05,1.2.04,2.48-.17,3.65,0Z"/>
                <path class="cls-3" d="m189.87,404.68c-1.17-.17-2.45.04-3.65,0-10.28-9.7-24.83-4.73-36.45-9.11-.22-1.75.37-3.82,0-5.47,9.95-20.25,40.11,2.07,40.1,14.58Z"/>
                <path class="cls-45" d="m229.96,442.96c-8.48,3.77-38.63-25.03-29.16-30.98,11.5,7.64,20.57,20.39,29.16,30.98Z"/>
              </g>
              <path class="cls-5" d="m153.42,588.76c.42.6,6.97,12.1,7.29,12.76.83,1.71,8,17.57,6.38,18.23-34.97-39.21,2.84,23.81-7.29,23.69-12.09-14.38-15.63-33.33-24.6-49.21,8.54-.38,3.03-12.72,7.29-16.4,2.01,2.44,6.34,4.28,10.94,10.94Z"/>
              <path class="cls-38" d="m142.48,577.83c-4.26,3.69,1.25,16.02-7.29,16.4-11.42-20.2-25.84-38.74-38.27-58.32,10.16,2.93,36.77,31.23,45.56,41.92Z"/>
              <g>
                <path class="cls-14" d="m58.64,309.91c-14.28,20.28,20.57,12.33,29.16,27.34-36.44,8.83.05,5.36,27.34,16.4-1.17,10.59,23.36,29.76,34.63,41.92,11.62,4.39,26.17-.58,36.45,9.11-17.8-.52-20.47,6.23-12.76,20.05,3.73,6.68,22.47,22.82,29.16,48.3q23.69,17.77,47.39,35.54c.02,3.04-.02,6.08,0,9.11-10.33-1.06-22.69-20.16-33.72-29.16v16.4c-16.63-20.98-32.79-22.28-57.41-20.96,19.73,38.28,48.5,75.59,91.13,90.22.02,9.27-1.82,6.91-1.82,7.29-29.52-8.46-70.04-42.9-32.81,10.94,6.97,10.07,9.23,19.25,34.63,25.52.04,14.75-1.83,20.77-1.82,21.87l-22.78-21.87c-2.58,10.94,12.56,23.32,6.38,27.34-1.76-2.54-3.66-4.78-5.47-7.29-9.53-13.25-12.4-29.09-30.98-23.69-8.6-6.13-16.32-11.17-25.52-16.4-5.42-3.08-11.06-5.86-16.4-9.11-4.6-6.65-8.93-8.5-10.94-10.94-8.8-10.69-35.4-38.99-45.56-41.92-9.55-15.04-43.56-77.1-55.59-82.02-7.68-3.14-18.22-1.01-20.05-1.82-7.31-3.24,4.94-20.79-13.67-16.4-.01-4.72-1.8-10.97-1.82-16.4-.13-30.29,2.11-61.02,1.82-91.13q13.67-5.01,27.34-10.02l-27.34-4.56c0-.46-1.71,2.32-1.82-9.11,30.86-15.38,44.16,3.57,52.85,5.47Z"/>
                <g>
                  <path class="cls-52" d="m248.19,639.8c.03,7.42,1.78,15.81,1.82,23.69-13.32,2.3-9.71-5.95-18.23-18.23,6.18-4.02-8.96-16.4-6.38-27.34l22.78,21.87Z"/>
                  <g>
                    <path class="cls-45" d="m43.15,328.14c1.09-.19,21.15,2.8,21.87,3.65,10.88,12.7-55.94,2.28-21.87-3.65Z"/>
                    <path class="cls-31" d="m19.46,302.62c4.8-.04,14.28.4,18.23,1.82,19.64,7.09.21,11.37-18.23-1.82Z"/>
                  </g>
                  <g>
                    <path class="cls-15" d="m226.32,637.97c-11.16-6.71-20.37-16.13-30.98-23.69,18.58-5.39,21.46,10.45,30.98,23.69Z"/>
                    <path class="cls-13" d="m169.82,597.88l-9.11,3.65c-.32-.66-6.87-12.15-7.29-12.76,5.34,3.25,10.98,6.03,16.4,9.11Z"/>
                  </g>
                  <g>
                    <path class="cls-45" d="m250.01,614.28c0,1.22,0,2.43,0,3.65-25.4-6.26-27.66-15.44-34.63-25.52,12.45-6.01,24.06,16.1,34.63,21.87Z"/>
                    <path class="cls-52" d="m7.61,328.14c-.05-4.92.05-9.78,0-14.58l27.34,4.56q-13.67,5.01-27.34,10.02Z"/>
                    <path class="cls-14" d="m149.77,390.1c.37,1.64-.22,3.72,0,5.47-11.27-12.16-35.8-31.33-34.63-41.92,16.7,6.76,30.56,18.17,34.63,36.45Z"/>
                    <path class="cls-31" d="m143.39,459.36q21.42,10.48,42.83,20.96c-1.26,3.94-41.77-13.09-42.83-20.96Z"/>
                    <path class="cls-5" d="m178.02,586.94q9.57,5.92,19.14,11.85c-.31,2.75-18.34-4.94-19.14-11.85Z"/>
                    <path class="cls-5" d="m199.89,601.52c5.6-2.19,9.03,7.37,1.82,1.82-.17-.13-4.74-.68-1.82-1.82Z"/>
                  </g>
                </g>
              </g>
            </g>
            <g>
              <path class="cls-50" d="m7.61,435.67c.22,77.79-1.13,155.51-1.82,233.29-.59.1-1.23-.08-1.82,0H.32c-.09-77.76-.08-155.53,0-233.29,7.85.41.32-12.1,5.47-16.4.02,5.43,1.81,11.68,1.82,16.4Z"/>
              <path class="cls-46" d="m96.92,535.91c12.44,19.59,26.85,38.12,38.27,58.32,8.98,15.88,12.52,34.83,24.6,49.21,10.13.11-27.68-62.91,7.29-23.69,1.62-.65-5.55-16.52-6.38-18.23l9.11-3.65c9.2,5.23,16.92,10.27,25.52,16.4,10.61,7.57,19.83,16.98,30.98,23.69,1.8,2.51,3.71,4.75,5.47,7.29,8.52,12.28,4.91,20.53,18.23,18.23.05,9.33,1.78,19.45,1.82,29.16-5.69-2.96-10.08-4.02-14.58-9.11-.57-.64,3.88-3.64.91-7.29-1.75-2.15-43.7-20.48-51.03-21.87,6.17,13.25,37.81,20.55,33.72,30.98-14.03-4.89-28.04-11.01-41.92-16.4-23.41-33.15-89.4-25.63-120.29-73.81-37.83-101.37-17.33-.07,13.67,26.43,22.52,19.25,55.26,25.49,82.02,36.45,6.19,2.53,7.69,7.09,8.2,7.29-13.9,17.92-41.6-13.83-24.6,7.29-15.39-1.45-32.32-16.73-45.56-1.82-8.12-9.22-27.72,2.34-29.16,1.82-5.81-2.09,1.15-14.81-7.29-12.76-16.22,5.55-33.43,6.16-50.12,9.11.7-77.78,2.04-155.5,1.82-233.29,18.61-4.39,6.36,13.16,13.67,16.4,1.83.81,12.36-1.32,20.05,1.82,12.03,4.92,46.04,66.97,55.59,82.02Z"/>
              <path class="cls-25" d="m178.93,668.96c-.78-.3-8.57-.58-16.4-3.65-.51-.2-2.01-4.76-8.2-7.29-26.76-10.96-59.5-17.2-82.02-36.45-31-26.5-51.5-127.79-13.67-26.43,30.89,48.18,96.88,40.66,120.29,73.81Z"/>
              <path class="cls-46" d="m237.25,683.54c-18.73-1.24,5.08,9.31-16.4,1.82,4.09-10.43-27.54-17.74-33.72-30.98,7.33,1.39,49.28,19.72,51.03,21.87,2.97,3.65-1.48,6.65-.91,7.29Z"/>
            </g>
          </g>
        </g>
        <g>
          <path class="cls-6" d="m658.27,692.65c29.44,20.33,7.94,27.43,12.76,35.54.68,1.15,15.57,4.69,18.23,6.38,2.23,1.42,5.23,2.07,7.29,3.65,28.03,21.42.93,49,29.16,43.74-.26,40.5,3.98,81.51,1.82,122.11.4,2.15-.75,3.82-1.82,5.47-1.45,2.22-21.65,8.33-39.19,34.63-7.54-3.67-38.49,10.82-41.01,12.76-2.37-43.31,2.38-87.12,1.82-130.31-.41-31.58-8.26-78.86-7.29-83.84.56-2.88,5.03-7.65,7.29-10.02,4.51-4.72,10.99-3.17,9.11-6.38-.88-1.51-5.9.47-10.94-4.56-1.17-8.17-1.59-13.6-1.82-21.87,4.31-4.03,9.43-5.12,14.58-7.29Z"/>
          <path class="cls-51" d="m713.86,787.43c2.04-.83,5.57.73,6.38,2.73,2.01,4.99,3.56,102.44,1.82,107.53-7.36,21.6-16.43-30.01-3.65-38.27-12.09.37-8.06-70.56-4.56-71.99Z"/>
          <path class="cls-10" d="m647.33,732.75c-2.94-3.66-1.28-7.14-1.82-10.94,5.04,5.02,10.05,3.04,10.94,4.56,1.87,3.21-4.61,1.66-9.11,6.38Z"/>
        </g>
        <g>
          <path class="cls-60" d="m822.3,785.6l-10.94-14.58c.2-13.41,1.68-26.87,1.82-40.1,4.5.69,5.2-3.37,5.47-3.65,4.28-4.46,9.08-11.49,10.94-12.76,4.38,13.52,28.25,45.48,9.11,53.77-1.44,47.81,1.98,14.72-10.94,7.29,10.16-42.46-19.27-51.36-5.47,10.02Z"/>
          <path class="cls-55" d="m838.7,710.88c1.65-.2,3.81-.18,5.47,0,7.5.83,14.5,4.23,18.23,10.94-.06.78,3.12,4.37,1.82,15.49-.23,1.99-5.37,2.93-5.47,3.65-.86,6.1-.05,17.75-1.82,30.07-.76,5.31-6.55,15.2-7.29,20.05-4.72,30.87.84,106.11-14.58,30.98-2.51-12.22-2.72-25.13-5.47-37.36-2.91,12.71-3.74,16.72-7.29.91-13.81-61.38,15.63-52.49,5.47-10.02,12.91,7.43,9.5,40.52,10.94-7.29,19.14-8.29-4.73-40.25-9.11-53.77,2.56-1.75,5.96-3.26,9.11-3.65Z"/>
          <path class="cls-6" d="m844.17,687.18c9.38,4.44,1.96,8.48,1.82,9.11l-5.47,3.65c-.06-.49-1.74,2.76-3.65-9.11,4.54-4.15,7.08-3.3,7.29-3.65Z"/>
          <path class="cls-10" d="m844.17,710.88c-1.66-.18-3.82-.2-5.47,0-1.12-7.18,1.89-10.39,1.82-10.94l5.47-3.65c-1.12,5.01-4.85,10.14-1.82,14.58Z"/>
        </g>
        <path class="cls-55" d="m909.78,718.17c1.05,6.19,2.43,17.53,9.11,23.69-1.4,8.82-1.77,6.92-1.82,7.29-1.21,8.58-1.04,11.73,0,20.05-4.48,11.42-8.63,28.13-10.94,41.92l-10.94,19.14c-3.14-13.58-4.39-39.45-7.29-49.21-.54-1.83-5.34-4.22-5.47-4.56-1.16-3.1-2.83-6.07-5.47-8.2,8.48-15.41,1.45-24.86,3.65-35.54,2.08-10.12,15.42-16.25,16.4-19.14.8-2.33-.18-17.65,0-24.6,15.4-8.76,10.14,13.75,12.76,29.16Z"/>
        <path class="cls-6" d="m1017.32,730.93c-.68,8.4-4.11,18.71-5.47,27.34-.97,6.16-2.54,12.13-3.65,18.23-.74,4.09-1.05,8.61-1.82,12.76-2.02,10.89-5.22,21.63-5.47,32.81-9.22-9.68-5.61-35.42-5.47-47.39.12-10.24-.24-19.95,1.82-30.07-14.96,11.61-7.16-15.15,10.94-1.82-1.57-8.24,1.34-16.91,1.82-24.6,3.78,2.96,7.95.95,9.11,2.73.28.43-1.24,2.78-1.82,10.02Z"/>
        <path class="cls-19" d="m964.46,740.04c2.84,7.76,3.11,24.85,0,32.81-10.82-9.54-4.79-26.73-17.31-41.92l-.91,3.65c-.16,9.54-4.09,17.11,3.65,23.69-.22.48-6.43-1.4-5.47,7.29-14.78,1.99-10.27-25.35-7.29-34.63.46-1.43,6.64-15.37,8.2-14.58,2.5,8.67,10.15,21.15,19.14,23.69Z"/>
        <g>
          <path class="cls-52" d="m1252.43,1002.49c-6.09,2.56-11.94,5.16-18.23,7.29-3.04,1.03-4.86,2.76-9.11,3.65-9.08,1.89-19.87,1.82-29.16,1.82-4.49-5.97,0-8.66,0-9.11,6.74,6.37,22.76-7.56,30.07-9.11,4.11-.87,20.3,4.62,25.52-1.82,5.84,4.01.8,6.94.91,7.29Z"/>
          <path class="cls-52" d="m1188.64,969.68c-1.45-.17-22.21,3.8-29.16,1.82-1.91-9.26.03-6.93,0-7.29,11.5.06,31.64-13.61,29.16,5.47Z"/>
          <g>
            <path class="cls-40" d="m1197.75,678.07c-.46,12.21,5.51,17.55,7.29,32.81-10.25-.9-2.25,4.16-3.65,8.2-7.28,21.14-31.94,40.05-54.68,37.36-2.95-18.61-8.83-28.71-3.65-51.03,1.95-8.39,8.47-18.36,14.58-24.6.63-4.92-3.6-.37-3.65-.91-.15-1.78-1.75-1.93-1.82-3.65l24.6-21.87q10.48,11.85,20.96,23.69Z"/>
            <path class="cls-6" d="m1205.04,710.88c1.2,10.32-.11,21.53,1.82,31.9q-10.02,19.59-20.05,39.19c-5.08-.78-8.85-.26-18.23-3.65-5.15-1.86-9.25-6.05-14.58-7.29h-1.82c-1.6-12.65-5.17-12.73-5.47-14.58,22.73,2.68,47.39-16.22,54.68-37.36,1.39-4.04-6.6-9.1,3.65-8.2Z"/>
          </g>
          <path class="cls-55" d="m1248.78,725.46c3.22,16.48,9.41,32.7,12.76,49.21-.06,9.72.07,19.44,0,29.16-20.24-.75-12.85-4.44-12.76-7.29,4.29-4.29-1.3-32.5-5.47-30.98-3.44-14.75-10.81-24.76-14.58-40.1q6.38-2.73,12.76-5.47c.11.44,6.05,5.37,7.29,5.47Z"/>
          <path class="cls-6" d="m1198.66,552.31c37.71-5.23,27.34,61.68,24.6,64.7-3.26,3.6-7.27-9.35-10.02,11.85-3.33-6.83-17.12,2.44-19.14-.91-2.55-4.24,3.96-12.35,3.65-14.58-.41-2.86-31.18-23.7-14.58-51.03,2.26-3.72,11.58-9.48,15.49-10.02Z"/>
          <g>
            <g>
              <path class="cls-42" d="m1246.96,794.72c-.7,29.75-17.82,104.13-18.23,164.03-.05,8.16,2.39,11.74-1.82,22.78,1.61,2.2,16.89-3.75,30.98,8.2,15.6,13.23,7.28,18.74,7.29,20.05-15.56,1.3-11.54-3.34-12.76-7.29-.11-.35,4.92-3.28-.91-7.29-5.21,6.44-21.41.95-25.52,1.82-7.32,1.55-23.33,15.49-30.07,9.11,0-10.73-.15-20.35,1.82-30.98,1.61-3.45-7.42-5.27-9.11-5.47,2.48-19.08-17.67-5.41-29.16-5.47-1.27-13.95-1.31-24.43,0-38.27.37-3.86,4.19-16.99,5.47-36.45.03-.53,3.6-9.32,3.65-10.02,2.26-32.03-1.68-68.56,0-101.15,9.38,3.39,13.15,2.86,18.23,3.65,69.13,10.67,53.27-15.23,56.5-16.4,2.38,10.21,3.9,18.5,3.65,29.16Z"/>
              <path class="cls-6" d="m1199.57,949.63c-1.03-5.02-6.51-8.15-7.29-10.94-6.48-23.18-3.3-50.51-5.47-75.64-.23-2.62-11.39-56.06-3.65-43.74,5.38,8.56,18.49,56.91,20.05,69.26,1.9,15.09,5.49,58.46-3.65,61.06Z"/>
              <path class="cls-28" d="m1199.57,949.63c4.64,22.68-12.8,8.59-7.29-10.94.78,2.79,6.26,5.91,7.29,10.94Z"/>
              <path class="cls-4" d="m1248.78,796.54c0-.13-2.02.45-1.82-1.82.25-10.66-1.27-18.95-3.65-29.16,4.17-1.52,9.75,26.69,5.47,30.98Z"/>
            </g>
            <g>
              <path class="cls-44" d="m1230.56,705.41c-3.33,1.1-7.09.64-7.29,2.73,3.21,5.25,4.03,11.48,5.47,17.31,3.78,15.34,11.14,25.34,14.58,40.1-3.23,1.17,12.63,27.07-56.5,16.4q10.02-19.59,20.05-39.19c-1.93-10.37-.62-21.57-1.82-31.9-1.78-15.26-7.75-20.6-7.29-32.81.27-7.03,2.56-13.76,5.47-20.05,12.95,4.36-9.07,52.59,27.34,47.39Z"/>
              <path class="cls-44" d="m1248.78,725.46c-1.24-.09-7.18-5.03-7.29-5.47-.99-4,.7-12.19,0-17.31-.89-1.69-8.98,2.09-10.94,2.73-36.41,5.2-14.39-43.03-27.34-47.39,20.31-43.94,36.07-4.07,41.92,28.25.39,2.17-2.52,7.59,3.65,39.19Z"/>
              <path class="cls-37" d="m1241.49,719.99q-6.38,2.73-12.76,5.47c-1.44-5.83-2.26-12.06-5.47-17.31.2-2.1,3.96-1.64,7.29-2.73,1.95-.64,10.04-4.42,10.94-2.73.7,5.13-.99,13.31,0,17.31Z"/>
            </g>
          </g>
        </g>
        <g>
          <path class="cls-59" d="m924.37,727.28c3-.15,6.36.83,9.11,1.82,1.59.57,2.17,1.69,3.65,1.82-2.98,9.28-7.49,36.62,7.29,34.63.77,27.6-.59,19.29-10.94-2.73h-3.65c1.08,13.77-1.31,27.32-1.82,41.01-7.61-1.6-8.53-24.61-9.11-32.81-.51-7.19,1.63-15.36-1.82-21.87.05-.37.42,1.53,1.82-7.29,3.16-19.89,5.4-13.71,5.47-14.58Z"/>
          <path class="cls-54" d="m922.54,716.34c-.59,8.48,1.87,10.38,1.82,10.94-.07.87-2.31-5.3-5.47,14.58-6.69-6.17-8.06-17.5-9.11-23.69l12.76-1.82Z"/>
          <path class="cls-10" d="m918.9,771.02c-1.58.2-1.65-.46-1.82-1.82-1.04-8.31-1.21-11.47,0-20.05,3.45,6.51,1.31,14.68,1.82,21.87Z"/>
        </g>
        <g>
          <path class="cls-2" d="m1044.66,738.22c-.13,6.07.23,12.17,0,18.23-.11,3.03.17,6.09,0,9.11-.32,5.83.75,13.11,0,18.23-1.03,7.08-4.22,14.59-9.11,20.05-1.77-5.3-1.28-6.29-1.82-10.94-2.53-21.63,10.11-38.7-21.87-34.63,1.36-8.63,4.79-18.94,5.47-27.34,2.61-.95,6.9-3.17,9.11-3.65,3.35-.73,7.14,1.29,10.94-1.82,1.66,4.61,3.98,9.13,7.29,12.76Z"/>
          <path class="cls-19" d="m1031.9,705.41c.45,5.24,3.52,14.61,5.47,20.05-3.79,3.12-7.58,1.1-10.94,1.82-6.15-9.1-4.92-13.1-5.47-21.87h10.94Z"/>
          <path class="cls-6" d="m1010.03,831.17h-7.29c.21-.31,1.53-5.61,1.82-7.29,1.8,2.06,2.09-7.28,5.47,7.29Z"/>
          <path class="cls-53" d="m1033.72,792.89c-15.93,7.45-22.9.02-25.52-16.4,1.11-6.1,2.68-12.07,3.65-18.23,31.98-4.08,19.34,13,21.87,34.63Z"/>
        </g>
        <path class="cls-30" d="m949.88,758.26c-7.74-6.58-3.8-14.16-3.65-23.69,3.84,17.73,8.93,12.21,3.65,23.69Z"/>
        <g>
          <path class="cls-20" d="m1152.19,913.18c.27,1.35,5.88,8.73,7.29,12.76-1.31,13.85-1.27,24.33,0,38.27.03.36-1.91-1.97,0,7.29.6,2.9-1.2,11.26.91,12.76,13.83-1.64,30.92,6.61,37.36-9.11-1.98,10.64-1.82,20.25-1.82,30.98,0,.46-4.49,3.14,0,9.11-6.02,15.21,29.78,14.33,38.27,9.11,6.99,9.26,19.18,22.58,21.87,32.81-2.47.84-9.79,6.07-10.94,9.11-62.58.04-125.15-.03-187.73,0-14-36.9-27.4-52.67-29.16-94.77-.1-2.33,1.83-1.69,1.82-1.82,35.98,3.87,73.6-4.87,100.24-5.47.08,10.41-2.29,76.05,0,79.28.95,1.34,13.11,1.31,13.67.91,3.27-2.32.61-69.94.91-80.19.22-7.52,1.5-15.89,1.82-23.69.76-18.3-3.18-30.04,5.47-27.34Z"/>
          <path class="cls-28" d="m743.93,1017.07c-.17,6.5,4.41,39.19,1.82,42.83-1.78,2.51-17.08-2.09-23.69,6.38-27.34-.01-54.68.02-82.02,0l-1.82-98.42c2.46-3.23,3.54-8.05,7.29-10.94,2.52-1.94,33.47-16.43,41.01-12.76,17.54-26.3,37.74-32.41,39.19-34.63,17.42,16.5-10.2,105.79,18.23,107.53Z"/>
          <path class="cls-33" d="m1019.14,1015.25c1.19.32,3.04-.78,5.47,2.73v48.3c-63.18.03-126.37.02-189.55,0q7.29-24.6,14.58-49.21c25.17-1.38,160.67-4.17,169.5-1.82Z"/>
          <path class="cls-28" d="m625.46,984.26v82.02c-12.15,0-24.3,0-36.45,0-4.1-4.37-3.72-8.85-4.56-9.11-.65-.2-5.34,7.69-6.38,9.11-29.77-.02-59.54.03-89.31,0,2.9-2.26,6.01-5.43,9.11-7.29,27.67-16.59,46.49-26.53,74.73-45.56,3.99-2.69,7.01-6.4,10.94-9.11,5.29-3.66,8.84-7.43,14.58-10.94,5.15-3.15,21.65-5.01,23.69-10.94l3.65,1.82Z"/>
          <path class="cls-28" d="m1028.25,971.51c1.76,42.11,15.16,57.87,29.16,94.77-10.94,0-21.87,0-32.81,0v-48.3c-2.43-3.51-4.28-2.42-5.47-2.73v-43.74c.46.02,3.08-4.5,9.11,0Z"/>
          <path class="cls-28" d="m640.04,1066.28c-4.86,0-9.72,0-14.58,0v-82.02c-.42-4.35,6.55-8.28,12.76-16.4l1.82,98.42Z"/>
          <path class="cls-28" d="m849.64,1017.07q-7.29,24.6-14.58,49.21c-4.25,0-8.51,0-12.76,0-1.08-6.35,15.28-35.48,14.58-37.36-1.09-2.94-5.22,2.04-5.47,0-4.32-35.7,7.83-20.3,18.23-37.36,6.05,8.35-13.01,20.13,0,25.52Z"/>
          <path class="cls-20" d="m1308.93,1040.76c11.88,7.9,24.06,15.86,34.63,25.52-17.62.01-35.24-.01-52.85,0l-1.82-9.11c3.12-.6,3.44-3.48,3.65-3.65,2.96-2.36,6.62-10.67,9.11-14.58.42.27,5.87.88,7.29,1.82Z"/>
          <path class="cls-28" d="m1267.01,1055.34c4.31-.66,18.92-.86,21.87,1.82l1.82,9.11c-15.19.01-30.38,0-45.56,0,1.15-3.04,8.47-8.27,10.94-9.11,2.17-.74,8.01-1.37,10.94-1.82Z"/>
          <path class="cls-28" d="m589.01,1066.28c-3.65,0-7.29,0-10.94,0,1.03-1.43,5.72-9.32,6.38-9.11.84.26.45,4.74,4.56,9.11Z"/>
          <path class="cls-33" d="m1006.38,858.51c-3.04,6.01.18,53.25,1.82,55.59,1.67,2.37,15.79.89,18.23-2.73.03,1.64,2.59-6.46,3.65,30.98.26,9.09-.36,18.25,0,27.34,0,.13-1.92-.5-1.82,1.82-6.03-4.5-8.66.02-9.11,0-48.98-2.14-97.72-2.19-146.72-1.82,2.92-3.86,2.56-10.4,2.73-10.94,4.66-14.47,11.09-29.08,15.49-43.74l104.8-.91c-.02-9.34-1.62-17.12,4.56-24.6h-71.08c.04-8.89-2.42-18.67-2.73-27.34-.04-1.17,3.66-10.36,3.65-10.94l69.26-1.82c.25.65,4.92-4.18,7.29,9.11Z"/>
          <path class="cls-28" d="m1128.49,940.52c3.15,6.76,1.76,16.02,1.82,23.69-26.65.6-64.26,9.34-100.24,5.47-.36-9.09.26-18.24,0-27.34l98.42-1.82Z"/>
          <path class="cls-28" d="m1144.9,964.21c-.3,10.25,2.36,77.87-.91,80.19-.56.4-12.72.43-13.67-.91-2.29-3.23.08-68.87,0-79.28,4.86-.11,9.72.08,14.58,0Z"/>
          <path class="cls-28" d="m1152.19,905.89c.24,2.36-.42,5.19,0,7.29-8.64-2.7-4.71,9.04-5.47,27.34h-16.4c.61-10.24-.84-20.79,0-30.98,9.7,4.77,12.65-3.67,21.87-3.65Z"/>
          <path class="cls-20" d="m1197.75,975.15c-6.45,15.72-23.54,7.48-37.36,9.11-2.11-1.5-.31-9.86-.91-12.76,6.95,1.98,27.71-1.99,29.16-1.82,1.69.2,10.73,2.02,9.11,5.47Z"/>
          <path class="cls-3" d="m1267.01,1055.34c-2.92.45-8.77,1.09-10.94,1.82-2.7-10.23-14.88-23.54-21.87-32.81-.43-.57.28-4.86-9.11-10.94,4.25-.89,6.07-2.61,9.11-3.65q16.4,22.78,32.81,45.56Z"/>
          <path class="cls-20" d="m1225.09,1013.42c9.39,6.08,8.68,10.37,9.11,10.94-8.5,5.22-44.29,6.09-38.27-9.11,9.29,0,20.08.07,29.16-1.82Z"/>
          <path class="cls-33" d="m1146.72,940.52c-.32,7.8-1.6,16.18-1.82,23.69-4.86.08-9.72-.11-14.58,0-.06-7.67,1.32-16.93-1.82-23.69h18.23Z"/>
          <path class="cls-28" d="m747.58,969.68c-.1,15.3-3.25,32.06-3.65,47.39-28.42-1.75-.8-91.04-18.23-107.53,1.07-1.64,2.22-3.31,1.82-5.47,6.04-2.72,12.54-5.77,18.23-9.11.1,24.75,1.99,50.02,1.82,74.73Z"/>
          <path class="cls-28" d="m767.62,924.12c-3.61,6.11-6.84,12.39-9.11,19.14,1.44,1.86,21.25.75,25.52.91,4.85.18,9.73-.11,14.58,0,3.64.08,7.29,0,10.94,0,3.04,0,6.08,0,9.11,0h41.92c-4.34,18.9-2.37,15.86,14.58,14.58-.17.54.19,7.08-2.73,10.94,49-.37,97.73-.32,146.72,1.82v43.74c-8.83-2.35-144.33.44-169.5,1.82-13.01-5.38,6.05-17.17,0-25.52,2.31-3.79,8.58-19.02,4.56-21.87h-106.62c.17-24.71-1.72-49.97-1.82-74.73.22-.13.35-1.74,3.65-3.65,4.27-2.47,9.99-5.52,14.58-7.29,6.91-1.13,2.41,22.09,3.65,40.1Z"/>
          <g>
            <path class="cls-20" d="m849.64,991.55c-10.4,17.06-22.55,1.67-18.23,37.36.25,2.04,4.38-2.94,5.47,0,.7,1.88-15.66,31.02-14.58,37.36-18.83,0-37.67,0-56.5,0q2.28-11.85,4.56-23.69l-11.85,23.69c-12.15,0-24.3,0-36.45,0,6.61-8.47,21.91-3.86,23.69-6.38,2.58-3.65-1.99-36.33-1.82-42.83.4-15.33,3.54-32.09,3.65-47.39h106.62c4.03,2.85-2.24,18.08-4.56,21.87Z"/>
            <path class="cls-28" d="m765.8,1066.28c-2.43,0-4.86,0-7.29,0l11.85-23.69q-2.28,11.85-4.56,23.69Z"/>
            <path class="cls-28" d="m823.21,991.55c3.62.5,3.76,34.08,2.73,35.54-10.8,15.42-23.45-20.41-2.73-35.54Z"/>
          </g>
          <path class="cls-3" d="m1301.64,1038.94c-2.5,3.91-6.15,12.22-9.11,14.58-5.69-42.48,2.93-18.66,9.11-14.58Z"/>
          <path class="cls-20" d="m1121.2,891.31c2.62,3.7,5.44,8.21,9.11,10.94-.17,2.41.2,4.89,0,7.29-.84,10.19.61,20.75,0,30.98h-1.82l-98.42,1.82c-1.06-37.45-3.61-29.34-3.65-30.98-.11-5.2,2.14-10.22,1.82-20.05,27.51-2.54,81.48,5.78,87.48-5.47.16.35,2.09.7,5.47,5.47Z"/>
          <path class="cls-28" d="m860.58,829.34c7.37,8.27,13.06,2.6,13.67,14.58l29.16,1.82c2.16-1.82.37-17.61.91-21.87,9.79.9,12.92,9.12,23.69,10.94,0,13.99,1.8,15.58,1.82,16.4.01.58-3.69,9.76-3.65,10.94l-21.87,3.65c.05-.82-3.91-7.45-.91-16.4-33.5,8.81-40.05,21.96-2.73,30.98-.73,7.03-1.79,8.65-1.82,9.11-12.93,1.83-34.63-1.94-36.45-1.82-.98-8.72,1.33-40.27,0-42.83-.27-.51-10.67-4.16-10.94-3.65-.78,1.49-.25,29.45,0,33.72-6.49,0-12.25,3.76-18.23,5.47-30.65,8.75-32.01,13.32-33.72,12.76-.82-.27-5.46-13.23-5.47-16.4-1.06,2.77-2.95,4.87-4.56,7.29-15.41,1.67-13.76-3.59-14.58-3.65-.2-2.83,3.43-7.58,5.47-9.11,1.03-.78,15.54-6.04,21.87-13.67.27-3.91-.38-7.97,0-11.85,2.94,1.15,7.19,1.25,9.11,1.82.18.05-.55,3.7.91,3.65,3.93-.14,23.18-22.19,22.78-29.16,15.42,75.12,9.86-.11,14.58-30.98,4.5,13.52,1.09,27.23,10.94,38.27Z"/>
          <path class="cls-28" d="m926.19,862.15c.32,8.66,2.78,18.45,2.73,27.34h71.08c-6.17,7.49-4.58,15.27-4.56,24.6l-104.8.91c-4.4,14.66-10.83,29.27-15.49,43.74-16.95,1.28-18.92,4.32-14.58-14.58,9.39-40.92,38.83-38.17,40.1-41.01,2.23-5.01-1.88-12.98-1.82-13.67.04-.46,1.09-2.08,1.82-9.11,1.99-19.09,3.6-13.76,3.65-14.58l21.87-3.65Z"/>
          <path class="cls-28" d="m1031.9,876.73c-6.62,1.74-4,3.42-3.65,14.58.31,9.83-1.93,14.85-1.82,20.05-2.43,3.63-16.56,5.1-18.23,2.73-1.65-2.34-4.86-49.58-1.82-55.59,8.31,3.27,6.32-15.81,3.65-27.34-3.38-14.57-3.66-5.23-5.47-7.29-.13-.15-3.45-1.62-3.65-1.82.25-11.18,3.45-21.92,5.47-32.81,1.42,6.83,20.45,38.76,20.05,41.01-1.14,6.33-8.37-1.77-12.76,7.29-.44.9-.81,19.45,0,20.05,5.96,4.42,13.35-8.71,18.23,19.14Z"/>
          <path class="cls-3" d="m999.09,834.81c.57,4.64-.84,12.42,0,14.58l-69.26,1.82c-.02-.82-1.83-2.41-1.82-16.4,4.29.72,67.66.96,71.08,0Z"/>
          <path class="cls-20" d="m1010.03,831.17c2.67,11.53,4.66,30.61-3.65,27.34-2.37-13.29-7.04-8.46-7.29-9.11-.84-2.16.57-9.94,0-14.58,6.09-1.71,2.7-2.26,3.65-3.65h7.29Z"/>
          <path class="cls-20" d="m833.24,880.38c.85,6.23-1.72,5.2-1.82,5.47-11.59-.55-24.26,39.86-21.87,58.32-3.64,0-7.3.08-10.94,0-1.38-15.69,4.83-29.46,10.02-43.74-15.75,3.61-20.49,29.83-24.6,43.74-4.27-.16-24.07.95-25.52-.91,2.27-6.75,5.5-13.03,9.11-19.14.31-.53,7.71-5.53,9.11-8.2,4.7-8.95,6.25-22.08,12.76-31.9,1.61-2.42,3.5-4.52,4.56-7.29,0,3.18,4.65,16.13,5.47,16.4,1.71.57,3.06-4.01,33.72-12.76Z"/>
          <path class="cls-17" d="m851.46,874.91c.31,5.3,1.54,10.79,1.82,16.4.34,6.6,5.48,10.32,5.47,10.94-.03,1.87-7.38,17.58-9.11,21.87-2.66,6.58-5.74,13.07-7.29,20.05h-23.69c-1.48-20.61,5.21-39.57,12.76-58.32.11-.27,2.67.76,1.82-5.47,5.98-1.71,11.73-5.46,18.23-5.47Z"/>
          <path class="cls-20" d="m898.85,889.49c-.05.69,4.05,8.66,1.82,13.67-1.26,2.84-30.7.09-40.1,41.01h-18.23c1.55-6.97,4.63-13.47,7.29-20.05,4.5.2,23.22-3.87,21.87-8.2-1.41-4.51-12.32,14.32-9.11-16.4l-3.65,2.73c0-.61-5.13-4.33-5.47-10.94,2.43.87,8.62-3.61,9.11-3.65,1.82-.12,23.52,3.65,36.45,1.82Z"/>
          <path class="cls-28" d="m774.91,880.38c.82.06-.83,5.32,14.58,3.65-6.51,9.82-8.06,22.94-12.76,31.9-1.4,2.67-8.8,7.67-9.11,8.2-1.23-18.01,3.26-41.23-3.65-40.1.12-.05-.73-1.17,1.82-1.82,3.07-.79,5.82-2.05,9.11-1.82Z"/>
          <path class="cls-20" d="m831.41,885.84c-7.55,18.75-14.24,37.71-12.76,58.32-3.04,0-6.08,0-9.11,0-2.39-18.47,10.28-58.88,21.87-58.32Z"/>
          <path class="cls-20" d="m798.61,944.17c-4.85-.11-9.73.18-14.58,0,4.11-13.92,8.85-40.13,24.6-43.74-5.19,14.29-11.4,28.05-10.02,43.74Z"/>
          <path class="cls-20" d="m906.14,811.12c-.69,4.13-1.29,8.58-1.82,12.76-.54,4.26,1.25,20.05-.91,21.87l-29.16-1.82c-.6-11.98-6.3-6.31-13.67-14.58,7.92-4.36,3.59-9.25,3.65-14.58,19.21,6.93,19.44-26.3,16.4-36.45l1.82-1.82c.13.33,4.92,2.73,5.47,4.56,2.9,9.75,4.15,35.63,7.29,49.21l10.94-19.14Z"/>
          <path class="cls-52" d="m964.46,772.84c.22,4.1,4.56-1.3,12.76,0,1,.16-.56,6.85,18.23,1.82-.14,11.97-3.76,37.71,5.47,47.39.19.2,3.51,1.67,3.65,1.82-.29,1.68-1.61,6.98-1.82,7.29-.95,1.38,2.44,1.94-3.65,3.65-3.42.96-66.79.72-71.08,0,0-10.29-.38-20.71,0-30.98.51-13.68,2.91-27.23,1.82-41.01h3.65c10.34,22.02,11.71,30.34,10.94,2.73-.97-8.69,5.24-6.81,5.47-7.29,5.28-11.48.19-5.96-3.65-23.69l.91-3.65c12.53,15.19,6.49,32.38,17.31,41.92Z"/>
          <path class="cls-28" d="m1084.75,856.68c3.62,5.99,3.66,10.32,10.94,14.58,5.73,3.35,9.98,6.87,16.4,0,.25,2.52,2.41,11.92,3.65,14.58-6.01,11.24-59.97,2.93-87.48,5.47-.36-11.16-2.97-12.84,3.65-14.58,1.35,5.44,8.99,3.45,16.4,3.65,7.58.2,15.19-.14,22.78,0,6.5-5.71.91-17.31.91-18.23,0-.49,2.26-8.63,3.65-9.11,4.15,3.57,5.09,2.09,9.11,3.65Z"/>
          <path class="cls-28" d="m918.9,771.02c.58,8.19,1.5,31.21,9.11,32.81-.38,10.27,0,20.69,0,30.98-10.78-1.82-13.9-10.04-23.69-10.94.53-4.18,1.13-8.63,1.82-12.76,2.31-13.79,6.46-30.5,10.94-41.92.17,1.36.24,2.02,1.82,1.82Z"/>
          <path class="cls-20" d="m904.32,865.8c-.05.82-1.65-4.51-3.65,14.58-37.32-9.03-30.76-22.18,2.73-30.98-3,8.95.96,15.58.91,16.4Z"/>
          <path class="cls-28" d="m862.4,887.67c-.49.03-6.69,4.52-9.11,3.65-.29-5.61-1.51-11.1-1.82-16.4-.25-4.26-.78-32.23,0-33.72.27-.51,10.67,3.13,10.94,3.65,1.33,2.56-.98,34.11,0,42.83Z"/>
          <path class="cls-20" d="m1033.72,792.89c.54,4.64.05,5.63,1.82,10.94,3.48,10.44,11.09,14.05,21.87,16.4h1.82c.46,4.99,2.4,6.75,3.65,10.94,2.25,7.56,6.75,16.7,12.76,21.87-1.38.48-3.65,8.62-3.65,9.11-6.91,2.9-25.26,10.99-23.69,18.23-7.41-.2-15.05,1.79-16.4-3.65-4.88-27.84-12.26-14.72-18.23-19.14-.81-.6-.44-19.15,0-20.05,4.39-9.06,11.62-.96,12.76-7.29.41-2.25-18.63-34.18-20.05-41.01.77-4.15,1.08-8.67,1.82-12.76,2.62,16.42,9.58,23.85,25.52,16.4Z"/>
          <path class="cls-33" d="m849.64,924.12c1.73-4.29,9.08-20,9.11-21.87l3.65-2.73c-3.2,30.72,7.71,11.9,9.11,16.4,1.35,4.33-17.37,8.4-21.87,8.2Z"/>
          <path class="cls-20" d="m1071.99,862.15c0,.91,5.59,12.52-.91,18.23-7.59-.14-15.2.2-22.78,0-1.56-7.24,16.79-15.33,23.69-18.23Z"/>
        </g>
        <g>
          <path class="cls-35" d="m1128.49,789.25c-1.53,16.43,2.03,99.97,0,104.8-1.06,2.52-3.4-3.78-7.29-2.73-3.38-4.77-5.31-5.12-5.47-5.47-1.24-2.66-3.39-12.06-3.65-14.58-.26-2.64,3.73-1.4,3.65-2.73-1.83-27.76-.92-55.27-3.65-82.93v-1.82c3.06-.31,4.15.57,3.65-3.65,2.9,1.49,11.92,6.59,12.76,9.11Z"/>
          <path class="cls-19" d="m1095.69,774.67c2.95,1.23,15.07,2.91,20.05,5.47.5,4.22-.59,3.34-3.65,3.65-15.19,1.53-34.33-1.12-50.12,0,.36,8.66-2.9,34.63-2.73,36.45h-1.82c-1.58-28.95,6.69-40.12-12.76-36.45.75-5.12-.32-12.39,0-18.23,15.46,3.18,37.75,12.35,51.03,9.11Z"/>
          <path class="cls-58" d="m1095.69,774.67c-13.28,3.23-35.57-5.93-51.03-9.11.17-3.02-.11-6.09,0-9.11,18.1,3.05,34.34,11.23,51.03,18.23Z"/>
          <path class="cls-6" d="m1057.41,820.23c-10.78-2.35-18.39-5.97-21.87-16.4,4.9-5.46,8.08-12.97,9.11-20.05,19.45-3.67,11.17,7.5,12.76,36.45Z"/>
          <g>
            <path class="cls-6" d="m1112.09,783.78v1.82c-1.34,13.31,1.81,55.98,0,61.06-.51,1.43-9.92,2.31-16.4,24.6-7.28-4.26-7.31-8.59-10.94-14.58-6.15-10.16-5.77-28.64-21.87-25.52-1.25-4.18-3.18-5.95-3.65-10.94-.17-1.82,3.1-27.79,2.73-36.45,15.79-1.12,34.93,1.53,50.12,0Z"/>
            <path class="cls-9" d="m1112.09,871.26c-6.42,6.87-10.67,3.35-16.4,0,6.48-22.3,15.89-23.17,16.4-24.6,1.81-5.07-1.34-47.75,0-61.06,2.73,27.66,1.82,55.17,3.65,82.93.09,1.33-3.91.1-3.65,2.73Z"/>
            <path class="cls-21" d="m1084.75,856.68c-4.02-1.55-4.96-.07-9.11-3.65-6.01-5.17-10.51-14.31-12.76-21.87,16.1-3.12,15.73,15.36,21.87,25.52Z"/>
          </g>
        </g>
      </g>
    </g>
  </g>
</svg>