<?xml version="1.0" encoding="UTF-8"?>
<svg id="Calque_2" data-name="Calque 2" xmlns="http://www.w3.org/2000/svg" xmlns:xlink="http://www.w3.org/1999/xlink" viewBox="0 0 1857.6 1062.21">
  <defs>
    <style>
      .cls-1 {
        fill: url(#Dégradé_sans_nom_547-2);
      }

      .cls-1, .cls-2, .cls-3, .cls-4, .cls-5, .cls-6, .cls-7, .cls-8, .cls-9, .cls-10, .cls-11, .cls-12, .cls-13, .cls-14, .cls-15, .cls-16, .cls-17, .cls-18, .cls-19, .cls-20, .cls-21, .cls-22, .cls-23, .cls-24, .cls-25, .cls-26, .cls-27, .cls-28, .cls-29, .cls-30, .cls-31, .cls-32, .cls-33, .cls-34, .cls-35, .cls-36, .cls-37, .cls-38, .cls-39, .cls-40, .cls-41, .cls-42, .cls-43, .cls-44, .cls-45, .cls-46, .cls-47, .cls-48, .cls-49, .cls-50, .cls-51, .cls-52 {
        stroke-width: 0px;
      }

      .cls-2 {
        fill: #583738;
      }

      .cls-3 {
        fill: #62424e;
      }

      .cls-4 {
        fill: #7c7e89;
      }

      .cls-5 {
        fill: #966c4f;
      }

      .cls-6 {
        fill: #274956;
      }

      .cls-7 {
        fill: #3d6d7a;
      }

      .cls-8 {
        fill: #341c2d;
      }

      .cls-9 {
        fill: #8d5d44;
      }

      .cls-10 {
        fill: #258a99;
      }

      .cls-11 {
        fill: #4b2d3d;
      }

      .cls-12 {
        fill: #caa159;
      }

      .cls-13 {
        fill: #2a4559;
      }

      .cls-14 {
        fill: #746b76;
      }

      .cls-15 {
        fill: #9baab9;
      }

      .cls-16 {
        fill: #907a6c;
      }

      .cls-17 {
        fill: #68747e;
      }

      .cls-18 {
        fill: #44505d;
      }

      .cls-19 {
        fill: url(#Dégradé_sans_nom_551);
      }

      .cls-20 {
        fill: #9b777e;
      }

      .cls-21 {
        fill: #ac815e;
      }

      .cls-22 {
        fill: #1b3143;
      }

      .cls-23 {
        fill: #291e2f;
      }

      .cls-24 {
        fill: #3a2e39;
      }

      .cls-25 {
        fill: #b1b5bb;
      }

      .cls-26 {
        fill: #dbe1e3;
      }

      .cls-27 {
        fill: #2a2731;
      }

      .cls-28 {
        fill: #5d595c;
      }

      .cls-29 {
        fill: #c6bbae;
      }

      .cls-30 {
        fill: #6f595f;
      }

      .cls-31 {
        fill: #b1b0aa;
      }

      .cls-32 {
        fill: url(#Dégradé_sans_nom_547);
      }

      .cls-33 {
        fill: #5e2336;
      }

      .cls-34 {
        fill: #2e323d;
      }

      .cls-35 {
        fill: #4f3c4a;
      }

      .cls-36 {
        fill: #5b515d;
      }

      .cls-37 {
        fill: #999795;
      }

      .cls-38 {
        fill: #b48047;
      }

      .cls-39 {
        fill: #e7cb95;
      }

      .cls-40 {
        fill: #82656f;
      }

      .cls-41 {
        fill: #f7edef;
      }

      .cls-42 {
        fill: #c4d0d1;
      }

      .cls-43 {
        fill: #6a6b6e;
      }

      .cls-44 {
        fill: #7b645b;
      }

      .cls-45 {
        fill: #517d88;
      }

      .cls-46 {
        fill: #84757c;
      }

      .cls-47 {
        fill: #445b69;
      }

      .cls-48 {
        fill: #808181;
      }

      .cls-49 {
        fill: #744c44;
      }

      .cls-50 {
        fill: #78505d;
      }

      .cls-51 {
        fill: #929199;
      }

      .cls-52 {
        fill: #b0dce0;
      }
    </style>
    <linearGradient id="Dégradé_sans_nom_547" data-name="Dégradé sans nom 547" x1="860.9" y1="-1805.46" x2="859.4" y2="-1234.18" gradientTransform="translate(-24.65 3211.08) scale(1.11 1.77)" gradientUnits="userSpaceOnUse">
      <stop offset="0" stop-color="#289296"/>
      <stop offset=".74" stop-color="#c8d4cf"/>
    </linearGradient>
    <linearGradient id="Dégradé_sans_nom_547-2" data-name="Dégradé sans nom 547" x1="1020.47" y1="11.11" x2="1018.97" y2="582.39" gradientTransform="matrix(1,0,0,1,0,0)" xlink:href="#Dégradé_sans_nom_547"/>
    <linearGradient id="Dégradé_sans_nom_551" data-name="Dégradé sans nom 551" x1="1525.02" y1="692.38" x2="1841.78" y2="841.3" gradientUnits="userSpaceOnUse">
      <stop offset="0" stop-color="#225964"/>
      <stop offset="1" stop-color="#46747f"/>
    </linearGradient>
  </defs>
  <g id="Calque_1-2" data-name="Calque 1">
    <g>
      <g id="Background">
        <rect class="cls-32" width="1857.6" height="1062.21"/>
        <path class="cls-1" d="m965.09,1.18c1.08,19.79,24.6,8.41,32.64,0,13.3,0,26.6,0,39.9,0,1.13,57.07-1.52,114.34,0,171.39.29,11.05.91,88.78,4.53,91.59.59.46,5.56.29,6.35-.91l3.63-262.07c268.41.12,536.83-.09,805.24,0,.11,171.69-.15,343.38,0,515.06l-85.24,21.76c-8.2-.25-42.15-22.06-73.45-23.58-157.67-158.61-377.29-172.9-584.89-125.14v-95.21q-32.64-6.8-65.29-13.6c-15.84.41-76.95,45.28-96.12,55.31v100.66c-1.03.36.4,3.85-19.04,10.88-14.83,5.36-31.73,8.94-46.25,14.51v-153.25c-20.54-2.95-82.23-13.53-96.12-11.79-4.43.56-37.25,18.47-38.09,20.86v200.4c-32.96,15.72-82.84,45.46-112.44,67.1-7.31,5.35-15.08,10.14-21.76,16.32-5.41-.31-10.91.26-16.32,0-90.79-4.39-211.4-2.71-304.69-1.81-11.42-99.05-66.08-266.18-116.07-353.65,9.53,2.35,68.46,15.22,70.73,9.97L268.67,1.18c232.14-.44,464.29-.1,696.42,0Z"/>
        <path class="cls-29" d="m1436.63,958.76c35.69,4.53,71.38,9.42,107,14.51,21.19,3.03,42.32,5.72,63.48,9.07,84.08,13.3,167.34,29.88,250.28,48.97-.05,1.81.06,3.63,0,5.44l-267.51,1.81q40.35,11.79,80.71,23.58c-68.31.2-136.63-.08-204.94,0-225.72-60.66-453.43-115.48-685.54-145.09,219.3-12.1,439.07,14.11,656.52,41.71Z"/>
        <path class="cls-29" d="m272.29,860.83c2.38,3.43,23.48,51.99,36.27,75.26,23.32,42.43,51.69,82.18,72.54,126.05-126.95-.16-253.9.12-380.86,0-.21-15.71.29-31.45,0-47.15q40.35-13.6,80.71-27.2c5.87-3.48-6.93-16.12-9.97-29.02.61-.24,3.18.86,7.25-4.53-.07-25.09.1-50.18,0-75.26h18.14c.14,4.02-.92,24.08.91,25.39,12.01,8.61,13.46-8.02,13.6-14.51l29.02-9.07c.12,18.27,14.41,17.55,16.32-1.81l12.7-1.81c1.38,15.6,13.84,16.17,14.51-5.44l5.44,1.81c1.35,7.41,10.35,18.37,12.7-3.63,6.21-.51,7.56-2.58,14.51-1.81.27.03-.79,4.91.91,5.44,2.13.67,15.5-6.78,17.23-7.25,4.89-1.35,6.26.24,14.51-3.63,2.07-.97,8.26-1.6,10.88-5.44l1.81-1.81c7.16-1.23,8.41,1.89,10.88,5.44Z"/>
        <path class="cls-12" d="m5.69,1.18c47.93,65.45,138.5,179.35,175.92,244.84,49.99,87.47,104.65,254.6,116.07,353.65-7.25.07-14.51-.12-21.76,0C214.72,431.29,98.83,288.59.25,140.83.43,94.28.12,47.73.25,1.18c1.75-.21,3.75.35,5.44,0Z"/>
        <path class="cls-29" d="m493.55,897.1c3.59.64,7.29,1.18,10.88,1.81,82,14.53,164.69,24.74,246.65,39.9,165.57,30.62,329.69,71,489.67,123.33-109.42.07-218.84.04-328.26,0-124.81-52.54-255.12-88.22-384.48-126.95-29.03-8.69-125.91-35.94-141.46-43.53-33.93-16.54,21.32-.91,42.62,1.81,20.78,2.66,43.37,4.22,64.38,3.63Z"/>
        <path class="cls-8" d="m268.67,1.18l-16.32,254.81c-2.27,5.24-61.2-7.62-70.73-9.97C144.19,180.53,53.63,66.63,5.69,1.18c12.87-2.69,225.89.07,262.97,0Z"/>
        <path class="cls-38" d="m275.92,599.67c-8.44.14-16.96-.34-25.39,0C173.21,485.23,80.89,381.82.25,269.59c.08-42.92-.16-85.85,0-128.77,98.58,147.76,214.47,290.46,275.67,458.84Z"/>
        <path class="cls-6" d="m78.24,445.51c-.33,74.35.44,148.72,0,223.07-1.88-.61-5.1,1.26-5.44,2.72-1.24,5.3,4.56,90.33,1.81,108.82-3.22,4.79-64.68-27.6-74.36-29.92-.17-116.67-.13-233.35,0-350.03,70.65,4.08,65.04,29.9,77.99,45.34Z"/>
        <path class="cls-8" d="m343.02,878.96c8.92,3.91,32.33,8.69,43.53,12.7,15.55,7.58,112.43,34.83,141.46,43.53.54,1.75,5.83,10.52,6.35,10.88,7.71,5.31,81.86,23.46,97.93,29.02,35.27,12.2,72.44,25.91,107,39.9,35.57,14.39,65.42,28.38,98.84,47.15-32.04-.01-64.08.02-96.12,0-67.52-39.29-139.9-68.49-211.28-99.75-1.56,1.55-4.2,2.97-1.81,5.44,7.64,7.91,176.22,70.46,198.59,94.31-36.27-.02-72.54.02-108.82,0-57.01-44.46-123.1-74.22-184.99-110.63-47.31-27.83-96.76-54-137.83-90.68.37-1.09-5.25-6.12,4.53-1.81,8.88,3.91,40.16,33.86,42.62,19.95Z"/>
        <path class="cls-8" d="m1385.85,1062.14c-48.36.04-96.73-.03-145.09,0-159.99-52.33-324.1-92.7-489.67-123.33.15-7.59-18.9.43-16.32-14.51,38.78,5.29,78.29,6.4,116.98,12.7,156.45,25.45,380.31,79.43,534.11,125.14Z"/>
        <path class="cls-22" d="m78.24,668.59c0,1.21,0,2.42,0,3.63-.21,39.84-1.69,79.79-1.81,119.7-.05,15.13,1.77,30.47,1.81,45.34.04,13.9-.05,27.77,0,41.71.1,25.09-.07,50.18,0,75.26-4.07,5.4-6.64,4.29-7.25,4.53-7.38,2.9-55.06,10.89-70.73,14.51-.62-74.34.11-148.73,0-223.07,9.68,2.33,71.14,34.71,74.36,29.92,2.75-18.49-3.05-103.52-1.81-108.82.34-1.46,3.56-3.33,5.44-2.72Z"/>
        <path class="cls-8" d="m780.1,917.05c232.11,29.61,459.82,84.42,685.54,145.09-26.6.03-53.2-.02-79.8,0-153.79-45.71-377.66-99.68-534.11-125.14-38.69-6.29-78.2-7.41-116.98-12.7-.49-.07,1.87-4.1-8.16-5.44-24.22-3.24-49.13-4.17-73.45-7.25l5.44-7.25c40.46,4.6,80.65,11.83,121.51,12.7Z"/>
        <path class="cls-49" d="m234.21,599.67c-.75.03-9.08,2.85-14.51,3.63-21.94-36.28-107.22-116.94-141.46-157.78-12.94-15.44-7.33-41.26-77.99-45.34.04-33.85-.05-67.71,0-101.56,79.66,98.94,158.38,199.18,233.96,301.06Z"/>
        <path class="cls-23" d="m1857.38,898.91c-11.01-1.83-11.7-23-16.32-32.64,1.88-30.78-1.72-61.82-1.81-92.49-.38-128.27,19.13-145.49-67.1-235.77l85.24-21.76c.11,127.55.44,255.12,0,382.67Z"/>
        <path class="cls-29" d="m286.8,868.08q114.26,97.03,228.51,194.06c-31.44-.03-62.87.03-94.31,0-33.69-52.86-115.67-151.37-141.46-192.24l7.25-1.81Z"/>
        <path class="cls-8" d="m292.24,866.27c22.21,19.97,105.41,67.7,137.83,87.05,59.65,35.61,122.43,66.37,177.73,108.82-30.83-.02-61.66.03-92.49,0q-114.26-97.03-228.51-194.06l-1.81-7.25h1.81c.48,2.92,3.69,3.86,5.44,5.44Z"/>
        <path class="cls-9" d="m250.53,599.67c-5.75.23-11.07-.19-16.32,0C158.63,497.79,79.91,397.55.25,298.61c.02-9.67-.02-19.35,0-29.02,80.63,112.22,172.96,215.63,250.28,330.08Z"/>
        <path class="cls-8" d="m912.5,1062.14c-24.79,0-49.57,0-74.36,0-33.42-18.77-63.28-32.76-98.84-47.15-34.57-13.99-71.73-27.7-107-39.9-16.07-5.56-90.22-23.71-97.93-29.02-.52-.36-5.81-9.13-6.35-10.88,129.36,38.74,259.67,74.41,384.48,126.95Z"/>
        <path class="cls-33" d="m1857.38,1036.75c-.3,8.44.21,16.94,0,25.39-62.27.14-124.54-.18-186.8,0q-40.35-11.79-80.71-23.58l267.51-1.81Z"/>
        <path class="cls-3" d="m1857.38,1002.29c-.12,9.66.25,19.36,0,29.02-82.94-19.09-166.2-35.67-250.28-48.97,34.68-15.04,76.74-3.65,113.35,0,.66.07,12.04-3.7,12.7-3.63,41.27,4.86,82.58,19.62,124.23,23.58Z"/>
        <path class="cls-8" d="m1637.94,942.44c42.95,2.66,85.67,13.33,128.77,16.32l90.68,12.7c-.06,7.25.07,14.51,0,21.76-73.05-11.23-146.02-22.24-219.45-30.83,1.94-8.26-14.21-8.88-22.67-5.44-10.52-13.3-32.67-3.08-40.81-14.51,21.05.96,42.47-1.3,63.48,0Z"/>
        <path class="cls-8" d="m279.55,869.9c25.79,40.87,107.77,139.39,141.46,192.24-13.3-.01-26.6.02-39.9,0-20.86-43.87-49.23-83.61-72.54-126.05-12.79-23.28-33.89-71.83-36.27-75.26,1.87-4.83,4.2,4.23,7.25,9.07Z"/>
        <path class="cls-11" d="m1637.94,962.39c73.43,8.6,146.39,19.6,219.45,30.83-.03,3.02.04,6.05,0,9.07-41.66-3.96-82.96-18.72-124.23-23.58-.66-.08-12.04,3.69-12.7,3.63-36.61-3.65-78.67-15.04-113.35,0-21.16-3.35-42.29-6.04-63.48-9.07.66-7.09-21.08-.41-8.16-9.07,30.16-20.22,68.58-5.78,102.47-1.81Z"/>
        <path class="cls-42" d="m1052.14,1.18l-3.63,262.07c-.78,1.2-5.76,1.37-6.35.91-3.62-2.81-4.24-80.54-4.53-91.59-1.52-57.05,1.13-114.32,0-171.39,4.84,0,9.67,0,14.51,0Z"/>
        <path class="cls-3" d="m70.98,958.76c3.04,12.9,15.85,25.54,9.97,29.02q-40.35,13.6-80.71,27.2c-.26-13.89.12-27.82,0-41.71,15.67-3.62,63.35-11.61,70.73-14.51Z"/>
        <path class="cls-3" d="m1724.99,937c17.67,14.41,51.17,8.91,74.36,9.07,19.37.13,38.75-.96,58.04,1.81-.03,4.84.03,9.67,0,14.51-28.86-6.45-66.84-1.97-90.68-3.63-43.1-2.99-85.82-13.67-128.77-16.32,6.7-3.1,16.45-4.91,23.58-5.44,21.18-1.57,42.44,3.1,63.48,0Z"/>
        <path class="cls-25" d="m742.02,1062.14c-4.84,0-9.67,0-14.51,0-22.37-23.85-190.95-86.39-198.59-94.31-2.39-2.48.26-3.89,1.81-5.44,71.38,31.26,143.77,60.46,211.28,99.75Z"/>
        <path class="cls-25" d="m433.7,951.51c61.88,36.41,127.98,66.17,184.99,110.63-3.63,0-7.25,0-10.88,0-55.3-42.45-118.09-73.2-177.73-108.82l3.63-1.81Z"/>
        <path class="cls-8" d="m1857.38,927.93c-.03,6.65.03,13.3,0,19.95-19.29-2.77-38.66-1.68-58.04-1.81,5.65-7.75,15.33-11.32,21.76-18.14h36.27Z"/>
        <path class="cls-46" d="m1857.38,962.39c-.02,3.02.03,6.05,0,9.07l-90.68-12.7c23.84,1.66,61.82-2.82,90.68,3.63Z"/>
        <path class="cls-3" d="m1857.38,915.24c-.02,4.23.02,8.46,0,12.7h-36.27c3.74-3.96,8.33-9.73,10.88-14.51l25.39,1.81Z"/>
        <path class="cls-8" d="m1857.38,902.54c-.02,4.23.02,8.46,0,12.7l-25.39-1.81c1.91-3.57,3.57-7.28,5.44-10.88h19.95Z"/>
        <path class="cls-52" d="m970.53,1.18c-6.01,13,16.35,6.01,19.95,0,2.42,0,4.84,0,7.25,0-8.05,8.41-31.56,19.79-32.64,0,1.81,0,3.63,0,5.44,0Z"/>
        <path class="cls-10" d="m990.48,1.18c-3.6,6.01-25.96,13-19.95,0,6.65,0,13.3,0,19.95,0Z"/>
        <path class="cls-20" d="m1772.14,538.01c86.23,90.28,66.73,107.5,67.1,235.77-3.46-1.89-16.38,3.8-18.14-.91-2.38-6.38,2.73-89.05-.91-93.4-52.5-11.14-240.04-59.28-269.32-61.66,3.54-14.14,7.21-29.13,12.7-42.62,6.55-16.11,20.13-29.21,12.7-31.74,16.85-10.82,59.05-27.56,77.99-30.83.96-.17,4.33,3.91,9.07.91-245.18-222.78-718.29-43.39-973.91,97.03-15.24.63-30.38-4.32-45.34-5.44l-3.63-19.95c29.6-21.64,79.48-51.38,112.44-67.1,12.49-5.96,27.85-8.74,39.9-16.32,30.89-12.74,62.24-24.25,93.4-36.27,1.62-.63.69-3.54.91-3.63,14.51-5.57,31.42-9.15,46.25-14.51,19.45-7.03,18.01-10.52,19.04-10.88,20.89-7.33,72.58-22.35,96.12-29.02,18.13-5.13,49.28-14.45,65.29-18.14,207.6-47.76,427.22-33.47,584.89,125.14,31.3,1.52,65.25,23.33,73.45,23.58Z"/>
        <path class="cls-42" d="m1588.06,30.2c2.91-.74,15.51,4.2,9.07,7.25-1.69.8-8.75-5.2-19.95,18.14-45.34-1.78-13.74,34.87-45.34,65.29-13.26,12.77-46.35,29.75-66.2,26.3,5.3,45.53-22.23,42.09-25.39,47.15-4.68,53.74-70.29,52.37-85.24,5.44-.77-2.41,4.75-38.24-29.92-24.48-7.88,3.13-19.29,34.47-45.34,19.95-20.57-11.46-12.16-61.57,30.83-48.97,15.84-38.39,37.62-32.84,39.9-34.46,3.21-2.28,15.41-47.62,63.48-14.51,15.87-20.1,46.6-22.96,65.29-5.44,16.06-33.83,29.8-14.16,38.09-18.14,1.92-.92,7.49-28.45,29.02-19.95,13.53-22.73,26.62-8.73,29.02-9.07,2.84-.4,10.67-13.99,12.7-14.51Z"/>
        <path class="cls-40" d="m887.11,461.84c-.22.08.72,3-.91,3.63-31.16,12.02-62.51,23.53-93.4,36.27l-1.81-204.94c13.89-1.74,75.58,8.83,96.12,11.79v153.25Z"/>
        <path class="cls-42" d="m693.96,33.82c34.36-7.08,47.31,33.15,11.79,46.25-5.72,29.97-36.21,28.71-53.5,6.35-4.33.87-15.29,50.5-58.04,43.53-21.08,32.86-26.61-10.5-72.54,34.46-52.83-5.48-25.34,37.17-43.53,32.64-17.17-4.27-14.56-57.41,25.39-52.59,7.02-12.39,20.27-20.94,34.46-19.95,7.37-26.45,23.05-46.16,52.59-38.09,10.73-13.06,19.74-15.85,36.27-14.51,19.98-40.52,42.86-23.46,50.78-25.39,1-.25,8.61-11.11,16.32-12.7Z"/>
        <path class="cls-50" d="m1048.52,280.47v126.95c-23.54,6.66-75.23,21.69-96.12,29.02v-100.66c19.17-10.03,80.28-54.91,96.12-55.31Z"/>
        <path class="cls-50" d="m790.98,296.8l1.81,204.94c-12.05,7.58-27.41,10.37-39.9,16.32v-200.4c.83-2.39,33.65-20.3,38.09-20.86Z"/>
        <path class="cls-40" d="m1113.81,389.29c-16.01,3.68-47.16,13.01-65.29,18.14v-126.95q32.64,6.8,65.29,13.6v95.21Z"/>
        <path class="cls-3" d="m618.69,601.48c1.28.07,8.48,2.36,25.39,3.63,14.96,1.12,30.1,6.07,45.34,5.44,7.98,13.15-12.56,5.1-13.6,5.44-1.58.52.27,5.24-3.63,7.25-36.74,18.96-70.83,42.09-106.1,63.48l-1.81-45.34c6-4.7,33.85-25.56,35.37-27.2,4.34-4.7.2-3.88.91-5.44.27-.6,4.57,3.35,1.81-7.25,5.42.26,10.91-.31,16.32,0Z"/>
        <path class="cls-30" d="m602.37,601.48c2.76,10.61-1.54,6.66-1.81,7.25-51.34-1.95-102.88,1.81-154.16,1.81h-1.81c-48.92,0-97.88-2.69-146.9-1.81-.31-2.97.34-6.11,0-9.07,93.28-.9,213.9-2.58,304.69,1.81Z"/>
        <path class="cls-42" d="m918.84,19.32c16.88-3.11,35.23,5.14,29.92,24.48-.54,1.96-17.44,15.4-20.86,24.48-69.11-7.41-32.11,49.87-86.15,17.23,8.18-1.09,22.11,3.64,29.92-.91,1.5-.87,6.97-18.65,25.39-21.76,2.87-2.77-5.12-38.58,21.76-43.53Z"/>
        <path class="cls-40" d="m644.08,605.11c-16.91-1.27-24.11-3.55-25.39-3.63,6.69-6.18,14.45-10.98,21.76-16.32l3.63,19.95Z"/>
        <path class="cls-3" d="m747.46,846.32c1.3,16.52.64,32.59,2.72,48.97,25.19-3.29,62.27,8.98,63.48-10.88l260.25,23.58c28.63.1,186.8,23.3,198.59,18.14,6.19-2.71-.81-18.2,5.44-18.14,5.33,3.51,1.37,12.17,2.72,15.42,2.44,5.86,62.61-3.7,75.26-19.04,23.58,20.71,30.34,40.94,63.48,45.34,4.44.59,25.78-9.56,17.23,9.07-217.45-27.61-437.23-53.81-656.52-41.71-40.86-.87-81.05-8.09-121.51-12.7-71.48-8.13-142.3-21.03-214.01-27.2.05-1.38-1.81-1.54-1.81-5.44,7.23,1.1,10.09-1.81,10.88-1.81,2.64-.03,7.94,1.59,18.14,1.81,10.66.23,22.09-.7,32.64,0,4.46.29,9.68,1.47,14.51,1.81,16.24,1.14,32.71,4.03,48.97,5.44,5.37.47,10.95-.46,16.32,0,14.45,1.24,29.13,2.3,43.53,3.63,18.1,1.67,45.1,9.51,63.48,9.07,13-.32,19.06,2.89,18.14-14.51l33.55,1.81c3.87-1.72,5.1-32.3-.91-30.83.28-.04-.81-2.67,5.44-1.81Z"/>
        <path class="cls-8" d="m219.7,603.3c20.66,34.16,44.87,102.63,59.85,141.46.24,15.15,1.33,30.19,1.81,45.34.62,19.31-.45,38.72,0,58.04-8.24-18.64-20.77-43.87-21.76-46.25-.89-2.12.89-8.7,0-10.88-.41-1.02-4.44-1.02-5.44-3.63-5.6-14.55-.59-34.46-9.97-4.53-2.15-4.34-4.52-8.15-6.35-12.7-6.86-17.08-8.69-29.12-12.7,10.88h-3.63c-.23-12.83,2.16-28.4,0-40.81-.2-1.12-10.13-25.3-9.07-15.42-12.1,7.46-6.95,39.27-18.14,43.53-.04-4.7-4.01-40.2-6.35-39.9-1.9,1.18-.34,4.5-.91,5.44-.14.24-3.22-.69-3.63.91-4.71,18.24,3.47,66.29-12.7,58.94-.03-2.42.03-4.84,0-7.25-1.14-91.09-10.94-84.09-14.51,0-1.2,28.26,2.22,69.96,0,92.49-1.91,19.37-16.2,20.08-16.32,1.81-.05-7.64-.05-15.94,0-23.58.15-21.6,3.99-43.53,3.63-65.29-.55-32.94-.55-66.26-17.23-96.12-15.05,44.35-15.8,74.69-17.23,119.7-.53,16.65,1.83,15.5,1.81,16.32-.31,19.35.42,38.94,0,58.04-.14,6.49-1.59,23.12-13.6,14.51-1.83-1.31-.77-21.37-.91-25.39-.53-15.06.15-30.26,0-45.34-.14-13.87.52-27.86,0-41.71-1.31-35.07-.82-91.56-18.14-119.7,0-1.21,0-2.42,0-3.63.44-74.35-.33-148.72,0-223.07,34.24,40.84,119.52,121.5,141.46,157.78Z"/>
        <path class="cls-25" d="m281.36,848.13c2.98,6.73.48,11.75,3.63,12.7l1.81,7.25-7.25,1.81c-3.05-4.84-5.39-13.9-7.25-9.07-2.47-3.56-3.72-6.67-10.88-5.44l-.91-50.78-.91,52.59c-2.62,3.84-8.81,4.47-10.88,5.44v-53.5c-4.37,4.49-6.41,6.64-12.7,2.72.44-13.77-1.83-28.19,1.81-41.71,1.82,4.54,4.19,8.35,6.35,12.7,9.38-29.93,4.38-10.02,9.97,4.53,1,2.6,5.03,2.61,5.44,3.63.89,2.18-.89,8.76,0,10.88.99,2.37,13.52,27.6,21.76,46.25Z"/>
        <path class="cls-5" d="m139.9,857.2c-.05,7.64-.05,15.93,0,23.58l-29.02,9.07c.42-19.1-.31-38.68,0-58.04,36.74-5,7.08,25.42,29.02,25.39Z"/>
        <path class="cls-38" d="m170.73,786.47c.03,2.42-.03,4.84,0,7.25.25,21.57-2.18,79.27-1.81,83.43l-12.7,1.81c2.22-22.53-1.2-64.24,0-92.49h14.51Z"/>
        <path class="cls-11" d="m212.44,724.81c-17.58,38.18-7.91,79.91-9.07,119.7-.22,7.71-.99,17.67-1.81,25.39-2.34,22-11.34,11.04-12.7,3.63-.78-4.28,1.71-73.67,1.81-87.05,0-1.05,3.82,6.75,3.63-18.14,11.19-4.26,6.03-36.07,18.14-43.53Z"/>
        <path class="cls-8" d="m187.05,733.88c-2.34,16.3-2.82,32.56-3.63,48.97-1.47,29.7.91,59.49,0,88.87-.67,21.61-13.13,21.05-14.51,5.44-.37-4.16,2.06-61.85,1.81-83.43,16.16,7.35,7.99-40.71,12.7-58.94.41-1.6,3.48-.67,3.63-.91Z"/>
        <path class="cls-9" d="m96.37,833.62c.15,15.08-.53,30.28,0,45.34h-18.14c-.05-13.95.04-27.81,0-41.71l18.14-3.63Z"/>
        <path class="cls-30" d="m248.72,862.64c-8.25,3.87-9.62,2.28-14.51,3.63.56-2.39.04-4.96,0-7.25-.14-8.97-.23-18.24,0-27.2.18-6.69,1.61-13.67,1.81-19.95,6.28,3.92,8.32,1.77,12.7-2.72v53.5Z"/>
        <path class="cls-21" d="m190.68,786.47c-.1,13.38-2.6,82.77-1.81,87.05l-5.44-1.81c.91-29.38-1.47-59.17,0-88.87-.85,4.91,2.65,3.61,7.25,3.63Z"/>
        <path class="cls-21" d="m217.89,839.07c-.82,8.24.86,17.17,0,25.39-.19,1.81-1.92,2.02-1.81,3.63-6.95-.76-8.3,1.31-14.51,1.81.82-7.72,1.59-17.68,1.81-25.39l14.51-5.44Z"/>
        <path class="cls-2" d="m234.21,859.01c.04,2.29.56,4.86,0,7.25-1.73.48-15.1,7.92-17.23,7.25-1.7-.53-.63-5.41-.91-5.44-.1-1.61,1.62-1.82,1.81-3.63l16.32-5.44Z"/>
        <path class="cls-28" d="m261.41,855.39l-1.81,1.81.91-52.59.91,50.78Z"/>
        <path class="cls-3" d="m250.53,599.67c8.43-.34,16.95.14,25.39,0,7.25-.12,14.51.07,21.76,0,.34,2.96-.31,6.1,0,9.07-13.73.25-15.5,1.79-16.32,1.81-9.61.3-16.79-1.18-27.2,0-3.36.38-15.21-2.25-16.32,2.72,13.5,26.37,20.69,56.8,38.09,80.71-.3,3.53,2.73,6.02,3.63,9.07,8.48,28.76-8.74,44.06,21.76,39.9-.01.6,0,1.21,0,1.81h-21.76c-14.98-38.83-39.19-107.3-59.85-141.46,5.43-.78,13.76-3.6,14.51-3.63,5.25-.19,10.57.23,16.32,0Z"/>
        <path class="cls-13" d="m653.15,911.61c24.32,3.08,49.23,4.01,73.45,7.25,10.03,1.34,7.68,5.37,8.16,5.44-2.58,14.94,16.47,6.92,16.32,14.51-81.96-15.16-164.65-25.37-246.65-39.9,36.81-5.8,103.92,7.02,148.72,12.7Z"/>
        <path class="cls-24" d="m658.59,904.35l-5.44,7.25c-44.8-5.68-111.9-18.49-148.72-12.7-3.59-.64-7.29-1.17-10.88-1.81-17.52-3.14-35.06-7.52-52.59-10.88.89-2.56,3.59-8.06,3.63-9.07,71.71,6.17,142.53,19.07,214.01,27.2Z"/>
        <path class="cls-46" d="m333.96,866.27c7.33.38,27.63,1.32,30.83,1.81,12.49,1.92,25.54,6.63,38.09,9.07,12.74,2.47,25.32,6.62,38.09,9.07,17.54,3.36,35.08,7.75,52.59,10.88-21.01.59-43.6-.97-64.38-3.63-21.3-2.72-76.55-18.36-42.62-1.81-11.2-4.01-34.6-8.78-43.53-12.7-6.86-3.01-13.37-8.16-19.95-11.79-.11-6.29,9.09-1,10.88-.91Z"/>
        <path class="cls-35" d="m333.96,866.27c-1.8-.09-11-5.38-10.88.91,6.57,3.62,13.09,8.78,19.95,11.79-2.45,13.91-33.74-16.04-42.62-19.95-9.78-4.3-4.16.72-4.53,1.81-.6,1.76-1.65,4.67-3.63,5.44-1.75-1.58-4.96-2.52-5.44-5.44,7.32,1.61-.83-8.52,1.81-15.42,1.98-5.15,6.4-.48,9.07-.91,13.49-2.17,23.63-7.17,36.27-10.88v32.64Z"/>
        <path class="cls-30" d="m433.7,951.51l-3.63,1.81c-32.42-19.36-115.62-67.08-137.83-87.05,1.98-.77,3.03-3.68,3.63-5.44,41.07,36.68,90.53,62.85,137.83,90.68Z"/>
        <path class="cls-42" d="m96.37,791.91h-19.95c.13-39.91,1.6-79.86,1.81-119.7,17.32,28.14,16.83,84.62,18.14,119.7Z"/>
        <path class="cls-42" d="m96.37,791.91c.52,13.85-.14,27.84,0,41.71l-18.14,3.63c-.04-14.87-1.86-30.21-1.81-45.34h19.95Z"/>
        <path class="cls-42" d="m297.68,837.25v7.25c-2.67.43-7.09-4.25-9.07.91-2.65,6.89,5.5,17.02-1.81,15.42h-1.81c-3.15-.95-.65-5.97-3.63-12.7-.45-19.32.62-38.73,0-58.04,5.65-8.52,10.24-17.96,14.51-27.2l1.81,74.36Z"/>
        <path class="cls-23" d="m1654.26,512.62c-1.67-2.7-12.63-14.28-13.6-14.51-8.69-2.05-131.41,21.17-165.94,58.94-10.78,11.79-17.63,30.56-25.39,44.43-8.91,2.81-36.85,18.79-43.53,10.88l-9.97-38.09c-3.53-.5-40.62,49.27-40.81,58.04-13.14,4.51-69.94,23.58-75.26,27.2-18.47,12.58-16.79,30.75-17.23,32.64-.32,1.38-1.1,2.29-1.81,7.25-7.47,51.56,1.82,121.45-1.81,175.01,1.47,2.08,9.82.34,12.7.91-.16,1.52.7,4.87-.91,5.44-26.54,9.38-28.43-89.37-37.18-15.42-3.15,2.34-6.54,2.44-7.25,2.72,2.51-49.94-3.36-116.03,0-163.22.17-2.39-.26-4.89,0-7.25,4.11-37.38,28.75-34.72,25.39-48.97,7.93-2.97,47.85-14.11,48.97-17.23-8.36-27.87-29.25-50.17-58.94-53.5-66.42-7.46-87.81,59.51-97.03,112.44-1.44.46-10.69,6.43-28.11,10.88-10.65,2.47-23.29,1.52-24.48,1.81-24.79-81.03-37.67-79.91-76.17-38.09-17.54,19.05-17.22,18.14-29.02,41.71-4.09,8.16-10.26,15.68-10.88,25.39-2.95.7-24,8.25-42.62,12.7-5.02,1.2-7.26-2.03-8.16-1.81-4.44-18.11-7.53-37.7-24.48-48.97-41.17.13-77.56-16.04-86.15,24.48-1.29,6.1-3.03,48.53-1.81,51.69,1.49,3.85,6.45-.2,7.25,3.63-1.85.62-6.07-1.09-7.25.91l.91,77.08c111.68.55,223.12,12.9,334.61,16.32-13.28,11.71-63.06-1.62-71.64,5.44l-2.72,34.46-260.25-23.58c-1.21,19.86-38.29,7.59-63.48,10.88-2.08-16.38-1.42-32.45-2.72-48.97-.68-8.65.6-14.62-1.81-23.58-.57-2.12.12-9.42-2.72-10.88-2.2-1.13-21.36.82-28.11,0,1.22-14.19,20.03-7.83,31.74-3.63,3.75-2.56-1.01-21.59-.91-25.39.49-17.73,3.39-35.64,1.81-53.5l-3.63-.91c-47,.38-8.7-7.73,6.35-19.95,19.38-15.74-24.35,1.33-51.69,25.39-16.57,18.45-11.56,36.13-12.7,57.13-.08,1.45,3.64.72,3.63.91-.12,2.85-5.08,6.22-3.63,56.22.51,17.46-3.57,35.49,5.44,43.53-18.38.45-45.37-7.39-63.48-9.07v-38.09c6.5-.47,13.18,1.84,16.32-2.72,1.93-14.69-1.82-29.97-1.81-44.43.01-31.72,15.29-60.35-28.11-41.71-21.84,9.38-23.42,29.16-26.3,48.97-1.97,13.59-1.21,26.34-1.81,39.9-.51,11.33-3.37,22.92-1.81,34.46-5.37-.46-10.96.47-16.32,0-9.22-6.35-8.36-23.55-9.07-38.09-.53-10.92,1.74-18.8,0-32.64-.97-7.73,1.24-21.29-5.44-28.11-21.46-21.89-28.83,23.79-30.83,35.37-1.44,8.34-3.13,16.94-3.63,25.39-.63,10.81.46,21.81,0,32.64-4.83-.34-10.05-1.52-14.51-1.81,1.7-10.86-1.51-22.04-1.81-32.64-.03-1.11,2.56-4.7,0-21.76-1.16-7.71-2.69-33.88-17.23-32.64-14.09,1.19-11,28.24-11.79,36.27-.61,6.23-1.6,11.69-1.81,18.14-.36,10.86.26,21.78,0,32.64-10.19-.22-15.5-1.84-18.14-1.81-1.04-9.47,1.44-32.18,0-36.27-2.12-6.01-6.66-5.71-9.07,0-2.22,5.26-1.82,29.64-1.81,38.09,0,3.9,1.87,4.06,1.81,5.44-.04,1.01-2.74,6.51-3.63,9.07-12.76-2.44-25.35-6.59-38.09-9.07,6.83-4.54,16.19-3.15,23.58-5.44.26-.08,2.51,4.18,5.44-.91,1.31-16.14-.96-32.03-1.81-48.06-.42-7.87,7.81-15.8-3.63-18.14-9.04-1.84,5.47,19.41-16.32,14.51.37-3.56-.24-9.6-1.81-12.7-6.19-12.21-.72,11.81-16.32,12.7-.03-1.18.22-2.53,0-3.63-.58-2.93,1.64-5.4-2.72-5.44-.68,0-7.87,10.27-8.16,10.88-1.75.21-3.76-.36-5.44,0-6.58,1.41-29.77,9.19-41.71,12.7-12.64,3.71-22.78,8.71-36.27,10.88v-7.25c2.7-1.12,4.9-3.85,7.25-5.44,16.19-10.89,33.28-21.01,48.97-32.64,1.35-.38,2.46,1.93,2.72,1.81,18.29-8.02,129.33-75.73,167.76-92.49,14.57,2.39,28.86-13.97,41.71-21.76,35.27-21.39,69.36-44.52,106.1-63.48,3.9-2.01,2.05-6.73,3.63-7.25,1.04-.34,21.58,7.71,13.6-5.44,255.61-140.42,728.72-319.81,973.91-97.03-4.74,3.01-8.1-1.07-9.07-.91Z"/>
        <path class="cls-42" d="m1654.26,512.62c-18.93,3.27-61.14,20.01-77.99,30.83-10.18,6.53-29.13,21.76-36.27,30.83-30.02,9.6-60.65,17.73-90.68,27.2,7.76-13.87,14.61-32.64,25.39-44.43,34.53-37.77,157.25-60.99,165.94-58.94.97.23,11.93,11.81,13.6,14.51Z"/>
        <path class="cls-42" d="m600.56,608.74c-.71,1.56,3.43.74-.91,5.44-1.51,1.64-29.37,22.51-35.37,27.2-9.93,7.78-78.38,58.89-83.43,59.85-6.23,1.18-27.11.43-34.46-1.81.49-29.61-.37-59.26,0-88.87,51.27,0,102.81-3.77,154.16-1.81Z"/>
        <path class="cls-11" d="m566.1,686.72c-12.86,7.79-27.14,24.15-41.71,21.76-16.16-5.62-36.32,3.88-43.53-7.25,5.04-.96,73.5-52.07,83.43-59.85l1.81,45.34Z"/>
        <path class="cls-42" d="m444.59,610.55l-2.72,90.68c-45.89-2.04-95.08,2.73-140.55,0,.1-30.62-.44-62.04-3.63-92.49,49.02-.88,97.98,1.82,146.9,1.81Z"/>
        <path class="cls-44" d="m446.4,610.55c-.37,29.61.49,59.26,0,88.87-.02,1.06-1.75,1.52-1.81,7.25l-140.55-1.81c-.06,10.15-2.26,20.85-2.72,30.83-2.34-10.36-4.38-31.9,0-31.74l-21.76-.91c-.9-3.05-3.93-5.54-3.63-9.07l1.81-9.07c2.31,5.46,5.73,10.18,6.35,16.32,4.49.29,9.14-.42,13.6,0,1.19.11,2.43-.07,3.63,0,45.47,2.73,94.66-2.04,140.55,0l2.72-90.68h1.81Z"/>
        <path class="cls-13" d="m453.65,833.62c1.44,4.09-1.04,26.8,0,36.27-.79,0-3.65,2.91-10.88,1.81,0-8.45-.41-32.83,1.81-38.09h9.07Z"/>
        <path class="cls-42" d="m143.53,791.91l-34.46,23.58c1.43-45,2.18-75.35,17.23-119.7,16.67,29.86,16.68,63.18,17.23,96.12Z"/>
        <path class="cls-25" d="m221.51,781.03c.32,17.78,1.36,37.72,0,55.31-.11,1.39-3.6,2.49-3.63,2.72l-14.51,5.44c1.16-39.79-8.51-81.51,9.07-119.7-1.06-9.89,8.87,14.29,9.07,15.42,2.16,12.4-.23,27.97,0,40.81Z"/>
        <path class="cls-25" d="m143.53,791.91c.36,21.76-3.47,43.69-3.63,65.29-21.93.03,7.72-30.39-29.02-25.39.01-.82-2.34.32-1.81-16.32l34.46-23.58Z"/>
        <path class="cls-42" d="m170.73,786.47h-14.51c3.57-84.09,13.37-91.09,14.51,0Z"/>
        <path class="cls-25" d="m237.83,770.15c-3.64,13.53-1.37,27.94-1.81,41.71-.2,6.28-1.64,13.26-1.81,19.95-13.49,16.25-11.31-28.35-9.07-50.78,4.01-40,5.84-27.96,12.7-10.88Z"/>
        <path class="cls-16" d="m225.14,781.03c-2.25,22.43-4.43,67.03,9.07,50.78-.23,8.96-.14,18.23,0,27.2l-16.32,5.44c.86-8.22-.82-17.15,0-25.39.02-.23,3.52-1.33,3.63-2.72,1.36-17.59.32-37.53,0-55.31h3.63Z"/>
        <path class="cls-5" d="m301.31,744.76c-.05,3.02.04,6.05,0,9.07-4.48,1.12-4.44,6.91-5.44,9.07-4.26,9.25-8.86,18.68-14.51,27.2-.48-15.15-1.57-30.19-1.81-45.34h21.76Z"/>
        <path class="cls-42" d="m194.31,768.33c.19,24.89-3.62,17.09-3.63,18.14-4.6-.02-8.1,1.28-7.25-3.63.81-16.41,1.28-32.67,3.63-48.97.57-.94-.99-4.26.91-5.44,2.34-.3,6.31,35.2,6.35,39.9Z"/>
        <path class="cls-42" d="m444.59,706.67c-.03,2.32-.76,9.63.91,10.88,10.83-7.99,17.48-16.43,31.74-11.79-43.37,28.1-81.97,62.73-123.33,93.4-15.69,11.63-32.78,21.76-48.97,32.64-1.11-25.54-3.96-52.52-3.63-77.99.04-3.02-.05-6.05,0-9.07,0-.6-.01-1.21,0-1.81.05-2.41-.11-4.85,0-7.25.46-9.98,2.66-20.69,2.72-30.83l140.55,1.81Z"/>
        <path class="cls-5" d="m281.36,610.55l16.32,90.68c-4.46-.42-9.12.29-13.6,0-.62-6.14-4.04-10.86-6.35-16.32-7.38-17.48-14.34-53.07-23.58-74.36,10.41-1.18,17.59.3,27.2,0Z"/>
        <path class="cls-49" d="m254.16,610.55c9.24,21.29,16.19,56.88,23.58,74.36l-1.81,9.07c-17.4-23.9-24.58-54.34-38.09-80.71,1.11-4.98,12.97-2.34,16.32-2.72Z"/>
        <path class="cls-12" d="m297.68,608.74c3.19,30.45,3.73,61.87,3.63,92.49-1.2-.07-2.44.11-3.63,0l-16.32-90.68c.82-.03,2.6-1.57,16.32-1.81Z"/>
        <path class="cls-9" d="m301.31,735.69c-.11,2.41.05,4.84,0,7.25-30.51,4.16-13.28-11.14-21.76-39.9l21.76.91c-4.38-.16-2.34,21.38,0,31.74Z"/>
        <path class="cls-24" d="m408.31,806.42c-7.53,18.16.33,26.84,1.81,12.7,21.79,4.9,7.29-16.35,16.32-14.51v67.1c-7.39,2.29-16.74.9-23.58,5.44-12.54-2.44-25.6-7.15-38.09-9.07-2.92-37.92,5.41-25.55,12.7-32.64.16-.16,1.72-.12,3.63-2.72.41-4.26-.63-10.48,0-11.79.29-.61,7.48-10.89,8.16-10.88,4.36.04,2.14,2.51,2.72,5.44l-3.63-.91v16.32h3.63c-.08-3.93.11-7.86,0-11.79,15.6-.89,10.13-24.91,16.32-12.7Z"/>
        <path class="cls-36" d="m377.48,835.44c-7.28,7.1-15.62-5.28-12.7,32.64-3.2-.49-23.5-1.44-30.83-1.81v-32.64c11.95-3.51,35.13-11.28,41.71-12.7l1.81,14.51Z"/>
        <path class="cls-42" d="m1251.64,648.64c-26.43,9.9-53.15,19.27-77.08,34.46-8.82,3.35-22.42,4.86-29.92,7.25,9.22-52.93,30.6-119.9,97.03-112.44,29.69,3.33,50.58,25.63,58.94,53.5-1.11,3.12-41.04,14.26-48.97,17.23Z"/>
        <path class="cls-42" d="m925.19,742.94c-37.49,8.88-74.77,19.04-112.44,27.2-1.22-3.15.52-45.59,1.81-51.69,8.58-40.52,44.97-24.35,86.15-24.48,16.96,11.27,20.05,30.85,24.48,48.97Z"/>
        <path class="cls-42" d="m1092.04,703.04c-38.65,9.51-77.37,19.91-116.07,29.02.62-9.71,6.8-17.23,10.88-25.39,2.36,11.23,36.9-36.52,29.02-41.71,38.5-41.83,51.38-42.95,76.17,38.09Z"/>
        <path class="cls-42" d="m743.83,728.44l3.63.91c1.58,17.86-1.32,35.78-1.81,53.5l-56.22,9.07c0-.19-3.71.55-3.63-.91,1.14-21-3.87-38.68,12.7-57.13l45.34-5.44Z"/>
        <path class="cls-8" d="m480.86,701.23c7.21,11.13,27.37,1.63,43.53,7.25-38.43,16.76-149.47,84.47-167.76,92.49-.26.12-1.37-2.2-2.72-1.81,41.36-30.67,79.96-65.3,123.33-93.4-14.26-4.64-20.9,3.8-31.74,11.79-1.67-1.25-.93-8.56-.91-10.88.07-5.73,1.8-6.2,1.81-7.25,7.35,2.24,28.23,3,34.46,1.81Z"/>
        <path class="cls-42" d="m642.27,797.35l-54.41,7.25c2.87-19.81,4.46-39.59,26.3-48.97,43.4-18.64,28.12,9.99,28.11,41.71Z"/>
        <path class="cls-42" d="m1405.8,612.36c-4.27,7.56-33.62,14.06-50.78,19.95.18-8.76,37.27-58.54,40.81-58.04l9.97,38.09Z"/>
        <path class="cls-47" d="m558.84,808.23c1.74,13.85-.53,21.72,0,32.64h-39.9c.5-8.45,2.19-17.05,3.63-25.39l36.27-7.25Z"/>
        <path class="cls-42" d="m558.84,808.23l-36.27,7.25c2-11.58,9.37-57.26,30.83-35.37,6.69,6.82,4.47,20.38,5.44,28.11Z"/>
        <path class="cls-25" d="m502.62,817.3l-29.02,3.63c.79-8.03-2.3-35.08,11.79-36.27,14.54-1.23,16.07,24.94,17.23,32.64Z"/>
        <path class="cls-18" d="m502.62,817.3c2.56,17.06-.03,20.66,0,21.76h-30.83c.21-6.44,1.2-11.9,1.81-18.14l29.02-3.63Z"/>
        <path class="cls-8" d="m743.83,728.44l-45.34,5.44c27.34-24.06,71.07-41.13,51.69-25.39-15.05,12.22-53.35,20.33-6.35,19.95Z"/>
        <path class="cls-42" d="m986.85,706.67c11.8-23.57,11.48-22.66,29.02-41.71,7.88,5.19-26.66,52.94-29.02,41.71Z"/>
        <path class="cls-47" d="m426.45,871.71v-47.15l3.63-1.81c.85,16.03,3.12,31.92,1.81,48.06-2.94,5.09-5.18.83-5.44.91Z"/>
        <path class="cls-26" d="m447.31,799.17c12.12-4.47,5.79,39.03-2.72,20.86-.61-1.31-1.1-19.45,2.72-20.86Z"/>
        <path class="cls-26" d="m430.08,822.74l-3.63,1.81v-19.95c11.44,2.33,3.21,10.26,3.63,18.14Z"/>
        <path class="cls-25" d="m410.13,819.12c-1.48,14.14-9.35,5.47-1.81-12.7,1.57,3.1,2.19,9.14,1.81,12.7Z"/>
        <path class="cls-4" d="m391.99,815.49c.22,1.1-.03,2.45,0,3.63.11,3.92-.08,7.86,0,11.79h-3.63v-16.32l3.63.91Z"/>
        <path class="cls-46" d="m381.11,820.93c-.63,1.3.41,7.53,0,11.79-1.91,2.6-3.46,2.56-3.63,2.72l-1.81-14.51c1.68-.36,3.69.21,5.44,0Z"/>
        <path class="cls-15" d="m453.65,833.62h-9.07c2.41-5.71,6.95-6.01,9.07,0Z"/>
        <path class="cls-18" d="m407.41,828.18c8.77,47.42-4.23,66.9-.91,2.72v-1.81l.91-.91Z"/>
      </g>
      <g>
        <g>
          <path class="cls-6" d="m627.76,844.51v38.09c-14.39-1.33-29.07-2.39-43.53-3.63-1.56-11.54,1.31-23.13,1.81-34.46,13.8-.73,27.95,1,41.71,0Z"/>
          <path class="cls-22" d="m558.84,840.88c.71,14.53-.15,31.73,9.07,38.09-16.26-1.41-32.73-4.3-48.97-5.44.46-10.83-.63-21.83,0-32.64h39.9Z"/>
          <path class="cls-22" d="m502.62,839.07c.31,10.6,3.51,21.79,1.81,32.64-10.55-.7-21.99.23-32.64,0,.26-10.87-.36-21.79,0-32.64h30.83Z"/>
          <path class="cls-22" d="m696.68,848.13c.2,9.72,12.21,19.81,12.7,29.02.93,17.4-5.14,14.19-18.14,14.51-9.02-8.04-4.93-26.07-5.44-43.53h10.88Z"/>
        </g>
        <g>
          <path class="cls-40" d="m1857.38,898.91c0,1.21,0,2.42,0,3.63h-19.95c1.87-11.79,2.9-24.4,3.63-36.27,4.62,9.65,5.31,30.82,16.32,32.64Z"/>
          <path class="cls-8" d="m1271.59,875.34c8.38,1.63,6.89-.04,7.25,0,4.7.51,5.17-.03,5.44,0,28.57,2.85,60.3,6.38,88.87,3.63-.3,14.2,14.88,2.17,14.51,22.67,11.97-.81,5,5.1,5.44,5.44,21.78,16.75,2.48-14.28,6.35-17.23,16.15,5.97,22.02-1.72,25.39-1.81,11.05-.3,53.92,3.47,43.53,10.88-1.96,1.4-7.72-8.81-14.51-5.44-24.79,12.29,51.36,19.08,48.06,8.16-42.91-13.24,31.42-9.98,38.99-8.16,1.35.32.26,6.28,3.63,7.25,1.4.4,10.67-9.73,14.51-9.07,11.58,2.01,3.26,30.73,15.42,32.64-1.51,7.75-4.96,11.16,0,18.14,8.13,11.43,30.28,1.21,40.81,14.51,8.46-3.43,24.61-2.82,22.67,5.44-33.89-3.97-72.3-18.41-102.47,1.81-12.92,8.66,8.82,1.98,8.16,9.07-35.62-5.09-71.31-9.98-107-14.51,8.55-18.63-12.79-8.48-17.23-9.07-33.14-4.4-39.9-24.63-63.48-45.34-12.65,15.34-72.83,24.9-75.26,19.04-1.35-3.24,2.6-11.91-2.72-15.42-6.25-.06.75,15.42-5.44,18.14-11.79,5.17-169.96-18.03-198.59-18.14l2.72-34.46c8.57-7.06,58.36,6.27,71.64-5.44,14.46.44,70.2,3.1,77.99,0,.71-.28,4.11-.38,7.25-2.72,8.75-73.96,10.64,24.8,37.18,15.42,1.6-.57.75-3.92.91-5.44Z"/>
          <path class="cls-24" d="m1647.01,882.59c6.08,19.81,22.68,20.4,14.51,54.41-7.13.53-16.87,2.34-23.58,5.44-21-1.3-42.43.96-63.48,0-4.96-6.97-1.51-10.38,0-18.14,2.93-15.05,11.08-27.63,16.32-41.71h56.22Z"/>
          <path class="cls-8" d="m1708.67,882.59c.52,20.55-1.29,40.05,16.32,54.41-21.03,3.1-42.29-1.57-63.48,0,8.17-34.01-8.43-34.6-14.51-54.41h61.66Z"/>
          <path class="cls-40" d="m1550.88,617.81c-4.74-.39-9.73.04-14.51,0-6.26-.06-14-.6-19.95,0,6.25-10.48,17.08-35.27,23.58-43.53,7.14-9.07,26.09-24.3,36.27-30.83,7.44,2.53-6.14,15.63-12.7,31.74-5.49,13.49-9.16,28.48-12.7,42.62Z"/>
          <path class="cls-7" d="m1536.38,819.12l-132.39,1.81c-.35-14.94-.11-104.51-1.81-109.72-2.52-7.7-15.09-6.55-21.76-6.35-6.68.2-96.82,15.83-99.75,28.11l-1.81,142.37c-.36-.04,1.12,1.63-7.25,0-2.88-.56-11.22,1.17-12.7-.91,3.64-53.56-5.65-123.46,1.81-175.01,79.44-25.92,162.2-41.44,242.12-65.29,9.58-2.86,27.25-7.78,33.55-14.51,6.67,47.31-2.44,176.76,0,199.5Z"/>
          <path class="cls-23" d="m742.02,848.13c6.01-1.46,4.78,29.11.91,30.83l-33.55-1.81c-.49-9.21-12.5-19.3-12.7-29.02,13.47-1.22,33.59,1.66,45.34,0Z"/>
          <path class="cls-45" d="m1536.38,819.12c.05.47,2.05.06,2.72,9.07l168.67-3.63c6.83,3.16.7,50.04.91,58.04h-117.88l-185.89-1.81c-2-19.9-.44-39.91-.91-59.85l132.39-1.81Z"/>
          <path class="cls-46" d="m1516.43,617.81c5.95-.6,13.69-.06,19.95,0v1.81c-6.3,6.73-23.97,11.65-33.55,14.51-79.91,23.85-162.67,39.37-242.12,65.29.72-4.96,1.49-5.87,1.81-7.25,50.39-16.7,217.56-70.69,253.9-74.36Z"/>
          <path class="cls-22" d="m1540,574.28c-6.5,8.26-17.32,33.05-23.58,43.53-36.34,3.66-203.52,57.66-253.9,74.36.44-1.89-1.24-20.06,17.23-32.64,5.33-3.63,62.12-22.7,75.26-27.2,17.16-5.89,46.51-12.39,50.78-19.95,6.68,7.91,34.62-8.07,43.53-10.88,30.03-9.48,60.66-17.6,90.68-27.2Z"/>
          <path class="cls-22" d="m1251.64,648.64c3.36,14.25-21.28,11.58-25.39,48.97-21.4,2.35-42.43,8.24-63.48,12.7-18.79,3.98-37.39,7.28-56.22,10.88-43.49,8.33-87.04,15.63-130.58,23.58-44.4,8.1-88.26,15.74-132.39,25.39-5.93,1.3-14.84.71-23.58,3.63-.81-3.83-5.76.23-7.25-3.63,37.68-8.16,74.96-18.32,112.44-27.2.9-.21,3.14,3.01,8.16,1.81,18.62-4.45,39.67-12,42.62-12.7,38.71-9.11,77.42-19.51,116.07-29.02,1.19-.29,13.84.65,24.48-1.81,17.42-4.45,26.68-10.42,28.11-10.88,7.51-2.4,21.1-3.91,29.92-7.25,23.93-15.19,50.64-24.56,77.08-34.46Z"/>
          <path class="cls-14" d="m1226.25,697.6c-.26,2.37.17,4.86,0,7.25-20.82,3.7-40.97,10.23-61.66,14.51-5.43-3.72-1.37-2.73-1.81-9.07,21.04-4.45,42.07-10.35,63.48-12.7Z"/>
          <path class="cls-34" d="m745.64,822.74c-14.24,1.52-32.57,9.33-30.83-10.88,6.76.82,25.91-1.13,28.11,0,2.84,1.46,2.15,8.76,2.72,10.88Z"/>
          <g>
            <path class="cls-2" d="m1720.46,590.6c8.01-2.18,60.88,5.67,67.1,10.88,9.65,8.09,11.02,45.3-3.63,48.97-6.8,1.7-57.37-5.49-63.48-9.07-12.74-7.46-11.69-47.6,0-50.78Z"/>
            <path class="cls-39" d="m1727.71,592.41c1.72-.19,28.68,6.38,33.55,8.16-.08,47.69,8.79,52-41.71,34.46-1.6-11.47-7.77-40.83,8.16-42.62Z"/>
            <path class="cls-39" d="m1767.61,599.67c19.36-7.38,38.39,59.01-2.72,42.62,1.28-6.51-2.83-40.5,2.72-42.62Z"/>
          </g>
          <path class="cls-47" d="m975.97,744.76l.91,7.25c-21.38.06-126.21,24.07-134.21,21.76-2.19-.63,1.09-2.12.91-3.63,44.14-9.65,88-17.29,132.39-25.39Z"/>
          <path class="cls-14" d="m1164.59,719.37c-29.34,6.06-62.62,15.63-58.04,1.81,18.83-3.61,37.43-6.91,56.22-10.88.44,6.34-3.62,5.35,1.81,9.07Z"/>
          <g>
            <path class="cls-7" d="m1342.32,804.61c13.62.05,28,5.16,41.71,0,.59,24.45,3.24,48.92,1.81,73.45-1.33,1.87-9.89.64-12.7.91-28.57,2.75-60.29-.78-88.87-3.63v-66.2c2.44-3.81,4.72-2.21,7.25-2.72,5.37-1.07,22.13.28,31.74,0,1.42-.04-.06-3.58,2.72-3.63.96-.02-8.04,1.73,16.32,1.81Z"/>
            <path class="cls-23" d="m1403.98,820.93c.47,19.93-1.09,39.95.91,59.85l185.89,1.81c-5.24,14.08-13.39,26.67-16.32,41.71-12.15-1.92-3.83-30.64-15.42-32.64-3.84-.67-13.11,9.47-14.51,9.07-3.37-.97-2.28-6.93-3.63-7.25-7.57-1.82-81.9-5.08-38.99,8.16,3.3,10.92-72.85,4.13-48.06-8.16,6.79-3.37,12.55,6.84,14.51,5.44,10.39-7.42-32.47-11.18-43.53-10.88-3.37.09-9.25,7.78-25.39,1.81-3.87,2.95,15.43,33.98-6.35,17.23-.44-.34,6.52-6.25-5.44-5.44.38-20.5-14.81-8.47-14.51-22.67,2.8-.27,11.37.96,12.7-.91,1.42-24.53-1.22-49-1.81-73.45-.23-9.34-1.8-6.88-1.81-7.25-.7-23.99,1.68-52.64,0-75.26-.11-1.5-3.61-.72-3.63-.91-.39-3.76,2.4-11.8,1.81-16.32,6.68-.2,19.24-1.36,21.76,6.35,1.71,5.22,1.46,94.79,1.81,109.72Z"/>
            <path class="cls-22" d="m1378.59,721.18c-11.93-1.02-10.34,1.7-10.88,1.81-32.2,6.59-23.74,5.73-25.39,38.09-.61,12.03.45,24.22,0,36.27v7.25c-24.37-.09-15.36-1.83-16.32-1.81-.54-12.6-4.37-25.73-5.44-38.09-1.66-19.21,8.03-49.12-19.04-34.46-15.51,8.4-7.46,22.29-8.16,34.46-.8,13.89-3.16,27.68-1.81,41.71-2.54.51-4.81-1.09-7.25,2.72v66.2c-.27-.03-.74.51-5.44,0l1.81-142.37c2.93-12.28,93.07-27.91,99.75-28.11.58,4.53-2.2,12.56-1.81,16.32Z"/>
            <path class="cls-43" d="m1320.56,764.71c1.07,12.35,4.9,25.49,5.44,38.09-2.78.05-1.3,3.59-2.72,3.63-9.61.28-26.37-1.07-31.74,0-1.35-14.03,1.02-27.82,1.81-41.71h27.2Z"/>
            <path class="cls-48" d="m1382.22,797.35c.01.37,1.59-2.09,1.81,7.25-13.71,5.16-28.09.05-41.71,0v-7.25c12.33,1.63,25.84-1.81,27.2-1.81.64,0,.63,3,12.7,1.81Z"/>
            <path class="cls-28" d="m1378.59,721.18c.02.19,3.52-.59,3.63.91,1.68,22.63-.7,51.28,0,75.26-12.07,1.18-12.05-1.81-12.7-1.81,1.84-11.99-1.69-24.55-1.81-36.27-.19-17.63,4.47-30.09,0-36.27.54-.11-1.05-2.83,10.88-1.81Z"/>
            <path class="cls-31" d="m1320.56,764.71h-27.2c.7-12.17-7.35-26.06,8.16-34.46,27.07-14.66,17.38,15.25,19.04,34.46Z"/>
            <path class="cls-43" d="m1369.52,795.54c-1.36,0-14.87,3.45-27.2,1.81.45-12.05-.61-24.24,0-36.27l25.39-1.81c.12,11.72,3.65,24.28,1.81,36.27Z"/>
            <path class="cls-31" d="m1367.71,722.99c4.47,6.18-.19,18.65,0,36.27l-25.39,1.81c1.65-32.35-6.81-31.49,25.39-38.09Z"/>
          </g>
          <g>
            <path class="cls-47" d="m745.64,782.84c-.1,3.8,4.66,22.83.91,25.39-11.71-4.2-30.52-10.56-31.74,3.63-1.74,20.22,16.59,12.4,30.83,10.88,2.41,8.96,1.13,14.93,1.81,23.58-6.25-.86-5.16,1.77-5.44,1.81-11.75,1.66-31.87-1.22-45.34,0h-10.88c-1.45-50.01,3.5-53.37,3.63-56.22l56.22-9.07Z"/>
            <path class="cls-34" d="m708.47,802.79c4.96,1.73,7.31,29.82-10.88,21.76-8.61-3.81.12-25.52,10.88-21.76Z"/>
          </g>
          <g>
            <path class="cls-19" d="m1550.88,617.81c29.28,2.38,216.82,50.52,269.32,61.66,3.63,4.35-1.48,87.02.91,93.4,1.76,4.71,14.68-.98,18.14.91.09,30.67,3.69,61.71,1.81,92.49-.72,11.87-1.76,24.48-3.63,36.27-1.87,3.6-3.53,7.31-5.44,10.88-2.56,4.78-7.14,10.54-10.88,14.51-6.43,6.81-16.11,10.39-21.76,18.14-23.19-.16-56.69,5.34-74.36-9.07-17.61-14.36-15.8-33.85-16.32-54.41-.2-7.99,5.92-54.87-.91-58.04l-168.67,3.63c-.67-9-2.67-8.6-2.72-9.07-2.44-22.74,6.67-152.19,0-199.5v-1.81c4.78.04,9.77-.39,14.51,0Z"/>
            <g>
              <g>
                <path class="cls-23" d="m1783.03,822.74c-4.47,11.27,4.86,5.26,5.44,5.44.6.19,5.3-3.4,7.25,6.35,7.95,39.72-33.43,53.42-48.97,29.02-18.16-28.53,13.13-58.32,37.18-44.43,2.09,1.21-1.84,2.73-.91,3.63Z"/>
                <path class="cls-41" d="m1788.47,828.18c-.58-.18-9.91,5.83-5.44-5.44.28.27,5.76-.9,5.44,5.44Z"/>
              </g>
              <g>
                <path class="cls-34" d="m1614.36,663.15c-6.55,10.11-26.62-8.15-38.09,5.44-2.18,2.58-1.19,4.69-1.81,7.25-2.47,10.14-2.94,77.71,0,84.33,4.85,4.86,21.48,2.28,36.27,2.72-.02,1.22-.44,3.31.91,3.63,14.93,3.55,47.98-.65,68.01,1.81-20.07-4.77-103.66,11.69-112.44-8.16-3.26-101.38-12.91-102.9,47.15-97.03Z"/>
                <g>
                  <path class="cls-31" d="m1659.7,719.37c0,5.69.87,42.27-.91,43.53-16-.35-32.07.48-48.06,0-14.79-.44-31.43,2.14-36.27-2.72-2.94-6.63-2.47-74.19,0-84.33,45.34-4.1,44.18,39,49.87,43.53,3.04,2.42,28.57-1.49,35.37,0Z"/>
                  <path class="cls-42" d="m1659.7,719.37c-6.79-1.49-32.32,2.42-35.37,0-5.69-4.53-4.53-47.63-49.87-43.53.62-2.56-.36-4.68,1.81-7.25,26.73-5.33,55.31,6.62,82.52,7.25,1.77,1.26.91,37.84.91,43.53Z"/>
                </g>
                <g>
                  <path class="cls-23" d="m1614.36,663.15c13.41,1.31,85.33,9.56,88.87,20.86-3.88,27.73,10.64,70.71-13.6,87.96-9.8,1.46-9.45-3.56-9.97-3.63-20.03-2.47-53.08,1.74-68.01-1.81-1.35-.32-.92-2.41-.91-3.63,15.99.48,32.06-.35,48.06,0,1.78-1.26.91-37.83.91-43.53,0-5.69.86-42.26-.91-43.53-27.21-.64-55.79-12.58-82.52-7.25,11.47-13.59,31.53,4.67,38.09-5.44Z"/>
                  <path class="cls-42" d="m1695.97,721.18h-27.2c-.1-13.6.07-27.21,0-40.81,31.71-7.13,28.66,15.42,27.2,40.81Z"/>
                  <path class="cls-25" d="m1695.97,721.18c-.32,5.52.79,19.07,0,20.86-2.2,4.99-10.99,1.55-13.6,2.72-4.5,2.01.15,27.27-12.7,18.14-1.76-1.25-.87-36.01-.91-41.71h27.2Z"/>
                </g>
              </g>
              <g>
                <path class="cls-27" d="m1756.73,686.72c46.39-11.59,34.5,70.6-3.63,48.97-17.43-9.89-15.06-44.3,3.63-48.97Z"/>
                <path class="cls-44" d="m1756.73,693.98c26.03-7.61,27.44,32.13,10.88,36.27-24.19,6.06-26.38-31.74-10.88-36.27Z"/>
              </g>
            </g>
          </g>
          <g>
            <path class="cls-47" d="m642.27,797.35c0,14.46,3.75,29.74,1.81,44.43-3.14,4.56-9.82,2.25-16.32,2.72-13.76,1-27.91-.73-41.71,0,.61-13.56-.16-26.31,1.81-39.9l54.41-7.25Z"/>
            <path class="cls-34" d="m626.85,808.23c2.13-.79,5.46.67,6.35,2.72,11.08,25.52-47.11,17.28-28.11,2.72,8.61-6.6,17.18,2.08,18.14,1.81,1.45-.4.05-5.94,3.63-7.25Z"/>
          </g>
          <g>
            <path class="cls-7" d="m1226.25,704.86c-3.36,47.2,2.51,113.29,0,163.22-7.78,3.1-63.53.44-77.99,0-111.49-3.42-222.93-15.77-334.61-16.32l-.91-77.08c1.18-1.99,5.4-.29,7.25-.91,8.74-2.91,17.65-2.33,23.58-3.63.19,1.51-3.09,3-.91,3.63,7.99,2.31,112.83-21.7,134.21-21.76l-.91-7.25c43.54-7.95,87.09-15.25,130.58-23.58-4.58,13.81,28.7,4.25,58.04-1.81,20.69-4.27,40.85-10.81,61.66-14.51Z"/>
            <g>
              <path class="cls-34" d="m857.18,782.84c13.28,50.27-12.2,46.22-15.42,38.99-2.08-4.69,3.52-26.69-2.72-28.11-6.9.05,7.17,42.87-19.95,30.83-3.66-1.63-1.87-32.18-.91-33.55,1.14-1.63,33.86-5.26,38.99-8.16Z"/>
              <path class="cls-43" d="m1099.3,820.93c-8.58-.11-16.82.8-25.39,0,8.26-7.47,1.91-29.21,1.81-39.9,24.32,6.01,5.03-17.52,16.32-26.3-1.81-1.39-2.25-.25-3.63-2.72,18.69-15.92,8.26,34.48,10.88,68.92Z"/>
              <path class="cls-43" d="m1179.1,819.12c-6.84.15-13.37-.11-19.95,0-1.56-15.15,1.3-30.34,1.81-45.34l14.51-5.44c.74,20.32-2.95,47.2,3.63,50.78Z"/>
              <path class="cls-34" d="m883.48,781.03v41.71c-.9-.11-7.14,4.14-18.14.91v-39.9c10.12-6.87,17.2-2.49,18.14-2.72Z"/>
              <g>
                <path class="cls-23" d="m910.68,773.78c2.62,9.21,2.9,47.55.91,48.97-.85.6-20.02.27-20.86-.91-1.18-1.66.88-34.42,0-40.81,1.13-.25-5.92-2.2,19.95-7.25Z"/>
                <path class="cls-17" d="m916.12,773.78v48.97c-.19,0,.56,3.65-.91,3.63-9.85-.13-21.43.85-30.83,0-1.51-.14-.72-3.6-.91-3.63v-41.71c6.53-1.58,6.37.2,7.25,0,.88,6.39-1.18,39.14,0,40.81.83,1.17,20.01,1.51,20.86.91,2-1.42,1.71-39.76-.91-48.97,1.71-.33,3.73.34,5.44,0Z"/>
              </g>
              <path class="cls-43" d="m1057.58,782.84c.63,12.31,3.28,24.69,1.81,37.18,1.44,2.04,8.25.36,10.88.91-10.04,4.08-20.69,1.62-30.83,0,6.53-5.45,6.42-21.75,7.25-38.09h10.88Z"/>
              <path class="cls-47" d="m943.33,777.4c.6,15.22-1.64,30.22,1.81,45.34.55,2.41.71,1.64,1.81,3.63-12.4.11-13.53-5.44-14.51-5.44v-44.43c11.71-7.87,10.19,1.02,10.88.91Z"/>
              <g>
                <path class="cls-43" d="m1211.74,779.22c-.14,13.11,3.85,27.41,1.81,40.81-2.7,3.8-26.29-1.03-30.83-.91,7.63,2.6,5.84-19.69,5.44-39.9h23.58Z"/>
                <path class="cls-43" d="m1213.55,741.13c0,10.28.01,20.55,0,30.83l-25.39-1.81c.01-8.13-2.95-16.69-1.81-25.39l27.2-3.63Z"/>
                <path class="cls-25" d="m1213.55,771.96c0,5.7-1.8,6.17-1.81,7.25h-23.58c-.06-3.31,0-5.9,0-9.07l25.39,1.81Z"/>
              </g>
              <path class="cls-43" d="m1021.31,815.49c-.22.84,3.93,4.38.91,9.07-11.97,1.32-16.36-1.87-17.23-1.81-.96-4.52,1.84-5.91,1.81-7.25h14.51Z"/>
              <path class="cls-43" d="m994.11,824.56c-10.87.64-10.33-1.83-10.88-1.81-.93-4.42,1.65-5.71,1.81-7.25,5.44,2.63,10.24,1.47,9.07,9.07Z"/>
              <g>
                <path class="cls-48" d="m970.53,824.56c-1.18.02-8.81,1.69-23.58,1.81-1.1-1.99-1.26-1.22-1.81-3.63,3.77-.67,18.38,1.31,19.95-.91,1.54-2.17,1.94-54.85-5.44-49.87.54-.05,4.51-5.5,10.88.91v51.69Z"/>
                <path class="cls-23" d="m959.65,771.96c7.38-4.98,6.98,47.7,5.44,49.87-1.57,2.22-16.18.24-19.95.91-3.46-15.12-1.21-30.12-1.81-45.34.85-.13,4.04-4.3,16.32-5.44Z"/>
              </g>
              <g>
                <path class="cls-43" d="m1150.08,773.78c-16.97-5.76-9.82,23.97-9.07,45.34-8.14.09-16.81,1.9-25.39,1.81-.7-22.69-.43-41.24,3.63-63.48,8.15.11,6.12,30.45,14.51,22.67-1.09-17.21,3.05-36.9-3.63-35.37,4.43-1.15,18.45-4.61,19.95-.91.44,9.93-.61,20.02,0,29.92Z"/>
                <path class="cls-18" d="m1150.08,773.78c.96,15.75,3.02,31.3,1.81,47.15-11.84.16-10.33-1.82-10.88-1.81-.75-21.37-7.9-51.1,9.07-45.34Z"/>
                <path class="cls-31" d="m1130.13,744.76c6.68-1.53,2.53,18.15,3.63,35.37-8.39,7.78-6.36-22.56-14.51-22.67.09-.5-3.11-1.3-1.81-9.97,5.4-4.1,10.26-2.09,12.7-2.72Z"/>
              </g>
              <g>
                <path class="cls-34" d="m1213.55,737.5c-11.47-8.47-25.13-8.66-27.2,7.25-1.14,8.7,1.82,17.26,1.81,25.39,0,3.17-.06,5.76,0,9.07.4,20.21,2.19,42.5-5.44,39.9-1,.03-2.47-.02-3.63,0-6.58-3.58-2.89-30.46-3.63-50.78-.34-9.35.25-18.76,0-28.11-25.72-10.04-14.09,21.35-14.51,33.55-.51,15-3.37,30.19-1.81,45.34-.37,0,2.05,1.69-7.25,1.81,1.21-15.85-.85-31.4-1.81-47.15-.61-9.9.44-20,0-29.92-1.5-3.7-15.52-.25-19.95.91-2.43.63-7.29-1.38-12.7,2.72-1.3,8.68,1.9,9.48,1.81,9.97-4.05,22.24-4.33,40.78-3.63,63.48-5.41-.06-10.9.07-16.32,0-2.62-34.43,7.8-84.83-10.88-68.92-4.92-8.85-8.94-2-9.07-.91-.07.57,3.64,2.99,3.63,3.63-.85,30.36-2.64-7.43-7.25,5.44-.61,1.7-.05,15.27,0,20.86.09,10.69,6.45,32.43-1.81,39.9-1.17-.11-2.53.23-3.63,0-2.63-.54-9.44,1.13-10.88-.91,1.47-12.48-1.18-24.87-1.81-37.18-.29-5.71,8.21-33.85-9.97-25.39-6.54,3.04-.84,24.12-.91,25.39-.84,16.33-.72,32.63-7.25,38.09-1.28-.2-4.6,4.96-9.07-.91-.25-11.17.34-22.39,0-33.55-.13-4.19.92-25.89-.91-27.2-10.53-7.6-4.53,25.58-4.53,27.2-.02,6.89.29,24.28,0,26.3-.21,1.45-3.57,2.5-3.63,2.72h-14.51c-.14-6.95-1.51-23.65-5.44-27.2,1.52-.16,4.89.69,5.44-.91,5.94-17.32-6.77-42.45-7.25-.91-.66-.79-3.28,3.74-5.44.91-12.52-31.25-7.93,17.34-9.07,28.11-.16,1.55-2.74,2.84-1.81,7.25-.64.02-1.87,1.66-12.7,1.81v-51.69c-6.37-6.41-10.34-.96-10.88-.91-12.29,1.14-15.47,5.31-16.32,5.44-.7.11.82-8.78-10.88-.91v44.43c-.96,0,7.91,2.19-16.32,1.81v-48.97c78.05-15.46,156.4-27,234.86-39.9,27.39-4.5,74.83-28.93,70.73,12.7-2.76,1.83.43-2.73-8.16-9.07Z"/>
                <g>
                  <path class="cls-18" d="m999.55,786.47c.08.1,1.53,1.56,1.81,1.81,3.93,3.55,5.3,20.26,5.44,27.2.03,1.34-2.77,2.74-1.81,7.25-3.4.23-7.42,1.61-10.88,1.81,1.17-7.59-3.63-6.44-9.07-9.07,1.14-10.77-3.45-59.36,9.07-28.11,2.16,2.83,4.78-1.7,5.44-.91Z"/>
                  <path class="cls-25" d="m1213.55,737.5v3.63l-27.2,3.63c2.08-15.91,15.74-15.72,27.2-7.25Z"/>
                  <path class="cls-42" d="m1030.38,786.47h-5.44c0-1.63-5.99-34.81,4.53-27.2,1.83,1.32.78,23.02.91,27.2Z"/>
                  <path class="cls-25" d="m1175.47,768.33l-14.51,5.44c.42-12.2-11.21-43.59,14.51-33.55.25,9.35-.34,18.76,0,28.11Z"/>
                  <path class="cls-25" d="m1057.58,782.84h-10.88c.07-1.27-5.63-22.35.91-25.39,18.19-8.46,9.68,19.68,9.97,25.39Z"/>
                  <path class="cls-37" d="m1088.42,752.01c1.37,2.47,1.82,1.33,3.63,2.72-11.3,8.77,7.99,32.31-16.32,26.3-.05-5.58-.61-19.16,0-20.86,4.62-12.87,6.41,24.91,7.25-5.44.02-.63-3.69-3.05-3.63-3.63.12-1.1,4.15-7.94,9.07.91Z"/>
                  <path class="cls-51" d="m1001.36,788.28c-.28-.25-1.73-1.71-1.81-1.81.49-41.54,13.19-16.41,7.25.91-.55,1.6-3.92.75-5.44.91Z"/>
                  <path class="cls-4" d="m991.39,766.52c7.1-1.09,7.92,7.29,5.44,9.07-6.3,4.52-15.96-7.45-5.44-9.07Z"/>
                </g>
              </g>
            </g>
          </g>
        </g>
        <path class="cls-25" d="m304.94,831.81c-2.36,1.59-4.55,4.32-7.25,5.44l-1.81-74.36c1-2.16.96-7.95,5.44-9.07-.34,25.46,2.51,52.44,3.63,77.99Z"/>
      </g>
    </g>
  </g>
</svg>